G04 #@! TF.GenerationSoftware,KiCad,Pcbnew,(5.1.0)-1*
G04 #@! TF.CreationDate,2019-03-23T20:55:25-04:00*
G04 #@! TF.ProjectId,current_sense,63757272-656e-4745-9f73-656e73652e6b,rev?*
G04 #@! TF.SameCoordinates,Original*
G04 #@! TF.FileFunction,Legend,Bot*
G04 #@! TF.FilePolarity,Positive*
%FSLAX46Y46*%
G04 Gerber Fmt 4.6, Leading zero omitted, Abs format (unit mm)*
G04 Created by KiCad (PCBNEW (5.1.0)-1) date 2019-03-23 20:55:25*
%MOMM*%
%LPD*%
G04 APERTURE LIST*
%ADD10C,0.200000*%
%ADD11C,0.010000*%
G04 APERTURE END LIST*
D10*
X102932761Y-64954761D02*
X102880380Y-64797619D01*
X102880380Y-64535714D01*
X102932761Y-64430952D01*
X102985142Y-64378571D01*
X103089904Y-64326190D01*
X103194666Y-64326190D01*
X103299428Y-64378571D01*
X103351809Y-64430952D01*
X103404190Y-64535714D01*
X103456571Y-64745238D01*
X103508952Y-64850000D01*
X103561333Y-64902380D01*
X103666095Y-64954761D01*
X103770857Y-64954761D01*
X103875619Y-64902380D01*
X103928000Y-64850000D01*
X103980380Y-64745238D01*
X103980380Y-64483333D01*
X103928000Y-64326190D01*
X103980380Y-64011904D02*
X103980380Y-63383333D01*
X102880380Y-63697619D02*
X103980380Y-63697619D01*
X103456571Y-63016666D02*
X103456571Y-62650000D01*
X102880380Y-62492857D02*
X102880380Y-63016666D01*
X103980380Y-63016666D01*
X103980380Y-62492857D01*
X103980380Y-62178571D02*
X102880380Y-61811904D01*
X103980380Y-61445238D01*
X103456571Y-61078571D02*
X103456571Y-60711904D01*
X102880380Y-60554761D02*
X102880380Y-61078571D01*
X103980380Y-61078571D01*
X103980380Y-60554761D01*
X102880380Y-58616666D02*
X103404190Y-58983333D01*
X102880380Y-59245238D02*
X103980380Y-59245238D01*
X103980380Y-58826190D01*
X103928000Y-58721428D01*
X103875619Y-58669047D01*
X103770857Y-58616666D01*
X103613714Y-58616666D01*
X103508952Y-58669047D01*
X103456571Y-58721428D01*
X103404190Y-58826190D01*
X103404190Y-59245238D01*
X102880380Y-58145238D02*
X103980380Y-58145238D01*
X102985142Y-56992857D02*
X102932761Y-57045238D01*
X102880380Y-57202380D01*
X102880380Y-57307142D01*
X102932761Y-57464285D01*
X103037523Y-57569047D01*
X103142285Y-57621428D01*
X103351809Y-57673809D01*
X103508952Y-57673809D01*
X103718476Y-57621428D01*
X103823238Y-57569047D01*
X103928000Y-57464285D01*
X103980380Y-57307142D01*
X103980380Y-57202380D01*
X103928000Y-57045238D01*
X103875619Y-56992857D01*
X102880380Y-56521428D02*
X103980380Y-56521428D01*
X103456571Y-56521428D02*
X103456571Y-55892857D01*
X102880380Y-55892857D02*
X103980380Y-55892857D01*
X103194666Y-55421428D02*
X103194666Y-54897619D01*
X102880380Y-55526190D02*
X103980380Y-55159523D01*
X102880380Y-54792857D01*
X102880380Y-53797619D02*
X103404190Y-54164285D01*
X102880380Y-54426190D02*
X103980380Y-54426190D01*
X103980380Y-54007142D01*
X103928000Y-53902380D01*
X103875619Y-53850000D01*
X103770857Y-53797619D01*
X103613714Y-53797619D01*
X103508952Y-53850000D01*
X103456571Y-53902380D01*
X103404190Y-54007142D01*
X103404190Y-54426190D01*
X102880380Y-53326190D02*
X103980380Y-53326190D01*
X103980380Y-53064285D01*
X103928000Y-52907142D01*
X103823238Y-52802380D01*
X103718476Y-52750000D01*
X103508952Y-52697619D01*
X103351809Y-52697619D01*
X103142285Y-52750000D01*
X103037523Y-52802380D01*
X102932761Y-52907142D01*
X102880380Y-53064285D01*
X102880380Y-53326190D01*
X102932761Y-52278571D02*
X102880380Y-52121428D01*
X102880380Y-51859523D01*
X102932761Y-51754761D01*
X102985142Y-51702380D01*
X103089904Y-51650000D01*
X103194666Y-51650000D01*
X103299428Y-51702380D01*
X103351809Y-51754761D01*
X103404190Y-51859523D01*
X103456571Y-52069047D01*
X103508952Y-52173809D01*
X103561333Y-52226190D01*
X103666095Y-52278571D01*
X103770857Y-52278571D01*
X103875619Y-52226190D01*
X103928000Y-52173809D01*
X103980380Y-52069047D01*
X103980380Y-51807142D01*
X103928000Y-51650000D01*
X103980380Y-50969047D02*
X103980380Y-50759523D01*
X103928000Y-50654761D01*
X103823238Y-50550000D01*
X103613714Y-50497619D01*
X103247047Y-50497619D01*
X103037523Y-50550000D01*
X102932761Y-50654761D01*
X102880380Y-50759523D01*
X102880380Y-50969047D01*
X102932761Y-51073809D01*
X103037523Y-51178571D01*
X103247047Y-51230952D01*
X103613714Y-51230952D01*
X103823238Y-51178571D01*
X103928000Y-51073809D01*
X103980380Y-50969047D01*
X102880380Y-50026190D02*
X103980380Y-50026190D01*
X102880380Y-49397619D01*
X103980380Y-49397619D01*
X104404380Y-63435714D02*
X104928190Y-63802380D01*
X104404380Y-64064285D02*
X105504380Y-64064285D01*
X105504380Y-63645238D01*
X105452000Y-63540476D01*
X105399619Y-63488095D01*
X105294857Y-63435714D01*
X105137714Y-63435714D01*
X105032952Y-63488095D01*
X104980571Y-63540476D01*
X104928190Y-63645238D01*
X104928190Y-64064285D01*
X104980571Y-62964285D02*
X104980571Y-62597619D01*
X104404380Y-62440476D02*
X104404380Y-62964285D01*
X105504380Y-62964285D01*
X105504380Y-62440476D01*
X105504380Y-62126190D02*
X104404380Y-61759523D01*
X105504380Y-61392857D01*
X105504380Y-60816666D02*
X105504380Y-60711904D01*
X105452000Y-60607142D01*
X105399619Y-60554761D01*
X105294857Y-60502380D01*
X105085333Y-60450000D01*
X104823428Y-60450000D01*
X104613904Y-60502380D01*
X104509142Y-60554761D01*
X104456761Y-60607142D01*
X104404380Y-60711904D01*
X104404380Y-60816666D01*
X104456761Y-60921428D01*
X104509142Y-60973809D01*
X104613904Y-61026190D01*
X104823428Y-61078571D01*
X105085333Y-61078571D01*
X105294857Y-61026190D01*
X105399619Y-60973809D01*
X105452000Y-60921428D01*
X105504380Y-60816666D01*
X105399619Y-59192857D02*
X105452000Y-59140476D01*
X105504380Y-59035714D01*
X105504380Y-58773809D01*
X105452000Y-58669047D01*
X105399619Y-58616666D01*
X105294857Y-58564285D01*
X105190095Y-58564285D01*
X105032952Y-58616666D01*
X104404380Y-59245238D01*
X104404380Y-58564285D01*
X105504380Y-57883333D02*
X105504380Y-57778571D01*
X105452000Y-57673809D01*
X105399619Y-57621428D01*
X105294857Y-57569047D01*
X105085333Y-57516666D01*
X104823428Y-57516666D01*
X104613904Y-57569047D01*
X104509142Y-57621428D01*
X104456761Y-57673809D01*
X104404380Y-57778571D01*
X104404380Y-57883333D01*
X104456761Y-57988095D01*
X104509142Y-58040476D01*
X104613904Y-58092857D01*
X104823428Y-58145238D01*
X105085333Y-58145238D01*
X105294857Y-58092857D01*
X105399619Y-58040476D01*
X105452000Y-57988095D01*
X105504380Y-57883333D01*
X104404380Y-56469047D02*
X104404380Y-57097619D01*
X104404380Y-56783333D02*
X105504380Y-56783333D01*
X105347238Y-56888095D01*
X105242476Y-56992857D01*
X105190095Y-57097619D01*
X104404380Y-55945238D02*
X104404380Y-55735714D01*
X104456761Y-55630952D01*
X104509142Y-55578571D01*
X104666285Y-55473809D01*
X104875809Y-55421428D01*
X105294857Y-55421428D01*
X105399619Y-55473809D01*
X105452000Y-55526190D01*
X105504380Y-55630952D01*
X105504380Y-55840476D01*
X105452000Y-55945238D01*
X105399619Y-55997619D01*
X105294857Y-56050000D01*
X105032952Y-56050000D01*
X104928190Y-55997619D01*
X104875809Y-55945238D01*
X104823428Y-55840476D01*
X104823428Y-55630952D01*
X104875809Y-55526190D01*
X104928190Y-55473809D01*
X105032952Y-55421428D01*
X104509142Y-54950000D02*
X104456761Y-54897619D01*
X104404380Y-54950000D01*
X104456761Y-55002380D01*
X104509142Y-54950000D01*
X104404380Y-54950000D01*
X105504380Y-54216666D02*
X105504380Y-54111904D01*
X105452000Y-54007142D01*
X105399619Y-53954761D01*
X105294857Y-53902380D01*
X105085333Y-53850000D01*
X104823428Y-53850000D01*
X104613904Y-53902380D01*
X104509142Y-53954761D01*
X104456761Y-54007142D01*
X104404380Y-54111904D01*
X104404380Y-54216666D01*
X104456761Y-54321428D01*
X104509142Y-54373809D01*
X104613904Y-54426190D01*
X104823428Y-54478571D01*
X105085333Y-54478571D01*
X105294857Y-54426190D01*
X105399619Y-54373809D01*
X105452000Y-54321428D01*
X105504380Y-54216666D01*
X105504380Y-53483333D02*
X105504380Y-52802380D01*
X105085333Y-53169047D01*
X105085333Y-53011904D01*
X105032952Y-52907142D01*
X104980571Y-52854761D01*
X104875809Y-52802380D01*
X104613904Y-52802380D01*
X104509142Y-52854761D01*
X104456761Y-52907142D01*
X104404380Y-53011904D01*
X104404380Y-53326190D01*
X104456761Y-53430952D01*
X104509142Y-53483333D01*
X104509142Y-52330952D02*
X104456761Y-52278571D01*
X104404380Y-52330952D01*
X104456761Y-52383333D01*
X104509142Y-52330952D01*
X104404380Y-52330952D01*
X105399619Y-51859523D02*
X105452000Y-51807142D01*
X105504380Y-51702380D01*
X105504380Y-51440476D01*
X105452000Y-51335714D01*
X105399619Y-51283333D01*
X105294857Y-51230952D01*
X105190095Y-51230952D01*
X105032952Y-51283333D01*
X104404380Y-51911904D01*
X104404380Y-51230952D01*
X105504380Y-50864285D02*
X105504380Y-50183333D01*
X105085333Y-50550000D01*
X105085333Y-50392857D01*
X105032952Y-50288095D01*
X104980571Y-50235714D01*
X104875809Y-50183333D01*
X104613904Y-50183333D01*
X104509142Y-50235714D01*
X104456761Y-50288095D01*
X104404380Y-50392857D01*
X104404380Y-50707142D01*
X104456761Y-50811904D01*
X104509142Y-50864285D01*
D11*
G36*
X113775067Y-67987333D02*
G01*
X113775067Y-46278800D01*
X113030000Y-46278800D01*
X113030000Y-67987333D01*
X113775067Y-67987333D01*
G37*
X113775067Y-67987333D02*
X113775067Y-46278800D01*
X113030000Y-46278800D01*
X113030000Y-67987333D01*
X113775067Y-67987333D01*
G36*
X117331066Y-45720000D02*
G01*
X113030000Y-45720000D01*
X113030000Y-46278800D01*
X117331066Y-46278800D01*
X117331066Y-45720000D01*
G37*
X117331066Y-45720000D02*
X113030000Y-45720000D01*
X113030000Y-46278800D01*
X117331066Y-46278800D01*
X117331066Y-45720000D01*
G36*
X117331066Y-67987333D02*
G01*
X113030000Y-67987333D01*
X113030000Y-68580000D01*
X117331066Y-68580000D01*
X117331066Y-67987333D01*
G37*
X117331066Y-67987333D02*
X113030000Y-67987333D01*
X113030000Y-68580000D01*
X117331066Y-68580000D01*
X117331066Y-67987333D01*
G36*
X115967933Y-46278927D02*
G01*
X115628918Y-46279037D01*
X115351948Y-46279487D01*
X115131338Y-46280556D01*
X114961400Y-46282523D01*
X114836446Y-46285670D01*
X114750791Y-46290275D01*
X114698745Y-46296619D01*
X114674624Y-46304981D01*
X114672739Y-46315642D01*
X114687403Y-46328882D01*
X114706416Y-46341023D01*
X114808042Y-46435490D01*
X114904787Y-46587289D01*
X114991094Y-46786023D01*
X115053938Y-46991244D01*
X115106205Y-47180807D01*
X115153289Y-47312865D01*
X115200268Y-47396868D01*
X115252217Y-47442262D01*
X115304509Y-47457600D01*
X115396981Y-47438717D01*
X115463317Y-47363158D01*
X115498222Y-47238696D01*
X115502266Y-47167280D01*
X115496075Y-47080111D01*
X115470127Y-47007999D01*
X115413366Y-46928883D01*
X115344222Y-46852003D01*
X115232801Y-46708812D01*
X115185191Y-46584751D01*
X115200845Y-46477826D01*
X115229836Y-46433005D01*
X115304290Y-46390586D01*
X115409407Y-46384190D01*
X115519217Y-46412682D01*
X115579409Y-46448265D01*
X115699166Y-46582856D01*
X115778446Y-46767487D01*
X115818050Y-47004443D01*
X115823223Y-47142906D01*
X115820781Y-47301982D01*
X115809746Y-47416211D01*
X115785998Y-47508331D01*
X115745419Y-47601081D01*
X115737325Y-47617039D01*
X115624620Y-47783927D01*
X115487645Y-47889041D01*
X115321974Y-47935369D01*
X115261370Y-47938267D01*
X115101876Y-47909782D01*
X114964067Y-47823023D01*
X114846338Y-47676029D01*
X114747087Y-47466844D01*
X114670365Y-47216386D01*
X114612039Y-47021806D01*
X114548817Y-46889196D01*
X114476903Y-46812805D01*
X114392506Y-46786877D01*
X114387085Y-46786800D01*
X114283342Y-46815750D01*
X114214977Y-46901079D01*
X114183501Y-47040506D01*
X114181466Y-47096931D01*
X114192956Y-47255681D01*
X114235149Y-47372688D01*
X114319631Y-47471188D01*
X114399346Y-47533885D01*
X114492182Y-47607666D01*
X114539044Y-47669044D01*
X114553714Y-47737500D01*
X114554000Y-47752492D01*
X114528276Y-47868675D01*
X114458704Y-47941718D01*
X114356684Y-47967670D01*
X114233615Y-47942577D01*
X114144141Y-47894623D01*
X114013224Y-47767538D01*
X113915298Y-47590932D01*
X113853871Y-47376264D01*
X113832452Y-47134993D01*
X113847267Y-46924881D01*
X113904639Y-46686208D01*
X114001375Y-46502206D01*
X114137281Y-46373219D01*
X114164629Y-46356581D01*
X114300000Y-46279914D01*
X114037533Y-46279357D01*
X113775067Y-46278800D01*
X113776144Y-52095400D01*
X113776377Y-52859019D01*
X113776792Y-53557348D01*
X113777409Y-54192831D01*
X113778244Y-54767913D01*
X113779315Y-55285036D01*
X113780641Y-55746645D01*
X113782240Y-56155183D01*
X113784129Y-56513094D01*
X113786326Y-56822821D01*
X113788849Y-57086809D01*
X113791717Y-57307500D01*
X113794947Y-57487340D01*
X113798558Y-57628771D01*
X113802566Y-57734237D01*
X113806991Y-57806182D01*
X113811849Y-57847050D01*
X113817160Y-57859284D01*
X113818477Y-57858265D01*
X113881253Y-57799609D01*
X113935933Y-57763940D01*
X113992025Y-57740706D01*
X114010719Y-57760502D01*
X114011877Y-57783809D01*
X114006199Y-57856794D01*
X113991969Y-57962682D01*
X113972762Y-58080777D01*
X113952155Y-58190382D01*
X113933723Y-58270801D01*
X113922586Y-58300610D01*
X113891635Y-58290225D01*
X113841601Y-58240552D01*
X113839885Y-58238448D01*
X113831004Y-58228520D01*
X113822975Y-58223855D01*
X113815752Y-58227643D01*
X113809295Y-58243078D01*
X113803559Y-58273349D01*
X113798503Y-58321648D01*
X113794083Y-58391168D01*
X113790257Y-58485098D01*
X113786982Y-58606631D01*
X113784214Y-58758959D01*
X113781912Y-58945271D01*
X113780032Y-59168761D01*
X113778533Y-59432619D01*
X113777370Y-59740036D01*
X113776501Y-60094205D01*
X113775883Y-60498317D01*
X113775474Y-60955562D01*
X113775231Y-61469133D01*
X113775110Y-62042221D01*
X113775070Y-62678017D01*
X113775067Y-63072915D01*
X113775067Y-67987333D01*
X113883139Y-67987333D01*
X113952096Y-67983935D01*
X113962278Y-67968984D01*
X113935464Y-67945000D01*
X113862783Y-67854461D01*
X113834927Y-67742318D01*
X113854721Y-67645995D01*
X113882558Y-67598203D01*
X113918183Y-67560540D01*
X113969437Y-67531767D01*
X114044161Y-67510651D01*
X114150196Y-67495953D01*
X114295383Y-67486439D01*
X114487564Y-67480872D01*
X114734580Y-67478016D01*
X114926533Y-67477035D01*
X115790133Y-67473738D01*
X114960400Y-67260139D01*
X114729038Y-67200119D01*
X114515719Y-67143908D01*
X114330410Y-67094203D01*
X114183081Y-67053699D01*
X114083701Y-67025095D01*
X114046000Y-67012824D01*
X113921301Y-66931494D01*
X113850194Y-66813289D01*
X113836706Y-66667497D01*
X113856379Y-66575502D01*
X113880237Y-66532415D01*
X113927673Y-66490994D01*
X114005025Y-66448939D01*
X114118633Y-66403951D01*
X114274836Y-66353730D01*
X114479973Y-66295977D01*
X114740384Y-66228393D01*
X114972521Y-66170670D01*
X115780509Y-65972267D01*
X114880262Y-65955334D01*
X114609673Y-65950039D01*
X114398582Y-65945045D01*
X114238763Y-65939585D01*
X114121990Y-65932891D01*
X114040036Y-65924197D01*
X113984676Y-65912736D01*
X113947682Y-65897740D01*
X113920828Y-65878442D01*
X113906188Y-65864507D01*
X113847289Y-65765126D01*
X113837182Y-65650830D01*
X113875438Y-65546848D01*
X113912253Y-65506864D01*
X113936598Y-65490983D01*
X113970967Y-65478192D01*
X114022322Y-65468163D01*
X114097624Y-65460574D01*
X114203833Y-65455098D01*
X114321026Y-65452099D01*
X114321026Y-65036019D01*
X114173871Y-65002234D01*
X114147669Y-64990169D01*
X114031458Y-64899658D01*
X113931389Y-64767112D01*
X113858347Y-64613828D01*
X113823217Y-64461108D01*
X113827479Y-64363600D01*
X113839070Y-64299103D01*
X113855120Y-64201253D01*
X113859790Y-64171507D01*
X113891968Y-64057786D01*
X113948617Y-63930146D01*
X113980797Y-63873997D01*
X114035798Y-63783138D01*
X114071727Y-63715855D01*
X114079769Y-63693557D01*
X114054329Y-63660434D01*
X113992037Y-63610790D01*
X113980263Y-63602732D01*
X113876257Y-63509950D01*
X113836738Y-63409984D01*
X113858473Y-63294384D01*
X113860440Y-63289628D01*
X113902941Y-63214637D01*
X113961531Y-63173155D01*
X114049911Y-63161985D01*
X114181783Y-63177928D01*
X114266907Y-63194771D01*
X114405336Y-63216167D01*
X114586378Y-63232967D01*
X114784965Y-63243204D01*
X114913013Y-63245412D01*
X115136809Y-63249276D01*
X115197504Y-63253956D01*
X115197504Y-62721067D01*
X114881919Y-62720814D01*
X114626928Y-62719831D01*
X114425395Y-62717778D01*
X114270181Y-62714315D01*
X114154150Y-62709103D01*
X114070163Y-62701803D01*
X114011084Y-62692075D01*
X113969774Y-62679580D01*
X113939096Y-62663979D01*
X113934464Y-62661019D01*
X113862569Y-62577010D01*
X113840526Y-62463679D01*
X113871821Y-62341085D01*
X113877065Y-62330856D01*
X113944418Y-62270636D01*
X114067239Y-62226348D01*
X114234490Y-62201082D01*
X114357543Y-62196322D01*
X114470986Y-62192781D01*
X114541612Y-62175716D01*
X114594247Y-62135046D01*
X114636943Y-62082870D01*
X114690467Y-62008726D01*
X114720776Y-61959039D01*
X114723333Y-61951263D01*
X114696207Y-61926938D01*
X114623906Y-61878012D01*
X114520047Y-61813519D01*
X114477800Y-61788374D01*
X114247820Y-61650090D01*
X114073954Y-61538668D01*
X113951645Y-61450858D01*
X113876337Y-61383407D01*
X113844678Y-61336626D01*
X113834294Y-61221173D01*
X113878001Y-61113064D01*
X113949158Y-61047926D01*
X114005101Y-61023683D01*
X114064634Y-61017956D01*
X114137478Y-61034499D01*
X114233355Y-61077069D01*
X114361986Y-61149420D01*
X114533092Y-61255309D01*
X114605759Y-61301594D01*
X114755010Y-61396315D01*
X114886156Y-61478103D01*
X114907415Y-61491039D01*
X114907415Y-60869998D01*
X114759193Y-60867615D01*
X114489432Y-60820803D01*
X114261574Y-60723714D01*
X114078905Y-60579200D01*
X113944708Y-60390114D01*
X113862269Y-60159311D01*
X113847104Y-60075338D01*
X113833302Y-59955216D01*
X113827294Y-59854198D01*
X113828895Y-59808534D01*
X113840853Y-59730814D01*
X113857441Y-59626511D01*
X113860609Y-59606909D01*
X113905518Y-59444290D01*
X113979817Y-59296991D01*
X114066215Y-59184020D01*
X114066215Y-58470456D01*
X114027883Y-58429689D01*
X114023449Y-58344273D01*
X114025088Y-58335747D01*
X114037937Y-58263167D01*
X114056381Y-58145469D01*
X114077007Y-58004664D01*
X114082888Y-57962800D01*
X114116500Y-57774552D01*
X114155633Y-57653127D01*
X114200174Y-57598754D01*
X114250007Y-57611665D01*
X114254918Y-57616305D01*
X114272454Y-57652709D01*
X114277407Y-57722066D01*
X114269687Y-57835992D01*
X114252125Y-57983989D01*
X114229794Y-58134788D01*
X114205447Y-58267553D01*
X114182874Y-58362777D01*
X114172995Y-58391202D01*
X114120551Y-58459863D01*
X114066215Y-58470456D01*
X114066215Y-59184020D01*
X114074349Y-59173384D01*
X114179956Y-59081840D01*
X114287480Y-59030729D01*
X114348879Y-59029318D01*
X114348879Y-58497096D01*
X114314546Y-58486258D01*
X114290950Y-58433437D01*
X114295531Y-58326321D01*
X114296094Y-58322476D01*
X114310883Y-58219408D01*
X114330465Y-58078075D01*
X114350843Y-57927370D01*
X114352746Y-57913083D01*
X114380315Y-57741813D01*
X114410447Y-57632993D01*
X114445761Y-57581340D01*
X114488880Y-57581569D01*
X114510034Y-57595938D01*
X114530960Y-57622498D01*
X114542200Y-57666281D01*
X114543301Y-57737226D01*
X114533809Y-57845270D01*
X114513269Y-58000354D01*
X114482153Y-58206465D01*
X114447219Y-58366395D01*
X114402410Y-58463916D01*
X114348879Y-58497096D01*
X114348879Y-59029318D01*
X114387763Y-59028424D01*
X114453764Y-59064702D01*
X114507647Y-59137896D01*
X114510294Y-59221299D01*
X114459808Y-59324765D01*
X114384795Y-59422810D01*
X114275676Y-59566208D01*
X114211983Y-59690409D01*
X114184562Y-59816326D01*
X114181593Y-59886938D01*
X114212583Y-60041800D01*
X114295989Y-60176532D01*
X114417950Y-60277039D01*
X114564607Y-60329224D01*
X114620645Y-60333467D01*
X114647674Y-60330190D01*
X114666540Y-60313475D01*
X114678731Y-60272995D01*
X114685739Y-60198421D01*
X114689053Y-60079427D01*
X114690164Y-59905686D01*
X114690274Y-59850867D01*
X114693519Y-59585997D01*
X114704180Y-59381332D01*
X114725138Y-59229496D01*
X114759275Y-59123114D01*
X114809476Y-59054809D01*
X114878621Y-59017205D01*
X114969592Y-59002926D01*
X115021906Y-59002192D01*
X115246883Y-59038059D01*
X115450794Y-59134744D01*
X115624518Y-59286394D01*
X115749843Y-59469423D01*
X115787402Y-59556805D01*
X115809797Y-59656549D01*
X115820413Y-59789153D01*
X115822639Y-59910134D01*
X115821102Y-60063601D01*
X115811800Y-60172032D01*
X115790149Y-60258051D01*
X115751569Y-60344280D01*
X115724551Y-60394448D01*
X115579612Y-60589451D01*
X115390893Y-60735778D01*
X115164719Y-60830327D01*
X114907415Y-60869998D01*
X114907415Y-61491039D01*
X114987555Y-61539808D01*
X115047570Y-61574276D01*
X115056344Y-61578469D01*
X115100050Y-61564162D01*
X115177110Y-61510075D01*
X115274502Y-61425789D01*
X115310344Y-61391553D01*
X115440259Y-61270277D01*
X115538013Y-61196527D01*
X115614842Y-61165825D01*
X115681981Y-61173691D01*
X115750664Y-61215644D01*
X115750945Y-61215865D01*
X115813334Y-61274993D01*
X115842879Y-61335393D01*
X115836164Y-61404882D01*
X115789775Y-61491274D01*
X115700296Y-61602385D01*
X115564312Y-61746031D01*
X115484280Y-61826098D01*
X115127627Y-62179200D01*
X115748349Y-62196133D01*
X116002961Y-62204633D01*
X116197733Y-62216236D01*
X116227875Y-62219901D01*
X116227875Y-58907699D01*
X116184333Y-58905582D01*
X116076571Y-58896277D01*
X115984319Y-58877684D01*
X115889261Y-58843169D01*
X115773077Y-58786098D01*
X115619670Y-58701100D01*
X115366297Y-58571530D01*
X115138374Y-58488194D01*
X114917678Y-58445551D01*
X114750980Y-58436933D01*
X114621733Y-58436933D01*
X114621733Y-57633928D01*
X114835987Y-57613921D01*
X115110956Y-57561055D01*
X115381025Y-57451818D01*
X115600911Y-57320438D01*
X115600911Y-56946800D01*
X115506086Y-56917938D01*
X115448680Y-56837185D01*
X115434533Y-56745827D01*
X115431875Y-56720182D01*
X115417542Y-56701698D01*
X115381990Y-56689183D01*
X115315681Y-56681448D01*
X115209072Y-56677302D01*
X115052623Y-56675555D01*
X114867266Y-56675059D01*
X114667202Y-56672961D01*
X114481145Y-56667686D01*
X114323893Y-56659902D01*
X114210242Y-56650274D01*
X114167667Y-56643556D01*
X114013425Y-56577342D01*
X113905439Y-56461916D01*
X113845965Y-56302019D01*
X113827672Y-56212217D01*
X113815312Y-56158099D01*
X113812840Y-56150933D01*
X113815952Y-56120583D01*
X113827591Y-56041733D01*
X113841982Y-55951520D01*
X113883016Y-55786262D01*
X113944112Y-55681465D01*
X114029173Y-55631811D01*
X114080969Y-55626000D01*
X114177150Y-55646040D01*
X114230499Y-55710109D01*
X114244555Y-55824133D01*
X114239292Y-55890919D01*
X114229933Y-55980404D01*
X114231781Y-56046601D01*
X114253349Y-56093236D01*
X114303150Y-56124039D01*
X114389697Y-56142737D01*
X114521503Y-56153057D01*
X114707083Y-56158728D01*
X114857504Y-56161630D01*
X115244696Y-56168807D01*
X115244696Y-54508400D01*
X114925852Y-54507938D01*
X114667861Y-54506367D01*
X114463849Y-54503405D01*
X114306940Y-54498775D01*
X114190260Y-54492195D01*
X114106934Y-54483387D01*
X114050087Y-54472070D01*
X114013511Y-54458313D01*
X113940358Y-54410571D01*
X113899493Y-54365570D01*
X113899333Y-54365179D01*
X113894293Y-54320241D01*
X113889598Y-54217670D01*
X113885492Y-54067568D01*
X113882218Y-53880034D01*
X113880018Y-53665171D01*
X113879340Y-53534734D01*
X113878784Y-53283057D01*
X113879492Y-53090283D01*
X113882135Y-52947581D01*
X113887386Y-52846122D01*
X113895917Y-52777077D01*
X113908399Y-52731617D01*
X113925503Y-52700913D01*
X113944400Y-52679600D01*
X114025081Y-52628362D01*
X114096800Y-52611867D01*
X114184402Y-52635422D01*
X114249200Y-52679600D01*
X114273447Y-52708363D01*
X114291123Y-52745753D01*
X114303256Y-52802049D01*
X114310874Y-52887532D01*
X114315004Y-53012480D01*
X114316675Y-53187174D01*
X114316933Y-53356934D01*
X114316933Y-53966534D01*
X114459278Y-53966534D01*
X114459278Y-52406100D01*
X114287426Y-52396764D01*
X114124026Y-52334312D01*
X113986996Y-52223160D01*
X113964681Y-52195934D01*
X113901455Y-52085573D01*
X113852430Y-51950479D01*
X113825978Y-51819001D01*
X113827479Y-51731334D01*
X113839070Y-51666837D01*
X113855120Y-51568987D01*
X113859790Y-51539240D01*
X113891968Y-51425519D01*
X113948617Y-51297880D01*
X113980797Y-51241730D01*
X114050392Y-51122996D01*
X114077843Y-51051196D01*
X114064737Y-51021538D01*
X114054120Y-51020133D01*
X114014649Y-50999123D01*
X113950094Y-50947267D01*
X113935587Y-50934096D01*
X113859845Y-50824973D01*
X113846798Y-50704819D01*
X113897664Y-50587688D01*
X113904803Y-50578534D01*
X113966806Y-50501963D01*
X114244157Y-50557848D01*
X114430040Y-50585917D01*
X114654587Y-50605288D01*
X114889022Y-50613589D01*
X114922167Y-50613733D01*
X115144274Y-50617418D01*
X115208422Y-50622513D01*
X115208422Y-50173467D01*
X114840388Y-50172403D01*
X114533004Y-50169239D01*
X114287703Y-50164015D01*
X114105921Y-50156773D01*
X113989093Y-50147553D01*
X113940263Y-50137386D01*
X113863369Y-50063951D01*
X113835171Y-49965741D01*
X113852668Y-49861748D01*
X113912861Y-49770962D01*
X114007118Y-49714160D01*
X114078584Y-49687815D01*
X114093148Y-49664373D01*
X114058348Y-49625871D01*
X114048082Y-49616551D01*
X113932775Y-49469195D01*
X113863955Y-49288487D01*
X113841037Y-49089777D01*
X113863434Y-48888415D01*
X113930561Y-48699753D01*
X114041832Y-48539141D01*
X114090972Y-48492501D01*
X114289863Y-48366008D01*
X114524071Y-48284388D01*
X114777482Y-48248438D01*
X115033981Y-48258954D01*
X115277455Y-48316733D01*
X115491789Y-48422572D01*
X115492724Y-48423198D01*
X115656976Y-48571232D01*
X115768692Y-48752649D01*
X115826061Y-48955941D01*
X115827271Y-49169604D01*
X115770511Y-49382133D01*
X115671488Y-49558647D01*
X115569575Y-49699333D01*
X115989369Y-49699333D01*
X116173081Y-49700840D01*
X116301921Y-49706389D01*
X116388705Y-49717529D01*
X116446246Y-49735805D01*
X116482680Y-49758864D01*
X116545095Y-49847728D01*
X116560439Y-49957586D01*
X116528464Y-50061933D01*
X116485959Y-50111281D01*
X116461656Y-50127766D01*
X116429029Y-50141064D01*
X116381104Y-50151514D01*
X116310909Y-50159456D01*
X116211469Y-50165228D01*
X116075810Y-50169172D01*
X115896960Y-50171625D01*
X115667944Y-50172928D01*
X115381789Y-50173419D01*
X115208422Y-50173467D01*
X115208422Y-50622513D01*
X115311914Y-50630734D01*
X115438065Y-50657073D01*
X115535705Y-50699829D01*
X115617814Y-50762396D01*
X115661560Y-50807034D01*
X115760444Y-50960553D01*
X115819172Y-51161532D01*
X115838543Y-51413409D01*
X115834308Y-51549849D01*
X115797944Y-51812397D01*
X115723400Y-52021018D01*
X115611157Y-52174526D01*
X115565558Y-52213160D01*
X115428857Y-52297521D01*
X115317650Y-52324319D01*
X115223405Y-52294562D01*
X115179818Y-52258631D01*
X115109902Y-52157461D01*
X115105589Y-52062340D01*
X115167060Y-51977884D01*
X115168714Y-51976535D01*
X115292119Y-51875138D01*
X115372521Y-51801066D01*
X115420039Y-51739624D01*
X115444789Y-51676113D01*
X115456890Y-51595835D01*
X115460739Y-51552320D01*
X115466947Y-51387309D01*
X115450482Y-51274699D01*
X115407336Y-51201782D01*
X115336043Y-51156888D01*
X115262702Y-51128364D01*
X115206273Y-51116864D01*
X115161927Y-51129851D01*
X115124834Y-51174787D01*
X115090167Y-51259137D01*
X115053096Y-51390363D01*
X115008793Y-51575929D01*
X114978207Y-51709960D01*
X114918126Y-51938412D01*
X114852469Y-52109586D01*
X114775486Y-52233937D01*
X114681422Y-52321919D01*
X114621664Y-52357902D01*
X114459278Y-52406100D01*
X114459278Y-53966534D01*
X116404860Y-53966534D01*
X116483672Y-54050426D01*
X116549582Y-54163300D01*
X116555442Y-54284932D01*
X116502022Y-54397008D01*
X116467605Y-54432200D01*
X116442312Y-54452811D01*
X116414610Y-54469323D01*
X116377209Y-54482192D01*
X116322820Y-54491871D01*
X116244152Y-54498815D01*
X116133916Y-54503477D01*
X115984824Y-54506313D01*
X115789584Y-54507776D01*
X115540909Y-54508320D01*
X115244696Y-54508400D01*
X115244696Y-56168807D01*
X115434533Y-56172327D01*
X115434533Y-56034630D01*
X115454620Y-55912752D01*
X115507145Y-55820985D01*
X115580507Y-55770473D01*
X115663103Y-55772361D01*
X115691930Y-55787385D01*
X115754685Y-55862200D01*
X115796628Y-55974772D01*
X115807066Y-56064040D01*
X115807066Y-56167867D01*
X116058297Y-56167867D01*
X116188787Y-56170596D01*
X116297149Y-56177784D01*
X116361539Y-56187929D01*
X116364349Y-56188904D01*
X116435770Y-56247682D01*
X116483528Y-56343358D01*
X116495274Y-56446049D01*
X116486423Y-56484279D01*
X116430801Y-56577974D01*
X116341899Y-56637771D01*
X116208574Y-56668644D01*
X116057202Y-56675867D01*
X115931074Y-56677157D01*
X115856622Y-56684763D01*
X115817795Y-56704294D01*
X115798538Y-56741354D01*
X115791082Y-56768811D01*
X115748248Y-56879015D01*
X115682363Y-56934211D01*
X115600911Y-56946800D01*
X115600911Y-57320438D01*
X115611989Y-57313818D01*
X115815165Y-57195339D01*
X116012964Y-57116202D01*
X116188521Y-57082906D01*
X116212702Y-57082267D01*
X116407533Y-57110961D01*
X116607695Y-57190137D01*
X116788748Y-57309438D01*
X116825826Y-57342125D01*
X116985085Y-57518976D01*
X117084052Y-57700767D01*
X117129466Y-57902160D01*
X117134208Y-58013024D01*
X117103377Y-58261330D01*
X117014114Y-58475432D01*
X116866672Y-58654947D01*
X116661303Y-58799493D01*
X116591863Y-58834389D01*
X116471239Y-58883186D01*
X116361265Y-58905639D01*
X116227875Y-58907699D01*
X116227875Y-62219901D01*
X116340559Y-62233604D01*
X116439330Y-62259397D01*
X116501940Y-62296275D01*
X116536281Y-62346899D01*
X116550245Y-62413930D01*
X116552133Y-62467067D01*
X116541612Y-62566757D01*
X116500622Y-62630648D01*
X116460506Y-62661019D01*
X116430929Y-62677177D01*
X116391922Y-62690172D01*
X116336347Y-62700342D01*
X116257069Y-62708028D01*
X116146949Y-62713568D01*
X115998849Y-62717302D01*
X115805634Y-62719569D01*
X115560165Y-62720709D01*
X115255306Y-62721061D01*
X115197504Y-62721067D01*
X115197504Y-63253956D01*
X115305878Y-63262315D01*
X115432971Y-63287798D01*
X115530836Y-63328997D01*
X115612223Y-63389181D01*
X115659465Y-63436878D01*
X115753689Y-63585288D01*
X115814603Y-63776055D01*
X115842522Y-63992740D01*
X115837764Y-64218904D01*
X115800644Y-64438106D01*
X115731479Y-64633909D01*
X115633493Y-64786588D01*
X115513891Y-64890447D01*
X115389259Y-64943942D01*
X115271976Y-64945916D01*
X115174420Y-64895216D01*
X115127630Y-64833803D01*
X115104624Y-64731518D01*
X115147441Y-64631149D01*
X115256987Y-64530671D01*
X115266436Y-64524090D01*
X115370722Y-64436776D01*
X115433214Y-64337771D01*
X115462686Y-64207609D01*
X115468400Y-64075948D01*
X115454885Y-63930948D01*
X115409314Y-63836746D01*
X115324144Y-63780998D01*
X115279841Y-63767332D01*
X115203531Y-63756770D01*
X115148840Y-63776953D01*
X115107371Y-63837982D01*
X115070726Y-63949957D01*
X115047281Y-64047031D01*
X114986167Y-64308365D01*
X114933083Y-64511972D01*
X114884002Y-64666776D01*
X114834896Y-64781704D01*
X114781738Y-64865678D01*
X114720499Y-64927624D01*
X114647154Y-64976467D01*
X114621664Y-64990169D01*
X114481952Y-65031998D01*
X114321026Y-65036019D01*
X114321026Y-65452099D01*
X114347911Y-65451410D01*
X114536819Y-65449185D01*
X114777517Y-65448099D01*
X115076968Y-65447826D01*
X115175818Y-65447852D01*
X115454067Y-65448659D01*
X115711323Y-65450720D01*
X115939616Y-65453871D01*
X116130972Y-65457947D01*
X116277423Y-65462782D01*
X116370995Y-65468212D01*
X116403130Y-65473252D01*
X116464333Y-65544966D01*
X116501871Y-65666254D01*
X116517548Y-65843843D01*
X116518266Y-65902307D01*
X116514491Y-66046321D01*
X116501011Y-66139655D01*
X116474596Y-66199052D01*
X116457008Y-66219792D01*
X116401574Y-66250696D01*
X116288710Y-66293795D01*
X116127027Y-66346227D01*
X115925130Y-66405124D01*
X115788141Y-66442409D01*
X115578705Y-66498282D01*
X115376763Y-66552615D01*
X115197511Y-66601287D01*
X115056141Y-66640175D01*
X114979335Y-66661817D01*
X114778136Y-66719867D01*
X115453468Y-66898198D01*
X115736828Y-66973444D01*
X115961642Y-67034405D01*
X116135014Y-67083456D01*
X116264051Y-67122972D01*
X116355857Y-67155326D01*
X116417539Y-67182895D01*
X116456202Y-67208054D01*
X116478952Y-67233176D01*
X116484722Y-67242869D01*
X116501234Y-67306538D01*
X116513210Y-67415295D01*
X116518237Y-67546529D01*
X116518266Y-67557207D01*
X116514277Y-67701007D01*
X116499540Y-67797565D01*
X116469902Y-67867050D01*
X116448075Y-67898100D01*
X116377884Y-67987333D01*
X117331066Y-67987333D01*
X117331066Y-46278800D01*
X115967933Y-46278927D01*
X115967933Y-46278927D01*
G37*
X115967933Y-46278927D02*
X115628918Y-46279037D01*
X115351948Y-46279487D01*
X115131338Y-46280556D01*
X114961400Y-46282523D01*
X114836446Y-46285670D01*
X114750791Y-46290275D01*
X114698745Y-46296619D01*
X114674624Y-46304981D01*
X114672739Y-46315642D01*
X114687403Y-46328882D01*
X114706416Y-46341023D01*
X114808042Y-46435490D01*
X114904787Y-46587289D01*
X114991094Y-46786023D01*
X115053938Y-46991244D01*
X115106205Y-47180807D01*
X115153289Y-47312865D01*
X115200268Y-47396868D01*
X115252217Y-47442262D01*
X115304509Y-47457600D01*
X115396981Y-47438717D01*
X115463317Y-47363158D01*
X115498222Y-47238696D01*
X115502266Y-47167280D01*
X115496075Y-47080111D01*
X115470127Y-47007999D01*
X115413366Y-46928883D01*
X115344222Y-46852003D01*
X115232801Y-46708812D01*
X115185191Y-46584751D01*
X115200845Y-46477826D01*
X115229836Y-46433005D01*
X115304290Y-46390586D01*
X115409407Y-46384190D01*
X115519217Y-46412682D01*
X115579409Y-46448265D01*
X115699166Y-46582856D01*
X115778446Y-46767487D01*
X115818050Y-47004443D01*
X115823223Y-47142906D01*
X115820781Y-47301982D01*
X115809746Y-47416211D01*
X115785998Y-47508331D01*
X115745419Y-47601081D01*
X115737325Y-47617039D01*
X115624620Y-47783927D01*
X115487645Y-47889041D01*
X115321974Y-47935369D01*
X115261370Y-47938267D01*
X115101876Y-47909782D01*
X114964067Y-47823023D01*
X114846338Y-47676029D01*
X114747087Y-47466844D01*
X114670365Y-47216386D01*
X114612039Y-47021806D01*
X114548817Y-46889196D01*
X114476903Y-46812805D01*
X114392506Y-46786877D01*
X114387085Y-46786800D01*
X114283342Y-46815750D01*
X114214977Y-46901079D01*
X114183501Y-47040506D01*
X114181466Y-47096931D01*
X114192956Y-47255681D01*
X114235149Y-47372688D01*
X114319631Y-47471188D01*
X114399346Y-47533885D01*
X114492182Y-47607666D01*
X114539044Y-47669044D01*
X114553714Y-47737500D01*
X114554000Y-47752492D01*
X114528276Y-47868675D01*
X114458704Y-47941718D01*
X114356684Y-47967670D01*
X114233615Y-47942577D01*
X114144141Y-47894623D01*
X114013224Y-47767538D01*
X113915298Y-47590932D01*
X113853871Y-47376264D01*
X113832452Y-47134993D01*
X113847267Y-46924881D01*
X113904639Y-46686208D01*
X114001375Y-46502206D01*
X114137281Y-46373219D01*
X114164629Y-46356581D01*
X114300000Y-46279914D01*
X114037533Y-46279357D01*
X113775067Y-46278800D01*
X113776144Y-52095400D01*
X113776377Y-52859019D01*
X113776792Y-53557348D01*
X113777409Y-54192831D01*
X113778244Y-54767913D01*
X113779315Y-55285036D01*
X113780641Y-55746645D01*
X113782240Y-56155183D01*
X113784129Y-56513094D01*
X113786326Y-56822821D01*
X113788849Y-57086809D01*
X113791717Y-57307500D01*
X113794947Y-57487340D01*
X113798558Y-57628771D01*
X113802566Y-57734237D01*
X113806991Y-57806182D01*
X113811849Y-57847050D01*
X113817160Y-57859284D01*
X113818477Y-57858265D01*
X113881253Y-57799609D01*
X113935933Y-57763940D01*
X113992025Y-57740706D01*
X114010719Y-57760502D01*
X114011877Y-57783809D01*
X114006199Y-57856794D01*
X113991969Y-57962682D01*
X113972762Y-58080777D01*
X113952155Y-58190382D01*
X113933723Y-58270801D01*
X113922586Y-58300610D01*
X113891635Y-58290225D01*
X113841601Y-58240552D01*
X113839885Y-58238448D01*
X113831004Y-58228520D01*
X113822975Y-58223855D01*
X113815752Y-58227643D01*
X113809295Y-58243078D01*
X113803559Y-58273349D01*
X113798503Y-58321648D01*
X113794083Y-58391168D01*
X113790257Y-58485098D01*
X113786982Y-58606631D01*
X113784214Y-58758959D01*
X113781912Y-58945271D01*
X113780032Y-59168761D01*
X113778533Y-59432619D01*
X113777370Y-59740036D01*
X113776501Y-60094205D01*
X113775883Y-60498317D01*
X113775474Y-60955562D01*
X113775231Y-61469133D01*
X113775110Y-62042221D01*
X113775070Y-62678017D01*
X113775067Y-63072915D01*
X113775067Y-67987333D01*
X113883139Y-67987333D01*
X113952096Y-67983935D01*
X113962278Y-67968984D01*
X113935464Y-67945000D01*
X113862783Y-67854461D01*
X113834927Y-67742318D01*
X113854721Y-67645995D01*
X113882558Y-67598203D01*
X113918183Y-67560540D01*
X113969437Y-67531767D01*
X114044161Y-67510651D01*
X114150196Y-67495953D01*
X114295383Y-67486439D01*
X114487564Y-67480872D01*
X114734580Y-67478016D01*
X114926533Y-67477035D01*
X115790133Y-67473738D01*
X114960400Y-67260139D01*
X114729038Y-67200119D01*
X114515719Y-67143908D01*
X114330410Y-67094203D01*
X114183081Y-67053699D01*
X114083701Y-67025095D01*
X114046000Y-67012824D01*
X113921301Y-66931494D01*
X113850194Y-66813289D01*
X113836706Y-66667497D01*
X113856379Y-66575502D01*
X113880237Y-66532415D01*
X113927673Y-66490994D01*
X114005025Y-66448939D01*
X114118633Y-66403951D01*
X114274836Y-66353730D01*
X114479973Y-66295977D01*
X114740384Y-66228393D01*
X114972521Y-66170670D01*
X115780509Y-65972267D01*
X114880262Y-65955334D01*
X114609673Y-65950039D01*
X114398582Y-65945045D01*
X114238763Y-65939585D01*
X114121990Y-65932891D01*
X114040036Y-65924197D01*
X113984676Y-65912736D01*
X113947682Y-65897740D01*
X113920828Y-65878442D01*
X113906188Y-65864507D01*
X113847289Y-65765126D01*
X113837182Y-65650830D01*
X113875438Y-65546848D01*
X113912253Y-65506864D01*
X113936598Y-65490983D01*
X113970967Y-65478192D01*
X114022322Y-65468163D01*
X114097624Y-65460574D01*
X114203833Y-65455098D01*
X114321026Y-65452099D01*
X114321026Y-65036019D01*
X114173871Y-65002234D01*
X114147669Y-64990169D01*
X114031458Y-64899658D01*
X113931389Y-64767112D01*
X113858347Y-64613828D01*
X113823217Y-64461108D01*
X113827479Y-64363600D01*
X113839070Y-64299103D01*
X113855120Y-64201253D01*
X113859790Y-64171507D01*
X113891968Y-64057786D01*
X113948617Y-63930146D01*
X113980797Y-63873997D01*
X114035798Y-63783138D01*
X114071727Y-63715855D01*
X114079769Y-63693557D01*
X114054329Y-63660434D01*
X113992037Y-63610790D01*
X113980263Y-63602732D01*
X113876257Y-63509950D01*
X113836738Y-63409984D01*
X113858473Y-63294384D01*
X113860440Y-63289628D01*
X113902941Y-63214637D01*
X113961531Y-63173155D01*
X114049911Y-63161985D01*
X114181783Y-63177928D01*
X114266907Y-63194771D01*
X114405336Y-63216167D01*
X114586378Y-63232967D01*
X114784965Y-63243204D01*
X114913013Y-63245412D01*
X115136809Y-63249276D01*
X115197504Y-63253956D01*
X115197504Y-62721067D01*
X114881919Y-62720814D01*
X114626928Y-62719831D01*
X114425395Y-62717778D01*
X114270181Y-62714315D01*
X114154150Y-62709103D01*
X114070163Y-62701803D01*
X114011084Y-62692075D01*
X113969774Y-62679580D01*
X113939096Y-62663979D01*
X113934464Y-62661019D01*
X113862569Y-62577010D01*
X113840526Y-62463679D01*
X113871821Y-62341085D01*
X113877065Y-62330856D01*
X113944418Y-62270636D01*
X114067239Y-62226348D01*
X114234490Y-62201082D01*
X114357543Y-62196322D01*
X114470986Y-62192781D01*
X114541612Y-62175716D01*
X114594247Y-62135046D01*
X114636943Y-62082870D01*
X114690467Y-62008726D01*
X114720776Y-61959039D01*
X114723333Y-61951263D01*
X114696207Y-61926938D01*
X114623906Y-61878012D01*
X114520047Y-61813519D01*
X114477800Y-61788374D01*
X114247820Y-61650090D01*
X114073954Y-61538668D01*
X113951645Y-61450858D01*
X113876337Y-61383407D01*
X113844678Y-61336626D01*
X113834294Y-61221173D01*
X113878001Y-61113064D01*
X113949158Y-61047926D01*
X114005101Y-61023683D01*
X114064634Y-61017956D01*
X114137478Y-61034499D01*
X114233355Y-61077069D01*
X114361986Y-61149420D01*
X114533092Y-61255309D01*
X114605759Y-61301594D01*
X114755010Y-61396315D01*
X114886156Y-61478103D01*
X114907415Y-61491039D01*
X114907415Y-60869998D01*
X114759193Y-60867615D01*
X114489432Y-60820803D01*
X114261574Y-60723714D01*
X114078905Y-60579200D01*
X113944708Y-60390114D01*
X113862269Y-60159311D01*
X113847104Y-60075338D01*
X113833302Y-59955216D01*
X113827294Y-59854198D01*
X113828895Y-59808534D01*
X113840853Y-59730814D01*
X113857441Y-59626511D01*
X113860609Y-59606909D01*
X113905518Y-59444290D01*
X113979817Y-59296991D01*
X114066215Y-59184020D01*
X114066215Y-58470456D01*
X114027883Y-58429689D01*
X114023449Y-58344273D01*
X114025088Y-58335747D01*
X114037937Y-58263167D01*
X114056381Y-58145469D01*
X114077007Y-58004664D01*
X114082888Y-57962800D01*
X114116500Y-57774552D01*
X114155633Y-57653127D01*
X114200174Y-57598754D01*
X114250007Y-57611665D01*
X114254918Y-57616305D01*
X114272454Y-57652709D01*
X114277407Y-57722066D01*
X114269687Y-57835992D01*
X114252125Y-57983989D01*
X114229794Y-58134788D01*
X114205447Y-58267553D01*
X114182874Y-58362777D01*
X114172995Y-58391202D01*
X114120551Y-58459863D01*
X114066215Y-58470456D01*
X114066215Y-59184020D01*
X114074349Y-59173384D01*
X114179956Y-59081840D01*
X114287480Y-59030729D01*
X114348879Y-59029318D01*
X114348879Y-58497096D01*
X114314546Y-58486258D01*
X114290950Y-58433437D01*
X114295531Y-58326321D01*
X114296094Y-58322476D01*
X114310883Y-58219408D01*
X114330465Y-58078075D01*
X114350843Y-57927370D01*
X114352746Y-57913083D01*
X114380315Y-57741813D01*
X114410447Y-57632993D01*
X114445761Y-57581340D01*
X114488880Y-57581569D01*
X114510034Y-57595938D01*
X114530960Y-57622498D01*
X114542200Y-57666281D01*
X114543301Y-57737226D01*
X114533809Y-57845270D01*
X114513269Y-58000354D01*
X114482153Y-58206465D01*
X114447219Y-58366395D01*
X114402410Y-58463916D01*
X114348879Y-58497096D01*
X114348879Y-59029318D01*
X114387763Y-59028424D01*
X114453764Y-59064702D01*
X114507647Y-59137896D01*
X114510294Y-59221299D01*
X114459808Y-59324765D01*
X114384795Y-59422810D01*
X114275676Y-59566208D01*
X114211983Y-59690409D01*
X114184562Y-59816326D01*
X114181593Y-59886938D01*
X114212583Y-60041800D01*
X114295989Y-60176532D01*
X114417950Y-60277039D01*
X114564607Y-60329224D01*
X114620645Y-60333467D01*
X114647674Y-60330190D01*
X114666540Y-60313475D01*
X114678731Y-60272995D01*
X114685739Y-60198421D01*
X114689053Y-60079427D01*
X114690164Y-59905686D01*
X114690274Y-59850867D01*
X114693519Y-59585997D01*
X114704180Y-59381332D01*
X114725138Y-59229496D01*
X114759275Y-59123114D01*
X114809476Y-59054809D01*
X114878621Y-59017205D01*
X114969592Y-59002926D01*
X115021906Y-59002192D01*
X115246883Y-59038059D01*
X115450794Y-59134744D01*
X115624518Y-59286394D01*
X115749843Y-59469423D01*
X115787402Y-59556805D01*
X115809797Y-59656549D01*
X115820413Y-59789153D01*
X115822639Y-59910134D01*
X115821102Y-60063601D01*
X115811800Y-60172032D01*
X115790149Y-60258051D01*
X115751569Y-60344280D01*
X115724551Y-60394448D01*
X115579612Y-60589451D01*
X115390893Y-60735778D01*
X115164719Y-60830327D01*
X114907415Y-60869998D01*
X114907415Y-61491039D01*
X114987555Y-61539808D01*
X115047570Y-61574276D01*
X115056344Y-61578469D01*
X115100050Y-61564162D01*
X115177110Y-61510075D01*
X115274502Y-61425789D01*
X115310344Y-61391553D01*
X115440259Y-61270277D01*
X115538013Y-61196527D01*
X115614842Y-61165825D01*
X115681981Y-61173691D01*
X115750664Y-61215644D01*
X115750945Y-61215865D01*
X115813334Y-61274993D01*
X115842879Y-61335393D01*
X115836164Y-61404882D01*
X115789775Y-61491274D01*
X115700296Y-61602385D01*
X115564312Y-61746031D01*
X115484280Y-61826098D01*
X115127627Y-62179200D01*
X115748349Y-62196133D01*
X116002961Y-62204633D01*
X116197733Y-62216236D01*
X116227875Y-62219901D01*
X116227875Y-58907699D01*
X116184333Y-58905582D01*
X116076571Y-58896277D01*
X115984319Y-58877684D01*
X115889261Y-58843169D01*
X115773077Y-58786098D01*
X115619670Y-58701100D01*
X115366297Y-58571530D01*
X115138374Y-58488194D01*
X114917678Y-58445551D01*
X114750980Y-58436933D01*
X114621733Y-58436933D01*
X114621733Y-57633928D01*
X114835987Y-57613921D01*
X115110956Y-57561055D01*
X115381025Y-57451818D01*
X115600911Y-57320438D01*
X115600911Y-56946800D01*
X115506086Y-56917938D01*
X115448680Y-56837185D01*
X115434533Y-56745827D01*
X115431875Y-56720182D01*
X115417542Y-56701698D01*
X115381990Y-56689183D01*
X115315681Y-56681448D01*
X115209072Y-56677302D01*
X115052623Y-56675555D01*
X114867266Y-56675059D01*
X114667202Y-56672961D01*
X114481145Y-56667686D01*
X114323893Y-56659902D01*
X114210242Y-56650274D01*
X114167667Y-56643556D01*
X114013425Y-56577342D01*
X113905439Y-56461916D01*
X113845965Y-56302019D01*
X113827672Y-56212217D01*
X113815312Y-56158099D01*
X113812840Y-56150933D01*
X113815952Y-56120583D01*
X113827591Y-56041733D01*
X113841982Y-55951520D01*
X113883016Y-55786262D01*
X113944112Y-55681465D01*
X114029173Y-55631811D01*
X114080969Y-55626000D01*
X114177150Y-55646040D01*
X114230499Y-55710109D01*
X114244555Y-55824133D01*
X114239292Y-55890919D01*
X114229933Y-55980404D01*
X114231781Y-56046601D01*
X114253349Y-56093236D01*
X114303150Y-56124039D01*
X114389697Y-56142737D01*
X114521503Y-56153057D01*
X114707083Y-56158728D01*
X114857504Y-56161630D01*
X115244696Y-56168807D01*
X115244696Y-54508400D01*
X114925852Y-54507938D01*
X114667861Y-54506367D01*
X114463849Y-54503405D01*
X114306940Y-54498775D01*
X114190260Y-54492195D01*
X114106934Y-54483387D01*
X114050087Y-54472070D01*
X114013511Y-54458313D01*
X113940358Y-54410571D01*
X113899493Y-54365570D01*
X113899333Y-54365179D01*
X113894293Y-54320241D01*
X113889598Y-54217670D01*
X113885492Y-54067568D01*
X113882218Y-53880034D01*
X113880018Y-53665171D01*
X113879340Y-53534734D01*
X113878784Y-53283057D01*
X113879492Y-53090283D01*
X113882135Y-52947581D01*
X113887386Y-52846122D01*
X113895917Y-52777077D01*
X113908399Y-52731617D01*
X113925503Y-52700913D01*
X113944400Y-52679600D01*
X114025081Y-52628362D01*
X114096800Y-52611867D01*
X114184402Y-52635422D01*
X114249200Y-52679600D01*
X114273447Y-52708363D01*
X114291123Y-52745753D01*
X114303256Y-52802049D01*
X114310874Y-52887532D01*
X114315004Y-53012480D01*
X114316675Y-53187174D01*
X114316933Y-53356934D01*
X114316933Y-53966534D01*
X114459278Y-53966534D01*
X114459278Y-52406100D01*
X114287426Y-52396764D01*
X114124026Y-52334312D01*
X113986996Y-52223160D01*
X113964681Y-52195934D01*
X113901455Y-52085573D01*
X113852430Y-51950479D01*
X113825978Y-51819001D01*
X113827479Y-51731334D01*
X113839070Y-51666837D01*
X113855120Y-51568987D01*
X113859790Y-51539240D01*
X113891968Y-51425519D01*
X113948617Y-51297880D01*
X113980797Y-51241730D01*
X114050392Y-51122996D01*
X114077843Y-51051196D01*
X114064737Y-51021538D01*
X114054120Y-51020133D01*
X114014649Y-50999123D01*
X113950094Y-50947267D01*
X113935587Y-50934096D01*
X113859845Y-50824973D01*
X113846798Y-50704819D01*
X113897664Y-50587688D01*
X113904803Y-50578534D01*
X113966806Y-50501963D01*
X114244157Y-50557848D01*
X114430040Y-50585917D01*
X114654587Y-50605288D01*
X114889022Y-50613589D01*
X114922167Y-50613733D01*
X115144274Y-50617418D01*
X115208422Y-50622513D01*
X115208422Y-50173467D01*
X114840388Y-50172403D01*
X114533004Y-50169239D01*
X114287703Y-50164015D01*
X114105921Y-50156773D01*
X113989093Y-50147553D01*
X113940263Y-50137386D01*
X113863369Y-50063951D01*
X113835171Y-49965741D01*
X113852668Y-49861748D01*
X113912861Y-49770962D01*
X114007118Y-49714160D01*
X114078584Y-49687815D01*
X114093148Y-49664373D01*
X114058348Y-49625871D01*
X114048082Y-49616551D01*
X113932775Y-49469195D01*
X113863955Y-49288487D01*
X113841037Y-49089777D01*
X113863434Y-48888415D01*
X113930561Y-48699753D01*
X114041832Y-48539141D01*
X114090972Y-48492501D01*
X114289863Y-48366008D01*
X114524071Y-48284388D01*
X114777482Y-48248438D01*
X115033981Y-48258954D01*
X115277455Y-48316733D01*
X115491789Y-48422572D01*
X115492724Y-48423198D01*
X115656976Y-48571232D01*
X115768692Y-48752649D01*
X115826061Y-48955941D01*
X115827271Y-49169604D01*
X115770511Y-49382133D01*
X115671488Y-49558647D01*
X115569575Y-49699333D01*
X115989369Y-49699333D01*
X116173081Y-49700840D01*
X116301921Y-49706389D01*
X116388705Y-49717529D01*
X116446246Y-49735805D01*
X116482680Y-49758864D01*
X116545095Y-49847728D01*
X116560439Y-49957586D01*
X116528464Y-50061933D01*
X116485959Y-50111281D01*
X116461656Y-50127766D01*
X116429029Y-50141064D01*
X116381104Y-50151514D01*
X116310909Y-50159456D01*
X116211469Y-50165228D01*
X116075810Y-50169172D01*
X115896960Y-50171625D01*
X115667944Y-50172928D01*
X115381789Y-50173419D01*
X115208422Y-50173467D01*
X115208422Y-50622513D01*
X115311914Y-50630734D01*
X115438065Y-50657073D01*
X115535705Y-50699829D01*
X115617814Y-50762396D01*
X115661560Y-50807034D01*
X115760444Y-50960553D01*
X115819172Y-51161532D01*
X115838543Y-51413409D01*
X115834308Y-51549849D01*
X115797944Y-51812397D01*
X115723400Y-52021018D01*
X115611157Y-52174526D01*
X115565558Y-52213160D01*
X115428857Y-52297521D01*
X115317650Y-52324319D01*
X115223405Y-52294562D01*
X115179818Y-52258631D01*
X115109902Y-52157461D01*
X115105589Y-52062340D01*
X115167060Y-51977884D01*
X115168714Y-51976535D01*
X115292119Y-51875138D01*
X115372521Y-51801066D01*
X115420039Y-51739624D01*
X115444789Y-51676113D01*
X115456890Y-51595835D01*
X115460739Y-51552320D01*
X115466947Y-51387309D01*
X115450482Y-51274699D01*
X115407336Y-51201782D01*
X115336043Y-51156888D01*
X115262702Y-51128364D01*
X115206273Y-51116864D01*
X115161927Y-51129851D01*
X115124834Y-51174787D01*
X115090167Y-51259137D01*
X115053096Y-51390363D01*
X115008793Y-51575929D01*
X114978207Y-51709960D01*
X114918126Y-51938412D01*
X114852469Y-52109586D01*
X114775486Y-52233937D01*
X114681422Y-52321919D01*
X114621664Y-52357902D01*
X114459278Y-52406100D01*
X114459278Y-53966534D01*
X116404860Y-53966534D01*
X116483672Y-54050426D01*
X116549582Y-54163300D01*
X116555442Y-54284932D01*
X116502022Y-54397008D01*
X116467605Y-54432200D01*
X116442312Y-54452811D01*
X116414610Y-54469323D01*
X116377209Y-54482192D01*
X116322820Y-54491871D01*
X116244152Y-54498815D01*
X116133916Y-54503477D01*
X115984824Y-54506313D01*
X115789584Y-54507776D01*
X115540909Y-54508320D01*
X115244696Y-54508400D01*
X115244696Y-56168807D01*
X115434533Y-56172327D01*
X115434533Y-56034630D01*
X115454620Y-55912752D01*
X115507145Y-55820985D01*
X115580507Y-55770473D01*
X115663103Y-55772361D01*
X115691930Y-55787385D01*
X115754685Y-55862200D01*
X115796628Y-55974772D01*
X115807066Y-56064040D01*
X115807066Y-56167867D01*
X116058297Y-56167867D01*
X116188787Y-56170596D01*
X116297149Y-56177784D01*
X116361539Y-56187929D01*
X116364349Y-56188904D01*
X116435770Y-56247682D01*
X116483528Y-56343358D01*
X116495274Y-56446049D01*
X116486423Y-56484279D01*
X116430801Y-56577974D01*
X116341899Y-56637771D01*
X116208574Y-56668644D01*
X116057202Y-56675867D01*
X115931074Y-56677157D01*
X115856622Y-56684763D01*
X115817795Y-56704294D01*
X115798538Y-56741354D01*
X115791082Y-56768811D01*
X115748248Y-56879015D01*
X115682363Y-56934211D01*
X115600911Y-56946800D01*
X115600911Y-57320438D01*
X115611989Y-57313818D01*
X115815165Y-57195339D01*
X116012964Y-57116202D01*
X116188521Y-57082906D01*
X116212702Y-57082267D01*
X116407533Y-57110961D01*
X116607695Y-57190137D01*
X116788748Y-57309438D01*
X116825826Y-57342125D01*
X116985085Y-57518976D01*
X117084052Y-57700767D01*
X117129466Y-57902160D01*
X117134208Y-58013024D01*
X117103377Y-58261330D01*
X117014114Y-58475432D01*
X116866672Y-58654947D01*
X116661303Y-58799493D01*
X116591863Y-58834389D01*
X116471239Y-58883186D01*
X116361265Y-58905639D01*
X116227875Y-58907699D01*
X116227875Y-62219901D01*
X116340559Y-62233604D01*
X116439330Y-62259397D01*
X116501940Y-62296275D01*
X116536281Y-62346899D01*
X116550245Y-62413930D01*
X116552133Y-62467067D01*
X116541612Y-62566757D01*
X116500622Y-62630648D01*
X116460506Y-62661019D01*
X116430929Y-62677177D01*
X116391922Y-62690172D01*
X116336347Y-62700342D01*
X116257069Y-62708028D01*
X116146949Y-62713568D01*
X115998849Y-62717302D01*
X115805634Y-62719569D01*
X115560165Y-62720709D01*
X115255306Y-62721061D01*
X115197504Y-62721067D01*
X115197504Y-63253956D01*
X115305878Y-63262315D01*
X115432971Y-63287798D01*
X115530836Y-63328997D01*
X115612223Y-63389181D01*
X115659465Y-63436878D01*
X115753689Y-63585288D01*
X115814603Y-63776055D01*
X115842522Y-63992740D01*
X115837764Y-64218904D01*
X115800644Y-64438106D01*
X115731479Y-64633909D01*
X115633493Y-64786588D01*
X115513891Y-64890447D01*
X115389259Y-64943942D01*
X115271976Y-64945916D01*
X115174420Y-64895216D01*
X115127630Y-64833803D01*
X115104624Y-64731518D01*
X115147441Y-64631149D01*
X115256987Y-64530671D01*
X115266436Y-64524090D01*
X115370722Y-64436776D01*
X115433214Y-64337771D01*
X115462686Y-64207609D01*
X115468400Y-64075948D01*
X115454885Y-63930948D01*
X115409314Y-63836746D01*
X115324144Y-63780998D01*
X115279841Y-63767332D01*
X115203531Y-63756770D01*
X115148840Y-63776953D01*
X115107371Y-63837982D01*
X115070726Y-63949957D01*
X115047281Y-64047031D01*
X114986167Y-64308365D01*
X114933083Y-64511972D01*
X114884002Y-64666776D01*
X114834896Y-64781704D01*
X114781738Y-64865678D01*
X114720499Y-64927624D01*
X114647154Y-64976467D01*
X114621664Y-64990169D01*
X114481952Y-65031998D01*
X114321026Y-65036019D01*
X114321026Y-65452099D01*
X114347911Y-65451410D01*
X114536819Y-65449185D01*
X114777517Y-65448099D01*
X115076968Y-65447826D01*
X115175818Y-65447852D01*
X115454067Y-65448659D01*
X115711323Y-65450720D01*
X115939616Y-65453871D01*
X116130972Y-65457947D01*
X116277423Y-65462782D01*
X116370995Y-65468212D01*
X116403130Y-65473252D01*
X116464333Y-65544966D01*
X116501871Y-65666254D01*
X116517548Y-65843843D01*
X116518266Y-65902307D01*
X116514491Y-66046321D01*
X116501011Y-66139655D01*
X116474596Y-66199052D01*
X116457008Y-66219792D01*
X116401574Y-66250696D01*
X116288710Y-66293795D01*
X116127027Y-66346227D01*
X115925130Y-66405124D01*
X115788141Y-66442409D01*
X115578705Y-66498282D01*
X115376763Y-66552615D01*
X115197511Y-66601287D01*
X115056141Y-66640175D01*
X114979335Y-66661817D01*
X114778136Y-66719867D01*
X115453468Y-66898198D01*
X115736828Y-66973444D01*
X115961642Y-67034405D01*
X116135014Y-67083456D01*
X116264051Y-67122972D01*
X116355857Y-67155326D01*
X116417539Y-67182895D01*
X116456202Y-67208054D01*
X116478952Y-67233176D01*
X116484722Y-67242869D01*
X116501234Y-67306538D01*
X116513210Y-67415295D01*
X116518237Y-67546529D01*
X116518266Y-67557207D01*
X116514277Y-67701007D01*
X116499540Y-67797565D01*
X116469902Y-67867050D01*
X116448075Y-67898100D01*
X116377884Y-67987333D01*
X117331066Y-67987333D01*
X117331066Y-46278800D01*
X115967933Y-46278927D01*
G36*
X114786757Y-63738995D02*
G01*
X114749188Y-63737272D01*
X114665663Y-63745511D01*
X114589474Y-63756459D01*
X114412647Y-63806930D01*
X114289772Y-63896069D01*
X114216019Y-64028894D01*
X114188922Y-64172554D01*
X114183573Y-64285937D01*
X114195692Y-64358326D01*
X114232070Y-64415616D01*
X114260603Y-64445816D01*
X114366856Y-64517509D01*
X114472254Y-64524187D01*
X114569097Y-64465584D01*
X114577462Y-64456734D01*
X114607964Y-64402238D01*
X114646497Y-64304640D01*
X114688226Y-64180519D01*
X114728316Y-64046458D01*
X114761932Y-63919037D01*
X114784238Y-63814837D01*
X114790400Y-63750441D01*
X114786757Y-63738995D01*
X114786757Y-63738995D01*
G37*
X114786757Y-63738995D02*
X114749188Y-63737272D01*
X114665663Y-63745511D01*
X114589474Y-63756459D01*
X114412647Y-63806930D01*
X114289772Y-63896069D01*
X114216019Y-64028894D01*
X114188922Y-64172554D01*
X114183573Y-64285937D01*
X114195692Y-64358326D01*
X114232070Y-64415616D01*
X114260603Y-64445816D01*
X114366856Y-64517509D01*
X114472254Y-64524187D01*
X114569097Y-64465584D01*
X114577462Y-64456734D01*
X114607964Y-64402238D01*
X114646497Y-64304640D01*
X114688226Y-64180519D01*
X114728316Y-64046458D01*
X114761932Y-63919037D01*
X114784238Y-63814837D01*
X114790400Y-63750441D01*
X114786757Y-63738995D01*
G36*
X115457954Y-59818244D02*
G01*
X115397872Y-59680810D01*
X115381556Y-59659723D01*
X115285836Y-59580778D01*
X115158931Y-59517889D01*
X115035660Y-59487675D01*
X115019666Y-59486989D01*
X115010045Y-59518641D01*
X115002095Y-59605205D01*
X114996587Y-59733867D01*
X114994290Y-59891810D01*
X114994266Y-59910134D01*
X114994807Y-60085653D01*
X114997662Y-60204474D01*
X115004686Y-60277631D01*
X115017731Y-60316158D01*
X115038649Y-60331087D01*
X115065348Y-60333467D01*
X115182842Y-60308727D01*
X115302932Y-60245920D01*
X115396238Y-60162164D01*
X115419092Y-60127382D01*
X115465628Y-59974577D01*
X115457954Y-59818244D01*
X115457954Y-59818244D01*
G37*
X115457954Y-59818244D02*
X115397872Y-59680810D01*
X115381556Y-59659723D01*
X115285836Y-59580778D01*
X115158931Y-59517889D01*
X115035660Y-59487675D01*
X115019666Y-59486989D01*
X115010045Y-59518641D01*
X115002095Y-59605205D01*
X114996587Y-59733867D01*
X114994290Y-59891810D01*
X114994266Y-59910134D01*
X114994807Y-60085653D01*
X114997662Y-60204474D01*
X115004686Y-60277631D01*
X115017731Y-60316158D01*
X115038649Y-60331087D01*
X115065348Y-60333467D01*
X115182842Y-60308727D01*
X115302932Y-60245920D01*
X115396238Y-60162164D01*
X115419092Y-60127382D01*
X115465628Y-59974577D01*
X115457954Y-59818244D01*
G36*
X114786757Y-51106729D02*
G01*
X114749188Y-51105005D01*
X114665663Y-51113244D01*
X114589474Y-51124192D01*
X114412647Y-51174663D01*
X114289772Y-51263803D01*
X114216019Y-51396628D01*
X114188922Y-51540288D01*
X114183573Y-51653670D01*
X114195692Y-51726059D01*
X114232070Y-51783349D01*
X114260603Y-51813549D01*
X114366377Y-51885166D01*
X114470516Y-51892955D01*
X114563759Y-51836836D01*
X114581528Y-51816366D01*
X114611644Y-51758655D01*
X114649645Y-51659077D01*
X114690726Y-51534250D01*
X114730079Y-51400797D01*
X114762898Y-51275338D01*
X114784376Y-51174493D01*
X114789706Y-51114882D01*
X114786757Y-51106729D01*
X114786757Y-51106729D01*
G37*
X114786757Y-51106729D02*
X114749188Y-51105005D01*
X114665663Y-51113244D01*
X114589474Y-51124192D01*
X114412647Y-51174663D01*
X114289772Y-51263803D01*
X114216019Y-51396628D01*
X114188922Y-51540288D01*
X114183573Y-51653670D01*
X114195692Y-51726059D01*
X114232070Y-51783349D01*
X114260603Y-51813549D01*
X114366377Y-51885166D01*
X114470516Y-51892955D01*
X114563759Y-51836836D01*
X114581528Y-51816366D01*
X114611644Y-51758655D01*
X114649645Y-51659077D01*
X114690726Y-51534250D01*
X114730079Y-51400797D01*
X114762898Y-51275338D01*
X114784376Y-51174493D01*
X114789706Y-51114882D01*
X114786757Y-51106729D01*
G36*
X115406151Y-49032491D02*
G01*
X115397179Y-49010936D01*
X115315142Y-48907094D01*
X115186498Y-48831487D01*
X115026437Y-48784622D01*
X114850148Y-48767009D01*
X114672823Y-48779155D01*
X114509652Y-48821569D01*
X114375825Y-48894759D01*
X114301107Y-48974263D01*
X114238988Y-49126304D01*
X114236668Y-49288975D01*
X114248531Y-49337432D01*
X114299774Y-49451767D01*
X114380678Y-49534495D01*
X114503200Y-49602357D01*
X114682875Y-49654469D01*
X114876757Y-49661665D01*
X115066373Y-49627333D01*
X115233252Y-49554859D01*
X115358921Y-49447634D01*
X115360995Y-49445021D01*
X115418190Y-49324187D01*
X115434050Y-49176986D01*
X115406151Y-49032491D01*
X115406151Y-49032491D01*
G37*
X115406151Y-49032491D02*
X115397179Y-49010936D01*
X115315142Y-48907094D01*
X115186498Y-48831487D01*
X115026437Y-48784622D01*
X114850148Y-48767009D01*
X114672823Y-48779155D01*
X114509652Y-48821569D01*
X114375825Y-48894759D01*
X114301107Y-48974263D01*
X114238988Y-49126304D01*
X114236668Y-49288975D01*
X114248531Y-49337432D01*
X114299774Y-49451767D01*
X114380678Y-49534495D01*
X114503200Y-49602357D01*
X114682875Y-49654469D01*
X114876757Y-49661665D01*
X115066373Y-49627333D01*
X115233252Y-49554859D01*
X115358921Y-49447634D01*
X115360995Y-49445021D01*
X115418190Y-49324187D01*
X115434050Y-49176986D01*
X115406151Y-49032491D01*
G36*
X135966143Y-53054806D02*
G01*
X135963478Y-52927250D01*
X135958934Y-52773971D01*
X135951937Y-52650053D01*
X135941026Y-52542537D01*
X135924737Y-52438465D01*
X135901608Y-52324875D01*
X135889422Y-52270858D01*
X135792713Y-51939542D01*
X135659923Y-51629687D01*
X135490949Y-51341196D01*
X135285691Y-51073974D01*
X135044044Y-50827925D01*
X134765908Y-50602951D01*
X134451179Y-50398958D01*
X134099757Y-50215849D01*
X133711537Y-50053528D01*
X133426252Y-49954903D01*
X133250924Y-49902314D01*
X133076216Y-49856116D01*
X132914589Y-49819358D01*
X132778506Y-49795092D01*
X132766759Y-49793467D01*
X132703892Y-49783965D01*
X132660124Y-49775336D01*
X132649455Y-49771902D01*
X132621398Y-49766123D01*
X132560565Y-49759378D01*
X132476482Y-49752316D01*
X132378676Y-49745586D01*
X132276674Y-49739837D01*
X132180003Y-49735718D01*
X132098189Y-49733877D01*
X132090583Y-49733842D01*
X132011427Y-49735053D01*
X131915605Y-49738602D01*
X131812507Y-49743877D01*
X131711524Y-49750268D01*
X131622048Y-49757165D01*
X131553468Y-49763957D01*
X131515176Y-49770032D01*
X131511161Y-49771521D01*
X131483801Y-49778917D01*
X131430189Y-49788338D01*
X131402666Y-49792302D01*
X131197722Y-49832056D01*
X130971220Y-49897277D01*
X130732261Y-49984235D01*
X130489944Y-50089203D01*
X130253369Y-50208452D01*
X130031634Y-50338255D01*
X129966015Y-50380934D01*
X129865999Y-50450933D01*
X129749940Y-50537155D01*
X129628435Y-50631263D01*
X129512082Y-50724923D01*
X129411479Y-50809797D01*
X129348698Y-50866491D01*
X129301360Y-50912185D01*
X129264239Y-50944971D01*
X129230674Y-50964095D01*
X129194003Y-50968804D01*
X129147565Y-50958346D01*
X129084701Y-50931966D01*
X128998748Y-50888912D01*
X128883047Y-50828430D01*
X128847365Y-50809808D01*
X128588596Y-50675204D01*
X128363681Y-50558617D01*
X128169029Y-50458317D01*
X128001050Y-50372572D01*
X127856153Y-50299652D01*
X127730747Y-50237823D01*
X127621241Y-50185357D01*
X127524046Y-50140520D01*
X127435570Y-50101583D01*
X127352223Y-50066813D01*
X127270413Y-50034480D01*
X127186551Y-50002852D01*
X127132953Y-49983202D01*
X126997574Y-49937094D01*
X126852349Y-49892871D01*
X126711547Y-49854549D01*
X126589441Y-49826143D01*
X126544916Y-49817753D01*
X126395847Y-49793213D01*
X126259166Y-49771713D01*
X126207576Y-49767174D01*
X126122377Y-49763556D01*
X126012288Y-49761060D01*
X125886026Y-49759889D01*
X125761750Y-49760167D01*
X125554485Y-49759001D01*
X125383642Y-49750967D01*
X125243660Y-49734668D01*
X125128984Y-49708707D01*
X125034055Y-49671687D01*
X124953314Y-49622211D01*
X124881205Y-49558881D01*
X124856448Y-49532599D01*
X124778542Y-49432083D01*
X124719702Y-49320540D01*
X124676054Y-49188329D01*
X124643723Y-49025811D01*
X124638476Y-48990250D01*
X124601039Y-48823301D01*
X124539782Y-48689914D01*
X124453268Y-48587723D01*
X124353971Y-48521143D01*
X124275146Y-48485598D01*
X124200160Y-48463700D01*
X124114257Y-48452550D01*
X124002682Y-48449251D01*
X123987957Y-48449243D01*
X123805289Y-48462599D01*
X123651252Y-48503306D01*
X123524055Y-48573182D01*
X123421907Y-48674048D01*
X123343016Y-48807723D01*
X123285592Y-48976027D01*
X123247843Y-49180780D01*
X123245003Y-49203995D01*
X123236468Y-49280630D01*
X123229225Y-49356081D01*
X123223139Y-49434781D01*
X123218072Y-49521160D01*
X123213887Y-49619650D01*
X123210448Y-49734684D01*
X123207618Y-49870691D01*
X123205260Y-50032105D01*
X123203238Y-50223356D01*
X123201413Y-50448876D01*
X123199969Y-50662417D01*
X123198428Y-50875144D01*
X123196605Y-51077281D01*
X123194564Y-51264437D01*
X123192371Y-51432216D01*
X123190089Y-51576225D01*
X123187784Y-51692071D01*
X123185519Y-51775361D01*
X123183359Y-51821699D01*
X123182894Y-51826584D01*
X123176270Y-51888403D01*
X123167939Y-51975634D01*
X123159492Y-52071484D01*
X123157849Y-52091167D01*
X123150295Y-52177762D01*
X123143196Y-52250595D01*
X123137772Y-52297411D01*
X123136586Y-52304912D01*
X123130462Y-52344357D01*
X123121770Y-52408528D01*
X123116145Y-52453079D01*
X123104236Y-52537769D01*
X123090170Y-52621014D01*
X123084020Y-52652084D01*
X123068187Y-52733354D01*
X123054234Y-52816145D01*
X123053447Y-52821417D01*
X123042679Y-52879792D01*
X123024362Y-52964715D01*
X123001669Y-53061780D01*
X122990478Y-53107167D01*
X122939979Y-53308250D01*
X122834827Y-53086000D01*
X122649280Y-52652276D01*
X122488739Y-52190137D01*
X122355294Y-51706765D01*
X122251037Y-51209343D01*
X122206136Y-50927000D01*
X122195899Y-50855407D01*
X122186705Y-50792828D01*
X122184583Y-50778834D01*
X122174136Y-50706116D01*
X122160685Y-50605594D01*
X122146127Y-50491513D01*
X122143039Y-50466625D01*
X122133456Y-50388935D01*
X122123447Y-50307765D01*
X122122808Y-50302584D01*
X122114169Y-50230203D01*
X122104098Y-50142687D01*
X122099483Y-50101500D01*
X122090706Y-50025330D01*
X122082452Y-49958727D01*
X122078833Y-49932167D01*
X122072558Y-49883271D01*
X122064100Y-49809718D01*
X122056789Y-49741667D01*
X122048490Y-49665441D01*
X122041060Y-49603531D01*
X122036590Y-49572334D01*
X122030883Y-49534319D01*
X122022612Y-49470970D01*
X122016917Y-49424167D01*
X122007669Y-49350718D01*
X121998959Y-49289321D01*
X121994949Y-49265417D01*
X121987067Y-49211407D01*
X121985119Y-49187739D01*
X121963548Y-49163485D01*
X121903364Y-49137549D01*
X121808195Y-49111045D01*
X121681670Y-49085085D01*
X121612415Y-49073390D01*
X121546981Y-49062141D01*
X121492659Y-49051436D01*
X121488693Y-49050544D01*
X121447224Y-49044824D01*
X121376669Y-49038737D01*
X121290251Y-49033368D01*
X121263833Y-49032088D01*
X121087217Y-49038499D01*
X120939750Y-49075335D01*
X120820682Y-49143051D01*
X120729265Y-49242100D01*
X120664751Y-49372935D01*
X120655673Y-49400766D01*
X120639387Y-49482256D01*
X120628236Y-49596215D01*
X120622175Y-49733098D01*
X120621159Y-49883359D01*
X120625145Y-50037453D01*
X120634088Y-50185834D01*
X120647943Y-50318956D01*
X120660304Y-50396711D01*
X120665294Y-50432987D01*
X120672632Y-50498099D01*
X120680826Y-50578726D01*
X120681750Y-50588334D01*
X120689883Y-50669678D01*
X120697242Y-50736831D01*
X120702370Y-50776583D01*
X120702757Y-50778834D01*
X120707638Y-50815019D01*
X120714846Y-50879455D01*
X120722828Y-50958235D01*
X120722878Y-50958750D01*
X120731295Y-51041825D01*
X120739380Y-51114725D01*
X120745133Y-51159834D01*
X120752096Y-51211160D01*
X120761137Y-51284130D01*
X120766416Y-51329167D01*
X120775455Y-51405322D01*
X120783903Y-51471917D01*
X120787583Y-51498500D01*
X120794480Y-51549826D01*
X120803477Y-51622795D01*
X120808750Y-51667834D01*
X120817729Y-51743985D01*
X120826027Y-51810580D01*
X120829592Y-51837167D01*
X120846373Y-51956356D01*
X120858616Y-52046257D01*
X120868022Y-52119452D01*
X120871034Y-52144084D01*
X120888739Y-52289027D01*
X120903596Y-52406111D01*
X120917470Y-52509548D01*
X120932225Y-52613549D01*
X120936300Y-52641500D01*
X120942888Y-52691525D01*
X120951728Y-52764842D01*
X120958193Y-52821417D01*
X120966766Y-52894980D01*
X120974338Y-52954159D01*
X120978256Y-52980167D01*
X120983533Y-53016879D01*
X120991409Y-53081009D01*
X120999162Y-53149500D01*
X121008028Y-53222045D01*
X121016500Y-53276721D01*
X121022371Y-53300606D01*
X121009858Y-53317546D01*
X120969331Y-53350559D01*
X120908721Y-53393350D01*
X120889386Y-53406127D01*
X120555231Y-53640466D01*
X120229986Y-53900856D01*
X119921730Y-54179935D01*
X119638542Y-54470337D01*
X119388500Y-54764699D01*
X119363129Y-54797312D01*
X119117590Y-55146747D01*
X118913514Y-55503953D01*
X118750962Y-55868787D01*
X118629997Y-56241107D01*
X118550682Y-56620770D01*
X118544981Y-56659583D01*
X118536903Y-56732987D01*
X118529631Y-56828881D01*
X118523405Y-56939164D01*
X118518466Y-57055735D01*
X118515056Y-57170492D01*
X118513416Y-57275334D01*
X118513787Y-57362158D01*
X118516410Y-57422864D01*
X118521466Y-57449285D01*
X118527596Y-57472820D01*
X118536003Y-57525255D01*
X118541950Y-57571192D01*
X118553236Y-57647480D01*
X118570846Y-57746050D01*
X118591357Y-57847989D01*
X118595596Y-57867525D01*
X118696599Y-58229964D01*
X118838865Y-58589464D01*
X119021352Y-58944631D01*
X119243020Y-59294071D01*
X119502824Y-59636388D01*
X119799725Y-59970190D01*
X120132680Y-60294082D01*
X120500647Y-60606669D01*
X120826034Y-60852330D01*
X121012651Y-60986085D01*
X120999206Y-61115918D01*
X120990660Y-61195011D01*
X120982572Y-61264255D01*
X120978083Y-61298667D01*
X120971971Y-61347582D01*
X120963855Y-61421164D01*
X120956916Y-61489167D01*
X120948625Y-61569956D01*
X120940720Y-61640748D01*
X120935801Y-61679667D01*
X120930145Y-61726652D01*
X120922449Y-61800414D01*
X120914315Y-61885555D01*
X120913790Y-61891334D01*
X120906043Y-61972696D01*
X120898972Y-62039857D01*
X120893978Y-62079598D01*
X120893596Y-62081834D01*
X120889034Y-62117170D01*
X120882218Y-62181952D01*
X120874472Y-62263444D01*
X120872923Y-62280685D01*
X120865056Y-62364391D01*
X120857723Y-62434325D01*
X120852297Y-62477545D01*
X120851577Y-62481768D01*
X120846476Y-62518628D01*
X120839054Y-62584216D01*
X120830821Y-62665098D01*
X120829916Y-62674500D01*
X120821783Y-62755845D01*
X120814424Y-62822998D01*
X120809297Y-62862750D01*
X120808910Y-62865000D01*
X120803909Y-62901386D01*
X120796492Y-62965714D01*
X120788599Y-63040804D01*
X120780251Y-63119451D01*
X120772549Y-63184615D01*
X120767394Y-63220721D01*
X120761304Y-63261058D01*
X120752831Y-63326404D01*
X120746923Y-63375859D01*
X120737965Y-63449297D01*
X120729700Y-63510015D01*
X120725757Y-63534609D01*
X120719358Y-63576569D01*
X120710563Y-63643793D01*
X120703774Y-63700341D01*
X120694992Y-63769291D01*
X120687038Y-63819625D01*
X120682544Y-63837925D01*
X120676766Y-63863443D01*
X120668537Y-63918184D01*
X120661301Y-63976250D01*
X120649669Y-64065648D01*
X120635873Y-64155306D01*
X120628145Y-64198500D01*
X120621117Y-64258214D01*
X120616236Y-64347468D01*
X120613996Y-64453501D01*
X120614565Y-64548645D01*
X120617645Y-64661068D01*
X120622975Y-64742249D01*
X120632445Y-64803277D01*
X120647943Y-64855241D01*
X120671356Y-64909232D01*
X120678460Y-64923922D01*
X120754484Y-65042949D01*
X120853351Y-65133766D01*
X120976866Y-65196802D01*
X121126838Y-65232488D01*
X121305074Y-65241251D01*
X121513382Y-65223522D01*
X121753568Y-65179730D01*
X121754321Y-65179564D01*
X121895560Y-65148352D01*
X121910275Y-65059718D01*
X121921639Y-64993069D01*
X121931485Y-64938226D01*
X121933297Y-64928750D01*
X121943252Y-64876238D01*
X121953014Y-64822917D01*
X121961109Y-64778337D01*
X121974995Y-64702332D01*
X121992804Y-64605113D01*
X122012668Y-64496890D01*
X122014990Y-64484250D01*
X122037047Y-64364229D01*
X122053502Y-64274720D01*
X122066405Y-64204596D01*
X122077804Y-64142734D01*
X122089748Y-64078007D01*
X122104288Y-63999292D01*
X122110500Y-63965667D01*
X122126462Y-63879259D01*
X122139099Y-63810813D01*
X122150457Y-63749205D01*
X122162588Y-63683309D01*
X122177539Y-63602001D01*
X122197359Y-63494155D01*
X122206009Y-63447084D01*
X122225999Y-63338251D01*
X122244163Y-63239252D01*
X122258631Y-63160300D01*
X122267530Y-63111603D01*
X122268109Y-63108417D01*
X122281206Y-63036830D01*
X122291438Y-62981417D01*
X122299672Y-62936834D01*
X122313665Y-62860823D01*
X122331537Y-62763597D01*
X122351411Y-62655366D01*
X122353727Y-62642750D01*
X122373472Y-62535170D01*
X122391195Y-62438651D01*
X122405102Y-62362953D01*
X122413400Y-62317837D01*
X122413985Y-62314667D01*
X122423140Y-62264994D01*
X122436551Y-62192179D01*
X122447124Y-62134750D01*
X122467323Y-62025645D01*
X122482501Y-61945380D01*
X122495106Y-61881126D01*
X122501616Y-61849000D01*
X122511977Y-61792473D01*
X122523345Y-61722419D01*
X122525000Y-61711417D01*
X122536914Y-61639558D01*
X122553278Y-61551926D01*
X122572039Y-61458223D01*
X122591144Y-61368150D01*
X122608540Y-61291410D01*
X122622175Y-61237705D01*
X122629614Y-61216997D01*
X122651585Y-61222559D01*
X122692512Y-61256393D01*
X122746989Y-61312153D01*
X122809609Y-61383490D01*
X122874965Y-61464056D01*
X122937651Y-61547505D01*
X122992259Y-61627489D01*
X123023708Y-61679667D01*
X123112367Y-61874487D01*
X123172989Y-62071250D01*
X123181835Y-62124165D01*
X123188876Y-62207644D01*
X123194201Y-62324141D01*
X123197898Y-62476110D01*
X123200056Y-62666005D01*
X123200728Y-62843834D01*
X123201462Y-63026058D01*
X123203126Y-63210842D01*
X123205576Y-63389516D01*
X123208668Y-63553412D01*
X123212258Y-63693860D01*
X123216201Y-63802193D01*
X123216931Y-63817500D01*
X123221851Y-63929659D01*
X123227089Y-64073264D01*
X123232308Y-64237433D01*
X123237172Y-64411282D01*
X123241345Y-64583931D01*
X123242929Y-64659388D01*
X123247302Y-64848837D01*
X123252553Y-65001771D01*
X123259370Y-65124009D01*
X123268440Y-65221369D01*
X123280448Y-65299670D01*
X123296081Y-65364729D01*
X123316027Y-65422365D01*
X123339140Y-65474598D01*
X123390785Y-65567753D01*
X123450537Y-65639593D01*
X123528666Y-65705261D01*
X123648609Y-65772107D01*
X123793254Y-65815758D01*
X123951416Y-65835472D01*
X124111909Y-65830505D01*
X124263546Y-65800115D01*
X124363687Y-65760718D01*
X124449771Y-65711571D01*
X124510478Y-65658837D01*
X124551246Y-65593239D01*
X124577516Y-65505501D01*
X124594728Y-65386346D01*
X124597109Y-65362667D01*
X124632562Y-65145179D01*
X124694311Y-64960592D01*
X124783175Y-64807996D01*
X124899971Y-64686486D01*
X125045517Y-64595152D01*
X125220630Y-64533089D01*
X125369501Y-64505502D01*
X125425469Y-64500709D01*
X125514926Y-64495783D01*
X125629027Y-64491089D01*
X125655916Y-64490241D01*
X125655916Y-63188006D01*
X125433751Y-63174701D01*
X125231235Y-63133943D01*
X125033385Y-63062622D01*
X125017427Y-63055555D01*
X124942535Y-63020521D01*
X124894804Y-62990526D01*
X124862493Y-62953920D01*
X124833859Y-62899052D01*
X124814129Y-62853848D01*
X124735517Y-62629883D01*
X124679343Y-62388750D01*
X124675752Y-62348971D01*
X124672320Y-62272037D01*
X124669151Y-62163128D01*
X124666350Y-62027424D01*
X124664019Y-61870103D01*
X124662264Y-61696345D01*
X124661188Y-61511328D01*
X124661078Y-61478584D01*
X124660018Y-61245508D01*
X124658047Y-61049714D01*
X124654717Y-60886153D01*
X124649579Y-60749776D01*
X124642185Y-60635535D01*
X124632086Y-60538381D01*
X124618834Y-60453265D01*
X124601980Y-60375138D01*
X124581075Y-60298952D01*
X124555671Y-60219657D01*
X124546967Y-60194104D01*
X124512238Y-60100305D01*
X124473762Y-60007705D01*
X124435878Y-59925627D01*
X124402924Y-59863394D01*
X124379242Y-59830331D01*
X124376805Y-59828493D01*
X124356748Y-59821812D01*
X124316920Y-59815720D01*
X124253602Y-59809990D01*
X124163076Y-59804394D01*
X124041623Y-59798706D01*
X123885525Y-59792697D01*
X123691065Y-59786141D01*
X123676833Y-59785685D01*
X123408001Y-59775802D01*
X123175918Y-59764356D01*
X122975012Y-59750927D01*
X122799713Y-59735099D01*
X122644453Y-59716452D01*
X122535787Y-59700031D01*
X122483153Y-59691416D01*
X122412535Y-59679972D01*
X122387620Y-59675958D01*
X122326257Y-59666060D01*
X122289167Y-59659635D01*
X122258849Y-59653302D01*
X122217802Y-59643680D01*
X122205750Y-59640823D01*
X122144938Y-59626774D01*
X122099916Y-59616832D01*
X121934642Y-59573976D01*
X121748255Y-59512543D01*
X121554513Y-59437957D01*
X121367173Y-59355647D01*
X121199993Y-59271038D01*
X121147538Y-59241148D01*
X120876890Y-59058650D01*
X120638863Y-58851315D01*
X120434688Y-58620973D01*
X120265593Y-58369450D01*
X120132809Y-58098575D01*
X120037566Y-57810174D01*
X119981332Y-57508087D01*
X119972589Y-57443264D01*
X119964541Y-57398209D01*
X119960556Y-57385542D01*
X119957925Y-57361793D01*
X119957261Y-57304571D01*
X119958271Y-57222674D01*
X119960662Y-57124902D01*
X119964143Y-57020054D01*
X119968420Y-56916928D01*
X119973201Y-56824325D01*
X119978194Y-56751044D01*
X119983105Y-56705883D01*
X119983170Y-56705500D01*
X120056549Y-56392679D01*
X120164885Y-56103201D01*
X120308278Y-55836975D01*
X120486828Y-55593907D01*
X120700635Y-55373908D01*
X120949799Y-55176883D01*
X121234420Y-55002742D01*
X121554597Y-54851392D01*
X121910430Y-54722741D01*
X122234092Y-54632849D01*
X122333409Y-54608859D01*
X122418909Y-54589444D01*
X122496599Y-54574153D01*
X122572487Y-54562536D01*
X122652582Y-54554141D01*
X122742890Y-54548517D01*
X122849420Y-54545213D01*
X122978180Y-54543778D01*
X123135176Y-54543761D01*
X123326418Y-54544710D01*
X123401666Y-54545182D01*
X123530675Y-54545375D01*
X123648958Y-54544382D01*
X123748424Y-54542359D01*
X123820986Y-54539468D01*
X123856750Y-54536228D01*
X124033365Y-54498686D01*
X124180496Y-54453541D01*
X124310884Y-54396182D01*
X124422755Y-54331391D01*
X124486596Y-54284810D01*
X124525051Y-54237073D01*
X124551728Y-54170548D01*
X124554840Y-54160278D01*
X124580246Y-54073023D01*
X124601179Y-53994907D01*
X124618084Y-53920647D01*
X124631411Y-53844958D01*
X124641604Y-53762559D01*
X124649111Y-53668165D01*
X124654378Y-53556494D01*
X124657853Y-53422262D01*
X124659983Y-53260185D01*
X124661214Y-53064982D01*
X124661810Y-52895500D01*
X124662746Y-52707369D01*
X124664358Y-52529161D01*
X124666545Y-52366095D01*
X124669208Y-52223392D01*
X124672244Y-52106270D01*
X124675554Y-52019950D01*
X124679036Y-51969651D01*
X124679778Y-51964167D01*
X124700126Y-51840842D01*
X124716633Y-51748367D01*
X124732022Y-51675773D01*
X124749016Y-51612089D01*
X124770340Y-51546346D01*
X124798717Y-51467574D01*
X124811941Y-51431875D01*
X124841748Y-51356574D01*
X124868207Y-51309821D01*
X124901052Y-51279906D01*
X124950019Y-51255118D01*
X124963731Y-51249269D01*
X125073737Y-51206911D01*
X125191876Y-51167765D01*
X125299164Y-51137913D01*
X125338416Y-51129217D01*
X125404548Y-51115984D01*
X125454833Y-51105596D01*
X125530442Y-51096550D01*
X125635323Y-51093133D01*
X125756851Y-51094908D01*
X125882401Y-51101443D01*
X125999346Y-51112301D01*
X126095064Y-51127049D01*
X126098468Y-51127755D01*
X126237882Y-51163862D01*
X126393022Y-51214948D01*
X126543551Y-51273817D01*
X126648167Y-51322279D01*
X126680929Y-51341708D01*
X126744328Y-51381761D01*
X126833836Y-51439487D01*
X126944928Y-51511937D01*
X127073077Y-51596161D01*
X127213757Y-51689209D01*
X127338666Y-51772275D01*
X127707327Y-52015799D01*
X128061524Y-52244898D01*
X128412826Y-52466832D01*
X128772804Y-52688864D01*
X129153027Y-52918255D01*
X129370666Y-53047641D01*
X129480903Y-53112680D01*
X129615617Y-53191839D01*
X129770140Y-53282402D01*
X129939803Y-53381648D01*
X130119937Y-53486860D01*
X130305873Y-53595320D01*
X130492942Y-53704308D01*
X130676475Y-53811107D01*
X130851804Y-53912998D01*
X131014260Y-54007263D01*
X131159173Y-54091184D01*
X131281875Y-54162041D01*
X131377697Y-54217117D01*
X131441970Y-54253693D01*
X131445000Y-54255396D01*
X131638713Y-54366618D01*
X131798960Y-54464608D01*
X131930961Y-54553320D01*
X132039935Y-54636713D01*
X132131102Y-54718742D01*
X132209683Y-54803364D01*
X132271811Y-54882091D01*
X132376340Y-55042965D01*
X132445885Y-55197991D01*
X132484436Y-55357843D01*
X132495165Y-55479717D01*
X132494065Y-55601399D01*
X132479730Y-55714038D01*
X132449262Y-55829845D01*
X132399763Y-55961028D01*
X132358737Y-56054357D01*
X132244159Y-56350716D01*
X132164889Y-56657061D01*
X132122021Y-56966441D01*
X132116648Y-57271902D01*
X132135203Y-57475521D01*
X132167588Y-57644683D01*
X132219248Y-57835372D01*
X132285879Y-58033955D01*
X132363177Y-58226801D01*
X132393714Y-58294172D01*
X132468584Y-58483415D01*
X132507202Y-58658451D01*
X132510245Y-58825779D01*
X132478383Y-58991898D01*
X132469134Y-59021742D01*
X132417179Y-59155620D01*
X132351201Y-59276022D01*
X132266483Y-59388008D01*
X132158307Y-59496641D01*
X132021958Y-59606981D01*
X131852719Y-59724090D01*
X131758785Y-59783962D01*
X131425759Y-59990784D01*
X131066635Y-60211978D01*
X130686245Y-60444655D01*
X130289420Y-60685930D01*
X129880993Y-60932913D01*
X129465796Y-61182719D01*
X129048661Y-61432460D01*
X128634419Y-61679248D01*
X128227904Y-61920198D01*
X127833946Y-62152420D01*
X127457378Y-62373029D01*
X127103032Y-62579136D01*
X126775740Y-62767855D01*
X126534333Y-62905676D01*
X126366741Y-62998074D01*
X126225392Y-63068660D01*
X126101990Y-63120102D01*
X125988240Y-63155064D01*
X125875844Y-63176214D01*
X125756508Y-63186218D01*
X125655916Y-63188006D01*
X125655916Y-64490241D01*
X125758931Y-64486990D01*
X125895754Y-64483850D01*
X126028557Y-64480925D01*
X126150552Y-64477359D01*
X126253984Y-64473448D01*
X126331101Y-64469489D01*
X126374147Y-64465777D01*
X126375583Y-64465551D01*
X126437796Y-64455923D01*
X126514024Y-64445087D01*
X126534333Y-64442358D01*
X126679456Y-64416512D01*
X126850940Y-64375022D01*
X127037274Y-64321160D01*
X127226950Y-64258199D01*
X127370416Y-64204640D01*
X127518542Y-64143859D01*
X127670596Y-64076316D01*
X127832001Y-63999274D01*
X128008182Y-63909995D01*
X128204562Y-63805740D01*
X128426566Y-63683773D01*
X128640416Y-63563591D01*
X128762224Y-63495090D01*
X128872166Y-63434228D01*
X128964775Y-63383953D01*
X129034582Y-63347213D01*
X129076119Y-63326958D01*
X129084916Y-63323912D01*
X129110598Y-63334928D01*
X129162892Y-63364500D01*
X129233236Y-63407622D01*
X129286000Y-63441471D01*
X129693996Y-63689375D01*
X130113308Y-63908891D01*
X130539061Y-64098175D01*
X130966386Y-64255385D01*
X131390409Y-64378677D01*
X131806258Y-64466209D01*
X132101166Y-64506395D01*
X132234851Y-64515887D01*
X132256058Y-64516458D01*
X132256058Y-63170607D01*
X132029713Y-63141813D01*
X131800997Y-63070935D01*
X131569740Y-62957930D01*
X131335772Y-62802755D01*
X131243916Y-62730929D01*
X131194433Y-62688350D01*
X131127919Y-62627966D01*
X131050080Y-62555309D01*
X130966617Y-62475912D01*
X130883235Y-62395306D01*
X130805635Y-62319023D01*
X130739522Y-62252596D01*
X130690599Y-62201555D01*
X130664568Y-62171434D01*
X130661833Y-62166318D01*
X130679631Y-62152110D01*
X130727127Y-62125258D01*
X130795481Y-62090627D01*
X130825875Y-62076066D01*
X130913985Y-62033793D01*
X130993925Y-61993448D01*
X131072309Y-61951154D01*
X131155749Y-61903035D01*
X131250861Y-61845211D01*
X131364257Y-61773806D01*
X131502551Y-61684943D01*
X131593166Y-61626218D01*
X131832501Y-61474214D01*
X132044101Y-61347688D01*
X132232496Y-61244712D01*
X132402215Y-61163360D01*
X132557789Y-61101703D01*
X132703747Y-61057814D01*
X132844621Y-61029766D01*
X132963394Y-61017801D01*
X132963394Y-53283388D01*
X132715625Y-53248693D01*
X132715000Y-53248555D01*
X132576843Y-53208246D01*
X132413073Y-53144143D01*
X132230611Y-53059536D01*
X132036376Y-52957718D01*
X131837289Y-52841980D01*
X131762500Y-52795477D01*
X131643835Y-52720345D01*
X131504986Y-52632479D01*
X131361561Y-52541752D01*
X131229166Y-52458037D01*
X131202693Y-52441304D01*
X131055935Y-52350905D01*
X130909010Y-52264710D01*
X130767064Y-52185362D01*
X130635242Y-52115508D01*
X130518692Y-52057792D01*
X130422559Y-52014858D01*
X130351989Y-51989353D01*
X130312583Y-51983817D01*
X130296955Y-51983243D01*
X130314246Y-51967484D01*
X130365548Y-51935904D01*
X130451955Y-51887866D01*
X130574557Y-51822732D01*
X130704166Y-51755451D01*
X131003241Y-51607892D01*
X131288977Y-51479941D01*
X131555970Y-51373815D01*
X131798817Y-51291734D01*
X131910666Y-51260097D01*
X132093694Y-51221172D01*
X132285846Y-51196051D01*
X132475450Y-51185337D01*
X132650834Y-51189634D01*
X132800325Y-51209544D01*
X132817138Y-51213284D01*
X133008025Y-51273368D01*
X133191780Y-51363162D01*
X133370503Y-51484589D01*
X133546291Y-51639570D01*
X133721242Y-51830027D01*
X133897455Y-52057883D01*
X134077029Y-52325059D01*
X134137988Y-52423176D01*
X134203304Y-52532080D01*
X134247525Y-52610984D01*
X134273081Y-52665082D01*
X134282397Y-52699571D01*
X134277900Y-52719646D01*
X134277002Y-52720803D01*
X134235120Y-52761101D01*
X134165646Y-52817229D01*
X134077232Y-52883141D01*
X133978528Y-52952792D01*
X133878186Y-53020136D01*
X133784856Y-53079126D01*
X133707191Y-53123716D01*
X133683110Y-53135853D01*
X133445689Y-53227136D01*
X133206267Y-53276259D01*
X132963394Y-53283388D01*
X132963394Y-61017801D01*
X132984939Y-61015630D01*
X133032752Y-61013667D01*
X133257310Y-61026408D01*
X133480488Y-61077456D01*
X133703945Y-61167573D01*
X133929336Y-61297522D01*
X134158319Y-61468066D01*
X134311078Y-61602172D01*
X134436073Y-61718252D01*
X134311078Y-61851617D01*
X134050073Y-62122456D01*
X133807335Y-62358077D01*
X133580567Y-62560264D01*
X133367473Y-62730802D01*
X133165756Y-62871476D01*
X132973121Y-62984071D01*
X132787270Y-63070372D01*
X132702316Y-63102115D01*
X132480203Y-63157360D01*
X132256058Y-63170607D01*
X132256058Y-64516458D01*
X132390509Y-64520079D01*
X132556360Y-64519272D01*
X132720628Y-64513765D01*
X132871536Y-64503860D01*
X132997304Y-64489858D01*
X133042236Y-64482363D01*
X133090051Y-64474064D01*
X133155170Y-64463751D01*
X133168789Y-64461698D01*
X133225444Y-64451888D01*
X133262097Y-64443032D01*
X133266667Y-64441093D01*
X133294608Y-64432248D01*
X133344692Y-64421690D01*
X133347444Y-64421201D01*
X133438194Y-64399323D01*
X133555237Y-64362435D01*
X133687104Y-64314660D01*
X133822325Y-64260121D01*
X133933366Y-64210568D01*
X134241238Y-64042496D01*
X134527397Y-63838806D01*
X134791005Y-63600708D01*
X135031223Y-63329413D01*
X135247214Y-63026131D01*
X135438140Y-62692073D01*
X135603162Y-62328448D01*
X135741443Y-61936468D01*
X135852144Y-61517342D01*
X135876219Y-61404500D01*
X135904985Y-61262928D01*
X135925674Y-61155942D01*
X135938182Y-61076556D01*
X135942406Y-61017781D01*
X135938243Y-60972630D01*
X135925590Y-60934113D01*
X135904345Y-60895244D01*
X135874403Y-60849034D01*
X135867883Y-60839092D01*
X135799193Y-60743704D01*
X135721245Y-60656077D01*
X135629109Y-60572597D01*
X135517855Y-60489647D01*
X135382556Y-60403612D01*
X135218283Y-60310877D01*
X135020107Y-60207825D01*
X134979621Y-60187484D01*
X134788712Y-60090153D01*
X134631482Y-60005553D01*
X134502465Y-59930301D01*
X134396195Y-59861012D01*
X134307207Y-59794302D01*
X134230032Y-59726788D01*
X134220010Y-59717224D01*
X134114087Y-59615128D01*
X134061265Y-59349660D01*
X134039571Y-59237541D01*
X134019851Y-59130026D01*
X134004314Y-59039520D01*
X133995324Y-58979638D01*
X133986052Y-58911899D01*
X133977428Y-58858761D01*
X133974231Y-58843334D01*
X133967310Y-58805160D01*
X133958250Y-58741893D01*
X133952628Y-58697245D01*
X133943649Y-58625876D01*
X133935544Y-58568007D01*
X133932053Y-58546846D01*
X133927031Y-58509284D01*
X133920053Y-58442658D01*
X133912475Y-58360107D01*
X133911078Y-58343685D01*
X133903209Y-58256535D01*
X133895313Y-58179847D01*
X133888926Y-58128369D01*
X133888182Y-58123667D01*
X133877982Y-58037446D01*
X133869560Y-57915647D01*
X133862913Y-57764987D01*
X133858043Y-57592185D01*
X133854946Y-57403959D01*
X133853622Y-57207025D01*
X133854069Y-57008103D01*
X133856287Y-56813910D01*
X133860275Y-56631164D01*
X133866030Y-56466582D01*
X133873553Y-56326882D01*
X133882841Y-56218783D01*
X133888522Y-56176334D01*
X133894935Y-56128047D01*
X133903199Y-56054370D01*
X133910737Y-55979364D01*
X133918684Y-55900695D01*
X133926150Y-55835521D01*
X133931278Y-55799447D01*
X133937090Y-55760401D01*
X133945356Y-55694450D01*
X133953162Y-55626000D01*
X133961711Y-55554042D01*
X133969400Y-55500501D01*
X133974303Y-55477834D01*
X133980606Y-55452221D01*
X133989379Y-55399831D01*
X133993346Y-55372000D01*
X134003719Y-55300352D01*
X134013880Y-55237752D01*
X134016428Y-55223834D01*
X134028195Y-55161983D01*
X134038429Y-55107417D01*
X134048003Y-55059393D01*
X134063994Y-54982686D01*
X134083742Y-54889962D01*
X134095377Y-54836107D01*
X134117159Y-54739919D01*
X134136048Y-54674229D01*
X134157371Y-54628008D01*
X134186452Y-54590227D01*
X134228619Y-54549856D01*
X134237382Y-54542022D01*
X134323601Y-54470811D01*
X134424800Y-54398417D01*
X134546510Y-54321407D01*
X134694261Y-54236349D01*
X134873585Y-54139809D01*
X134948083Y-54100990D01*
X135127150Y-54006773D01*
X135274341Y-53925198D01*
X135396456Y-53851694D01*
X135500295Y-53781693D01*
X135592659Y-53710623D01*
X135680348Y-53633915D01*
X135765518Y-53551657D01*
X135836004Y-53480592D01*
X135888259Y-53423087D01*
X135924856Y-53371024D01*
X135948369Y-53316284D01*
X135961371Y-53250747D01*
X135966438Y-53166294D01*
X135966143Y-53054806D01*
X135966143Y-53054806D01*
G37*
X135966143Y-53054806D02*
X135963478Y-52927250D01*
X135958934Y-52773971D01*
X135951937Y-52650053D01*
X135941026Y-52542537D01*
X135924737Y-52438465D01*
X135901608Y-52324875D01*
X135889422Y-52270858D01*
X135792713Y-51939542D01*
X135659923Y-51629687D01*
X135490949Y-51341196D01*
X135285691Y-51073974D01*
X135044044Y-50827925D01*
X134765908Y-50602951D01*
X134451179Y-50398958D01*
X134099757Y-50215849D01*
X133711537Y-50053528D01*
X133426252Y-49954903D01*
X133250924Y-49902314D01*
X133076216Y-49856116D01*
X132914589Y-49819358D01*
X132778506Y-49795092D01*
X132766759Y-49793467D01*
X132703892Y-49783965D01*
X132660124Y-49775336D01*
X132649455Y-49771902D01*
X132621398Y-49766123D01*
X132560565Y-49759378D01*
X132476482Y-49752316D01*
X132378676Y-49745586D01*
X132276674Y-49739837D01*
X132180003Y-49735718D01*
X132098189Y-49733877D01*
X132090583Y-49733842D01*
X132011427Y-49735053D01*
X131915605Y-49738602D01*
X131812507Y-49743877D01*
X131711524Y-49750268D01*
X131622048Y-49757165D01*
X131553468Y-49763957D01*
X131515176Y-49770032D01*
X131511161Y-49771521D01*
X131483801Y-49778917D01*
X131430189Y-49788338D01*
X131402666Y-49792302D01*
X131197722Y-49832056D01*
X130971220Y-49897277D01*
X130732261Y-49984235D01*
X130489944Y-50089203D01*
X130253369Y-50208452D01*
X130031634Y-50338255D01*
X129966015Y-50380934D01*
X129865999Y-50450933D01*
X129749940Y-50537155D01*
X129628435Y-50631263D01*
X129512082Y-50724923D01*
X129411479Y-50809797D01*
X129348698Y-50866491D01*
X129301360Y-50912185D01*
X129264239Y-50944971D01*
X129230674Y-50964095D01*
X129194003Y-50968804D01*
X129147565Y-50958346D01*
X129084701Y-50931966D01*
X128998748Y-50888912D01*
X128883047Y-50828430D01*
X128847365Y-50809808D01*
X128588596Y-50675204D01*
X128363681Y-50558617D01*
X128169029Y-50458317D01*
X128001050Y-50372572D01*
X127856153Y-50299652D01*
X127730747Y-50237823D01*
X127621241Y-50185357D01*
X127524046Y-50140520D01*
X127435570Y-50101583D01*
X127352223Y-50066813D01*
X127270413Y-50034480D01*
X127186551Y-50002852D01*
X127132953Y-49983202D01*
X126997574Y-49937094D01*
X126852349Y-49892871D01*
X126711547Y-49854549D01*
X126589441Y-49826143D01*
X126544916Y-49817753D01*
X126395847Y-49793213D01*
X126259166Y-49771713D01*
X126207576Y-49767174D01*
X126122377Y-49763556D01*
X126012288Y-49761060D01*
X125886026Y-49759889D01*
X125761750Y-49760167D01*
X125554485Y-49759001D01*
X125383642Y-49750967D01*
X125243660Y-49734668D01*
X125128984Y-49708707D01*
X125034055Y-49671687D01*
X124953314Y-49622211D01*
X124881205Y-49558881D01*
X124856448Y-49532599D01*
X124778542Y-49432083D01*
X124719702Y-49320540D01*
X124676054Y-49188329D01*
X124643723Y-49025811D01*
X124638476Y-48990250D01*
X124601039Y-48823301D01*
X124539782Y-48689914D01*
X124453268Y-48587723D01*
X124353971Y-48521143D01*
X124275146Y-48485598D01*
X124200160Y-48463700D01*
X124114257Y-48452550D01*
X124002682Y-48449251D01*
X123987957Y-48449243D01*
X123805289Y-48462599D01*
X123651252Y-48503306D01*
X123524055Y-48573182D01*
X123421907Y-48674048D01*
X123343016Y-48807723D01*
X123285592Y-48976027D01*
X123247843Y-49180780D01*
X123245003Y-49203995D01*
X123236468Y-49280630D01*
X123229225Y-49356081D01*
X123223139Y-49434781D01*
X123218072Y-49521160D01*
X123213887Y-49619650D01*
X123210448Y-49734684D01*
X123207618Y-49870691D01*
X123205260Y-50032105D01*
X123203238Y-50223356D01*
X123201413Y-50448876D01*
X123199969Y-50662417D01*
X123198428Y-50875144D01*
X123196605Y-51077281D01*
X123194564Y-51264437D01*
X123192371Y-51432216D01*
X123190089Y-51576225D01*
X123187784Y-51692071D01*
X123185519Y-51775361D01*
X123183359Y-51821699D01*
X123182894Y-51826584D01*
X123176270Y-51888403D01*
X123167939Y-51975634D01*
X123159492Y-52071484D01*
X123157849Y-52091167D01*
X123150295Y-52177762D01*
X123143196Y-52250595D01*
X123137772Y-52297411D01*
X123136586Y-52304912D01*
X123130462Y-52344357D01*
X123121770Y-52408528D01*
X123116145Y-52453079D01*
X123104236Y-52537769D01*
X123090170Y-52621014D01*
X123084020Y-52652084D01*
X123068187Y-52733354D01*
X123054234Y-52816145D01*
X123053447Y-52821417D01*
X123042679Y-52879792D01*
X123024362Y-52964715D01*
X123001669Y-53061780D01*
X122990478Y-53107167D01*
X122939979Y-53308250D01*
X122834827Y-53086000D01*
X122649280Y-52652276D01*
X122488739Y-52190137D01*
X122355294Y-51706765D01*
X122251037Y-51209343D01*
X122206136Y-50927000D01*
X122195899Y-50855407D01*
X122186705Y-50792828D01*
X122184583Y-50778834D01*
X122174136Y-50706116D01*
X122160685Y-50605594D01*
X122146127Y-50491513D01*
X122143039Y-50466625D01*
X122133456Y-50388935D01*
X122123447Y-50307765D01*
X122122808Y-50302584D01*
X122114169Y-50230203D01*
X122104098Y-50142687D01*
X122099483Y-50101500D01*
X122090706Y-50025330D01*
X122082452Y-49958727D01*
X122078833Y-49932167D01*
X122072558Y-49883271D01*
X122064100Y-49809718D01*
X122056789Y-49741667D01*
X122048490Y-49665441D01*
X122041060Y-49603531D01*
X122036590Y-49572334D01*
X122030883Y-49534319D01*
X122022612Y-49470970D01*
X122016917Y-49424167D01*
X122007669Y-49350718D01*
X121998959Y-49289321D01*
X121994949Y-49265417D01*
X121987067Y-49211407D01*
X121985119Y-49187739D01*
X121963548Y-49163485D01*
X121903364Y-49137549D01*
X121808195Y-49111045D01*
X121681670Y-49085085D01*
X121612415Y-49073390D01*
X121546981Y-49062141D01*
X121492659Y-49051436D01*
X121488693Y-49050544D01*
X121447224Y-49044824D01*
X121376669Y-49038737D01*
X121290251Y-49033368D01*
X121263833Y-49032088D01*
X121087217Y-49038499D01*
X120939750Y-49075335D01*
X120820682Y-49143051D01*
X120729265Y-49242100D01*
X120664751Y-49372935D01*
X120655673Y-49400766D01*
X120639387Y-49482256D01*
X120628236Y-49596215D01*
X120622175Y-49733098D01*
X120621159Y-49883359D01*
X120625145Y-50037453D01*
X120634088Y-50185834D01*
X120647943Y-50318956D01*
X120660304Y-50396711D01*
X120665294Y-50432987D01*
X120672632Y-50498099D01*
X120680826Y-50578726D01*
X120681750Y-50588334D01*
X120689883Y-50669678D01*
X120697242Y-50736831D01*
X120702370Y-50776583D01*
X120702757Y-50778834D01*
X120707638Y-50815019D01*
X120714846Y-50879455D01*
X120722828Y-50958235D01*
X120722878Y-50958750D01*
X120731295Y-51041825D01*
X120739380Y-51114725D01*
X120745133Y-51159834D01*
X120752096Y-51211160D01*
X120761137Y-51284130D01*
X120766416Y-51329167D01*
X120775455Y-51405322D01*
X120783903Y-51471917D01*
X120787583Y-51498500D01*
X120794480Y-51549826D01*
X120803477Y-51622795D01*
X120808750Y-51667834D01*
X120817729Y-51743985D01*
X120826027Y-51810580D01*
X120829592Y-51837167D01*
X120846373Y-51956356D01*
X120858616Y-52046257D01*
X120868022Y-52119452D01*
X120871034Y-52144084D01*
X120888739Y-52289027D01*
X120903596Y-52406111D01*
X120917470Y-52509548D01*
X120932225Y-52613549D01*
X120936300Y-52641500D01*
X120942888Y-52691525D01*
X120951728Y-52764842D01*
X120958193Y-52821417D01*
X120966766Y-52894980D01*
X120974338Y-52954159D01*
X120978256Y-52980167D01*
X120983533Y-53016879D01*
X120991409Y-53081009D01*
X120999162Y-53149500D01*
X121008028Y-53222045D01*
X121016500Y-53276721D01*
X121022371Y-53300606D01*
X121009858Y-53317546D01*
X120969331Y-53350559D01*
X120908721Y-53393350D01*
X120889386Y-53406127D01*
X120555231Y-53640466D01*
X120229986Y-53900856D01*
X119921730Y-54179935D01*
X119638542Y-54470337D01*
X119388500Y-54764699D01*
X119363129Y-54797312D01*
X119117590Y-55146747D01*
X118913514Y-55503953D01*
X118750962Y-55868787D01*
X118629997Y-56241107D01*
X118550682Y-56620770D01*
X118544981Y-56659583D01*
X118536903Y-56732987D01*
X118529631Y-56828881D01*
X118523405Y-56939164D01*
X118518466Y-57055735D01*
X118515056Y-57170492D01*
X118513416Y-57275334D01*
X118513787Y-57362158D01*
X118516410Y-57422864D01*
X118521466Y-57449285D01*
X118527596Y-57472820D01*
X118536003Y-57525255D01*
X118541950Y-57571192D01*
X118553236Y-57647480D01*
X118570846Y-57746050D01*
X118591357Y-57847989D01*
X118595596Y-57867525D01*
X118696599Y-58229964D01*
X118838865Y-58589464D01*
X119021352Y-58944631D01*
X119243020Y-59294071D01*
X119502824Y-59636388D01*
X119799725Y-59970190D01*
X120132680Y-60294082D01*
X120500647Y-60606669D01*
X120826034Y-60852330D01*
X121012651Y-60986085D01*
X120999206Y-61115918D01*
X120990660Y-61195011D01*
X120982572Y-61264255D01*
X120978083Y-61298667D01*
X120971971Y-61347582D01*
X120963855Y-61421164D01*
X120956916Y-61489167D01*
X120948625Y-61569956D01*
X120940720Y-61640748D01*
X120935801Y-61679667D01*
X120930145Y-61726652D01*
X120922449Y-61800414D01*
X120914315Y-61885555D01*
X120913790Y-61891334D01*
X120906043Y-61972696D01*
X120898972Y-62039857D01*
X120893978Y-62079598D01*
X120893596Y-62081834D01*
X120889034Y-62117170D01*
X120882218Y-62181952D01*
X120874472Y-62263444D01*
X120872923Y-62280685D01*
X120865056Y-62364391D01*
X120857723Y-62434325D01*
X120852297Y-62477545D01*
X120851577Y-62481768D01*
X120846476Y-62518628D01*
X120839054Y-62584216D01*
X120830821Y-62665098D01*
X120829916Y-62674500D01*
X120821783Y-62755845D01*
X120814424Y-62822998D01*
X120809297Y-62862750D01*
X120808910Y-62865000D01*
X120803909Y-62901386D01*
X120796492Y-62965714D01*
X120788599Y-63040804D01*
X120780251Y-63119451D01*
X120772549Y-63184615D01*
X120767394Y-63220721D01*
X120761304Y-63261058D01*
X120752831Y-63326404D01*
X120746923Y-63375859D01*
X120737965Y-63449297D01*
X120729700Y-63510015D01*
X120725757Y-63534609D01*
X120719358Y-63576569D01*
X120710563Y-63643793D01*
X120703774Y-63700341D01*
X120694992Y-63769291D01*
X120687038Y-63819625D01*
X120682544Y-63837925D01*
X120676766Y-63863443D01*
X120668537Y-63918184D01*
X120661301Y-63976250D01*
X120649669Y-64065648D01*
X120635873Y-64155306D01*
X120628145Y-64198500D01*
X120621117Y-64258214D01*
X120616236Y-64347468D01*
X120613996Y-64453501D01*
X120614565Y-64548645D01*
X120617645Y-64661068D01*
X120622975Y-64742249D01*
X120632445Y-64803277D01*
X120647943Y-64855241D01*
X120671356Y-64909232D01*
X120678460Y-64923922D01*
X120754484Y-65042949D01*
X120853351Y-65133766D01*
X120976866Y-65196802D01*
X121126838Y-65232488D01*
X121305074Y-65241251D01*
X121513382Y-65223522D01*
X121753568Y-65179730D01*
X121754321Y-65179564D01*
X121895560Y-65148352D01*
X121910275Y-65059718D01*
X121921639Y-64993069D01*
X121931485Y-64938226D01*
X121933297Y-64928750D01*
X121943252Y-64876238D01*
X121953014Y-64822917D01*
X121961109Y-64778337D01*
X121974995Y-64702332D01*
X121992804Y-64605113D01*
X122012668Y-64496890D01*
X122014990Y-64484250D01*
X122037047Y-64364229D01*
X122053502Y-64274720D01*
X122066405Y-64204596D01*
X122077804Y-64142734D01*
X122089748Y-64078007D01*
X122104288Y-63999292D01*
X122110500Y-63965667D01*
X122126462Y-63879259D01*
X122139099Y-63810813D01*
X122150457Y-63749205D01*
X122162588Y-63683309D01*
X122177539Y-63602001D01*
X122197359Y-63494155D01*
X122206009Y-63447084D01*
X122225999Y-63338251D01*
X122244163Y-63239252D01*
X122258631Y-63160300D01*
X122267530Y-63111603D01*
X122268109Y-63108417D01*
X122281206Y-63036830D01*
X122291438Y-62981417D01*
X122299672Y-62936834D01*
X122313665Y-62860823D01*
X122331537Y-62763597D01*
X122351411Y-62655366D01*
X122353727Y-62642750D01*
X122373472Y-62535170D01*
X122391195Y-62438651D01*
X122405102Y-62362953D01*
X122413400Y-62317837D01*
X122413985Y-62314667D01*
X122423140Y-62264994D01*
X122436551Y-62192179D01*
X122447124Y-62134750D01*
X122467323Y-62025645D01*
X122482501Y-61945380D01*
X122495106Y-61881126D01*
X122501616Y-61849000D01*
X122511977Y-61792473D01*
X122523345Y-61722419D01*
X122525000Y-61711417D01*
X122536914Y-61639558D01*
X122553278Y-61551926D01*
X122572039Y-61458223D01*
X122591144Y-61368150D01*
X122608540Y-61291410D01*
X122622175Y-61237705D01*
X122629614Y-61216997D01*
X122651585Y-61222559D01*
X122692512Y-61256393D01*
X122746989Y-61312153D01*
X122809609Y-61383490D01*
X122874965Y-61464056D01*
X122937651Y-61547505D01*
X122992259Y-61627489D01*
X123023708Y-61679667D01*
X123112367Y-61874487D01*
X123172989Y-62071250D01*
X123181835Y-62124165D01*
X123188876Y-62207644D01*
X123194201Y-62324141D01*
X123197898Y-62476110D01*
X123200056Y-62666005D01*
X123200728Y-62843834D01*
X123201462Y-63026058D01*
X123203126Y-63210842D01*
X123205576Y-63389516D01*
X123208668Y-63553412D01*
X123212258Y-63693860D01*
X123216201Y-63802193D01*
X123216931Y-63817500D01*
X123221851Y-63929659D01*
X123227089Y-64073264D01*
X123232308Y-64237433D01*
X123237172Y-64411282D01*
X123241345Y-64583931D01*
X123242929Y-64659388D01*
X123247302Y-64848837D01*
X123252553Y-65001771D01*
X123259370Y-65124009D01*
X123268440Y-65221369D01*
X123280448Y-65299670D01*
X123296081Y-65364729D01*
X123316027Y-65422365D01*
X123339140Y-65474598D01*
X123390785Y-65567753D01*
X123450537Y-65639593D01*
X123528666Y-65705261D01*
X123648609Y-65772107D01*
X123793254Y-65815758D01*
X123951416Y-65835472D01*
X124111909Y-65830505D01*
X124263546Y-65800115D01*
X124363687Y-65760718D01*
X124449771Y-65711571D01*
X124510478Y-65658837D01*
X124551246Y-65593239D01*
X124577516Y-65505501D01*
X124594728Y-65386346D01*
X124597109Y-65362667D01*
X124632562Y-65145179D01*
X124694311Y-64960592D01*
X124783175Y-64807996D01*
X124899971Y-64686486D01*
X125045517Y-64595152D01*
X125220630Y-64533089D01*
X125369501Y-64505502D01*
X125425469Y-64500709D01*
X125514926Y-64495783D01*
X125629027Y-64491089D01*
X125655916Y-64490241D01*
X125655916Y-63188006D01*
X125433751Y-63174701D01*
X125231235Y-63133943D01*
X125033385Y-63062622D01*
X125017427Y-63055555D01*
X124942535Y-63020521D01*
X124894804Y-62990526D01*
X124862493Y-62953920D01*
X124833859Y-62899052D01*
X124814129Y-62853848D01*
X124735517Y-62629883D01*
X124679343Y-62388750D01*
X124675752Y-62348971D01*
X124672320Y-62272037D01*
X124669151Y-62163128D01*
X124666350Y-62027424D01*
X124664019Y-61870103D01*
X124662264Y-61696345D01*
X124661188Y-61511328D01*
X124661078Y-61478584D01*
X124660018Y-61245508D01*
X124658047Y-61049714D01*
X124654717Y-60886153D01*
X124649579Y-60749776D01*
X124642185Y-60635535D01*
X124632086Y-60538381D01*
X124618834Y-60453265D01*
X124601980Y-60375138D01*
X124581075Y-60298952D01*
X124555671Y-60219657D01*
X124546967Y-60194104D01*
X124512238Y-60100305D01*
X124473762Y-60007705D01*
X124435878Y-59925627D01*
X124402924Y-59863394D01*
X124379242Y-59830331D01*
X124376805Y-59828493D01*
X124356748Y-59821812D01*
X124316920Y-59815720D01*
X124253602Y-59809990D01*
X124163076Y-59804394D01*
X124041623Y-59798706D01*
X123885525Y-59792697D01*
X123691065Y-59786141D01*
X123676833Y-59785685D01*
X123408001Y-59775802D01*
X123175918Y-59764356D01*
X122975012Y-59750927D01*
X122799713Y-59735099D01*
X122644453Y-59716452D01*
X122535787Y-59700031D01*
X122483153Y-59691416D01*
X122412535Y-59679972D01*
X122387620Y-59675958D01*
X122326257Y-59666060D01*
X122289167Y-59659635D01*
X122258849Y-59653302D01*
X122217802Y-59643680D01*
X122205750Y-59640823D01*
X122144938Y-59626774D01*
X122099916Y-59616832D01*
X121934642Y-59573976D01*
X121748255Y-59512543D01*
X121554513Y-59437957D01*
X121367173Y-59355647D01*
X121199993Y-59271038D01*
X121147538Y-59241148D01*
X120876890Y-59058650D01*
X120638863Y-58851315D01*
X120434688Y-58620973D01*
X120265593Y-58369450D01*
X120132809Y-58098575D01*
X120037566Y-57810174D01*
X119981332Y-57508087D01*
X119972589Y-57443264D01*
X119964541Y-57398209D01*
X119960556Y-57385542D01*
X119957925Y-57361793D01*
X119957261Y-57304571D01*
X119958271Y-57222674D01*
X119960662Y-57124902D01*
X119964143Y-57020054D01*
X119968420Y-56916928D01*
X119973201Y-56824325D01*
X119978194Y-56751044D01*
X119983105Y-56705883D01*
X119983170Y-56705500D01*
X120056549Y-56392679D01*
X120164885Y-56103201D01*
X120308278Y-55836975D01*
X120486828Y-55593907D01*
X120700635Y-55373908D01*
X120949799Y-55176883D01*
X121234420Y-55002742D01*
X121554597Y-54851392D01*
X121910430Y-54722741D01*
X122234092Y-54632849D01*
X122333409Y-54608859D01*
X122418909Y-54589444D01*
X122496599Y-54574153D01*
X122572487Y-54562536D01*
X122652582Y-54554141D01*
X122742890Y-54548517D01*
X122849420Y-54545213D01*
X122978180Y-54543778D01*
X123135176Y-54543761D01*
X123326418Y-54544710D01*
X123401666Y-54545182D01*
X123530675Y-54545375D01*
X123648958Y-54544382D01*
X123748424Y-54542359D01*
X123820986Y-54539468D01*
X123856750Y-54536228D01*
X124033365Y-54498686D01*
X124180496Y-54453541D01*
X124310884Y-54396182D01*
X124422755Y-54331391D01*
X124486596Y-54284810D01*
X124525051Y-54237073D01*
X124551728Y-54170548D01*
X124554840Y-54160278D01*
X124580246Y-54073023D01*
X124601179Y-53994907D01*
X124618084Y-53920647D01*
X124631411Y-53844958D01*
X124641604Y-53762559D01*
X124649111Y-53668165D01*
X124654378Y-53556494D01*
X124657853Y-53422262D01*
X124659983Y-53260185D01*
X124661214Y-53064982D01*
X124661810Y-52895500D01*
X124662746Y-52707369D01*
X124664358Y-52529161D01*
X124666545Y-52366095D01*
X124669208Y-52223392D01*
X124672244Y-52106270D01*
X124675554Y-52019950D01*
X124679036Y-51969651D01*
X124679778Y-51964167D01*
X124700126Y-51840842D01*
X124716633Y-51748367D01*
X124732022Y-51675773D01*
X124749016Y-51612089D01*
X124770340Y-51546346D01*
X124798717Y-51467574D01*
X124811941Y-51431875D01*
X124841748Y-51356574D01*
X124868207Y-51309821D01*
X124901052Y-51279906D01*
X124950019Y-51255118D01*
X124963731Y-51249269D01*
X125073737Y-51206911D01*
X125191876Y-51167765D01*
X125299164Y-51137913D01*
X125338416Y-51129217D01*
X125404548Y-51115984D01*
X125454833Y-51105596D01*
X125530442Y-51096550D01*
X125635323Y-51093133D01*
X125756851Y-51094908D01*
X125882401Y-51101443D01*
X125999346Y-51112301D01*
X126095064Y-51127049D01*
X126098468Y-51127755D01*
X126237882Y-51163862D01*
X126393022Y-51214948D01*
X126543551Y-51273817D01*
X126648167Y-51322279D01*
X126680929Y-51341708D01*
X126744328Y-51381761D01*
X126833836Y-51439487D01*
X126944928Y-51511937D01*
X127073077Y-51596161D01*
X127213757Y-51689209D01*
X127338666Y-51772275D01*
X127707327Y-52015799D01*
X128061524Y-52244898D01*
X128412826Y-52466832D01*
X128772804Y-52688864D01*
X129153027Y-52918255D01*
X129370666Y-53047641D01*
X129480903Y-53112680D01*
X129615617Y-53191839D01*
X129770140Y-53282402D01*
X129939803Y-53381648D01*
X130119937Y-53486860D01*
X130305873Y-53595320D01*
X130492942Y-53704308D01*
X130676475Y-53811107D01*
X130851804Y-53912998D01*
X131014260Y-54007263D01*
X131159173Y-54091184D01*
X131281875Y-54162041D01*
X131377697Y-54217117D01*
X131441970Y-54253693D01*
X131445000Y-54255396D01*
X131638713Y-54366618D01*
X131798960Y-54464608D01*
X131930961Y-54553320D01*
X132039935Y-54636713D01*
X132131102Y-54718742D01*
X132209683Y-54803364D01*
X132271811Y-54882091D01*
X132376340Y-55042965D01*
X132445885Y-55197991D01*
X132484436Y-55357843D01*
X132495165Y-55479717D01*
X132494065Y-55601399D01*
X132479730Y-55714038D01*
X132449262Y-55829845D01*
X132399763Y-55961028D01*
X132358737Y-56054357D01*
X132244159Y-56350716D01*
X132164889Y-56657061D01*
X132122021Y-56966441D01*
X132116648Y-57271902D01*
X132135203Y-57475521D01*
X132167588Y-57644683D01*
X132219248Y-57835372D01*
X132285879Y-58033955D01*
X132363177Y-58226801D01*
X132393714Y-58294172D01*
X132468584Y-58483415D01*
X132507202Y-58658451D01*
X132510245Y-58825779D01*
X132478383Y-58991898D01*
X132469134Y-59021742D01*
X132417179Y-59155620D01*
X132351201Y-59276022D01*
X132266483Y-59388008D01*
X132158307Y-59496641D01*
X132021958Y-59606981D01*
X131852719Y-59724090D01*
X131758785Y-59783962D01*
X131425759Y-59990784D01*
X131066635Y-60211978D01*
X130686245Y-60444655D01*
X130289420Y-60685930D01*
X129880993Y-60932913D01*
X129465796Y-61182719D01*
X129048661Y-61432460D01*
X128634419Y-61679248D01*
X128227904Y-61920198D01*
X127833946Y-62152420D01*
X127457378Y-62373029D01*
X127103032Y-62579136D01*
X126775740Y-62767855D01*
X126534333Y-62905676D01*
X126366741Y-62998074D01*
X126225392Y-63068660D01*
X126101990Y-63120102D01*
X125988240Y-63155064D01*
X125875844Y-63176214D01*
X125756508Y-63186218D01*
X125655916Y-63188006D01*
X125655916Y-64490241D01*
X125758931Y-64486990D01*
X125895754Y-64483850D01*
X126028557Y-64480925D01*
X126150552Y-64477359D01*
X126253984Y-64473448D01*
X126331101Y-64469489D01*
X126374147Y-64465777D01*
X126375583Y-64465551D01*
X126437796Y-64455923D01*
X126514024Y-64445087D01*
X126534333Y-64442358D01*
X126679456Y-64416512D01*
X126850940Y-64375022D01*
X127037274Y-64321160D01*
X127226950Y-64258199D01*
X127370416Y-64204640D01*
X127518542Y-64143859D01*
X127670596Y-64076316D01*
X127832001Y-63999274D01*
X128008182Y-63909995D01*
X128204562Y-63805740D01*
X128426566Y-63683773D01*
X128640416Y-63563591D01*
X128762224Y-63495090D01*
X128872166Y-63434228D01*
X128964775Y-63383953D01*
X129034582Y-63347213D01*
X129076119Y-63326958D01*
X129084916Y-63323912D01*
X129110598Y-63334928D01*
X129162892Y-63364500D01*
X129233236Y-63407622D01*
X129286000Y-63441471D01*
X129693996Y-63689375D01*
X130113308Y-63908891D01*
X130539061Y-64098175D01*
X130966386Y-64255385D01*
X131390409Y-64378677D01*
X131806258Y-64466209D01*
X132101166Y-64506395D01*
X132234851Y-64515887D01*
X132256058Y-64516458D01*
X132256058Y-63170607D01*
X132029713Y-63141813D01*
X131800997Y-63070935D01*
X131569740Y-62957930D01*
X131335772Y-62802755D01*
X131243916Y-62730929D01*
X131194433Y-62688350D01*
X131127919Y-62627966D01*
X131050080Y-62555309D01*
X130966617Y-62475912D01*
X130883235Y-62395306D01*
X130805635Y-62319023D01*
X130739522Y-62252596D01*
X130690599Y-62201555D01*
X130664568Y-62171434D01*
X130661833Y-62166318D01*
X130679631Y-62152110D01*
X130727127Y-62125258D01*
X130795481Y-62090627D01*
X130825875Y-62076066D01*
X130913985Y-62033793D01*
X130993925Y-61993448D01*
X131072309Y-61951154D01*
X131155749Y-61903035D01*
X131250861Y-61845211D01*
X131364257Y-61773806D01*
X131502551Y-61684943D01*
X131593166Y-61626218D01*
X131832501Y-61474214D01*
X132044101Y-61347688D01*
X132232496Y-61244712D01*
X132402215Y-61163360D01*
X132557789Y-61101703D01*
X132703747Y-61057814D01*
X132844621Y-61029766D01*
X132963394Y-61017801D01*
X132963394Y-53283388D01*
X132715625Y-53248693D01*
X132715000Y-53248555D01*
X132576843Y-53208246D01*
X132413073Y-53144143D01*
X132230611Y-53059536D01*
X132036376Y-52957718D01*
X131837289Y-52841980D01*
X131762500Y-52795477D01*
X131643835Y-52720345D01*
X131504986Y-52632479D01*
X131361561Y-52541752D01*
X131229166Y-52458037D01*
X131202693Y-52441304D01*
X131055935Y-52350905D01*
X130909010Y-52264710D01*
X130767064Y-52185362D01*
X130635242Y-52115508D01*
X130518692Y-52057792D01*
X130422559Y-52014858D01*
X130351989Y-51989353D01*
X130312583Y-51983817D01*
X130296955Y-51983243D01*
X130314246Y-51967484D01*
X130365548Y-51935904D01*
X130451955Y-51887866D01*
X130574557Y-51822732D01*
X130704166Y-51755451D01*
X131003241Y-51607892D01*
X131288977Y-51479941D01*
X131555970Y-51373815D01*
X131798817Y-51291734D01*
X131910666Y-51260097D01*
X132093694Y-51221172D01*
X132285846Y-51196051D01*
X132475450Y-51185337D01*
X132650834Y-51189634D01*
X132800325Y-51209544D01*
X132817138Y-51213284D01*
X133008025Y-51273368D01*
X133191780Y-51363162D01*
X133370503Y-51484589D01*
X133546291Y-51639570D01*
X133721242Y-51830027D01*
X133897455Y-52057883D01*
X134077029Y-52325059D01*
X134137988Y-52423176D01*
X134203304Y-52532080D01*
X134247525Y-52610984D01*
X134273081Y-52665082D01*
X134282397Y-52699571D01*
X134277900Y-52719646D01*
X134277002Y-52720803D01*
X134235120Y-52761101D01*
X134165646Y-52817229D01*
X134077232Y-52883141D01*
X133978528Y-52952792D01*
X133878186Y-53020136D01*
X133784856Y-53079126D01*
X133707191Y-53123716D01*
X133683110Y-53135853D01*
X133445689Y-53227136D01*
X133206267Y-53276259D01*
X132963394Y-53283388D01*
X132963394Y-61017801D01*
X132984939Y-61015630D01*
X133032752Y-61013667D01*
X133257310Y-61026408D01*
X133480488Y-61077456D01*
X133703945Y-61167573D01*
X133929336Y-61297522D01*
X134158319Y-61468066D01*
X134311078Y-61602172D01*
X134436073Y-61718252D01*
X134311078Y-61851617D01*
X134050073Y-62122456D01*
X133807335Y-62358077D01*
X133580567Y-62560264D01*
X133367473Y-62730802D01*
X133165756Y-62871476D01*
X132973121Y-62984071D01*
X132787270Y-63070372D01*
X132702316Y-63102115D01*
X132480203Y-63157360D01*
X132256058Y-63170607D01*
X132256058Y-64516458D01*
X132390509Y-64520079D01*
X132556360Y-64519272D01*
X132720628Y-64513765D01*
X132871536Y-64503860D01*
X132997304Y-64489858D01*
X133042236Y-64482363D01*
X133090051Y-64474064D01*
X133155170Y-64463751D01*
X133168789Y-64461698D01*
X133225444Y-64451888D01*
X133262097Y-64443032D01*
X133266667Y-64441093D01*
X133294608Y-64432248D01*
X133344692Y-64421690D01*
X133347444Y-64421201D01*
X133438194Y-64399323D01*
X133555237Y-64362435D01*
X133687104Y-64314660D01*
X133822325Y-64260121D01*
X133933366Y-64210568D01*
X134241238Y-64042496D01*
X134527397Y-63838806D01*
X134791005Y-63600708D01*
X135031223Y-63329413D01*
X135247214Y-63026131D01*
X135438140Y-62692073D01*
X135603162Y-62328448D01*
X135741443Y-61936468D01*
X135852144Y-61517342D01*
X135876219Y-61404500D01*
X135904985Y-61262928D01*
X135925674Y-61155942D01*
X135938182Y-61076556D01*
X135942406Y-61017781D01*
X135938243Y-60972630D01*
X135925590Y-60934113D01*
X135904345Y-60895244D01*
X135874403Y-60849034D01*
X135867883Y-60839092D01*
X135799193Y-60743704D01*
X135721245Y-60656077D01*
X135629109Y-60572597D01*
X135517855Y-60489647D01*
X135382556Y-60403612D01*
X135218283Y-60310877D01*
X135020107Y-60207825D01*
X134979621Y-60187484D01*
X134788712Y-60090153D01*
X134631482Y-60005553D01*
X134502465Y-59930301D01*
X134396195Y-59861012D01*
X134307207Y-59794302D01*
X134230032Y-59726788D01*
X134220010Y-59717224D01*
X134114087Y-59615128D01*
X134061265Y-59349660D01*
X134039571Y-59237541D01*
X134019851Y-59130026D01*
X134004314Y-59039520D01*
X133995324Y-58979638D01*
X133986052Y-58911899D01*
X133977428Y-58858761D01*
X133974231Y-58843334D01*
X133967310Y-58805160D01*
X133958250Y-58741893D01*
X133952628Y-58697245D01*
X133943649Y-58625876D01*
X133935544Y-58568007D01*
X133932053Y-58546846D01*
X133927031Y-58509284D01*
X133920053Y-58442658D01*
X133912475Y-58360107D01*
X133911078Y-58343685D01*
X133903209Y-58256535D01*
X133895313Y-58179847D01*
X133888926Y-58128369D01*
X133888182Y-58123667D01*
X133877982Y-58037446D01*
X133869560Y-57915647D01*
X133862913Y-57764987D01*
X133858043Y-57592185D01*
X133854946Y-57403959D01*
X133853622Y-57207025D01*
X133854069Y-57008103D01*
X133856287Y-56813910D01*
X133860275Y-56631164D01*
X133866030Y-56466582D01*
X133873553Y-56326882D01*
X133882841Y-56218783D01*
X133888522Y-56176334D01*
X133894935Y-56128047D01*
X133903199Y-56054370D01*
X133910737Y-55979364D01*
X133918684Y-55900695D01*
X133926150Y-55835521D01*
X133931278Y-55799447D01*
X133937090Y-55760401D01*
X133945356Y-55694450D01*
X133953162Y-55626000D01*
X133961711Y-55554042D01*
X133969400Y-55500501D01*
X133974303Y-55477834D01*
X133980606Y-55452221D01*
X133989379Y-55399831D01*
X133993346Y-55372000D01*
X134003719Y-55300352D01*
X134013880Y-55237752D01*
X134016428Y-55223834D01*
X134028195Y-55161983D01*
X134038429Y-55107417D01*
X134048003Y-55059393D01*
X134063994Y-54982686D01*
X134083742Y-54889962D01*
X134095377Y-54836107D01*
X134117159Y-54739919D01*
X134136048Y-54674229D01*
X134157371Y-54628008D01*
X134186452Y-54590227D01*
X134228619Y-54549856D01*
X134237382Y-54542022D01*
X134323601Y-54470811D01*
X134424800Y-54398417D01*
X134546510Y-54321407D01*
X134694261Y-54236349D01*
X134873585Y-54139809D01*
X134948083Y-54100990D01*
X135127150Y-54006773D01*
X135274341Y-53925198D01*
X135396456Y-53851694D01*
X135500295Y-53781693D01*
X135592659Y-53710623D01*
X135680348Y-53633915D01*
X135765518Y-53551657D01*
X135836004Y-53480592D01*
X135888259Y-53423087D01*
X135924856Y-53371024D01*
X135948369Y-53316284D01*
X135961371Y-53250747D01*
X135966438Y-53166294D01*
X135966143Y-53054806D01*
G36*
X122119362Y-56928837D02*
G01*
X122065960Y-56775634D01*
X121977598Y-56636809D01*
X121930435Y-56582009D01*
X121788057Y-56456820D01*
X121627118Y-56369233D01*
X121446611Y-56318850D01*
X121245528Y-56305273D01*
X121232587Y-56305626D01*
X121080805Y-56319619D01*
X120946912Y-56354482D01*
X120809289Y-56415881D01*
X120806645Y-56417264D01*
X120721156Y-56465789D01*
X120655814Y-56514462D01*
X120595987Y-56575885D01*
X120537206Y-56649276D01*
X120465275Y-56773225D01*
X120414508Y-56922848D01*
X120387412Y-57085817D01*
X120386492Y-57249807D01*
X120397827Y-57334792D01*
X120450922Y-57507991D01*
X120538331Y-57659630D01*
X120656448Y-57786965D01*
X120801665Y-57887251D01*
X120970374Y-57957743D01*
X121158968Y-57995697D01*
X121274416Y-58001720D01*
X121473408Y-57983520D01*
X121652209Y-57928329D01*
X121812049Y-57835667D01*
X121904472Y-57756958D01*
X122017308Y-57618622D01*
X122094268Y-57458080D01*
X122135125Y-57275962D01*
X122141314Y-57105133D01*
X122119362Y-56928837D01*
X122119362Y-56928837D01*
G37*
X122119362Y-56928837D02*
X122065960Y-56775634D01*
X121977598Y-56636809D01*
X121930435Y-56582009D01*
X121788057Y-56456820D01*
X121627118Y-56369233D01*
X121446611Y-56318850D01*
X121245528Y-56305273D01*
X121232587Y-56305626D01*
X121080805Y-56319619D01*
X120946912Y-56354482D01*
X120809289Y-56415881D01*
X120806645Y-56417264D01*
X120721156Y-56465789D01*
X120655814Y-56514462D01*
X120595987Y-56575885D01*
X120537206Y-56649276D01*
X120465275Y-56773225D01*
X120414508Y-56922848D01*
X120387412Y-57085817D01*
X120386492Y-57249807D01*
X120397827Y-57334792D01*
X120450922Y-57507991D01*
X120538331Y-57659630D01*
X120656448Y-57786965D01*
X120801665Y-57887251D01*
X120970374Y-57957743D01*
X121158968Y-57995697D01*
X121274416Y-58001720D01*
X121473408Y-57983520D01*
X121652209Y-57928329D01*
X121812049Y-57835667D01*
X121904472Y-57756958D01*
X122017308Y-57618622D01*
X122094268Y-57458080D01*
X122135125Y-57275962D01*
X122141314Y-57105133D01*
X122119362Y-56928837D01*
G36*
X128198506Y-59080109D02*
G01*
X128163794Y-58908977D01*
X128095658Y-58757593D01*
X127994142Y-58622786D01*
X127858386Y-58506210D01*
X127697528Y-58423416D01*
X127512402Y-58374733D01*
X127323255Y-58360349D01*
X127124876Y-58378196D01*
X126945827Y-58430278D01*
X126789337Y-58514404D01*
X126658639Y-58628386D01*
X126556963Y-58770033D01*
X126491472Y-58924063D01*
X126460885Y-59070089D01*
X126451790Y-59229045D01*
X126464191Y-59383556D01*
X126491349Y-59497579D01*
X126567595Y-59659950D01*
X126676094Y-59797550D01*
X126813154Y-59907975D01*
X126975086Y-59988819D01*
X127158200Y-60037677D01*
X127342539Y-60052308D01*
X127538063Y-60033205D01*
X127714762Y-59979173D01*
X127869336Y-59893193D01*
X127998489Y-59778246D01*
X128098922Y-59637314D01*
X128167339Y-59473378D01*
X128200441Y-59289420D01*
X128201349Y-59275890D01*
X128198506Y-59080109D01*
X128198506Y-59080109D01*
G37*
X128198506Y-59080109D02*
X128163794Y-58908977D01*
X128095658Y-58757593D01*
X127994142Y-58622786D01*
X127858386Y-58506210D01*
X127697528Y-58423416D01*
X127512402Y-58374733D01*
X127323255Y-58360349D01*
X127124876Y-58378196D01*
X126945827Y-58430278D01*
X126789337Y-58514404D01*
X126658639Y-58628386D01*
X126556963Y-58770033D01*
X126491472Y-58924063D01*
X126460885Y-59070089D01*
X126451790Y-59229045D01*
X126464191Y-59383556D01*
X126491349Y-59497579D01*
X126567595Y-59659950D01*
X126676094Y-59797550D01*
X126813154Y-59907975D01*
X126975086Y-59988819D01*
X127158200Y-60037677D01*
X127342539Y-60052308D01*
X127538063Y-60033205D01*
X127714762Y-59979173D01*
X127869336Y-59893193D01*
X127998489Y-59778246D01*
X128098922Y-59637314D01*
X128167339Y-59473378D01*
X128200441Y-59289420D01*
X128201349Y-59275890D01*
X128198506Y-59080109D01*
G36*
X128217400Y-55025084D02*
G01*
X128177822Y-54852929D01*
X128103687Y-54701462D01*
X127993646Y-54567087D01*
X127969392Y-54543951D01*
X127825887Y-54439389D01*
X127662649Y-54367325D01*
X127486832Y-54327597D01*
X127305591Y-54320047D01*
X127126080Y-54344516D01*
X126955454Y-54400843D01*
X126800867Y-54488870D01*
X126703147Y-54572157D01*
X126645507Y-54641274D01*
X126587029Y-54728805D01*
X126548042Y-54800500D01*
X126515826Y-54874003D01*
X126495779Y-54938418D01*
X126484729Y-55009200D01*
X126479505Y-55101807D01*
X126478532Y-55139167D01*
X126479653Y-55252904D01*
X126487388Y-55352986D01*
X126500637Y-55425675D01*
X126501762Y-55429446D01*
X126574619Y-55596306D01*
X126680047Y-55739839D01*
X126813408Y-55856905D01*
X126970064Y-55944368D01*
X127145377Y-55999089D01*
X127334710Y-56017930D01*
X127370511Y-56017247D01*
X127492959Y-56009143D01*
X127590952Y-55992566D01*
X127682145Y-55963366D01*
X127773826Y-55922463D01*
X127931400Y-55824318D01*
X128056394Y-55699583D01*
X128147708Y-55549973D01*
X128204238Y-55377207D01*
X128223771Y-55221523D01*
X128217400Y-55025084D01*
X128217400Y-55025084D01*
G37*
X128217400Y-55025084D02*
X128177822Y-54852929D01*
X128103687Y-54701462D01*
X127993646Y-54567087D01*
X127969392Y-54543951D01*
X127825887Y-54439389D01*
X127662649Y-54367325D01*
X127486832Y-54327597D01*
X127305591Y-54320047D01*
X127126080Y-54344516D01*
X126955454Y-54400843D01*
X126800867Y-54488870D01*
X126703147Y-54572157D01*
X126645507Y-54641274D01*
X126587029Y-54728805D01*
X126548042Y-54800500D01*
X126515826Y-54874003D01*
X126495779Y-54938418D01*
X126484729Y-55009200D01*
X126479505Y-55101807D01*
X126478532Y-55139167D01*
X126479653Y-55252904D01*
X126487388Y-55352986D01*
X126500637Y-55425675D01*
X126501762Y-55429446D01*
X126574619Y-55596306D01*
X126680047Y-55739839D01*
X126813408Y-55856905D01*
X126970064Y-55944368D01*
X127145377Y-55999089D01*
X127334710Y-56017930D01*
X127370511Y-56017247D01*
X127492959Y-56009143D01*
X127590952Y-55992566D01*
X127682145Y-55963366D01*
X127773826Y-55922463D01*
X127931400Y-55824318D01*
X128056394Y-55699583D01*
X128147708Y-55549973D01*
X128204238Y-55377207D01*
X128223771Y-55221523D01*
X128217400Y-55025084D01*
M02*
