%TF.GenerationSoftware,KiCad,Pcbnew,(5.1.8)-1*%
%TF.CreationDate,2021-01-16T15:44:13-05:00*%
%TF.ProjectId,uratt,75726174-742e-46b6-9963-61645f706362,rev?*%
%TF.SameCoordinates,Original*%
%TF.FileFunction,Profile,NP*%
%FSLAX46Y46*%
G04 Gerber Fmt 4.6, Leading zero omitted, Abs format (unit mm)*
G04 Created by KiCad (PCBNEW (5.1.8)-1) date 2021-01-16 15:44:13*
%MOMM*%
%LPD*%
G01*
G04 APERTURE LIST*
%TA.AperFunction,Profile*%
%ADD10C,0.100000*%
%TD*%
G04 APERTURE END LIST*
D10*
X80000000Y-94000000D02*
G75*
G02*
X80000000Y-96000000I0J-1000000D01*
G01*
X84000000Y-96000000D02*
G75*
G02*
X84000000Y-94000000I0J1000000D01*
G01*
X55000000Y-94000000D02*
G75*
G02*
X55000000Y-96000000I0J-1000000D01*
G01*
X59000000Y-96000000D02*
G75*
G02*
X59000000Y-94000000I0J1000000D01*
G01*
X28000000Y-94000000D02*
G75*
G02*
X28000000Y-96000000I0J-1000000D01*
G01*
X32000000Y-96000000D02*
G75*
G02*
X32000000Y-94000000I0J1000000D01*
G01*
X87146000Y-102000000D02*
X25146000Y-102000000D01*
X87146000Y-96000000D02*
X87146000Y-102000000D01*
X25146000Y-96000000D02*
X25146000Y-102000000D01*
X84000000Y-94000000D02*
X87146000Y-94000000D01*
X84000000Y-96000000D02*
X87146000Y-96000000D01*
X59000000Y-94000000D02*
X80000000Y-94000000D01*
X59000000Y-96000000D02*
X80000000Y-96000000D01*
X48450000Y-94000000D02*
X55000000Y-94000000D01*
X32000000Y-96000000D02*
X55000000Y-96000000D01*
X32000000Y-94000000D02*
X44450000Y-94000000D01*
X25146000Y-94000000D02*
X28000000Y-94000000D01*
X25146000Y-96000000D02*
X28000000Y-96000000D01*
X58000000Y-20580001D02*
G75*
G02*
X58000000Y-22580001I0J-1000000D01*
G01*
X62000000Y-22580001D02*
G75*
G02*
X62000000Y-20580001I0J1000000D01*
G01*
X62000000Y-20580001D02*
X71000000Y-20580001D01*
X62000000Y-22580001D02*
X71000000Y-22580001D01*
X46000000Y-20580001D02*
G75*
G02*
X46000000Y-22580001I0J-1000000D01*
G01*
X50000000Y-22580001D02*
G75*
G02*
X50000000Y-20580001I0J1000000D01*
G01*
X71000000Y-20580001D02*
G75*
G02*
X71000000Y-22580001I0J-1000000D01*
G01*
X75000000Y-22580001D02*
G75*
G02*
X75000000Y-20580001I0J1000000D01*
G01*
X40145999Y-14580001D02*
X78895999Y-14580001D01*
X78895999Y-20580001D02*
X78895999Y-14580001D01*
X40145999Y-20580001D02*
X40145999Y-14580001D01*
X50000000Y-22580001D02*
X58000000Y-22580001D01*
X75000000Y-22580001D02*
X78896000Y-22580001D01*
X40145999Y-22580001D02*
X46000000Y-22580001D01*
X50000000Y-20580001D02*
X58000000Y-20580001D01*
X40145999Y-20580001D02*
X46000000Y-20580001D01*
X75000000Y-20580001D02*
X78896000Y-20580001D01*
X44450000Y-88000000D02*
G75*
G02*
X48450000Y-88000000I2000000J0D01*
G01*
X48450000Y-94000000D02*
X48450000Y-88000000D01*
X44450000Y-94000000D02*
X44450000Y-94000000D01*
X44450000Y-94000000D02*
X44450000Y-88000000D01*
X83896000Y-73080002D02*
X87146000Y-73080002D01*
X83896000Y-83080002D02*
G75*
G02*
X83896000Y-73080002I0J5000000D01*
G01*
X87146000Y-94000000D02*
X87146000Y-83080001D01*
X25146000Y-75080001D02*
X25146000Y-94000000D01*
X28396000Y-65080001D02*
G75*
G02*
X28396000Y-75080001I0J-5000000D01*
G01*
X87146000Y-42080001D02*
X83896000Y-42080001D01*
X83896000Y-42080002D02*
G75*
G02*
X78896000Y-37080002I0J5000000D01*
G01*
X87146000Y-73080002D02*
X87146000Y-42080001D01*
X87146000Y-83080001D02*
X83896000Y-83080001D01*
X28396000Y-75080001D02*
X25146000Y-75080001D01*
X28395998Y-39080001D02*
G75*
G02*
X28396000Y-49080001I1J-5000000D01*
G01*
X40145999Y-22580001D02*
X25146000Y-37580001D01*
X28396000Y-49080001D02*
X25146000Y-49080001D01*
X25146000Y-39080001D02*
X28396000Y-39080001D01*
X25146000Y-37580001D02*
X25146000Y-39080001D01*
X78896000Y-37080001D02*
X78896000Y-22580001D01*
X25146000Y-65080001D02*
X28396000Y-65080001D01*
X25146000Y-49080001D02*
X25146000Y-65080001D01*
M02*
