<?xml version="1.0" encoding="UTF-8"?>
<!-- Created with Inkscape (http://www.inkscape.org/) -->
<svg width="8.5in" height="11in" version="1.1" viewBox="0 0 215.9 279.4" xmlns="http://www.w3.org/2000/svg">
 <path d="m157.72 99.089v24.084h27.909v-24.084zm22.569 4.0985c0.41992 3e-3 0.8147 0.20056 1.0682 0.53537 0.44947 0.59447 0.33244 1.4407-0.26149 1.8908l-2.4495 1.8552c-0.59473 0.45053-1.4421 0.33344-1.8924-0.26148-0.45053-0.59473-0.33344-1.4421 0.26148-1.8924l2.4495-1.8536c0.23709-0.17959 0.52683-0.27589 0.82424-0.27389zm-16.192 0.0667h1.7756c0.49986 9.6e-4 0.90453 0.40655 0.90434 0.90641 1.8e-4 0.49986-0.40448 0.90544-0.90434 0.9064h-1.4004l-0.96273 0.96067v3.8163l4.7558 4.7542c0.16991 0.16979 0.26544 0.40008 0.26562 0.64027v1.1038c-1e-4 0.50047-0.40594 0.90607-0.90641 0.90589-0.50047 1.9e-4 -0.9063-0.40542-0.9064-0.90589v-0.72864l-4.7537-4.7537c-0.17002-0.16991-0.26557-0.40042-0.26562-0.64079v-4.5666c1.8e-4 -0.2402 0.0957-0.47049 0.26562-0.64028l1.4924-1.4924c0.16979-0.16992 0.40007-0.26544 0.64027-0.26562zm1.7978 0.40928c-0.28055 1e-5 -0.50797 0.22743-0.50798 0.50798 1e-5 0.28055 0.22743 0.50797 0.50798 0.50798 0.28074 2.7e-4 0.50849-0.22724 0.5085-0.50798-1e-5 -0.28074-0.22776-0.50825-0.5085-0.50798zm14.416 0.34727c-0.28074 1e-5 -0.50824 0.22775-0.50797 0.50849 1e-5 0.28055 0.22742 0.50797 0.50797 0.50798 0.28055-1e-5 0.50797-0.22743 0.50798-0.50798 2.7e-4 -0.28074-0.22724-0.50848-0.50798-0.50849zm-10.142 1.0268h5.2e-4c0.74626-4e-3 1.3546 0.59725 1.3586 1.3436l0.0103 1.7518c5e-3 0.74611-0.59592 1.3546-1.342 1.3596-0.74651 5e-3 -1.3551-0.59708-1.3591-1.3436l-6e-3 -0.93586h-2.0262l-0.57206 0.33228c-0.43363 0.25041-0.98817 0.10159-1.2382-0.33228-0.25049-0.4335-0.1019-0.98798 0.33177-1.2382l0.78341-0.45321c0.13784-0.0794 0.29414-0.12109 0.4532-0.12092h2.6924c0.24796-0.23147 0.57392-0.36128 0.91312-0.36328zm0.0264 0.85421c-0.28055 1e-5 -0.50797 0.22743-0.50798 0.50798 1e-5 0.28055 0.22743 0.50797 0.50798 0.50798 0.28055-1e-5 0.50797-0.22743 0.50798-0.50798-1e-5 -0.28055-0.22743-0.50797-0.50798-0.50798zm7.6202 0c-0.28055 1e-5 -0.50797 0.22743-0.50798 0.50798 1e-5 0.28055 0.22743 0.50797 0.50798 0.50798 0.28055-1e-5 0.50797-0.22743 0.50798-0.50798-1e-5 -0.28055-0.22743-0.50797-0.50798-0.50798zm-11.921 0.31161c-0.28055 1e-5 -0.50797 0.22743-0.50798 0.50798 1e-5 0.28055 0.22743 0.50797 0.50798 0.50798 0.28074 2.7e-4 0.50849-0.22724 0.5085-0.50798-1e-5 -0.28074-0.22776-0.50825-0.5085-0.50798zm4.2132 1.6779c-0.28075 1e-5 -0.50826 0.22775-0.50798 0.5085 1e-5 0.28055 0.22743 0.50797 0.50798 0.50798 0.28055-1e-5 0.50797-0.22743 0.50798-0.50798 2.8e-4 -0.28075-0.22723-0.50849-0.50798-0.5085zm-4.132 0.0139c0.3578 0.015 0.695 0.17153 0.93741 0.43512l1.4769 1.6035 1.7146 8e-3c0.344 2e-3 0.67447 0.13421 0.92397 0.37104l0.63097 0.59996c0.26618 0.25218 0.41868 0.60176 0.42168 0.96842l0.0393 4.4571c6e-3 0.7459-0.59407 1.3552-1.34 1.3612-0.7449 6e-3 -1.3542-0.5925-1.3612-1.3374l-0.0336-3.7207-1.5973-8e-3c-0.37601-2e-3 -0.73427-0.16021-0.98857-0.43719l-1.8748-2.0371c-0.50492-0.54909-0.46906-1.4036 0.0801-1.9084 0.26364-0.24231 0.61271-0.37002 0.97048-0.35502zm-0.0811 0.84801c-0.28055 1e-5 -0.50797 0.22743-0.50798 0.50798 1e-5 0.28055 0.22743 0.50797 0.50798 0.50798 0.28074 2.7e-4 0.50849-0.22724 0.5085-0.50798-1e-5 -0.28074-0.22776-0.50825-0.5085-0.50798zm4.2132 1.6784c-0.28055 1e-5 -0.50797 0.22743-0.50798 0.50798 1e-5 0.28055 0.22743 0.50797 0.50798 0.50798 0.28055-1e-5 0.50797-0.22743 0.50798-0.50798-1e-5 -0.28055-0.22743-0.50797-0.50798-0.50798zm5.0731 4.1527h5.1583c0.7459-4.3e-4 1.3509 0.60389 1.3513 1.3498 4.3e-4 0.7465-0.60484 1.3518-1.3513 1.3513h-4.7873l-1.373 0.38499c-0.71839 0.20206-1.4645-0.21681-1.666-0.93535-0.20103-0.71805 0.2179-1.4631 0.93586-1.6645zm-10.161 0.79427c0.52554-8e-5 0.95168 0.42582 0.95188 0.95136 8e-5 0.52574-0.42614 0.95196-0.95188 0.95188-0.52554-2e-4 -0.95145-0.42634-0.95137-0.95188 2e-4 -0.52534 0.42603-0.95116 0.95137-0.95136zm15.291 0.0724c-0.28054 1e-5 -0.50795 0.22743-0.50797 0.50797 1e-5 0.28055 0.22742 0.50797 0.50797 0.50798 0.28055-1e-5 0.50797-0.22743 0.50798-0.50798-2e-5 -0.28054-0.22744-0.50796-0.50798-0.50797zm-15.291 0.37103c-0.28055 1e-5 -0.50797 0.22743-0.50798 0.50798 1e-5 0.28055 0.22743 0.50797 0.50798 0.50798 0.28055-1e-5 0.50796-0.22743 0.50797-0.50798-1e-5 -0.28055-0.22742-0.50797-0.50797-0.50798zm2.543 5.2e-4c-0.28055 1e-5 -0.50797 0.22743-0.50798 0.50798 1e-5 0.28055 0.22743 0.50797 0.50798 0.50798 0.28055-1e-5 0.50797-0.22743 0.50798-0.50798-1e-5 -0.28055-0.22743-0.50797-0.50798-0.50798zm3.175 0c-0.28055 1e-5 -0.50797 0.22743-0.50798 0.50798 1e-5 0.28055 0.22743 0.50797 0.50798 0.50798 0.28055-1e-5 0.50797-0.22743 0.50798-0.50798-1e-5 -0.28055-0.22743-0.50797-0.50798-0.50798zm3.175 0c-0.28055 1e-5 -0.50797 0.22743-0.50798 0.50798 1e-5 0.28055 0.22743 0.50797 0.50798 0.50798 0.28055-1e-5 0.50797-0.22743 0.50798-0.50798-1e-5 -0.28055-0.22743-0.50797-0.50798-0.50798zm-2.898 2.3709c0.23062 0 0.41263 0.0672 0.5457 0.20154 0.13372 0.13502 0.20051 0.31986 0.20051 0.55501 0 0.082-0.01 0.16587-0.03 0.25114-0.0194 0.0859-0.0526 0.17815-0.0997 0.27699h-0.22789v-0.0176c0.0155-0.02 0.0362-0.0486 0.0615-0.0868 0.0252-0.0381 0.0458-0.0758 0.0625-0.11265 0.02-0.0446 0.0367-0.0951 0.0496-0.15193 0.0136-0.0562 0.0202-0.12054 0.0202-0.19224 0-0.1615-0.0521-0.28913-0.15606-0.38344-0.10336-0.0937-0.24313-0.14056-0.42013-0.14056-0.1867 0-0.33215 0.0491-0.43615 0.14728-0.10336 0.0982-0.15503 0.23176-0.15503 0.40101 0 0.062 6e-3 0.12413 0.0181 0.18552 0.0122 0.062 0.0282 0.11624 0.0475 0.16278h0.35398v-0.38706h0.16847v0.57671h-0.61908c-0.0362-0.0788-0.0679-0.16523-0.0951-0.2589-0.0265-0.093-0.0398-0.18306-0.0398-0.27026 0-0.11241 0.0155-0.21537 0.0465-0.30903 0.031-0.0937 0.0775-0.17337 0.13952-0.23926 0.0626-0.0665 0.14092-0.11782 0.23462-0.154 0.0943-0.0362 0.20424-0.0543 0.33021-0.0543zm-4.0985 0.0822h1.4428v0.35863c0 0.0774-5e-3 0.14168-0.0171 0.19327-0.011 0.0516-0.0314 0.0982-0.0605 0.13953-0.033 0.0464-0.0747 0.0827-0.12506 0.10852-0.0498 0.0264-0.11278 0.0393-0.18965 0.0393-0.104 0-0.19106-0.0228-0.26148-0.0692-0.0698-0.0464-0.12262-0.11082-0.15813-0.19224l-0.63097 0.48163v-0.22066l0.57361-0.4284v-0.23978h-0.57361zm6.7081 0h1.4428v0.92139h-0.17053v-0.72967h-0.40669v0.62735h-0.17053v-0.62735h-0.69505zm-5.9743 0.17053v0.17208c0 0.0539 5e-3 0.10043 0.0155 0.14056 0.011 0.0401 0.0309 0.0742 0.0599 0.10232 0.0271 0.0258 0.0581 0.0448 0.093 0.0568 0.0355 0.0126 0.0806 0.0191 0.13488 0.0191 0.0413 0 0.0774-7e-3 0.10903-0.0202 0.0323-0.0126 0.0596-0.0338 0.0816-0.0636 0.0188-0.0247 0.0317-0.0535 0.0388-0.0873 8e-3 -0.0339 0.0119-0.0741 0.0119-0.11989v-0.19999zm5.9743 0.70435 1.4428 0.52555v0.2558l-1.4428 0.52503v-0.20464l0.40256-0.14107v-0.62426l-0.40256-0.14159zm-6.7081 0.19999 1.4428 0.46612v0.22686l-1.4428 0.46612v-0.18138l0.40204-0.12558v-0.55345l-0.40204-0.12557zm7.275 0.19482v0.50643l0.70848-0.2527zm-6.7081 0.15503v0.4501l0.70848-0.22479zm2.8091 0.1142h1.4428v0.29766l-1.1787 0.62373h1.1787v0.17932h-1.4428v-0.23719l1.2904-0.6842h-1.2904zm-2.1038 0.61444h0.17054v2.11h-0.17054v-0.45734h-1.2723v-0.17053h1.2723v-0.85473h-1.2723v-0.17002h1.2723zm5.4358 0.24701h1.4428v0.29714l-1.1782 0.62425h1.1782v0.17932h-1.4428v-0.2372l1.2909-0.68419h-1.2909zm-3.3321 0.62322h1.4428v0.36018c0 0.14083-0.0103 0.25269-0.031 0.33538-0.02 0.0833-0.0482 0.15386-0.0837 0.21136-0.0614 0.0982-0.14294 0.17453-0.24495 0.22944-0.10207 0.0549-0.22311 0.0827-0.36329 0.0827v-5.1e-4c-0.13114 0-0.24998-0.0283-0.35656-0.0858-0.1066-0.0569-0.18926-0.13298-0.24805-0.22789-0.0407-0.0659-0.0702-0.13975-0.0884-0.22117-0.018-0.0808-0.0269-0.18693-0.0269-0.31936zm0.16485 0.19172v0.18035c0 0.0924 7e-3 0.17285 0.0202 0.24133 0.0136 0.0691 0.0392 0.13215 0.076 0.18965 0.0459 0.0717 0.10592 0.12518 0.18087 0.16071 0.0749 0.0362 0.16871 0.0543 0.28112 0.0543 0.11304 0 0.20824-0.0195 0.28577-0.0589 0.0775-0.0394 0.13836-0.098 0.18293-0.17621 0.0323-0.0568 0.0549-0.11741 0.0672-0.18139 0.013-0.0639 0.0191-0.14028 0.0191-0.22944v-0.18035z" fill="#f55" stroke-linecap="round" stroke-linejoin="round" stroke-width="1.8122"/>
</svg>
