<?xml version="1.0" encoding="UTF-8" standalone="no"?>
<!-- Created with Inkscape (http://www.inkscape.org/) -->

<svg
   width="8.5in"
   height="11in"
   viewBox="0 0 215.9 279.4"
   version="1.1"
   id="svg1"
   inkscape:version="1.4.2 (f4327f4, 2025-05-13)"
   sodipodi:docname="UV Activity Buffer.svg"
   xmlns:inkscape="http://www.inkscape.org/namespaces/inkscape"
   xmlns:sodipodi="http://sodipodi.sourceforge.net/DTD/sodipodi-0.dtd"
   xmlns="http://www.w3.org/2000/svg"
   xmlns:svg="http://www.w3.org/2000/svg">
  <sodipodi:namedview
     id="namedview1"
     pagecolor="#ffffff"
     bordercolor="#111111"
     borderopacity="1"
     inkscape:showpageshadow="0"
     inkscape:pageopacity="0"
     inkscape:pagecheckerboard="1"
     inkscape:deskcolor="#d1d1d1"
     inkscape:document-units="mm"
     inkscape:zoom="8.6459874"
     inkscape:cx="349.64196"
     inkscape:cy="226.98391"
     inkscape:window-width="1920"
     inkscape:window-height="1009"
     inkscape:window-x="-8"
     inkscape:window-y="-8"
     inkscape:window-maximized="1"
     inkscape:current-layer="layer1" />
  <defs
     id="defs1" />
  <g
     inkscape:label="Layer 1"
     inkscape:groupmode="layer"
     id="layer1">
    <path
       style="baseline-shift:baseline;display:inline;overflow:visible;vector-effect:none;fill:#00ffff;stroke-linecap:round;stroke-linejoin:round;enable-background:accumulate;stop-color:#000000;stop-opacity:1;opacity:1;stroke:none"
       d="m 89.939213,67.519393 a 1.3505549,1.3505549 0 0 0 -1.351339,1.349788 1.3505549,1.3505549 0 0 0 1.351339,1.351339 h 4.787305 l 1.373043,0.384989 a 1.3505549,1.3505549 0 0 0 1.666048,-0.935343 1.3505549,1.3505549 0 0 0 -0.935344,-1.664498 l -1.73271,-0.486275 z"
       id="path76" />
    <path
       style="baseline-shift:baseline;display:inline;overflow:visible;vector-effect:none;fill:#00ffff;stroke-linecap:round;stroke-linejoin:round;enable-background:accumulate;stop-color:#000000;stop-opacity:1;opacity:1;stroke:none"
       d="m 104.30268,60.840214 a 1.3505549,1.3505549 0 0 0 -0.93741,0.435116 l -1.4764,1.603519 -1.71514,0.0078 a 1.35069,1.35069 0 0 0 -0.923974,0.371037 l -0.630453,0.599963 a 1.35069,1.35069 0 0 0 -0.422196,0.968416 l -0.03876,4.457093 a 1.3505549,1.3505549 0 0 0 1.339453,1.361674 1.3505549,1.3505549 0 0 0 1.361677,-1.337903 l 0.0331,-3.720703 1.59783,-0.0083 a 1.35069,1.35069 0 0 0 0.98599,-0.437182 l 1.87534,-2.037085 a 1.3505549,1.3505549 0 0 0 -0.078,-1.908411 1.3505549,1.3505549 0 0 0 -0.971,-0.355017 z"
       id="path74" />
    <path
       style="baseline-shift:baseline;display:inline;overflow:visible;vector-effect:none;fill:#00ffff;stroke-linecap:round;stroke-linejoin:round;enable-background:accumulate;stop-color:#000000;stop-opacity:1;opacity:1;stroke:none"
       d="m 100.10913,57.982507 a 1.3505501,1.3505501 0 0 0 -1.359085,1.343588 l -0.0098,1.751831 a 1.3505501,1.3505501 0 0 0 1.341524,1.359607 1.3505501,1.3505501 0 0 0 1.3596,-1.343588 l 0.005,-0.93586 h 2.02623 l 0.57206,0.33228 a 0.906075,0.906075 0 0 0 1.23817,-0.33228 0.906075,0.906075 0 0 0 -0.33176,-1.238167 l -0.78342,-0.453203 a 0.90616561,0.90616561 0 0 0 -0.4532,-0.120922 h -2.69234 a 1.3505501,1.3505501 0 0 0 -0.91261,-0.363286 z"
       id="path72" />
    <path
       style="baseline-shift:baseline;display:inline;overflow:visible;vector-effect:none;fill:#00ffff;stroke-linecap:round;stroke-linejoin:round;enable-background:accumulate;stop-color:#000000;stop-opacity:1;opacity:1;stroke:none"
       d="m 104.40603,56.199154 a 0.906075,0.906075 0 0 0 -0.90434,0.906404 0.906075,0.906075 0 0 0 0.90434,0.906405 h 1.40043 l 0.96118,0.960665 v 3.816304 l -4.75371,4.754232 a 0.90616561,0.90616561 0 0 0 -0.26614,0.640271 v 1.103809 a 0.906075,0.906075 0 0 0 0.90641,0.905888 0.906075,0.906075 0 0 0 0.9064,-0.905888 v -0.728638 l 4.75372,-4.753715 a 0.90616561,0.90616561 0 0 0 0.26562,-0.640788 v -4.566646 a 0.90616561,0.90616561 0 0 0 -0.26562,-0.640271 l -1.4919,-1.492415 a 0.90616561,0.90616561 0 0 0 -0.64079,-0.265617 z"
       id="path70" />
    <path
       style="baseline-shift:baseline;display:inline;overflow:visible;vector-effect:none;fill:#00ffff;stroke-linecap:round;stroke-linejoin:round;enable-background:accumulate;stop-color:#000000;stop-opacity:1;opacity:1;stroke:none"
       d="m 89.990373,56.132491 a 1.3505501,1.3505501 0 0 0 -1.068669,0.535368 1.3505501,1.3505501 0 0 0 0.262,1.890841 l 2.448946,1.855183 a 1.3505501,1.3505501 0 0 0 1.892907,-0.261482 1.3505501,1.3505501 0 0 0 -0.261999,-1.892391 l -2.448946,-1.853634 a 1.3505501,1.3505501 0 0 0 -0.824239,-0.273885 z"
       id="path42" />
    <circle
       style="fill:#808080;stroke:none;stroke-width:0.0613321"
       id="circle5"
       cx="-105.89027"
       cy="-69.265335"
       r="0.50800002"
       transform="scale(-1)" />
    <circle
       style="fill:#808080;stroke:none;stroke-width:0.0613321"
       id="circle6"
       cx="-102.71527"
       cy="-69.265335"
       r="0.50800002"
       transform="scale(-1)" />
    <circle
       style="fill:#808080;stroke:none;stroke-width:0.0613321"
       id="circle7"
       cx="-99.540268"
       cy="-69.265335"
       r="0.50800002"
       transform="scale(-1)" />
    <circle
       style="fill:#808080;stroke:none;stroke-width:0.0613321"
       id="circle8"
       cx="-96.365265"
       cy="-69.265335"
       r="0.50800002"
       transform="scale(-1)" />
    <g
       id="g35">
      <g
         id="g3"
         transform="translate(-20.442045,-0.36722237)">
        <circle
           style="fill:#808080;stroke:none;stroke-width:0.0613321"
           id="circle2"
           cx="112.9054"
           cy="59.711716"
           r="0.50800002" />
        <circle
           style="fill:#808080;stroke:none;stroke-width:0.0613321"
           id="circle3"
           cx="120.52541"
           cy="59.711716"
           r="0.50800002" />
      </g>
      <g
         id="g21">
        <text
           xml:space="preserve"
           style="font-size:1.33653px;text-align:start;writing-mode:lr-tb;direction:ltr;text-anchor:start;fill:#ff0000;stroke:none;stroke-width:0.35192"
           x="94.013527"
           y="59.750782"
           id="text20"><tspan
             sodipodi:role="line"
             id="tspan20"
             style="fill:#ff0000;stroke-width:0.351919"
             x="94.013527"
             y="59.750782">DIODE</tspan></text>
        <path
           style="fill:none;stroke:#ff0000;stroke-width:0.25244654"
           d="m 92.494133,59.352314 h 1.208773"
           id="path20" />
        <path
           style="fill:none;stroke:#ff0000;stroke-width:0.252447"
           d="m 98.971042,59.352314 h 1.208778"
           id="path21" />
      </g>
    </g>
    <g
       id="g36">
      <g
         id="g19"
         transform="translate(-7.6780563,-7.6189634)">
        <circle
           style="fill:#808080;stroke:none;stroke-width:0.0613321"
           id="circle15"
           cx="107.84866"
           cy="68.953476"
           r="0.50800002" />
        <circle
           style="fill:#808080;stroke:none;stroke-width:0.0613321"
           id="circle19"
           cx="107.84866"
           cy="71.493477"
           r="0.50800002" />
      </g>
      <g
         id="g26"
         transform="matrix(0,0.72648842,-0.72648842,0,145.90126,-14.971661)">
        <g
           id="g25"
           transform="translate(13.877945,-11.781718)">
          <text
             xml:space="preserve"
             style="font-size:1.33653px;text-align:start;writing-mode:lr-tb;direction:ltr;text-anchor:start;fill:#ff0000;stroke:none;stroke-width:0.35192"
             x="92.412254"
             y="75.114319"
             id="text23"><tspan
               sodipodi:role="line"
               id="tspan23"
               style="fill:#ff0000;stroke-width:0.351919"
               x="92.412254"
               y="75.114319">C</tspan></text>
          <path
             style="fill:none;stroke:#ff0000;stroke-width:0.252447"
             d="m 90.892863,74.715852 h 1.208773"
             id="path24" />
          <path
             style="fill:none;stroke:#ff0000;stroke-width:0.252447"
             d="m 93.66049,74.715852 h 1.208778"
             id="path25" />
        </g>
      </g>
    </g>
    <text
       xml:space="preserve"
       style="font-size:0.666738px;text-align:start;writing-mode:lr-tb;direction:ltr;text-anchor:start;fill:#ff0000;stroke:none;stroke-width:0.175558"
       x="99.511887"
       y="65.465988"
       id="text30"><tspan
         sodipodi:role="line"
         id="tspan30"
         style="fill:#ff0000;stroke-width:0.175557"
         x="99.511887"
         y="65.465988">GND</tspan></text>
    <g
       id="g14"
       transform="translate(-10.970317,-13.223081)">
      <circle
         style="fill:#808080;stroke:none;stroke-width:0.0613321"
         id="circle12"
         cx="115.35395"
         cy="70.339493"
         r="0.50800002" />
      <circle
         style="fill:#808080;stroke:none;stroke-width:0.0613321"
         id="circle13"
         cx="115.35395"
         cy="72.879494"
         r="0.50800002" />
      <circle
         style="fill:#808080;stroke:none;stroke-width:0.0613321"
         id="circle14"
         cx="115.35395"
         cy="75.419495"
         r="0.50800002" />
    </g>
    <g
       id="g29"
       transform="translate(-0.25966543,0.302943)">
      <text
         xml:space="preserve"
         style="font-size:0.970974px;text-align:start;writing-mode:lr-tb;direction:ltr;text-anchor:start;fill:#ff0000;stroke:none;stroke-width:0.255666"
         x="56.794502"
         y="-105.22678"
         id="text26"
         transform="rotate(90)"><tspan
           sodipodi:role="line"
           id="tspan26"
           style="fill:#ff0000;stroke-width:0.255665"
           x="56.794502"
           y="-105.22678">C</tspan></text>
      <text
         xml:space="preserve"
         style="font-size:0.970974px;text-align:start;writing-mode:lr-tb;direction:ltr;text-anchor:start;fill:#ff0000;stroke:none;stroke-width:0.255666"
         x="61.619953"
         y="-105.22678"
         id="text28"
         transform="rotate(90)"><tspan
           sodipodi:role="line"
           id="tspan28"
           style="fill:#ff0000;stroke-width:0.255665"
           x="61.619953"
           y="-105.22678">E</tspan></text>
      <text
         xml:space="preserve"
         style="font-size:0.970974px;text-align:start;writing-mode:lr-tb;direction:ltr;text-anchor:start;fill:#ff0000;stroke:none;stroke-width:0.255666"
         x="59.066578"
         y="-105.22678"
         id="text29"
         transform="rotate(90)"><tspan
           sodipodi:role="line"
           id="tspan29"
           style="fill:#ff0000;stroke-width:0.255665"
           x="59.066578"
           y="-105.22678">B</tspan></text>
    </g>
    <text
       xml:space="preserve"
       style="font-size:0.666738px;text-align:start;writing-mode:lr-tb;direction:ltr;text-anchor:start;fill:#ff0000;stroke:none;stroke-width:0.175558"
       x="103.77473"
       y="63.496861"
       id="text32"><tspan
         sodipodi:role="line"
         id="tspan32"
         style="fill:#ff0000;stroke-width:0.175557"
         x="103.77473"
         y="63.496861">GND</tspan></text>
    <text
       xml:space="preserve"
       style="font-size:0.666738px;text-align:start;writing-mode:lr-tb;direction:ltr;text-anchor:start;fill:#ff0000;stroke:none;stroke-width:0.175558"
       x="70.168282"
       y="-102.58781"
       id="text33"
       transform="rotate(90)"><tspan
         sodipodi:role="line"
         id="tspan33"
         style="fill:#ff0000;stroke-width:0.175557"
         x="70.168282"
         y="-102.58781">+Optout</tspan></text>
    <g
       id="g34"
       transform="rotate(-90,86.970371,56.408138)">
      <g
         id="g4"
         transform="translate(-19.156767,-0.30601864)">
        <circle
           style="fill:#808080;stroke:none;stroke-width:0.0613321"
           id="path1"
           cx="93.641327"
           cy="59.711716"
           r="0.50800002" />
        <circle
           style="fill:#808080;stroke:none;stroke-width:0.0613321"
           id="circle1"
           cx="105.07133"
           cy="59.711716"
           r="0.50800002" />
      </g>
      <g
         id="g23"
         transform="matrix(1.3549857,0,0,1,-50.335668,0)">
        <text
           xml:space="preserve"
           style="font-size:1.33653px;text-align:start;writing-mode:lr-tb;direction:ltr;text-anchor:start;fill:#ff0000;stroke:none;stroke-width:0.35192"
           x="94.013527"
           y="59.750782"
           id="text21"><tspan
             sodipodi:role="line"
             id="tspan21"
             style="fill:#ff0000;stroke-width:0.351919"
             x="94.013527"
             y="59.750782">RES</tspan></text>
        <path
           style="fill:none;stroke:#ff0000;stroke-width:0.252447"
           d="m 92.494133,59.352314 h 1.208773"
           id="path22" />
        <path
           style="fill:none;stroke:#ff0000;stroke-width:0.252447"
           d="m 98.971042,59.352314 h 1.208778"
           id="path23" />
      </g>
      <text
         xml:space="preserve"
         style="font-size:0.666738px;text-align:start;writing-mode:lr-tb;direction:ltr;text-anchor:start;fill:#ff0000;stroke:none;stroke-width:0.175558"
         x="73.74511"
         y="60.936909"
         id="text34"><tspan
           sodipodi:role="line"
           id="tspan34"
           style="fill:#ff0000;stroke-width:0.175557"
           x="73.74511"
           y="60.936909">Fan In</tspan></text>
    </g>
  </g>
</svg>
