%TF.GenerationSoftware,KiCad,Pcbnew,(5.1.8)-1*%
%TF.CreationDate,2021-01-16T15:49:20-05:00*%
%TF.ProjectId,uratt_fp,75726174-745f-4667-902e-6b696361645f,rev?*%
%TF.SameCoordinates,Original*%
%TF.FileFunction,Soldermask,Bot*%
%TF.FilePolarity,Negative*%
%FSLAX46Y46*%
G04 Gerber Fmt 4.6, Leading zero omitted, Abs format (unit mm)*
G04 Created by KiCad (PCBNEW (5.1.8)-1) date 2021-01-16 15:49:20*
%MOMM*%
%LPD*%
G01*
G04 APERTURE LIST*
%ADD10R,2.900000X1.400000*%
%ADD11R,1.600000X0.400000*%
%ADD12C,1.508000*%
%ADD13C,3.000000*%
%ADD14C,0.350000*%
%ADD15R,3.000000X0.500000*%
%ADD16R,0.800000X0.900000*%
%ADD17R,0.900000X0.800000*%
%ADD18C,2.100000*%
G04 APERTURE END LIST*
D10*
%TO.C,J101*%
X67250000Y-128152000D03*
X67250000Y-137052000D03*
D11*
X68450000Y-129852000D03*
X66050000Y-130352000D03*
X68450000Y-130852000D03*
X66050000Y-131352000D03*
X68450000Y-131852000D03*
X66050000Y-132352000D03*
X68450000Y-132852000D03*
X66050000Y-133352000D03*
X68450000Y-133852000D03*
X66050000Y-134352000D03*
X68450000Y-134852000D03*
X66050000Y-135352000D03*
%TD*%
D12*
%TO.C,LS101*%
X74950000Y-137500000D03*
X82550000Y-137500000D03*
%TD*%
%TO.C,C104*%
G36*
G01*
X59550000Y-128950000D02*
X59550000Y-130050000D01*
G75*
G02*
X59300000Y-130300000I-250000J0D01*
G01*
X56800000Y-130300000D01*
G75*
G02*
X56550000Y-130050000I0J250000D01*
G01*
X56550000Y-128950000D01*
G75*
G02*
X56800000Y-128700000I250000J0D01*
G01*
X59300000Y-128700000D01*
G75*
G02*
X59550000Y-128950000I0J-250000D01*
G01*
G37*
G36*
G01*
X63950000Y-128950000D02*
X63950000Y-130050000D01*
G75*
G02*
X63700000Y-130300000I-250000J0D01*
G01*
X61200000Y-130300000D01*
G75*
G02*
X60950000Y-130050000I0J250000D01*
G01*
X60950000Y-128950000D01*
G75*
G02*
X61200000Y-128700000I250000J0D01*
G01*
X63700000Y-128700000D01*
G75*
G02*
X63950000Y-128950000I0J-250000D01*
G01*
G37*
%TD*%
D13*
%TO.C,FID8*%
X84250000Y-122250000D03*
%TD*%
%TO.C,FID7*%
X40250000Y-122250000D03*
%TD*%
%TO.C,FID4*%
X84250000Y-154500000D03*
%TD*%
%TO.C,FID3*%
X40250000Y-154500000D03*
%TD*%
D14*
%TO.C,BK6*%
X80146000Y-126380000D03*
X79396000Y-126380000D03*
X80896000Y-126380000D03*
%TD*%
%TO.C,BK5*%
X62146000Y-126380000D03*
X61396000Y-126380000D03*
X62896000Y-126380000D03*
%TD*%
%TO.C,BK4*%
X44146000Y-126380000D03*
X43396000Y-126380000D03*
X44896000Y-126380000D03*
%TD*%
%TO.C,BK3*%
X80146000Y-150380000D03*
X80896000Y-150380000D03*
X79396000Y-150380000D03*
%TD*%
%TO.C,BK2*%
X62146000Y-150380000D03*
X62896000Y-150380000D03*
X61396000Y-150380000D03*
%TD*%
%TO.C,BK1*%
X44146000Y-150380000D03*
X44896000Y-150380000D03*
X43396000Y-150380000D03*
%TD*%
D15*
%TO.C,LCD101*%
X54737000Y-134192000D03*
X54737000Y-134892000D03*
X54737000Y-135592000D03*
X54737000Y-136292000D03*
X54737000Y-136992000D03*
X54737000Y-137692000D03*
X54737000Y-138392000D03*
X54737000Y-139092000D03*
X54737000Y-139792000D03*
X54737000Y-140492000D03*
X54737000Y-141192000D03*
X54737000Y-141892000D03*
X54737000Y-142592000D03*
%TD*%
%TO.C,R113*%
G36*
G01*
X67925000Y-139775000D02*
X67925000Y-139225000D01*
G75*
G02*
X68125000Y-139025000I200000J0D01*
G01*
X68525000Y-139025000D01*
G75*
G02*
X68725000Y-139225000I0J-200000D01*
G01*
X68725000Y-139775000D01*
G75*
G02*
X68525000Y-139975000I-200000J0D01*
G01*
X68125000Y-139975000D01*
G75*
G02*
X67925000Y-139775000I0J200000D01*
G01*
G37*
G36*
G01*
X66275000Y-139775000D02*
X66275000Y-139225000D01*
G75*
G02*
X66475000Y-139025000I200000J0D01*
G01*
X66875000Y-139025000D01*
G75*
G02*
X67075000Y-139225000I0J-200000D01*
G01*
X67075000Y-139775000D01*
G75*
G02*
X66875000Y-139975000I-200000J0D01*
G01*
X66475000Y-139975000D01*
G75*
G02*
X66275000Y-139775000I0J200000D01*
G01*
G37*
%TD*%
%TO.C,R112*%
G36*
G01*
X66825000Y-145975000D02*
X66825000Y-146525000D01*
G75*
G02*
X66625000Y-146725000I-200000J0D01*
G01*
X66225000Y-146725000D01*
G75*
G02*
X66025000Y-146525000I0J200000D01*
G01*
X66025000Y-145975000D01*
G75*
G02*
X66225000Y-145775000I200000J0D01*
G01*
X66625000Y-145775000D01*
G75*
G02*
X66825000Y-145975000I0J-200000D01*
G01*
G37*
G36*
G01*
X68475000Y-145975000D02*
X68475000Y-146525000D01*
G75*
G02*
X68275000Y-146725000I-200000J0D01*
G01*
X67875000Y-146725000D01*
G75*
G02*
X67675000Y-146525000I0J200000D01*
G01*
X67675000Y-145975000D01*
G75*
G02*
X67875000Y-145775000I200000J0D01*
G01*
X68275000Y-145775000D01*
G75*
G02*
X68475000Y-145975000I0J-200000D01*
G01*
G37*
%TD*%
%TO.C,R111*%
G36*
G01*
X67925000Y-141275000D02*
X67925000Y-140725000D01*
G75*
G02*
X68125000Y-140525000I200000J0D01*
G01*
X68525000Y-140525000D01*
G75*
G02*
X68725000Y-140725000I0J-200000D01*
G01*
X68725000Y-141275000D01*
G75*
G02*
X68525000Y-141475000I-200000J0D01*
G01*
X68125000Y-141475000D01*
G75*
G02*
X67925000Y-141275000I0J200000D01*
G01*
G37*
G36*
G01*
X66275000Y-141275000D02*
X66275000Y-140725000D01*
G75*
G02*
X66475000Y-140525000I200000J0D01*
G01*
X66875000Y-140525000D01*
G75*
G02*
X67075000Y-140725000I0J-200000D01*
G01*
X67075000Y-141275000D01*
G75*
G02*
X66875000Y-141475000I-200000J0D01*
G01*
X66475000Y-141475000D01*
G75*
G02*
X66275000Y-141275000I0J200000D01*
G01*
G37*
%TD*%
%TO.C,R110*%
G36*
G01*
X54925000Y-131275000D02*
X54925000Y-130725000D01*
G75*
G02*
X55125000Y-130525000I200000J0D01*
G01*
X55525000Y-130525000D01*
G75*
G02*
X55725000Y-130725000I0J-200000D01*
G01*
X55725000Y-131275000D01*
G75*
G02*
X55525000Y-131475000I-200000J0D01*
G01*
X55125000Y-131475000D01*
G75*
G02*
X54925000Y-131275000I0J200000D01*
G01*
G37*
G36*
G01*
X53275000Y-131275000D02*
X53275000Y-130725000D01*
G75*
G02*
X53475000Y-130525000I200000J0D01*
G01*
X53875000Y-130525000D01*
G75*
G02*
X54075000Y-130725000I0J-200000D01*
G01*
X54075000Y-131275000D01*
G75*
G02*
X53875000Y-131475000I-200000J0D01*
G01*
X53475000Y-131475000D01*
G75*
G02*
X53275000Y-131275000I0J200000D01*
G01*
G37*
%TD*%
%TO.C,R109*%
G36*
G01*
X60425000Y-146025000D02*
X60425000Y-145475000D01*
G75*
G02*
X60625000Y-145275000I200000J0D01*
G01*
X61025000Y-145275000D01*
G75*
G02*
X61225000Y-145475000I0J-200000D01*
G01*
X61225000Y-146025000D01*
G75*
G02*
X61025000Y-146225000I-200000J0D01*
G01*
X60625000Y-146225000D01*
G75*
G02*
X60425000Y-146025000I0J200000D01*
G01*
G37*
G36*
G01*
X58775000Y-146025000D02*
X58775000Y-145475000D01*
G75*
G02*
X58975000Y-145275000I200000J0D01*
G01*
X59375000Y-145275000D01*
G75*
G02*
X59575000Y-145475000I0J-200000D01*
G01*
X59575000Y-146025000D01*
G75*
G02*
X59375000Y-146225000I-200000J0D01*
G01*
X58975000Y-146225000D01*
G75*
G02*
X58775000Y-146025000I0J200000D01*
G01*
G37*
%TD*%
%TO.C,R108*%
G36*
G01*
X60425000Y-142525000D02*
X60425000Y-141975000D01*
G75*
G02*
X60625000Y-141775000I200000J0D01*
G01*
X61025000Y-141775000D01*
G75*
G02*
X61225000Y-141975000I0J-200000D01*
G01*
X61225000Y-142525000D01*
G75*
G02*
X61025000Y-142725000I-200000J0D01*
G01*
X60625000Y-142725000D01*
G75*
G02*
X60425000Y-142525000I0J200000D01*
G01*
G37*
G36*
G01*
X58775000Y-142525000D02*
X58775000Y-141975000D01*
G75*
G02*
X58975000Y-141775000I200000J0D01*
G01*
X59375000Y-141775000D01*
G75*
G02*
X59575000Y-141975000I0J-200000D01*
G01*
X59575000Y-142525000D01*
G75*
G02*
X59375000Y-142725000I-200000J0D01*
G01*
X58975000Y-142725000D01*
G75*
G02*
X58775000Y-142525000I0J200000D01*
G01*
G37*
%TD*%
%TO.C,R107*%
G36*
G01*
X60425000Y-139525000D02*
X60425000Y-138975000D01*
G75*
G02*
X60625000Y-138775000I200000J0D01*
G01*
X61025000Y-138775000D01*
G75*
G02*
X61225000Y-138975000I0J-200000D01*
G01*
X61225000Y-139525000D01*
G75*
G02*
X61025000Y-139725000I-200000J0D01*
G01*
X60625000Y-139725000D01*
G75*
G02*
X60425000Y-139525000I0J200000D01*
G01*
G37*
G36*
G01*
X58775000Y-139525000D02*
X58775000Y-138975000D01*
G75*
G02*
X58975000Y-138775000I200000J0D01*
G01*
X59375000Y-138775000D01*
G75*
G02*
X59575000Y-138975000I0J-200000D01*
G01*
X59575000Y-139525000D01*
G75*
G02*
X59375000Y-139725000I-200000J0D01*
G01*
X58975000Y-139725000D01*
G75*
G02*
X58775000Y-139525000I0J200000D01*
G01*
G37*
%TD*%
%TO.C,R106*%
G36*
G01*
X60425000Y-144275000D02*
X60425000Y-143725000D01*
G75*
G02*
X60625000Y-143525000I200000J0D01*
G01*
X61025000Y-143525000D01*
G75*
G02*
X61225000Y-143725000I0J-200000D01*
G01*
X61225000Y-144275000D01*
G75*
G02*
X61025000Y-144475000I-200000J0D01*
G01*
X60625000Y-144475000D01*
G75*
G02*
X60425000Y-144275000I0J200000D01*
G01*
G37*
G36*
G01*
X58775000Y-144275000D02*
X58775000Y-143725000D01*
G75*
G02*
X58975000Y-143525000I200000J0D01*
G01*
X59375000Y-143525000D01*
G75*
G02*
X59575000Y-143725000I0J-200000D01*
G01*
X59575000Y-144275000D01*
G75*
G02*
X59375000Y-144475000I-200000J0D01*
G01*
X58975000Y-144475000D01*
G75*
G02*
X58775000Y-144275000I0J200000D01*
G01*
G37*
%TD*%
%TO.C,R105*%
G36*
G01*
X60425000Y-141025000D02*
X60425000Y-140475000D01*
G75*
G02*
X60625000Y-140275000I200000J0D01*
G01*
X61025000Y-140275000D01*
G75*
G02*
X61225000Y-140475000I0J-200000D01*
G01*
X61225000Y-141025000D01*
G75*
G02*
X61025000Y-141225000I-200000J0D01*
G01*
X60625000Y-141225000D01*
G75*
G02*
X60425000Y-141025000I0J200000D01*
G01*
G37*
G36*
G01*
X58775000Y-141025000D02*
X58775000Y-140475000D01*
G75*
G02*
X58975000Y-140275000I200000J0D01*
G01*
X59375000Y-140275000D01*
G75*
G02*
X59575000Y-140475000I0J-200000D01*
G01*
X59575000Y-141025000D01*
G75*
G02*
X59375000Y-141225000I-200000J0D01*
G01*
X58975000Y-141225000D01*
G75*
G02*
X58775000Y-141025000I0J200000D01*
G01*
G37*
%TD*%
%TO.C,R104*%
G36*
G01*
X54075000Y-127725000D02*
X54075000Y-128275000D01*
G75*
G02*
X53875000Y-128475000I-200000J0D01*
G01*
X53475000Y-128475000D01*
G75*
G02*
X53275000Y-128275000I0J200000D01*
G01*
X53275000Y-127725000D01*
G75*
G02*
X53475000Y-127525000I200000J0D01*
G01*
X53875000Y-127525000D01*
G75*
G02*
X54075000Y-127725000I0J-200000D01*
G01*
G37*
G36*
G01*
X55725000Y-127725000D02*
X55725000Y-128275000D01*
G75*
G02*
X55525000Y-128475000I-200000J0D01*
G01*
X55125000Y-128475000D01*
G75*
G02*
X54925000Y-128275000I0J200000D01*
G01*
X54925000Y-127725000D01*
G75*
G02*
X55125000Y-127525000I200000J0D01*
G01*
X55525000Y-127525000D01*
G75*
G02*
X55725000Y-127725000I0J-200000D01*
G01*
G37*
%TD*%
%TO.C,R103*%
G36*
G01*
X54925000Y-129775000D02*
X54925000Y-129225000D01*
G75*
G02*
X55125000Y-129025000I200000J0D01*
G01*
X55525000Y-129025000D01*
G75*
G02*
X55725000Y-129225000I0J-200000D01*
G01*
X55725000Y-129775000D01*
G75*
G02*
X55525000Y-129975000I-200000J0D01*
G01*
X55125000Y-129975000D01*
G75*
G02*
X54925000Y-129775000I0J200000D01*
G01*
G37*
G36*
G01*
X53275000Y-129775000D02*
X53275000Y-129225000D01*
G75*
G02*
X53475000Y-129025000I200000J0D01*
G01*
X53875000Y-129025000D01*
G75*
G02*
X54075000Y-129225000I0J-200000D01*
G01*
X54075000Y-129775000D01*
G75*
G02*
X53875000Y-129975000I-200000J0D01*
G01*
X53475000Y-129975000D01*
G75*
G02*
X53275000Y-129775000I0J200000D01*
G01*
G37*
%TD*%
%TO.C,R102*%
G36*
G01*
X75825000Y-146975000D02*
X75825000Y-147525000D01*
G75*
G02*
X75625000Y-147725000I-200000J0D01*
G01*
X75225000Y-147725000D01*
G75*
G02*
X75025000Y-147525000I0J200000D01*
G01*
X75025000Y-146975000D01*
G75*
G02*
X75225000Y-146775000I200000J0D01*
G01*
X75625000Y-146775000D01*
G75*
G02*
X75825000Y-146975000I0J-200000D01*
G01*
G37*
G36*
G01*
X77475000Y-146975000D02*
X77475000Y-147525000D01*
G75*
G02*
X77275000Y-147725000I-200000J0D01*
G01*
X76875000Y-147725000D01*
G75*
G02*
X76675000Y-147525000I0J200000D01*
G01*
X76675000Y-146975000D01*
G75*
G02*
X76875000Y-146775000I200000J0D01*
G01*
X77275000Y-146775000D01*
G75*
G02*
X77475000Y-146975000I0J-200000D01*
G01*
G37*
%TD*%
%TO.C,R101*%
G36*
G01*
X76675000Y-149275000D02*
X76675000Y-148725000D01*
G75*
G02*
X76875000Y-148525000I200000J0D01*
G01*
X77275000Y-148525000D01*
G75*
G02*
X77475000Y-148725000I0J-200000D01*
G01*
X77475000Y-149275000D01*
G75*
G02*
X77275000Y-149475000I-200000J0D01*
G01*
X76875000Y-149475000D01*
G75*
G02*
X76675000Y-149275000I0J200000D01*
G01*
G37*
G36*
G01*
X75025000Y-149275000D02*
X75025000Y-148725000D01*
G75*
G02*
X75225000Y-148525000I200000J0D01*
G01*
X75625000Y-148525000D01*
G75*
G02*
X75825000Y-148725000I0J-200000D01*
G01*
X75825000Y-149275000D01*
G75*
G02*
X75625000Y-149475000I-200000J0D01*
G01*
X75225000Y-149475000D01*
G75*
G02*
X75025000Y-149275000I0J200000D01*
G01*
G37*
%TD*%
D16*
%TO.C,Q102*%
X67500000Y-142500000D03*
X66550000Y-144500000D03*
X68450000Y-144500000D03*
%TD*%
D17*
%TO.C,Q101*%
X47500000Y-129750000D03*
X45500000Y-128800000D03*
X45500000Y-130700000D03*
%TD*%
D18*
%TO.C,H104*%
X39646000Y-147880000D03*
%TD*%
%TO.C,H103*%
X84646000Y-147880000D03*
%TD*%
%TO.C,H102*%
X39646000Y-128880000D03*
%TD*%
%TO.C,H101*%
X84646000Y-128880000D03*
%TD*%
%TO.C,C103*%
G36*
G01*
X59750000Y-135175000D02*
X59250000Y-135175000D01*
G75*
G02*
X59025000Y-134950000I0J225000D01*
G01*
X59025000Y-134500000D01*
G75*
G02*
X59250000Y-134275000I225000J0D01*
G01*
X59750000Y-134275000D01*
G75*
G02*
X59975000Y-134500000I0J-225000D01*
G01*
X59975000Y-134950000D01*
G75*
G02*
X59750000Y-135175000I-225000J0D01*
G01*
G37*
G36*
G01*
X59750000Y-136725000D02*
X59250000Y-136725000D01*
G75*
G02*
X59025000Y-136500000I0J225000D01*
G01*
X59025000Y-136050000D01*
G75*
G02*
X59250000Y-135825000I225000J0D01*
G01*
X59750000Y-135825000D01*
G75*
G02*
X59975000Y-136050000I0J-225000D01*
G01*
X59975000Y-136500000D01*
G75*
G02*
X59750000Y-136725000I-225000J0D01*
G01*
G37*
%TD*%
%TO.C,C102*%
G36*
G01*
X58000000Y-135175000D02*
X57500000Y-135175000D01*
G75*
G02*
X57275000Y-134950000I0J225000D01*
G01*
X57275000Y-134500000D01*
G75*
G02*
X57500000Y-134275000I225000J0D01*
G01*
X58000000Y-134275000D01*
G75*
G02*
X58225000Y-134500000I0J-225000D01*
G01*
X58225000Y-134950000D01*
G75*
G02*
X58000000Y-135175000I-225000J0D01*
G01*
G37*
G36*
G01*
X58000000Y-136725000D02*
X57500000Y-136725000D01*
G75*
G02*
X57275000Y-136500000I0J225000D01*
G01*
X57275000Y-136050000D01*
G75*
G02*
X57500000Y-135825000I225000J0D01*
G01*
X58000000Y-135825000D01*
G75*
G02*
X58225000Y-136050000I0J-225000D01*
G01*
X58225000Y-136500000D01*
G75*
G02*
X58000000Y-136725000I-225000J0D01*
G01*
G37*
%TD*%
%TO.C,C101*%
G36*
G01*
X68675000Y-147750000D02*
X68675000Y-148250000D01*
G75*
G02*
X68450000Y-148475000I-225000J0D01*
G01*
X68000000Y-148475000D01*
G75*
G02*
X67775000Y-148250000I0J225000D01*
G01*
X67775000Y-147750000D01*
G75*
G02*
X68000000Y-147525000I225000J0D01*
G01*
X68450000Y-147525000D01*
G75*
G02*
X68675000Y-147750000I0J-225000D01*
G01*
G37*
G36*
G01*
X70225000Y-147750000D02*
X70225000Y-148250000D01*
G75*
G02*
X70000000Y-148475000I-225000J0D01*
G01*
X69550000Y-148475000D01*
G75*
G02*
X69325000Y-148250000I0J225000D01*
G01*
X69325000Y-147750000D01*
G75*
G02*
X69550000Y-147525000I225000J0D01*
G01*
X70000000Y-147525000D01*
G75*
G02*
X70225000Y-147750000I0J-225000D01*
G01*
G37*
%TD*%
M02*
