%TF.GenerationSoftware,KiCad,Pcbnew,(5.1.8)-1*%
%TF.CreationDate,2021-01-16T15:49:20-05:00*%
%TF.ProjectId,uratt_fp,75726174-745f-4667-902e-6b696361645f,rev?*%
%TF.SameCoordinates,Original*%
%TF.FileFunction,Legend,Bot*%
%TF.FilePolarity,Positive*%
%FSLAX46Y46*%
G04 Gerber Fmt 4.6, Leading zero omitted, Abs format (unit mm)*
G04 Created by KiCad (PCBNEW (5.1.8)-1) date 2021-01-16 15:49:20*
%MOMM*%
%LPD*%
G01*
G04 APERTURE LIST*
%ADD10C,0.100000*%
%ADD11C,0.150000*%
%ADD12C,0.200000*%
%ADD13C,0.127000*%
%ADD14C,0.120000*%
%ADD15C,0.015000*%
G04 APERTURE END LIST*
D10*
X44410228Y-148005000D02*
G75*
G03*
X44352773Y-148088203I153671J-167553D01*
G01*
X49425554Y-148062740D02*
G75*
G03*
X49394721Y-148074145I21107J-104446D01*
G01*
X44493206Y-147951851D02*
G75*
G03*
X44410228Y-148004999I99834J-247212D01*
G01*
X44839274Y-148341620D02*
G75*
G03*
X44844874Y-148254033I-624373J83896D01*
G01*
X44570033Y-148569057D02*
G75*
G03*
X44664101Y-148553600I-213J295256D01*
G01*
X44345666Y-148469214D02*
G75*
G03*
X44394730Y-148515405I228359J193402D01*
G01*
X49504688Y-148440917D02*
G75*
G03*
X49535378Y-148429190I-21244J101615D01*
G01*
X44631141Y-148442424D02*
G75*
G03*
X44678478Y-148413697I-46856J130578D01*
G01*
X49504688Y-148062865D02*
G75*
G03*
X49465193Y-148058937I-37594J-177490D01*
G01*
X44678478Y-148413697D02*
G75*
G03*
X44709675Y-148365819I-81027J86900D01*
G01*
X49465193Y-148444826D02*
G75*
G03*
X49504688Y-148440917I1905J182219D01*
G01*
X44394730Y-148515405D02*
G75*
G03*
X44449522Y-148546104I145033J194610D01*
G01*
X44333622Y-148196079D02*
X44333622Y-148298791D01*
X44824180Y-148100718D02*
G75*
G03*
X44798327Y-148045068I-235226J-75451D01*
G01*
X44333622Y-148298791D02*
X44720068Y-148298791D01*
X44588964Y-147934135D02*
G75*
G03*
X44493206Y-147951850I-1894J-257421D01*
G01*
X44762117Y-148003421D02*
G75*
G03*
X44677431Y-147951455I-204901J-238926D01*
G01*
X49535378Y-148074646D02*
G75*
G03*
X49504688Y-148062865I-51976J-89533D01*
G01*
X49570344Y-148121770D02*
G75*
G03*
X49535378Y-148074646I-73936J-18327D01*
G01*
X44449522Y-148546104D02*
G75*
G03*
X44570032Y-148569057I119575J299976D01*
G01*
X49535378Y-148429190D02*
G75*
G03*
X49570345Y-148382281I-38634J65285D01*
G01*
X44755231Y-148507228D02*
G75*
G03*
X44794452Y-148468218I-90841J130554D01*
G01*
X49394721Y-148074144D02*
G75*
G03*
X49359468Y-148119761I36672J-64771D01*
G01*
X44822473Y-148413016D02*
G75*
G03*
X44839274Y-148341620I-348168J119608D01*
G01*
X44436045Y-148392035D02*
X44345667Y-148469213D01*
X44333622Y-148298791D02*
X44333622Y-148298791D01*
X49570344Y-148382281D02*
G75*
G03*
X49587702Y-148252313I-466404J128433D01*
G01*
X44664101Y-148553599D02*
G75*
G03*
X44755231Y-148507228I-117630J343903D01*
G01*
X44436045Y-148392034D02*
G75*
G03*
X44499669Y-148437008I148602J142736D01*
G01*
X49587703Y-148252313D02*
G75*
G03*
X49570345Y-148121770I-487993J1540D01*
G01*
X49465193Y-148058938D02*
G75*
G03*
X49425555Y-148062740I-1907J-188604D01*
G01*
X44794453Y-148468219D02*
G75*
G03*
X44822473Y-148413016I-182025J127108D01*
G01*
X44572328Y-148451999D02*
G75*
G03*
X44631141Y-148442423I2143J172238D01*
G01*
X44352774Y-148088202D02*
G75*
G03*
X44333622Y-148196079I268628J-103329D01*
G01*
X44839715Y-148170374D02*
G75*
G03*
X44824180Y-148100718I-384532J-49196D01*
G01*
X44709675Y-148365820D02*
G75*
G03*
X44720068Y-148298791I-186247J63199D01*
G01*
X44677431Y-147951456D02*
G75*
G03*
X44588963Y-147934135I-88778J-218853D01*
G01*
X44844874Y-148254033D02*
G75*
G03*
X44839715Y-148170374I-627480J3288D01*
G01*
X49465193Y-148444826D02*
X49465193Y-148444826D01*
X44798327Y-148045069D02*
G75*
G03*
X44762117Y-148003422I-152489J-96016D01*
G01*
X44499669Y-148437008D02*
G75*
G03*
X44572327Y-148451999I71591J163410D01*
G01*
X49359468Y-148119761D02*
G75*
G03*
X49341824Y-148252313I456552J-128222D01*
G01*
X46115164Y-149030324D02*
G75*
G03*
X46102090Y-149074525I191636J-80716D01*
G01*
X46225556Y-149083762D02*
G75*
G03*
X46218027Y-149119768I70765J-33586D01*
G01*
X45357778Y-149401366D02*
G75*
G03*
X45388975Y-149353488I-81027J86900D01*
G01*
X46413692Y-149049187D02*
G75*
G03*
X46381412Y-149041872I-54149J-164066D01*
G01*
X46102089Y-149074526D02*
G75*
G03*
X46097242Y-149126940I304247J-54569D01*
G01*
X46466061Y-148943823D02*
G75*
G03*
X46411085Y-148927163I-97016J-221108D01*
G01*
X46411086Y-148927163D02*
G75*
G03*
X46347994Y-148922376I-55793J-317172D01*
G01*
X45473752Y-149455886D02*
G75*
G03*
X45501773Y-149400684I-182024J127106D01*
G01*
X45343401Y-149541269D02*
G75*
G03*
X45434531Y-149494897I-117631J343904D01*
G01*
X46097242Y-149551848D02*
X46218027Y-149551848D01*
X46341971Y-149039434D02*
G75*
G03*
X46287528Y-149043595I-8075J-252614D01*
G01*
X46569696Y-149298150D02*
G75*
G03*
X46532476Y-149239120I-166131J-63501D01*
G01*
X46582109Y-149369664D02*
G75*
G03*
X46569696Y-149298151I-199651J2180D01*
G01*
X45249332Y-149556725D02*
G75*
G03*
X45343400Y-149541268I-212J295256D01*
G01*
X45128823Y-149533772D02*
G75*
G03*
X45249332Y-149556725I119574J299975D01*
G01*
X46456164Y-149087921D02*
G75*
G03*
X46413693Y-149049188I-77451J-42274D01*
G01*
X46218027Y-149551848D02*
X46218027Y-149551848D01*
X46386150Y-149185469D02*
X46218027Y-149185469D01*
X45178968Y-149424677D02*
G75*
G03*
X45251627Y-149439668I71591J163411D01*
G01*
X46532476Y-149239121D02*
G75*
G03*
X46471221Y-149199455I-113328J-107882D01*
G01*
X45524173Y-149241702D02*
G75*
G03*
X45519014Y-149158043I-627479J3288D01*
G01*
X45501773Y-149400685D02*
G75*
G03*
X45518574Y-149329289I-348168J119608D01*
G01*
X45012922Y-149286459D02*
X45399368Y-149286459D01*
X46218027Y-149185469D02*
X46218027Y-149119768D01*
X46287528Y-149043595D02*
G75*
G03*
X46248729Y-149058369I19703J-110077D01*
G01*
X45032074Y-149075871D02*
G75*
G03*
X45012922Y-149183748I268628J-103329D01*
G01*
X45477627Y-149032737D02*
G75*
G03*
X45441417Y-148991090I-152489J-96017D01*
G01*
X45519014Y-149158043D02*
G75*
G03*
X45503480Y-149088387I-384531J-49195D01*
G01*
X45074030Y-149503074D02*
G75*
G03*
X45128822Y-149533773I145033J194610D01*
G01*
X45115345Y-149379703D02*
X45024967Y-149456882D01*
X46097242Y-149126940D02*
X46097242Y-149551848D01*
X46456164Y-149087921D02*
X46551701Y-149012752D01*
X46551701Y-149012752D02*
G75*
G03*
X46466061Y-148943823I-172765J-126985D01*
G01*
X45356731Y-148939124D02*
G75*
G03*
X45268263Y-148921803I-88778J-218853D01*
G01*
X45434531Y-149494897D02*
G75*
G03*
X45473752Y-149455887I-90841J130554D01*
G01*
X45024966Y-149456883D02*
G75*
G03*
X45074030Y-149503074I228359J193402D01*
G01*
X45251628Y-149439668D02*
G75*
G03*
X45310441Y-149430092I2143J172238D01*
G01*
X45310441Y-149430093D02*
G75*
G03*
X45357778Y-149401366I-46856J130578D01*
G01*
X46248729Y-149058370D02*
G75*
G03*
X46225556Y-149083762I34191J-54471D01*
G01*
X46166100Y-148966559D02*
G75*
G03*
X46115164Y-149030324I84678J-119867D01*
G01*
X45089528Y-148992667D02*
G75*
G03*
X45032073Y-149075871I153671J-167555D01*
G01*
X45172506Y-148939520D02*
G75*
G03*
X45089528Y-148992668I99834J-247212D01*
G01*
X46471221Y-149199456D02*
G75*
G03*
X46386150Y-149185469I-83401J-241567D01*
G01*
X45268264Y-148921804D02*
G75*
G03*
X45172506Y-148939519I-1894J-257421D01*
G01*
X46381413Y-149041872D02*
G75*
G03*
X46341971Y-149039434I-37815J-291443D01*
G01*
X45441417Y-148991090D02*
G75*
G03*
X45356731Y-148939124I-204901J-238925D01*
G01*
X45503480Y-149088387D02*
G75*
G03*
X45477627Y-149032737I-235227J-75451D01*
G01*
X45518574Y-149329289D02*
G75*
G03*
X45524174Y-149241702I-624373J83896D01*
G01*
X45115345Y-149379703D02*
G75*
G03*
X45178969Y-149424677I148602J142736D01*
G01*
X45388975Y-149353488D02*
G75*
G03*
X45399368Y-149286459I-186247J63198D01*
G01*
X46245993Y-148932848D02*
G75*
G03*
X46166100Y-148966559I56674J-245842D01*
G01*
X46347994Y-148922376D02*
G75*
G03*
X46245993Y-148932848I-8945J-414878D01*
G01*
X48024302Y-148056607D02*
G75*
G03*
X48011688Y-148099813I190715J-79127D01*
G01*
X48074762Y-147989075D02*
G75*
G03*
X48024303Y-148056607I108156J-133431D01*
G01*
X46667379Y-148252313D02*
X46667379Y-148252313D01*
X48378156Y-147941307D02*
X48378156Y-148007583D01*
X48502963Y-148561884D02*
X48502963Y-147941307D01*
X46739542Y-148070342D02*
G75*
G03*
X46698080Y-148104556I42134J-93288D01*
G01*
X50023511Y-148433421D02*
G75*
G03*
X50082469Y-148444826I55728J129996D01*
G01*
X46898906Y-148104556D02*
G75*
G03*
X46857885Y-148070342I-81768J-56336D01*
G01*
X48254506Y-148058937D02*
G75*
G03*
X48206600Y-148067760I-1454J-126572D01*
G01*
X48214331Y-147934134D02*
G75*
G03*
X48143288Y-147947869I358J-192453D01*
G01*
X48502963Y-148561884D02*
X48502963Y-148561884D01*
X48378156Y-148561884D02*
X48502963Y-148561884D01*
X48378156Y-148192348D02*
X48378156Y-148561884D01*
X48369417Y-148136403D02*
G75*
G03*
X48343159Y-148094227I-106594J-37101D01*
G01*
X48303497Y-148067760D02*
G75*
G03*
X48254507Y-148058937I-47356J-122525D01*
G01*
X48502963Y-147941307D02*
X48378156Y-147941307D01*
X48206600Y-148067760D02*
G75*
G03*
X48167287Y-148094227I44156J-108018D01*
G01*
X49958239Y-148347280D02*
G75*
G03*
X49982053Y-148399209I152741J38619D01*
G01*
X48011688Y-148099813D02*
G75*
G03*
X48007483Y-148149313I273042J-48123D01*
G01*
X48143288Y-147947868D02*
G75*
G03*
X48074761Y-147989075I97424J-239603D01*
G01*
X48378156Y-148007583D02*
X48375861Y-148007583D01*
X46927752Y-148194285D02*
G75*
G03*
X46923015Y-148157060I-248705J-12737D01*
G01*
X46857885Y-148070341D02*
G75*
G03*
X46798502Y-148058937I-55968J-131119D01*
G01*
X48343159Y-148094227D02*
G75*
G03*
X48303497Y-148067760I-82707J-80988D01*
G01*
X46698080Y-148399209D02*
G75*
G03*
X46739542Y-148433422I83594J59075D01*
G01*
X46857884Y-148433421D02*
G75*
G03*
X46898905Y-148399209I-40744J90549D01*
G01*
X48007483Y-148149313D02*
X48007483Y-148561884D01*
X46669106Y-148309765D02*
G75*
G03*
X46674265Y-148347279I230170J12546D01*
G01*
X48132290Y-148561884D02*
X48132290Y-148192348D01*
X46674265Y-148347279D02*
G75*
G03*
X46698080Y-148399209I152742J38623D01*
G01*
X46798502Y-148444826D02*
G75*
G03*
X46857885Y-148433422I3415J142522D01*
G01*
X49953076Y-148309765D02*
G75*
G03*
X49958239Y-148347279I230173J12568D01*
G01*
X46667379Y-148252313D02*
X46669105Y-148194643D01*
X49953076Y-148309766D02*
X49951354Y-148252313D01*
X46669105Y-148309766D02*
X46667379Y-148252313D01*
X46929331Y-148250879D02*
X46927752Y-148309048D01*
X50082469Y-148444826D02*
G75*
G03*
X50141859Y-148433422I3419J142539D01*
G01*
X46567768Y-149444186D02*
G75*
G03*
X46582109Y-149369663I-173740J72074D01*
G01*
X46524728Y-149504221D02*
G75*
G03*
X46567768Y-149444186I-116458J128936D01*
G01*
X46459671Y-149544174D02*
G75*
G03*
X46524728Y-149504222I-54609J161870D01*
G01*
X46272544Y-149543527D02*
G75*
G03*
X46315291Y-149555147I70167J173688D01*
G01*
X46898906Y-148399209D02*
G75*
G03*
X46923015Y-148346991I-113148J83916D01*
G01*
X46698080Y-148104555D02*
G75*
G03*
X46674265Y-148157060I135106J-92937D01*
G01*
X49982053Y-148399209D02*
G75*
G03*
X50023511Y-148433422I83592J59068D01*
G01*
X50141859Y-148433422D02*
G75*
G03*
X50182887Y-148399209I-40741J90563D01*
G01*
X46220616Y-149497049D02*
G75*
G03*
X46272544Y-149543528I88857J47027D01*
G01*
X46739542Y-148433421D02*
G75*
G03*
X46798502Y-148444826I55729J130000D01*
G01*
X46369514Y-149559020D02*
G75*
G03*
X46459671Y-149544173I-1503J290280D01*
G01*
X48378157Y-148192348D02*
G75*
G03*
X48369416Y-148136403I-165932J2732D01*
G01*
X48141031Y-148136403D02*
G75*
G03*
X48132290Y-148192348I157190J-53213D01*
G01*
X48167288Y-148094228D02*
G75*
G03*
X48141030Y-148136403I80335J-79276D01*
G01*
X46923015Y-148346991D02*
G75*
G03*
X46927752Y-148309048I-250453J50538D01*
G01*
X46674265Y-148157060D02*
G75*
G03*
X46669105Y-148194643I225279J-50074D01*
G01*
X50182887Y-148399209D02*
G75*
G03*
X50206987Y-148346991I-113151J83894D01*
G01*
X46923014Y-148157060D02*
G75*
G03*
X46898905Y-148104556I-142485J-33640D01*
G01*
X46315291Y-149555147D02*
G75*
G03*
X46369514Y-149559020I51654J341654D01*
G01*
X46218027Y-149497049D02*
X46220617Y-149497049D01*
X46218027Y-149551848D02*
X46218027Y-149497049D01*
X48306361Y-147952498D02*
G75*
G03*
X48214331Y-147934135I-88082J-201655D01*
G01*
X49951354Y-148252313D02*
X49951354Y-148252313D01*
X48375861Y-148007583D02*
G75*
G03*
X48306361Y-147952497I-147289J-114443D01*
G01*
X46798502Y-148058937D02*
G75*
G03*
X46739542Y-148070342I-3231J-141406D01*
G01*
X46927752Y-148194285D02*
X46929331Y-148250879D01*
X48007483Y-148561884D02*
X48132290Y-148561884D01*
X44881526Y-148462040D02*
G75*
G03*
X44978220Y-148538931I257775J224920D01*
G01*
X48997621Y-149363637D02*
G75*
G03*
X48991598Y-149331810I-71347J2982D01*
G01*
X45037823Y-148561526D02*
G75*
G03*
X45104734Y-148569057I65460J280571D01*
G01*
X48818371Y-149437875D02*
G75*
G03*
X48883427Y-149441963I54787J352150D01*
G01*
X48987871Y-148134286D02*
G75*
G03*
X48959825Y-148088919I-116125J-40436D01*
G01*
X45299261Y-148008012D02*
G75*
G03*
X45207176Y-147952603I-205817J-237828D01*
G01*
X48747144Y-149333799D02*
G75*
G03*
X48754324Y-149391180I191654J-5160D01*
G01*
X48747145Y-149333798D02*
X48747145Y-149333798D01*
X45099869Y-148444826D02*
G75*
G03*
X45170544Y-148432794I3905J190643D01*
G01*
X45386205Y-148252313D02*
G75*
G03*
X45380770Y-148173136I-539887J2714D01*
G01*
X45104734Y-148569057D02*
G75*
G03*
X45207176Y-148550766I1331J288571D01*
G01*
X45251300Y-148167712D02*
G75*
G03*
X45221021Y-148107281I-154655J-39688D01*
G01*
X48935428Y-149435866D02*
G75*
G03*
X48970353Y-149417576I-20378J81401D01*
G01*
X48747145Y-149333798D02*
X48747145Y-149288182D01*
X50182887Y-148104556D02*
G75*
G03*
X50141859Y-148070342I-81770J-56350D01*
G01*
X48998558Y-148196079D02*
X48998558Y-148196079D01*
X45299261Y-148495895D02*
G75*
G03*
X45337307Y-148453236I-130693J154855D01*
G01*
X45170543Y-148071023D02*
G75*
G03*
X45099868Y-148058937I-66775J-177798D01*
G01*
X48775845Y-149423314D02*
G75*
G03*
X48818371Y-149437875I58590J101741D01*
G01*
X45031581Y-148075148D02*
G75*
G03*
X44973630Y-148123779I86442J-161850D01*
G01*
X44881526Y-148041723D02*
X44973630Y-148123779D01*
X48972079Y-149308625D02*
G75*
G03*
X48939083Y-149294082I-55299J-80765D01*
G01*
X45337308Y-148453236D02*
G75*
G03*
X45364465Y-148398419I-207022J136697D01*
G01*
X50141859Y-148070342D02*
G75*
G03*
X50082469Y-148058937I-55972J-131135D01*
G01*
X48747145Y-149288182D02*
X48892608Y-149288182D01*
X49982053Y-148104556D02*
G75*
G03*
X49958239Y-148157060I135106J-92931D01*
G01*
X44978220Y-147964546D02*
G75*
G03*
X44881526Y-148041723I164297J-305007D01*
G01*
X45337307Y-148050984D02*
G75*
G03*
X45299261Y-148008012I-171092J-113150D01*
G01*
X48991598Y-149331809D02*
G75*
G03*
X48972079Y-149308624I-53222J-24997D01*
G01*
X48970352Y-149417576D02*
G75*
G03*
X48990808Y-149392616I-50553J62292D01*
G01*
X45261399Y-148252313D02*
G75*
G03*
X45251300Y-148167712I-316952J5068D01*
G01*
X45364464Y-148398419D02*
G75*
G03*
X45380770Y-148331444I-334311J116862D01*
G01*
X50023510Y-148070342D02*
G75*
G03*
X49982053Y-148104556I42136J-93281D01*
G01*
X45221021Y-148107281D02*
G75*
G03*
X45170544Y-148071023I-95826J-80141D01*
G01*
X49958240Y-148157060D02*
G75*
G03*
X49953076Y-148194643I225276J-50096D01*
G01*
X49951354Y-148252313D02*
X49953076Y-148194643D01*
X45170544Y-148432795D02*
G75*
G03*
X45221021Y-148396699I-45137J116463D01*
G01*
X48754324Y-149391180D02*
G75*
G03*
X48763285Y-149410403I72873J22268D01*
G01*
X48763286Y-149410403D02*
G75*
G03*
X48775845Y-149423314I39289J25656D01*
G01*
X48998558Y-148196079D02*
G75*
G03*
X48987871Y-148134286I-198272J-2469D01*
G01*
X45251300Y-148336538D02*
G75*
G03*
X45261399Y-148252313I-304113J79183D01*
G01*
X45207176Y-148550767D02*
G75*
G03*
X45299261Y-148495896I-112927J294222D01*
G01*
X45207176Y-147952603D02*
G75*
G03*
X45104734Y-147934135I-101130J-267606D01*
G01*
X45037823Y-147941736D02*
G75*
G03*
X44978220Y-147964546I56384J-236615D01*
G01*
X50082469Y-148058938D02*
G75*
G03*
X50023511Y-148070342I-3230J-141401D01*
G01*
X50211720Y-148194285D02*
G75*
G03*
X50206987Y-148157060I-248703J-12713D01*
G01*
X45099868Y-148058937D02*
G75*
G03*
X45031580Y-148075147I-1107J-147281D01*
G01*
X48990808Y-149392616D02*
G75*
G03*
X48997621Y-149363637I-56539J28582D01*
G01*
X45364464Y-148106027D02*
G75*
G03*
X45337307Y-148050985I-236554J-82494D01*
G01*
X45380770Y-148173137D02*
G75*
G03*
X45364465Y-148106027I-352620J-50139D01*
G01*
X45031286Y-148428472D02*
G75*
G03*
X45099868Y-148444826I67357J130487D01*
G01*
X44978220Y-148538931D02*
G75*
G03*
X45037823Y-148561525I115784J215525D01*
G01*
X48939082Y-149294082D02*
G75*
G03*
X48892608Y-149288182I-49949J-207471D01*
G01*
X45104734Y-147934134D02*
G75*
G03*
X45037823Y-147941736I-1450J-285505D01*
G01*
X48883428Y-149441963D02*
G75*
G03*
X48935429Y-149435866I3585J194230D01*
G01*
X50211721Y-148194285D02*
X50213298Y-148250879D01*
X50206987Y-148346991D02*
G75*
G03*
X50211721Y-148309048I-250454J50513D01*
G01*
X50213298Y-148250879D02*
X50211721Y-148309048D01*
X50206987Y-148157060D02*
G75*
G03*
X50182887Y-148104556I-142481J-33617D01*
G01*
X44973630Y-148379413D02*
X44973630Y-148379413D01*
X44973629Y-148379413D02*
G75*
G03*
X45031286Y-148428473I143488J110221D01*
G01*
X45221021Y-148396698D02*
G75*
G03*
X45251300Y-148336537I-123380J99796D01*
G01*
X45380770Y-148331444D02*
G75*
G03*
X45386205Y-148252313I-533522J76398D01*
G01*
X44973630Y-148379413D02*
X44881526Y-148462041D01*
X48871088Y-149039434D02*
G75*
G03*
X48816645Y-149043595I-8075J-252614D01*
G01*
X48985281Y-149087921D02*
G75*
G03*
X48942810Y-149049188I-77450J-42274D01*
G01*
X49096885Y-149444186D02*
G75*
G03*
X49111226Y-149369663I-173740J72074D01*
G01*
X49061593Y-149239121D02*
G75*
G03*
X49000338Y-149199455I-113328J-107882D01*
G01*
X49111226Y-149369664D02*
G75*
G03*
X49098813Y-149298151I-199651J2180D01*
G01*
X48816645Y-149043595D02*
G75*
G03*
X48777846Y-149058369I19703J-110077D01*
G01*
X46733335Y-148562781D02*
G75*
G03*
X46798502Y-148569057I62315J305574D01*
G01*
X46916551Y-148543952D02*
G75*
G03*
X46956837Y-148517951I-161690J294736D01*
G01*
X48877111Y-148922376D02*
G75*
G03*
X48775110Y-148932848I-8945J-414878D01*
G01*
X48754674Y-149083762D02*
G75*
G03*
X48747145Y-149119768I70764J-33586D01*
G01*
X48747145Y-149551848D02*
X48747145Y-149551848D01*
X48626360Y-149126940D02*
X48626360Y-149551848D01*
X48644281Y-149030324D02*
G75*
G03*
X48631207Y-149074525I191636J-80716D01*
G01*
X48775110Y-148932848D02*
G75*
G03*
X48695217Y-148966559I56674J-245842D01*
G01*
X48940203Y-148927163D02*
G75*
G03*
X48877111Y-148922376I-55793J-317172D01*
G01*
X49098814Y-149298150D02*
G75*
G03*
X49061594Y-149239120I-166131J-63501D01*
G01*
X48910530Y-149041872D02*
G75*
G03*
X48871088Y-149039434I-37815J-291443D01*
G01*
X46547016Y-148163766D02*
G75*
G03*
X46543142Y-148250879I849468J-81423D01*
G01*
X48777846Y-149058370D02*
G75*
G03*
X48754673Y-149083762I34191J-54471D01*
G01*
X49000338Y-149199456D02*
G75*
G03*
X48915267Y-149185469I-83401J-241567D01*
G01*
X46681297Y-147959812D02*
G75*
G03*
X46640736Y-147986099I178736J-320231D01*
G01*
X46987282Y-148490157D02*
G75*
G03*
X47038787Y-148401647I-176223J161787D01*
G01*
X46864440Y-148562781D02*
G75*
G03*
X46916551Y-148543952I-36684J183060D01*
G01*
X48695217Y-148966559D02*
G75*
G03*
X48644281Y-149030324I84678J-119867D01*
G01*
X48844408Y-149555147D02*
G75*
G03*
X48898631Y-149559020I51655J341654D01*
G01*
X48747145Y-149497049D02*
X48749734Y-149497049D01*
X48942810Y-149049187D02*
G75*
G03*
X48910530Y-149041872I-54150J-164066D01*
G01*
X48988788Y-149544174D02*
G75*
G03*
X49053845Y-149504222I-54609J161870D01*
G01*
X48985281Y-149087921D02*
X49080819Y-149012752D01*
X48898631Y-149559020D02*
G75*
G03*
X48988788Y-149544173I-1503J290280D01*
G01*
X48749733Y-149497049D02*
G75*
G03*
X48801661Y-149543528I88857J47027D01*
G01*
X46543142Y-148250879D02*
G75*
G03*
X46547016Y-148339496I880326J-5904D01*
G01*
X46609998Y-148490157D02*
G75*
G03*
X46640736Y-148517951I160245J146324D01*
G01*
X46547017Y-148339496D02*
G75*
G03*
X46558640Y-148401647I316985J27118D01*
G01*
X48626360Y-149551848D02*
X48747145Y-149551848D01*
X49053845Y-149504221D02*
G75*
G03*
X49096885Y-149444186I-116458J128936D01*
G01*
X47050502Y-148339496D02*
G75*
G03*
X47054413Y-148250879I-868397J82722D01*
G01*
X48959825Y-148088918D02*
G75*
G03*
X48918367Y-148061054I-87239J-85025D01*
G01*
X48918367Y-148061054D02*
G75*
G03*
X48867442Y-148051765I-49292J-125995D01*
G01*
X48867443Y-148051765D02*
G75*
G03*
X48817197Y-148061054I-1544J-132184D01*
G01*
X48817197Y-148061055D02*
G75*
G03*
X48776062Y-148088919I46269J-112599D01*
G01*
X48747145Y-149551848D02*
X48747145Y-149497049D01*
X46558639Y-148102117D02*
G75*
G03*
X46547016Y-148163766I304358J-89304D01*
G01*
X46609999Y-148013607D02*
G75*
G03*
X46558640Y-148102117I174976J-160687D01*
G01*
X46681297Y-148543953D02*
G75*
G03*
X46733335Y-148562781I89632J166400D01*
G01*
X48776063Y-148088920D02*
G75*
G03*
X48747910Y-148134286I90036J-87290D01*
G01*
X48801661Y-149543527D02*
G75*
G03*
X48844408Y-149555147I70167J173688D01*
G01*
X48747910Y-148134286D02*
G75*
G03*
X48736613Y-148196079I191312J-66902D01*
G01*
X48631207Y-149074526D02*
G75*
G03*
X48626360Y-149126940I304246J-54569D01*
G01*
X49080818Y-149012752D02*
G75*
G03*
X48995178Y-148943823I-172765J-126985D01*
G01*
X47054413Y-148250879D02*
X47054413Y-148250879D01*
X46798502Y-147934134D02*
G75*
G03*
X46733335Y-147940554I-2843J-305120D01*
G01*
X46640736Y-148517951D02*
G75*
G03*
X46681298Y-148543952I203667J273082D01*
G01*
X48995179Y-148943823D02*
G75*
G03*
X48940203Y-148927163I-97017J-221108D01*
G01*
X46956838Y-148517951D02*
G75*
G03*
X46987282Y-148490157I-128393J171205D01*
G01*
X46733336Y-147940555D02*
G75*
G03*
X46681298Y-147959812I37924J-182413D01*
G01*
X48747145Y-149185469D02*
X48747145Y-149119768D01*
X46640736Y-147986099D02*
G75*
G03*
X46609998Y-148013607I136138J-183050D01*
G01*
X46864440Y-147940555D02*
G75*
G03*
X46798502Y-147934135I-62942J-304667D01*
G01*
X46558639Y-148401647D02*
G75*
G03*
X46609998Y-148490157I226336J72176D01*
G01*
X48915267Y-149185469D02*
X48747145Y-149185469D01*
X46798502Y-148569057D02*
G75*
G03*
X46864440Y-148562781I3004J317954D01*
G01*
X47038787Y-148401648D02*
G75*
G03*
X47050502Y-148339496I-302653J89228D01*
G01*
X48998558Y-148196079D02*
X48736613Y-148196079D01*
X48688700Y-148004999D02*
G75*
G03*
X48631247Y-148088203I153672J-167550D01*
G01*
X49033704Y-148507228D02*
G75*
G03*
X49072929Y-148468218I-90839J130564D01*
G01*
X48612095Y-148196079D02*
X48612095Y-148298791D01*
X49118189Y-148170374D02*
G75*
G03*
X49102669Y-148100718I-384525J-49116D01*
G01*
X48778143Y-148437008D02*
G75*
G03*
X48850801Y-148451999I71590J163410D01*
G01*
X49965268Y-147959812D02*
G75*
G03*
X49924707Y-147986099I178736J-320231D01*
G01*
X48955915Y-147951456D02*
G75*
G03*
X48867442Y-147934135I-88780J-218867D01*
G01*
X48867442Y-147934134D02*
G75*
G03*
X48771686Y-147951850I-1892J-257418D01*
G01*
X49965268Y-148543953D02*
G75*
G03*
X50017306Y-148562781I89632J166400D01*
G01*
X50200532Y-147959812D02*
G75*
G03*
X50148422Y-147940554I-89121J-161018D01*
G01*
X48612095Y-148298791D02*
X48612095Y-148298791D01*
X48909618Y-148442423D02*
G75*
G03*
X48956957Y-148413697I-46855J130582D01*
G01*
X49117758Y-148341620D02*
G75*
G03*
X49123362Y-148254033I-624371J83922D01*
G01*
X48624145Y-148469213D02*
G75*
G03*
X48673207Y-148515405I228358J193393D01*
G01*
X46956837Y-147986099D02*
G75*
G03*
X46916551Y-147959812I-217402J-289167D01*
G01*
X48714522Y-148392035D02*
X48624146Y-148469213D01*
X50334480Y-148163766D02*
G75*
G03*
X50322753Y-148102117I-313380J-27674D01*
G01*
X49893972Y-148490157D02*
G75*
G03*
X49924707Y-148517951I160243J146305D01*
G01*
X49102669Y-148100718D02*
G75*
G03*
X49076802Y-148045068I-235234J-75503D01*
G01*
X49830996Y-148339495D02*
G75*
G03*
X49842616Y-148401647I316985J27099D01*
G01*
X49827124Y-148250879D02*
G75*
G03*
X49830996Y-148339496I880323J-5923D01*
G01*
X48848506Y-148569057D02*
G75*
G03*
X48942576Y-148553600I-211J295262D01*
G01*
X50322753Y-148102117D02*
G75*
G03*
X50271254Y-148013607I-227725J-73264D01*
G01*
X46987281Y-148013607D02*
G75*
G03*
X46956837Y-147986099I-165330J-152376D01*
G01*
X48673207Y-148515405D02*
G75*
G03*
X48728005Y-148546104I145036J194631D01*
G01*
X47050502Y-148163765D02*
G75*
G03*
X47038787Y-148102117I-313374J-27613D01*
G01*
X49830997Y-148163766D02*
G75*
G03*
X49827124Y-148250879I849467J-81405D01*
G01*
X50017306Y-147940554D02*
G75*
G03*
X49965268Y-147959812I37925J-182414D01*
G01*
X48942576Y-148553599D02*
G75*
G03*
X49033705Y-148507228I-117631J343897D01*
G01*
X49100948Y-148413016D02*
G75*
G03*
X49117758Y-148341620I-348163J119654D01*
G01*
X50017306Y-148562781D02*
G75*
G03*
X50082469Y-148569057I62313J305557D01*
G01*
X50271254Y-148013607D02*
G75*
G03*
X50240806Y-147986099I-165332J-152397D01*
G01*
X47038788Y-148102117D02*
G75*
G03*
X46987282Y-148013607I-227729J-73278D01*
G01*
X49924706Y-148517951D02*
G75*
G03*
X49965268Y-148543952I203667J273082D01*
G01*
X47054413Y-148250879D02*
G75*
G03*
X47050502Y-148163766I-845573J5681D01*
G01*
X50338389Y-148250879D02*
X50338389Y-148250879D01*
X50200531Y-148543952D02*
G75*
G03*
X50240806Y-148517951I-161696J294655D01*
G01*
X49040591Y-148003421D02*
G75*
G03*
X48955916Y-147951455I-204896J-238891D01*
G01*
X49076802Y-148045068D02*
G75*
G03*
X49040590Y-148003422I-152490J-96023D01*
G01*
X48714523Y-148392034D02*
G75*
G03*
X48778143Y-148437008I148599J142727D01*
G01*
X50082469Y-148569057D02*
G75*
G03*
X50148422Y-148562781I3012J318025D01*
G01*
X50338389Y-148250879D02*
G75*
G03*
X50334480Y-148163766I-845571J5700D01*
G01*
X49924706Y-147986099D02*
G75*
G03*
X49893972Y-148013607I136140J-183030D01*
G01*
X49842616Y-148102118D02*
G75*
G03*
X49830996Y-148163766I304359J-89284D01*
G01*
X49842615Y-148401647D02*
G75*
G03*
X49893972Y-148490157I226335J72172D01*
G01*
X48988158Y-148365820D02*
G75*
G03*
X48998558Y-148298791I-186243J63220D01*
G01*
X48612095Y-148298791D02*
X48998558Y-148298791D01*
X49072930Y-148468219D02*
G75*
G03*
X49100948Y-148413016I-182026J127101D01*
G01*
X50082469Y-147934134D02*
G75*
G03*
X50017306Y-147940554I-2841J-305103D01*
G01*
X50148421Y-147940555D02*
G75*
G03*
X50082469Y-147934135I-62949J-304735D01*
G01*
X50271253Y-148490157D02*
G75*
G03*
X50322753Y-148401647I-176225J161774D01*
G01*
X48631247Y-148088202D02*
G75*
G03*
X48612095Y-148196079I268628J-103329D01*
G01*
X48728006Y-148546104D02*
G75*
G03*
X48848506Y-148569057I119569J299952D01*
G01*
X49893973Y-148013607D02*
G75*
G03*
X49842616Y-148102117I174977J-160682D01*
G01*
X49123363Y-148254033D02*
G75*
G03*
X49118188Y-148170374I-627488J3178D01*
G01*
X46916552Y-147959812D02*
G75*
G03*
X46864440Y-147940554I-89122J-161024D01*
G01*
X50334480Y-148339496D02*
G75*
G03*
X50338389Y-148250879I-868398J82702D01*
G01*
X50322753Y-148401647D02*
G75*
G03*
X50334480Y-148339496I-302646J89288D01*
G01*
X50240806Y-148517951D02*
G75*
G03*
X50271254Y-148490157I-128390J171225D01*
G01*
X48956958Y-148413697D02*
G75*
G03*
X48988158Y-148365819I-81026J86907D01*
G01*
X50148422Y-148562780D02*
G75*
G03*
X50200531Y-148543952I-36685J183053D01*
G01*
X48850801Y-148451999D02*
G75*
G03*
X48909618Y-148442423I2145J172248D01*
G01*
X50240805Y-147986099D02*
G75*
G03*
X50200531Y-147959812I-217396J-289080D01*
G01*
X48771686Y-147951850D02*
G75*
G03*
X48688699Y-148004999I99830J-247238D01*
G01*
X47806738Y-149046606D02*
X47806738Y-149046606D01*
X47806738Y-149046607D02*
G75*
G03*
X47767609Y-149050534I-1865J-178303D01*
G01*
X47846510Y-149428721D02*
G75*
G03*
X47877432Y-149417397I-21069J105414D01*
G01*
X47737128Y-149416787D02*
G75*
G03*
X47767609Y-149428568I51784J88660D01*
G01*
X47806738Y-149432494D02*
G75*
G03*
X47846510Y-149428720I1927J191109D01*
G01*
X45663266Y-149054281D02*
G75*
G03*
X45622227Y-149077305I58212J-151846D01*
G01*
X45661816Y-148921804D02*
G75*
G03*
X45595272Y-148933781I-50J-190563D01*
G01*
X47233514Y-149363637D02*
X47231219Y-149363637D01*
X47737128Y-149062315D02*
G75*
G03*
X47702167Y-149109439I39575J-65891D01*
G01*
X46856799Y-149363637D02*
X46738034Y-148928976D01*
X46999692Y-148928976D02*
X46859389Y-149363637D01*
X47090639Y-148928976D02*
X46999692Y-148928976D01*
X47231219Y-149363637D02*
X47090639Y-148928976D01*
X47767609Y-149428568D02*
G75*
G03*
X47806738Y-149432495I37262J174376D01*
G01*
X47352573Y-148928976D02*
X47233514Y-149363637D01*
X46914181Y-149549553D02*
X47044147Y-149115463D01*
X47767609Y-149050534D02*
G75*
G03*
X47737128Y-149062315I21303J-100440D01*
G01*
X47702167Y-149369664D02*
G75*
G03*
X47737128Y-149416787I74535J18768D01*
G01*
X45788201Y-149077449D02*
G75*
G03*
X45704856Y-149046606I-83292J-97046D01*
G01*
X45532143Y-148969715D02*
X45622227Y-149077305D01*
X47176133Y-149549553D02*
X47286305Y-149549553D01*
X47912742Y-149107001D02*
G75*
G03*
X47877432Y-149061705I-71370J-19225D01*
G01*
X45950448Y-149549553D02*
X45950448Y-149549553D01*
X47044147Y-149115463D02*
X47046460Y-149115463D01*
X47912742Y-149372102D02*
G75*
G03*
X47930388Y-149238548I-457503J128391D01*
G01*
X47930388Y-149238547D02*
G75*
G03*
X47912742Y-149107000I-467469J4250D01*
G01*
X47846510Y-149050381D02*
G75*
G03*
X47806738Y-149046606I-37847J-187335D01*
G01*
X45825641Y-148995251D02*
X45823346Y-148995251D01*
X45950448Y-149549553D02*
X45950448Y-148928976D01*
X45950448Y-148928976D02*
X45825641Y-148928976D01*
X47877431Y-149417397D02*
G75*
G03*
X47912742Y-149372102I-36059J64521D01*
G01*
X45825642Y-149176576D02*
G75*
G03*
X45816295Y-149117652I-166733J3757D01*
G01*
X46914181Y-149549553D02*
X46914181Y-149549553D01*
X46804303Y-149549553D02*
X46914181Y-149549553D01*
X46605773Y-148928976D02*
X46804303Y-149549553D01*
X46738034Y-148928976D02*
X46605773Y-148928976D01*
X46859389Y-149363637D02*
X46856799Y-149363637D01*
X45825641Y-149549553D02*
X45950448Y-149549553D01*
X45753846Y-148940166D02*
G75*
G03*
X45661816Y-148921803I-88082J-201656D01*
G01*
X47484559Y-148928976D02*
X47352573Y-148928976D01*
X47877432Y-149061705D02*
G75*
G03*
X47846510Y-149050381I-51991J-94090D01*
G01*
X47286305Y-149549553D02*
X47484559Y-148928976D01*
X47702166Y-149109440D02*
G75*
G03*
X47684521Y-149238548I457620J-128304D01*
G01*
X45825641Y-149176576D02*
X45825641Y-149549553D01*
X45823346Y-148995251D02*
G75*
G03*
X45753846Y-148940165I-147289J-114444D01*
G01*
X45704856Y-149046606D02*
G75*
G03*
X45663266Y-149054281I392J-118642D01*
G01*
X47684521Y-149238548D02*
G75*
G03*
X47702167Y-149369663I482681J-1784D01*
G01*
X45816295Y-149117652D02*
G75*
G03*
X45788201Y-149077449I-88301J-31787D01*
G01*
X45825641Y-148928976D02*
X45825641Y-148995251D01*
X45595272Y-148933781D02*
G75*
G03*
X45532143Y-148969715I83515J-220135D01*
G01*
X47046460Y-149115463D02*
X47176133Y-149549553D01*
X47661921Y-148458598D02*
X47574702Y-148372239D01*
X46429497Y-148353877D02*
X46429497Y-147941307D01*
X46218027Y-149333798D02*
X46218027Y-149288182D01*
X48126322Y-148933781D02*
G75*
G03*
X48063193Y-148969715I83515J-220135D01*
G01*
X46218027Y-149333798D02*
X46218027Y-149333798D01*
X46218027Y-149288182D02*
X46363491Y-149288182D01*
X45388680Y-149121955D02*
G75*
G03*
X45360642Y-149076588I-116120J-40419D01*
G01*
X48319251Y-149077449D02*
G75*
G03*
X48235906Y-149046606I-83292J-97046D01*
G01*
X46218027Y-149333799D02*
G75*
G03*
X46225207Y-149391180I191654J-5160D01*
G01*
X46225207Y-149391180D02*
G75*
G03*
X46234168Y-149410403I72873J22268D01*
G01*
X46234168Y-149410403D02*
G75*
G03*
X46246727Y-149423314I39289J25656D01*
G01*
X46246728Y-149423314D02*
G75*
G03*
X46289254Y-149437875I58590J101741D01*
G01*
X46289254Y-149437875D02*
G75*
G03*
X46354310Y-149441963I54787J352150D01*
G01*
X46354310Y-149441963D02*
G75*
G03*
X46406311Y-149435866I3585J194230D01*
G01*
X46406311Y-149435866D02*
G75*
G03*
X46441236Y-149417576I-20378J81401D01*
G01*
X46468504Y-149363637D02*
G75*
G03*
X46462481Y-149331810I-71347J2982D01*
G01*
X48356691Y-149176576D02*
X48356691Y-149549553D01*
X46462481Y-149331809D02*
G75*
G03*
X46442962Y-149308624I-53222J-24997D01*
G01*
X46442961Y-149308625D02*
G75*
G03*
X46409965Y-149294082I-55299J-80765D01*
G01*
X46409965Y-149294082D02*
G75*
G03*
X46363491Y-149288182I-49949J-207471D01*
G01*
X45399368Y-149183748D02*
X45399368Y-149183748D01*
X48192866Y-148921804D02*
G75*
G03*
X48126322Y-148933781I-50J-190563D01*
G01*
X45319181Y-149048723D02*
G75*
G03*
X45268263Y-149039434I-49289J-125976D01*
G01*
X45218025Y-149048723D02*
G75*
G03*
X45176876Y-149076588I46262J-112635D01*
G01*
X45176876Y-149076587D02*
G75*
G03*
X45148727Y-149121954I90039J-87283D01*
G01*
X45399368Y-149183748D02*
X45137434Y-149183748D01*
X48481498Y-149549553D02*
X48481498Y-149549553D01*
X48356691Y-149549553D02*
X48481498Y-149549553D01*
X48481498Y-148928976D02*
X48356691Y-148928976D01*
X45012922Y-149183748D02*
X45012922Y-149286459D01*
X48235906Y-149046606D02*
G75*
G03*
X48194316Y-149054281I392J-118642D01*
G01*
X48356691Y-148928976D02*
X48356691Y-148995251D01*
X48356692Y-149176575D02*
G75*
G03*
X48347345Y-149117652I-166732J3756D01*
G01*
X48194316Y-149054281D02*
G75*
G03*
X48153277Y-149077305I58212J-151846D01*
G01*
X45012922Y-149286459D02*
X45012922Y-149286459D01*
X48481498Y-149549553D02*
X48481498Y-148928976D01*
X46441235Y-149417576D02*
G75*
G03*
X46461691Y-149392616I-50554J62292D01*
G01*
X45399368Y-149183748D02*
G75*
G03*
X45388681Y-149121954I-198272J-2469D01*
G01*
X45148727Y-149121955D02*
G75*
G03*
X45137434Y-149183748I191314J-66890D01*
G01*
X48063193Y-148969715D02*
X48153277Y-149077305D01*
X48354396Y-148995251D02*
G75*
G03*
X48284896Y-148940165I-147289J-114444D01*
G01*
X48284896Y-148940166D02*
G75*
G03*
X48192866Y-148921803I-88082J-201656D01*
G01*
X45360642Y-149076587D02*
G75*
G03*
X45319181Y-149048723I-87240J-85034D01*
G01*
X48347345Y-149117652D02*
G75*
G03*
X48319251Y-149077449I-88301J-31787D01*
G01*
X48356691Y-148995251D02*
X48354396Y-148995251D01*
X46295951Y-148367720D02*
G75*
G03*
X46304691Y-148311415I-158764J53476D01*
G01*
X45268263Y-149039434D02*
G75*
G03*
X45218025Y-149048723I-1540J-132165D01*
G01*
X46461690Y-149392616D02*
G75*
G03*
X46468503Y-149363637I-56538J28582D01*
G01*
X46304691Y-147941307D02*
X46304691Y-148311415D01*
X46429497Y-147941307D02*
X46304691Y-147941307D01*
X48011015Y-149476679D02*
G75*
G03*
X48046307Y-149398640I-139704J110179D01*
G01*
X49394722Y-148429728D02*
G75*
G03*
X49425555Y-148441052I51878J93620D01*
G01*
X47943589Y-149534347D02*
G75*
G03*
X48011015Y-149476679I-94534J178781D01*
G01*
X45792321Y-148561884D02*
X45792321Y-148561884D01*
X45667514Y-148561884D02*
X45792321Y-148561884D01*
X48052973Y-149142219D02*
G75*
G03*
X48046307Y-149080462I-465661J-19020D01*
G01*
X48046306Y-149398640D02*
G75*
G03*
X48052972Y-149336094I-470827J81803D01*
G01*
X46362366Y-148514401D02*
G75*
G03*
X46412714Y-148446942I-107219J132543D01*
G01*
X47898254Y-149551131D02*
G75*
G03*
X47943590Y-149534347I-38104J172544D01*
G01*
X47684521Y-149549553D02*
X47684521Y-149484999D01*
X47898254Y-148927539D02*
G75*
G03*
X47844894Y-148921803I-51666J-229562D01*
G01*
X45667514Y-148188907D02*
X45667514Y-148561884D01*
X45630074Y-148089780D02*
G75*
G03*
X45546729Y-148058937I-83292J-97046D01*
G01*
X46221493Y-148569057D02*
G75*
G03*
X46293582Y-148555393I-137J197720D01*
G01*
X45792321Y-147941307D02*
X45667514Y-147941307D01*
X49341824Y-148252313D02*
G75*
G03*
X49359468Y-148384433I469646J-4519D01*
G01*
X47684521Y-149549553D02*
X47684521Y-149549553D01*
X48011015Y-149002424D02*
G75*
G03*
X47943590Y-148944756I-168023J-128202D01*
G01*
X48055194Y-149238548D02*
X48052972Y-149142219D01*
X45934018Y-148561884D02*
X46058824Y-148561884D01*
X46133135Y-148436075D02*
G75*
G03*
X46181041Y-148444826I46441J118736D01*
G01*
X46058824Y-147941307D02*
X45934018Y-147941307D01*
X46058824Y-148311415D02*
G75*
G03*
X46067564Y-148367720I167504J-2829D01*
G01*
X46061395Y-148496182D02*
G75*
G03*
X46130399Y-148550838I146627J114233D01*
G01*
X45667514Y-148007583D02*
X45665219Y-148007583D01*
X47757326Y-149538793D02*
G75*
G03*
X47844894Y-149556725I85365J194089D01*
G01*
X47844894Y-148921803D02*
G75*
G03*
X47758115Y-148942172I-2573J-184077D01*
G01*
X47943590Y-148944756D02*
G75*
G03*
X47898254Y-148927540I-83818J-152419D01*
G01*
X45374016Y-147982047D02*
X45464100Y-148089637D01*
X45437145Y-147946113D02*
G75*
G03*
X45374016Y-147982047I83515J-220134D01*
G01*
X48046307Y-149080461D02*
G75*
G03*
X48011015Y-149002423I-178783J-33853D01*
G01*
X45505139Y-148066613D02*
G75*
G03*
X45464100Y-148089637I58212J-151846D01*
G01*
X45792321Y-148561884D02*
X45792321Y-147941307D01*
X46058824Y-148311415D02*
X46058824Y-147941307D01*
X47559714Y-148678507D02*
X47559714Y-149549553D01*
X45503689Y-147934135D02*
G75*
G03*
X45437145Y-147946112I-50J-190563D01*
G01*
X46412714Y-148446942D02*
G75*
G03*
X46425311Y-148403610I-191635J79204D01*
G01*
X46130399Y-148550838D02*
G75*
G03*
X46221493Y-148569057I87237J199343D01*
G01*
X45934018Y-147941307D02*
X45934018Y-148561884D01*
X45658168Y-148129983D02*
G75*
G03*
X45630074Y-148089780I-88301J-31787D01*
G01*
X49359468Y-148384432D02*
G75*
G03*
X49394721Y-148429728I71441J19235D01*
G01*
X49425555Y-148441052D02*
G75*
G03*
X49465193Y-148444826I37723J186129D01*
G01*
X47559714Y-149549553D02*
X47684521Y-149549553D01*
X47684521Y-148678507D02*
X47559714Y-148678507D01*
X46181041Y-148444827D02*
G75*
G03*
X46230031Y-148436076I1645J132304D01*
G01*
X46425311Y-148403610D02*
G75*
G03*
X46429497Y-148353877I-276011J48277D01*
G01*
X46093822Y-148409824D02*
G75*
G03*
X46133135Y-148436076I83152J81961D01*
G01*
X45667514Y-147941307D02*
X45667514Y-148007583D01*
X48052972Y-149336094D02*
X48055194Y-149238548D01*
X46429497Y-148353877D02*
X46429497Y-148353877D01*
X46293582Y-148555393D02*
G75*
G03*
X46362366Y-148514401I-95081J237751D01*
G01*
X46058824Y-148561884D02*
X46058824Y-148496182D01*
X47684521Y-149484999D02*
G75*
G03*
X47757326Y-149538794I164344J146257D01*
G01*
X45595719Y-147952498D02*
G75*
G03*
X45503689Y-147934135I-88082J-201655D01*
G01*
X46058824Y-148496182D02*
X46061395Y-148496182D01*
X46067564Y-148367720D02*
G75*
G03*
X46093822Y-148409824I105333J36450D01*
G01*
X45665219Y-148007583D02*
G75*
G03*
X45595719Y-147952497I-147289J-114443D01*
G01*
X47758116Y-148942172D02*
G75*
G03*
X47684521Y-148995251I155788J-293564D01*
G01*
X47844894Y-149556726D02*
G75*
G03*
X47898254Y-149551131I1696J241085D01*
G01*
X47684521Y-148995251D02*
X47684521Y-148678507D01*
X46269693Y-148409824D02*
G75*
G03*
X46295951Y-148367720I-79075J78554D01*
G01*
X45667515Y-148188907D02*
G75*
G03*
X45658168Y-148129983I-166733J3757D01*
G01*
X45546729Y-148058938D02*
G75*
G03*
X45505139Y-148066613I392J-118641D01*
G01*
X46230031Y-148436076D02*
G75*
G03*
X46269693Y-148409824I-42736J107654D01*
G01*
X49261202Y-148489010D02*
G75*
G03*
X49329344Y-148546678I167767J129143D01*
G01*
X47993650Y-147175767D02*
G75*
G03*
X48032905Y-147192142I27774J11341D01*
G01*
X49578959Y-149124072D02*
G75*
G03*
X49552701Y-149081896I-106594J-37101D01*
G01*
X49427321Y-148569056D02*
G75*
G03*
X49514397Y-148549403I3077J189097D01*
G01*
X49350573Y-149124072D02*
G75*
G03*
X49341832Y-149180017I157190J-53213D01*
G01*
X49226201Y-148411258D02*
G75*
G03*
X49261202Y-148489010I180853J34661D01*
G01*
X49664628Y-145860920D02*
X49664628Y-145292836D01*
X49515903Y-148940166D02*
G75*
G03*
X49423873Y-148921803I-88082J-201656D01*
G01*
X49217020Y-148252313D02*
X49219315Y-148349143D01*
X49184849Y-147019213D02*
G75*
G03*
X49188482Y-146981189I-21214J21213D01*
G01*
X49513039Y-149055429D02*
G75*
G03*
X49464049Y-149046606I-47356J-122525D01*
G01*
X48274975Y-147106461D02*
X48745128Y-147424543D01*
X49587698Y-149549553D02*
X49712505Y-149549553D01*
X47615303Y-146173240D02*
G75*
G03*
X47600072Y-146211832I12543J-27252D01*
G01*
X49587698Y-149180017D02*
X49587698Y-149549553D01*
X49423873Y-148921803D02*
G75*
G03*
X49352830Y-148935538I358J-192453D01*
G01*
X49329343Y-148546677D02*
G75*
G03*
X49374422Y-148563462I83332J154882D01*
G01*
X49341832Y-149549553D02*
X49341832Y-149180017D01*
X49221230Y-149087482D02*
G75*
G03*
X49217025Y-149136982I273042J-48122D01*
G01*
X49219315Y-148349143D02*
G75*
G03*
X49226201Y-148411258I457185J19242D01*
G01*
X49585403Y-148995251D02*
G75*
G03*
X49515903Y-148940165I-147289J-114444D01*
G01*
X49712505Y-149549553D02*
X49712505Y-149549553D01*
X49217025Y-149549553D02*
X49341832Y-149549553D01*
X48274976Y-147106460D02*
G75*
G03*
X48246684Y-147103592I-16811J-24849D01*
G01*
X49374422Y-148563463D02*
G75*
G03*
X49427321Y-148569057I51252J231714D01*
G01*
X47600072Y-146211832D02*
X47993650Y-147175766D01*
X49284304Y-148976744D02*
G75*
G03*
X49233845Y-149044276I108157J-133431D01*
G01*
X49352830Y-148935537D02*
G75*
G03*
X49284303Y-148976744I97424J-239603D01*
G01*
X49514397Y-148549403D02*
G75*
G03*
X49587702Y-148496182I-140305J270344D01*
G01*
X49188483Y-144172567D02*
G75*
G03*
X49184848Y-144134543I-24848J16810D01*
G01*
X49217025Y-149136982D02*
X49217025Y-149549553D01*
X48870400Y-144642720D02*
X49188482Y-144172567D01*
X48870401Y-144642720D02*
G75*
G03*
X48867531Y-144671011I24847J-16811D01*
G01*
X49188482Y-146981189D02*
X48870400Y-146511036D01*
X48867531Y-146482744D02*
G75*
G03*
X48870400Y-146511036I27717J-11481D01*
G01*
X49587699Y-149180017D02*
G75*
G03*
X49578958Y-149124072I-165932J2732D01*
G01*
X49060912Y-145137873D02*
X48867531Y-144671011D01*
X49060912Y-145137873D02*
G75*
G03*
X49082945Y-145155849I27716J11481D01*
G01*
X49640311Y-145263380D02*
X49082945Y-145155849D01*
X49664627Y-145292836D02*
G75*
G03*
X49640311Y-145263380I-29999J0D01*
G01*
X49416142Y-149055429D02*
G75*
G03*
X49376829Y-149081896I44156J-108017D01*
G01*
X49376830Y-149081897D02*
G75*
G03*
X49350572Y-149124072I80335J-79276D01*
G01*
X48032905Y-147192142D02*
X48246684Y-147103592D01*
X49640311Y-145890377D02*
G75*
G03*
X49664628Y-145860920I-5683J29457D01*
G01*
X49587702Y-148496182D02*
X49587698Y-148995251D01*
X49233844Y-149044276D02*
G75*
G03*
X49221230Y-149087482I190715J-79127D01*
G01*
X47615303Y-146173240D02*
G75*
G03*
X47066332Y-146173240I-274486J596362D01*
G01*
X48745128Y-147424542D02*
G75*
G03*
X48783152Y-147420909I16811J24847D01*
G01*
X49587698Y-148995251D02*
X49585403Y-148995251D01*
X49082945Y-145997907D02*
X49640311Y-145890377D01*
X49082945Y-145997908D02*
G75*
G03*
X49060912Y-146015884I5683J-29456D01*
G01*
X49552701Y-149081896D02*
G75*
G03*
X49513039Y-149055429I-82707J-80988D01*
G01*
X49464048Y-149046606D02*
G75*
G03*
X49416142Y-149055429I-1454J-126572D01*
G01*
X49219315Y-148154908D02*
X49217020Y-148252313D01*
X49226201Y-148092793D02*
G75*
G03*
X49219315Y-148154908I446606J-80948D01*
G01*
X48867531Y-146482745D02*
X49060912Y-146015884D01*
X48783152Y-147420909D02*
X49184848Y-147019213D01*
X49587702Y-148006433D02*
G75*
G03*
X49515042Y-147952208I-164260J-144311D01*
G01*
X47332562Y-148311415D02*
X47442440Y-148301086D01*
X47496388Y-148126647D02*
G75*
G03*
X47472995Y-148072995I-69328J1697D01*
G01*
X49587702Y-147941307D02*
X49587702Y-148006433D01*
X44720068Y-148196079D02*
X44458134Y-148196079D01*
X47388787Y-148569057D02*
G75*
G03*
X47534544Y-148541442I2545J385045D01*
G01*
X47414329Y-148185175D02*
G75*
G03*
X47454174Y-148178255I-9477J172724D01*
G01*
X47608488Y-148196760D02*
G75*
G03*
X47621176Y-148125499I-175259J67965D01*
G01*
X49712505Y-147941307D02*
X49587702Y-147941307D01*
X47513024Y-148285557D02*
G75*
G03*
X47570405Y-148250447I-70656J179920D01*
G01*
X47621175Y-148125499D02*
G75*
G03*
X47604613Y-148042584I-195109J4138D01*
G01*
X47275529Y-148329920D02*
G75*
G03*
X47261281Y-148348104I29994J-38177D01*
G01*
X49712505Y-149549553D02*
X49712505Y-147941307D01*
X44720068Y-148196079D02*
G75*
G03*
X44709381Y-148134286I-198272J-2469D01*
G01*
X44709381Y-148134286D02*
G75*
G03*
X44681342Y-148088919I-116121J-40420D01*
G01*
X44497576Y-148088919D02*
G75*
G03*
X44469427Y-148134286I90039J-87283D01*
G01*
X47661921Y-148458598D02*
X47661921Y-148458598D01*
X47228872Y-148210532D02*
G75*
G03*
X47173474Y-148251881I52813J-128541D01*
G01*
X47472995Y-148072995D02*
G75*
G03*
X47440549Y-148057074I-48376J-57563D01*
G01*
X47256525Y-148372239D02*
G75*
G03*
X47265211Y-148406955I67775J-1488D01*
G01*
X47291248Y-148431915D02*
G75*
G03*
X47330543Y-148446978I69394J122245D01*
G01*
X47485040Y-148432059D02*
G75*
G03*
X47574702Y-148372239I-106248J256354D01*
G01*
X47330543Y-148446978D02*
G75*
G03*
X47379037Y-148451999I46522J212636D01*
G01*
X44681342Y-148088918D02*
G75*
G03*
X44639881Y-148061054I-87240J-85034D01*
G01*
X44588963Y-148051765D02*
G75*
G03*
X44538725Y-148061054I-1540J-132165D01*
G01*
X47289412Y-148556648D02*
G75*
G03*
X47388787Y-148569057I96042J365022D01*
G01*
X47250649Y-147957087D02*
G75*
G03*
X47146647Y-148018484I136475J-349964D01*
G01*
X47379036Y-148451999D02*
G75*
G03*
X47485040Y-148432059I2560J278131D01*
G01*
X47150412Y-148459315D02*
G75*
G03*
X47206471Y-148519422I144726J78785D01*
G01*
X47480523Y-147946256D02*
G75*
G03*
X47389944Y-147934135I-87337J-308161D01*
G01*
X47299290Y-148317690D02*
G75*
G03*
X47275530Y-148329920I21637J-71236D01*
G01*
X47173474Y-148251882D02*
G75*
G03*
X47142167Y-148309944I147875J-117205D01*
G01*
X47142167Y-148309943D02*
G75*
G03*
X47131719Y-148378263I206132J-66483D01*
G01*
X47261281Y-148348104D02*
G75*
G03*
X47256525Y-148372239I53565J-23091D01*
G01*
X47266826Y-148198545D02*
G75*
G03*
X47228872Y-148210532I43757J-204632D01*
G01*
X47454174Y-148178255D02*
G75*
G03*
X47479018Y-148164375I-16478J58668D01*
G01*
X47604614Y-148042584D02*
G75*
G03*
X47554908Y-147982621I-139199J-64805D01*
G01*
X47146647Y-148018484D02*
X47223823Y-148109433D01*
X47311611Y-148192347D02*
G75*
G03*
X47266826Y-148198545I19489J-305759D01*
G01*
X47389944Y-147934135D02*
G75*
G03*
X47314513Y-147939871I-2598J-464663D01*
G01*
X47554908Y-147982621D02*
G75*
G03*
X47480523Y-147946255I-140568J-193267D01*
G01*
X47442441Y-148301086D02*
G75*
G03*
X47513024Y-148285557I-15471J238495D01*
G01*
X47332562Y-148311415D02*
G75*
G03*
X47299290Y-148317691I11082J-150078D01*
G01*
X47479018Y-148164375D02*
G75*
G03*
X47492036Y-148146265I-43956J45331D01*
G01*
X47314513Y-147939870D02*
G75*
G03*
X47250650Y-147957087I48614J-307392D01*
G01*
X44720068Y-148196079D02*
X44720068Y-148196079D01*
X47265210Y-148406954D02*
G75*
G03*
X47291248Y-148431915I59370J35869D01*
G01*
X49261203Y-148014755D02*
G75*
G03*
X49226201Y-148092793I150079J-114182D01*
G01*
X49329343Y-147957088D02*
G75*
G03*
X49261202Y-148014755I106202J-194582D01*
G01*
X44639881Y-148061054D02*
G75*
G03*
X44588963Y-148051765I-49289J-125976D01*
G01*
X47570405Y-148250447D02*
G75*
G03*
X47608488Y-148196760I-93836J106913D01*
G01*
X47389944Y-148051766D02*
G75*
G03*
X47300282Y-148067975I-3969J-234126D01*
G01*
X47206471Y-148519422D02*
G75*
G03*
X47289412Y-148556648I155952J236458D01*
G01*
X47492036Y-148146265D02*
G75*
G03*
X47496388Y-148126647I-42079J19626D01*
G01*
X44469427Y-148134285D02*
G75*
G03*
X44458134Y-148196079I191315J-66892D01*
G01*
X47440550Y-148057073D02*
G75*
G03*
X47389944Y-148051765I-46766J-201944D01*
G01*
X49374423Y-147939871D02*
G75*
G03*
X49329344Y-147957087I38634J-168784D01*
G01*
X47414328Y-148185176D02*
X47311611Y-148192348D01*
X47300282Y-148067975D02*
G75*
G03*
X47223823Y-148109433I159164J-384776D01*
G01*
X47131720Y-148378263D02*
G75*
G03*
X47150412Y-148459315I170580J-3341D01*
G01*
X49427321Y-147934135D02*
G75*
G03*
X49374422Y-147939871I-1644J-231614D01*
G01*
X47534544Y-148541442D02*
G75*
G03*
X47661921Y-148458598I-157819J382002D01*
G01*
X44538725Y-148061054D02*
G75*
G03*
X44497576Y-148088919I46262J-112635D01*
G01*
X49515041Y-147952209D02*
G75*
G03*
X49427321Y-147934135I-85461J-192875D01*
G01*
X47027319Y-143277384D02*
X46919788Y-143834750D01*
X45017006Y-145860920D02*
G75*
G03*
X45041323Y-145890377I30000J0D01*
G01*
X46406660Y-144047295D02*
X45936507Y-143729213D01*
X45620723Y-146015884D02*
X45814103Y-146482745D01*
X45493153Y-144172567D02*
X45811235Y-144642720D01*
X47056776Y-143253067D02*
G75*
G03*
X47027319Y-143277384I0J-30000D01*
G01*
X45811235Y-146511036D02*
X45493153Y-146981189D01*
X45620723Y-146015883D02*
G75*
G03*
X45598690Y-145997907I-27716J-11481D01*
G01*
X46687984Y-147175766D02*
X47081563Y-146211832D01*
X46434951Y-147103593D02*
G75*
G03*
X46406660Y-147106461I-11481J-27716D01*
G01*
X48246684Y-144050164D02*
X47779823Y-143856784D01*
X47081563Y-146211832D02*
G75*
G03*
X47066332Y-146173240I-27774J11340D01*
G01*
X48783153Y-143732847D02*
G75*
G03*
X48745128Y-143729213I-21214J-21214D01*
G01*
X46434951Y-147103592D02*
X46648730Y-147192142D01*
X45814104Y-144671012D02*
G75*
G03*
X45811235Y-144642720I-27717J11481D01*
G01*
X45598690Y-145155849D02*
X45041323Y-145263380D01*
X45814103Y-144671011D02*
X45620723Y-145137873D01*
X45936507Y-147424543D02*
X46406660Y-147106461D01*
X45496787Y-147019213D02*
X45898483Y-147420909D01*
X46406660Y-144047296D02*
G75*
G03*
X46434951Y-144050164I16810J24848D01*
G01*
X47761846Y-143834751D02*
G75*
G03*
X47779823Y-143856784I29457J5684D01*
G01*
X45017006Y-145292836D02*
X45017006Y-145860920D01*
X45496788Y-144134544D02*
G75*
G03*
X45493153Y-144172567I21212J-21213D01*
G01*
X45898483Y-143732848D02*
X45496787Y-144134543D01*
X48745128Y-143729213D02*
X48274975Y-144047295D01*
X49184848Y-144134543D02*
X48783152Y-143732848D01*
X46901812Y-143856784D02*
X46434951Y-144050164D01*
X48246685Y-144050163D02*
G75*
G03*
X48274975Y-144047295I11480J27715D01*
G01*
X46648730Y-147192142D02*
G75*
G03*
X46687984Y-147175766I11480J27716D01*
G01*
X45898482Y-147420909D02*
G75*
G03*
X45936507Y-147424543I21214J21214D01*
G01*
X47654316Y-143277384D02*
G75*
G03*
X47624859Y-143253067I-29457J-5683D01*
G01*
X45041323Y-145263379D02*
G75*
G03*
X45017006Y-145292836I5683J-29457D01*
G01*
X46901812Y-143856783D02*
G75*
G03*
X46919788Y-143834750I-11480J27716D01*
G01*
X45811234Y-146511035D02*
G75*
G03*
X45814103Y-146482745I-24847J16810D01*
G01*
X47624859Y-143253067D02*
X47056776Y-143253067D01*
X45936507Y-143729213D02*
G75*
G03*
X45898483Y-143732848I-16811J-24848D01*
G01*
X47761846Y-143834750D02*
X47654316Y-143277384D01*
X45598689Y-145155849D02*
G75*
G03*
X45620723Y-145137873I-5682J29457D01*
G01*
X45041323Y-145890377D02*
X45598690Y-145997907D01*
X45493152Y-146981189D02*
G75*
G03*
X45496787Y-147019213I24848J-16811D01*
G01*
D11*
X66014285Y-149186904D02*
X66280952Y-148805952D01*
X66471428Y-149186904D02*
X66471428Y-148386904D01*
X66166666Y-148386904D01*
X66090476Y-148425000D01*
X66052380Y-148463095D01*
X66014285Y-148539285D01*
X66014285Y-148653571D01*
X66052380Y-148729761D01*
X66090476Y-148767857D01*
X66166666Y-148805952D01*
X66471428Y-148805952D01*
X65671428Y-148767857D02*
X65404761Y-148767857D01*
X65290476Y-149186904D02*
X65671428Y-149186904D01*
X65671428Y-148386904D01*
X65290476Y-148386904D01*
X65061904Y-148386904D02*
X64795238Y-149186904D01*
X64528571Y-148386904D01*
X63233333Y-149186904D02*
X63690476Y-149186904D01*
X63461904Y-149186904D02*
X63461904Y-148386904D01*
X63538095Y-148501190D01*
X63614285Y-148577380D01*
X63690476Y-148615476D01*
X61709523Y-148348809D02*
X62395238Y-149377380D01*
X60871428Y-148463095D02*
X60833333Y-148425000D01*
X60757142Y-148386904D01*
X60566666Y-148386904D01*
X60490476Y-148425000D01*
X60452380Y-148463095D01*
X60414285Y-148539285D01*
X60414285Y-148615476D01*
X60452380Y-148729761D01*
X60909523Y-149186904D01*
X60414285Y-149186904D01*
X59919047Y-148386904D02*
X59842857Y-148386904D01*
X59766666Y-148425000D01*
X59728571Y-148463095D01*
X59690476Y-148539285D01*
X59652380Y-148691666D01*
X59652380Y-148882142D01*
X59690476Y-149034523D01*
X59728571Y-149110714D01*
X59766666Y-149148809D01*
X59842857Y-149186904D01*
X59919047Y-149186904D01*
X59995238Y-149148809D01*
X60033333Y-149110714D01*
X60071428Y-149034523D01*
X60109523Y-148882142D01*
X60109523Y-148691666D01*
X60071428Y-148539285D01*
X60033333Y-148463095D01*
X59995238Y-148425000D01*
X59919047Y-148386904D01*
X59347619Y-148463095D02*
X59309523Y-148425000D01*
X59233333Y-148386904D01*
X59042857Y-148386904D01*
X58966666Y-148425000D01*
X58928571Y-148463095D01*
X58890476Y-148539285D01*
X58890476Y-148615476D01*
X58928571Y-148729761D01*
X59385714Y-149186904D01*
X58890476Y-149186904D01*
X58128571Y-149186904D02*
X58585714Y-149186904D01*
X58357142Y-149186904D02*
X58357142Y-148386904D01*
X58433333Y-148501190D01*
X58509523Y-148577380D01*
X58585714Y-148615476D01*
X57785714Y-148882142D02*
X57176190Y-148882142D01*
X56566666Y-148386904D02*
X56566666Y-148958333D01*
X56604761Y-149072619D01*
X56680952Y-149148809D01*
X56795238Y-149186904D01*
X56871428Y-149186904D01*
X56223809Y-148958333D02*
X55842857Y-148958333D01*
X56300000Y-149186904D02*
X56033333Y-148386904D01*
X55766666Y-149186904D01*
X55500000Y-149186904D02*
X55500000Y-148386904D01*
X55042857Y-149186904D01*
X55042857Y-148386904D01*
X54661904Y-148882142D02*
X54052380Y-148882142D01*
X53252380Y-149186904D02*
X53709523Y-149186904D01*
X53480952Y-149186904D02*
X53480952Y-148386904D01*
X53557142Y-148501190D01*
X53633333Y-148577380D01*
X53709523Y-148615476D01*
X52566666Y-148386904D02*
X52719047Y-148386904D01*
X52795238Y-148425000D01*
X52833333Y-148463095D01*
X52909523Y-148577380D01*
X52947619Y-148729761D01*
X52947619Y-149034523D01*
X52909523Y-149110714D01*
X52871428Y-149148809D01*
X52795238Y-149186904D01*
X52642857Y-149186904D01*
X52566666Y-149148809D01*
X52528571Y-149110714D01*
X52490476Y-149034523D01*
X52490476Y-148844047D01*
X52528571Y-148767857D01*
X52566666Y-148729761D01*
X52642857Y-148691666D01*
X52795238Y-148691666D01*
X52871428Y-148729761D01*
X52909523Y-148767857D01*
X52947619Y-148844047D01*
D12*
%TO.C,J101*%
X69915000Y-129848000D02*
G75*
G03*
X69915000Y-129848000I-100000J0D01*
G01*
D13*
X65500000Y-127102000D02*
X65500000Y-126752000D01*
X65500000Y-126752000D02*
X68800000Y-126752000D01*
X68800000Y-126752000D02*
X68800000Y-127102000D01*
X65500000Y-138102000D02*
X65500000Y-138452000D01*
X65500000Y-138452000D02*
X68800000Y-138452000D01*
X68800000Y-138452000D02*
X68800000Y-138102000D01*
%TO.C,LS101*%
X86250000Y-137500000D02*
G75*
G03*
X86250000Y-137500000I-7500000J0D01*
G01*
D14*
%TO.C,C104*%
X63562500Y-127502500D02*
X63562500Y-128127500D01*
X63875000Y-127815000D02*
X63250000Y-127815000D01*
X63010000Y-131195563D02*
X61945563Y-132260000D01*
X63010000Y-127804437D02*
X61945563Y-126740000D01*
X63010000Y-127804437D02*
X63010000Y-128440000D01*
X63010000Y-131195563D02*
X63010000Y-130560000D01*
X61945563Y-132260000D02*
X57490000Y-132260000D01*
X61945563Y-126740000D02*
X57490000Y-126740000D01*
X57490000Y-126740000D02*
X57490000Y-128440000D01*
X57490000Y-132260000D02*
X57490000Y-130560000D01*
D10*
%TO.C,LCD101*%
X55464000Y-144603000D02*
X50464000Y-144603000D01*
X50464000Y-144603000D02*
X50464000Y-142903000D01*
X50464000Y-132203000D02*
X50464000Y-133903000D01*
X55464000Y-132203000D02*
X50464000Y-132203000D01*
X50464000Y-133903000D02*
X43084000Y-133903000D01*
X50464000Y-142903000D02*
X43084000Y-142903000D01*
X43084000Y-141353000D02*
X42164000Y-141353000D01*
X43084000Y-142903000D02*
X43084000Y-141353000D01*
X43084000Y-133903000D02*
X42164000Y-133903000D01*
X55464000Y-144603000D02*
X55464000Y-132203000D01*
D14*
%TO.C,R113*%
X67262742Y-138977500D02*
X67737258Y-138977500D01*
X67262742Y-140022500D02*
X67737258Y-140022500D01*
%TO.C,R112*%
X67487258Y-146772500D02*
X67012742Y-146772500D01*
X67487258Y-145727500D02*
X67012742Y-145727500D01*
%TO.C,R111*%
X67262742Y-140477500D02*
X67737258Y-140477500D01*
X67262742Y-141522500D02*
X67737258Y-141522500D01*
%TO.C,R110*%
X54262742Y-130477500D02*
X54737258Y-130477500D01*
X54262742Y-131522500D02*
X54737258Y-131522500D01*
%TO.C,R109*%
X59762742Y-145227500D02*
X60237258Y-145227500D01*
X59762742Y-146272500D02*
X60237258Y-146272500D01*
%TO.C,R108*%
X59762742Y-141727500D02*
X60237258Y-141727500D01*
X59762742Y-142772500D02*
X60237258Y-142772500D01*
%TO.C,R107*%
X59762742Y-138727500D02*
X60237258Y-138727500D01*
X59762742Y-139772500D02*
X60237258Y-139772500D01*
%TO.C,R106*%
X59762742Y-143477500D02*
X60237258Y-143477500D01*
X59762742Y-144522500D02*
X60237258Y-144522500D01*
%TO.C,R105*%
X59762742Y-140227500D02*
X60237258Y-140227500D01*
X59762742Y-141272500D02*
X60237258Y-141272500D01*
%TO.C,R104*%
X54737258Y-128522500D02*
X54262742Y-128522500D01*
X54737258Y-127477500D02*
X54262742Y-127477500D01*
%TO.C,R103*%
X54262742Y-128977500D02*
X54737258Y-128977500D01*
X54262742Y-130022500D02*
X54737258Y-130022500D01*
%TO.C,R102*%
X76487258Y-147772500D02*
X76012742Y-147772500D01*
X76487258Y-146727500D02*
X76012742Y-146727500D01*
%TO.C,R101*%
X76012742Y-148477500D02*
X76487258Y-148477500D01*
X76012742Y-149522500D02*
X76487258Y-149522500D01*
%TO.C,Q102*%
X65920000Y-142740000D02*
X65920000Y-144200000D01*
X69080000Y-142740000D02*
X69080000Y-144900000D01*
X69080000Y-142740000D02*
X68150000Y-142740000D01*
X65920000Y-142740000D02*
X66850000Y-142740000D01*
%TO.C,Q101*%
X47260000Y-128170000D02*
X45800000Y-128170000D01*
X47260000Y-131330000D02*
X45100000Y-131330000D01*
X47260000Y-131330000D02*
X47260000Y-130400000D01*
X47260000Y-128170000D02*
X47260000Y-129100000D01*
%TO.C,C103*%
X58990000Y-135640580D02*
X58990000Y-135359420D01*
X60010000Y-135640580D02*
X60010000Y-135359420D01*
%TO.C,C102*%
X57240000Y-135640580D02*
X57240000Y-135359420D01*
X58260000Y-135640580D02*
X58260000Y-135359420D01*
%TO.C,C101*%
X69140580Y-148510000D02*
X68859420Y-148510000D01*
X69140580Y-147490000D02*
X68859420Y-147490000D01*
%TO.C,J101*%
D11*
X71778571Y-127561904D02*
X71778571Y-128133333D01*
X71816666Y-128247619D01*
X71892857Y-128323809D01*
X72007142Y-128361904D01*
X72083333Y-128361904D01*
X70978571Y-128361904D02*
X71435714Y-128361904D01*
X71207142Y-128361904D02*
X71207142Y-127561904D01*
X71283333Y-127676190D01*
X71359523Y-127752380D01*
X71435714Y-127790476D01*
X70483333Y-127561904D02*
X70407142Y-127561904D01*
X70330952Y-127600000D01*
X70292857Y-127638095D01*
X70254761Y-127714285D01*
X70216666Y-127866666D01*
X70216666Y-128057142D01*
X70254761Y-128209523D01*
X70292857Y-128285714D01*
X70330952Y-128323809D01*
X70407142Y-128361904D01*
X70483333Y-128361904D01*
X70559523Y-128323809D01*
X70597619Y-128285714D01*
X70635714Y-128209523D01*
X70673809Y-128057142D01*
X70673809Y-127866666D01*
X70635714Y-127714285D01*
X70597619Y-127638095D01*
X70559523Y-127600000D01*
X70483333Y-127561904D01*
X69454761Y-128361904D02*
X69911904Y-128361904D01*
X69683333Y-128361904D02*
X69683333Y-127561904D01*
X69759523Y-127676190D01*
X69835714Y-127752380D01*
X69911904Y-127790476D01*
%TO.C,LS101*%
X77599861Y-129703691D02*
X78077431Y-129703691D01*
X78077431Y-128700793D01*
X77313318Y-129655934D02*
X77170047Y-129703691D01*
X76931262Y-129703691D01*
X76835748Y-129655934D01*
X76787991Y-129608177D01*
X76740234Y-129512663D01*
X76740234Y-129417149D01*
X76787991Y-129321635D01*
X76835748Y-129273878D01*
X76931262Y-129226121D01*
X77122290Y-129178364D01*
X77217804Y-129130607D01*
X77265561Y-129082850D01*
X77313318Y-128987336D01*
X77313318Y-128891822D01*
X77265561Y-128796308D01*
X77217804Y-128748551D01*
X77122290Y-128700793D01*
X76883505Y-128700793D01*
X76740234Y-128748551D01*
X75785093Y-129703691D02*
X76358177Y-129703691D01*
X76071635Y-129703691D02*
X76071635Y-128700793D01*
X76167149Y-128844065D01*
X76262663Y-128939579D01*
X76358177Y-128987336D01*
X75164251Y-128700793D02*
X75068737Y-128700793D01*
X74973223Y-128748551D01*
X74925466Y-128796308D01*
X74877709Y-128891822D01*
X74829952Y-129082850D01*
X74829952Y-129321635D01*
X74877709Y-129512663D01*
X74925466Y-129608177D01*
X74973223Y-129655934D01*
X75068737Y-129703691D01*
X75164251Y-129703691D01*
X75259765Y-129655934D01*
X75307522Y-129608177D01*
X75355279Y-129512663D01*
X75403036Y-129321635D01*
X75403036Y-129082850D01*
X75355279Y-128891822D01*
X75307522Y-128796308D01*
X75259765Y-128748551D01*
X75164251Y-128700793D01*
X73874811Y-129703691D02*
X74447895Y-129703691D01*
X74161353Y-129703691D02*
X74161353Y-128700793D01*
X74256867Y-128844065D01*
X74352381Y-128939579D01*
X74447895Y-128987336D01*
D15*
X69994841Y-137571683D02*
X69230218Y-137571683D01*
X69612530Y-137953994D02*
X69612530Y-137189372D01*
X87162920Y-137444513D02*
X86398159Y-137444513D01*
%TO.C,C104*%
D11*
X64085059Y-131819001D02*
X64138934Y-131819001D01*
X64246683Y-131765126D01*
X64300558Y-131711251D01*
X64354433Y-131603502D01*
X64354433Y-131495752D01*
X64327496Y-131414940D01*
X64246683Y-131280253D01*
X64165871Y-131199441D01*
X64031184Y-131118629D01*
X63950372Y-131091691D01*
X63842622Y-131091691D01*
X63734873Y-131145566D01*
X63680998Y-131199441D01*
X63627123Y-131307190D01*
X63627123Y-131361065D01*
X63600186Y-132411624D02*
X63923435Y-132088375D01*
X63761810Y-132250000D02*
X63196125Y-131684314D01*
X63330812Y-131711251D01*
X63438561Y-131711251D01*
X63519374Y-131684314D01*
X62684314Y-132196125D02*
X62630439Y-132250000D01*
X62603502Y-132330812D01*
X62603502Y-132384687D01*
X62630439Y-132465499D01*
X62711251Y-132600186D01*
X62845938Y-132734873D01*
X62980625Y-132815685D01*
X63061438Y-132842622D01*
X63115312Y-132842622D01*
X63196125Y-132815685D01*
X63250000Y-132761810D01*
X63276937Y-132680998D01*
X63276937Y-132627123D01*
X63250000Y-132546311D01*
X63169187Y-132411624D01*
X63034500Y-132276937D01*
X62899813Y-132196125D01*
X62819001Y-132169187D01*
X62765126Y-132169187D01*
X62684314Y-132196125D01*
X62199441Y-133058122D02*
X62576564Y-133435245D01*
X62118629Y-132707935D02*
X62657377Y-132977309D01*
X62307190Y-133327496D01*
%TO.C,LCD101*%
X49119047Y-138652380D02*
X49595238Y-138652380D01*
X49595238Y-137652380D01*
X48214285Y-138557142D02*
X48261904Y-138604761D01*
X48404761Y-138652380D01*
X48500000Y-138652380D01*
X48642857Y-138604761D01*
X48738095Y-138509523D01*
X48785714Y-138414285D01*
X48833333Y-138223809D01*
X48833333Y-138080952D01*
X48785714Y-137890476D01*
X48738095Y-137795238D01*
X48642857Y-137700000D01*
X48500000Y-137652380D01*
X48404761Y-137652380D01*
X48261904Y-137700000D01*
X48214285Y-137747619D01*
X47785714Y-138652380D02*
X47785714Y-137652380D01*
X47547619Y-137652380D01*
X47404761Y-137700000D01*
X47309523Y-137795238D01*
X47261904Y-137890476D01*
X47214285Y-138080952D01*
X47214285Y-138223809D01*
X47261904Y-138414285D01*
X47309523Y-138509523D01*
X47404761Y-138604761D01*
X47547619Y-138652380D01*
X47785714Y-138652380D01*
X46261904Y-138652380D02*
X46833333Y-138652380D01*
X46547619Y-138652380D02*
X46547619Y-137652380D01*
X46642857Y-137795238D01*
X46738095Y-137890476D01*
X46833333Y-137938095D01*
X45642857Y-137652380D02*
X45547619Y-137652380D01*
X45452380Y-137700000D01*
X45404761Y-137747619D01*
X45357142Y-137842857D01*
X45309523Y-138033333D01*
X45309523Y-138271428D01*
X45357142Y-138461904D01*
X45404761Y-138557142D01*
X45452380Y-138604761D01*
X45547619Y-138652380D01*
X45642857Y-138652380D01*
X45738095Y-138604761D01*
X45785714Y-138557142D01*
X45833333Y-138461904D01*
X45880952Y-138271428D01*
X45880952Y-138033333D01*
X45833333Y-137842857D01*
X45785714Y-137747619D01*
X45738095Y-137700000D01*
X45642857Y-137652380D01*
X44357142Y-138652380D02*
X44928571Y-138652380D01*
X44642857Y-138652380D02*
X44642857Y-137652380D01*
X44738095Y-137795238D01*
X44833333Y-137890476D01*
X44928571Y-137938095D01*
X51950880Y-142733714D02*
X51950880Y-142162285D01*
X51950880Y-142448000D02*
X50950880Y-142448000D01*
X51093738Y-142352761D01*
X51188976Y-142257523D01*
X51236595Y-142162285D01*
X51823880Y-134574023D02*
X51823880Y-134002595D01*
X51823880Y-134288309D02*
X50823880Y-134288309D01*
X50966738Y-134193071D01*
X51061976Y-134097833D01*
X51109595Y-134002595D01*
X50823880Y-134907357D02*
X50823880Y-135526404D01*
X51204833Y-135193071D01*
X51204833Y-135335928D01*
X51252452Y-135431166D01*
X51300071Y-135478785D01*
X51395309Y-135526404D01*
X51633404Y-135526404D01*
X51728642Y-135478785D01*
X51776261Y-135431166D01*
X51823880Y-135335928D01*
X51823880Y-135050214D01*
X51776261Y-134954976D01*
X51728642Y-134907357D01*
%TO.C,R113*%
X70627123Y-141388934D02*
X71085059Y-141308122D01*
X70950372Y-141712183D02*
X71516057Y-141146497D01*
X71300558Y-140930998D01*
X71219746Y-140904061D01*
X71165871Y-140904061D01*
X71085059Y-140930998D01*
X71004247Y-141011810D01*
X70977309Y-141092622D01*
X70977309Y-141146497D01*
X71004247Y-141227309D01*
X71219746Y-141442809D01*
X70088375Y-140850186D02*
X70411624Y-141173435D01*
X70249999Y-141011810D02*
X70815685Y-140446125D01*
X70788748Y-140580812D01*
X70788748Y-140688561D01*
X70815685Y-140769374D01*
X69549627Y-140311438D02*
X69872876Y-140634687D01*
X69711251Y-140473062D02*
X70276937Y-139907377D01*
X70249999Y-140042064D01*
X70249999Y-140149813D01*
X70276937Y-140230625D01*
X69926751Y-139557190D02*
X69576564Y-139207004D01*
X69549627Y-139611065D01*
X69468815Y-139530253D01*
X69388003Y-139503316D01*
X69334128Y-139503316D01*
X69253316Y-139530253D01*
X69118629Y-139664940D01*
X69091691Y-139745752D01*
X69091691Y-139799627D01*
X69118629Y-139880439D01*
X69280253Y-140042064D01*
X69361065Y-140069001D01*
X69414940Y-140069001D01*
%TO.C,R112*%
X71869047Y-146702380D02*
X72202380Y-146226190D01*
X72440476Y-146702380D02*
X72440476Y-145702380D01*
X72059523Y-145702380D01*
X71964285Y-145750000D01*
X71916666Y-145797619D01*
X71869047Y-145892857D01*
X71869047Y-146035714D01*
X71916666Y-146130952D01*
X71964285Y-146178571D01*
X72059523Y-146226190D01*
X72440476Y-146226190D01*
X70916666Y-146702380D02*
X71488095Y-146702380D01*
X71202380Y-146702380D02*
X71202380Y-145702380D01*
X71297619Y-145845238D01*
X71392857Y-145940476D01*
X71488095Y-145988095D01*
X69964285Y-146702380D02*
X70535714Y-146702380D01*
X70250000Y-146702380D02*
X70250000Y-145702380D01*
X70345238Y-145845238D01*
X70440476Y-145940476D01*
X70535714Y-145988095D01*
X69583333Y-145797619D02*
X69535714Y-145750000D01*
X69440476Y-145702380D01*
X69202380Y-145702380D01*
X69107142Y-145750000D01*
X69059523Y-145797619D01*
X69011904Y-145892857D01*
X69011904Y-145988095D01*
X69059523Y-146130952D01*
X69630952Y-146702380D01*
X69011904Y-146702380D01*
%TO.C,R111*%
X70627123Y-143138934D02*
X71085059Y-143058122D01*
X70950372Y-143462183D02*
X71516057Y-142896497D01*
X71300558Y-142680998D01*
X71219746Y-142654061D01*
X71165871Y-142654061D01*
X71085059Y-142680998D01*
X71004247Y-142761810D01*
X70977309Y-142842622D01*
X70977309Y-142896497D01*
X71004247Y-142977309D01*
X71219746Y-143192809D01*
X70088375Y-142600186D02*
X70411624Y-142923435D01*
X70249999Y-142761810D02*
X70815685Y-142196125D01*
X70788748Y-142330812D01*
X70788748Y-142438561D01*
X70815685Y-142519374D01*
X69549627Y-142061438D02*
X69872876Y-142384687D01*
X69711251Y-142223062D02*
X70276937Y-141657377D01*
X70249999Y-141792064D01*
X70249999Y-141899813D01*
X70276937Y-141980625D01*
X69010879Y-141522690D02*
X69334128Y-141845938D01*
X69172503Y-141684314D02*
X69738189Y-141118629D01*
X69711251Y-141253316D01*
X69711251Y-141361065D01*
X69738189Y-141441877D01*
%TO.C,R110*%
X52119047Y-131702380D02*
X52452380Y-131226190D01*
X52690476Y-131702380D02*
X52690476Y-130702380D01*
X52309523Y-130702380D01*
X52214285Y-130750000D01*
X52166666Y-130797619D01*
X52119047Y-130892857D01*
X52119047Y-131035714D01*
X52166666Y-131130952D01*
X52214285Y-131178571D01*
X52309523Y-131226190D01*
X52690476Y-131226190D01*
X51166666Y-131702380D02*
X51738095Y-131702380D01*
X51452380Y-131702380D02*
X51452380Y-130702380D01*
X51547619Y-130845238D01*
X51642857Y-130940476D01*
X51738095Y-130988095D01*
X50214285Y-131702380D02*
X50785714Y-131702380D01*
X50500000Y-131702380D02*
X50500000Y-130702380D01*
X50595238Y-130845238D01*
X50690476Y-130940476D01*
X50785714Y-130988095D01*
X49595238Y-130702380D02*
X49500000Y-130702380D01*
X49404761Y-130750000D01*
X49357142Y-130797619D01*
X49309523Y-130892857D01*
X49261904Y-131083333D01*
X49261904Y-131321428D01*
X49309523Y-131511904D01*
X49357142Y-131607142D01*
X49404761Y-131654761D01*
X49500000Y-131702380D01*
X49595238Y-131702380D01*
X49690476Y-131654761D01*
X49738095Y-131607142D01*
X49785714Y-131511904D01*
X49833333Y-131321428D01*
X49833333Y-131083333D01*
X49785714Y-130892857D01*
X49738095Y-130797619D01*
X49690476Y-130750000D01*
X49595238Y-130702380D01*
%TO.C,R109*%
X64619047Y-146202380D02*
X64952380Y-145726190D01*
X65190476Y-146202380D02*
X65190476Y-145202380D01*
X64809523Y-145202380D01*
X64714285Y-145250000D01*
X64666666Y-145297619D01*
X64619047Y-145392857D01*
X64619047Y-145535714D01*
X64666666Y-145630952D01*
X64714285Y-145678571D01*
X64809523Y-145726190D01*
X65190476Y-145726190D01*
X63666666Y-146202380D02*
X64238095Y-146202380D01*
X63952380Y-146202380D02*
X63952380Y-145202380D01*
X64047619Y-145345238D01*
X64142857Y-145440476D01*
X64238095Y-145488095D01*
X63047619Y-145202380D02*
X62952380Y-145202380D01*
X62857142Y-145250000D01*
X62809523Y-145297619D01*
X62761904Y-145392857D01*
X62714285Y-145583333D01*
X62714285Y-145821428D01*
X62761904Y-146011904D01*
X62809523Y-146107142D01*
X62857142Y-146154761D01*
X62952380Y-146202380D01*
X63047619Y-146202380D01*
X63142857Y-146154761D01*
X63190476Y-146107142D01*
X63238095Y-146011904D01*
X63285714Y-145821428D01*
X63285714Y-145583333D01*
X63238095Y-145392857D01*
X63190476Y-145297619D01*
X63142857Y-145250000D01*
X63047619Y-145202380D01*
X62238095Y-146202380D02*
X62047619Y-146202380D01*
X61952380Y-146154761D01*
X61904761Y-146107142D01*
X61809523Y-145964285D01*
X61761904Y-145773809D01*
X61761904Y-145392857D01*
X61809523Y-145297619D01*
X61857142Y-145250000D01*
X61952380Y-145202380D01*
X62142857Y-145202380D01*
X62238095Y-145250000D01*
X62285714Y-145297619D01*
X62333333Y-145392857D01*
X62333333Y-145630952D01*
X62285714Y-145726190D01*
X62238095Y-145773809D01*
X62142857Y-145821428D01*
X61952380Y-145821428D01*
X61857142Y-145773809D01*
X61809523Y-145726190D01*
X61761904Y-145630952D01*
%TO.C,R108*%
X64619047Y-142702380D02*
X64952380Y-142226190D01*
X65190476Y-142702380D02*
X65190476Y-141702380D01*
X64809523Y-141702380D01*
X64714285Y-141750000D01*
X64666666Y-141797619D01*
X64619047Y-141892857D01*
X64619047Y-142035714D01*
X64666666Y-142130952D01*
X64714285Y-142178571D01*
X64809523Y-142226190D01*
X65190476Y-142226190D01*
X63666666Y-142702380D02*
X64238095Y-142702380D01*
X63952380Y-142702380D02*
X63952380Y-141702380D01*
X64047619Y-141845238D01*
X64142857Y-141940476D01*
X64238095Y-141988095D01*
X63047619Y-141702380D02*
X62952380Y-141702380D01*
X62857142Y-141750000D01*
X62809523Y-141797619D01*
X62761904Y-141892857D01*
X62714285Y-142083333D01*
X62714285Y-142321428D01*
X62761904Y-142511904D01*
X62809523Y-142607142D01*
X62857142Y-142654761D01*
X62952380Y-142702380D01*
X63047619Y-142702380D01*
X63142857Y-142654761D01*
X63190476Y-142607142D01*
X63238095Y-142511904D01*
X63285714Y-142321428D01*
X63285714Y-142083333D01*
X63238095Y-141892857D01*
X63190476Y-141797619D01*
X63142857Y-141750000D01*
X63047619Y-141702380D01*
X62142857Y-142130952D02*
X62238095Y-142083333D01*
X62285714Y-142035714D01*
X62333333Y-141940476D01*
X62333333Y-141892857D01*
X62285714Y-141797619D01*
X62238095Y-141750000D01*
X62142857Y-141702380D01*
X61952380Y-141702380D01*
X61857142Y-141750000D01*
X61809523Y-141797619D01*
X61761904Y-141892857D01*
X61761904Y-141940476D01*
X61809523Y-142035714D01*
X61857142Y-142083333D01*
X61952380Y-142130952D01*
X62142857Y-142130952D01*
X62238095Y-142178571D01*
X62285714Y-142226190D01*
X62333333Y-142321428D01*
X62333333Y-142511904D01*
X62285714Y-142607142D01*
X62238095Y-142654761D01*
X62142857Y-142702380D01*
X61952380Y-142702380D01*
X61857142Y-142654761D01*
X61809523Y-142607142D01*
X61761904Y-142511904D01*
X61761904Y-142321428D01*
X61809523Y-142226190D01*
X61857142Y-142178571D01*
X61952380Y-142130952D01*
%TO.C,R107*%
X64619047Y-139702380D02*
X64952380Y-139226190D01*
X65190476Y-139702380D02*
X65190476Y-138702380D01*
X64809523Y-138702380D01*
X64714285Y-138750000D01*
X64666666Y-138797619D01*
X64619047Y-138892857D01*
X64619047Y-139035714D01*
X64666666Y-139130952D01*
X64714285Y-139178571D01*
X64809523Y-139226190D01*
X65190476Y-139226190D01*
X63666666Y-139702380D02*
X64238095Y-139702380D01*
X63952380Y-139702380D02*
X63952380Y-138702380D01*
X64047619Y-138845238D01*
X64142857Y-138940476D01*
X64238095Y-138988095D01*
X63047619Y-138702380D02*
X62952380Y-138702380D01*
X62857142Y-138750000D01*
X62809523Y-138797619D01*
X62761904Y-138892857D01*
X62714285Y-139083333D01*
X62714285Y-139321428D01*
X62761904Y-139511904D01*
X62809523Y-139607142D01*
X62857142Y-139654761D01*
X62952380Y-139702380D01*
X63047619Y-139702380D01*
X63142857Y-139654761D01*
X63190476Y-139607142D01*
X63238095Y-139511904D01*
X63285714Y-139321428D01*
X63285714Y-139083333D01*
X63238095Y-138892857D01*
X63190476Y-138797619D01*
X63142857Y-138750000D01*
X63047619Y-138702380D01*
X62380952Y-138702380D02*
X61714285Y-138702380D01*
X62142857Y-139702380D01*
%TO.C,R106*%
X64619047Y-144452380D02*
X64952380Y-143976190D01*
X65190476Y-144452380D02*
X65190476Y-143452380D01*
X64809523Y-143452380D01*
X64714285Y-143500000D01*
X64666666Y-143547619D01*
X64619047Y-143642857D01*
X64619047Y-143785714D01*
X64666666Y-143880952D01*
X64714285Y-143928571D01*
X64809523Y-143976190D01*
X65190476Y-143976190D01*
X63666666Y-144452380D02*
X64238095Y-144452380D01*
X63952380Y-144452380D02*
X63952380Y-143452380D01*
X64047619Y-143595238D01*
X64142857Y-143690476D01*
X64238095Y-143738095D01*
X63047619Y-143452380D02*
X62952380Y-143452380D01*
X62857142Y-143500000D01*
X62809523Y-143547619D01*
X62761904Y-143642857D01*
X62714285Y-143833333D01*
X62714285Y-144071428D01*
X62761904Y-144261904D01*
X62809523Y-144357142D01*
X62857142Y-144404761D01*
X62952380Y-144452380D01*
X63047619Y-144452380D01*
X63142857Y-144404761D01*
X63190476Y-144357142D01*
X63238095Y-144261904D01*
X63285714Y-144071428D01*
X63285714Y-143833333D01*
X63238095Y-143642857D01*
X63190476Y-143547619D01*
X63142857Y-143500000D01*
X63047619Y-143452380D01*
X61857142Y-143452380D02*
X62047619Y-143452380D01*
X62142857Y-143500000D01*
X62190476Y-143547619D01*
X62285714Y-143690476D01*
X62333333Y-143880952D01*
X62333333Y-144261904D01*
X62285714Y-144357142D01*
X62238095Y-144404761D01*
X62142857Y-144452380D01*
X61952380Y-144452380D01*
X61857142Y-144404761D01*
X61809523Y-144357142D01*
X61761904Y-144261904D01*
X61761904Y-144023809D01*
X61809523Y-143928571D01*
X61857142Y-143880952D01*
X61952380Y-143833333D01*
X62142857Y-143833333D01*
X62238095Y-143880952D01*
X62285714Y-143928571D01*
X62333333Y-144023809D01*
%TO.C,R105*%
X64619047Y-141202380D02*
X64952380Y-140726190D01*
X65190476Y-141202380D02*
X65190476Y-140202380D01*
X64809523Y-140202380D01*
X64714285Y-140250000D01*
X64666666Y-140297619D01*
X64619047Y-140392857D01*
X64619047Y-140535714D01*
X64666666Y-140630952D01*
X64714285Y-140678571D01*
X64809523Y-140726190D01*
X65190476Y-140726190D01*
X63666666Y-141202380D02*
X64238095Y-141202380D01*
X63952380Y-141202380D02*
X63952380Y-140202380D01*
X64047619Y-140345238D01*
X64142857Y-140440476D01*
X64238095Y-140488095D01*
X63047619Y-140202380D02*
X62952380Y-140202380D01*
X62857142Y-140250000D01*
X62809523Y-140297619D01*
X62761904Y-140392857D01*
X62714285Y-140583333D01*
X62714285Y-140821428D01*
X62761904Y-141011904D01*
X62809523Y-141107142D01*
X62857142Y-141154761D01*
X62952380Y-141202380D01*
X63047619Y-141202380D01*
X63142857Y-141154761D01*
X63190476Y-141107142D01*
X63238095Y-141011904D01*
X63285714Y-140821428D01*
X63285714Y-140583333D01*
X63238095Y-140392857D01*
X63190476Y-140297619D01*
X63142857Y-140250000D01*
X63047619Y-140202380D01*
X61809523Y-140202380D02*
X62285714Y-140202380D01*
X62333333Y-140678571D01*
X62285714Y-140630952D01*
X62190476Y-140583333D01*
X61952380Y-140583333D01*
X61857142Y-140630952D01*
X61809523Y-140678571D01*
X61761904Y-140773809D01*
X61761904Y-141011904D01*
X61809523Y-141107142D01*
X61857142Y-141154761D01*
X61952380Y-141202380D01*
X62190476Y-141202380D01*
X62285714Y-141154761D01*
X62333333Y-141107142D01*
%TO.C,R104*%
X52119047Y-128452380D02*
X52452380Y-127976190D01*
X52690476Y-128452380D02*
X52690476Y-127452380D01*
X52309523Y-127452380D01*
X52214285Y-127500000D01*
X52166666Y-127547619D01*
X52119047Y-127642857D01*
X52119047Y-127785714D01*
X52166666Y-127880952D01*
X52214285Y-127928571D01*
X52309523Y-127976190D01*
X52690476Y-127976190D01*
X51166666Y-128452380D02*
X51738095Y-128452380D01*
X51452380Y-128452380D02*
X51452380Y-127452380D01*
X51547619Y-127595238D01*
X51642857Y-127690476D01*
X51738095Y-127738095D01*
X50547619Y-127452380D02*
X50452380Y-127452380D01*
X50357142Y-127500000D01*
X50309523Y-127547619D01*
X50261904Y-127642857D01*
X50214285Y-127833333D01*
X50214285Y-128071428D01*
X50261904Y-128261904D01*
X50309523Y-128357142D01*
X50357142Y-128404761D01*
X50452380Y-128452380D01*
X50547619Y-128452380D01*
X50642857Y-128404761D01*
X50690476Y-128357142D01*
X50738095Y-128261904D01*
X50785714Y-128071428D01*
X50785714Y-127833333D01*
X50738095Y-127642857D01*
X50690476Y-127547619D01*
X50642857Y-127500000D01*
X50547619Y-127452380D01*
X49357142Y-127785714D02*
X49357142Y-128452380D01*
X49595238Y-127404761D02*
X49833333Y-128119047D01*
X49214285Y-128119047D01*
%TO.C,R103*%
X52119047Y-129952380D02*
X52452380Y-129476190D01*
X52690476Y-129952380D02*
X52690476Y-128952380D01*
X52309523Y-128952380D01*
X52214285Y-129000000D01*
X52166666Y-129047619D01*
X52119047Y-129142857D01*
X52119047Y-129285714D01*
X52166666Y-129380952D01*
X52214285Y-129428571D01*
X52309523Y-129476190D01*
X52690476Y-129476190D01*
X51166666Y-129952380D02*
X51738095Y-129952380D01*
X51452380Y-129952380D02*
X51452380Y-128952380D01*
X51547619Y-129095238D01*
X51642857Y-129190476D01*
X51738095Y-129238095D01*
X50547619Y-128952380D02*
X50452380Y-128952380D01*
X50357142Y-129000000D01*
X50309523Y-129047619D01*
X50261904Y-129142857D01*
X50214285Y-129333333D01*
X50214285Y-129571428D01*
X50261904Y-129761904D01*
X50309523Y-129857142D01*
X50357142Y-129904761D01*
X50452380Y-129952380D01*
X50547619Y-129952380D01*
X50642857Y-129904761D01*
X50690476Y-129857142D01*
X50738095Y-129761904D01*
X50785714Y-129571428D01*
X50785714Y-129333333D01*
X50738095Y-129142857D01*
X50690476Y-129047619D01*
X50642857Y-129000000D01*
X50547619Y-128952380D01*
X49880952Y-128952380D02*
X49261904Y-128952380D01*
X49595238Y-129333333D01*
X49452380Y-129333333D01*
X49357142Y-129380952D01*
X49309523Y-129428571D01*
X49261904Y-129523809D01*
X49261904Y-129761904D01*
X49309523Y-129857142D01*
X49357142Y-129904761D01*
X49452380Y-129952380D01*
X49738095Y-129952380D01*
X49833333Y-129904761D01*
X49880952Y-129857142D01*
%TO.C,R102*%
X80869047Y-147702380D02*
X81202380Y-147226190D01*
X81440476Y-147702380D02*
X81440476Y-146702380D01*
X81059523Y-146702380D01*
X80964285Y-146750000D01*
X80916666Y-146797619D01*
X80869047Y-146892857D01*
X80869047Y-147035714D01*
X80916666Y-147130952D01*
X80964285Y-147178571D01*
X81059523Y-147226190D01*
X81440476Y-147226190D01*
X79916666Y-147702380D02*
X80488095Y-147702380D01*
X80202380Y-147702380D02*
X80202380Y-146702380D01*
X80297619Y-146845238D01*
X80392857Y-146940476D01*
X80488095Y-146988095D01*
X79297619Y-146702380D02*
X79202380Y-146702380D01*
X79107142Y-146750000D01*
X79059523Y-146797619D01*
X79011904Y-146892857D01*
X78964285Y-147083333D01*
X78964285Y-147321428D01*
X79011904Y-147511904D01*
X79059523Y-147607142D01*
X79107142Y-147654761D01*
X79202380Y-147702380D01*
X79297619Y-147702380D01*
X79392857Y-147654761D01*
X79440476Y-147607142D01*
X79488095Y-147511904D01*
X79535714Y-147321428D01*
X79535714Y-147083333D01*
X79488095Y-146892857D01*
X79440476Y-146797619D01*
X79392857Y-146750000D01*
X79297619Y-146702380D01*
X78583333Y-146797619D02*
X78535714Y-146750000D01*
X78440476Y-146702380D01*
X78202380Y-146702380D01*
X78107142Y-146750000D01*
X78059523Y-146797619D01*
X78011904Y-146892857D01*
X78011904Y-146988095D01*
X78059523Y-147130952D01*
X78630952Y-147702380D01*
X78011904Y-147702380D01*
%TO.C,R101*%
X80694047Y-149452380D02*
X81027380Y-148976190D01*
X81265476Y-149452380D02*
X81265476Y-148452380D01*
X80884523Y-148452380D01*
X80789285Y-148500000D01*
X80741666Y-148547619D01*
X80694047Y-148642857D01*
X80694047Y-148785714D01*
X80741666Y-148880952D01*
X80789285Y-148928571D01*
X80884523Y-148976190D01*
X81265476Y-148976190D01*
X79741666Y-149452380D02*
X80313095Y-149452380D01*
X80027380Y-149452380D02*
X80027380Y-148452380D01*
X80122619Y-148595238D01*
X80217857Y-148690476D01*
X80313095Y-148738095D01*
X79122619Y-148452380D02*
X79027380Y-148452380D01*
X78932142Y-148500000D01*
X78884523Y-148547619D01*
X78836904Y-148642857D01*
X78789285Y-148833333D01*
X78789285Y-149071428D01*
X78836904Y-149261904D01*
X78884523Y-149357142D01*
X78932142Y-149404761D01*
X79027380Y-149452380D01*
X79122619Y-149452380D01*
X79217857Y-149404761D01*
X79265476Y-149357142D01*
X79313095Y-149261904D01*
X79360714Y-149071428D01*
X79360714Y-148833333D01*
X79313095Y-148642857D01*
X79265476Y-148547619D01*
X79217857Y-148500000D01*
X79122619Y-148452380D01*
X77836904Y-149452380D02*
X78408333Y-149452380D01*
X78122619Y-149452380D02*
X78122619Y-148452380D01*
X78217857Y-148595238D01*
X78313095Y-148690476D01*
X78408333Y-148738095D01*
%TO.C,Q102*%
X72297619Y-145297619D02*
X72392857Y-145250000D01*
X72488095Y-145154761D01*
X72630952Y-145011904D01*
X72726190Y-144964285D01*
X72821428Y-144964285D01*
X72773809Y-145202380D02*
X72869047Y-145154761D01*
X72964285Y-145059523D01*
X73011904Y-144869047D01*
X73011904Y-144535714D01*
X72964285Y-144345238D01*
X72869047Y-144250000D01*
X72773809Y-144202380D01*
X72583333Y-144202380D01*
X72488095Y-144250000D01*
X72392857Y-144345238D01*
X72345238Y-144535714D01*
X72345238Y-144869047D01*
X72392857Y-145059523D01*
X72488095Y-145154761D01*
X72583333Y-145202380D01*
X72773809Y-145202380D01*
X71392857Y-145202380D02*
X71964285Y-145202380D01*
X71678571Y-145202380D02*
X71678571Y-144202380D01*
X71773809Y-144345238D01*
X71869047Y-144440476D01*
X71964285Y-144488095D01*
X70773809Y-144202380D02*
X70678571Y-144202380D01*
X70583333Y-144250000D01*
X70535714Y-144297619D01*
X70488095Y-144392857D01*
X70440476Y-144583333D01*
X70440476Y-144821428D01*
X70488095Y-145011904D01*
X70535714Y-145107142D01*
X70583333Y-145154761D01*
X70678571Y-145202380D01*
X70773809Y-145202380D01*
X70869047Y-145154761D01*
X70916666Y-145107142D01*
X70964285Y-145011904D01*
X71011904Y-144821428D01*
X71011904Y-144583333D01*
X70964285Y-144392857D01*
X70916666Y-144297619D01*
X70869047Y-144250000D01*
X70773809Y-144202380D01*
X70059523Y-144297619D02*
X70011904Y-144250000D01*
X69916666Y-144202380D01*
X69678571Y-144202380D01*
X69583333Y-144250000D01*
X69535714Y-144297619D01*
X69488095Y-144392857D01*
X69488095Y-144488095D01*
X69535714Y-144630952D01*
X70107142Y-145202380D01*
X69488095Y-145202380D01*
%TO.C,Q101*%
X47547619Y-132797619D02*
X47642857Y-132750000D01*
X47738095Y-132654761D01*
X47880952Y-132511904D01*
X47976190Y-132464285D01*
X48071428Y-132464285D01*
X48023809Y-132702380D02*
X48119047Y-132654761D01*
X48214285Y-132559523D01*
X48261904Y-132369047D01*
X48261904Y-132035714D01*
X48214285Y-131845238D01*
X48119047Y-131750000D01*
X48023809Y-131702380D01*
X47833333Y-131702380D01*
X47738095Y-131750000D01*
X47642857Y-131845238D01*
X47595238Y-132035714D01*
X47595238Y-132369047D01*
X47642857Y-132559523D01*
X47738095Y-132654761D01*
X47833333Y-132702380D01*
X48023809Y-132702380D01*
X46642857Y-132702380D02*
X47214285Y-132702380D01*
X46928571Y-132702380D02*
X46928571Y-131702380D01*
X47023809Y-131845238D01*
X47119047Y-131940476D01*
X47214285Y-131988095D01*
X46023809Y-131702380D02*
X45928571Y-131702380D01*
X45833333Y-131750000D01*
X45785714Y-131797619D01*
X45738095Y-131892857D01*
X45690476Y-132083333D01*
X45690476Y-132321428D01*
X45738095Y-132511904D01*
X45785714Y-132607142D01*
X45833333Y-132654761D01*
X45928571Y-132702380D01*
X46023809Y-132702380D01*
X46119047Y-132654761D01*
X46166666Y-132607142D01*
X46214285Y-132511904D01*
X46261904Y-132321428D01*
X46261904Y-132083333D01*
X46214285Y-131892857D01*
X46166666Y-131797619D01*
X46119047Y-131750000D01*
X46023809Y-131702380D01*
X44738095Y-132702380D02*
X45309523Y-132702380D01*
X45023809Y-132702380D02*
X45023809Y-131702380D01*
X45119047Y-131845238D01*
X45214285Y-131940476D01*
X45309523Y-131988095D01*
%TO.C,C103*%
X61357142Y-134380952D02*
X61404761Y-134333333D01*
X61452380Y-134190476D01*
X61452380Y-134095238D01*
X61404761Y-133952380D01*
X61309523Y-133857142D01*
X61214285Y-133809523D01*
X61023809Y-133761904D01*
X60880952Y-133761904D01*
X60690476Y-133809523D01*
X60595238Y-133857142D01*
X60500000Y-133952380D01*
X60452380Y-134095238D01*
X60452380Y-134190476D01*
X60500000Y-134333333D01*
X60547619Y-134380952D01*
X61452380Y-135333333D02*
X61452380Y-134761904D01*
X61452380Y-135047619D02*
X60452380Y-135047619D01*
X60595238Y-134952380D01*
X60690476Y-134857142D01*
X60738095Y-134761904D01*
X60452380Y-135952380D02*
X60452380Y-136047619D01*
X60500000Y-136142857D01*
X60547619Y-136190476D01*
X60642857Y-136238095D01*
X60833333Y-136285714D01*
X61071428Y-136285714D01*
X61261904Y-136238095D01*
X61357142Y-136190476D01*
X61404761Y-136142857D01*
X61452380Y-136047619D01*
X61452380Y-135952380D01*
X61404761Y-135857142D01*
X61357142Y-135809523D01*
X61261904Y-135761904D01*
X61071428Y-135714285D01*
X60833333Y-135714285D01*
X60642857Y-135761904D01*
X60547619Y-135809523D01*
X60500000Y-135857142D01*
X60452380Y-135952380D01*
X60452380Y-136619047D02*
X60452380Y-137238095D01*
X60833333Y-136904761D01*
X60833333Y-137047619D01*
X60880952Y-137142857D01*
X60928571Y-137190476D01*
X61023809Y-137238095D01*
X61261904Y-137238095D01*
X61357142Y-137190476D01*
X61404761Y-137142857D01*
X61452380Y-137047619D01*
X61452380Y-136761904D01*
X61404761Y-136666666D01*
X61357142Y-136619047D01*
%TO.C,C102*%
X58107142Y-137630952D02*
X58154761Y-137583333D01*
X58202380Y-137440476D01*
X58202380Y-137345238D01*
X58154761Y-137202380D01*
X58059523Y-137107142D01*
X57964285Y-137059523D01*
X57773809Y-137011904D01*
X57630952Y-137011904D01*
X57440476Y-137059523D01*
X57345238Y-137107142D01*
X57250000Y-137202380D01*
X57202380Y-137345238D01*
X57202380Y-137440476D01*
X57250000Y-137583333D01*
X57297619Y-137630952D01*
X58202380Y-138583333D02*
X58202380Y-138011904D01*
X58202380Y-138297619D02*
X57202380Y-138297619D01*
X57345238Y-138202380D01*
X57440476Y-138107142D01*
X57488095Y-138011904D01*
X57202380Y-139202380D02*
X57202380Y-139297619D01*
X57250000Y-139392857D01*
X57297619Y-139440476D01*
X57392857Y-139488095D01*
X57583333Y-139535714D01*
X57821428Y-139535714D01*
X58011904Y-139488095D01*
X58107142Y-139440476D01*
X58154761Y-139392857D01*
X58202380Y-139297619D01*
X58202380Y-139202380D01*
X58154761Y-139107142D01*
X58107142Y-139059523D01*
X58011904Y-139011904D01*
X57821428Y-138964285D01*
X57583333Y-138964285D01*
X57392857Y-139011904D01*
X57297619Y-139059523D01*
X57250000Y-139107142D01*
X57202380Y-139202380D01*
X57297619Y-139916666D02*
X57250000Y-139964285D01*
X57202380Y-140059523D01*
X57202380Y-140297619D01*
X57250000Y-140392857D01*
X57297619Y-140440476D01*
X57392857Y-140488095D01*
X57488095Y-140488095D01*
X57630952Y-140440476D01*
X58202380Y-139869047D01*
X58202380Y-140488095D01*
%TO.C,C101*%
X73619047Y-148357142D02*
X73666666Y-148404761D01*
X73809523Y-148452380D01*
X73904761Y-148452380D01*
X74047619Y-148404761D01*
X74142857Y-148309523D01*
X74190476Y-148214285D01*
X74238095Y-148023809D01*
X74238095Y-147880952D01*
X74190476Y-147690476D01*
X74142857Y-147595238D01*
X74047619Y-147500000D01*
X73904761Y-147452380D01*
X73809523Y-147452380D01*
X73666666Y-147500000D01*
X73619047Y-147547619D01*
X72666666Y-148452380D02*
X73238095Y-148452380D01*
X72952380Y-148452380D02*
X72952380Y-147452380D01*
X73047619Y-147595238D01*
X73142857Y-147690476D01*
X73238095Y-147738095D01*
X72047619Y-147452380D02*
X71952380Y-147452380D01*
X71857142Y-147500000D01*
X71809523Y-147547619D01*
X71761904Y-147642857D01*
X71714285Y-147833333D01*
X71714285Y-148071428D01*
X71761904Y-148261904D01*
X71809523Y-148357142D01*
X71857142Y-148404761D01*
X71952380Y-148452380D01*
X72047619Y-148452380D01*
X72142857Y-148404761D01*
X72190476Y-148357142D01*
X72238095Y-148261904D01*
X72285714Y-148071428D01*
X72285714Y-147833333D01*
X72238095Y-147642857D01*
X72190476Y-147547619D01*
X72142857Y-147500000D01*
X72047619Y-147452380D01*
X70761904Y-148452380D02*
X71333333Y-148452380D01*
X71047619Y-148452380D02*
X71047619Y-147452380D01*
X71142857Y-147595238D01*
X71238095Y-147690476D01*
X71333333Y-147738095D01*
%TD*%
M02*
