M48
; DRILL file {KiCad (5.1.8)-1} date 01/16/21 15:49:29
; FORMAT={-:-/ absolute / inch / decimal}
; #@! TF.CreationDate,2021-01-16T15:49:29-05:00
; #@! TF.GenerationSoftware,Kicad,Pcbnew,(5.1.8)-1
FMAT,2
INCH
T1C0.0138
T2C0.0394
T3C0.0138
T4C0.0827
%
G90
G05
T1
X1.7618Y-5.1476
X1.9094Y-5.1327
X2.0276Y-5.3839
X2.0276Y-5.4134
X2.0276Y-5.4429
X2.0276Y-5.4724
X2.0276Y-5.502
X2.0276Y-5.5315
X2.0276Y-5.561
X2.0768Y-5.2854
X2.0768Y-5.3445
X2.0768Y-5.4232
X2.1654Y-5.2559
X2.2146Y-5.0984
X2.2343Y-5.3396
X2.2343Y-5.4232
X2.2736Y-5.2756
X2.2933Y-5.0098
X2.3228Y-5.0098
X2.3425Y-5.2756
X2.3524Y-5.0098
X2.3622Y-5.0984
X2.372Y-5.0591
X2.3819Y-5.0098
X2.4026Y-5.3652
X2.4114Y-5.0098
X2.4311Y-5.1772
X2.4311Y-5.4823
X2.4409Y-5.0098
X2.4409Y-5.5413
X2.452Y-5.1969
X2.4606Y-5.6004
X2.4705Y-5.5413
X2.4803Y-5.2362
X2.5Y-5.5118
X2.5492Y-5.3248
X2.5886Y-5.689
X2.6476Y-5.8268
X2.7559Y-5.2461
X2.7559Y-5.7776
X2.7657Y-5.1575
X2.7756Y-5.2165
X2.7838Y-5.3522
X2.7875Y-5.2861
X2.7953Y-5.3248
X2.8299Y-5.7925
X2.87Y-5.6948
X2.9035Y-5.1772
X2.9331Y-5.6201
X2.9626Y-5.2067
X2.9823Y-5.2854
X3.0882Y-5.6963
X3.1299Y-5.6201
X3.1594Y-5.502
X3.189Y-5.6201
T2
X2.0261Y-5.2442
X2.0261Y-5.6537
X2.9508Y-5.4134
X3.25Y-5.4134
T3
X2.4172Y-5.9205
X2.4467Y-5.9205
X2.4762Y-5.9205
X2.4172Y-4.9756
X2.4467Y-4.9756
X2.4762Y-4.9756
X3.1258Y-5.9205
X3.1554Y-5.9205
X3.1849Y-5.9205
X1.7085Y-4.9756
X1.738Y-4.9756
X1.7676Y-4.9756
X1.7085Y-5.9205
X1.738Y-5.9205
X1.7676Y-5.9205
X3.1258Y-4.9756
X3.1554Y-4.9756
X3.1849Y-4.9756
T4
X3.3325Y-5.074
X1.5609Y-5.074
X1.5609Y-5.822
X3.3325Y-5.822
T0
M30
