%
M48
M72
T01C0.0118
T02C0.0157
T03C0.0236
T04C0.0276
T05C0.0315
T06C0.0320
T07C0.0394
T08C0.0400
T09C0.0472
T10C0.0480
T11C0.1000
T12C0.1083
T13C0.1299
%
T01
X1877Y4725
X2077Y5425
X9777Y14025
X9777Y17425
X8277Y18825
X5777Y21125
X3850Y23519
X2677Y18625
X2777Y17925
X16477Y18425
X20681Y17125
X21677Y17625
X22677Y17125
X24677Y17825
X27477Y16625
X27777Y16925
X28000Y17290
X27577Y15925
X27577Y15325
X27477Y14125
X27877Y13725
X25577Y14825
X31177Y15925
X31677Y15325
X32877Y17825
X32377Y19225
X32377Y19725
X36477Y21825
X38477Y22225
X39277Y22225
X39977Y22225
X39677Y23425
X36577Y25025
X35477Y24225
X34977Y25425
X35277Y25825
X35977Y26225
X35277Y27425
X27977Y21225
X23777Y26825
X37977Y15625
X34665Y12487
X35177Y11825
X34577Y10725
X35477Y10525
X36358Y9692
X35477Y9025
X36358Y8196
X35477Y7525
X34877Y7025
X36358Y6700
X36358Y4964
X38011Y9298
X36777Y11925
X38996Y11975
X33177Y11782
X32877Y12225
X32477Y10825
X31909Y10040
T02
X29177Y12925
X26977Y16325
X28877Y17925
X38177Y10725
X38147Y9975
X38147Y8775
X38147Y7775
X32877Y6325
X17977Y16625
X16977Y14825
X4077Y26225
X2777Y9025
X6877Y2125
T03
X24177Y16485
X25277Y17725
X26577Y14225
X19077Y18225
X19677Y25325
X26877Y27425
X29777Y25325
X32377Y23325
X3277Y21525
T04
X4377Y8319
X4377Y7531
T05
X777Y7925
X1377Y11625
X35996Y13625
X36783Y13625
X37570Y13625
X38358Y13625
X41196Y13625
X41983Y13625
X42770Y13625
X43558Y13625
X43558Y19925
X42770Y19925
X41983Y19925
X41196Y19925
X38358Y19925
X37570Y19925
X36783Y19925
X35996Y19925
T06
X29177Y26375
X28177Y26375
X28177Y3875
X29177Y3875
T07
X33927Y6125
X30927Y8125
X33927Y11125
X30927Y13125
X33927Y16125
X30927Y18125
X33927Y21125
X30927Y23125
X25677Y20625
X24677Y20625
X23677Y20625
X22677Y20625
X21677Y20625
X20677Y20625
X19677Y20625
X18677Y20625
X17677Y20625
X16677Y20625
X15677Y20625
X14677Y20625
X13677Y20625
X12677Y20625
X11677Y20625
X10677Y20625
X9677Y20625
X8677Y20625
X7677Y20625
X6677Y20625
X6677Y19625
X7677Y19625
X8677Y19625
X9677Y19625
X10677Y19625
X11677Y19625
X12677Y19625
X13677Y19625
X14677Y19625
X15677Y19625
X16677Y19625
X17677Y19625
X18677Y19625
X19677Y19625
X20677Y19625
X21677Y19625
X22677Y19625
X23677Y19625
X24677Y19625
X25677Y19625
T08
X25598Y24515
X24598Y24515
X23598Y24515
X22598Y24515
X21598Y24515
X20598Y24515
X19598Y24515
X18598Y24515
X17598Y24515
X16598Y24515
X15598Y24515
X14598Y24515
X13598Y24515
X12598Y24515
X21077Y28525
X22077Y28525
X23077Y28525
X24077Y28525
X26598Y24515
X27598Y24515
X2577Y28425
X1577Y28425
T09
X3327Y2475
X4827Y2475
X36477Y16275
X37477Y16275
X38477Y16275
X39477Y16275
X40477Y16275
X41477Y16275
X42477Y16275
X43477Y16275
X43477Y17275
X42477Y17275
X41477Y17275
X40477Y17275
X39477Y17275
X38477Y17275
X37477Y17275
X36477Y17275
X47527Y17875
X47527Y19375
X47527Y20875
X47527Y22375
X47527Y23875
X47527Y25375
X47527Y26875
X47527Y28375
X47527Y12375
X47527Y10875
X47527Y9375
X47527Y7875
X47527Y6375
X47527Y4875
X47527Y3375
X47527Y1875
T10
X33927Y9125
X31927Y7125
X31927Y12125
X33927Y14125
X31927Y17125
X33927Y19125
X31927Y22125
X33927Y24125
T11
X38827Y25125
X38827Y5125
X7577Y5125
X7577Y25125
T12
X4759Y20125
X4759Y11070
X27594Y11070
X27594Y20125
T13
X27972Y23432
X12224Y23432
X12224Y7290
M30
