G75*
%MOIN*%
%OFA0B0*%
%FSLAX25Y25*%
%IPPOS*%
%LPD*%
%AMOC8*
5,1,8,0,0,1.08239X$1,22.5*
%
%ADD10C,0.10500*%
%ADD11R,0.04437X0.04240*%
%ADD12R,0.04437X0.04831*%
%ADD13R,0.04043X0.02862*%
%ADD14R,0.03465X0.01378*%
%ADD15R,0.01378X0.03465*%
%ADD16R,0.06406X0.06406*%
%ADD17R,0.04240X0.04437*%
%ADD18R,0.05224X0.02665*%
%ADD19C,0.06200*%
%ADD20R,0.02862X0.04043*%
%ADD21R,0.02665X0.05224*%
%ADD22R,0.03650X0.03650*%
%ADD23R,0.05028X0.06209*%
%ADD24R,0.06300X0.01900*%
%ADD25R,0.01500X0.03000*%
%ADD26R,0.04724X0.00600*%
%ADD27R,0.04831X0.04437*%
%ADD28R,0.03000X0.01500*%
%ADD29R,0.00600X0.04724*%
%ADD30C,0.07705*%
%ADD31C,0.04437*%
%ADD32R,0.04043X0.03650*%
%ADD33R,0.07500X0.07500*%
%ADD34C,0.07500*%
%ADD35C,0.11327*%
%ADD36OC8,0.07500*%
%ADD37C,0.13492*%
%ADD38R,0.05224X0.03650*%
%ADD39R,0.06799X0.14280*%
%ADD40C,0.07900*%
%ADD41R,0.05500X0.05500*%
%ADD42C,0.05500*%
%ADD43R,0.03650X0.04043*%
%ADD44C,0.08374*%
%ADD45C,0.02862*%
%ADD46R,0.01900X0.06300*%
%ADD47R,0.06799X0.04043*%
%ADD48R,0.07900X0.07900*%
%ADD49R,0.07587X0.07587*%
%ADD50C,0.07587*%
%ADD51R,0.06799X0.15461*%
%ADD52C,0.02681*%
%ADD53C,0.03075*%
%ADD54C,0.05224*%
%ADD55C,0.04043*%
D10*
X0075768Y0051250D03*
X0075768Y0251250D03*
X0388268Y0251250D03*
X0388268Y0051250D03*
D11*
X0169768Y0153100D03*
X0169768Y0159400D03*
X0027768Y0085400D03*
X0027768Y0079100D03*
X0017768Y0079100D03*
X0017768Y0085400D03*
X0007500Y0247030D03*
X0007500Y0253329D03*
X0027035Y0253470D03*
X0027035Y0247171D03*
D12*
X0020500Y0246833D03*
X0014035Y0246974D03*
X0014035Y0253667D03*
X0020500Y0253526D03*
X0185886Y0238762D03*
X0185886Y0232762D03*
X0195886Y0232596D03*
X0195886Y0238596D03*
X0205886Y0238179D03*
X0205886Y0232179D03*
X0215886Y0232344D03*
X0215886Y0238344D03*
X0225768Y0238250D03*
X0225768Y0232250D03*
X0190768Y0263904D03*
X0190768Y0270596D03*
X0263768Y0278904D03*
X0263768Y0285596D03*
D13*
X0243768Y0269203D03*
X0243768Y0263297D03*
X0224768Y0261297D03*
X0224768Y0267203D03*
X0301720Y0263502D03*
X0301720Y0257596D03*
X0319161Y0233896D03*
X0319161Y0227990D03*
X0384768Y0219203D03*
X0384768Y0213297D03*
X0392768Y0213297D03*
X0399768Y0213297D03*
X0399768Y0219203D03*
X0392768Y0219203D03*
X0408768Y0219203D03*
X0408768Y0213297D03*
X0346768Y0134203D03*
X0346768Y0128297D03*
X0345768Y0117203D03*
X0345768Y0111297D03*
X0345768Y0104203D03*
X0345768Y0098297D03*
X0348768Y0080203D03*
X0348768Y0074297D03*
X0348768Y0067203D03*
X0348768Y0061297D03*
X0319752Y0108604D03*
X0319752Y0114510D03*
X0294768Y0143297D03*
X0294768Y0149203D03*
X0253768Y0166297D03*
X0248768Y0166297D03*
X0248768Y0172203D03*
X0253768Y0172203D03*
X0241768Y0174203D03*
X0241768Y0168297D03*
X0241768Y0161203D03*
X0241768Y0155297D03*
X0176768Y0178297D03*
X0176768Y0184203D03*
X0106768Y0218297D03*
X0106768Y0224203D03*
X0052035Y0231368D03*
X0052035Y0237274D03*
X0052500Y0250226D03*
X0047500Y0250226D03*
X0047500Y0256132D03*
X0052500Y0256132D03*
X0025768Y0196203D03*
X0025768Y0190297D03*
X0018768Y0190297D03*
X0018768Y0196203D03*
X0011768Y0196203D03*
X0011768Y0190297D03*
X0042768Y0156203D03*
X0042768Y0150297D03*
X0016768Y0060203D03*
X0016768Y0054297D03*
X0359815Y0114384D03*
X0359815Y0120289D03*
X0411130Y0120447D03*
X0411130Y0114541D03*
D14*
X0044406Y0233226D03*
X0044406Y0235195D03*
X0044406Y0237163D03*
X0044406Y0239132D03*
X0032594Y0239132D03*
X0032594Y0237163D03*
X0032594Y0235195D03*
X0032594Y0233226D03*
D15*
X0035547Y0230274D03*
X0037516Y0230274D03*
X0039484Y0230274D03*
X0041453Y0230274D03*
X0041453Y0242085D03*
X0039484Y0242085D03*
X0037516Y0242085D03*
X0035547Y0242085D03*
D16*
X0038500Y0236179D03*
D17*
X0040650Y0256179D03*
X0034350Y0256179D03*
X0163618Y0174250D03*
X0169917Y0174250D03*
X0255618Y0142250D03*
X0261917Y0142250D03*
X0267618Y0254250D03*
X0273917Y0254250D03*
X0196717Y0285650D03*
X0190418Y0285650D03*
X0042917Y0136250D03*
X0036618Y0136250D03*
X0026917Y0136250D03*
X0020618Y0136250D03*
D18*
X0017649Y0073990D03*
X0017649Y0066510D03*
X0027886Y0066510D03*
X0027886Y0070250D03*
X0027886Y0073990D03*
D19*
X0043768Y0075313D03*
X0043768Y0083187D03*
D20*
X0027720Y0047250D03*
X0021815Y0047250D03*
X0022720Y0168250D03*
X0016815Y0168250D03*
X0021815Y0175250D03*
X0027720Y0175250D03*
X0076815Y0184250D03*
X0082720Y0184250D03*
X0145815Y0231250D03*
X0151720Y0231250D03*
X0212815Y0261250D03*
X0218720Y0261250D03*
X0319508Y0179045D03*
X0325413Y0179045D03*
X0253720Y0156250D03*
X0247815Y0156250D03*
X0226720Y0176250D03*
X0220815Y0176250D03*
X0212720Y0176250D03*
X0206815Y0176250D03*
X0182720Y0153250D03*
X0176815Y0153250D03*
X0318508Y0062423D03*
X0324413Y0062423D03*
X0306319Y0038628D03*
X0300413Y0038628D03*
X0393240Y0119888D03*
X0399146Y0119888D03*
X0438815Y0108750D03*
X0444720Y0108750D03*
X0444720Y0080750D03*
X0438815Y0080750D03*
X0438815Y0054750D03*
X0444720Y0054750D03*
X0444720Y0028750D03*
X0438815Y0028750D03*
X0416720Y0226250D03*
X0410815Y0226250D03*
X0410815Y0245250D03*
X0416720Y0245250D03*
X0416720Y0264250D03*
X0410815Y0264250D03*
X0410815Y0283250D03*
X0416720Y0283250D03*
D21*
X0183508Y0171369D03*
X0176028Y0171369D03*
X0176028Y0161131D03*
X0179768Y0161131D03*
X0183508Y0161131D03*
D22*
X0025768Y0201297D03*
X0025768Y0207203D03*
X0018768Y0207203D03*
X0011768Y0207203D03*
X0011768Y0201297D03*
X0018768Y0201297D03*
X0027768Y0060203D03*
X0027768Y0054297D03*
D23*
X0255224Y0135250D03*
X0262311Y0135250D03*
X0267224Y0261250D03*
X0274311Y0261250D03*
X0197311Y0278250D03*
X0190224Y0278250D03*
X0041043Y0250179D03*
X0033957Y0250179D03*
D24*
X0263268Y0175250D03*
X0263268Y0172650D03*
X0263268Y0170150D03*
X0263268Y0167550D03*
X0263268Y0164950D03*
X0263268Y0162450D03*
X0263268Y0159850D03*
X0263268Y0157350D03*
X0263268Y0154750D03*
X0263268Y0152150D03*
X0263268Y0149650D03*
X0263268Y0147050D03*
X0286268Y0147050D03*
X0286268Y0149650D03*
X0286268Y0152150D03*
X0286268Y0154750D03*
X0286268Y0157350D03*
X0286268Y0159850D03*
X0286268Y0162450D03*
X0286268Y0164950D03*
X0286268Y0167550D03*
X0286268Y0170150D03*
X0286268Y0172650D03*
X0286268Y0175250D03*
D25*
X0225768Y0235250D03*
X0215886Y0235344D03*
X0205886Y0235179D03*
X0195886Y0235596D03*
X0185886Y0235762D03*
D26*
X0185886Y0235762D03*
X0195886Y0235596D03*
X0205886Y0235179D03*
X0215886Y0235344D03*
X0225768Y0235250D03*
D27*
X0135098Y0220140D03*
X0129098Y0220140D03*
D28*
X0132098Y0220140D03*
D29*
X0132098Y0220140D03*
D30*
X0319268Y0221250D03*
X0339268Y0241250D03*
X0339268Y0191250D03*
X0319268Y0171250D03*
X0339268Y0141250D03*
X0319268Y0121250D03*
X0339268Y0091250D03*
X0319268Y0071250D03*
D31*
X0309268Y0081250D03*
X0339268Y0061250D03*
X0339268Y0111250D03*
X0309268Y0131250D03*
X0339268Y0161250D03*
X0309268Y0181250D03*
X0339268Y0211250D03*
X0309268Y0231250D03*
D32*
X0257705Y0259510D03*
X0257705Y0266990D03*
X0249831Y0263250D03*
X0237705Y0264990D03*
X0237705Y0257510D03*
X0229831Y0261250D03*
X0140705Y0231250D03*
X0132831Y0227510D03*
X0132831Y0234990D03*
D33*
X0210768Y0285250D03*
X0256768Y0196250D03*
D34*
X0246768Y0196250D03*
X0236768Y0196250D03*
X0226768Y0196250D03*
X0216768Y0196250D03*
X0206768Y0196250D03*
X0196768Y0196250D03*
X0186768Y0196250D03*
X0176768Y0196250D03*
X0166768Y0196250D03*
X0156768Y0196250D03*
X0146768Y0196250D03*
X0136768Y0196250D03*
X0126768Y0196250D03*
X0116768Y0196250D03*
X0106768Y0196250D03*
X0096768Y0196250D03*
X0086768Y0196250D03*
X0076768Y0196250D03*
X0066768Y0196250D03*
X0066768Y0206250D03*
X0076768Y0206250D03*
X0086768Y0206250D03*
X0096768Y0206250D03*
X0106768Y0206250D03*
X0116768Y0206250D03*
X0126768Y0206250D03*
X0136768Y0206250D03*
X0146768Y0206250D03*
X0156768Y0206250D03*
X0166768Y0206250D03*
X0176768Y0206250D03*
X0186768Y0206250D03*
X0196768Y0206250D03*
X0206768Y0206250D03*
X0216768Y0206250D03*
X0226768Y0206250D03*
X0236768Y0206250D03*
X0246768Y0206250D03*
X0256768Y0206250D03*
D35*
X0275941Y0201250D03*
X0275941Y0110699D03*
X0047594Y0110699D03*
X0047594Y0201250D03*
D36*
X0125980Y0245148D03*
X0135980Y0245148D03*
X0145980Y0245148D03*
X0155980Y0245148D03*
X0165980Y0245148D03*
X0175980Y0245148D03*
X0185980Y0245148D03*
X0195980Y0245148D03*
X0205980Y0245148D03*
X0215980Y0245148D03*
X0225980Y0245148D03*
X0235980Y0245148D03*
X0245980Y0245148D03*
X0255980Y0245148D03*
X0265980Y0245148D03*
X0275980Y0245148D03*
X0240768Y0285250D03*
X0230768Y0285250D03*
X0220768Y0285250D03*
D37*
X0279720Y0234321D03*
X0122240Y0234321D03*
X0122240Y0072904D03*
D38*
X0375366Y0072750D03*
X0375366Y0077750D03*
X0375366Y0082750D03*
X0375366Y0087750D03*
X0375366Y0092750D03*
X0375366Y0097750D03*
X0375366Y0102750D03*
X0375366Y0107750D03*
X0400169Y0107750D03*
X0400169Y0102750D03*
X0400169Y0097750D03*
X0400169Y0092750D03*
X0400169Y0087750D03*
X0400169Y0082750D03*
X0400169Y0077750D03*
X0400169Y0072750D03*
D39*
X0431138Y0067750D03*
X0452398Y0067750D03*
X0452398Y0041750D03*
X0431138Y0041750D03*
X0431138Y0015750D03*
X0452398Y0015750D03*
X0452398Y0095850D03*
X0431138Y0095850D03*
D40*
X0291768Y0038750D03*
X0281768Y0038750D03*
X0281768Y0263750D03*
X0291768Y0263750D03*
X0025768Y0284250D03*
D41*
X0359957Y0136250D03*
X0411957Y0136250D03*
X0435579Y0199250D03*
X0383579Y0199250D03*
D42*
X0375705Y0199250D03*
X0367831Y0199250D03*
X0359957Y0199250D03*
X0411957Y0199250D03*
X0419831Y0199250D03*
X0427705Y0199250D03*
X0427705Y0136250D03*
X0435579Y0136250D03*
X0419831Y0136250D03*
X0383579Y0136250D03*
X0375705Y0136250D03*
X0367831Y0136250D03*
D43*
X0359768Y0108187D03*
X0363508Y0100313D03*
X0356028Y0100313D03*
X0359768Y0093187D03*
X0363508Y0085313D03*
X0356028Y0085313D03*
X0359768Y0078187D03*
X0363508Y0070313D03*
X0356028Y0070313D03*
X0359768Y0061187D03*
X0363508Y0053313D03*
X0356028Y0053313D03*
X0353028Y0218313D03*
X0360508Y0218313D03*
X0356768Y0226187D03*
X0361768Y0234313D03*
X0365508Y0242187D03*
X0358028Y0242187D03*
X0359768Y0250313D03*
X0363508Y0258187D03*
X0356028Y0258187D03*
X0359768Y0266313D03*
X0363508Y0274187D03*
X0356028Y0274187D03*
D44*
X0033268Y0024750D03*
X0048268Y0024750D03*
X0475268Y0018750D03*
X0475268Y0033750D03*
X0475268Y0048750D03*
X0475268Y0063750D03*
X0475268Y0078750D03*
X0475268Y0093750D03*
X0475268Y0108750D03*
X0475268Y0123750D03*
X0475268Y0178750D03*
X0475268Y0193750D03*
X0475268Y0208750D03*
X0475268Y0223750D03*
X0475268Y0238750D03*
X0475268Y0253750D03*
X0475268Y0268750D03*
X0475268Y0283750D03*
D45*
X0449171Y0281250D02*
X0446415Y0281250D01*
X0446415Y0272250D02*
X0449171Y0272250D01*
X0449171Y0262250D02*
X0446415Y0262250D01*
X0446415Y0253250D02*
X0449171Y0253250D01*
X0449171Y0243250D02*
X0446415Y0243250D01*
X0446415Y0234250D02*
X0449171Y0234250D01*
X0449171Y0224250D02*
X0446415Y0224250D01*
X0427121Y0224250D02*
X0424365Y0224250D01*
X0424365Y0234250D02*
X0427121Y0234250D01*
X0427121Y0243250D02*
X0424365Y0243250D01*
X0424365Y0253250D02*
X0427121Y0253250D01*
X0427121Y0262250D02*
X0424365Y0262250D01*
X0424365Y0272250D02*
X0427121Y0272250D01*
X0427121Y0281250D02*
X0424365Y0281250D01*
X0424365Y0291250D02*
X0427121Y0291250D01*
X0446415Y0291250D02*
X0449171Y0291250D01*
D46*
X0034568Y0166750D03*
X0032068Y0166750D03*
X0029468Y0166750D03*
X0026968Y0166750D03*
X0026968Y0143750D03*
X0029468Y0143750D03*
X0032068Y0143750D03*
X0034568Y0143750D03*
D47*
X0135768Y0252541D03*
X0135768Y0263959D03*
D48*
X0015768Y0284250D03*
D49*
X0434768Y0172750D03*
D50*
X0434768Y0162750D03*
X0424768Y0162750D03*
X0424768Y0172750D03*
X0414768Y0172750D03*
X0414768Y0162750D03*
X0404768Y0162750D03*
X0404768Y0172750D03*
X0394768Y0172750D03*
X0394768Y0162750D03*
X0384768Y0162750D03*
X0384768Y0172750D03*
X0374768Y0172750D03*
X0374768Y0162750D03*
X0364768Y0162750D03*
X0364768Y0172750D03*
D51*
X0318768Y0285250D03*
X0188768Y0040250D03*
X0168768Y0040250D03*
X0148768Y0040250D03*
X0128768Y0040250D03*
X0108768Y0040250D03*
D52*
X0020768Y0054250D03*
X0018768Y0047250D03*
X0097768Y0140250D03*
X0097768Y0174250D03*
X0082768Y0188250D03*
X0057768Y0211250D03*
X0038500Y0235195D03*
X0026768Y0186250D03*
X0027768Y0179250D03*
X0164768Y0184250D03*
X0206815Y0171250D03*
X0216768Y0176250D03*
X0226768Y0171250D03*
X0246768Y0178250D03*
X0274768Y0166250D03*
X0277768Y0169250D03*
X0279996Y0172904D03*
X0275768Y0159250D03*
X0275768Y0153250D03*
X0274768Y0141250D03*
X0278768Y0137250D03*
X0255768Y0148250D03*
X0311768Y0159250D03*
X0316768Y0153250D03*
X0328768Y0178250D03*
X0323768Y0192250D03*
X0323768Y0197250D03*
X0364768Y0218250D03*
X0384768Y0222250D03*
X0392768Y0222250D03*
X0399768Y0222250D03*
X0396768Y0234250D03*
X0365768Y0250250D03*
X0354768Y0242250D03*
X0349768Y0254250D03*
X0352768Y0258250D03*
X0359768Y0262250D03*
X0352768Y0274250D03*
X0279768Y0212250D03*
X0237768Y0268250D03*
X0379768Y0156250D03*
X0346650Y0124872D03*
X0351768Y0118250D03*
X0345768Y0107250D03*
X0354768Y0105250D03*
X0363579Y0096919D03*
X0354768Y0090250D03*
X0363579Y0081959D03*
X0354768Y0075250D03*
X0348768Y0070250D03*
X0363579Y0066998D03*
X0363579Y0049644D03*
X0380114Y0092982D03*
X0367768Y0119250D03*
X0389957Y0119754D03*
X0331768Y0117825D03*
X0328768Y0122250D03*
X0324768Y0108250D03*
X0319091Y0100400D03*
D53*
X0291768Y0129250D03*
X0269768Y0163250D03*
X0288768Y0179250D03*
X0381768Y0107250D03*
X0381468Y0099750D03*
X0381468Y0087750D03*
X0381468Y0077750D03*
X0328768Y0063250D03*
X0179768Y0166250D03*
X0169768Y0148250D03*
X0040768Y0262250D03*
X0027768Y0090250D03*
X0068768Y0021250D03*
D54*
X0007768Y0079250D03*
X0013768Y0116250D03*
D55*
X0032768Y0215250D03*
X0190768Y0182250D03*
X0241768Y0164850D03*
X0252768Y0177250D03*
X0265768Y0142250D03*
X0323768Y0233250D03*
X0297768Y0253250D03*
X0268768Y0274250D03*
X0196768Y0253250D03*
M02*
