  0
SECTION
  2
HEADER
  9
$ACADVER
  1
AC1009
  9
$FILLMODE
 70
1
  9
$EXTMIN
 10
-5.8420
 20
-5.5550
 30
0.0000
  9
$EXTMAX
 10
130.2690
 20
84.1938
 30
0.0000
  0
ENDSEC
  0
SECTION
  2
TABLES
  0
TABLE
  2
LTYPE
 70
1
  0
LTYPE
  2
CONTINUOUS
 70
64
  3
Solid line
 72
65
 73
0
 40
0
  0
ENDTAB
  0
TABLE
  2
LAYER
 70
255
  0
LAYER
  2
20
 70
64
 62
7
  6
CONTINUOUS
  0
LAYER
  2
29
 70
64
 62
253
  6
CONTINUOUS
  0
ENDTAB
  0
ENDSEC
  0
SECTION
  2
BLOCKS
  0
BLOCK
  8
0
  2
RECT
 70
64
 10
0.0000
 20
0.0000
 30
0.0000
  3
RECT
  0
SOLID
  8
0
 10
-0.5000
 20
-0.5000
 30
0.0000
 11
0.5000
 21
-0.5000
 31
0.0000
 12
-0.5000
 22
0.5000
 32
0.0000
 13
0.5000
 23
0.5000
 33
0.0000
  0
ENDBLK
  8
0
  0
BLOCK
  8
0
  2
PIE
 70
64
 10
0.0000
 20
0.0000
 30
0.0000
  3
PIE
  0
POLYLINE
  8
0
 66
1
 10
0.0000
 20
0.0000
 30
0.0000
 40
0.5000
 41
0.5000
 70
0
  0
VERTEX
  8
0
 10
0.0000
 20
-0.2500
 30
0.0000
 42
1.0000
  0
VERTEX
  8
0
 10
0.0000
 20
0.2500
 30
0.0000
 42
1.0000
  0
VERTEX
  8
0
 10
0.0000
 20
-0.2500
 30
0.0000
  0
SEQEND
  8
0
  0
ENDBLK
  8
0
  0
BLOCK
  8
0
  2
OCTAGONP
 70
64
 10
0.0000
 20
0.0000
 30
0.0000
  3
OCTAGONP
  0
POLYLINE
  8
0
 66
1
 10
0.0000
 20
0.0000
 30
0.0000
 40
0.5000
 41
0.5000
 70
0
  0
VERTEX
  8
0
 10
-0.2500
 20
-0.1036
 30
0.0000
  0
VERTEX
  8
0
 10
-0.2500
 20
0.1036
 30
0.0000
  0
VERTEX
  8
0
 10
-0.1036
 20
0.2500
 30
0.0000
  0
VERTEX
  8
0
 10
0.1036
 20
0.2500
 30
0.0000
  0
VERTEX
  8
0
 10
0.2500
 20
0.1036
 30
0.0000
  0
VERTEX
  8
0
 10
0.2500
 20
-0.1036
 30
0.0000
  0
VERTEX
  8
0
 10
0.1036
 20
-0.2500
 30
0.0000
  0
VERTEX
  8
0
 10
-0.1036
 20
-0.2500
 30
0.0000
  0
VERTEX
  8
0
 10
-0.2500
 20
-0.1036
 30
0.0000
  0
VERTEX
  8
0
 10
-0.2500
 20
0.1036
 30
0.0000
  0
SEQEND
  8
0
  0
ENDBLK
  8
0
  0
BLOCK
  8
0
  2
SQUAREP
 70
64
 10
0.0000
 20
0.0000
 30
0.0000
  3
SQUAREP
  0
SOLID
  8
0
 10
-0.5000
 20
-0.5000
 30
0.0000
 11
0.5000
 21
-0.5000
 31
0.0000
 12
-0.5000
 22
0.5000
 32
0.0000
 13
0.5000
 23
0.5000
 33
0.0000
  0
ENDBLK
  8
0
  0
BLOCK
  8
0
  2
ROUNDP
 70
64
 10
0.0000
 20
0.0000
 30
0.0000
  3
ROUNDP
  0
POLYLINE
  8
0
 66
1
 10
0.0000
 20
0.0000
 30
0.0000
 40
0.5000
 41
0.5000
 70
0
  0
VERTEX
  8
0
 10
0.0000
 20
-0.2500
 30
0.0000
 42
1.0000
  0
VERTEX
  8
0
 10
0.0000
 20
0.2500
 30
0.0000
 42
1.0000
  0
VERTEX
  8
0
 10
0.0000
 20
-0.2500
 30
0.0000
  0
SEQEND
  8
0
  0
ENDBLK
  8
0
  0
BLOCK
  8
0
  2
ANNULUSP
 70
64
 10
0.0000
 20
0.0000
 30
0.0000
  3
ANNULUSP
  0
POLYLINE
  8
0
 66
1
 10
0.0000
 20
0.0000
 30
0.0000
 40
0.5000
 41
0.5000
 70
0
  0
VERTEX
  8
0
 10
0.0000
 20
-0.2500
 30
0.0000
 42
1.0000
  0
VERTEX
  8
0
 10
0.0000
 20
0.2500
 30
0.0000
 42
1.0000
  0
VERTEX
  8
0
 10
0.0000
 20
-0.2500
 30
0.0000
  0
SEQEND
  8
0
  0
ENDBLK
  8
0
  0
BLOCK
  8
0
  2
THERMALP
 70
64
 10
0.0000
 20
0.0000
 30
0.0000
  3
THERMALP
  0
POLYLINE
  8
0
 66
1
 10
0.0000
 20
0.0000
 30
0.0000
 40
0.1000
 41
0.1000
 70
0
  0
VERTEX
  8
0
 10
-0.2379
 20
0.4500
 30
0.0000
  0
VERTEX
  8
0
 10
0.2379
 20
0.4500
 30
0.0000
  0
SEQEND
  8
0
  0
POLYLINE
  8
0
 66
1
 10
0.0000
 20
0.0000
 30
0.0000
 40
0.0500
 41
0.0500
 70
0
  0
VERTEX
  8
0
 10
0.2379
 20
0.4250
 30
0.0000
 42
1.0000
  0
VERTEX
  8
0
 10
0.2379
 20
0.4750
 30
0.0000
  0
SEQEND
  8
0
  0
POLYLINE
  8
0
 66
1
 10
0.0000
 20
0.0000
 30
0.0000
 40
0.0500
 41
0.0500
 70
0
  0
VERTEX
  8
0
 10
-0.2379
 20
0.4750
 30
0.0000
 42
1.0000
  0
VERTEX
  8
0
 10
-0.2379
 20
0.4250
 30
0.0000
  0
SEQEND
  8
0
  0
POLYLINE
  8
0
 66
1
 10
0.0000
 20
0.0000
 30
0.0000
 40
0.1000
 41
0.1000
 70
0
  0
VERTEX
  8
0
 10
0.4500
 20
0.2379
 30
0.0000
  0
VERTEX
  8
0
 10
0.4500
 20
-0.2379
 30
0.0000
  0
SEQEND
  8
0
  0
POLYLINE
  8
0
 66
1
 10
0.0000
 20
0.0000
 30
0.0000
 40
0.0500
 41
0.0500
 70
0
  0
VERTEX
  8
0
 10
0.4250
 20
-0.2379
 30
0.0000
 42
1.0000
  0
VERTEX
  8
0
 10
0.4750
 20
-0.2379
 30
0.0000
  0
SEQEND
  8
0
  0
POLYLINE
  8
0
 66
1
 10
0.0000
 20
0.0000
 30
0.0000
 40
0.0500
 41
0.0500
 70
0
  0
VERTEX
  8
0
 10
0.4750
 20
0.2379
 30
0.0000
 42
1.0000
  0
VERTEX
  8
0
 10
0.4250
 20
0.2379
 30
0.0000
  0
SEQEND
  8
0
  0
POLYLINE
  8
0
 66
1
 10
0.0000
 20
0.0000
 30
0.0000
 40
0.1000
 41
0.1000
 70
0
  0
VERTEX
  8
0
 10
0.2379
 20
-0.4500
 30
0.0000
  0
VERTEX
  8
0
 10
-0.2379
 20
-0.4500
 30
0.0000
  0
SEQEND
  8
0
  0
POLYLINE
  8
0
 66
1
 10
0.0000
 20
0.0000
 30
0.0000
 40
0.0500
 41
0.0500
 70
0
  0
VERTEX
  8
0
 10
-0.2379
 20
-0.4250
 30
0.0000
 42
1.0000
  0
VERTEX
  8
0
 10
-0.2379
 20
-0.4750
 30
0.0000
  0
SEQEND
  8
0
  0
POLYLINE
  8
0
 66
1
 10
0.0000
 20
0.0000
 30
0.0000
 40
0.0500
 41
0.0500
 70
0
  0
VERTEX
  8
0
 10
0.2379
 20
-0.4750
 30
0.0000
 42
1.0000
  0
VERTEX
  8
0
 10
0.2379
 20
-0.4250
 30
0.0000
  0
SEQEND
  8
0
  0
POLYLINE
  8
0
 66
1
 10
0.0000
 20
0.0000
 30
0.0000
 40
0.1000
 41
0.1000
 70
0
  0
VERTEX
  8
0
 10
-0.4500
 20
-0.2379
 30
0.0000
  0
VERTEX
  8
0
 10
-0.4500
 20
0.2379
 30
0.0000
  0
SEQEND
  8
0
  0
POLYLINE
  8
0
 66
1
 10
0.0000
 20
0.0000
 30
0.0000
 40
0.0500
 41
0.0500
 70
0
  0
VERTEX
  8
0
 10
-0.4250
 20
0.2379
 30
0.0000
 42
1.0000
  0
VERTEX
  8
0
 10
-0.4750
 20
0.2379
 30
0.0000
  0
SEQEND
  8
0
  0
POLYLINE
  8
0
 66
1
 10
0.0000
 20
0.0000
 30
0.0000
 40
0.0500
 41
0.0500
 70
0
  0
VERTEX
  8
0
 10
-0.4750
 20
-0.2379
 30
0.0000
 42
1.0000
  0
VERTEX
  8
0
 10
-0.4250
 20
-0.2379
 30
0.0000
  0
SEQEND
  8
0
  0
ENDBLK
  8
0
  0
BLOCK
  8
0
  2
OCTAGONV
 70
64
 10
0.0000
 20
0.0000
 30
0.0000
  3
OCTAGONV
  0
POLYLINE
  8
0
 66
1
 10
0.0000
 20
0.0000
 30
0.0000
 40
0.5000
 41
0.5000
 70
0
  0
VERTEX
  8
0
 10
-0.2500
 20
-0.1036
 30
0.0000
  0
VERTEX
  8
0
 10
-0.2500
 20
0.1036
 30
0.0000
  0
VERTEX
  8
0
 10
-0.1036
 20
0.2500
 30
0.0000
  0
VERTEX
  8
0
 10
0.1036
 20
0.2500
 30
0.0000
  0
VERTEX
  8
0
 10
0.2500
 20
0.1036
 30
0.0000
  0
VERTEX
  8
0
 10
0.2500
 20
-0.1036
 30
0.0000
  0
VERTEX
  8
0
 10
0.1036
 20
-0.2500
 30
0.0000
  0
VERTEX
  8
0
 10
-0.1036
 20
-0.2500
 30
0.0000
  0
VERTEX
  8
0
 10
-0.2500
 20
-0.1036
 30
0.0000
  0
VERTEX
  8
0
 10
-0.2500
 20
0.1036
 30
0.0000
  0
SEQEND
  8
0
  0
ENDBLK
  8
0
  0
BLOCK
  8
0
  2
SQUAREV
 70
64
 10
0.0000
 20
0.0000
 30
0.0000
  3
SQUAREV
  0
SOLID
  8
0
 10
-0.5000
 20
-0.5000
 30
0.0000
 11
0.5000
 21
-0.5000
 31
0.0000
 12
-0.5000
 22
0.5000
 32
0.0000
 13
0.5000
 23
0.5000
 33
0.0000
  0
ENDBLK
  8
0
  0
BLOCK
  8
0
  2
ROUNDV
 70
64
 10
0.0000
 20
0.0000
 30
0.0000
  3
ROUNDV
  0
POLYLINE
  8
0
 66
1
 10
0.0000
 20
0.0000
 30
0.0000
 40
0.5000
 41
0.5000
 70
0
  0
VERTEX
  8
0
 10
0.0000
 20
-0.2500
 30
0.0000
 42
1.0000
  0
VERTEX
  8
0
 10
0.0000
 20
0.2500
 30
0.0000
 42
1.0000
  0
VERTEX
  8
0
 10
0.0000
 20
-0.2500
 30
0.0000
  0
SEQEND
  8
0
  0
ENDBLK
  8
0
  0
BLOCK
  8
0
  2
ANNULUSV
 70
64
 10
0.0000
 20
0.0000
 30
0.0000
  3
ANNULUSV
  0
POLYLINE
  8
0
 66
1
 10
0.0000
 20
0.0000
 30
0.0000
 40
0.5000
 41
0.5000
 70
0
  0
VERTEX
  8
0
 10
0.0000
 20
-0.2500
 30
0.0000
 42
1.0000
  0
VERTEX
  8
0
 10
0.0000
 20
0.2500
 30
0.0000
 42
1.0000
  0
VERTEX
  8
0
 10
0.0000
 20
-0.2500
 30
0.0000
  0
SEQEND
  8
0
  0
ENDBLK
  8
0
  0
BLOCK
  8
0
  2
THERMALV
 70
64
 10
0.0000
 20
0.0000
 30
0.0000
  3
THERMALV
  0
POLYLINE
  8
0
 66
1
 10
0.0000
 20
0.0000
 30
0.0000
 40
0.1000
 41
0.1000
 70
0
  0
VERTEX
  8
0
 10
-0.2379
 20
0.4500
 30
0.0000
  0
VERTEX
  8
0
 10
0.2379
 20
0.4500
 30
0.0000
  0
SEQEND
  8
0
  0
POLYLINE
  8
0
 66
1
 10
0.0000
 20
0.0000
 30
0.0000
 40
0.0500
 41
0.0500
 70
0
  0
VERTEX
  8
0
 10
0.2379
 20
0.4250
 30
0.0000
 42
1.0000
  0
VERTEX
  8
0
 10
0.2379
 20
0.4750
 30
0.0000
  0
SEQEND
  8
0
  0
POLYLINE
  8
0
 66
1
 10
0.0000
 20
0.0000
 30
0.0000
 40
0.0500
 41
0.0500
 70
0
  0
VERTEX
  8
0
 10
-0.2379
 20
0.4750
 30
0.0000
 42
1.0000
  0
VERTEX
  8
0
 10
-0.2379
 20
0.4250
 30
0.0000
  0
SEQEND
  8
0
  0
POLYLINE
  8
0
 66
1
 10
0.0000
 20
0.0000
 30
0.0000
 40
0.1000
 41
0.1000
 70
0
  0
VERTEX
  8
0
 10
0.4500
 20
0.2379
 30
0.0000
  0
VERTEX
  8
0
 10
0.4500
 20
-0.2379
 30
0.0000
  0
SEQEND
  8
0
  0
POLYLINE
  8
0
 66
1
 10
0.0000
 20
0.0000
 30
0.0000
 40
0.0500
 41
0.0500
 70
0
  0
VERTEX
  8
0
 10
0.4250
 20
-0.2379
 30
0.0000
 42
1.0000
  0
VERTEX
  8
0
 10
0.4750
 20
-0.2379
 30
0.0000
  0
SEQEND
  8
0
  0
POLYLINE
  8
0
 66
1
 10
0.0000
 20
0.0000
 30
0.0000
 40
0.0500
 41
0.0500
 70
0
  0
VERTEX
  8
0
 10
0.4750
 20
0.2379
 30
0.0000
 42
1.0000
  0
VERTEX
  8
0
 10
0.4250
 20
0.2379
 30
0.0000
  0
SEQEND
  8
0
  0
POLYLINE
  8
0
 66
1
 10
0.0000
 20
0.0000
 30
0.0000
 40
0.1000
 41
0.1000
 70
0
  0
VERTEX
  8
0
 10
0.2379
 20
-0.4500
 30
0.0000
  0
VERTEX
  8
0
 10
-0.2379
 20
-0.4500
 30
0.0000
  0
SEQEND
  8
0
  0
POLYLINE
  8
0
 66
1
 10
0.0000
 20
0.0000
 30
0.0000
 40
0.0500
 41
0.0500
 70
0
  0
VERTEX
  8
0
 10
-0.2379
 20
-0.4250
 30
0.0000
 42
1.0000
  0
VERTEX
  8
0
 10
-0.2379
 20
-0.4750
 30
0.0000
  0
SEQEND
  8
0
  0
POLYLINE
  8
0
 66
1
 10
0.0000
 20
0.0000
 30
0.0000
 40
0.0500
 41
0.0500
 70
0
  0
VERTEX
  8
0
 10
0.2379
 20
-0.4750
 30
0.0000
 42
1.0000
  0
VERTEX
  8
0
 10
0.2379
 20
-0.4250
 30
0.0000
  0
SEQEND
  8
0
  0
POLYLINE
  8
0
 66
1
 10
0.0000
 20
0.0000
 30
0.0000
 40
0.1000
 41
0.1000
 70
0
  0
VERTEX
  8
0
 10
-0.4500
 20
-0.2379
 30
0.0000
  0
VERTEX
  8
0
 10
-0.4500
 20
0.2379
 30
0.0000
  0
SEQEND
  8
0
  0
POLYLINE
  8
0
 66
1
 10
0.0000
 20
0.0000
 30
0.0000
 40
0.0500
 41
0.0500
 70
0
  0
VERTEX
  8
0
 10
-0.4250
 20
0.2379
 30
0.0000
 42
1.0000
  0
VERTEX
  8
0
 10
-0.4750
 20
0.2379
 30
0.0000
  0
SEQEND
  8
0
  0
POLYLINE
  8
0
 66
1
 10
0.0000
 20
0.0000
 30
0.0000
 40
0.0500
 41
0.0500
 70
0
  0
VERTEX
  8
0
 10
-0.4750
 20
-0.2379
 30
0.0000
 42
1.0000
  0
VERTEX
  8
0
 10
-0.4250
 20
-0.2379
 30
0.0000
  0
SEQEND
  8
0
  0
ENDBLK
  8
0
  0
BLOCK
  8
0
  2
RECT116320X228320R100
 70
64
 10
0.0000
 20
0.0000
 30
0.0000
  3
RECT116320X228320R100
  0
POLYLINE
  8
0
 66
1
 10
0.0000
 20
0.0000
 30
0.0000
 40
0.3635
 41
0.3635
 70
1
  0
VERTEX
  8
0
 10
0.1817
 20
-0.3500
 30
0.0000
  0
VERTEX
  8
0
 10
0.1817
 20
0.3500
 30
0.0000
 42
0.4142
  0
VERTEX
  8
0
 10
0.0000
 20
0.5318
 30
0.0000
  0
VERTEX
  8
0
 10
0.0000
 20
0.5318
 30
0.0000
 42
0.4142
  0
VERTEX
  8
0
 10
-0.1817
 20
0.3500
 30
0.0000
  0
VERTEX
  8
0
 10
-0.1817
 20
-0.3500
 30
0.0000
 42
0.4142
  0
VERTEX
  8
0
 10
0.0000
 20
-0.5318
 30
0.0000
  0
VERTEX
  8
0
 10
0.0000
 20
-0.5318
 30
0.0000
 42
0.4142
  0
SEQEND
  8
0
  0
SOLID
  8
0
 10
-0.0254
 20
-0.3754
 30
0.0000
 11
0.0254
 21
-0.3754
 31
0.0000
 12
-0.0254
 22
0.3754
 32
0.0000
 13
0.0254
 23
0.3754
 33
0.0000
  0
ENDBLK
  8
0
  0
ENDSEC
  0
SECTION
  2
ENTITIES
  0
ARC
  8
20
 10
2.5400
 20
2.5400
 30
0.0000
 40
2.5400
 50
180.0000
 51
270.0000
  0
LINE
  8
20
 10
2.5400
 20
0.0000
 30
0.0000
 11
124.4600
 21
0.0000
 31
0.0000
  0
ARC
  8
20
 10
124.4600
 20
2.5400
 30
0.0000
 40
2.5400
 50
270.0000
 51
0.0000
  0
LINE
  8
20
 10
127.0000
 20
2.5400
 30
0.0000
 11
127.0000
 21
73.6600
 31
0.0000
  0
ARC
  8
20
 10
124.4600
 20
73.6600
 30
0.0000
 40
2.5400
 50
0.0000
 51
90.0000
  0
LINE
  8
20
 10
124.4600
 20
76.2000
 30
0.0000
 11
2.5400
 21
76.2000
 31
0.0000
  0
ARC
  8
20
 10
2.5400
 20
73.6600
 30
0.0000
 40
2.5400
 50
90.0000
 51
180.0000
  0
LINE
  8
20
 10
0.0000
 20
73.6600
 30
0.0000
 11
0.0000
 21
2.5400
 31
0.0000
  0
CIRCLE
  8
20
 10
18.7960
 20
63.5000
 30
0.0000
 40
1.2700
  0
POLYLINE
  8
29
 66
1
 10
0.0000
 20
0.0000
 30
0.0000
 40
1.3335
 41
1.3335
 70
0
  0
VERTEX
  8
29
 10
18.7960
 20
62.8332
 30
0.0000
 42
1.0000
  0
VERTEX
  8
29
 10
18.7960
 20
64.1667
 30
0.0000
 42
1.0000
  0
VERTEX
  8
29
 10
18.7960
 20
62.8332
 30
0.0000
  0
SEQEND
  8
0
  0
CIRCLE
  8
20
 10
18.7960
 20
12.7000
 30
0.0000
 40
1.2700
  0
POLYLINE
  8
29
 66
1
 10
0.0000
 20
0.0000
 30
0.0000
 40
1.3335
 41
1.3335
 70
0
  0
VERTEX
  8
29
 10
18.7960
 20
12.0333
 30
0.0000
 42
1.0000
  0
VERTEX
  8
29
 10
18.7960
 20
13.3668
 30
0.0000
 42
1.0000
  0
VERTEX
  8
29
 10
18.7960
 20
12.0333
 30
0.0000
  0
SEQEND
  8
0
  0
CIRCLE
  8
20
 10
98.1710
 20
63.5000
 30
0.0000
 40
1.2700
  0
POLYLINE
  8
29
 66
1
 10
0.0000
 20
0.0000
 30
0.0000
 40
1.3335
 41
1.3335
 70
0
  0
VERTEX
  8
29
 10
98.1710
 20
62.8332
 30
0.0000
 42
1.0000
  0
VERTEX
  8
29
 10
98.1710
 20
64.1667
 30
0.0000
 42
1.0000
  0
VERTEX
  8
29
 10
98.1710
 20
62.8332
 30
0.0000
  0
SEQEND
  8
0
  0
CIRCLE
  8
20
 10
98.1710
 20
12.7000
 30
0.0000
 40
1.2700
  0
POLYLINE
  8
29
 66
1
 10
0.0000
 20
0.0000
 30
0.0000
 40
1.3335
 41
1.3335
 70
0
  0
VERTEX
  8
29
 10
98.1710
 20
12.0333
 30
0.0000
 42
1.0000
  0
VERTEX
  8
29
 10
98.1710
 20
13.3668
 30
0.0000
 42
1.0000
  0
VERTEX
  8
29
 10
98.1710
 20
12.0333
 30
0.0000
  0
SEQEND
  8
0
  0
INSERT
  8
29
  2
RECT
 10
1.4560
 20
64.0280
 30
0.0000
 41
1.0770
 42
1.1270
 43
1.0000
 50
270.0000
  0
INSERT
  8
29
  2
RECT
 10
1.4560
 20
62.4280
 30
0.0000
 41
1.0770
 42
1.1270
 43
1.0000
 50
270.0000
  0
INSERT
  8
29
  2
RECT
 10
4.0640
 20
19.7740
 30
0.0000
 41
1.0770
 42
1.1270
 43
1.0000
 50
90.0000
  0
INSERT
  8
29
  2
RECT
 10
4.0640
 20
21.3740
 30
0.0000
 41
1.0770
 42
1.1270
 43
1.0000
 50
90.0000
  0
INSERT
  8
29
  2
RECT
 10
6.3880
 20
34.2900
 30
0.0000
 41
1.0770
 42
1.1270
 43
1.0000
 50
180.0000
  0
INSERT
  8
29
  2
RECT
 10
4.7880
 20
34.2900
 30
0.0000
 41
1.0770
 42
1.1270
 43
1.0000
 50
180.0000
  0
INSERT
  8
29
  2
RECT
 10
6.4180
 20
64.0640
 30
0.0000
 41
1.0770
 42
1.1270
 43
1.0000
 50
270.0000
  0
INSERT
  8
29
  2
RECT
 10
6.4180
 20
62.4640
 30
0.0000
 41
1.0770
 42
1.1270
 43
1.0000
 50
270.0000
  0
INSERT
  8
29
  2
RECT
 10
6.6040
 20
19.7740
 30
0.0000
 41
1.0770
 42
1.1270
 43
1.0000
 50
90.0000
  0
INSERT
  8
29
  2
RECT
 10
6.6040
 20
21.3740
 30
0.0000
 41
1.0770
 42
1.1270
 43
1.0000
 50
90.0000
  0
INSERT
  8
29
  2
RECT
 10
9.9760
 20
63.2280
 30
0.0000
 41
1.2770
 42
1.5770
 43
1.0000
 50
180.0000
  0
INSERT
  8
29
  2
RECT
 10
8.1760
 20
63.2280
 30
0.0000
 41
1.2770
 42
1.5770
 43
1.0000
 50
180.0000
  0
INSERT
  8
29
  2
RECT
 10
9.8760
 20
64.7520
 30
0.0000
 41
1.0770
 42
1.1270
 43
1.0000
 50
180.0000
  0
INSERT
  8
29
  2
RECT
 10
8.2760
 20
64.7520
 30
0.0000
 41
1.0770
 42
1.1270
 43
1.0000
 50
180.0000
  0
INSERT
  8
29
  2
RECT
 10
8.8520
 20
34.2900
 30
0.0000
 41
1.0770
 42
1.1270
 43
1.0000
 50
0.0000
  0
INSERT
  8
29
  2
RECT
 10
10.4520
 20
34.2900
 30
0.0000
 41
1.0770
 42
1.1270
 43
1.0000
 50
0.0000
  0
INSERT
  8
29
  2
RECT
 10
42.7100
 20
43.9420
 30
0.0000
 41
1.0770
 42
1.1270
 43
1.0000
 50
180.0000
  0
INSERT
  8
29
  2
RECT
 10
41.1100
 20
43.9420
 30
0.0000
 41
1.0770
 42
1.1270
 43
1.0000
 50
180.0000
  0
INSERT
  8
29
  2
RECT
 10
42.6720
 20
40.1700
 30
0.0000
 41
1.0770
 42
1.1270
 43
1.0000
 50
270.0000
  0
INSERT
  8
29
  2
RECT
 10
42.6720
 20
38.5700
 30
0.0000
 41
1.0770
 42
1.1270
 43
1.0000
 50
270.0000
  0
INSERT
  8
29
  2
RECT
 10
47.9172
 20
72.2376
 30
0.0000
 41
1.0770
 42
1.1270
 43
1.0000
 50
0.0000
  0
INSERT
  8
29
  2
RECT
 10
49.5172
 20
72.2376
 30
0.0000
 41
1.0770
 42
1.1270
 43
1.0000
 50
0.0000
  0
INSERT
  8
29
  2
RECT
 10
47.8680
 20
70.3580
 30
0.0000
 41
1.2770
 42
1.5770
 43
1.0000
 50
0.0000
  0
INSERT
  8
29
  2
RECT
 10
49.6680
 20
70.3580
 30
0.0000
 41
1.2770
 42
1.5770
 43
1.0000
 50
0.0000
  0
INSERT
  8
29
  2
RECT
 10
66.1780
 20
34.0360
 30
0.0000
 41
1.2770
 42
1.5770
 43
1.0000
 50
180.0000
  0
INSERT
  8
29
  2
RECT
 10
64.3780
 20
34.0360
 30
0.0000
 41
1.2770
 42
1.5770
 43
1.0000
 50
180.0000
  0
INSERT
  8
29
  2
RECT
 10
66.0780
 20
35.8140
 30
0.0000
 41
1.0770
 42
1.1270
 43
1.0000
 50
180.0000
  0
INSERT
  8
29
  2
RECT
 10
64.4780
 20
35.8140
 30
0.0000
 41
1.0770
 42
1.1270
 43
1.0000
 50
180.0000
  0
INSERT
  8
29
  2
RECT
 10
67.5260
 20
64.2620
 30
0.0000
 41
1.0770
 42
1.1270
 43
1.0000
 50
0.0000
  0
INSERT
  8
29
  2
RECT
 10
69.1260
 20
64.2620
 30
0.0000
 41
1.0770
 42
1.1270
 43
1.0000
 50
0.0000
  0
INSERT
  8
29
  2
RECT
 10
67.4260
 20
66.0400
 30
0.0000
 41
1.2770
 42
1.5770
 43
1.0000
 50
0.0000
  0
INSERT
  8
29
  2
RECT
 10
69.2260
 20
66.0400
 30
0.0000
 41
1.2770
 42
1.5770
 43
1.0000
 50
0.0000
  0
INSERT
  8
29
  2
RECT
 10
59.9280
 20
65.0900
 30
0.0000
 41
0.9270
 42
1.0270
 43
1.0000
 50
90.0000
  0
INSERT
  8
29
  2
RECT
 10
59.9280
 20
66.9900
 30
0.0000
 41
0.9270
 42
1.0270
 43
1.0000
 50
90.0000
  0
INSERT
  8
29
  2
RECT
 10
57.9280
 20
66.0400
 30
0.0000
 41
0.9270
 42
1.0270
 43
1.0000
 50
90.0000
  0
INSERT
  8
29
  2
RECT
 10
65.0080
 20
65.5980
 30
0.0000
 41
0.9270
 42
1.0270
 43
1.0000
 50
90.0000
  0
INSERT
  8
29
  2
RECT
 10
65.0080
 20
67.4980
 30
0.0000
 41
0.9270
 42
1.0270
 43
1.0000
 50
90.0000
  0
INSERT
  8
29
  2
RECT
 10
63.0080
 20
66.5480
 30
0.0000
 41
0.9270
 42
1.0270
 43
1.0000
 50
90.0000
  0
INSERT
  8
29
  2
RECT
 10
89.2200
 20
55.1340
 30
0.0000
 41
0.9270
 42
1.0270
 43
1.0000
 50
0.0000
  0
INSERT
  8
29
  2
RECT
 10
91.1200
 20
55.1340
 30
0.0000
 41
0.9270
 42
1.0270
 43
1.0000
 50
0.0000
  0
INSERT
  8
29
  2
RECT
 10
90.1700
 20
57.1340
 30
0.0000
 41
0.9270
 42
1.0270
 43
1.0000
 50
0.0000
  0
INSERT
  8
29
  2
RECT
 10
89.9820
 20
13.2240
 30
0.0000
 41
0.9270
 42
1.0270
 43
1.0000
 50
0.0000
  0
INSERT
  8
29
  2
RECT
 10
91.8820
 20
13.2240
 30
0.0000
 41
0.9270
 42
1.0270
 43
1.0000
 50
0.0000
  0
INSERT
  8
29
  2
RECT
 10
90.9320
 20
15.2240
 30
0.0000
 41
0.9270
 42
1.0270
 43
1.0000
 50
0.0000
  0
INSERT
  8
29
  2
RECT
 10
89.9820
 20
17.5420
 30
0.0000
 41
0.9270
 42
1.0270
 43
1.0000
 50
0.0000
  0
INSERT
  8
29
  2
RECT
 10
91.8820
 20
17.5420
 30
0.0000
 41
0.9270
 42
1.0270
 43
1.0000
 50
0.0000
  0
INSERT
  8
29
  2
RECT
 10
90.9320
 20
19.5420
 30
0.0000
 41
0.9270
 42
1.0270
 43
1.0000
 50
0.0000
  0
INSERT
  8
29
  2
RECT
 10
89.9820
 20
21.3520
 30
0.0000
 41
0.9270
 42
1.0270
 43
1.0000
 50
0.0000
  0
INSERT
  8
29
  2
RECT
 10
91.8820
 20
21.3520
 30
0.0000
 41
0.9270
 42
1.0270
 43
1.0000
 50
0.0000
  0
INSERT
  8
29
  2
RECT
 10
90.9320
 20
23.3520
 30
0.0000
 41
0.9270
 42
1.0270
 43
1.0000
 50
0.0000
  0
INSERT
  8
29
  2
RECT
 10
89.9820
 20
25.1620
 30
0.0000
 41
0.9270
 42
1.0270
 43
1.0000
 50
0.0000
  0
INSERT
  8
29
  2
RECT
 10
91.8820
 20
25.1620
 30
0.0000
 41
0.9270
 42
1.0270
 43
1.0000
 50
0.0000
  0
INSERT
  8
29
  2
RECT
 10
90.9320
 20
27.1620
 30
0.0000
 41
0.9270
 42
1.0270
 43
1.0000
 50
0.0000
  0
INSERT
  8
29
  2
RECT
 10
91.8820
 20
65.2620
 30
0.0000
 41
0.9270
 42
1.0270
 43
1.0000
 50
180.0000
  0
INSERT
  8
29
  2
RECT
 10
89.9820
 20
65.2620
 30
0.0000
 41
0.9270
 42
1.0270
 43
1.0000
 50
180.0000
  0
INSERT
  8
29
  2
RECT
 10
90.9320
 20
63.2620
 30
0.0000
 41
0.9270
 42
1.0270
 43
1.0000
 50
180.0000
  0
INSERT
  8
29
  2
RECT
 10
91.8820
 20
69.3260
 30
0.0000
 41
0.9270
 42
1.0270
 43
1.0000
 50
180.0000
  0
INSERT
  8
29
  2
RECT
 10
89.9820
 20
69.3260
 30
0.0000
 41
0.9270
 42
1.0270
 43
1.0000
 50
180.0000
  0
INSERT
  8
29
  2
RECT
 10
90.9320
 20
67.3260
 30
0.0000
 41
0.9270
 42
1.0270
 43
1.0000
 50
180.0000
  0
INSERT
  8
29
  2
RECT
 10
92.3900
 20
61.1980
 30
0.0000
 41
0.9270
 42
1.0270
 43
1.0000
 50
180.0000
  0
INSERT
  8
29
  2
RECT
 10
90.4900
 20
61.1980
 30
0.0000
 41
0.9270
 42
1.0270
 43
1.0000
 50
180.0000
  0
INSERT
  8
29
  2
RECT
 10
91.4400
 20
59.1980
 30
0.0000
 41
0.9270
 42
1.0270
 43
1.0000
 50
180.0000
  0
INSERT
  8
29
  2
RECT
 10
3.1160
 20
62.4140
 30
0.0000
 41
1.2270
 42
1.1270
 43
1.0000
 50
90.0000
  0
INSERT
  8
29
  2
RECT
 10
3.1160
 20
64.1140
 30
0.0000
 41
1.2270
 42
1.1270
 43
1.0000
 50
90.0000
  0
INSERT
  8
29
  2
RECT
 10
4.7580
 20
62.3780
 30
0.0000
 41
1.2270
 42
1.1270
 43
1.0000
 50
90.0000
  0
INSERT
  8
29
  2
RECT
 10
4.7580
 20
64.0780
 30
0.0000
 41
1.2270
 42
1.1270
 43
1.0000
 50
90.0000
  0
INSERT
  8
29
  2
RECT
 10
48.0060
 20
68.4140
 30
0.0000
 41
1.2270
 42
1.1270
 43
1.0000
 50
270.0000
  0
INSERT
  8
29
  2
RECT
 10
48.0060
 20
66.7140
 30
0.0000
 41
1.2270
 42
1.1270
 43
1.0000
 50
270.0000
  0
INSERT
  8
29
  2
RECT
 10
66.5480
 20
72.2240
 30
0.0000
 41
1.2270
 42
1.1270
 43
1.0000
 50
270.0000
  0
INSERT
  8
29
  2
RECT
 10
66.5480
 20
70.5240
 30
0.0000
 41
1.2270
 42
1.1270
 43
1.0000
 50
270.0000
  0
INSERT
  8
29
  2
RECT
 10
6.6341
 20
16.5760
 30
0.0000
 41
0.6770
 42
1.3270
 43
1.0000
 50
90.0000
  0
INSERT
  8
29
  2
RECT
 10
6.6341
 20
17.5260
 30
0.0000
 41
0.6770
 42
1.3270
 43
1.0000
 50
90.0000
  0
INSERT
  8
29
  2
RECT
 10
6.6341
 20
18.4760
 30
0.0000
 41
0.6770
 42
1.3270
 43
1.0000
 50
90.0000
  0
INSERT
  8
29
  2
RECT
 10
4.0339
 20
18.4760
 30
0.0000
 41
0.6770
 42
1.3270
 43
1.0000
 50
90.0000
  0
INSERT
  8
29
  2
RECT
 10
4.0339
 20
16.5760
 30
0.0000
 41
0.6770
 42
1.3270
 43
1.0000
 50
90.0000
  0
INSERT
  8
29
  2
RECT
 10
8.3312
 20
42.0370
 30
0.0000
 41
1.6002
 42
0.4826
 43
1.0000
 50
270.0000
  0
INSERT
  8
29
  2
RECT
 10
7.6962
 20
42.0370
 30
0.0000
 41
1.6002
 42
0.4826
 43
1.0000
 50
270.0000
  0
INSERT
  8
29
  2
RECT
 10
7.0358
 20
42.0370
 30
0.0000
 41
1.6002
 42
0.4826
 43
1.0000
 50
270.0000
  0
INSERT
  8
29
  2
RECT
 10
6.4008
 20
42.0370
 30
0.0000
 41
1.6002
 42
0.4826
 43
1.0000
 50
270.0000
  0
INSERT
  8
29
  2
RECT
 10
6.4008
 20
36.1950
 30
0.0000
 41
1.6002
 42
0.4826
 43
1.0000
 50
270.0000
  0
INSERT
  8
29
  2
RECT
 10
7.0358
 20
36.1950
 30
0.0000
 41
1.6002
 42
0.4826
 43
1.0000
 50
270.0000
  0
INSERT
  8
29
  2
RECT
 10
7.6962
 20
36.1950
 30
0.0000
 41
1.6002
 42
0.4826
 43
1.0000
 50
270.0000
  0
INSERT
  8
29
  2
RECT
 10
8.3312
 20
36.1950
 30
0.0000
 41
1.6002
 42
0.4826
 43
1.0000
 50
270.0000
  0
INSERT
  8
29
  2
RECT
 10
10.8300
 20
58.9220
 30
0.0000
 41
0.8800
 42
0.3500
 43
1.0000
 50
180.0000
  0
INSERT
  8
29
  2
RECT
 10
10.8300
 20
59.4220
 30
0.0000
 41
0.8800
 42
0.3500
 43
1.0000
 50
180.0000
  0
INSERT
  8
29
  2
RECT
 10
10.8300
 20
59.9220
 30
0.0000
 41
0.8800
 42
0.3500
 43
1.0000
 50
180.0000
  0
INSERT
  8
29
  2
RECT
 10
10.8300
 20
60.4220
 30
0.0000
 41
0.8800
 42
0.3500
 43
1.0000
 50
180.0000
  0
INSERT
  8
29
  2
RECT
 10
10.0800
 20
61.1720
 30
0.0000
 41
0.8800
 42
0.3500
 43
1.0000
 50
270.0000
  0
INSERT
  8
29
  2
RECT
 10
9.5800
 20
61.1720
 30
0.0000
 41
0.8800
 42
0.3500
 43
1.0000
 50
270.0000
  0
INSERT
  8
29
  2
RECT
 10
9.0800
 20
61.1720
 30
0.0000
 41
0.8800
 42
0.3500
 43
1.0000
 50
270.0000
  0
INSERT
  8
29
  2
RECT
 10
8.5800
 20
61.1720
 30
0.0000
 41
0.8800
 42
0.3500
 43
1.0000
 50
270.0000
  0
INSERT
  8
29
  2
RECT
 10
7.8300
 20
60.4220
 30
0.0000
 41
0.8800
 42
0.3500
 43
1.0000
 50
0.0000
  0
INSERT
  8
29
  2
RECT
 10
7.8300
 20
59.9220
 30
0.0000
 41
0.8800
 42
0.3500
 43
1.0000
 50
0.0000
  0
INSERT
  8
29
  2
RECT
 10
7.8300
 20
59.4220
 30
0.0000
 41
0.8800
 42
0.3500
 43
1.0000
 50
0.0000
  0
INSERT
  8
29
  2
RECT
 10
7.8300
 20
58.9220
 30
0.0000
 41
0.8800
 42
0.3500
 43
1.0000
 50
0.0000
  0
INSERT
  8
29
  2
RECT
 10
8.5800
 20
58.1720
 30
0.0000
 41
0.8800
 42
0.3500
 43
1.0000
 50
90.0000
  0
INSERT
  8
29
  2
RECT
 10
9.0800
 20
58.1720
 30
0.0000
 41
0.8800
 42
0.3500
 43
1.0000
 50
90.0000
  0
INSERT
  8
29
  2
RECT
 10
9.5800
 20
58.1720
 30
0.0000
 41
0.8800
 42
0.3500
 43
1.0000
 50
90.0000
  0
INSERT
  8
29
  2
RECT
 10
10.0800
 20
58.1720
 30
0.0000
 41
0.8800
 42
0.3500
 43
1.0000
 50
90.0000
  0
INSERT
  8
29
  2
RECT
 10
9.3300
 20
59.6720
 30
0.0000
 41
1.6270
 42
1.6270
 43
1.0000
 50
180.0000
  0
INSERT
  8
29
  2
RECT
 10
44.2620
 20
40.6099
 30
0.0000
 41
0.6770
 42
1.3270
 43
1.0000
 50
0.0000
  0
INSERT
  8
29
  2
RECT
 10
45.2120
 20
40.6099
 30
0.0000
 41
0.6770
 42
1.3270
 43
1.0000
 50
0.0000
  0
INSERT
  8
29
  2
RECT
 10
46.1620
 20
40.6099
 30
0.0000
 41
0.6770
 42
1.3270
 43
1.0000
 50
0.0000
  0
INSERT
  8
29
  2
RECT
 10
46.1620
 20
43.2101
 30
0.0000
 41
0.6770
 42
1.3270
 43
1.0000
 50
0.0000
  0
INSERT
  8
29
  2
RECT
 10
44.2620
 20
43.2101
 30
0.0000
 41
0.6770
 42
1.3270
 43
1.0000
 50
0.0000
  0
INSERT
  8
29
  2
RECT
 10
72.2630
 20
37.0332
 30
0.0000
 41
1.6002
 42
0.4826
 43
1.0000
 50
180.0000
  0
INSERT
  8
29
  2
RECT
 10
72.2630
 20
37.6936
 30
0.0000
 41
1.6002
 42
0.4826
 43
1.0000
 50
180.0000
  0
INSERT
  8
29
  2
RECT
 10
72.2630
 20
38.3286
 30
0.0000
 41
1.6002
 42
0.4826
 43
1.0000
 50
180.0000
  0
INSERT
  8
29
  2
RECT
 10
72.2630
 20
38.9890
 30
0.0000
 41
1.6002
 42
0.4826
 43
1.0000
 50
180.0000
  0
INSERT
  8
29
  2
RECT
 10
72.2630
 20
39.6494
 30
0.0000
 41
1.6002
 42
0.4826
 43
1.0000
 50
180.0000
  0
INSERT
  8
29
  2
RECT
 10
72.2630
 20
40.2844
 30
0.0000
 41
1.6002
 42
0.4826
 43
1.0000
 50
180.0000
  0
INSERT
  8
29
  2
RECT
 10
72.2630
 20
40.9448
 30
0.0000
 41
1.6002
 42
0.4826
 43
1.0000
 50
180.0000
  0
INSERT
  8
29
  2
RECT
 10
72.2630
 20
41.5798
 30
0.0000
 41
1.6002
 42
0.4826
 43
1.0000
 50
180.0000
  0
INSERT
  8
29
  2
RECT
 10
72.2630
 20
42.2402
 30
0.0000
 41
1.6002
 42
0.4826
 43
1.0000
 50
180.0000
  0
INSERT
  8
29
  2
RECT
 10
72.2630
 20
42.9006
 30
0.0000
 41
1.6002
 42
0.4826
 43
1.0000
 50
180.0000
  0
INSERT
  8
29
  2
RECT
 10
72.2630
 20
43.5356
 30
0.0000
 41
1.6002
 42
0.4826
 43
1.0000
 50
180.0000
  0
INSERT
  8
29
  2
RECT
 10
72.2630
 20
44.1960
 30
0.0000
 41
1.6002
 42
0.4826
 43
1.0000
 50
180.0000
  0
INSERT
  8
29
  2
RECT
 10
66.4210
 20
44.1960
 30
0.0000
 41
1.6002
 42
0.4826
 43
1.0000
 50
180.0000
  0
INSERT
  8
29
  2
RECT
 10
66.4210
 20
43.5356
 30
0.0000
 41
1.6002
 42
0.4826
 43
1.0000
 50
180.0000
  0
INSERT
  8
29
  2
RECT
 10
66.4210
 20
42.9006
 30
0.0000
 41
1.6002
 42
0.4826
 43
1.0000
 50
180.0000
  0
INSERT
  8
29
  2
RECT
 10
66.4210
 20
42.2402
 30
0.0000
 41
1.6002
 42
0.4826
 43
1.0000
 50
180.0000
  0
INSERT
  8
29
  2
RECT
 10
66.4210
 20
41.5798
 30
0.0000
 41
1.6002
 42
0.4826
 43
1.0000
 50
180.0000
  0
INSERT
  8
29
  2
RECT
 10
66.4210
 20
40.9448
 30
0.0000
 41
1.6002
 42
0.4826
 43
1.0000
 50
180.0000
  0
INSERT
  8
29
  2
RECT
 10
66.4210
 20
40.2844
 30
0.0000
 41
1.6002
 42
0.4826
 43
1.0000
 50
180.0000
  0
INSERT
  8
29
  2
RECT
 10
66.4210
 20
39.6494
 30
0.0000
 41
1.6002
 42
0.4826
 43
1.0000
 50
180.0000
  0
INSERT
  8
29
  2
RECT
 10
66.4210
 20
38.9890
 30
0.0000
 41
1.6002
 42
0.4826
 43
1.0000
 50
180.0000
  0
INSERT
  8
29
  2
RECT
 10
66.4210
 20
38.3286
 30
0.0000
 41
1.6002
 42
0.4826
 43
1.0000
 50
180.0000
  0
INSERT
  8
29
  2
RECT
 10
66.4210
 20
37.6936
 30
0.0000
 41
1.6002
 42
0.4826
 43
1.0000
 50
180.0000
  0
INSERT
  8
29
  2
RECT
 10
66.4210
 20
37.0332
 30
0.0000
 41
1.6002
 42
0.4826
 43
1.0000
 50
180.0000
  0
INSERT
  8
29
  2
RECT
 10
101.1940
 20
18.1610
 30
0.0000
 41
0.9270
 42
1.3270
 43
1.0000
 50
90.0000
  0
INSERT
  8
29
  2
RECT
 10
101.1940
 20
19.4310
 30
0.0000
 41
0.9270
 42
1.3270
 43
1.0000
 50
90.0000
  0
INSERT
  8
29
  2
RECT
 10
101.1940
 20
20.7010
 30
0.0000
 41
0.9270
 42
1.3270
 43
1.0000
 50
90.0000
  0
INSERT
  8
29
  2
RECT
 10
101.1940
 20
21.9710
 30
0.0000
 41
0.9270
 42
1.3270
 43
1.0000
 50
90.0000
  0
INSERT
  8
29
  2
RECT
 10
101.1940
 20
23.2410
 30
0.0000
 41
0.9270
 42
1.3270
 43
1.0000
 50
90.0000
  0
INSERT
  8
29
  2
RECT
 10
101.1940
 20
24.5110
 30
0.0000
 41
0.9270
 42
1.3270
 43
1.0000
 50
90.0000
  0
INSERT
  8
29
  2
RECT
 10
101.1940
 20
25.7810
 30
0.0000
 41
0.9270
 42
1.3270
 43
1.0000
 50
90.0000
  0
INSERT
  8
29
  2
RECT
 10
101.1940
 20
27.0510
 30
0.0000
 41
0.9270
 42
1.3270
 43
1.0000
 50
90.0000
  0
INSERT
  8
29
  2
RECT
 10
94.8940
 20
27.0510
 30
0.0000
 41
0.9270
 42
1.3270
 43
1.0000
 50
90.0000
  0
INSERT
  8
29
  2
RECT
 10
94.8940
 20
25.7810
 30
0.0000
 41
0.9270
 42
1.3270
 43
1.0000
 50
90.0000
  0
INSERT
  8
29
  2
RECT
 10
94.8940
 20
24.5110
 30
0.0000
 41
0.9270
 42
1.3270
 43
1.0000
 50
90.0000
  0
INSERT
  8
29
  2
RECT
 10
94.8940
 20
23.2410
 30
0.0000
 41
0.9270
 42
1.3270
 43
1.0000
 50
90.0000
  0
INSERT
  8
29
  2
RECT
 10
94.8940
 20
21.9710
 30
0.0000
 41
0.9270
 42
1.3270
 43
1.0000
 50
90.0000
  0
INSERT
  8
29
  2
RECT
 10
94.8940
 20
20.7010
 30
0.0000
 41
0.9270
 42
1.3270
 43
1.0000
 50
90.0000
  0
INSERT
  8
29
  2
RECT
 10
94.8940
 20
19.4310
 30
0.0000
 41
0.9270
 42
1.3270
 43
1.0000
 50
90.0000
  0
INSERT
  8
29
  2
RECT
 10
94.8940
 20
18.1610
 30
0.0000
 41
0.9270
 42
1.3270
 43
1.0000
 50
90.0000
  0
INSERT
  8
29
  2
RECT116320X228320R100
 10
107.6897
 20
59.1820
 30
0.0000
 41
1.0000
 42
1.0000
 43
1.0000
 50
270.0000
  0
INSERT
  8
29
  2
RECT116320X228320R100
 10
107.6897
 20
56.6420
 30
0.0000
 41
1.0000
 42
1.0000
 43
1.0000
 50
270.0000
  0
INSERT
  8
29
  2
RECT116320X228320R100
 10
113.2904
 20
56.6420
 30
0.0000
 41
1.0000
 42
1.0000
 43
1.0000
 50
270.0000
  0
INSERT
  8
29
  2
RECT116320X228320R100
 10
113.2904
 20
59.1820
 30
0.0000
 41
1.0000
 42
1.0000
 43
1.0000
 50
270.0000
  0
INSERT
  8
29
  2
RECT116320X228320R100
 10
107.6897
 20
64.0080
 30
0.0000
 41
1.0000
 42
1.0000
 43
1.0000
 50
270.0000
  0
INSERT
  8
29
  2
RECT116320X228320R100
 10
107.6897
 20
61.4680
 30
0.0000
 41
1.0000
 42
1.0000
 43
1.0000
 50
270.0000
  0
INSERT
  8
29
  2
RECT116320X228320R100
 10
113.2904
 20
61.4680
 30
0.0000
 41
1.0000
 42
1.0000
 43
1.0000
 50
270.0000
  0
INSERT
  8
29
  2
RECT116320X228320R100
 10
113.2904
 20
64.0080
 30
0.0000
 41
1.0000
 42
1.0000
 43
1.0000
 50
270.0000
  0
INSERT
  8
29
  2
RECT116320X228320R100
 10
107.6897
 20
68.8340
 30
0.0000
 41
1.0000
 42
1.0000
 43
1.0000
 50
270.0000
  0
INSERT
  8
29
  2
RECT116320X228320R100
 10
107.6897
 20
66.2940
 30
0.0000
 41
1.0000
 42
1.0000
 43
1.0000
 50
270.0000
  0
INSERT
  8
29
  2
RECT116320X228320R100
 10
113.2904
 20
66.2940
 30
0.0000
 41
1.0000
 42
1.0000
 43
1.0000
 50
270.0000
  0
INSERT
  8
29
  2
RECT116320X228320R100
 10
113.2904
 20
68.8340
 30
0.0000
 41
1.0000
 42
1.0000
 43
1.0000
 50
270.0000
  0
INSERT
  8
29
  2
RECT116320X228320R100
 10
107.6897
 20
73.6600
 30
0.0000
 41
1.0000
 42
1.0000
 43
1.0000
 50
270.0000
  0
INSERT
  8
29
  2
RECT116320X228320R100
 10
107.6897
 20
71.1200
 30
0.0000
 41
1.0000
 42
1.0000
 43
1.0000
 50
270.0000
  0
INSERT
  8
29
  2
RECT116320X228320R100
 10
113.2904
 20
71.1200
 30
0.0000
 41
1.0000
 42
1.0000
 43
1.0000
 50
270.0000
  0
INSERT
  8
29
  2
RECT116320X228320R100
 10
113.2904
 20
73.6600
 30
0.0000
 41
1.0000
 42
1.0000
 43
1.0000
 50
270.0000
  0
INSERT
  8
29
  2
SQUAREP
 10
3.5560
 20
71.8820
 30
0.0000
 41
2.0066
 42
2.0066
 43
1.0000
 50
0.0000
  0
INSERT
  8
29
  2
ROUNDP
 10
6.0960
 20
71.8820
 30
0.0000
 41
2.0066
 42
2.0066
 43
1.0000
 50
0.0000
  0
INSERT
  8
29
  2
ROUNDP
 10
8.0010
 20
5.9690
 30
0.0000
 41
2.1270
 42
2.1270
 43
1.0000
 50
0.0000
  0
INSERT
  8
29
  2
ROUNDP
 10
11.8110
 20
5.9690
 30
0.0000
 41
2.1270
 42
2.1270
 43
1.0000
 50
0.0000
  0
INSERT
  8
29
  2
ROUNDP
 10
10.6680
 20
20.8120
 30
0.0000
 41
1.5748
 42
1.5748
 43
1.0000
 50
270.0000
  0
INSERT
  8
29
  2
ROUNDP
 10
10.6680
 20
18.8120
 30
0.0000
 41
1.5748
 42
1.5748
 43
1.0000
 50
270.0000
  0
INSERT
  8
29
  2
SQUAREP
 10
53.0860
 20
72.1360
 30
0.0000
 41
1.9050
 42
1.9050
 43
1.0000
 50
90.0000
  0
INSERT
  8
29
  2
OCTAGONP
 10
55.6260
 20
72.1360
 30
0.0000
 41
1.9050
 42
1.9050
 43
1.0000
 50
90.0000
  0
INSERT
  8
29
  2
OCTAGONP
 10
58.1660
 20
72.1360
 30
0.0000
 41
1.9050
 42
1.9050
 43
1.0000
 50
90.0000
  0
INSERT
  8
29
  2
OCTAGONP
 10
60.7060
 20
72.1360
 30
0.0000
 41
1.9050
 42
1.9050
 43
1.0000
 50
90.0000
  0
INSERT
  8
29
  2
SQUAREP
 10
90.9800
 20
34.2900
 30
0.0000
 41
1.3970
 42
1.3970
 43
1.0000
 50
0.0000
  0
INSERT
  8
29
  2
ROUNDP
 10
92.9800
 20
34.2900
 30
0.0000
 41
1.3970
 42
1.3970
 43
1.0000
 50
0.0000
  0
INSERT
  8
29
  2
ROUNDP
 10
94.9800
 20
34.2900
 30
0.0000
 41
1.3970
 42
1.3970
 43
1.0000
 50
0.0000
  0
INSERT
  8
29
  2
ROUNDP
 10
96.9800
 20
34.2900
 30
0.0000
 41
1.3970
 42
1.3970
 43
1.0000
 50
0.0000
  0
INSERT
  8
29
  2
SQUAREP
 10
96.9800
 20
50.2920
 30
0.0000
 41
1.3970
 42
1.3970
 43
1.0000
 50
180.0000
  0
INSERT
  8
29
  2
ROUNDP
 10
94.9800
 20
50.2920
 30
0.0000
 41
1.3970
 42
1.3970
 43
1.0000
 50
180.0000
  0
INSERT
  8
29
  2
ROUNDP
 10
92.9800
 20
50.2920
 30
0.0000
 41
1.3970
 42
1.3970
 43
1.0000
 50
180.0000
  0
INSERT
  8
29
  2
ROUNDP
 10
90.9800
 20
50.2920
 30
0.0000
 41
1.3970
 42
1.3970
 43
1.0000
 50
180.0000
  0
INSERT
  8
29
  2
SQUAREP
 10
109.9820
 20
43.5610
 30
0.0000
 41
1.9270
 42
1.9270
 43
1.0000
 50
180.0000
  0
INSERT
  8
29
  2
ROUNDP
 10
109.9820
 20
41.0210
 30
0.0000
 41
1.9270
 42
1.9270
 43
1.0000
 50
180.0000
  0
INSERT
  8
29
  2
ROUNDP
 10
107.4420
 20
43.5610
 30
0.0000
 41
1.9270
 42
1.9270
 43
1.0000
 50
180.0000
  0
INSERT
  8
29
  2
ROUNDP
 10
107.4420
 20
41.0210
 30
0.0000
 41
1.9270
 42
1.9270
 43
1.0000
 50
180.0000
  0
INSERT
  8
29
  2
ROUNDP
 10
104.9020
 20
43.5610
 30
0.0000
 41
1.9270
 42
1.9270
 43
1.0000
 50
180.0000
  0
INSERT
  8
29
  2
ROUNDP
 10
104.9020
 20
41.0210
 30
0.0000
 41
1.9270
 42
1.9270
 43
1.0000
 50
180.0000
  0
INSERT
  8
29
  2
ROUNDP
 10
102.3620
 20
43.5610
 30
0.0000
 41
1.9270
 42
1.9270
 43
1.0000
 50
180.0000
  0
INSERT
  8
29
  2
ROUNDP
 10
102.3620
 20
41.0210
 30
0.0000
 41
1.9270
 42
1.9270
 43
1.0000
 50
180.0000
  0
INSERT
  8
29
  2
ROUNDP
 10
99.8220
 20
43.5610
 30
0.0000
 41
1.9270
 42
1.9270
 43
1.0000
 50
180.0000
  0
INSERT
  8
29
  2
ROUNDP
 10
99.8220
 20
41.0210
 30
0.0000
 41
1.9270
 42
1.9270
 43
1.0000
 50
180.0000
  0
INSERT
  8
29
  2
ROUNDP
 10
97.2820
 20
43.5610
 30
0.0000
 41
1.9270
 42
1.9270
 43
1.0000
 50
180.0000
  0
INSERT
  8
29
  2
ROUNDP
 10
97.2820
 20
41.0210
 30
0.0000
 41
1.9270
 42
1.9270
 43
1.0000
 50
180.0000
  0
INSERT
  8
29
  2
ROUNDP
 10
94.7420
 20
43.5610
 30
0.0000
 41
1.9270
 42
1.9270
 43
1.0000
 50
180.0000
  0
INSERT
  8
29
  2
ROUNDP
 10
94.7420
 20
41.0210
 30
0.0000
 41
1.9270
 42
1.9270
 43
1.0000
 50
180.0000
  0
INSERT
  8
29
  2
ROUNDP
 10
92.2020
 20
43.5610
 30
0.0000
 41
1.9270
 42
1.9270
 43
1.0000
 50
180.0000
  0
INSERT
  8
29
  2
ROUNDP
 10
92.2020
 20
41.0210
 30
0.0000
 41
1.9270
 42
1.9270
 43
1.0000
 50
180.0000
  0
INSERT
  8
29
  2
SQUAREP
 10
104.1880
 20
34.2900
 30
0.0000
 41
1.3970
 42
1.3970
 43
1.0000
 50
0.0000
  0
INSERT
  8
29
  2
ROUNDP
 10
106.1880
 20
34.2900
 30
0.0000
 41
1.3970
 42
1.3970
 43
1.0000
 50
0.0000
  0
INSERT
  8
29
  2
ROUNDP
 10
108.1880
 20
34.2900
 30
0.0000
 41
1.3970
 42
1.3970
 43
1.0000
 50
0.0000
  0
INSERT
  8
29
  2
ROUNDP
 10
110.1880
 20
34.2900
 30
0.0000
 41
1.3970
 42
1.3970
 43
1.0000
 50
0.0000
  0
INSERT
  8
29
  2
SQUAREP
 10
110.1880
 20
50.2920
 30
0.0000
 41
1.3970
 42
1.3970
 43
1.0000
 50
180.0000
  0
INSERT
  8
29
  2
ROUNDP
 10
108.1880
 20
50.2920
 30
0.0000
 41
1.3970
 42
1.3970
 43
1.0000
 50
180.0000
  0
INSERT
  8
29
  2
ROUNDP
 10
106.1880
 20
50.2920
 30
0.0000
 41
1.3970
 42
1.3970
 43
1.0000
 50
180.0000
  0
INSERT
  8
29
  2
ROUNDP
 10
104.1880
 20
50.2920
 30
0.0000
 41
1.3970
 42
1.3970
 43
1.0000
 50
180.0000
  0
INSERT
  8
29
  2
ROUNDP
 10
120.2690
 20
4.4450
 30
0.0000
 41
2.1270
 42
2.1270
 43
1.0000
 50
90.0000
  0
INSERT
  8
29
  2
ROUNDP
 10
120.2690
 20
8.2550
 30
0.0000
 41
2.1270
 42
2.1270
 43
1.0000
 50
90.0000
  0
INSERT
  8
29
  2
ROUNDP
 10
120.2690
 20
12.0650
 30
0.0000
 41
2.1270
 42
2.1270
 43
1.0000
 50
90.0000
  0
INSERT
  8
29
  2
ROUNDP
 10
120.2690
 20
15.8750
 30
0.0000
 41
2.1270
 42
2.1270
 43
1.0000
 50
90.0000
  0
INSERT
  8
29
  2
ROUNDP
 10
120.2690
 20
19.6850
 30
0.0000
 41
2.1270
 42
2.1270
 43
1.0000
 50
90.0000
  0
INSERT
  8
29
  2
ROUNDP
 10
120.2690
 20
23.4950
 30
0.0000
 41
2.1270
 42
2.1270
 43
1.0000
 50
90.0000
  0
INSERT
  8
29
  2
ROUNDP
 10
120.2690
 20
27.3050
 30
0.0000
 41
2.1270
 42
2.1270
 43
1.0000
 50
90.0000
  0
INSERT
  8
29
  2
ROUNDP
 10
120.2690
 20
31.1150
 30
0.0000
 41
2.1270
 42
2.1270
 43
1.0000
 50
90.0000
  0
INSERT
  8
29
  2
ROUNDP
 10
120.2690
 20
45.0850
 30
0.0000
 41
2.1270
 42
2.1270
 43
1.0000
 50
90.0000
  0
INSERT
  8
29
  2
ROUNDP
 10
120.2690
 20
48.8950
 30
0.0000
 41
2.1270
 42
2.1270
 43
1.0000
 50
90.0000
  0
INSERT
  8
29
  2
ROUNDP
 10
120.2690
 20
52.7050
 30
0.0000
 41
2.1270
 42
2.1270
 43
1.0000
 50
90.0000
  0
INSERT
  8
29
  2
ROUNDP
 10
120.2690
 20
56.5150
 30
0.0000
 41
2.1270
 42
2.1270
 43
1.0000
 50
90.0000
  0
INSERT
  8
29
  2
ROUNDP
 10
120.2690
 20
60.3250
 30
0.0000
 41
2.1270
 42
2.1270
 43
1.0000
 50
90.0000
  0
INSERT
  8
29
  2
ROUNDP
 10
120.2690
 20
64.1350
 30
0.0000
 41
2.1270
 42
2.1270
 43
1.0000
 50
90.0000
  0
INSERT
  8
29
  2
ROUNDP
 10
120.2690
 20
67.9450
 30
0.0000
 41
2.1270
 42
2.1270
 43
1.0000
 50
90.0000
  0
INSERT
  8
29
  2
ROUNDP
 10
120.2690
 20
71.7550
 30
0.0000
 41
2.1270
 42
2.1270
 43
1.0000
 50
90.0000
  0
CIRCLE
  8
20
 10
69.6400
 20
27.8000
 30
0.0000
 40
1.3750
  0
POLYLINE
  8
29
 66
1
 10
0.0000
 20
0.0000
 30
0.0000
 40
1.4385
 41
1.4385
 70
0
  0
VERTEX
  8
29
 10
69.6400
 20
27.0808
 30
0.0000
 42
1.0000
  0
VERTEX
  8
29
 10
69.6400
 20
28.5192
 30
0.0000
 42
1.0000
  0
VERTEX
  8
29
 10
69.6400
 20
27.0808
 30
0.0000
  0
SEQEND
  8
0
  0
CIRCLE
  8
20
 10
69.6400
 20
50.8000
 30
0.0000
 40
1.3750
  0
POLYLINE
  8
29
 66
1
 10
0.0000
 20
0.0000
 30
0.0000
 40
1.4385
 41
1.4385
 70
0
  0
VERTEX
  8
29
 10
69.6400
 20
50.0808
 30
0.0000
 42
1.0000
  0
VERTEX
  8
29
 10
69.6400
 20
51.5193
 30
0.0000
 42
1.0000
  0
VERTEX
  8
29
 10
69.6400
 20
50.0808
 30
0.0000
  0
SEQEND
  8
0
  0
CIRCLE
  8
20
 10
11.6400
 20
27.8000
 30
0.0000
 40
1.3750
  0
POLYLINE
  8
29
 66
1
 10
0.0000
 20
0.0000
 30
0.0000
 40
1.4385
 41
1.4385
 70
0
  0
VERTEX
  8
29
 10
11.6400
 20
27.0808
 30
0.0000
 42
1.0000
  0
VERTEX
  8
29
 10
11.6400
 20
28.5192
 30
0.0000
 42
1.0000
  0
VERTEX
  8
29
 10
11.6400
 20
27.0808
 30
0.0000
  0
SEQEND
  8
0
  0
CIRCLE
  8
20
 10
11.6400
 20
50.8000
 30
0.0000
 40
1.3750
  0
POLYLINE
  8
29
 66
1
 10
0.0000
 20
0.0000
 30
0.0000
 40
1.4385
 41
1.4385
 70
0
  0
VERTEX
  8
29
 10
11.6400
 20
50.0808
 30
0.0000
 42
1.0000
  0
VERTEX
  8
29
 10
11.6400
 20
51.5193
 30
0.0000
 42
1.0000
  0
VERTEX
  8
29
 10
11.6400
 20
50.0808
 30
0.0000
  0
SEQEND
  8
0
  0
INSERT
  8
29
  2
SQUAREP
 10
64.7700
 20
49.5300
 30
0.0000
 41
1.9050
 42
1.9050
 43
1.0000
 50
180.0000
  0
INSERT
  8
29
  2
ROUNDP
 10
64.7700
 20
52.0700
 30
0.0000
 41
1.9050
 42
1.9050
 43
1.0000
 50
180.0000
  0
INSERT
  8
29
  2
ROUNDP
 10
62.2300
 20
49.5300
 30
0.0000
 41
1.9050
 42
1.9050
 43
1.0000
 50
180.0000
  0
INSERT
  8
29
  2
ROUNDP
 10
62.2300
 20
52.0700
 30
0.0000
 41
1.9050
 42
1.9050
 43
1.0000
 50
180.0000
  0
INSERT
  8
29
  2
ROUNDP
 10
59.6900
 20
49.5300
 30
0.0000
 41
1.9050
 42
1.9050
 43
1.0000
 50
180.0000
  0
INSERT
  8
29
  2
ROUNDP
 10
59.6900
 20
52.0700
 30
0.0000
 41
1.9050
 42
1.9050
 43
1.0000
 50
180.0000
  0
INSERT
  8
29
  2
ROUNDP
 10
57.1500
 20
49.5300
 30
0.0000
 41
1.9050
 42
1.9050
 43
1.0000
 50
180.0000
  0
INSERT
  8
29
  2
ROUNDP
 10
57.1500
 20
52.0700
 30
0.0000
 41
1.9050
 42
1.9050
 43
1.0000
 50
180.0000
  0
INSERT
  8
29
  2
ROUNDP
 10
54.6100
 20
49.5300
 30
0.0000
 41
1.9050
 42
1.9050
 43
1.0000
 50
180.0000
  0
INSERT
  8
29
  2
ROUNDP
 10
54.6100
 20
52.0700
 30
0.0000
 41
1.9050
 42
1.9050
 43
1.0000
 50
180.0000
  0
INSERT
  8
29
  2
ROUNDP
 10
52.0700
 20
49.5300
 30
0.0000
 41
1.9050
 42
1.9050
 43
1.0000
 50
180.0000
  0
INSERT
  8
29
  2
ROUNDP
 10
52.0700
 20
52.0700
 30
0.0000
 41
1.9050
 42
1.9050
 43
1.0000
 50
180.0000
  0
INSERT
  8
29
  2
ROUNDP
 10
49.5300
 20
49.5300
 30
0.0000
 41
1.9050
 42
1.9050
 43
1.0000
 50
180.0000
  0
INSERT
  8
29
  2
ROUNDP
 10
49.5300
 20
52.0700
 30
0.0000
 41
1.9050
 42
1.9050
 43
1.0000
 50
180.0000
  0
INSERT
  8
29
  2
ROUNDP
 10
46.9900
 20
49.5300
 30
0.0000
 41
1.9050
 42
1.9050
 43
1.0000
 50
180.0000
  0
INSERT
  8
29
  2
ROUNDP
 10
46.9900
 20
52.0700
 30
0.0000
 41
1.9050
 42
1.9050
 43
1.0000
 50
180.0000
  0
INSERT
  8
29
  2
ROUNDP
 10
44.4500
 20
49.5300
 30
0.0000
 41
1.9050
 42
1.9050
 43
1.0000
 50
180.0000
  0
INSERT
  8
29
  2
ROUNDP
 10
44.4500
 20
52.0700
 30
0.0000
 41
1.9050
 42
1.9050
 43
1.0000
 50
180.0000
  0
INSERT
  8
29
  2
ROUNDP
 10
41.9100
 20
49.5300
 30
0.0000
 41
1.9050
 42
1.9050
 43
1.0000
 50
180.0000
  0
INSERT
  8
29
  2
ROUNDP
 10
41.9100
 20
52.0700
 30
0.0000
 41
1.9050
 42
1.9050
 43
1.0000
 50
180.0000
  0
INSERT
  8
29
  2
ROUNDP
 10
39.3700
 20
49.5300
 30
0.0000
 41
1.9050
 42
1.9050
 43
1.0000
 50
180.0000
  0
INSERT
  8
29
  2
ROUNDP
 10
39.3700
 20
52.0700
 30
0.0000
 41
1.9050
 42
1.9050
 43
1.0000
 50
180.0000
  0
INSERT
  8
29
  2
ROUNDP
 10
36.8300
 20
49.5300
 30
0.0000
 41
1.9050
 42
1.9050
 43
1.0000
 50
180.0000
  0
INSERT
  8
29
  2
ROUNDP
 10
36.8300
 20
52.0700
 30
0.0000
 41
1.9050
 42
1.9050
 43
1.0000
 50
180.0000
  0
INSERT
  8
29
  2
ROUNDP
 10
34.2900
 20
49.5300
 30
0.0000
 41
1.9050
 42
1.9050
 43
1.0000
 50
180.0000
  0
INSERT
  8
29
  2
ROUNDP
 10
34.2900
 20
52.0700
 30
0.0000
 41
1.9050
 42
1.9050
 43
1.0000
 50
180.0000
  0
INSERT
  8
29
  2
ROUNDP
 10
31.7500
 20
49.5300
 30
0.0000
 41
1.9050
 42
1.9050
 43
1.0000
 50
180.0000
  0
INSERT
  8
29
  2
ROUNDP
 10
31.7500
 20
52.0700
 30
0.0000
 41
1.9050
 42
1.9050
 43
1.0000
 50
180.0000
  0
INSERT
  8
29
  2
ROUNDP
 10
29.2100
 20
49.5300
 30
0.0000
 41
1.9050
 42
1.9050
 43
1.0000
 50
180.0000
  0
INSERT
  8
29
  2
ROUNDP
 10
29.2100
 20
52.0700
 30
0.0000
 41
1.9050
 42
1.9050
 43
1.0000
 50
180.0000
  0
INSERT
  8
29
  2
ROUNDP
 10
26.6700
 20
49.5300
 30
0.0000
 41
1.9050
 42
1.9050
 43
1.0000
 50
180.0000
  0
INSERT
  8
29
  2
ROUNDP
 10
26.6700
 20
52.0700
 30
0.0000
 41
1.9050
 42
1.9050
 43
1.0000
 50
180.0000
  0
INSERT
  8
29
  2
ROUNDP
 10
24.1300
 20
49.5300
 30
0.0000
 41
1.9050
 42
1.9050
 43
1.0000
 50
180.0000
  0
INSERT
  8
29
  2
ROUNDP
 10
24.1300
 20
52.0700
 30
0.0000
 41
1.9050
 42
1.9050
 43
1.0000
 50
180.0000
  0
INSERT
  8
29
  2
ROUNDP
 10
21.5900
 20
49.5300
 30
0.0000
 41
1.9050
 42
1.9050
 43
1.0000
 50
180.0000
  0
INSERT
  8
29
  2
ROUNDP
 10
21.5900
 20
52.0700
 30
0.0000
 41
1.9050
 42
1.9050
 43
1.0000
 50
180.0000
  0
INSERT
  8
29
  2
ROUNDP
 10
19.0500
 20
49.5300
 30
0.0000
 41
1.9050
 42
1.9050
 43
1.0000
 50
180.0000
  0
INSERT
  8
29
  2
ROUNDP
 10
19.0500
 20
52.0700
 30
0.0000
 41
1.9050
 42
1.9050
 43
1.0000
 50
180.0000
  0
INSERT
  8
29
  2
ROUNDP
 10
16.5100
 20
49.5300
 30
0.0000
 41
1.9050
 42
1.9050
 43
1.0000
 50
180.0000
  0
INSERT
  8
29
  2
ROUNDP
 10
16.5100
 20
52.0700
 30
0.0000
 41
1.9050
 42
1.9050
 43
1.0000
 50
180.0000
  0
CIRCLE
  8
20
 10
30.6000
 20
18.2000
 30
0.0000
 40
1.6500
  0
POLYLINE
  8
29
 66
1
 10
0.0000
 20
0.0000
 30
0.0000
 40
1.7135
 41
1.7135
 70
0
  0
VERTEX
  8
29
 10
30.6000
 20
17.3432
 30
0.0000
 42
1.0000
  0
VERTEX
  8
29
 10
30.6000
 20
19.0568
 30
0.0000
 42
1.0000
  0
VERTEX
  8
29
 10
30.6000
 20
17.3432
 30
0.0000
  0
SEQEND
  8
0
  0
CIRCLE
  8
20
 10
70.6000
 20
59.2000
 30
0.0000
 40
1.6500
  0
POLYLINE
  8
29
 66
1
 10
0.0000
 20
0.0000
 30
0.0000
 40
1.7135
 41
1.7135
 70
0
  0
VERTEX
  8
29
 10
70.6000
 20
58.3433
 30
0.0000
 42
1.0000
  0
VERTEX
  8
29
 10
70.6000
 20
60.0568
 30
0.0000
 42
1.0000
  0
VERTEX
  8
29
 10
70.6000
 20
58.3433
 30
0.0000
  0
SEQEND
  8
0
  0
CIRCLE
  8
20
 10
30.6000
 20
59.2000
 30
0.0000
 40
1.6500
  0
POLYLINE
  8
29
 66
1
 10
0.0000
 20
0.0000
 30
0.0000
 40
1.7135
 41
1.7135
 70
0
  0
VERTEX
  8
29
 10
30.6000
 20
58.3433
 30
0.0000
 42
1.0000
  0
VERTEX
  8
29
 10
30.6000
 20
60.0568
 30
0.0000
 42
1.0000
  0
VERTEX
  8
29
 10
30.6000
 20
58.3433
 30
0.0000
  0
SEQEND
  8
0
  0
INSERT
  8
29
  2
OCTAGONP
 10
69.6500
 20
61.9500
 30
0.0000
 41
1.9050
 42
1.9050
 43
1.0000
 50
270.0000
  0
INSERT
  8
29
  2
OCTAGONP
 10
67.1100
 20
61.9500
 30
0.0000
 41
1.9050
 42
1.9050
 43
1.0000
 50
270.0000
  0
INSERT
  8
29
  2
OCTAGONP
 10
64.5700
 20
61.9500
 30
0.0000
 41
1.9050
 42
1.9050
 43
1.0000
 50
270.0000
  0
INSERT
  8
29
  2
OCTAGONP
 10
62.0300
 20
61.9500
 30
0.0000
 41
1.9050
 42
1.9050
 43
1.0000
 50
270.0000
  0
INSERT
  8
29
  2
OCTAGONP
 10
59.4900
 20
61.9500
 30
0.0000
 41
1.9050
 42
1.9050
 43
1.0000
 50
270.0000
  0
INSERT
  8
29
  2
OCTAGONP
 10
56.9500
 20
61.9500
 30
0.0000
 41
1.9050
 42
1.9050
 43
1.0000
 50
270.0000
  0
INSERT
  8
29
  2
OCTAGONP
 10
54.4100
 20
61.9500
 30
0.0000
 41
1.9050
 42
1.9050
 43
1.0000
 50
270.0000
  0
INSERT
  8
29
  2
OCTAGONP
 10
51.8700
 20
61.9500
 30
0.0000
 41
1.9050
 42
1.9050
 43
1.0000
 50
270.0000
  0
INSERT
  8
29
  2
OCTAGONP
 10
49.3300
 20
61.9500
 30
0.0000
 41
1.9050
 42
1.9050
 43
1.0000
 50
270.0000
  0
INSERT
  8
29
  2
OCTAGONP
 10
46.7900
 20
61.9500
 30
0.0000
 41
1.9050
 42
1.9050
 43
1.0000
 50
270.0000
  0
INSERT
  8
29
  2
OCTAGONP
 10
44.2500
 20
61.9500
 30
0.0000
 41
1.9050
 42
1.9050
 43
1.0000
 50
270.0000
  0
INSERT
  8
29
  2
OCTAGONP
 10
41.7100
 20
61.9500
 30
0.0000
 41
1.9050
 42
1.9050
 43
1.0000
 50
270.0000
  0
INSERT
  8
29
  2
OCTAGONP
 10
39.1700
 20
61.9500
 30
0.0000
 41
1.9050
 42
1.9050
 43
1.0000
 50
270.0000
  0
INSERT
  8
29
  2
OCTAGONP
 10
36.6300
 20
61.9500
 30
0.0000
 41
1.9050
 42
1.9050
 43
1.0000
 50
270.0000
  0
INSERT
  8
29
  2
OCTAGONP
 10
34.0900
 20
61.9500
 30
0.0000
 41
1.9050
 42
1.9050
 43
1.0000
 50
270.0000
  0
INSERT
  8
29
  2
OCTAGONP
 10
31.5500
 20
61.9500
 30
0.0000
 41
1.9050
 42
1.9050
 43
1.0000
 50
270.0000
  0
INSERT
  8
29
  2
RECT
 10
2.5400
 20
50.8120
 30
0.0000
 41
0.9270
 42
0.9270
 43
1.0000
 50
0.0000
  0
INSERT
  8
29
  2
RECT
 10
2.5400
 20
52.3120
 30
0.0000
 41
0.9270
 42
0.9270
 43
1.0000
 50
0.0000
  0
INSERT
  8
29
  2
RECT
 10
4.3180
 20
50.8120
 30
0.0000
 41
0.9270
 42
0.9270
 43
1.0000
 50
0.0000
  0
INSERT
  8
29
  2
RECT
 10
4.3180
 20
52.3120
 30
0.0000
 41
0.9270
 42
0.9270
 43
1.0000
 50
0.0000
  0
INSERT
  8
29
  2
RECT
 10
6.0960
 20
50.8120
 30
0.0000
 41
0.9270
 42
0.9270
 43
1.0000
 50
0.0000
  0
INSERT
  8
29
  2
RECT
 10
6.0960
 20
52.3120
 30
0.0000
 41
0.9270
 42
0.9270
 43
1.0000
 50
0.0000
  0
INSERT
  8
29
  2
RECT
 10
6.6040
 20
13.4740
 30
0.0000
 41
0.9270
 42
0.9270
 43
1.0000
 50
0.0000
  0
INSERT
  8
29
  2
RECT
 10
6.6040
 20
14.9740
 30
0.0000
 41
0.9270
 42
0.9270
 43
1.0000
 50
0.0000
  0
INSERT
  8
29
  2
ROUNDP
 10
73.6600
 20
9.5250
 30
0.0000
 41
2.0066
 42
2.0066
 43
1.0000
 50
180.0000
  0
INSERT
  8
29
  2
ROUNDP
 10
71.1200
 20
9.5250
 30
0.0000
 41
2.0066
 42
2.0066
 43
1.0000
 50
180.0000
  0
INSERT
  8
29
  2
ROUNDP
 10
73.6600
 20
66.6750
 30
0.0000
 41
2.0066
 42
2.0066
 43
1.0000
 50
180.0000
  0
INSERT
  8
29
  2
ROUNDP
 10
71.1200
 20
66.6750
 30
0.0000
 41
2.0066
 42
2.0066
 43
1.0000
 50
180.0000
  0
INSERT
  8
29
  2
RECT
 10
33.2900
 20
59.3700
 30
0.0000
 41
0.9270
 42
1.0270
 43
1.0000
 50
270.0000
  0
INSERT
  8
29
  2
RECT
 10
33.2900
 20
57.4700
 30
0.0000
 41
0.9270
 42
1.0270
 43
1.0000
 50
270.0000
  0
INSERT
  8
29
  2
RECT
 10
35.2900
 20
58.4200
 30
0.0000
 41
0.9270
 42
1.0270
 43
1.0000
 50
270.0000
  0
INSERT
  8
29
  2
RECT
 10
2.5400
 20
48.0180
 30
0.0000
 41
0.7270
 42
1.0270
 43
1.0000
 50
90.0000
  0
INSERT
  8
29
  2
RECT
 10
2.5400
 20
49.5180
 30
0.0000
 41
0.7270
 42
1.0270
 43
1.0000
 50
90.0000
  0
INSERT
  8
29
  2
RECT
 10
3.8100
 20
13.4740
 30
0.0000
 41
0.7270
 42
1.0270
 43
1.0000
 50
90.0000
  0
INSERT
  8
29
  2
RECT
 10
3.8100
 20
14.9740
 30
0.0000
 41
0.7270
 42
1.0270
 43
1.0000
 50
90.0000
  0
INSERT
  8
29
  2
RECT
 10
4.3180
 20
48.0180
 30
0.0000
 41
0.7270
 42
1.0270
 43
1.0000
 50
90.0000
  0
INSERT
  8
29
  2
RECT
 10
4.3180
 20
49.5180
 30
0.0000
 41
0.7270
 42
1.0270
 43
1.0000
 50
90.0000
  0
INSERT
  8
29
  2
RECT
 10
3.8220
 20
42.4180
 30
0.0000
 41
0.7270
 42
1.0270
 43
1.0000
 50
0.0000
  0
INSERT
  8
29
  2
RECT
 10
5.3220
 20
42.4180
 30
0.0000
 41
0.7270
 42
1.0270
 43
1.0000
 50
0.0000
  0
INSERT
  8
29
  2
RECT
 10
5.0920
 20
11.6840
 30
0.0000
 41
0.7270
 42
1.0270
 43
1.0000
 50
0.0000
  0
INSERT
  8
29
  2
RECT
 10
6.5920
 20
11.6840
 30
0.0000
 41
0.7270
 42
1.0270
 43
1.0000
 50
0.0000
  0
INSERT
  8
29
  2
RECT
 10
5.0920
 20
44.1960
 30
0.0000
 41
0.7270
 42
1.0270
 43
1.0000
 50
0.0000
  0
INSERT
  8
29
  2
RECT
 10
6.5920
 20
44.1960
 30
0.0000
 41
0.7270
 42
1.0270
 43
1.0000
 50
0.0000
  0
INSERT
  8
29
  2
RECT
 10
6.0960
 20
48.0180
 30
0.0000
 41
0.7270
 42
1.0270
 43
1.0000
 50
90.0000
  0
INSERT
  8
29
  2
RECT
 10
6.0960
 20
49.5180
 30
0.0000
 41
0.7270
 42
1.0270
 43
1.0000
 50
90.0000
  0
INSERT
  8
29
  2
RECT
 10
10.4140
 20
39.3580
 30
0.0000
 41
0.7270
 42
1.0270
 43
1.0000
 50
270.0000
  0
INSERT
  8
29
  2
RECT
 10
10.4140
 20
37.8580
 30
0.0000
 41
0.7270
 42
1.0270
 43
1.0000
 50
270.0000
  0
INSERT
  8
29
  2
RECT
 10
11.6160
 20
63.2400
 30
0.0000
 41
0.7270
 42
1.0270
 43
1.0000
 50
90.0000
  0
INSERT
  8
29
  2
RECT
 10
11.6160
 20
64.7400
 30
0.0000
 41
0.7270
 42
1.0270
 43
1.0000
 50
90.0000
  0
INSERT
  8
29
  2
RECT
 10
12.7680
 20
59.9500
 30
0.0000
 41
0.7270
 42
1.0270
 43
1.0000
 50
270.0000
  0
INSERT
  8
29
  2
RECT
 10
12.7680
 20
58.4500
 30
0.0000
 41
0.7270
 42
1.0270
 43
1.0000
 50
270.0000
  0
INSERT
  8
29
  2
RECT
 10
12.8860
 20
63.2400
 30
0.0000
 41
0.7270
 42
1.0270
 43
1.0000
 50
90.0000
  0
INSERT
  8
29
  2
RECT
 10
12.8860
 20
64.7400
 30
0.0000
 41
0.7270
 42
1.0270
 43
1.0000
 50
90.0000
  0
INSERT
  8
29
  2
RECT
 10
19.0620
 20
46.4820
 30
0.0000
 41
0.7270
 42
1.0270
 43
1.0000
 50
0.0000
  0
INSERT
  8
29
  2
RECT
 10
20.5620
 20
46.4820
 30
0.0000
 41
0.7270
 42
1.0270
 43
1.0000
 50
0.0000
  0
INSERT
  8
29
  2
RECT
 10
26.6700
 20
56.6300
 30
0.0000
 41
0.7270
 42
1.0270
 43
1.0000
 50
270.0000
  0
INSERT
  8
29
  2
RECT
 10
26.6700
 20
55.1300
 30
0.0000
 41
0.7270
 42
1.0270
 43
1.0000
 50
270.0000
  0
INSERT
  8
29
  2
RECT
 10
34.0360
 20
66.7280
 30
0.0000
 41
1.0270
 42
1.7270
 43
1.0000
 50
270.0000
  0
INSERT
  8
29
  2
RECT
 10
34.0360
 20
63.8280
 30
0.0000
 41
1.0270
 42
1.7270
 43
1.0000
 50
270.0000
  0
INSERT
  8
29
  2
RECT
 10
38.0880
 20
58.4200
 30
0.0000
 41
0.7270
 42
1.0270
 43
1.0000
 50
180.0000
  0
INSERT
  8
29
  2
RECT
 10
36.5880
 20
58.4200
 30
0.0000
 41
0.7270
 42
1.0270
 43
1.0000
 50
180.0000
  0
INSERT
  8
29
  2
RECT
 10
44.4500
 20
46.4700
 30
0.0000
 41
0.7270
 42
1.0270
 43
1.0000
 50
270.0000
  0
INSERT
  8
29
  2
RECT
 10
44.4500
 20
44.9700
 30
0.0000
 41
0.7270
 42
1.0270
 43
1.0000
 50
270.0000
  0
INSERT
  8
29
  2
RECT
 10
45.9620
 20
38.6080
 30
0.0000
 41
0.7270
 42
1.0270
 43
1.0000
 50
180.0000
  0
INSERT
  8
29
  2
RECT
 10
44.4620
 20
38.6080
 30
0.0000
 41
0.7270
 42
1.0270
 43
1.0000
 50
180.0000
  0
INSERT
  8
29
  2
RECT
 10
52.0820
 20
44.4500
 30
0.0000
 41
0.7270
 42
1.0270
 43
1.0000
 50
0.0000
  0
INSERT
  8
29
  2
RECT
 10
53.5820
 20
44.4500
 30
0.0000
 41
0.7270
 42
1.0270
 43
1.0000
 50
0.0000
  0
INSERT
  8
29
  2
RECT
 10
53.6060
 20
66.0400
 30
0.0000
 41
0.7270
 42
1.0270
 43
1.0000
 50
0.0000
  0
INSERT
  8
29
  2
RECT
 10
55.1060
 20
66.0400
 30
0.0000
 41
0.7270
 42
1.0270
 43
1.0000
 50
0.0000
  0
INSERT
  8
29
  2
RECT
 10
57.1380
 20
44.4500
 30
0.0000
 41
0.7270
 42
1.0270
 43
1.0000
 50
180.0000
  0
INSERT
  8
29
  2
RECT
 10
55.6380
 20
44.4500
 30
0.0000
 41
0.7270
 42
1.0270
 43
1.0000
 50
180.0000
  0
INSERT
  8
29
  2
RECT
 10
56.6420
 20
66.0520
 30
0.0000
 41
0.7270
 42
1.0270
 43
1.0000
 50
90.0000
  0
INSERT
  8
29
  2
RECT
 10
56.6420
 20
67.5520
 30
0.0000
 41
0.7270
 42
1.0270
 43
1.0000
 50
90.0000
  0
INSERT
  8
29
  2
RECT
 10
60.9600
 20
39.1280
 30
0.0000
 41
0.7270
 42
1.0270
 43
1.0000
 50
90.0000
  0
INSERT
  8
29
  2
RECT
 10
60.9600
 20
40.6280
 30
0.0000
 41
0.7270
 42
1.0270
 43
1.0000
 50
90.0000
  0
INSERT
  8
29
  2
RECT
 10
60.9600
 20
43.9300
 30
0.0000
 41
0.7270
 42
1.0270
 43
1.0000
 50
270.0000
  0
INSERT
  8
29
  2
RECT
 10
60.9600
 20
42.4300
 30
0.0000
 41
0.7270
 42
1.0270
 43
1.0000
 50
270.0000
  0
INSERT
  8
29
  2
RECT
 10
61.4680
 20
66.5600
 30
0.0000
 41
0.7270
 42
1.0270
 43
1.0000
 50
90.0000
  0
INSERT
  8
29
  2
RECT
 10
61.4680
 20
68.0600
 30
0.0000
 41
0.7270
 42
1.0270
 43
1.0000
 50
90.0000
  0
INSERT
  8
29
  2
RECT
 10
62.7380
 20
41.9220
 30
0.0000
 41
0.7270
 42
1.0270
 43
1.0000
 50
90.0000
  0
INSERT
  8
29
  2
RECT
 10
62.7380
 20
43.4220
 30
0.0000
 41
0.7270
 42
1.0270
 43
1.0000
 50
90.0000
  0
INSERT
  8
29
  2
RECT
 10
62.4960
 20
39.3700
 30
0.0000
 41
0.7270
 42
1.0270
 43
1.0000
 50
0.0000
  0
INSERT
  8
29
  2
RECT
 10
63.9960
 20
39.3700
 30
0.0000
 41
0.7270
 42
1.0270
 43
1.0000
 50
0.0000
  0
INSERT
  8
29
  2
RECT
 10
64.0080
 20
41.9220
 30
0.0000
 41
0.7270
 42
1.0270
 43
1.0000
 50
90.0000
  0
INSERT
  8
29
  2
RECT
 10
64.0080
 20
43.4220
 30
0.0000
 41
0.7270
 42
1.0270
 43
1.0000
 50
90.0000
  0
INSERT
  8
29
  2
RECT
 10
74.4220
 20
36.0800
 30
0.0000
 41
0.7270
 42
1.0270
 43
1.0000
 50
90.0000
  0
INSERT
  8
29
  2
RECT
 10
74.4220
 20
37.5800
 30
0.0000
 41
0.7270
 42
1.0270
 43
1.0000
 50
90.0000
  0
INSERT
  8
29
  2
RECT
 10
76.1880
 20
66.6120
 30
0.0000
 41
0.7270
 42
1.0270
 43
1.0000
 50
270.0000
  0
INSERT
  8
29
  2
RECT
 10
76.1880
 20
65.1120
 30
0.0000
 41
0.7270
 42
1.0270
 43
1.0000
 50
270.0000
  0
INSERT
  8
29
  2
RECT
 10
75.8560
 20
9.4940
 30
0.0000
 41
0.7270
 42
1.0270
 43
1.0000
 50
0.0000
  0
INSERT
  8
29
  2
RECT
 10
77.3560
 20
9.4940
 30
0.0000
 41
0.7270
 42
1.0270
 43
1.0000
 50
0.0000
  0
INSERT
  8
29
  2
RECT
 10
80.6180
 20
57.5920
 30
0.0000
 41
0.7270
 42
1.0270
 43
1.0000
 50
90.0000
  0
INSERT
  8
29
  2
RECT
 10
80.6180
 20
59.0920
 30
0.0000
 41
0.7270
 42
1.0270
 43
1.0000
 50
90.0000
  0
INSERT
  8
29
  2
RECT
 10
80.7680
 20
28.7680
 30
0.0000
 41
0.7270
 42
1.0270
 43
1.0000
 50
270.0000
  0
INSERT
  8
29
  2
RECT
 10
80.7680
 20
27.2680
 30
0.0000
 41
0.7270
 42
1.0270
 43
1.0000
 50
270.0000
  0
INSERT
  8
29
  2
RECT
 10
80.4520
 20
15.5380
 30
0.0000
 41
0.7270
 42
1.0270
 43
1.0000
 50
0.0000
  0
INSERT
  8
29
  2
RECT
 10
81.9520
 20
15.5380
 30
0.0000
 41
0.7270
 42
1.0270
 43
1.0000
 50
0.0000
  0
INSERT
  8
29
  2
RECT
 10
80.7060
 20
45.1600
 30
0.0000
 41
0.7270
 42
1.0270
 43
1.0000
 50
0.0000
  0
INSERT
  8
29
  2
RECT
 10
82.2060
 20
45.1600
 30
0.0000
 41
0.7270
 42
1.0270
 43
1.0000
 50
0.0000
  0
INSERT
  8
29
  2
RECT
 10
87.3760
 20
24.6500
 30
0.0000
 41
0.7270
 42
1.0270
 43
1.0000
 50
90.0000
  0
INSERT
  8
29
  2
RECT
 10
87.3760
 20
26.1500
 30
0.0000
 41
0.7270
 42
1.0270
 43
1.0000
 50
90.0000
  0
INSERT
  8
29
  2
RECT
 10
87.3760
 20
29.4520
 30
0.0000
 41
0.7270
 42
1.0270
 43
1.0000
 50
270.0000
  0
INSERT
  8
29
  2
RECT
 10
87.3760
 20
27.9520
 30
0.0000
 41
0.7270
 42
1.0270
 43
1.0000
 50
270.0000
  0
INSERT
  8
29
  2
RECT
 10
87.6300
 20
32.2700
 30
0.0000
 41
0.7270
 42
1.0270
 43
1.0000
 50
90.0000
  0
INSERT
  8
29
  2
RECT
 10
87.6300
 20
33.7700
 30
0.0000
 41
0.7270
 42
1.0270
 43
1.0000
 50
90.0000
  0
INSERT
  8
29
  2
RECT
 10
88.1380
 20
15.2520
 30
0.0000
 41
0.7270
 42
1.0270
 43
1.0000
 50
90.0000
  0
INSERT
  8
29
  2
RECT
 10
88.1380
 20
16.7520
 30
0.0000
 41
0.7270
 42
1.0270
 43
1.0000
 50
90.0000
  0
INSERT
  8
29
  2
RECT
 10
88.1380
 20
20.0540
 30
0.0000
 41
0.7270
 42
1.0270
 43
1.0000
 50
270.0000
  0
INSERT
  8
29
  2
RECT
 10
88.1380
 20
18.5540
 30
0.0000
 41
0.7270
 42
1.0270
 43
1.0000
 50
270.0000
  0
INSERT
  8
29
  2
RECT
 10
90.9440
 20
28.7360
 30
0.0000
 41
0.7270
 42
1.0270
 43
1.0000
 50
90.0000
  0
INSERT
  8
29
  2
RECT
 10
90.9440
 20
30.2360
 30
0.0000
 41
0.7270
 42
1.0270
 43
1.0000
 50
90.0000
  0
INSERT
  8
29
  2
RECT
 10
97.2820
 20
55.3600
 30
0.0000
 41
0.7270
 42
1.0270
 43
1.0000
 50
270.0000
  0
INSERT
  8
29
  2
RECT
 10
97.2820
 20
53.8600
 30
0.0000
 41
0.7270
 42
1.0270
 43
1.0000
 50
270.0000
  0
INSERT
  8
29
  2
RECT
 10
99.3140
 20
55.3600
 30
0.0000
 41
0.7270
 42
1.0270
 43
1.0000
 50
270.0000
  0
INSERT
  8
29
  2
RECT
 10
99.3140
 20
53.8600
 30
0.0000
 41
0.7270
 42
1.0270
 43
1.0000
 50
270.0000
  0
INSERT
  8
29
  2
RECT
 10
99.4340
 20
30.1340
 30
0.0000
 41
0.7270
 42
1.0270
 43
1.0000
 50
0.0000
  0
INSERT
  8
29
  2
RECT
 10
100.9340
 20
30.1340
 30
0.0000
 41
0.7270
 42
1.0270
 43
1.0000
 50
0.0000
  0
INSERT
  8
29
  2
RECT
 10
101.0920
 20
55.3600
 30
0.0000
 41
0.7270
 42
1.0270
 43
1.0000
 50
270.0000
  0
INSERT
  8
29
  2
RECT
 10
101.0920
 20
53.8600
 30
0.0000
 41
0.7270
 42
1.0270
 43
1.0000
 50
270.0000
  0
INSERT
  8
29
  2
RECT
 10
103.3780
 20
55.3600
 30
0.0000
 41
0.7270
 42
1.0270
 43
1.0000
 50
270.0000
  0
INSERT
  8
29
  2
RECT
 10
103.3780
 20
53.8600
 30
0.0000
 41
0.7270
 42
1.0270
 43
1.0000
 50
270.0000
  0
INSERT
  8
29
  2
RECT
 10
103.9780
 20
28.7760
 30
0.0000
 41
0.7270
 42
1.0270
 43
1.0000
 50
90.0000
  0
INSERT
  8
29
  2
RECT
 10
103.9780
 20
30.2760
 30
0.0000
 41
0.7270
 42
1.0270
 43
1.0000
 50
90.0000
  0
INSERT
  8
29
  2
RECT
 10
105.3980
 20
57.1500
 30
0.0000
 41
0.7270
 42
1.0270
 43
1.0000
 50
180.0000
  0
INSERT
  8
29
  2
RECT
 10
103.8980
 20
57.1500
 30
0.0000
 41
0.7270
 42
1.0270
 43
1.0000
 50
180.0000
  0
INSERT
  8
29
  2
RECT
 10
105.3980
 20
61.9760
 30
0.0000
 41
0.7270
 42
1.0270
 43
1.0000
 50
180.0000
  0
INSERT
  8
29
  2
RECT
 10
103.8980
 20
61.9760
 30
0.0000
 41
0.7270
 42
1.0270
 43
1.0000
 50
180.0000
  0
INSERT
  8
29
  2
RECT
 10
105.3980
 20
66.8020
 30
0.0000
 41
0.7270
 42
1.0270
 43
1.0000
 50
180.0000
  0
INSERT
  8
29
  2
RECT
 10
103.8980
 20
66.8020
 30
0.0000
 41
0.7270
 42
1.0270
 43
1.0000
 50
180.0000
  0
INSERT
  8
29
  2
RECT
 10
105.3980
 20
71.6280
 30
0.0000
 41
0.7270
 42
1.0270
 43
1.0000
 50
180.0000
  0
INSERT
  8
29
  2
RECT
 10
103.8980
 20
71.6280
 30
0.0000
 41
0.7270
 42
1.0270
 43
1.0000
 50
180.0000
  0
INSERT
  8
29
  2
RECT
 10
114.4600
 20
3.6830
 30
0.0000
 41
1.7270
 42
3.6270
 43
1.0000
 50
180.0000
  0
INSERT
  8
29
  2
RECT
 10
109.0600
 20
3.6830
 30
0.0000
 41
1.7270
 42
3.6270
 43
1.0000
 50
180.0000
  0
INSERT
  8
29
  2
RECT
 10
111.0100
 20
6.9850
 30
0.0000
 41
0.7270
 42
1.0270
 43
1.0000
 50
0.0000
  0
INSERT
  8
29
  2
RECT
 10
112.5100
 20
6.9850
 30
0.0000
 41
0.7270
 42
1.0270
 43
1.0000
 50
0.0000
  0
INSERT
  8
29
  2
RECT
 10
114.4600
 20
10.2870
 30
0.0000
 41
1.7270
 42
3.6270
 43
1.0000
 50
180.0000
  0
INSERT
  8
29
  2
RECT
 10
109.0600
 20
10.2870
 30
0.0000
 41
1.7270
 42
3.6270
 43
1.0000
 50
180.0000
  0
INSERT
  8
29
  2
RECT
 10
111.0100
 20
13.5890
 30
0.0000
 41
0.7270
 42
1.0270
 43
1.0000
 50
0.0000
  0
INSERT
  8
29
  2
RECT
 10
112.5100
 20
13.5890
 30
0.0000
 41
0.7270
 42
1.0270
 43
1.0000
 50
0.0000
  0
INSERT
  8
29
  2
RECT
 10
114.4600
 20
16.8910
 30
0.0000
 41
1.7270
 42
3.6270
 43
1.0000
 50
180.0000
  0
INSERT
  8
29
  2
RECT
 10
109.0600
 20
16.8910
 30
0.0000
 41
1.7270
 42
3.6270
 43
1.0000
 50
180.0000
  0
INSERT
  8
29
  2
RECT
 10
111.0100
 20
20.1930
 30
0.0000
 41
0.7270
 42
1.0270
 43
1.0000
 50
0.0000
  0
INSERT
  8
29
  2
RECT
 10
112.5100
 20
20.1930
 30
0.0000
 41
0.7270
 42
1.0270
 43
1.0000
 50
0.0000
  0
INSERT
  8
29
  2
RECT
 10
114.4600
 20
24.0284
 30
0.0000
 41
1.7270
 42
3.6270
 43
1.0000
 50
180.0000
  0
INSERT
  8
29
  2
RECT
 10
109.0600
 20
24.0284
 30
0.0000
 41
1.7270
 42
3.6270
 43
1.0000
 50
180.0000
  0
INSERT
  8
29
  2
RECT
 10
111.0100
 20
27.3050
 30
0.0000
 41
0.7270
 42
1.0270
 43
1.0000
 50
0.0000
  0
INSERT
  8
29
  2
RECT
 10
112.5100
 20
27.3050
 30
0.0000
 41
0.7270
 42
1.0270
 43
1.0000
 50
0.0000
  0
INSERT
  8
29
  2
RECT
 10
33.1040
 20
55.5980
 30
0.0000
 41
0.1524
 42
1.2000
 43
1.0000
 50
180.0000
  0
INSERT
  8
29
  2
RECT
 10
33.8660
 20
55.5980
 30
0.0000
 41
1.2270
 42
1.1270
 43
1.0000
 50
180.0000
  0
INSERT
  8
29
  2
RECT
 10
32.3420
 20
55.5980
 30
0.0000
 41
1.2270
 42
1.1270
 43
1.0000
 50
180.0000
  0
INSERT
  8
29
  2
RECT
 10
33.1040
 20
55.5980
 30
0.0000
 41
0.7620
 42
0.3810
 43
1.0000
 50
180.0000
  0
INSERT
  8
29
  2
RECT
 10
46.7660
 20
59.5660
 30
0.0000
 41
0.1524
 42
1.2000
 43
1.0000
 50
270.0000
  0
INSERT
  8
29
  2
RECT
 10
46.7660
 20
60.3280
 30
0.0000
 41
1.2270
 42
1.1270
 43
1.0000
 50
270.0000
  0
INSERT
  8
29
  2
RECT
 10
46.7660
 20
58.8040
 30
0.0000
 41
1.2270
 42
1.1270
 43
1.0000
 50
270.0000
  0
INSERT
  8
29
  2
RECT
 10
46.7660
 20
59.5660
 30
0.0000
 41
0.7620
 42
0.3810
 43
1.0000
 50
270.0000
  0
INSERT
  8
29
  2
RECT
 10
49.3060
 20
59.5240
 30
0.0000
 41
0.1524
 42
1.2000
 43
1.0000
 50
270.0000
  0
INSERT
  8
29
  2
RECT
 10
49.3060
 20
60.2860
 30
0.0000
 41
1.2270
 42
1.1270
 43
1.0000
 50
270.0000
  0
INSERT
  8
29
  2
RECT
 10
49.3060
 20
58.7620
 30
0.0000
 41
1.2270
 42
1.1270
 43
1.0000
 50
270.0000
  0
INSERT
  8
29
  2
RECT
 10
49.3060
 20
59.5240
 30
0.0000
 41
0.7620
 42
0.3810
 43
1.0000
 50
270.0000
  0
INSERT
  8
29
  2
RECT
 10
51.8460
 20
59.4180
 30
0.0000
 41
0.1524
 42
1.2000
 43
1.0000
 50
270.0000
  0
INSERT
  8
29
  2
RECT
 10
51.8460
 20
60.1800
 30
0.0000
 41
1.2270
 42
1.1270
 43
1.0000
 50
270.0000
  0
INSERT
  8
29
  2
RECT
 10
51.8460
 20
58.6560
 30
0.0000
 41
1.2270
 42
1.1270
 43
1.0000
 50
270.0000
  0
INSERT
  8
29
  2
RECT
 10
51.8460
 20
59.4180
 30
0.0000
 41
0.7620
 42
0.3810
 43
1.0000
 50
270.0000
  0
INSERT
  8
29
  2
RECT
 10
54.3860
 20
59.4600
 30
0.0000
 41
0.1524
 42
1.2000
 43
1.0000
 50
270.0000
  0
INSERT
  8
29
  2
RECT
 10
54.3860
 20
60.2220
 30
0.0000
 41
1.2270
 42
1.1270
 43
1.0000
 50
270.0000
  0
INSERT
  8
29
  2
RECT
 10
54.3860
 20
58.6980
 30
0.0000
 41
1.2270
 42
1.1270
 43
1.0000
 50
270.0000
  0
INSERT
  8
29
  2
RECT
 10
54.3860
 20
59.4600
 30
0.0000
 41
0.7620
 42
0.3810
 43
1.0000
 50
270.0000
  0
INSERT
  8
29
  2
RECT
 10
56.8960
 20
59.4360
 30
0.0000
 41
0.1524
 42
1.2000
 43
1.0000
 50
270.0000
  0
INSERT
  8
29
  2
RECT
 10
56.8960
 20
60.1980
 30
0.0000
 41
1.2270
 42
1.1270
 43
1.0000
 50
270.0000
  0
INSERT
  8
29
  2
RECT
 10
56.8960
 20
58.6740
 30
0.0000
 41
1.2270
 42
1.1270
 43
1.0000
 50
270.0000
  0
INSERT
  8
29
  2
RECT
 10
56.8960
 20
59.4360
 30
0.0000
 41
0.7620
 42
0.3810
 43
1.0000
 50
270.0000
  0
CIRCLE
  8
20
 10
85.7250
 20
15.2400
 30
0.0000
 40
0.5000
  0
POLYLINE
  8
29
 66
1
 10
0.0000
 20
0.0000
 30
0.0000
 40
0.5635
 41
0.5635
 70
0
  0
VERTEX
  8
29
 10
85.7250
 20
14.9582
 30
0.0000
 42
1.0000
  0
VERTEX
  8
29
 10
85.7250
 20
15.5218
 30
0.0000
 42
1.0000
  0
VERTEX
  8
29
 10
85.7250
 20
14.9582
 30
0.0000
  0
SEQEND
  8
0
  0
CIRCLE
  8
20
 10
78.1050
 20
20.3200
 30
0.0000
 40
0.5000
  0
POLYLINE
  8
29
 66
1
 10
0.0000
 20
0.0000
 30
0.0000
 40
0.5635
 41
0.5635
 70
0
  0
VERTEX
  8
29
 10
78.1050
 20
20.0383
 30
0.0000
 42
1.0000
  0
VERTEX
  8
29
 10
78.1050
 20
20.6017
 30
0.0000
 42
1.0000
  0
VERTEX
  8
29
 10
78.1050
 20
20.0383
 30
0.0000
  0
SEQEND
  8
0
  0
INSERT
  8
29
  2
ROUNDP
 10
85.7250
 20
22.8600
 30
0.0000
 41
1.9570
 42
1.9570
 43
1.0000
 50
180.0000
  0
INSERT
  8
29
  2
ROUNDP
 10
80.6450
 20
17.7800
 30
0.0000
 41
1.9570
 42
1.9570
 43
1.0000
 50
180.0000
  0
CIRCLE
  8
20
 10
85.7250
 20
27.9400
 30
0.0000
 40
0.5000
  0
POLYLINE
  8
29
 66
1
 10
0.0000
 20
0.0000
 30
0.0000
 40
0.5635
 41
0.5635
 70
0
  0
VERTEX
  8
29
 10
85.7250
 20
27.6583
 30
0.0000
 42
1.0000
  0
VERTEX
  8
29
 10
85.7250
 20
28.2218
 30
0.0000
 42
1.0000
  0
VERTEX
  8
29
 10
85.7250
 20
27.6583
 30
0.0000
  0
SEQEND
  8
0
  0
CIRCLE
  8
20
 10
78.1050
 20
33.0200
 30
0.0000
 40
0.5000
  0
POLYLINE
  8
29
 66
1
 10
0.0000
 20
0.0000
 30
0.0000
 40
0.5635
 41
0.5635
 70
0
  0
VERTEX
  8
29
 10
78.1050
 20
32.7383
 30
0.0000
 42
1.0000
  0
VERTEX
  8
29
 10
78.1050
 20
33.3018
 30
0.0000
 42
1.0000
  0
VERTEX
  8
29
 10
78.1050
 20
32.7383
 30
0.0000
  0
SEQEND
  8
0
  0
INSERT
  8
29
  2
ROUNDP
 10
85.7250
 20
35.5600
 30
0.0000
 41
1.9570
 42
1.9570
 43
1.0000
 50
180.0000
  0
INSERT
  8
29
  2
ROUNDP
 10
80.6450
 20
30.4800
 30
0.0000
 41
1.9570
 42
1.9570
 43
1.0000
 50
180.0000
  0
CIRCLE
  8
20
 10
85.7250
 20
40.6400
 30
0.0000
 40
0.5000
  0
POLYLINE
  8
29
 66
1
 10
0.0000
 20
0.0000
 30
0.0000
 40
0.5635
 41
0.5635
 70
0
  0
VERTEX
  8
29
 10
85.7250
 20
40.3582
 30
0.0000
 42
1.0000
  0
VERTEX
  8
29
 10
85.7250
 20
40.9218
 30
0.0000
 42
1.0000
  0
VERTEX
  8
29
 10
85.7250
 20
40.3582
 30
0.0000
  0
SEQEND
  8
0
  0
CIRCLE
  8
20
 10
78.1050
 20
45.7200
 30
0.0000
 40
0.5000
  0
POLYLINE
  8
29
 66
1
 10
0.0000
 20
0.0000
 30
0.0000
 40
0.5635
 41
0.5635
 70
0
  0
VERTEX
  8
29
 10
78.1050
 20
45.4382
 30
0.0000
 42
1.0000
  0
VERTEX
  8
29
 10
78.1050
 20
46.0018
 30
0.0000
 42
1.0000
  0
VERTEX
  8
29
 10
78.1050
 20
45.4382
 30
0.0000
  0
SEQEND
  8
0
  0
INSERT
  8
29
  2
ROUNDP
 10
85.7250
 20
48.2600
 30
0.0000
 41
1.9570
 42
1.9570
 43
1.0000
 50
180.0000
  0
INSERT
  8
29
  2
ROUNDP
 10
80.6450
 20
43.1800
 30
0.0000
 41
1.9570
 42
1.9570
 43
1.0000
 50
180.0000
  0
CIRCLE
  8
20
 10
85.7250
 20
53.3400
 30
0.0000
 40
0.5000
  0
POLYLINE
  8
29
 66
1
 10
0.0000
 20
0.0000
 30
0.0000
 40
0.5635
 41
0.5635
 70
0
  0
VERTEX
  8
29
 10
85.7250
 20
53.0583
 30
0.0000
 42
1.0000
  0
VERTEX
  8
29
 10
85.7250
 20
53.6218
 30
0.0000
 42
1.0000
  0
VERTEX
  8
29
 10
85.7250
 20
53.0583
 30
0.0000
  0
SEQEND
  8
0
  0
CIRCLE
  8
20
 10
78.1050
 20
58.4200
 30
0.0000
 40
0.5000
  0
POLYLINE
  8
29
 66
1
 10
0.0000
 20
0.0000
 30
0.0000
 40
0.5635
 41
0.5635
 70
0
  0
VERTEX
  8
29
 10
78.1050
 20
58.1382
 30
0.0000
 42
1.0000
  0
VERTEX
  8
29
 10
78.1050
 20
58.7018
 30
0.0000
 42
1.0000
  0
VERTEX
  8
29
 10
78.1050
 20
58.1382
 30
0.0000
  0
SEQEND
  8
0
  0
INSERT
  8
29
  2
ROUNDP
 10
85.7250
 20
60.9600
 30
0.0000
 41
1.9570
 42
1.9570
 43
1.0000
 50
180.0000
  0
INSERT
  8
29
  2
ROUNDP
 10
80.6450
 20
55.8800
 30
0.0000
 41
1.9570
 42
1.9570
 43
1.0000
 50
180.0000
  0
INSERT
  8
29
  2
RECT
 10
27.1780
 20
9.9060
 30
0.0000
 41
3.9270
 42
1.7270
 43
1.0000
 50
90.0000
  0
INSERT
  8
29
  2
RECT
 10
32.2580
 20
9.9060
 30
0.0000
 41
3.9270
 42
1.7270
 43
1.0000
 50
90.0000
  0
INSERT
  8
29
  2
RECT
 10
37.3380
 20
9.9060
 30
0.0000
 41
3.9270
 42
1.7270
 43
1.0000
 50
90.0000
  0
INSERT
  8
29
  2
RECT
 10
42.4180
 20
9.9060
 30
0.0000
 41
3.9270
 42
1.7270
 43
1.0000
 50
90.0000
  0
INSERT
  8
29
  2
RECT
 10
47.4980
 20
9.9060
 30
0.0000
 41
3.9270
 42
1.7270
 43
1.0000
 50
90.0000
  0
INSERT
  8
29
  2
RECT
 10
80.5180
 20
72.1360
 30
0.0000
 41
3.9270
 42
1.7270
 43
1.0000
 50
90.0000
  0
INSERT
  8
29
  2
ROUNDV
 10
70.6700
 20
43.6000
 30
0.0000
 41
0.6810
 42
0.6810
 43
1.0000
 50
0.0000
  0
INSERT
  8
29
  2
ROUNDV
 10
70.1040
 20
42.6720
 30
0.0000
 41
0.6810
 42
0.6810
 43
1.0000
 50
0.0000
  0
INSERT
  8
29
  2
ROUNDV
 10
80.6000
 20
25.1840
 30
0.0000
 41
0.6810
 42
0.6810
 43
1.0000
 50
0.0000
  0
INSERT
  8
29
  2
ROUNDV
 10
69.3420
 20
41.9100
 30
0.0000
 41
0.6810
 42
0.6810
 43
1.0000
 50
0.0000
  0
INSERT
  8
29
  2
ROUNDV
 10
70.3580
 20
34.5440
 30
0.0000
 41
0.6810
 42
0.6810
 43
1.0000
 50
0.0000
  0
INSERT
  8
29
  2
ROUNDV
 10
52.0820
 20
43.1800
 30
0.0000
 41
0.6810
 42
0.6810
 43
1.0000
 50
0.0000
  0
INSERT
  8
29
  2
ROUNDV
 10
69.3420
 20
35.5600
 30
0.0000
 41
0.6810
 42
0.6810
 43
1.0000
 50
0.0000
  0
INSERT
  8
29
  2
ROUNDV
 10
57.1500
 20
43.1800
 30
0.0000
 41
0.6810
 42
0.6810
 43
1.0000
 50
0.0000
  0
INSERT
  8
29
  2
ROUNDV
 10
87.3760
 20
26.9240
 30
0.0000
 41
0.6810
 42
0.6810
 43
1.0000
 50
0.0000
  0
INSERT
  8
29
  2
ROUNDV
 10
88.1380
 20
17.5260
 30
0.0000
 41
0.6810
 42
0.6810
 43
1.0000
 50
0.0000
  0
INSERT
  8
29
  2
ROUNDV
 10
83.0580
 20
15.7480
 30
0.0000
 41
0.7810
 42
0.7810
 43
1.0000
 50
0.0000
  0
INSERT
  8
29
  2
ROUNDV
 10
82.0420
 20
27.1780
 30
0.0000
 41
0.6810
 42
0.6810
 43
1.0000
 50
0.0000
  0
INSERT
  8
29
  2
ROUNDV
 10
83.0580
 20
44.9580
 30
0.0000
 41
0.6810
 42
0.6810
 43
1.0000
 50
0.0000
  0
INSERT
  8
29
  2
ROUNDV
 10
81.7880
 20
58.9280
 30
0.0000
 41
1.0270
 42
1.0270
 43
1.0000
 50
0.0000
  0
INSERT
  8
29
  2
ROUNDV
 10
54.6100
 20
44.4500
 30
0.0000
 41
0.6810
 42
0.6810
 43
1.0000
 50
0.0000
  0
INSERT
  8
29
  2
ROUNDV
 10
48.0060
 20
45.9740
 30
0.0000
 41
1.0270
 42
1.0270
 43
1.0000
 50
0.0000
  0
INSERT
  8
29
  2
ROUNDV
 10
60.9600
 20
41.5544
 30
0.0000
 41
1.0270
 42
1.0270
 43
1.0000
 50
0.0000
  0
INSERT
  8
29
  2
ROUNDV
 10
75.1840
 20
64.0080
 30
0.0000
 41
1.0270
 42
1.0270
 43
1.0000
 50
0.0000
  0
INSERT
  8
29
  2
ROUNDV
 10
63.7540
 20
44.7040
 30
0.0000
 41
1.0270
 42
1.0270
 43
1.0000
 50
0.0000
  0
INSERT
  8
29
  2
ROUNDV
 10
67.0560
 20
35.8140
 30
0.0000
 41
1.0270
 42
1.0270
 43
1.0000
 50
0.0000
  0
INSERT
  8
29
  2
ROUNDV
 10
6.3500
 20
46.9900
 30
0.0000
 41
0.6810
 42
0.6810
 43
1.0000
 50
0.0000
  0
INSERT
  8
29
  2
ROUNDV
 10
20.5740
 20
47.4980
 30
0.0000
 41
0.6810
 42
0.6810
 43
1.0000
 50
0.0000
  0
INSERT
  8
29
  2
ROUNDV
 10
49.5300
 20
64.0080
 30
0.0000
 41
1.0270
 42
1.0270
 43
1.0000
 50
0.0000
  0
INSERT
  8
29
  2
ROUNDV
 10
59.9440
 20
67.8180
 30
0.0000
 41
0.6810
 42
0.6810
 43
1.0000
 50
0.0000
  0
INSERT
  8
29
  2
ROUNDV
 10
89.1540
 20
65.2780
 30
0.0000
 41
0.6810
 42
0.6810
 43
1.0000
 50
0.0000
  0
INSERT
  8
29
  2
ROUNDV
 10
89.6620
 20
61.2140
 30
0.0000
 41
0.6810
 42
0.6810
 43
1.0000
 50
0.0000
  0
INSERT
  8
29
  2
ROUNDV
 10
91.9000
 20
16.7000
 30
0.0000
 41
0.6810
 42
0.6810
 43
1.0000
 50
0.0000
  0
INSERT
  8
29
  2
ROUNDV
 10
91.9000
 20
12.2920
 30
0.0000
 41
0.6810
 42
0.6810
 43
1.0000
 50
0.0000
  0
INSERT
  8
29
  2
ROUNDV
 10
91.9000
 20
20.5000
 30
0.0000
 41
0.6810
 42
0.6810
 43
1.0000
 50
0.0000
  0
INSERT
  8
29
  2
ROUNDV
 10
91.9000
 20
24.3000
 30
0.0000
 41
0.6810
 42
0.6810
 43
1.0000
 50
0.0000
  0
INSERT
  8
29
  2
ROUNDV
 10
89.1540
 20
69.3420
 30
0.0000
 41
0.6810
 42
0.6810
 43
1.0000
 50
0.0000
  0
INSERT
  8
29
  2
ROUNDV
 10
7.8740
 20
54.3560
 30
0.0000
 41
1.0270
 42
1.0270
 43
1.0000
 50
0.0000
  0
INSERT
  8
29
  2
ROUNDV
 10
9.9060
 20
66.2940
 30
0.0000
 41
0.7810
 42
0.7810
 43
1.0000
 50
0.0000
  0
INSERT
  8
29
  2
ROUNDV
 10
92.2020
 20
55.1180
 30
0.0000
 41
0.6810
 42
0.6810
 43
1.0000
 50
0.0000
  0
INSERT
  8
29
  2
ROUNDV
 10
67.8180
 20
69.3420
 30
0.0000
 41
1.0270
 42
1.0270
 43
1.0000
 50
0.0000
  0
INSERT
  8
29
  2
ROUNDV
 10
96.0120
 20
39.3700
 30
0.0000
 41
0.6810
 42
0.6810
 43
1.0000
 50
0.0000
  0
INSERT
  8
29
  2
ROUNDV
 10
92.9640
 20
29.9720
 30
0.0000
 41
0.6810
 42
0.6810
 43
1.0000
 50
0.0000
  0
INSERT
  8
29
  2
ROUNDV
 10
1.5240
 20
19.8120
 30
0.0000
 41
1.3270
 42
1.3270
 43
1.0000
 50
0.0000
  0
INSERT
  8
29
  2
ROUNDV
 10
4.3180
 20
11.6840
 30
0.0000
 41
0.6810
 42
0.6810
 43
1.0000
 50
0.0000
  0
INSERT
  8
29
  2
ROUNDV
 10
3.0480
 20
29.2100
 30
0.0000
 41
1.3270
 42
1.3270
 43
1.0000
 50
0.0000
  0
INSERT
  8
29
  2
ROUNDV
 10
24.3840
 20
35.3060
 30
0.0000
 41
0.6810
 42
0.6810
 43
1.0000
 50
0.0000
  0
INSERT
  8
29
  2
ROUNDV
 10
24.3840
 20
43.9420
 30
0.0000
 41
0.6810
 42
0.6810
 43
1.0000
 50
0.0000
  0
INSERT
  8
29
  2
ROUNDV
 10
6.6040
 20
22.6060
 30
0.0000
 41
0.7810
 42
0.7810
 43
1.0000
 50
0.0000
  0
INSERT
  8
29
  2
ROUNDV
 10
4.8260
 20
13.4620
 30
0.0000
 41
0.6810
 42
0.6810
 43
1.0000
 50
0.0000
  0
INSERT
  8
29
  2
ROUNDV
 10
42.6720
 20
37.3380
 30
0.0000
 41
0.7810
 42
0.7810
 43
1.0000
 50
0.0000
  0
INSERT
  8
29
  2
ROUNDV
 10
45.2120
 20
41.9100
 30
0.0000
 41
0.7810
 42
0.7810
 43
1.0000
 50
0.0000
  0
INSERT
  8
29
  2
ROUNDV
 10
72.8980
 20
45.2120
 30
0.0000
 41
0.7810
 42
0.7810
 43
1.0000
 50
0.0000
  0
INSERT
  8
29
  2
ROUNDV
 10
96.5200
 20
26.9240
 30
0.0000
 41
0.7810
 42
0.7810
 43
1.0000
 50
0.0000
  0
INSERT
  8
29
  2
ROUNDV
 10
96.4438
 20
25.0190
 30
0.0000
 41
0.7810
 42
0.7810
 43
1.0000
 50
0.0000
  0
INSERT
  8
29
  2
ROUNDV
 10
96.4438
 20
21.9710
 30
0.0000
 41
0.7810
 42
0.7810
 43
1.0000
 50
0.0000
  0
INSERT
  8
29
  2
ROUNDV
 10
96.4438
 20
19.4310
 30
0.0000
 41
0.7810
 42
0.7810
 43
1.0000
 50
0.0000
  0
INSERT
  8
29
  2
ROUNDV
 10
89.6620
 20
26.4160
 30
0.0000
 41
0.6810
 42
0.6810
 43
1.0000
 50
0.0000
  0
INSERT
  8
29
  2
ROUNDV
 10
89.6620
 20
22.6060
 30
0.0000
 41
0.6810
 42
0.6810
 43
1.0000
 50
0.0000
  0
INSERT
  8
29
  2
ROUNDV
 10
89.6620
 20
18.7960
 30
0.0000
 41
0.6810
 42
0.6810
 43
1.0000
 50
0.0000
  0
INSERT
  8
29
  2
ROUNDV
 10
88.3920
 20
64.2620
 30
0.0000
 41
0.6810
 42
0.6810
 43
1.0000
 50
0.0000
  0
INSERT
  8
29
  2
ROUNDV
 10
9.3300
 20
59.4220
 30
0.0000
 41
0.6810
 42
0.6810
 43
1.0000
 50
0.0000
  0
INSERT
  8
29
  2
ROUNDV
 10
69.5960
 20
40.1320
 30
0.0000
 41
0.6810
 42
0.6810
 43
1.0000
 50
0.0000
  0
INSERT
  8
29
  2
ROUNDV
 10
78.7400
 20
40.1320
 30
0.0000
 41
0.6810
 42
0.6810
 43
1.0000
 50
0.0000
  0
INSERT
  8
29
  2
ROUNDV
 10
62.2300
 20
44.9580
 30
0.0000
 41
0.6810
 42
0.6810
 43
1.0000
 50
0.0000
  0
INSERT
  8
29
  2
ROUNDV
 10
64.5160
 20
37.3380
 30
0.0000
 41
0.6810
 42
0.6810
 43
1.0000
 50
0.0000
  0
INSERT
  8
29
  2
ROUNDV
 10
69.5960
 20
38.6080
 30
0.0000
 41
0.6810
 42
0.6810
 43
1.0000
 50
0.0000
  0
INSERT
  8
29
  2
ROUNDV
 10
80.0100
 20
38.6080
 30
0.0000
 41
0.6810
 42
0.6810
 43
1.0000
 50
0.0000
  0
INSERT
  8
29
  2
ROUNDV
 10
14.2240
 20
53.3400
 30
0.0000
 41
0.6810
 42
0.6810
 43
1.0000
 50
0.0000
  0
INSERT
  8
29
  2
ROUNDV
 10
83.0580
 20
30.7340
 30
0.0000
 41
0.6810
 42
0.6810
 43
1.0000
 50
0.0000
  0
INSERT
  8
29
  2
ROUNDV
 10
87.6000
 20
31.4000
 30
0.0000
 41
0.6810
 42
0.6810
 43
1.0000
 50
0.0000
  0
INSERT
  8
29
  2
ROUNDV
 10
83.8200
 20
29.6100
 30
0.0000
 41
0.6810
 42
0.6810
 43
1.0000
 50
0.0000
  0
INSERT
  8
29
  2
ROUNDV
 10
88.9000
 20
29.7180
 30
0.0000
 41
0.6810
 42
0.6810
 43
1.0000
 50
0.0000
  0
INSERT
  8
29
  2
ROUNDV
 10
98.6000
 20
30.1000
 30
0.0000
 41
0.6810
 42
0.6810
 43
1.0000
 50
0.0000
  0
INSERT
  8
29
  2
ROUNDV
 10
96.1000
 20
23.3000
 30
0.0000
 41
0.6810
 42
0.6810
 43
1.0000
 50
0.0000
  0
INSERT
  8
29
  2
ROUNDV
 10
68.0720
 20
41.1480
 30
0.0000
 41
0.7810
 42
0.7810
 43
1.0000
 50
0.0000
  0
INSERT
  8
29
  2
ROUNDV
 10
73.6600
 20
32.5120
 30
0.0000
 41
0.7810
 42
0.7810
 43
1.0000
 50
0.0000
  0
INSERT
  8
29
  2
ROUNDV
 10
101.0920
 20
56.1340
 30
0.0000
 41
0.6810
 42
0.6810
 43
1.0000
 50
0.0000
  0
INSERT
  8
29
  2
ROUNDV
 10
100.3300
 20
59.1820
 30
0.0000
 41
0.6810
 42
0.6810
 43
1.0000
 50
0.0000
  0
INSERT
  8
29
  2
ROUNDV
 10
99.3140
 20
56.1340
 30
0.0000
 41
0.6810
 42
0.6810
 43
1.0000
 50
0.0000
  0
INSERT
  8
29
  2
ROUNDV
 10
92.4560
 20
63.2460
 30
0.0000
 41
0.6810
 42
0.6810
 43
1.0000
 50
0.0000
  0
INSERT
  8
29
  2
ROUNDV
 10
97.2820
 20
56.1340
 30
0.0000
 41
0.6810
 42
0.6810
 43
1.0000
 50
0.0000
  0
INSERT
  8
29
  2
ROUNDV
 10
90.9320
 20
66.2940
 30
0.0000
 41
0.6810
 42
0.6810
 43
1.0000
 50
0.0000
  0
INSERT
  8
29
  2
ROUNDV
 10
81.7880
 20
48.5140
 30
0.0000
 41
0.6810
 42
0.6810
 43
1.0000
 50
0.0000
  0
INSERT
  8
29
  2
ROUNDV
 10
70.6120
 20
53.5940
 30
0.0000
 41
0.6810
 42
0.6810
 43
1.0000
 50
0.0000
  0
INSERT
  8
29
  2
ROUNDV
 10
81.7880
 20
49.7840
 30
0.0000
 41
0.6810
 42
0.6810
 43
1.0000
 50
0.0000
  0
INSERT
  8
29
  2
ROUNDV
 10
41.4020
 20
46.4820
 30
0.0000
 41
0.6810
 42
0.6810
 43
1.0000
 50
0.0000
  0
INSERT
  8
29
  2
ROUNDV
 10
6.6040
 20
45.2120
 30
0.0000
 41
0.6810
 42
0.6810
 43
1.0000
 50
0.0000
  0
INSERT
  8
29
  2
ROUNDV
 10
17.0180
 20
5.0800
 30
0.0000
 41
0.7810
 42
0.7810
 43
1.0000
 50
0.0000
  0
ENDSEC
  0
EOF
