  0
SECTION
  2
HEADER
  9
$ACADVER
  1
AC1009
  9
$FILLMODE
 70
1
  9
$EXTMIN
 10
-81.3020
 20
-62.5348
 30
0.0000
  9
$EXTMAX
 10
109.3470
 20
131.4035
 30
0.0000
  0
ENDSEC
  0
SECTION
  2
TABLES
  0
TABLE
  2
LTYPE
 70
1
  0
LTYPE
  2
CONTINUOUS
 70
64
  3
Solid line
 72
65
 73
0
 40
0
  0
ENDTAB
  0
TABLE
  2
LAYER
 70
255
  0
LAYER
  2
20
 70
64
 62
7
  6
CONTINUOUS
  0
LAYER
  2
39
 70
64
 62
22
  6
CONTINUOUS
  0
ENDTAB
  0
ENDSEC
  0
SECTION
  2
BLOCKS
  0
BLOCK
  8
0
  2
RECT
 70
64
 10
0.0000
 20
0.0000
 30
0.0000
  3
RECT
  0
SOLID
  8
0
 10
-0.5000
 20
-0.5000
 30
0.0000
 11
0.5000
 21
-0.5000
 31
0.0000
 12
-0.5000
 22
0.5000
 32
0.0000
 13
0.5000
 23
0.5000
 33
0.0000
  0
ENDBLK
  8
0
  0
BLOCK
  8
0
  2
PIE
 70
64
 10
0.0000
 20
0.0000
 30
0.0000
  3
PIE
  0
POLYLINE
  8
0
 66
1
 10
0.0000
 20
0.0000
 30
0.0000
 40
0.5000
 41
0.5000
 70
0
  0
VERTEX
  8
0
 10
0.0000
 20
-0.2500
 30
0.0000
 42
1.0000
  0
VERTEX
  8
0
 10
0.0000
 20
0.2500
 30
0.0000
 42
1.0000
  0
VERTEX
  8
0
 10
0.0000
 20
-0.2500
 30
0.0000
  0
SEQEND
  8
0
  0
ENDBLK
  8
0
  0
BLOCK
  8
0
  2
OCTAGONP
 70
64
 10
0.0000
 20
0.0000
 30
0.0000
  3
OCTAGONP
  0
POLYLINE
  8
0
 66
1
 10
0.0000
 20
0.0000
 30
0.0000
 40
0.5000
 41
0.5000
 70
0
  0
VERTEX
  8
0
 10
-0.2500
 20
-0.1036
 30
0.0000
  0
VERTEX
  8
0
 10
-0.2500
 20
0.1036
 30
0.0000
  0
VERTEX
  8
0
 10
-0.1036
 20
0.2500
 30
0.0000
  0
VERTEX
  8
0
 10
0.1036
 20
0.2500
 30
0.0000
  0
VERTEX
  8
0
 10
0.2500
 20
0.1036
 30
0.0000
  0
VERTEX
  8
0
 10
0.2500
 20
-0.1036
 30
0.0000
  0
VERTEX
  8
0
 10
0.1036
 20
-0.2500
 30
0.0000
  0
VERTEX
  8
0
 10
-0.1036
 20
-0.2500
 30
0.0000
  0
VERTEX
  8
0
 10
-0.2500
 20
-0.1036
 30
0.0000
  0
VERTEX
  8
0
 10
-0.2500
 20
0.1036
 30
0.0000
  0
SEQEND
  8
0
  0
ENDBLK
  8
0
  0
BLOCK
  8
0
  2
SQUAREP
 70
64
 10
0.0000
 20
0.0000
 30
0.0000
  3
SQUAREP
  0
SOLID
  8
0
 10
-0.5000
 20
-0.5000
 30
0.0000
 11
0.5000
 21
-0.5000
 31
0.0000
 12
-0.5000
 22
0.5000
 32
0.0000
 13
0.5000
 23
0.5000
 33
0.0000
  0
ENDBLK
  8
0
  0
BLOCK
  8
0
  2
ROUNDP
 70
64
 10
0.0000
 20
0.0000
 30
0.0000
  3
ROUNDP
  0
POLYLINE
  8
0
 66
1
 10
0.0000
 20
0.0000
 30
0.0000
 40
0.5000
 41
0.5000
 70
0
  0
VERTEX
  8
0
 10
0.0000
 20
-0.2500
 30
0.0000
 42
1.0000
  0
VERTEX
  8
0
 10
0.0000
 20
0.2500
 30
0.0000
 42
1.0000
  0
VERTEX
  8
0
 10
0.0000
 20
-0.2500
 30
0.0000
  0
SEQEND
  8
0
  0
ENDBLK
  8
0
  0
BLOCK
  8
0
  2
ANNULUSP
 70
64
 10
0.0000
 20
0.0000
 30
0.0000
  3
ANNULUSP
  0
POLYLINE
  8
0
 66
1
 10
0.0000
 20
0.0000
 30
0.0000
 40
0.5000
 41
0.5000
 70
0
  0
VERTEX
  8
0
 10
0.0000
 20
-0.2500
 30
0.0000
 42
1.0000
  0
VERTEX
  8
0
 10
0.0000
 20
0.2500
 30
0.0000
 42
1.0000
  0
VERTEX
  8
0
 10
0.0000
 20
-0.2500
 30
0.0000
  0
SEQEND
  8
0
  0
ENDBLK
  8
0
  0
BLOCK
  8
0
  2
THERMALP
 70
64
 10
0.0000
 20
0.0000
 30
0.0000
  3
THERMALP
  0
POLYLINE
  8
0
 66
1
 10
0.0000
 20
0.0000
 30
0.0000
 40
0.1000
 41
0.1000
 70
0
  0
VERTEX
  8
0
 10
-0.2379
 20
0.4500
 30
0.0000
  0
VERTEX
  8
0
 10
0.2379
 20
0.4500
 30
0.0000
  0
SEQEND
  8
0
  0
POLYLINE
  8
0
 66
1
 10
0.0000
 20
0.0000
 30
0.0000
 40
0.0500
 41
0.0500
 70
0
  0
VERTEX
  8
0
 10
0.2379
 20
0.4250
 30
0.0000
 42
1.0000
  0
VERTEX
  8
0
 10
0.2379
 20
0.4750
 30
0.0000
  0
SEQEND
  8
0
  0
POLYLINE
  8
0
 66
1
 10
0.0000
 20
0.0000
 30
0.0000
 40
0.0500
 41
0.0500
 70
0
  0
VERTEX
  8
0
 10
-0.2379
 20
0.4750
 30
0.0000
 42
1.0000
  0
VERTEX
  8
0
 10
-0.2379
 20
0.4250
 30
0.0000
  0
SEQEND
  8
0
  0
POLYLINE
  8
0
 66
1
 10
0.0000
 20
0.0000
 30
0.0000
 40
0.1000
 41
0.1000
 70
0
  0
VERTEX
  8
0
 10
0.4500
 20
0.2379
 30
0.0000
  0
VERTEX
  8
0
 10
0.4500
 20
-0.2379
 30
0.0000
  0
SEQEND
  8
0
  0
POLYLINE
  8
0
 66
1
 10
0.0000
 20
0.0000
 30
0.0000
 40
0.0500
 41
0.0500
 70
0
  0
VERTEX
  8
0
 10
0.4250
 20
-0.2379
 30
0.0000
 42
1.0000
  0
VERTEX
  8
0
 10
0.4750
 20
-0.2379
 30
0.0000
  0
SEQEND
  8
0
  0
POLYLINE
  8
0
 66
1
 10
0.0000
 20
0.0000
 30
0.0000
 40
0.0500
 41
0.0500
 70
0
  0
VERTEX
  8
0
 10
0.4750
 20
0.2379
 30
0.0000
 42
1.0000
  0
VERTEX
  8
0
 10
0.4250
 20
0.2379
 30
0.0000
  0
SEQEND
  8
0
  0
POLYLINE
  8
0
 66
1
 10
0.0000
 20
0.0000
 30
0.0000
 40
0.1000
 41
0.1000
 70
0
  0
VERTEX
  8
0
 10
0.2379
 20
-0.4500
 30
0.0000
  0
VERTEX
  8
0
 10
-0.2379
 20
-0.4500
 30
0.0000
  0
SEQEND
  8
0
  0
POLYLINE
  8
0
 66
1
 10
0.0000
 20
0.0000
 30
0.0000
 40
0.0500
 41
0.0500
 70
0
  0
VERTEX
  8
0
 10
-0.2379
 20
-0.4250
 30
0.0000
 42
1.0000
  0
VERTEX
  8
0
 10
-0.2379
 20
-0.4750
 30
0.0000
  0
SEQEND
  8
0
  0
POLYLINE
  8
0
 66
1
 10
0.0000
 20
0.0000
 30
0.0000
 40
0.0500
 41
0.0500
 70
0
  0
VERTEX
  8
0
 10
0.2379
 20
-0.4750
 30
0.0000
 42
1.0000
  0
VERTEX
  8
0
 10
0.2379
 20
-0.4250
 30
0.0000
  0
SEQEND
  8
0
  0
POLYLINE
  8
0
 66
1
 10
0.0000
 20
0.0000
 30
0.0000
 40
0.1000
 41
0.1000
 70
0
  0
VERTEX
  8
0
 10
-0.4500
 20
-0.2379
 30
0.0000
  0
VERTEX
  8
0
 10
-0.4500
 20
0.2379
 30
0.0000
  0
SEQEND
  8
0
  0
POLYLINE
  8
0
 66
1
 10
0.0000
 20
0.0000
 30
0.0000
 40
0.0500
 41
0.0500
 70
0
  0
VERTEX
  8
0
 10
-0.4250
 20
0.2379
 30
0.0000
 42
1.0000
  0
VERTEX
  8
0
 10
-0.4750
 20
0.2379
 30
0.0000
  0
SEQEND
  8
0
  0
POLYLINE
  8
0
 66
1
 10
0.0000
 20
0.0000
 30
0.0000
 40
0.0500
 41
0.0500
 70
0
  0
VERTEX
  8
0
 10
-0.4750
 20
-0.2379
 30
0.0000
 42
1.0000
  0
VERTEX
  8
0
 10
-0.4250
 20
-0.2379
 30
0.0000
  0
SEQEND
  8
0
  0
ENDBLK
  8
0
  0
BLOCK
  8
0
  2
OCTAGONV
 70
64
 10
0.0000
 20
0.0000
 30
0.0000
  3
OCTAGONV
  0
POLYLINE
  8
0
 66
1
 10
0.0000
 20
0.0000
 30
0.0000
 40
0.5000
 41
0.5000
 70
0
  0
VERTEX
  8
0
 10
-0.2500
 20
-0.1036
 30
0.0000
  0
VERTEX
  8
0
 10
-0.2500
 20
0.1036
 30
0.0000
  0
VERTEX
  8
0
 10
-0.1036
 20
0.2500
 30
0.0000
  0
VERTEX
  8
0
 10
0.1036
 20
0.2500
 30
0.0000
  0
VERTEX
  8
0
 10
0.2500
 20
0.1036
 30
0.0000
  0
VERTEX
  8
0
 10
0.2500
 20
-0.1036
 30
0.0000
  0
VERTEX
  8
0
 10
0.1036
 20
-0.2500
 30
0.0000
  0
VERTEX
  8
0
 10
-0.1036
 20
-0.2500
 30
0.0000
  0
VERTEX
  8
0
 10
-0.2500
 20
-0.1036
 30
0.0000
  0
VERTEX
  8
0
 10
-0.2500
 20
0.1036
 30
0.0000
  0
SEQEND
  8
0
  0
ENDBLK
  8
0
  0
BLOCK
  8
0
  2
SQUAREV
 70
64
 10
0.0000
 20
0.0000
 30
0.0000
  3
SQUAREV
  0
SOLID
  8
0
 10
-0.5000
 20
-0.5000
 30
0.0000
 11
0.5000
 21
-0.5000
 31
0.0000
 12
-0.5000
 22
0.5000
 32
0.0000
 13
0.5000
 23
0.5000
 33
0.0000
  0
ENDBLK
  8
0
  0
BLOCK
  8
0
  2
ROUNDV
 70
64
 10
0.0000
 20
0.0000
 30
0.0000
  3
ROUNDV
  0
POLYLINE
  8
0
 66
1
 10
0.0000
 20
0.0000
 30
0.0000
 40
0.5000
 41
0.5000
 70
0
  0
VERTEX
  8
0
 10
0.0000
 20
-0.2500
 30
0.0000
 42
1.0000
  0
VERTEX
  8
0
 10
0.0000
 20
0.2500
 30
0.0000
 42
1.0000
  0
VERTEX
  8
0
 10
0.0000
 20
-0.2500
 30
0.0000
  0
SEQEND
  8
0
  0
ENDBLK
  8
0
  0
BLOCK
  8
0
  2
ANNULUSV
 70
64
 10
0.0000
 20
0.0000
 30
0.0000
  3
ANNULUSV
  0
POLYLINE
  8
0
 66
1
 10
0.0000
 20
0.0000
 30
0.0000
 40
0.5000
 41
0.5000
 70
0
  0
VERTEX
  8
0
 10
0.0000
 20
-0.2500
 30
0.0000
 42
1.0000
  0
VERTEX
  8
0
 10
0.0000
 20
0.2500
 30
0.0000
 42
1.0000
  0
VERTEX
  8
0
 10
0.0000
 20
-0.2500
 30
0.0000
  0
SEQEND
  8
0
  0
ENDBLK
  8
0
  0
BLOCK
  8
0
  2
THERMALV
 70
64
 10
0.0000
 20
0.0000
 30
0.0000
  3
THERMALV
  0
POLYLINE
  8
0
 66
1
 10
0.0000
 20
0.0000
 30
0.0000
 40
0.1000
 41
0.1000
 70
0
  0
VERTEX
  8
0
 10
-0.2379
 20
0.4500
 30
0.0000
  0
VERTEX
  8
0
 10
0.2379
 20
0.4500
 30
0.0000
  0
SEQEND
  8
0
  0
POLYLINE
  8
0
 66
1
 10
0.0000
 20
0.0000
 30
0.0000
 40
0.0500
 41
0.0500
 70
0
  0
VERTEX
  8
0
 10
0.2379
 20
0.4250
 30
0.0000
 42
1.0000
  0
VERTEX
  8
0
 10
0.2379
 20
0.4750
 30
0.0000
  0
SEQEND
  8
0
  0
POLYLINE
  8
0
 66
1
 10
0.0000
 20
0.0000
 30
0.0000
 40
0.0500
 41
0.0500
 70
0
  0
VERTEX
  8
0
 10
-0.2379
 20
0.4750
 30
0.0000
 42
1.0000
  0
VERTEX
  8
0
 10
-0.2379
 20
0.4250
 30
0.0000
  0
SEQEND
  8
0
  0
POLYLINE
  8
0
 66
1
 10
0.0000
 20
0.0000
 30
0.0000
 40
0.1000
 41
0.1000
 70
0
  0
VERTEX
  8
0
 10
0.4500
 20
0.2379
 30
0.0000
  0
VERTEX
  8
0
 10
0.4500
 20
-0.2379
 30
0.0000
  0
SEQEND
  8
0
  0
POLYLINE
  8
0
 66
1
 10
0.0000
 20
0.0000
 30
0.0000
 40
0.0500
 41
0.0500
 70
0
  0
VERTEX
  8
0
 10
0.4250
 20
-0.2379
 30
0.0000
 42
1.0000
  0
VERTEX
  8
0
 10
0.4750
 20
-0.2379
 30
0.0000
  0
SEQEND
  8
0
  0
POLYLINE
  8
0
 66
1
 10
0.0000
 20
0.0000
 30
0.0000
 40
0.0500
 41
0.0500
 70
0
  0
VERTEX
  8
0
 10
0.4750
 20
0.2379
 30
0.0000
 42
1.0000
  0
VERTEX
  8
0
 10
0.4250
 20
0.2379
 30
0.0000
  0
SEQEND
  8
0
  0
POLYLINE
  8
0
 66
1
 10
0.0000
 20
0.0000
 30
0.0000
 40
0.1000
 41
0.1000
 70
0
  0
VERTEX
  8
0
 10
0.2379
 20
-0.4500
 30
0.0000
  0
VERTEX
  8
0
 10
-0.2379
 20
-0.4500
 30
0.0000
  0
SEQEND
  8
0
  0
POLYLINE
  8
0
 66
1
 10
0.0000
 20
0.0000
 30
0.0000
 40
0.0500
 41
0.0500
 70
0
  0
VERTEX
  8
0
 10
-0.2379
 20
-0.4250
 30
0.0000
 42
1.0000
  0
VERTEX
  8
0
 10
-0.2379
 20
-0.4750
 30
0.0000
  0
SEQEND
  8
0
  0
POLYLINE
  8
0
 66
1
 10
0.0000
 20
0.0000
 30
0.0000
 40
0.0500
 41
0.0500
 70
0
  0
VERTEX
  8
0
 10
0.2379
 20
-0.4750
 30
0.0000
 42
1.0000
  0
VERTEX
  8
0
 10
0.2379
 20
-0.4250
 30
0.0000
  0
SEQEND
  8
0
  0
POLYLINE
  8
0
 66
1
 10
0.0000
 20
0.0000
 30
0.0000
 40
0.1000
 41
0.1000
 70
0
  0
VERTEX
  8
0
 10
-0.4500
 20
-0.2379
 30
0.0000
  0
VERTEX
  8
0
 10
-0.4500
 20
0.2379
 30
0.0000
  0
SEQEND
  8
0
  0
POLYLINE
  8
0
 66
1
 10
0.0000
 20
0.0000
 30
0.0000
 40
0.0500
 41
0.0500
 70
0
  0
VERTEX
  8
0
 10
-0.4250
 20
0.2379
 30
0.0000
 42
1.0000
  0
VERTEX
  8
0
 10
-0.4750
 20
0.2379
 30
0.0000
  0
SEQEND
  8
0
  0
POLYLINE
  8
0
 66
1
 10
0.0000
 20
0.0000
 30
0.0000
 40
0.0500
 41
0.0500
 70
0
  0
VERTEX
  8
0
 10
-0.4750
 20
-0.2379
 30
0.0000
 42
1.0000
  0
VERTEX
  8
0
 10
-0.4250
 20
-0.2379
 30
0.0000
  0
SEQEND
  8
0
  0
ENDBLK
  8
0
  0
ENDSEC
  0
SECTION
  2
ENTITIES
  0
LINE
  8
20
 10
0.0000
 20
0.0000
 30
0.0000
 11
109.3470
 21
0.0000
 31
0.0000
  0
LINE
  8
20
 10
109.3470
 20
0.0000
 30
0.0000
 11
109.3470
 21
76.2000
 31
0.0000
  0
LINE
  8
20
 10
109.3470
 20
76.2000
 30
0.0000
 11
0.0000
 21
76.2000
 31
0.0000
  0
LINE
  8
20
 10
0.0000
 20
76.2000
 30
0.0000
 11
0.0000
 21
0.0000
 31
0.0000
  0
POLYLINE
  8
39
 66
1
 10
0.0000
 20
0.0000
 30
0.0000
 40
3.8100
 41
3.8100
 70
0
  0
VERTEX
  8
39
 10
14.9860
 20
61.5950
 30
0.0000
 42
1.0000
  0
VERTEX
  8
39
 10
14.9860
 20
65.4050
 30
0.0000
 42
1.0000
  0
VERTEX
  8
39
 10
14.9860
 20
61.5950
 30
0.0000
  0
SEQEND
  8
0
  0
POLYLINE
  8
39
 66
1
 10
0.0000
 20
0.0000
 30
0.0000
 40
3.8100
 41
3.8100
 70
0
  0
VERTEX
  8
39
 10
14.9860
 20
10.7950
 30
0.0000
 42
1.0000
  0
VERTEX
  8
39
 10
14.9860
 20
14.6050
 30
0.0000
 42
1.0000
  0
VERTEX
  8
39
 10
14.9860
 20
10.7950
 30
0.0000
  0
SEQEND
  8
0
  0
POLYLINE
  8
39
 66
1
 10
0.0000
 20
0.0000
 30
0.0000
 40
3.8100
 41
3.8100
 70
0
  0
VERTEX
  8
39
 10
94.3610
 20
61.5950
 30
0.0000
 42
1.0000
  0
VERTEX
  8
39
 10
94.3610
 20
65.4050
 30
0.0000
 42
1.0000
  0
VERTEX
  8
39
 10
94.3610
 20
61.5950
 30
0.0000
  0
SEQEND
  8
0
  0
POLYLINE
  8
39
 66
1
 10
0.0000
 20
0.0000
 30
0.0000
 40
3.8100
 41
3.8100
 70
0
  0
VERTEX
  8
39
 10
94.3610
 20
10.7950
 30
0.0000
 42
1.0000
  0
VERTEX
  8
39
 10
94.3610
 20
14.6050
 30
0.0000
 42
1.0000
  0
VERTEX
  8
39
 10
94.3610
 20
10.7950
 30
0.0000
  0
SEQEND
  8
0
  0
CIRCLE
  8
20
 10
14.9860
 20
63.5000
 30
0.0000
 40
1.2700
  0
CIRCLE
  8
20
 10
14.9860
 20
12.7000
 30
0.0000
 40
1.2700
  0
CIRCLE
  8
20
 10
94.3610
 20
63.5000
 30
0.0000
 40
1.2700
  0
CIRCLE
  8
20
 10
94.3610
 20
12.7000
 30
0.0000
 40
1.2700
  0
POLYLINE
  8
39
 66
1
 10
0.0000
 20
0.0000
 30
0.0000
 40
0.0508
 41
0.0508
 70
0
  0
VERTEX
  8
39
 10
-44.6530
 20
46.7030
 30
0.0000
  0
VERTEX
  8
39
 10
-41.7070
 20
46.7030
 30
0.0000
  0
SEQEND
  8
0
  0
POLYLINE
  8
39
 66
1
 10
0.0000
 20
0.0000
 30
0.0000
 40
0.0254
 41
0.0254
 70
0
  0
VERTEX
  8
39
 10
-41.7070
 20
46.6903
 30
0.0000
 42
1.0000
  0
VERTEX
  8
39
 10
-41.7070
 20
46.7157
 30
0.0000
  0
SEQEND
  8
0
  0
POLYLINE
  8
39
 66
1
 10
0.0000
 20
0.0000
 30
0.0000
 40
0.0254
 41
0.0254
 70
0
  0
VERTEX
  8
39
 10
-44.6530
 20
46.7157
 30
0.0000
 42
1.0000
  0
VERTEX
  8
39
 10
-44.6530
 20
46.6903
 30
0.0000
  0
SEQEND
  8
0
  0
POLYLINE
  8
39
 66
1
 10
0.0000
 20
0.0000
 30
0.0000
 40
0.0508
 41
0.0508
 70
0
  0
VERTEX
  8
39
 10
-41.7070
 20
46.7030
 30
0.0000
  0
VERTEX
  8
39
 10
-41.7070
 20
44.7370
 30
0.0000
  0
SEQEND
  8
0
  0
POLYLINE
  8
39
 66
1
 10
0.0000
 20
0.0000
 30
0.0000
 40
0.0254
 41
0.0254
 70
0
  0
VERTEX
  8
39
 10
-41.7197
 20
44.7370
 30
0.0000
 42
1.0000
  0
VERTEX
  8
39
 10
-41.6943
 20
44.7370
 30
0.0000
  0
SEQEND
  8
0
  0
POLYLINE
  8
39
 66
1
 10
0.0000
 20
0.0000
 30
0.0000
 40
0.0254
 41
0.0254
 70
0
  0
VERTEX
  8
39
 10
-41.6943
 20
46.7030
 30
0.0000
 42
1.0000
  0
VERTEX
  8
39
 10
-41.7197
 20
46.7030
 30
0.0000
  0
SEQEND
  8
0
  0
POLYLINE
  8
39
 66
1
 10
0.0000
 20
0.0000
 30
0.0000
 40
0.0508
 41
0.0508
 70
0
  0
VERTEX
  8
39
 10
-41.7070
 20
44.7370
 30
0.0000
  0
VERTEX
  8
39
 10
-44.6530
 20
44.7370
 30
0.0000
  0
SEQEND
  8
0
  0
POLYLINE
  8
39
 66
1
 10
0.0000
 20
0.0000
 30
0.0000
 40
0.0254
 41
0.0254
 70
0
  0
VERTEX
  8
39
 10
-44.6530
 20
44.7497
 30
0.0000
 42
1.0000
  0
VERTEX
  8
39
 10
-44.6530
 20
44.7243
 30
0.0000
  0
SEQEND
  8
0
  0
POLYLINE
  8
39
 66
1
 10
0.0000
 20
0.0000
 30
0.0000
 40
0.0254
 41
0.0254
 70
0
  0
VERTEX
  8
39
 10
-41.7070
 20
44.7243
 30
0.0000
 42
1.0000
  0
VERTEX
  8
39
 10
-41.7070
 20
44.7497
 30
0.0000
  0
SEQEND
  8
0
  0
POLYLINE
  8
39
 66
1
 10
0.0000
 20
0.0000
 30
0.0000
 40
0.0508
 41
0.0508
 70
0
  0
VERTEX
  8
39
 10
-44.6530
 20
44.7370
 30
0.0000
  0
VERTEX
  8
39
 10
-44.6530
 20
46.7030
 30
0.0000
  0
SEQEND
  8
0
  0
POLYLINE
  8
39
 66
1
 10
0.0000
 20
0.0000
 30
0.0000
 40
0.0254
 41
0.0254
 70
0
  0
VERTEX
  8
39
 10
-44.6403
 20
46.7030
 30
0.0000
 42
1.0000
  0
VERTEX
  8
39
 10
-44.6657
 20
46.7030
 30
0.0000
  0
SEQEND
  8
0
  0
POLYLINE
  8
39
 66
1
 10
0.0000
 20
0.0000
 30
0.0000
 40
0.0254
 41
0.0254
 70
0
  0
VERTEX
  8
39
 10
-44.6657
 20
44.7370
 30
0.0000
 42
1.0000
  0
VERTEX
  8
39
 10
-44.6403
 20
44.7370
 30
0.0000
  0
SEQEND
  8
0
  0
POLYLINE
  8
39
 66
1
 10
0.0000
 20
0.0000
 30
0.0000
 40
0.0508
 41
0.0508
 70
0
  0
VERTEX
  8
39
 10
-48.4630
 20
46.7030
 30
0.0000
  0
VERTEX
  8
39
 10
-45.5170
 20
46.7030
 30
0.0000
  0
SEQEND
  8
0
  0
POLYLINE
  8
39
 66
1
 10
0.0000
 20
0.0000
 30
0.0000
 40
0.0254
 41
0.0254
 70
0
  0
VERTEX
  8
39
 10
-45.5170
 20
46.6903
 30
0.0000
 42
1.0000
  0
VERTEX
  8
39
 10
-45.5170
 20
46.7157
 30
0.0000
  0
SEQEND
  8
0
  0
POLYLINE
  8
39
 66
1
 10
0.0000
 20
0.0000
 30
0.0000
 40
0.0254
 41
0.0254
 70
0
  0
VERTEX
  8
39
 10
-48.4630
 20
46.7157
 30
0.0000
 42
1.0000
  0
VERTEX
  8
39
 10
-48.4630
 20
46.6903
 30
0.0000
  0
SEQEND
  8
0
  0
POLYLINE
  8
39
 66
1
 10
0.0000
 20
0.0000
 30
0.0000
 40
0.0508
 41
0.0508
 70
0
  0
VERTEX
  8
39
 10
-45.5170
 20
46.7030
 30
0.0000
  0
VERTEX
  8
39
 10
-45.5170
 20
44.7370
 30
0.0000
  0
SEQEND
  8
0
  0
POLYLINE
  8
39
 66
1
 10
0.0000
 20
0.0000
 30
0.0000
 40
0.0254
 41
0.0254
 70
0
  0
VERTEX
  8
39
 10
-45.5297
 20
44.7370
 30
0.0000
 42
1.0000
  0
VERTEX
  8
39
 10
-45.5043
 20
44.7370
 30
0.0000
  0
SEQEND
  8
0
  0
POLYLINE
  8
39
 66
1
 10
0.0000
 20
0.0000
 30
0.0000
 40
0.0254
 41
0.0254
 70
0
  0
VERTEX
  8
39
 10
-45.5043
 20
46.7030
 30
0.0000
 42
1.0000
  0
VERTEX
  8
39
 10
-45.5297
 20
46.7030
 30
0.0000
  0
SEQEND
  8
0
  0
POLYLINE
  8
39
 66
1
 10
0.0000
 20
0.0000
 30
0.0000
 40
0.0508
 41
0.0508
 70
0
  0
VERTEX
  8
39
 10
-45.5170
 20
44.7370
 30
0.0000
  0
VERTEX
  8
39
 10
-48.4630
 20
44.7370
 30
0.0000
  0
SEQEND
  8
0
  0
POLYLINE
  8
39
 66
1
 10
0.0000
 20
0.0000
 30
0.0000
 40
0.0254
 41
0.0254
 70
0
  0
VERTEX
  8
39
 10
-48.4630
 20
44.7497
 30
0.0000
 42
1.0000
  0
VERTEX
  8
39
 10
-48.4630
 20
44.7243
 30
0.0000
  0
SEQEND
  8
0
  0
POLYLINE
  8
39
 66
1
 10
0.0000
 20
0.0000
 30
0.0000
 40
0.0254
 41
0.0254
 70
0
  0
VERTEX
  8
39
 10
-45.5170
 20
44.7243
 30
0.0000
 42
1.0000
  0
VERTEX
  8
39
 10
-45.5170
 20
44.7497
 30
0.0000
  0
SEQEND
  8
0
  0
POLYLINE
  8
39
 66
1
 10
0.0000
 20
0.0000
 30
0.0000
 40
0.0508
 41
0.0508
 70
0
  0
VERTEX
  8
39
 10
-48.4630
 20
44.7370
 30
0.0000
  0
VERTEX
  8
39
 10
-48.4630
 20
46.7030
 30
0.0000
  0
SEQEND
  8
0
  0
POLYLINE
  8
39
 66
1
 10
0.0000
 20
0.0000
 30
0.0000
 40
0.0254
 41
0.0254
 70
0
  0
VERTEX
  8
39
 10
-48.4503
 20
46.7030
 30
0.0000
 42
1.0000
  0
VERTEX
  8
39
 10
-48.4757
 20
46.7030
 30
0.0000
  0
SEQEND
  8
0
  0
POLYLINE
  8
39
 66
1
 10
0.0000
 20
0.0000
 30
0.0000
 40
0.0254
 41
0.0254
 70
0
  0
VERTEX
  8
39
 10
-48.4757
 20
44.7370
 30
0.0000
 42
1.0000
  0
VERTEX
  8
39
 10
-48.4503
 20
44.7370
 30
0.0000
  0
SEQEND
  8
0
  0
POLYLINE
  8
39
 66
1
 10
0.0000
 20
0.0000
 30
0.0000
 40
0.0508
 41
0.0508
 70
0
  0
VERTEX
  8
39
 10
-16.7130
 20
50.5130
 30
0.0000
  0
VERTEX
  8
39
 10
-13.7670
 20
50.5130
 30
0.0000
  0
SEQEND
  8
0
  0
POLYLINE
  8
39
 66
1
 10
0.0000
 20
0.0000
 30
0.0000
 40
0.0254
 41
0.0254
 70
0
  0
VERTEX
  8
39
 10
-13.7670
 20
50.5003
 30
0.0000
 42
1.0000
  0
VERTEX
  8
39
 10
-13.7670
 20
50.5257
 30
0.0000
  0
SEQEND
  8
0
  0
POLYLINE
  8
39
 66
1
 10
0.0000
 20
0.0000
 30
0.0000
 40
0.0254
 41
0.0254
 70
0
  0
VERTEX
  8
39
 10
-16.7130
 20
50.5257
 30
0.0000
 42
1.0000
  0
VERTEX
  8
39
 10
-16.7130
 20
50.5003
 30
0.0000
  0
SEQEND
  8
0
  0
POLYLINE
  8
39
 66
1
 10
0.0000
 20
0.0000
 30
0.0000
 40
0.0508
 41
0.0508
 70
0
  0
VERTEX
  8
39
 10
-13.7670
 20
50.5130
 30
0.0000
  0
VERTEX
  8
39
 10
-13.7670
 20
48.5470
 30
0.0000
  0
SEQEND
  8
0
  0
POLYLINE
  8
39
 66
1
 10
0.0000
 20
0.0000
 30
0.0000
 40
0.0254
 41
0.0254
 70
0
  0
VERTEX
  8
39
 10
-13.7797
 20
48.5470
 30
0.0000
 42
1.0000
  0
VERTEX
  8
39
 10
-13.7543
 20
48.5470
 30
0.0000
  0
SEQEND
  8
0
  0
POLYLINE
  8
39
 66
1
 10
0.0000
 20
0.0000
 30
0.0000
 40
0.0254
 41
0.0254
 70
0
  0
VERTEX
  8
39
 10
-13.7543
 20
50.5130
 30
0.0000
 42
1.0000
  0
VERTEX
  8
39
 10
-13.7797
 20
50.5130
 30
0.0000
  0
SEQEND
  8
0
  0
POLYLINE
  8
39
 66
1
 10
0.0000
 20
0.0000
 30
0.0000
 40
0.0508
 41
0.0508
 70
0
  0
VERTEX
  8
39
 10
-13.7670
 20
48.5470
 30
0.0000
  0
VERTEX
  8
39
 10
-16.7130
 20
48.5470
 30
0.0000
  0
SEQEND
  8
0
  0
POLYLINE
  8
39
 66
1
 10
0.0000
 20
0.0000
 30
0.0000
 40
0.0254
 41
0.0254
 70
0
  0
VERTEX
  8
39
 10
-16.7130
 20
48.5597
 30
0.0000
 42
1.0000
  0
VERTEX
  8
39
 10
-16.7130
 20
48.5343
 30
0.0000
  0
SEQEND
  8
0
  0
POLYLINE
  8
39
 66
1
 10
0.0000
 20
0.0000
 30
0.0000
 40
0.0254
 41
0.0254
 70
0
  0
VERTEX
  8
39
 10
-13.7670
 20
48.5343
 30
0.0000
 42
1.0000
  0
VERTEX
  8
39
 10
-13.7670
 20
48.5597
 30
0.0000
  0
SEQEND
  8
0
  0
POLYLINE
  8
39
 66
1
 10
0.0000
 20
0.0000
 30
0.0000
 40
0.0508
 41
0.0508
 70
0
  0
VERTEX
  8
39
 10
-16.7130
 20
48.5470
 30
0.0000
  0
VERTEX
  8
39
 10
-16.7130
 20
50.5130
 30
0.0000
  0
SEQEND
  8
0
  0
POLYLINE
  8
39
 66
1
 10
0.0000
 20
0.0000
 30
0.0000
 40
0.0254
 41
0.0254
 70
0
  0
VERTEX
  8
39
 10
-16.7003
 20
50.5130
 30
0.0000
 42
1.0000
  0
VERTEX
  8
39
 10
-16.7257
 20
50.5130
 30
0.0000
  0
SEQEND
  8
0
  0
POLYLINE
  8
39
 66
1
 10
0.0000
 20
0.0000
 30
0.0000
 40
0.0254
 41
0.0254
 70
0
  0
VERTEX
  8
39
 10
-16.7257
 20
48.5470
 30
0.0000
 42
1.0000
  0
VERTEX
  8
39
 10
-16.7003
 20
48.5470
 30
0.0000
  0
SEQEND
  8
0
  0
POLYLINE
  8
39
 66
1
 10
0.0000
 20
0.0000
 30
0.0000
 40
0.0508
 41
0.0508
 70
0
  0
VERTEX
  8
39
 10
-63.9570
 20
44.1630
 30
0.0000
  0
VERTEX
  8
39
 10
-61.0110
 20
44.1630
 30
0.0000
  0
SEQEND
  8
0
  0
POLYLINE
  8
39
 66
1
 10
0.0000
 20
0.0000
 30
0.0000
 40
0.0254
 41
0.0254
 70
0
  0
VERTEX
  8
39
 10
-61.0110
 20
44.1503
 30
0.0000
 42
1.0000
  0
VERTEX
  8
39
 10
-61.0110
 20
44.1757
 30
0.0000
  0
SEQEND
  8
0
  0
POLYLINE
  8
39
 66
1
 10
0.0000
 20
0.0000
 30
0.0000
 40
0.0254
 41
0.0254
 70
0
  0
VERTEX
  8
39
 10
-63.9570
 20
44.1757
 30
0.0000
 42
1.0000
  0
VERTEX
  8
39
 10
-63.9570
 20
44.1503
 30
0.0000
  0
SEQEND
  8
0
  0
POLYLINE
  8
39
 66
1
 10
0.0000
 20
0.0000
 30
0.0000
 40
0.0508
 41
0.0508
 70
0
  0
VERTEX
  8
39
 10
-61.0110
 20
44.1630
 30
0.0000
  0
VERTEX
  8
39
 10
-61.0110
 20
42.1970
 30
0.0000
  0
SEQEND
  8
0
  0
POLYLINE
  8
39
 66
1
 10
0.0000
 20
0.0000
 30
0.0000
 40
0.0254
 41
0.0254
 70
0
  0
VERTEX
  8
39
 10
-61.0237
 20
42.1970
 30
0.0000
 42
1.0000
  0
VERTEX
  8
39
 10
-60.9983
 20
42.1970
 30
0.0000
  0
SEQEND
  8
0
  0
POLYLINE
  8
39
 66
1
 10
0.0000
 20
0.0000
 30
0.0000
 40
0.0254
 41
0.0254
 70
0
  0
VERTEX
  8
39
 10
-60.9983
 20
44.1630
 30
0.0000
 42
1.0000
  0
VERTEX
  8
39
 10
-61.0237
 20
44.1630
 30
0.0000
  0
SEQEND
  8
0
  0
POLYLINE
  8
39
 66
1
 10
0.0000
 20
0.0000
 30
0.0000
 40
0.0508
 41
0.0508
 70
0
  0
VERTEX
  8
39
 10
-61.0110
 20
42.1970
 30
0.0000
  0
VERTEX
  8
39
 10
-63.9570
 20
42.1970
 30
0.0000
  0
SEQEND
  8
0
  0
POLYLINE
  8
39
 66
1
 10
0.0000
 20
0.0000
 30
0.0000
 40
0.0254
 41
0.0254
 70
0
  0
VERTEX
  8
39
 10
-63.9570
 20
42.2097
 30
0.0000
 42
1.0000
  0
VERTEX
  8
39
 10
-63.9570
 20
42.1843
 30
0.0000
  0
SEQEND
  8
0
  0
POLYLINE
  8
39
 66
1
 10
0.0000
 20
0.0000
 30
0.0000
 40
0.0254
 41
0.0254
 70
0
  0
VERTEX
  8
39
 10
-61.0110
 20
42.1843
 30
0.0000
 42
1.0000
  0
VERTEX
  8
39
 10
-61.0110
 20
42.2097
 30
0.0000
  0
SEQEND
  8
0
  0
POLYLINE
  8
39
 66
1
 10
0.0000
 20
0.0000
 30
0.0000
 40
0.0508
 41
0.0508
 70
0
  0
VERTEX
  8
39
 10
-63.9570
 20
42.1970
 30
0.0000
  0
VERTEX
  8
39
 10
-63.9570
 20
44.1630
 30
0.0000
  0
SEQEND
  8
0
  0
POLYLINE
  8
39
 66
1
 10
0.0000
 20
0.0000
 30
0.0000
 40
0.0254
 41
0.0254
 70
0
  0
VERTEX
  8
39
 10
-63.9443
 20
44.1630
 30
0.0000
 42
1.0000
  0
VERTEX
  8
39
 10
-63.9697
 20
44.1630
 30
0.0000
  0
SEQEND
  8
0
  0
POLYLINE
  8
39
 66
1
 10
0.0000
 20
0.0000
 30
0.0000
 40
0.0254
 41
0.0254
 70
0
  0
VERTEX
  8
39
 10
-63.9697
 20
42.1970
 30
0.0000
 42
1.0000
  0
VERTEX
  8
39
 10
-63.9443
 20
42.1970
 30
0.0000
  0
SEQEND
  8
0
  0
POLYLINE
  8
39
 66
1
 10
0.0000
 20
0.0000
 30
0.0000
 40
0.0508
 41
0.0508
 70
0
  0
VERTEX
  8
39
 10
-73.2030
 20
42.1970
 30
0.0000
  0
VERTEX
  8
39
 10
-76.1490
 20
42.1970
 30
0.0000
  0
SEQEND
  8
0
  0
POLYLINE
  8
39
 66
1
 10
0.0000
 20
0.0000
 30
0.0000
 40
0.0254
 41
0.0254
 70
0
  0
VERTEX
  8
39
 10
-76.1490
 20
42.2097
 30
0.0000
 42
1.0000
  0
VERTEX
  8
39
 10
-76.1490
 20
42.1843
 30
0.0000
  0
SEQEND
  8
0
  0
POLYLINE
  8
39
 66
1
 10
0.0000
 20
0.0000
 30
0.0000
 40
0.0254
 41
0.0254
 70
0
  0
VERTEX
  8
39
 10
-73.2030
 20
42.1843
 30
0.0000
 42
1.0000
  0
VERTEX
  8
39
 10
-73.2030
 20
42.2097
 30
0.0000
  0
SEQEND
  8
0
  0
POLYLINE
  8
39
 66
1
 10
0.0000
 20
0.0000
 30
0.0000
 40
0.0508
 41
0.0508
 70
0
  0
VERTEX
  8
39
 10
-76.1490
 20
42.1970
 30
0.0000
  0
VERTEX
  8
39
 10
-76.1490
 20
44.1630
 30
0.0000
  0
SEQEND
  8
0
  0
POLYLINE
  8
39
 66
1
 10
0.0000
 20
0.0000
 30
0.0000
 40
0.0254
 41
0.0254
 70
0
  0
VERTEX
  8
39
 10
-76.1363
 20
44.1630
 30
0.0000
 42
1.0000
  0
VERTEX
  8
39
 10
-76.1617
 20
44.1630
 30
0.0000
  0
SEQEND
  8
0
  0
POLYLINE
  8
39
 66
1
 10
0.0000
 20
0.0000
 30
0.0000
 40
0.0254
 41
0.0254
 70
0
  0
VERTEX
  8
39
 10
-76.1617
 20
42.1970
 30
0.0000
 42
1.0000
  0
VERTEX
  8
39
 10
-76.1363
 20
42.1970
 30
0.0000
  0
SEQEND
  8
0
  0
POLYLINE
  8
39
 66
1
 10
0.0000
 20
0.0000
 30
0.0000
 40
0.0508
 41
0.0508
 70
0
  0
VERTEX
  8
39
 10
-76.1490
 20
44.1630
 30
0.0000
  0
VERTEX
  8
39
 10
-73.2030
 20
44.1630
 30
0.0000
  0
SEQEND
  8
0
  0
POLYLINE
  8
39
 66
1
 10
0.0000
 20
0.0000
 30
0.0000
 40
0.0254
 41
0.0254
 70
0
  0
VERTEX
  8
39
 10
-73.2030
 20
44.1503
 30
0.0000
 42
1.0000
  0
VERTEX
  8
39
 10
-73.2030
 20
44.1757
 30
0.0000
  0
SEQEND
  8
0
  0
POLYLINE
  8
39
 66
1
 10
0.0000
 20
0.0000
 30
0.0000
 40
0.0254
 41
0.0254
 70
0
  0
VERTEX
  8
39
 10
-76.1490
 20
44.1757
 30
0.0000
 42
1.0000
  0
VERTEX
  8
39
 10
-76.1490
 20
44.1503
 30
0.0000
  0
SEQEND
  8
0
  0
POLYLINE
  8
39
 66
1
 10
0.0000
 20
0.0000
 30
0.0000
 40
0.0508
 41
0.0508
 70
0
  0
VERTEX
  8
39
 10
-73.2030
 20
44.1630
 30
0.0000
  0
VERTEX
  8
39
 10
-73.2030
 20
42.1970
 30
0.0000
  0
SEQEND
  8
0
  0
POLYLINE
  8
39
 66
1
 10
0.0000
 20
0.0000
 30
0.0000
 40
0.0254
 41
0.0254
 70
0
  0
VERTEX
  8
39
 10
-73.2157
 20
42.1970
 30
0.0000
 42
1.0000
  0
VERTEX
  8
39
 10
-73.1903
 20
42.1970
 30
0.0000
  0
SEQEND
  8
0
  0
POLYLINE
  8
39
 66
1
 10
0.0000
 20
0.0000
 30
0.0000
 40
0.0254
 41
0.0254
 70
0
  0
VERTEX
  8
39
 10
-73.1903
 20
44.1630
 30
0.0000
 42
1.0000
  0
VERTEX
  8
39
 10
-73.2157
 20
44.1630
 30
0.0000
  0
SEQEND
  8
0
  0
POLYLINE
  8
39
 66
1
 10
0.0000
 20
0.0000
 30
0.0000
 40
0.0508
 41
0.0508
 70
0
  0
VERTEX
  8
39
 10
-28.1700
 20
-32.2200
 30
0.0000
  0
VERTEX
  8
39
 10
-25.1700
 20
-32.2200
 30
0.0000
  0
SEQEND
  8
0
  0
POLYLINE
  8
39
 66
1
 10
0.0000
 20
0.0000
 30
0.0000
 40
0.0254
 41
0.0254
 70
0
  0
VERTEX
  8
39
 10
-25.1700
 20
-32.2327
 30
0.0000
 42
1.0000
  0
VERTEX
  8
39
 10
-25.1700
 20
-32.2073
 30
0.0000
  0
SEQEND
  8
0
  0
POLYLINE
  8
39
 66
1
 10
0.0000
 20
0.0000
 30
0.0000
 40
0.0254
 41
0.0254
 70
0
  0
VERTEX
  8
39
 10
-28.1700
 20
-32.2073
 30
0.0000
 42
1.0000
  0
VERTEX
  8
39
 10
-28.1700
 20
-32.2327
 30
0.0000
  0
SEQEND
  8
0
  0
POLYLINE
  8
39
 66
1
 10
0.0000
 20
0.0000
 30
0.0000
 40
0.0508
 41
0.0508
 70
0
  0
VERTEX
  8
39
 10
-25.1700
 20
-32.2200
 30
0.0000
  0
VERTEX
  8
39
 10
-25.1700
 20
-33.8200
 30
0.0000
  0
SEQEND
  8
0
  0
POLYLINE
  8
39
 66
1
 10
0.0000
 20
0.0000
 30
0.0000
 40
0.0254
 41
0.0254
 70
0
  0
VERTEX
  8
39
 10
-25.1827
 20
-33.8200
 30
0.0000
 42
1.0000
  0
VERTEX
  8
39
 10
-25.1573
 20
-33.8200
 30
0.0000
  0
SEQEND
  8
0
  0
POLYLINE
  8
39
 66
1
 10
0.0000
 20
0.0000
 30
0.0000
 40
0.0254
 41
0.0254
 70
0
  0
VERTEX
  8
39
 10
-25.1573
 20
-32.2200
 30
0.0000
 42
1.0000
  0
VERTEX
  8
39
 10
-25.1827
 20
-32.2200
 30
0.0000
  0
SEQEND
  8
0
  0
POLYLINE
  8
39
 66
1
 10
0.0000
 20
0.0000
 30
0.0000
 40
0.0508
 41
0.0508
 70
0
  0
VERTEX
  8
39
 10
-25.1700
 20
-33.8200
 30
0.0000
  0
VERTEX
  8
39
 10
-28.1700
 20
-33.8200
 30
0.0000
  0
SEQEND
  8
0
  0
POLYLINE
  8
39
 66
1
 10
0.0000
 20
0.0000
 30
0.0000
 40
0.0254
 41
0.0254
 70
0
  0
VERTEX
  8
39
 10
-28.1700
 20
-33.8073
 30
0.0000
 42
1.0000
  0
VERTEX
  8
39
 10
-28.1700
 20
-33.8327
 30
0.0000
  0
SEQEND
  8
0
  0
POLYLINE
  8
39
 66
1
 10
0.0000
 20
0.0000
 30
0.0000
 40
0.0254
 41
0.0254
 70
0
  0
VERTEX
  8
39
 10
-25.1700
 20
-33.8327
 30
0.0000
 42
1.0000
  0
VERTEX
  8
39
 10
-25.1700
 20
-33.8073
 30
0.0000
  0
SEQEND
  8
0
  0
POLYLINE
  8
39
 66
1
 10
0.0000
 20
0.0000
 30
0.0000
 40
0.0508
 41
0.0508
 70
0
  0
VERTEX
  8
39
 10
-28.1700
 20
-33.8200
 30
0.0000
  0
VERTEX
  8
39
 10
-28.1700
 20
-32.2200
 30
0.0000
  0
SEQEND
  8
0
  0
POLYLINE
  8
39
 66
1
 10
0.0000
 20
0.0000
 30
0.0000
 40
0.0254
 41
0.0254
 70
0
  0
VERTEX
  8
39
 10
-28.1573
 20
-32.2200
 30
0.0000
 42
1.0000
  0
VERTEX
  8
39
 10
-28.1827
 20
-32.2200
 30
0.0000
  0
SEQEND
  8
0
  0
POLYLINE
  8
39
 66
1
 10
0.0000
 20
0.0000
 30
0.0000
 40
0.0254
 41
0.0254
 70
0
  0
VERTEX
  8
39
 10
-28.1827
 20
-33.8200
 30
0.0000
 42
1.0000
  0
VERTEX
  8
39
 10
-28.1573
 20
-33.8200
 30
0.0000
  0
SEQEND
  8
0
  0
POLYLINE
  8
39
 66
1
 10
0.0000
 20
0.0000
 30
0.0000
 40
0.0508
 41
0.0508
 70
0
  0
VERTEX
  8
39
 10
-51.1300
 20
-38.6700
 30
0.0000
  0
VERTEX
  8
39
 10
-47.9300
 20
-38.6700
 30
0.0000
  0
SEQEND
  8
0
  0
POLYLINE
  8
39
 66
1
 10
0.0000
 20
0.0000
 30
0.0000
 40
0.0254
 41
0.0254
 70
0
  0
VERTEX
  8
39
 10
-47.9300
 20
-38.6827
 30
0.0000
 42
1.0000
  0
VERTEX
  8
39
 10
-47.9300
 20
-38.6573
 30
0.0000
  0
SEQEND
  8
0
  0
POLYLINE
  8
39
 66
1
 10
0.0000
 20
0.0000
 30
0.0000
 40
0.0254
 41
0.0254
 70
0
  0
VERTEX
  8
39
 10
-51.1300
 20
-38.6573
 30
0.0000
 42
1.0000
  0
VERTEX
  8
39
 10
-51.1300
 20
-38.6827
 30
0.0000
  0
SEQEND
  8
0
  0
POLYLINE
  8
39
 66
1
 10
0.0000
 20
0.0000
 30
0.0000
 40
0.0508
 41
0.0508
 70
0
  0
VERTEX
  8
39
 10
-47.9300
 20
-38.6700
 30
0.0000
  0
VERTEX
  8
39
 10
-47.9300
 20
-40.0700
 30
0.0000
  0
SEQEND
  8
0
  0
POLYLINE
  8
39
 66
1
 10
0.0000
 20
0.0000
 30
0.0000
 40
0.0254
 41
0.0254
 70
0
  0
VERTEX
  8
39
 10
-47.9427
 20
-40.0700
 30
0.0000
 42
1.0000
  0
VERTEX
  8
39
 10
-47.9173
 20
-40.0700
 30
0.0000
  0
SEQEND
  8
0
  0
POLYLINE
  8
39
 66
1
 10
0.0000
 20
0.0000
 30
0.0000
 40
0.0254
 41
0.0254
 70
0
  0
VERTEX
  8
39
 10
-47.9173
 20
-38.6700
 30
0.0000
 42
1.0000
  0
VERTEX
  8
39
 10
-47.9427
 20
-38.6700
 30
0.0000
  0
SEQEND
  8
0
  0
POLYLINE
  8
39
 66
1
 10
0.0000
 20
0.0000
 30
0.0000
 40
0.0508
 41
0.0508
 70
0
  0
VERTEX
  8
39
 10
-47.9300
 20
-40.0700
 30
0.0000
  0
VERTEX
  8
39
 10
-51.1300
 20
-40.0700
 30
0.0000
  0
SEQEND
  8
0
  0
POLYLINE
  8
39
 66
1
 10
0.0000
 20
0.0000
 30
0.0000
 40
0.0254
 41
0.0254
 70
0
  0
VERTEX
  8
39
 10
-51.1300
 20
-40.0573
 30
0.0000
 42
1.0000
  0
VERTEX
  8
39
 10
-51.1300
 20
-40.0827
 30
0.0000
  0
SEQEND
  8
0
  0
POLYLINE
  8
39
 66
1
 10
0.0000
 20
0.0000
 30
0.0000
 40
0.0254
 41
0.0254
 70
0
  0
VERTEX
  8
39
 10
-47.9300
 20
-40.0827
 30
0.0000
 42
1.0000
  0
VERTEX
  8
39
 10
-47.9300
 20
-40.0573
 30
0.0000
  0
SEQEND
  8
0
  0
POLYLINE
  8
39
 66
1
 10
0.0000
 20
0.0000
 30
0.0000
 40
0.0508
 41
0.0508
 70
0
  0
VERTEX
  8
39
 10
-51.1300
 20
-40.0700
 30
0.0000
  0
VERTEX
  8
39
 10
-51.1300
 20
-38.6700
 30
0.0000
  0
SEQEND
  8
0
  0
POLYLINE
  8
39
 66
1
 10
0.0000
 20
0.0000
 30
0.0000
 40
0.0254
 41
0.0254
 70
0
  0
VERTEX
  8
39
 10
-51.1173
 20
-38.6700
 30
0.0000
 42
1.0000
  0
VERTEX
  8
39
 10
-51.1427
 20
-38.6700
 30
0.0000
  0
SEQEND
  8
0
  0
POLYLINE
  8
39
 66
1
 10
0.0000
 20
0.0000
 30
0.0000
 40
0.0254
 41
0.0254
 70
0
  0
VERTEX
  8
39
 10
-51.1427
 20
-40.0700
 30
0.0000
 42
1.0000
  0
VERTEX
  8
39
 10
-51.1173
 20
-40.0700
 30
0.0000
  0
SEQEND
  8
0
  0
POLYLINE
  8
39
 66
1
 10
0.0000
 20
0.0000
 30
0.0000
 40
0.0508
 41
0.0508
 70
0
  0
VERTEX
  8
39
 10
-64.2290
 20
38.1510
 30
0.0000
  0
VERTEX
  8
39
 10
-64.2290
 20
41.0970
 30
0.0000
  0
SEQEND
  8
0
  0
POLYLINE
  8
39
 66
1
 10
0.0000
 20
0.0000
 30
0.0000
 40
0.0254
 41
0.0254
 70
0
  0
VERTEX
  8
39
 10
-64.2163
 20
41.0970
 30
0.0000
 42
1.0000
  0
VERTEX
  8
39
 10
-64.2417
 20
41.0970
 30
0.0000
  0
SEQEND
  8
0
  0
POLYLINE
  8
39
 66
1
 10
0.0000
 20
0.0000
 30
0.0000
 40
0.0254
 41
0.0254
 70
0
  0
VERTEX
  8
39
 10
-64.2417
 20
38.1510
 30
0.0000
 42
1.0000
  0
VERTEX
  8
39
 10
-64.2163
 20
38.1510
 30
0.0000
  0
SEQEND
  8
0
  0
POLYLINE
  8
39
 66
1
 10
0.0000
 20
0.0000
 30
0.0000
 40
0.0508
 41
0.0508
 70
0
  0
VERTEX
  8
39
 10
-64.2290
 20
41.0970
 30
0.0000
  0
VERTEX
  8
39
 10
-62.2630
 20
41.0970
 30
0.0000
  0
SEQEND
  8
0
  0
POLYLINE
  8
39
 66
1
 10
0.0000
 20
0.0000
 30
0.0000
 40
0.0254
 41
0.0254
 70
0
  0
VERTEX
  8
39
 10
-62.2630
 20
41.0843
 30
0.0000
 42
1.0000
  0
VERTEX
  8
39
 10
-62.2630
 20
41.1097
 30
0.0000
  0
SEQEND
  8
0
  0
POLYLINE
  8
39
 66
1
 10
0.0000
 20
0.0000
 30
0.0000
 40
0.0254
 41
0.0254
 70
0
  0
VERTEX
  8
39
 10
-64.2290
 20
41.1097
 30
0.0000
 42
1.0000
  0
VERTEX
  8
39
 10
-64.2290
 20
41.0843
 30
0.0000
  0
SEQEND
  8
0
  0
POLYLINE
  8
39
 66
1
 10
0.0000
 20
0.0000
 30
0.0000
 40
0.0508
 41
0.0508
 70
0
  0
VERTEX
  8
39
 10
-62.2630
 20
41.0970
 30
0.0000
  0
VERTEX
  8
39
 10
-62.2630
 20
38.1510
 30
0.0000
  0
SEQEND
  8
0
  0
POLYLINE
  8
39
 66
1
 10
0.0000
 20
0.0000
 30
0.0000
 40
0.0254
 41
0.0254
 70
0
  0
VERTEX
  8
39
 10
-62.2757
 20
38.1510
 30
0.0000
 42
1.0000
  0
VERTEX
  8
39
 10
-62.2503
 20
38.1510
 30
0.0000
  0
SEQEND
  8
0
  0
POLYLINE
  8
39
 66
1
 10
0.0000
 20
0.0000
 30
0.0000
 40
0.0254
 41
0.0254
 70
0
  0
VERTEX
  8
39
 10
-62.2503
 20
41.0970
 30
0.0000
 42
1.0000
  0
VERTEX
  8
39
 10
-62.2757
 20
41.0970
 30
0.0000
  0
SEQEND
  8
0
  0
POLYLINE
  8
39
 66
1
 10
0.0000
 20
0.0000
 30
0.0000
 40
0.0508
 41
0.0508
 70
0
  0
VERTEX
  8
39
 10
-62.2630
 20
38.1510
 30
0.0000
  0
VERTEX
  8
39
 10
-64.2290
 20
38.1510
 30
0.0000
  0
SEQEND
  8
0
  0
POLYLINE
  8
39
 66
1
 10
0.0000
 20
0.0000
 30
0.0000
 40
0.0254
 41
0.0254
 70
0
  0
VERTEX
  8
39
 10
-64.2290
 20
38.1637
 30
0.0000
 42
1.0000
  0
VERTEX
  8
39
 10
-64.2290
 20
38.1383
 30
0.0000
  0
SEQEND
  8
0
  0
POLYLINE
  8
39
 66
1
 10
0.0000
 20
0.0000
 30
0.0000
 40
0.0254
 41
0.0254
 70
0
  0
VERTEX
  8
39
 10
-62.2630
 20
38.1383
 30
0.0000
 42
1.0000
  0
VERTEX
  8
39
 10
-62.2630
 20
38.1637
 30
0.0000
  0
SEQEND
  8
0
  0
POLYLINE
  8
39
 66
1
 10
0.0000
 20
0.0000
 30
0.0000
 40
0.0508
 41
0.0508
 70
0
  0
VERTEX
  8
39
 10
-44.7800
 20
-38.6700
 30
0.0000
  0
VERTEX
  8
39
 10
-41.5800
 20
-38.6700
 30
0.0000
  0
SEQEND
  8
0
  0
POLYLINE
  8
39
 66
1
 10
0.0000
 20
0.0000
 30
0.0000
 40
0.0254
 41
0.0254
 70
0
  0
VERTEX
  8
39
 10
-41.5800
 20
-38.6827
 30
0.0000
 42
1.0000
  0
VERTEX
  8
39
 10
-41.5800
 20
-38.6573
 30
0.0000
  0
SEQEND
  8
0
  0
POLYLINE
  8
39
 66
1
 10
0.0000
 20
0.0000
 30
0.0000
 40
0.0254
 41
0.0254
 70
0
  0
VERTEX
  8
39
 10
-44.7800
 20
-38.6573
 30
0.0000
 42
1.0000
  0
VERTEX
  8
39
 10
-44.7800
 20
-38.6827
 30
0.0000
  0
SEQEND
  8
0
  0
POLYLINE
  8
39
 66
1
 10
0.0000
 20
0.0000
 30
0.0000
 40
0.0508
 41
0.0508
 70
0
  0
VERTEX
  8
39
 10
-41.5800
 20
-38.6700
 30
0.0000
  0
VERTEX
  8
39
 10
-41.5800
 20
-40.0700
 30
0.0000
  0
SEQEND
  8
0
  0
POLYLINE
  8
39
 66
1
 10
0.0000
 20
0.0000
 30
0.0000
 40
0.0254
 41
0.0254
 70
0
  0
VERTEX
  8
39
 10
-41.5927
 20
-40.0700
 30
0.0000
 42
1.0000
  0
VERTEX
  8
39
 10
-41.5673
 20
-40.0700
 30
0.0000
  0
SEQEND
  8
0
  0
POLYLINE
  8
39
 66
1
 10
0.0000
 20
0.0000
 30
0.0000
 40
0.0254
 41
0.0254
 70
0
  0
VERTEX
  8
39
 10
-41.5673
 20
-38.6700
 30
0.0000
 42
1.0000
  0
VERTEX
  8
39
 10
-41.5927
 20
-38.6700
 30
0.0000
  0
SEQEND
  8
0
  0
POLYLINE
  8
39
 66
1
 10
0.0000
 20
0.0000
 30
0.0000
 40
0.0508
 41
0.0508
 70
0
  0
VERTEX
  8
39
 10
-41.5800
 20
-40.0700
 30
0.0000
  0
VERTEX
  8
39
 10
-44.7800
 20
-40.0700
 30
0.0000
  0
SEQEND
  8
0
  0
POLYLINE
  8
39
 66
1
 10
0.0000
 20
0.0000
 30
0.0000
 40
0.0254
 41
0.0254
 70
0
  0
VERTEX
  8
39
 10
-44.7800
 20
-40.0573
 30
0.0000
 42
1.0000
  0
VERTEX
  8
39
 10
-44.7800
 20
-40.0827
 30
0.0000
  0
SEQEND
  8
0
  0
POLYLINE
  8
39
 66
1
 10
0.0000
 20
0.0000
 30
0.0000
 40
0.0254
 41
0.0254
 70
0
  0
VERTEX
  8
39
 10
-41.5800
 20
-40.0827
 30
0.0000
 42
1.0000
  0
VERTEX
  8
39
 10
-41.5800
 20
-40.0573
 30
0.0000
  0
SEQEND
  8
0
  0
POLYLINE
  8
39
 66
1
 10
0.0000
 20
0.0000
 30
0.0000
 40
0.0508
 41
0.0508
 70
0
  0
VERTEX
  8
39
 10
-44.7800
 20
-40.0700
 30
0.0000
  0
VERTEX
  8
39
 10
-44.7800
 20
-38.6700
 30
0.0000
  0
SEQEND
  8
0
  0
POLYLINE
  8
39
 66
1
 10
0.0000
 20
0.0000
 30
0.0000
 40
0.0254
 41
0.0254
 70
0
  0
VERTEX
  8
39
 10
-44.7673
 20
-38.6700
 30
0.0000
 42
1.0000
  0
VERTEX
  8
39
 10
-44.7927
 20
-38.6700
 30
0.0000
  0
SEQEND
  8
0
  0
POLYLINE
  8
39
 66
1
 10
0.0000
 20
0.0000
 30
0.0000
 40
0.0254
 41
0.0254
 70
0
  0
VERTEX
  8
39
 10
-44.7927
 20
-40.0700
 30
0.0000
 42
1.0000
  0
VERTEX
  8
39
 10
-44.7673
 20
-40.0700
 30
0.0000
  0
SEQEND
  8
0
  0
POLYLINE
  8
39
 66
1
 10
0.0000
 20
0.0000
 30
0.0000
 40
0.0508
 41
0.0508
 70
0
  0
VERTEX
  8
39
 10
-38.4300
 20
-38.6700
 30
0.0000
  0
VERTEX
  8
39
 10
-35.2300
 20
-38.6700
 30
0.0000
  0
SEQEND
  8
0
  0
POLYLINE
  8
39
 66
1
 10
0.0000
 20
0.0000
 30
0.0000
 40
0.0254
 41
0.0254
 70
0
  0
VERTEX
  8
39
 10
-35.2300
 20
-38.6827
 30
0.0000
 42
1.0000
  0
VERTEX
  8
39
 10
-35.2300
 20
-38.6573
 30
0.0000
  0
SEQEND
  8
0
  0
POLYLINE
  8
39
 66
1
 10
0.0000
 20
0.0000
 30
0.0000
 40
0.0254
 41
0.0254
 70
0
  0
VERTEX
  8
39
 10
-38.4300
 20
-38.6573
 30
0.0000
 42
1.0000
  0
VERTEX
  8
39
 10
-38.4300
 20
-38.6827
 30
0.0000
  0
SEQEND
  8
0
  0
POLYLINE
  8
39
 66
1
 10
0.0000
 20
0.0000
 30
0.0000
 40
0.0508
 41
0.0508
 70
0
  0
VERTEX
  8
39
 10
-35.2300
 20
-38.6700
 30
0.0000
  0
VERTEX
  8
39
 10
-35.2300
 20
-40.0700
 30
0.0000
  0
SEQEND
  8
0
  0
POLYLINE
  8
39
 66
1
 10
0.0000
 20
0.0000
 30
0.0000
 40
0.0254
 41
0.0254
 70
0
  0
VERTEX
  8
39
 10
-35.2427
 20
-40.0700
 30
0.0000
 42
1.0000
  0
VERTEX
  8
39
 10
-35.2173
 20
-40.0700
 30
0.0000
  0
SEQEND
  8
0
  0
POLYLINE
  8
39
 66
1
 10
0.0000
 20
0.0000
 30
0.0000
 40
0.0254
 41
0.0254
 70
0
  0
VERTEX
  8
39
 10
-35.2173
 20
-38.6700
 30
0.0000
 42
1.0000
  0
VERTEX
  8
39
 10
-35.2427
 20
-38.6700
 30
0.0000
  0
SEQEND
  8
0
  0
POLYLINE
  8
39
 66
1
 10
0.0000
 20
0.0000
 30
0.0000
 40
0.0508
 41
0.0508
 70
0
  0
VERTEX
  8
39
 10
-35.2300
 20
-40.0700
 30
0.0000
  0
VERTEX
  8
39
 10
-38.4300
 20
-40.0700
 30
0.0000
  0
SEQEND
  8
0
  0
POLYLINE
  8
39
 66
1
 10
0.0000
 20
0.0000
 30
0.0000
 40
0.0254
 41
0.0254
 70
0
  0
VERTEX
  8
39
 10
-38.4300
 20
-40.0573
 30
0.0000
 42
1.0000
  0
VERTEX
  8
39
 10
-38.4300
 20
-40.0827
 30
0.0000
  0
SEQEND
  8
0
  0
POLYLINE
  8
39
 66
1
 10
0.0000
 20
0.0000
 30
0.0000
 40
0.0254
 41
0.0254
 70
0
  0
VERTEX
  8
39
 10
-35.2300
 20
-40.0827
 30
0.0000
 42
1.0000
  0
VERTEX
  8
39
 10
-35.2300
 20
-40.0573
 30
0.0000
  0
SEQEND
  8
0
  0
POLYLINE
  8
39
 66
1
 10
0.0000
 20
0.0000
 30
0.0000
 40
0.0508
 41
0.0508
 70
0
  0
VERTEX
  8
39
 10
-38.4300
 20
-40.0700
 30
0.0000
  0
VERTEX
  8
39
 10
-38.4300
 20
-38.6700
 30
0.0000
  0
SEQEND
  8
0
  0
POLYLINE
  8
39
 66
1
 10
0.0000
 20
0.0000
 30
0.0000
 40
0.0254
 41
0.0254
 70
0
  0
VERTEX
  8
39
 10
-38.4173
 20
-38.6700
 30
0.0000
 42
1.0000
  0
VERTEX
  8
39
 10
-38.4427
 20
-38.6700
 30
0.0000
  0
SEQEND
  8
0
  0
POLYLINE
  8
39
 66
1
 10
0.0000
 20
0.0000
 30
0.0000
 40
0.0254
 41
0.0254
 70
0
  0
VERTEX
  8
39
 10
-38.4427
 20
-40.0700
 30
0.0000
 42
1.0000
  0
VERTEX
  8
39
 10
-38.4173
 20
-40.0700
 30
0.0000
  0
SEQEND
  8
0
  0
POLYLINE
  8
39
 66
1
 10
0.0000
 20
0.0000
 30
0.0000
 40
0.0508
 41
0.0508
 70
0
  0
VERTEX
  8
39
 10
-32.0800
 20
-38.6700
 30
0.0000
  0
VERTEX
  8
39
 10
-28.8800
 20
-38.6700
 30
0.0000
  0
SEQEND
  8
0
  0
POLYLINE
  8
39
 66
1
 10
0.0000
 20
0.0000
 30
0.0000
 40
0.0254
 41
0.0254
 70
0
  0
VERTEX
  8
39
 10
-28.8800
 20
-38.6827
 30
0.0000
 42
1.0000
  0
VERTEX
  8
39
 10
-28.8800
 20
-38.6573
 30
0.0000
  0
SEQEND
  8
0
  0
POLYLINE
  8
39
 66
1
 10
0.0000
 20
0.0000
 30
0.0000
 40
0.0254
 41
0.0254
 70
0
  0
VERTEX
  8
39
 10
-32.0800
 20
-38.6573
 30
0.0000
 42
1.0000
  0
VERTEX
  8
39
 10
-32.0800
 20
-38.6827
 30
0.0000
  0
SEQEND
  8
0
  0
POLYLINE
  8
39
 66
1
 10
0.0000
 20
0.0000
 30
0.0000
 40
0.0508
 41
0.0508
 70
0
  0
VERTEX
  8
39
 10
-28.8800
 20
-38.6700
 30
0.0000
  0
VERTEX
  8
39
 10
-28.8800
 20
-40.0700
 30
0.0000
  0
SEQEND
  8
0
  0
POLYLINE
  8
39
 66
1
 10
0.0000
 20
0.0000
 30
0.0000
 40
0.0254
 41
0.0254
 70
0
  0
VERTEX
  8
39
 10
-28.8927
 20
-40.0700
 30
0.0000
 42
1.0000
  0
VERTEX
  8
39
 10
-28.8673
 20
-40.0700
 30
0.0000
  0
SEQEND
  8
0
  0
POLYLINE
  8
39
 66
1
 10
0.0000
 20
0.0000
 30
0.0000
 40
0.0254
 41
0.0254
 70
0
  0
VERTEX
  8
39
 10
-28.8673
 20
-38.6700
 30
0.0000
 42
1.0000
  0
VERTEX
  8
39
 10
-28.8927
 20
-38.6700
 30
0.0000
  0
SEQEND
  8
0
  0
POLYLINE
  8
39
 66
1
 10
0.0000
 20
0.0000
 30
0.0000
 40
0.0508
 41
0.0508
 70
0
  0
VERTEX
  8
39
 10
-28.8800
 20
-40.0700
 30
0.0000
  0
VERTEX
  8
39
 10
-32.0800
 20
-40.0700
 30
0.0000
  0
SEQEND
  8
0
  0
POLYLINE
  8
39
 66
1
 10
0.0000
 20
0.0000
 30
0.0000
 40
0.0254
 41
0.0254
 70
0
  0
VERTEX
  8
39
 10
-32.0800
 20
-40.0573
 30
0.0000
 42
1.0000
  0
VERTEX
  8
39
 10
-32.0800
 20
-40.0827
 30
0.0000
  0
SEQEND
  8
0
  0
POLYLINE
  8
39
 66
1
 10
0.0000
 20
0.0000
 30
0.0000
 40
0.0254
 41
0.0254
 70
0
  0
VERTEX
  8
39
 10
-28.8800
 20
-40.0827
 30
0.0000
 42
1.0000
  0
VERTEX
  8
39
 10
-28.8800
 20
-40.0573
 30
0.0000
  0
SEQEND
  8
0
  0
POLYLINE
  8
39
 66
1
 10
0.0000
 20
0.0000
 30
0.0000
 40
0.0508
 41
0.0508
 70
0
  0
VERTEX
  8
39
 10
-32.0800
 20
-40.0700
 30
0.0000
  0
VERTEX
  8
39
 10
-32.0800
 20
-38.6700
 30
0.0000
  0
SEQEND
  8
0
  0
POLYLINE
  8
39
 66
1
 10
0.0000
 20
0.0000
 30
0.0000
 40
0.0254
 41
0.0254
 70
0
  0
VERTEX
  8
39
 10
-32.0673
 20
-38.6700
 30
0.0000
 42
1.0000
  0
VERTEX
  8
39
 10
-32.0927
 20
-38.6700
 30
0.0000
  0
SEQEND
  8
0
  0
POLYLINE
  8
39
 66
1
 10
0.0000
 20
0.0000
 30
0.0000
 40
0.0254
 41
0.0254
 70
0
  0
VERTEX
  8
39
 10
-32.0927
 20
-40.0700
 30
0.0000
 42
1.0000
  0
VERTEX
  8
39
 10
-32.0673
 20
-40.0700
 30
0.0000
  0
SEQEND
  8
0
  0
POLYLINE
  8
39
 66
1
 10
0.0000
 20
0.0000
 30
0.0000
 40
0.0508
 41
0.0508
 70
0
  0
VERTEX
  8
39
 10
-25.7300
 20
-38.6700
 30
0.0000
  0
VERTEX
  8
39
 10
-22.5300
 20
-38.6700
 30
0.0000
  0
SEQEND
  8
0
  0
POLYLINE
  8
39
 66
1
 10
0.0000
 20
0.0000
 30
0.0000
 40
0.0254
 41
0.0254
 70
0
  0
VERTEX
  8
39
 10
-22.5300
 20
-38.6827
 30
0.0000
 42
1.0000
  0
VERTEX
  8
39
 10
-22.5300
 20
-38.6573
 30
0.0000
  0
SEQEND
  8
0
  0
POLYLINE
  8
39
 66
1
 10
0.0000
 20
0.0000
 30
0.0000
 40
0.0254
 41
0.0254
 70
0
  0
VERTEX
  8
39
 10
-25.7300
 20
-38.6573
 30
0.0000
 42
1.0000
  0
VERTEX
  8
39
 10
-25.7300
 20
-38.6827
 30
0.0000
  0
SEQEND
  8
0
  0
POLYLINE
  8
39
 66
1
 10
0.0000
 20
0.0000
 30
0.0000
 40
0.0508
 41
0.0508
 70
0
  0
VERTEX
  8
39
 10
-22.5300
 20
-38.6700
 30
0.0000
  0
VERTEX
  8
39
 10
-22.5300
 20
-40.0700
 30
0.0000
  0
SEQEND
  8
0
  0
POLYLINE
  8
39
 66
1
 10
0.0000
 20
0.0000
 30
0.0000
 40
0.0254
 41
0.0254
 70
0
  0
VERTEX
  8
39
 10
-22.5427
 20
-40.0700
 30
0.0000
 42
1.0000
  0
VERTEX
  8
39
 10
-22.5173
 20
-40.0700
 30
0.0000
  0
SEQEND
  8
0
  0
POLYLINE
  8
39
 66
1
 10
0.0000
 20
0.0000
 30
0.0000
 40
0.0254
 41
0.0254
 70
0
  0
VERTEX
  8
39
 10
-22.5173
 20
-38.6700
 30
0.0000
 42
1.0000
  0
VERTEX
  8
39
 10
-22.5427
 20
-38.6700
 30
0.0000
  0
SEQEND
  8
0
  0
POLYLINE
  8
39
 66
1
 10
0.0000
 20
0.0000
 30
0.0000
 40
0.0508
 41
0.0508
 70
0
  0
VERTEX
  8
39
 10
-22.5300
 20
-40.0700
 30
0.0000
  0
VERTEX
  8
39
 10
-25.7300
 20
-40.0700
 30
0.0000
  0
SEQEND
  8
0
  0
POLYLINE
  8
39
 66
1
 10
0.0000
 20
0.0000
 30
0.0000
 40
0.0254
 41
0.0254
 70
0
  0
VERTEX
  8
39
 10
-25.7300
 20
-40.0573
 30
0.0000
 42
1.0000
  0
VERTEX
  8
39
 10
-25.7300
 20
-40.0827
 30
0.0000
  0
SEQEND
  8
0
  0
POLYLINE
  8
39
 66
1
 10
0.0000
 20
0.0000
 30
0.0000
 40
0.0254
 41
0.0254
 70
0
  0
VERTEX
  8
39
 10
-22.5300
 20
-40.0827
 30
0.0000
 42
1.0000
  0
VERTEX
  8
39
 10
-22.5300
 20
-40.0573
 30
0.0000
  0
SEQEND
  8
0
  0
POLYLINE
  8
39
 66
1
 10
0.0000
 20
0.0000
 30
0.0000
 40
0.0508
 41
0.0508
 70
0
  0
VERTEX
  8
39
 10
-25.7300
 20
-40.0700
 30
0.0000
  0
VERTEX
  8
39
 10
-25.7300
 20
-38.6700
 30
0.0000
  0
SEQEND
  8
0
  0
POLYLINE
  8
39
 66
1
 10
0.0000
 20
0.0000
 30
0.0000
 40
0.0254
 41
0.0254
 70
0
  0
VERTEX
  8
39
 10
-25.7173
 20
-38.6700
 30
0.0000
 42
1.0000
  0
VERTEX
  8
39
 10
-25.7427
 20
-38.6700
 30
0.0000
  0
SEQEND
  8
0
  0
POLYLINE
  8
39
 66
1
 10
0.0000
 20
0.0000
 30
0.0000
 40
0.0254
 41
0.0254
 70
0
  0
VERTEX
  8
39
 10
-25.7427
 20
-40.0700
 30
0.0000
 42
1.0000
  0
VERTEX
  8
39
 10
-25.7173
 20
-40.0700
 30
0.0000
  0
SEQEND
  8
0
  0
POLYLINE
  8
39
 66
1
 10
0.0000
 20
0.0000
 30
0.0000
 40
0.0508
 41
0.0508
 70
0
  0
VERTEX
  8
39
 10
-56.2100
 20
-42.4800
 30
0.0000
  0
VERTEX
  8
39
 10
-53.0100
 20
-42.4800
 30
0.0000
  0
SEQEND
  8
0
  0
POLYLINE
  8
39
 66
1
 10
0.0000
 20
0.0000
 30
0.0000
 40
0.0254
 41
0.0254
 70
0
  0
VERTEX
  8
39
 10
-53.0100
 20
-42.4927
 30
0.0000
 42
1.0000
  0
VERTEX
  8
39
 10
-53.0100
 20
-42.4673
 30
0.0000
  0
SEQEND
  8
0
  0
POLYLINE
  8
39
 66
1
 10
0.0000
 20
0.0000
 30
0.0000
 40
0.0254
 41
0.0254
 70
0
  0
VERTEX
  8
39
 10
-56.2100
 20
-42.4673
 30
0.0000
 42
1.0000
  0
VERTEX
  8
39
 10
-56.2100
 20
-42.4927
 30
0.0000
  0
SEQEND
  8
0
  0
POLYLINE
  8
39
 66
1
 10
0.0000
 20
0.0000
 30
0.0000
 40
0.0508
 41
0.0508
 70
0
  0
VERTEX
  8
39
 10
-53.0100
 20
-42.4800
 30
0.0000
  0
VERTEX
  8
39
 10
-53.0100
 20
-43.8800
 30
0.0000
  0
SEQEND
  8
0
  0
POLYLINE
  8
39
 66
1
 10
0.0000
 20
0.0000
 30
0.0000
 40
0.0254
 41
0.0254
 70
0
  0
VERTEX
  8
39
 10
-53.0227
 20
-43.8800
 30
0.0000
 42
1.0000
  0
VERTEX
  8
39
 10
-52.9973
 20
-43.8800
 30
0.0000
  0
SEQEND
  8
0
  0
POLYLINE
  8
39
 66
1
 10
0.0000
 20
0.0000
 30
0.0000
 40
0.0254
 41
0.0254
 70
0
  0
VERTEX
  8
39
 10
-52.9973
 20
-42.4800
 30
0.0000
 42
1.0000
  0
VERTEX
  8
39
 10
-53.0227
 20
-42.4800
 30
0.0000
  0
SEQEND
  8
0
  0
POLYLINE
  8
39
 66
1
 10
0.0000
 20
0.0000
 30
0.0000
 40
0.0508
 41
0.0508
 70
0
  0
VERTEX
  8
39
 10
-53.0100
 20
-43.8800
 30
0.0000
  0
VERTEX
  8
39
 10
-56.2100
 20
-43.8800
 30
0.0000
  0
SEQEND
  8
0
  0
POLYLINE
  8
39
 66
1
 10
0.0000
 20
0.0000
 30
0.0000
 40
0.0254
 41
0.0254
 70
0
  0
VERTEX
  8
39
 10
-56.2100
 20
-43.8673
 30
0.0000
 42
1.0000
  0
VERTEX
  8
39
 10
-56.2100
 20
-43.8927
 30
0.0000
  0
SEQEND
  8
0
  0
POLYLINE
  8
39
 66
1
 10
0.0000
 20
0.0000
 30
0.0000
 40
0.0254
 41
0.0254
 70
0
  0
VERTEX
  8
39
 10
-53.0100
 20
-43.8927
 30
0.0000
 42
1.0000
  0
VERTEX
  8
39
 10
-53.0100
 20
-43.8673
 30
0.0000
  0
SEQEND
  8
0
  0
POLYLINE
  8
39
 66
1
 10
0.0000
 20
0.0000
 30
0.0000
 40
0.0508
 41
0.0508
 70
0
  0
VERTEX
  8
39
 10
-56.2100
 20
-43.8800
 30
0.0000
  0
VERTEX
  8
39
 10
-56.2100
 20
-42.4800
 30
0.0000
  0
SEQEND
  8
0
  0
POLYLINE
  8
39
 66
1
 10
0.0000
 20
0.0000
 30
0.0000
 40
0.0254
 41
0.0254
 70
0
  0
VERTEX
  8
39
 10
-56.1973
 20
-42.4800
 30
0.0000
 42
1.0000
  0
VERTEX
  8
39
 10
-56.2227
 20
-42.4800
 30
0.0000
  0
SEQEND
  8
0
  0
POLYLINE
  8
39
 66
1
 10
0.0000
 20
0.0000
 30
0.0000
 40
0.0254
 41
0.0254
 70
0
  0
VERTEX
  8
39
 10
-56.2227
 20
-43.8800
 30
0.0000
 42
1.0000
  0
VERTEX
  8
39
 10
-56.1973
 20
-43.8800
 30
0.0000
  0
SEQEND
  8
0
  0
POLYLINE
  8
39
 66
1
 10
0.0000
 20
0.0000
 30
0.0000
 40
0.0508
 41
0.0508
 70
0
  0
VERTEX
  8
39
 10
-33.2230
 20
-46.0070
 30
0.0000
  0
VERTEX
  8
39
 10
-30.2770
 20
-46.0070
 30
0.0000
  0
SEQEND
  8
0
  0
POLYLINE
  8
39
 66
1
 10
0.0000
 20
0.0000
 30
0.0000
 40
0.0254
 41
0.0254
 70
0
  0
VERTEX
  8
39
 10
-30.2770
 20
-46.0197
 30
0.0000
 42
1.0000
  0
VERTEX
  8
39
 10
-30.2770
 20
-45.9943
 30
0.0000
  0
SEQEND
  8
0
  0
POLYLINE
  8
39
 66
1
 10
0.0000
 20
0.0000
 30
0.0000
 40
0.0254
 41
0.0254
 70
0
  0
VERTEX
  8
39
 10
-33.2230
 20
-45.9943
 30
0.0000
 42
1.0000
  0
VERTEX
  8
39
 10
-33.2230
 20
-46.0197
 30
0.0000
  0
SEQEND
  8
0
  0
POLYLINE
  8
39
 66
1
 10
0.0000
 20
0.0000
 30
0.0000
 40
0.0508
 41
0.0508
 70
0
  0
VERTEX
  8
39
 10
-30.2770
 20
-46.0070
 30
0.0000
  0
VERTEX
  8
39
 10
-30.2770
 20
-47.9730
 30
0.0000
  0
SEQEND
  8
0
  0
POLYLINE
  8
39
 66
1
 10
0.0000
 20
0.0000
 30
0.0000
 40
0.0254
 41
0.0254
 70
0
  0
VERTEX
  8
39
 10
-30.2897
 20
-47.9730
 30
0.0000
 42
1.0000
  0
VERTEX
  8
39
 10
-30.2643
 20
-47.9730
 30
0.0000
  0
SEQEND
  8
0
  0
POLYLINE
  8
39
 66
1
 10
0.0000
 20
0.0000
 30
0.0000
 40
0.0254
 41
0.0254
 70
0
  0
VERTEX
  8
39
 10
-30.2643
 20
-46.0070
 30
0.0000
 42
1.0000
  0
VERTEX
  8
39
 10
-30.2897
 20
-46.0070
 30
0.0000
  0
SEQEND
  8
0
  0
POLYLINE
  8
39
 66
1
 10
0.0000
 20
0.0000
 30
0.0000
 40
0.0508
 41
0.0508
 70
0
  0
VERTEX
  8
39
 10
-30.2770
 20
-47.9730
 30
0.0000
  0
VERTEX
  8
39
 10
-33.2230
 20
-47.9730
 30
0.0000
  0
SEQEND
  8
0
  0
POLYLINE
  8
39
 66
1
 10
0.0000
 20
0.0000
 30
0.0000
 40
0.0254
 41
0.0254
 70
0
  0
VERTEX
  8
39
 10
-33.2230
 20
-47.9603
 30
0.0000
 42
1.0000
  0
VERTEX
  8
39
 10
-33.2230
 20
-47.9857
 30
0.0000
  0
SEQEND
  8
0
  0
POLYLINE
  8
39
 66
1
 10
0.0000
 20
0.0000
 30
0.0000
 40
0.0254
 41
0.0254
 70
0
  0
VERTEX
  8
39
 10
-30.2770
 20
-47.9857
 30
0.0000
 42
1.0000
  0
VERTEX
  8
39
 10
-30.2770
 20
-47.9603
 30
0.0000
  0
SEQEND
  8
0
  0
POLYLINE
  8
39
 66
1
 10
0.0000
 20
0.0000
 30
0.0000
 40
0.0508
 41
0.0508
 70
0
  0
VERTEX
  8
39
 10
-33.2230
 20
-47.9730
 30
0.0000
  0
VERTEX
  8
39
 10
-33.2230
 20
-46.0070
 30
0.0000
  0
SEQEND
  8
0
  0
POLYLINE
  8
39
 66
1
 10
0.0000
 20
0.0000
 30
0.0000
 40
0.0254
 41
0.0254
 70
0
  0
VERTEX
  8
39
 10
-33.2103
 20
-46.0070
 30
0.0000
 42
1.0000
  0
VERTEX
  8
39
 10
-33.2357
 20
-46.0070
 30
0.0000
  0
SEQEND
  8
0
  0
POLYLINE
  8
39
 66
1
 10
0.0000
 20
0.0000
 30
0.0000
 40
0.0254
 41
0.0254
 70
0
  0
VERTEX
  8
39
 10
-33.2357
 20
-47.9730
 30
0.0000
 42
1.0000
  0
VERTEX
  8
39
 10
-33.2103
 20
-47.9730
 30
0.0000
  0
SEQEND
  8
0
  0
POLYLINE
  8
39
 66
1
 10
0.0000
 20
0.0000
 30
0.0000
 40
0.0508
 41
0.0508
 70
0
  0
VERTEX
  8
39
 10
-49.8600
 20
-42.4800
 30
0.0000
  0
VERTEX
  8
39
 10
-46.6600
 20
-42.4800
 30
0.0000
  0
SEQEND
  8
0
  0
POLYLINE
  8
39
 66
1
 10
0.0000
 20
0.0000
 30
0.0000
 40
0.0254
 41
0.0254
 70
0
  0
VERTEX
  8
39
 10
-46.6600
 20
-42.4927
 30
0.0000
 42
1.0000
  0
VERTEX
  8
39
 10
-46.6600
 20
-42.4673
 30
0.0000
  0
SEQEND
  8
0
  0
POLYLINE
  8
39
 66
1
 10
0.0000
 20
0.0000
 30
0.0000
 40
0.0254
 41
0.0254
 70
0
  0
VERTEX
  8
39
 10
-49.8600
 20
-42.4673
 30
0.0000
 42
1.0000
  0
VERTEX
  8
39
 10
-49.8600
 20
-42.4927
 30
0.0000
  0
SEQEND
  8
0
  0
POLYLINE
  8
39
 66
1
 10
0.0000
 20
0.0000
 30
0.0000
 40
0.0508
 41
0.0508
 70
0
  0
VERTEX
  8
39
 10
-46.6600
 20
-42.4800
 30
0.0000
  0
VERTEX
  8
39
 10
-46.6600
 20
-43.8800
 30
0.0000
  0
SEQEND
  8
0
  0
POLYLINE
  8
39
 66
1
 10
0.0000
 20
0.0000
 30
0.0000
 40
0.0254
 41
0.0254
 70
0
  0
VERTEX
  8
39
 10
-46.6727
 20
-43.8800
 30
0.0000
 42
1.0000
  0
VERTEX
  8
39
 10
-46.6473
 20
-43.8800
 30
0.0000
  0
SEQEND
  8
0
  0
POLYLINE
  8
39
 66
1
 10
0.0000
 20
0.0000
 30
0.0000
 40
0.0254
 41
0.0254
 70
0
  0
VERTEX
  8
39
 10
-46.6473
 20
-42.4800
 30
0.0000
 42
1.0000
  0
VERTEX
  8
39
 10
-46.6727
 20
-42.4800
 30
0.0000
  0
SEQEND
  8
0
  0
POLYLINE
  8
39
 66
1
 10
0.0000
 20
0.0000
 30
0.0000
 40
0.0508
 41
0.0508
 70
0
  0
VERTEX
  8
39
 10
-46.6600
 20
-43.8800
 30
0.0000
  0
VERTEX
  8
39
 10
-49.8600
 20
-43.8800
 30
0.0000
  0
SEQEND
  8
0
  0
POLYLINE
  8
39
 66
1
 10
0.0000
 20
0.0000
 30
0.0000
 40
0.0254
 41
0.0254
 70
0
  0
VERTEX
  8
39
 10
-49.8600
 20
-43.8673
 30
0.0000
 42
1.0000
  0
VERTEX
  8
39
 10
-49.8600
 20
-43.8927
 30
0.0000
  0
SEQEND
  8
0
  0
POLYLINE
  8
39
 66
1
 10
0.0000
 20
0.0000
 30
0.0000
 40
0.0254
 41
0.0254
 70
0
  0
VERTEX
  8
39
 10
-46.6600
 20
-43.8927
 30
0.0000
 42
1.0000
  0
VERTEX
  8
39
 10
-46.6600
 20
-43.8673
 30
0.0000
  0
SEQEND
  8
0
  0
POLYLINE
  8
39
 66
1
 10
0.0000
 20
0.0000
 30
0.0000
 40
0.0508
 41
0.0508
 70
0
  0
VERTEX
  8
39
 10
-49.8600
 20
-43.8800
 30
0.0000
  0
VERTEX
  8
39
 10
-49.8600
 20
-42.4800
 30
0.0000
  0
SEQEND
  8
0
  0
POLYLINE
  8
39
 66
1
 10
0.0000
 20
0.0000
 30
0.0000
 40
0.0254
 41
0.0254
 70
0
  0
VERTEX
  8
39
 10
-49.8473
 20
-42.4800
 30
0.0000
 42
1.0000
  0
VERTEX
  8
39
 10
-49.8727
 20
-42.4800
 30
0.0000
  0
SEQEND
  8
0
  0
POLYLINE
  8
39
 66
1
 10
0.0000
 20
0.0000
 30
0.0000
 40
0.0254
 41
0.0254
 70
0
  0
VERTEX
  8
39
 10
-49.8727
 20
-43.8800
 30
0.0000
 42
1.0000
  0
VERTEX
  8
39
 10
-49.8473
 20
-43.8800
 30
0.0000
  0
SEQEND
  8
0
  0
POLYLINE
  8
39
 66
1
 10
0.0000
 20
0.0000
 30
0.0000
 40
0.0508
 41
0.0508
 70
0
  0
VERTEX
  8
39
 10
-43.5100
 20
-42.4800
 30
0.0000
  0
VERTEX
  8
39
 10
-40.3100
 20
-42.4800
 30
0.0000
  0
SEQEND
  8
0
  0
POLYLINE
  8
39
 66
1
 10
0.0000
 20
0.0000
 30
0.0000
 40
0.0254
 41
0.0254
 70
0
  0
VERTEX
  8
39
 10
-40.3100
 20
-42.4927
 30
0.0000
 42
1.0000
  0
VERTEX
  8
39
 10
-40.3100
 20
-42.4673
 30
0.0000
  0
SEQEND
  8
0
  0
POLYLINE
  8
39
 66
1
 10
0.0000
 20
0.0000
 30
0.0000
 40
0.0254
 41
0.0254
 70
0
  0
VERTEX
  8
39
 10
-43.5100
 20
-42.4673
 30
0.0000
 42
1.0000
  0
VERTEX
  8
39
 10
-43.5100
 20
-42.4927
 30
0.0000
  0
SEQEND
  8
0
  0
POLYLINE
  8
39
 66
1
 10
0.0000
 20
0.0000
 30
0.0000
 40
0.0508
 41
0.0508
 70
0
  0
VERTEX
  8
39
 10
-40.3100
 20
-42.4800
 30
0.0000
  0
VERTEX
  8
39
 10
-40.3100
 20
-43.8800
 30
0.0000
  0
SEQEND
  8
0
  0
POLYLINE
  8
39
 66
1
 10
0.0000
 20
0.0000
 30
0.0000
 40
0.0254
 41
0.0254
 70
0
  0
VERTEX
  8
39
 10
-40.3227
 20
-43.8800
 30
0.0000
 42
1.0000
  0
VERTEX
  8
39
 10
-40.2973
 20
-43.8800
 30
0.0000
  0
SEQEND
  8
0
  0
POLYLINE
  8
39
 66
1
 10
0.0000
 20
0.0000
 30
0.0000
 40
0.0254
 41
0.0254
 70
0
  0
VERTEX
  8
39
 10
-40.2973
 20
-42.4800
 30
0.0000
 42
1.0000
  0
VERTEX
  8
39
 10
-40.3227
 20
-42.4800
 30
0.0000
  0
SEQEND
  8
0
  0
POLYLINE
  8
39
 66
1
 10
0.0000
 20
0.0000
 30
0.0000
 40
0.0508
 41
0.0508
 70
0
  0
VERTEX
  8
39
 10
-40.3100
 20
-43.8800
 30
0.0000
  0
VERTEX
  8
39
 10
-43.5100
 20
-43.8800
 30
0.0000
  0
SEQEND
  8
0
  0
POLYLINE
  8
39
 66
1
 10
0.0000
 20
0.0000
 30
0.0000
 40
0.0254
 41
0.0254
 70
0
  0
VERTEX
  8
39
 10
-43.5100
 20
-43.8673
 30
0.0000
 42
1.0000
  0
VERTEX
  8
39
 10
-43.5100
 20
-43.8927
 30
0.0000
  0
SEQEND
  8
0
  0
POLYLINE
  8
39
 66
1
 10
0.0000
 20
0.0000
 30
0.0000
 40
0.0254
 41
0.0254
 70
0
  0
VERTEX
  8
39
 10
-40.3100
 20
-43.8927
 30
0.0000
 42
1.0000
  0
VERTEX
  8
39
 10
-40.3100
 20
-43.8673
 30
0.0000
  0
SEQEND
  8
0
  0
POLYLINE
  8
39
 66
1
 10
0.0000
 20
0.0000
 30
0.0000
 40
0.0508
 41
0.0508
 70
0
  0
VERTEX
  8
39
 10
-43.5100
 20
-43.8800
 30
0.0000
  0
VERTEX
  8
39
 10
-43.5100
 20
-42.4800
 30
0.0000
  0
SEQEND
  8
0
  0
POLYLINE
  8
39
 66
1
 10
0.0000
 20
0.0000
 30
0.0000
 40
0.0254
 41
0.0254
 70
0
  0
VERTEX
  8
39
 10
-43.4973
 20
-42.4800
 30
0.0000
 42
1.0000
  0
VERTEX
  8
39
 10
-43.5227
 20
-42.4800
 30
0.0000
  0
SEQEND
  8
0
  0
POLYLINE
  8
39
 66
1
 10
0.0000
 20
0.0000
 30
0.0000
 40
0.0254
 41
0.0254
 70
0
  0
VERTEX
  8
39
 10
-43.5227
 20
-43.8800
 30
0.0000
 42
1.0000
  0
VERTEX
  8
39
 10
-43.4973
 20
-43.8800
 30
0.0000
  0
SEQEND
  8
0
  0
POLYLINE
  8
39
 66
1
 10
0.0000
 20
0.0000
 30
0.0000
 40
0.0508
 41
0.0508
 70
0
  0
VERTEX
  8
39
 10
-67.5130
 20
43.9090
 30
0.0000
  0
VERTEX
  8
39
 10
-64.5670
 20
43.9090
 30
0.0000
  0
SEQEND
  8
0
  0
POLYLINE
  8
39
 66
1
 10
0.0000
 20
0.0000
 30
0.0000
 40
0.0254
 41
0.0254
 70
0
  0
VERTEX
  8
39
 10
-64.5670
 20
43.8963
 30
0.0000
 42
1.0000
  0
VERTEX
  8
39
 10
-64.5670
 20
43.9217
 30
0.0000
  0
SEQEND
  8
0
  0
POLYLINE
  8
39
 66
1
 10
0.0000
 20
0.0000
 30
0.0000
 40
0.0254
 41
0.0254
 70
0
  0
VERTEX
  8
39
 10
-67.5130
 20
43.9217
 30
0.0000
 42
1.0000
  0
VERTEX
  8
39
 10
-67.5130
 20
43.8963
 30
0.0000
  0
SEQEND
  8
0
  0
POLYLINE
  8
39
 66
1
 10
0.0000
 20
0.0000
 30
0.0000
 40
0.0508
 41
0.0508
 70
0
  0
VERTEX
  8
39
 10
-64.5670
 20
43.9090
 30
0.0000
  0
VERTEX
  8
39
 10
-64.5670
 20
42.4510
 30
0.0000
  0
SEQEND
  8
0
  0
POLYLINE
  8
39
 66
1
 10
0.0000
 20
0.0000
 30
0.0000
 40
0.0254
 41
0.0254
 70
0
  0
VERTEX
  8
39
 10
-64.5797
 20
42.4510
 30
0.0000
 42
1.0000
  0
VERTEX
  8
39
 10
-64.5543
 20
42.4510
 30
0.0000
  0
SEQEND
  8
0
  0
POLYLINE
  8
39
 66
1
 10
0.0000
 20
0.0000
 30
0.0000
 40
0.0254
 41
0.0254
 70
0
  0
VERTEX
  8
39
 10
-64.5543
 20
43.9090
 30
0.0000
 42
1.0000
  0
VERTEX
  8
39
 10
-64.5797
 20
43.9090
 30
0.0000
  0
SEQEND
  8
0
  0
POLYLINE
  8
39
 66
1
 10
0.0000
 20
0.0000
 30
0.0000
 40
0.0508
 41
0.0508
 70
0
  0
VERTEX
  8
39
 10
-64.5670
 20
42.4510
 30
0.0000
  0
VERTEX
  8
39
 10
-67.5130
 20
42.4510
 30
0.0000
  0
SEQEND
  8
0
  0
POLYLINE
  8
39
 66
1
 10
0.0000
 20
0.0000
 30
0.0000
 40
0.0254
 41
0.0254
 70
0
  0
VERTEX
  8
39
 10
-67.5130
 20
42.4637
 30
0.0000
 42
1.0000
  0
VERTEX
  8
39
 10
-67.5130
 20
42.4383
 30
0.0000
  0
SEQEND
  8
0
  0
POLYLINE
  8
39
 66
1
 10
0.0000
 20
0.0000
 30
0.0000
 40
0.0254
 41
0.0254
 70
0
  0
VERTEX
  8
39
 10
-64.5670
 20
42.4383
 30
0.0000
 42
1.0000
  0
VERTEX
  8
39
 10
-64.5670
 20
42.4637
 30
0.0000
  0
SEQEND
  8
0
  0
POLYLINE
  8
39
 66
1
 10
0.0000
 20
0.0000
 30
0.0000
 40
0.0508
 41
0.0508
 70
0
  0
VERTEX
  8
39
 10
-67.5130
 20
42.4510
 30
0.0000
  0
VERTEX
  8
39
 10
-67.5130
 20
43.9090
 30
0.0000
  0
SEQEND
  8
0
  0
POLYLINE
  8
39
 66
1
 10
0.0000
 20
0.0000
 30
0.0000
 40
0.0254
 41
0.0254
 70
0
  0
VERTEX
  8
39
 10
-67.5003
 20
43.9090
 30
0.0000
 42
1.0000
  0
VERTEX
  8
39
 10
-67.5257
 20
43.9090
 30
0.0000
  0
SEQEND
  8
0
  0
POLYLINE
  8
39
 66
1
 10
0.0000
 20
0.0000
 30
0.0000
 40
0.0254
 41
0.0254
 70
0
  0
VERTEX
  8
39
 10
-67.5257
 20
42.4510
 30
0.0000
 42
1.0000
  0
VERTEX
  8
39
 10
-67.5003
 20
42.4510
 30
0.0000
  0
SEQEND
  8
0
  0
POLYLINE
  8
39
 66
1
 10
0.0000
 20
0.0000
 30
0.0000
 40
0.0508
 41
0.0508
 70
0
  0
VERTEX
  8
39
 10
-69.6470
 20
42.4510
 30
0.0000
  0
VERTEX
  8
39
 10
-72.5930
 20
42.4510
 30
0.0000
  0
SEQEND
  8
0
  0
POLYLINE
  8
39
 66
1
 10
0.0000
 20
0.0000
 30
0.0000
 40
0.0254
 41
0.0254
 70
0
  0
VERTEX
  8
39
 10
-72.5930
 20
42.4637
 30
0.0000
 42
1.0000
  0
VERTEX
  8
39
 10
-72.5930
 20
42.4383
 30
0.0000
  0
SEQEND
  8
0
  0
POLYLINE
  8
39
 66
1
 10
0.0000
 20
0.0000
 30
0.0000
 40
0.0254
 41
0.0254
 70
0
  0
VERTEX
  8
39
 10
-69.6470
 20
42.4383
 30
0.0000
 42
1.0000
  0
VERTEX
  8
39
 10
-69.6470
 20
42.4637
 30
0.0000
  0
SEQEND
  8
0
  0
POLYLINE
  8
39
 66
1
 10
0.0000
 20
0.0000
 30
0.0000
 40
0.0508
 41
0.0508
 70
0
  0
VERTEX
  8
39
 10
-72.5930
 20
42.4510
 30
0.0000
  0
VERTEX
  8
39
 10
-72.5930
 20
43.9090
 30
0.0000
  0
SEQEND
  8
0
  0
POLYLINE
  8
39
 66
1
 10
0.0000
 20
0.0000
 30
0.0000
 40
0.0254
 41
0.0254
 70
0
  0
VERTEX
  8
39
 10
-72.5803
 20
43.9090
 30
0.0000
 42
1.0000
  0
VERTEX
  8
39
 10
-72.6057
 20
43.9090
 30
0.0000
  0
SEQEND
  8
0
  0
POLYLINE
  8
39
 66
1
 10
0.0000
 20
0.0000
 30
0.0000
 40
0.0254
 41
0.0254
 70
0
  0
VERTEX
  8
39
 10
-72.6057
 20
42.4510
 30
0.0000
 42
1.0000
  0
VERTEX
  8
39
 10
-72.5803
 20
42.4510
 30
0.0000
  0
SEQEND
  8
0
  0
POLYLINE
  8
39
 66
1
 10
0.0000
 20
0.0000
 30
0.0000
 40
0.0508
 41
0.0508
 70
0
  0
VERTEX
  8
39
 10
-72.5930
 20
43.9090
 30
0.0000
  0
VERTEX
  8
39
 10
-69.6470
 20
43.9090
 30
0.0000
  0
SEQEND
  8
0
  0
POLYLINE
  8
39
 66
1
 10
0.0000
 20
0.0000
 30
0.0000
 40
0.0254
 41
0.0254
 70
0
  0
VERTEX
  8
39
 10
-69.6470
 20
43.8963
 30
0.0000
 42
1.0000
  0
VERTEX
  8
39
 10
-69.6470
 20
43.9217
 30
0.0000
  0
SEQEND
  8
0
  0
POLYLINE
  8
39
 66
1
 10
0.0000
 20
0.0000
 30
0.0000
 40
0.0254
 41
0.0254
 70
0
  0
VERTEX
  8
39
 10
-72.5930
 20
43.9217
 30
0.0000
 42
1.0000
  0
VERTEX
  8
39
 10
-72.5930
 20
43.8963
 30
0.0000
  0
SEQEND
  8
0
  0
POLYLINE
  8
39
 66
1
 10
0.0000
 20
0.0000
 30
0.0000
 40
0.0508
 41
0.0508
 70
0
  0
VERTEX
  8
39
 10
-69.6470
 20
43.9090
 30
0.0000
  0
VERTEX
  8
39
 10
-69.6470
 20
42.4510
 30
0.0000
  0
SEQEND
  8
0
  0
POLYLINE
  8
39
 66
1
 10
0.0000
 20
0.0000
 30
0.0000
 40
0.0254
 41
0.0254
 70
0
  0
VERTEX
  8
39
 10
-69.6597
 20
42.4510
 30
0.0000
 42
1.0000
  0
VERTEX
  8
39
 10
-69.6343
 20
42.4510
 30
0.0000
  0
SEQEND
  8
0
  0
POLYLINE
  8
39
 66
1
 10
0.0000
 20
0.0000
 30
0.0000
 40
0.0254
 41
0.0254
 70
0
  0
VERTEX
  8
39
 10
-69.6343
 20
43.9090
 30
0.0000
 42
1.0000
  0
VERTEX
  8
39
 10
-69.6597
 20
43.9090
 30
0.0000
  0
SEQEND
  8
0
  0
CIRCLE
  8
20
 10
-30.8200
 20
-5.7200
 30
0.0000
 40
0.4250
  0
CIRCLE
  8
20
 10
-30.8200
 20
-9.5200
 30
0.0000
 40
0.4250
  0
POLYLINE
  8
39
 66
1
 10
0.0000
 20
0.0000
 30
0.0000
 40
0.0508
 41
0.0508
 70
0
  0
VERTEX
  8
39
 10
-35.7630
 20
54.3230
 30
0.0000
  0
VERTEX
  8
39
 10
-32.8170
 20
54.3230
 30
0.0000
  0
SEQEND
  8
0
  0
POLYLINE
  8
39
 66
1
 10
0.0000
 20
0.0000
 30
0.0000
 40
0.0254
 41
0.0254
 70
0
  0
VERTEX
  8
39
 10
-32.8170
 20
54.3103
 30
0.0000
 42
1.0000
  0
VERTEX
  8
39
 10
-32.8170
 20
54.3357
 30
0.0000
  0
SEQEND
  8
0
  0
POLYLINE
  8
39
 66
1
 10
0.0000
 20
0.0000
 30
0.0000
 40
0.0254
 41
0.0254
 70
0
  0
VERTEX
  8
39
 10
-35.7630
 20
54.3357
 30
0.0000
 42
1.0000
  0
VERTEX
  8
39
 10
-35.7630
 20
54.3103
 30
0.0000
  0
SEQEND
  8
0
  0
POLYLINE
  8
39
 66
1
 10
0.0000
 20
0.0000
 30
0.0000
 40
0.0508
 41
0.0508
 70
0
  0
VERTEX
  8
39
 10
-32.8170
 20
54.3230
 30
0.0000
  0
VERTEX
  8
39
 10
-32.8170
 20
52.3570
 30
0.0000
  0
SEQEND
  8
0
  0
POLYLINE
  8
39
 66
1
 10
0.0000
 20
0.0000
 30
0.0000
 40
0.0254
 41
0.0254
 70
0
  0
VERTEX
  8
39
 10
-32.8297
 20
52.3570
 30
0.0000
 42
1.0000
  0
VERTEX
  8
39
 10
-32.8043
 20
52.3570
 30
0.0000
  0
SEQEND
  8
0
  0
POLYLINE
  8
39
 66
1
 10
0.0000
 20
0.0000
 30
0.0000
 40
0.0254
 41
0.0254
 70
0
  0
VERTEX
  8
39
 10
-32.8043
 20
54.3230
 30
0.0000
 42
1.0000
  0
VERTEX
  8
39
 10
-32.8297
 20
54.3230
 30
0.0000
  0
SEQEND
  8
0
  0
POLYLINE
  8
39
 66
1
 10
0.0000
 20
0.0000
 30
0.0000
 40
0.0508
 41
0.0508
 70
0
  0
VERTEX
  8
39
 10
-32.8170
 20
52.3570
 30
0.0000
  0
VERTEX
  8
39
 10
-35.7630
 20
52.3570
 30
0.0000
  0
SEQEND
  8
0
  0
POLYLINE
  8
39
 66
1
 10
0.0000
 20
0.0000
 30
0.0000
 40
0.0254
 41
0.0254
 70
0
  0
VERTEX
  8
39
 10
-35.7630
 20
52.3697
 30
0.0000
 42
1.0000
  0
VERTEX
  8
39
 10
-35.7630
 20
52.3443
 30
0.0000
  0
SEQEND
  8
0
  0
POLYLINE
  8
39
 66
1
 10
0.0000
 20
0.0000
 30
0.0000
 40
0.0254
 41
0.0254
 70
0
  0
VERTEX
  8
39
 10
-32.8170
 20
52.3443
 30
0.0000
 42
1.0000
  0
VERTEX
  8
39
 10
-32.8170
 20
52.3697
 30
0.0000
  0
SEQEND
  8
0
  0
POLYLINE
  8
39
 66
1
 10
0.0000
 20
0.0000
 30
0.0000
 40
0.0508
 41
0.0508
 70
0
  0
VERTEX
  8
39
 10
-35.7630
 20
52.3570
 30
0.0000
  0
VERTEX
  8
39
 10
-35.7630
 20
54.3230
 30
0.0000
  0
SEQEND
  8
0
  0
POLYLINE
  8
39
 66
1
 10
0.0000
 20
0.0000
 30
0.0000
 40
0.0254
 41
0.0254
 70
0
  0
VERTEX
  8
39
 10
-35.7503
 20
54.3230
 30
0.0000
 42
1.0000
  0
VERTEX
  8
39
 10
-35.7757
 20
54.3230
 30
0.0000
  0
SEQEND
  8
0
  0
POLYLINE
  8
39
 66
1
 10
0.0000
 20
0.0000
 30
0.0000
 40
0.0254
 41
0.0254
 70
0
  0
VERTEX
  8
39
 10
-35.7757
 20
52.3570
 30
0.0000
 42
1.0000
  0
VERTEX
  8
39
 10
-35.7503
 20
52.3570
 30
0.0000
  0
SEQEND
  8
0
  0
POLYLINE
  8
39
 66
1
 10
0.0000
 20
0.0000
 30
0.0000
 40
0.0508
 41
0.0508
 70
0
  0
VERTEX
  8
39
 10
-39.5730
 20
54.3230
 30
0.0000
  0
VERTEX
  8
39
 10
-36.6270
 20
54.3230
 30
0.0000
  0
SEQEND
  8
0
  0
POLYLINE
  8
39
 66
1
 10
0.0000
 20
0.0000
 30
0.0000
 40
0.0254
 41
0.0254
 70
0
  0
VERTEX
  8
39
 10
-36.6270
 20
54.3103
 30
0.0000
 42
1.0000
  0
VERTEX
  8
39
 10
-36.6270
 20
54.3357
 30
0.0000
  0
SEQEND
  8
0
  0
POLYLINE
  8
39
 66
1
 10
0.0000
 20
0.0000
 30
0.0000
 40
0.0254
 41
0.0254
 70
0
  0
VERTEX
  8
39
 10
-39.5730
 20
54.3357
 30
0.0000
 42
1.0000
  0
VERTEX
  8
39
 10
-39.5730
 20
54.3103
 30
0.0000
  0
SEQEND
  8
0
  0
POLYLINE
  8
39
 66
1
 10
0.0000
 20
0.0000
 30
0.0000
 40
0.0508
 41
0.0508
 70
0
  0
VERTEX
  8
39
 10
-36.6270
 20
54.3230
 30
0.0000
  0
VERTEX
  8
39
 10
-36.6270
 20
52.3570
 30
0.0000
  0
SEQEND
  8
0
  0
POLYLINE
  8
39
 66
1
 10
0.0000
 20
0.0000
 30
0.0000
 40
0.0254
 41
0.0254
 70
0
  0
VERTEX
  8
39
 10
-36.6397
 20
52.3570
 30
0.0000
 42
1.0000
  0
VERTEX
  8
39
 10
-36.6143
 20
52.3570
 30
0.0000
  0
SEQEND
  8
0
  0
POLYLINE
  8
39
 66
1
 10
0.0000
 20
0.0000
 30
0.0000
 40
0.0254
 41
0.0254
 70
0
  0
VERTEX
  8
39
 10
-36.6143
 20
54.3230
 30
0.0000
 42
1.0000
  0
VERTEX
  8
39
 10
-36.6397
 20
54.3230
 30
0.0000
  0
SEQEND
  8
0
  0
POLYLINE
  8
39
 66
1
 10
0.0000
 20
0.0000
 30
0.0000
 40
0.0508
 41
0.0508
 70
0
  0
VERTEX
  8
39
 10
-36.6270
 20
52.3570
 30
0.0000
  0
VERTEX
  8
39
 10
-39.5730
 20
52.3570
 30
0.0000
  0
SEQEND
  8
0
  0
POLYLINE
  8
39
 66
1
 10
0.0000
 20
0.0000
 30
0.0000
 40
0.0254
 41
0.0254
 70
0
  0
VERTEX
  8
39
 10
-39.5730
 20
52.3697
 30
0.0000
 42
1.0000
  0
VERTEX
  8
39
 10
-39.5730
 20
52.3443
 30
0.0000
  0
SEQEND
  8
0
  0
POLYLINE
  8
39
 66
1
 10
0.0000
 20
0.0000
 30
0.0000
 40
0.0254
 41
0.0254
 70
0
  0
VERTEX
  8
39
 10
-36.6270
 20
52.3443
 30
0.0000
 42
1.0000
  0
VERTEX
  8
39
 10
-36.6270
 20
52.3697
 30
0.0000
  0
SEQEND
  8
0
  0
POLYLINE
  8
39
 66
1
 10
0.0000
 20
0.0000
 30
0.0000
 40
0.0508
 41
0.0508
 70
0
  0
VERTEX
  8
39
 10
-39.5730
 20
52.3570
 30
0.0000
  0
VERTEX
  8
39
 10
-39.5730
 20
54.3230
 30
0.0000
  0
SEQEND
  8
0
  0
POLYLINE
  8
39
 66
1
 10
0.0000
 20
0.0000
 30
0.0000
 40
0.0254
 41
0.0254
 70
0
  0
VERTEX
  8
39
 10
-39.5603
 20
54.3230
 30
0.0000
 42
1.0000
  0
VERTEX
  8
39
 10
-39.5857
 20
54.3230
 30
0.0000
  0
SEQEND
  8
0
  0
POLYLINE
  8
39
 66
1
 10
0.0000
 20
0.0000
 30
0.0000
 40
0.0254
 41
0.0254
 70
0
  0
VERTEX
  8
39
 10
-39.5857
 20
52.3570
 30
0.0000
 42
1.0000
  0
VERTEX
  8
39
 10
-39.5603
 20
52.3570
 30
0.0000
  0
SEQEND
  8
0
  0
POLYLINE
  8
39
 66
1
 10
0.0000
 20
0.0000
 30
0.0000
 40
0.0508
 41
0.0508
 70
0
  0
VERTEX
  8
39
 10
-43.3830
 20
54.3230
 30
0.0000
  0
VERTEX
  8
39
 10
-40.4370
 20
54.3230
 30
0.0000
  0
SEQEND
  8
0
  0
POLYLINE
  8
39
 66
1
 10
0.0000
 20
0.0000
 30
0.0000
 40
0.0254
 41
0.0254
 70
0
  0
VERTEX
  8
39
 10
-40.4370
 20
54.3103
 30
0.0000
 42
1.0000
  0
VERTEX
  8
39
 10
-40.4370
 20
54.3357
 30
0.0000
  0
SEQEND
  8
0
  0
POLYLINE
  8
39
 66
1
 10
0.0000
 20
0.0000
 30
0.0000
 40
0.0254
 41
0.0254
 70
0
  0
VERTEX
  8
39
 10
-43.3830
 20
54.3357
 30
0.0000
 42
1.0000
  0
VERTEX
  8
39
 10
-43.3830
 20
54.3103
 30
0.0000
  0
SEQEND
  8
0
  0
POLYLINE
  8
39
 66
1
 10
0.0000
 20
0.0000
 30
0.0000
 40
0.0508
 41
0.0508
 70
0
  0
VERTEX
  8
39
 10
-40.4370
 20
54.3230
 30
0.0000
  0
VERTEX
  8
39
 10
-40.4370
 20
52.3570
 30
0.0000
  0
SEQEND
  8
0
  0
POLYLINE
  8
39
 66
1
 10
0.0000
 20
0.0000
 30
0.0000
 40
0.0254
 41
0.0254
 70
0
  0
VERTEX
  8
39
 10
-40.4497
 20
52.3570
 30
0.0000
 42
1.0000
  0
VERTEX
  8
39
 10
-40.4243
 20
52.3570
 30
0.0000
  0
SEQEND
  8
0
  0
POLYLINE
  8
39
 66
1
 10
0.0000
 20
0.0000
 30
0.0000
 40
0.0254
 41
0.0254
 70
0
  0
VERTEX
  8
39
 10
-40.4243
 20
54.3230
 30
0.0000
 42
1.0000
  0
VERTEX
  8
39
 10
-40.4497
 20
54.3230
 30
0.0000
  0
SEQEND
  8
0
  0
POLYLINE
  8
39
 66
1
 10
0.0000
 20
0.0000
 30
0.0000
 40
0.0508
 41
0.0508
 70
0
  0
VERTEX
  8
39
 10
-40.4370
 20
52.3570
 30
0.0000
  0
VERTEX
  8
39
 10
-43.3830
 20
52.3570
 30
0.0000
  0
SEQEND
  8
0
  0
POLYLINE
  8
39
 66
1
 10
0.0000
 20
0.0000
 30
0.0000
 40
0.0254
 41
0.0254
 70
0
  0
VERTEX
  8
39
 10
-43.3830
 20
52.3697
 30
0.0000
 42
1.0000
  0
VERTEX
  8
39
 10
-43.3830
 20
52.3443
 30
0.0000
  0
SEQEND
  8
0
  0
POLYLINE
  8
39
 66
1
 10
0.0000
 20
0.0000
 30
0.0000
 40
0.0254
 41
0.0254
 70
0
  0
VERTEX
  8
39
 10
-40.4370
 20
52.3443
 30
0.0000
 42
1.0000
  0
VERTEX
  8
39
 10
-40.4370
 20
52.3697
 30
0.0000
  0
SEQEND
  8
0
  0
POLYLINE
  8
39
 66
1
 10
0.0000
 20
0.0000
 30
0.0000
 40
0.0508
 41
0.0508
 70
0
  0
VERTEX
  8
39
 10
-43.3830
 20
52.3570
 30
0.0000
  0
VERTEX
  8
39
 10
-43.3830
 20
54.3230
 30
0.0000
  0
SEQEND
  8
0
  0
POLYLINE
  8
39
 66
1
 10
0.0000
 20
0.0000
 30
0.0000
 40
0.0254
 41
0.0254
 70
0
  0
VERTEX
  8
39
 10
-43.3703
 20
54.3230
 30
0.0000
 42
1.0000
  0
VERTEX
  8
39
 10
-43.3957
 20
54.3230
 30
0.0000
  0
SEQEND
  8
0
  0
POLYLINE
  8
39
 66
1
 10
0.0000
 20
0.0000
 30
0.0000
 40
0.0254
 41
0.0254
 70
0
  0
VERTEX
  8
39
 10
-43.3957
 20
52.3570
 30
0.0000
 42
1.0000
  0
VERTEX
  8
39
 10
-43.3703
 20
52.3570
 30
0.0000
  0
SEQEND
  8
0
  0
POLYLINE
  8
39
 66
1
 10
0.0000
 20
0.0000
 30
0.0000
 40
0.0508
 41
0.0508
 70
0
  0
VERTEX
  8
39
 10
-47.1930
 20
54.3230
 30
0.0000
  0
VERTEX
  8
39
 10
-44.2470
 20
54.3230
 30
0.0000
  0
SEQEND
  8
0
  0
POLYLINE
  8
39
 66
1
 10
0.0000
 20
0.0000
 30
0.0000
 40
0.0254
 41
0.0254
 70
0
  0
VERTEX
  8
39
 10
-44.2470
 20
54.3103
 30
0.0000
 42
1.0000
  0
VERTEX
  8
39
 10
-44.2470
 20
54.3357
 30
0.0000
  0
SEQEND
  8
0
  0
POLYLINE
  8
39
 66
1
 10
0.0000
 20
0.0000
 30
0.0000
 40
0.0254
 41
0.0254
 70
0
  0
VERTEX
  8
39
 10
-47.1930
 20
54.3357
 30
0.0000
 42
1.0000
  0
VERTEX
  8
39
 10
-47.1930
 20
54.3103
 30
0.0000
  0
SEQEND
  8
0
  0
POLYLINE
  8
39
 66
1
 10
0.0000
 20
0.0000
 30
0.0000
 40
0.0508
 41
0.0508
 70
0
  0
VERTEX
  8
39
 10
-44.2470
 20
54.3230
 30
0.0000
  0
VERTEX
  8
39
 10
-44.2470
 20
52.3570
 30
0.0000
  0
SEQEND
  8
0
  0
POLYLINE
  8
39
 66
1
 10
0.0000
 20
0.0000
 30
0.0000
 40
0.0254
 41
0.0254
 70
0
  0
VERTEX
  8
39
 10
-44.2597
 20
52.3570
 30
0.0000
 42
1.0000
  0
VERTEX
  8
39
 10
-44.2343
 20
52.3570
 30
0.0000
  0
SEQEND
  8
0
  0
POLYLINE
  8
39
 66
1
 10
0.0000
 20
0.0000
 30
0.0000
 40
0.0254
 41
0.0254
 70
0
  0
VERTEX
  8
39
 10
-44.2343
 20
54.3230
 30
0.0000
 42
1.0000
  0
VERTEX
  8
39
 10
-44.2597
 20
54.3230
 30
0.0000
  0
SEQEND
  8
0
  0
POLYLINE
  8
39
 66
1
 10
0.0000
 20
0.0000
 30
0.0000
 40
0.0508
 41
0.0508
 70
0
  0
VERTEX
  8
39
 10
-44.2470
 20
52.3570
 30
0.0000
  0
VERTEX
  8
39
 10
-47.1930
 20
52.3570
 30
0.0000
  0
SEQEND
  8
0
  0
POLYLINE
  8
39
 66
1
 10
0.0000
 20
0.0000
 30
0.0000
 40
0.0254
 41
0.0254
 70
0
  0
VERTEX
  8
39
 10
-47.1930
 20
52.3697
 30
0.0000
 42
1.0000
  0
VERTEX
  8
39
 10
-47.1930
 20
52.3443
 30
0.0000
  0
SEQEND
  8
0
  0
POLYLINE
  8
39
 66
1
 10
0.0000
 20
0.0000
 30
0.0000
 40
0.0254
 41
0.0254
 70
0
  0
VERTEX
  8
39
 10
-44.2470
 20
52.3443
 30
0.0000
 42
1.0000
  0
VERTEX
  8
39
 10
-44.2470
 20
52.3697
 30
0.0000
  0
SEQEND
  8
0
  0
POLYLINE
  8
39
 66
1
 10
0.0000
 20
0.0000
 30
0.0000
 40
0.0508
 41
0.0508
 70
0
  0
VERTEX
  8
39
 10
-47.1930
 20
52.3570
 30
0.0000
  0
VERTEX
  8
39
 10
-47.1930
 20
54.3230
 30
0.0000
  0
SEQEND
  8
0
  0
POLYLINE
  8
39
 66
1
 10
0.0000
 20
0.0000
 30
0.0000
 40
0.0254
 41
0.0254
 70
0
  0
VERTEX
  8
39
 10
-47.1803
 20
54.3230
 30
0.0000
 42
1.0000
  0
VERTEX
  8
39
 10
-47.2057
 20
54.3230
 30
0.0000
  0
SEQEND
  8
0
  0
POLYLINE
  8
39
 66
1
 10
0.0000
 20
0.0000
 30
0.0000
 40
0.0254
 41
0.0254
 70
0
  0
VERTEX
  8
39
 10
-47.2057
 20
52.3570
 30
0.0000
 42
1.0000
  0
VERTEX
  8
39
 10
-47.1803
 20
52.3570
 30
0.0000
  0
SEQEND
  8
0
  0
POLYLINE
  8
39
 66
1
 10
0.0000
 20
0.0000
 30
0.0000
 40
0.0508
 41
0.0508
 70
0
  0
VERTEX
  8
39
 10
-20.5230
 20
56.8630
 30
0.0000
  0
VERTEX
  8
39
 10
-17.5770
 20
56.8630
 30
0.0000
  0
SEQEND
  8
0
  0
POLYLINE
  8
39
 66
1
 10
0.0000
 20
0.0000
 30
0.0000
 40
0.0254
 41
0.0254
 70
0
  0
VERTEX
  8
39
 10
-17.5770
 20
56.8503
 30
0.0000
 42
1.0000
  0
VERTEX
  8
39
 10
-17.5770
 20
56.8757
 30
0.0000
  0
SEQEND
  8
0
  0
POLYLINE
  8
39
 66
1
 10
0.0000
 20
0.0000
 30
0.0000
 40
0.0254
 41
0.0254
 70
0
  0
VERTEX
  8
39
 10
-20.5230
 20
56.8757
 30
0.0000
 42
1.0000
  0
VERTEX
  8
39
 10
-20.5230
 20
56.8503
 30
0.0000
  0
SEQEND
  8
0
  0
POLYLINE
  8
39
 66
1
 10
0.0000
 20
0.0000
 30
0.0000
 40
0.0508
 41
0.0508
 70
0
  0
VERTEX
  8
39
 10
-17.5770
 20
56.8630
 30
0.0000
  0
VERTEX
  8
39
 10
-17.5770
 20
54.8970
 30
0.0000
  0
SEQEND
  8
0
  0
POLYLINE
  8
39
 66
1
 10
0.0000
 20
0.0000
 30
0.0000
 40
0.0254
 41
0.0254
 70
0
  0
VERTEX
  8
39
 10
-17.5897
 20
54.8970
 30
0.0000
 42
1.0000
  0
VERTEX
  8
39
 10
-17.5643
 20
54.8970
 30
0.0000
  0
SEQEND
  8
0
  0
POLYLINE
  8
39
 66
1
 10
0.0000
 20
0.0000
 30
0.0000
 40
0.0254
 41
0.0254
 70
0
  0
VERTEX
  8
39
 10
-17.5643
 20
56.8630
 30
0.0000
 42
1.0000
  0
VERTEX
  8
39
 10
-17.5897
 20
56.8630
 30
0.0000
  0
SEQEND
  8
0
  0
POLYLINE
  8
39
 66
1
 10
0.0000
 20
0.0000
 30
0.0000
 40
0.0508
 41
0.0508
 70
0
  0
VERTEX
  8
39
 10
-17.5770
 20
54.8970
 30
0.0000
  0
VERTEX
  8
39
 10
-20.5230
 20
54.8970
 30
0.0000
  0
SEQEND
  8
0
  0
POLYLINE
  8
39
 66
1
 10
0.0000
 20
0.0000
 30
0.0000
 40
0.0254
 41
0.0254
 70
0
  0
VERTEX
  8
39
 10
-20.5230
 20
54.9097
 30
0.0000
 42
1.0000
  0
VERTEX
  8
39
 10
-20.5230
 20
54.8843
 30
0.0000
  0
SEQEND
  8
0
  0
POLYLINE
  8
39
 66
1
 10
0.0000
 20
0.0000
 30
0.0000
 40
0.0254
 41
0.0254
 70
0
  0
VERTEX
  8
39
 10
-17.5770
 20
54.8843
 30
0.0000
 42
1.0000
  0
VERTEX
  8
39
 10
-17.5770
 20
54.9097
 30
0.0000
  0
SEQEND
  8
0
  0
POLYLINE
  8
39
 66
1
 10
0.0000
 20
0.0000
 30
0.0000
 40
0.0508
 41
0.0508
 70
0
  0
VERTEX
  8
39
 10
-20.5230
 20
54.8970
 30
0.0000
  0
VERTEX
  8
39
 10
-20.5230
 20
56.8630
 30
0.0000
  0
SEQEND
  8
0
  0
POLYLINE
  8
39
 66
1
 10
0.0000
 20
0.0000
 30
0.0000
 40
0.0254
 41
0.0254
 70
0
  0
VERTEX
  8
39
 10
-20.5103
 20
56.8630
 30
0.0000
 42
1.0000
  0
VERTEX
  8
39
 10
-20.5357
 20
56.8630
 30
0.0000
  0
SEQEND
  8
0
  0
POLYLINE
  8
39
 66
1
 10
0.0000
 20
0.0000
 30
0.0000
 40
0.0254
 41
0.0254
 70
0
  0
VERTEX
  8
39
 10
-20.5357
 20
54.8970
 30
0.0000
 42
1.0000
  0
VERTEX
  8
39
 10
-20.5103
 20
54.8970
 30
0.0000
  0
SEQEND
  8
0
  0
POLYLINE
  8
39
 66
1
 10
0.0000
 20
0.0000
 30
0.0000
 40
0.0508
 41
0.0508
 70
0
  0
VERTEX
  8
39
 10
-65.7350
 20
34.0030
 30
0.0000
  0
VERTEX
  8
39
 10
-62.7890
 20
34.0030
 30
0.0000
  0
SEQEND
  8
0
  0
POLYLINE
  8
39
 66
1
 10
0.0000
 20
0.0000
 30
0.0000
 40
0.0254
 41
0.0254
 70
0
  0
VERTEX
  8
39
 10
-62.7890
 20
33.9903
 30
0.0000
 42
1.0000
  0
VERTEX
  8
39
 10
-62.7890
 20
34.0157
 30
0.0000
  0
SEQEND
  8
0
  0
POLYLINE
  8
39
 66
1
 10
0.0000
 20
0.0000
 30
0.0000
 40
0.0254
 41
0.0254
 70
0
  0
VERTEX
  8
39
 10
-65.7350
 20
34.0157
 30
0.0000
 42
1.0000
  0
VERTEX
  8
39
 10
-65.7350
 20
33.9903
 30
0.0000
  0
SEQEND
  8
0
  0
POLYLINE
  8
39
 66
1
 10
0.0000
 20
0.0000
 30
0.0000
 40
0.0508
 41
0.0508
 70
0
  0
VERTEX
  8
39
 10
-62.7890
 20
34.0030
 30
0.0000
  0
VERTEX
  8
39
 10
-62.7890
 20
32.0370
 30
0.0000
  0
SEQEND
  8
0
  0
POLYLINE
  8
39
 66
1
 10
0.0000
 20
0.0000
 30
0.0000
 40
0.0254
 41
0.0254
 70
0
  0
VERTEX
  8
39
 10
-62.8017
 20
32.0370
 30
0.0000
 42
1.0000
  0
VERTEX
  8
39
 10
-62.7763
 20
32.0370
 30
0.0000
  0
SEQEND
  8
0
  0
POLYLINE
  8
39
 66
1
 10
0.0000
 20
0.0000
 30
0.0000
 40
0.0254
 41
0.0254
 70
0
  0
VERTEX
  8
39
 10
-62.7763
 20
34.0030
 30
0.0000
 42
1.0000
  0
VERTEX
  8
39
 10
-62.8017
 20
34.0030
 30
0.0000
  0
SEQEND
  8
0
  0
POLYLINE
  8
39
 66
1
 10
0.0000
 20
0.0000
 30
0.0000
 40
0.0508
 41
0.0508
 70
0
  0
VERTEX
  8
39
 10
-62.7890
 20
32.0370
 30
0.0000
  0
VERTEX
  8
39
 10
-65.7350
 20
32.0370
 30
0.0000
  0
SEQEND
  8
0
  0
POLYLINE
  8
39
 66
1
 10
0.0000
 20
0.0000
 30
0.0000
 40
0.0254
 41
0.0254
 70
0
  0
VERTEX
  8
39
 10
-65.7350
 20
32.0497
 30
0.0000
 42
1.0000
  0
VERTEX
  8
39
 10
-65.7350
 20
32.0243
 30
0.0000
  0
SEQEND
  8
0
  0
POLYLINE
  8
39
 66
1
 10
0.0000
 20
0.0000
 30
0.0000
 40
0.0254
 41
0.0254
 70
0
  0
VERTEX
  8
39
 10
-62.7890
 20
32.0243
 30
0.0000
 42
1.0000
  0
VERTEX
  8
39
 10
-62.7890
 20
32.0497
 30
0.0000
  0
SEQEND
  8
0
  0
POLYLINE
  8
39
 66
1
 10
0.0000
 20
0.0000
 30
0.0000
 40
0.0508
 41
0.0508
 70
0
  0
VERTEX
  8
39
 10
-65.7350
 20
32.0370
 30
0.0000
  0
VERTEX
  8
39
 10
-65.7350
 20
34.0030
 30
0.0000
  0
SEQEND
  8
0
  0
POLYLINE
  8
39
 66
1
 10
0.0000
 20
0.0000
 30
0.0000
 40
0.0254
 41
0.0254
 70
0
  0
VERTEX
  8
39
 10
-65.7223
 20
34.0030
 30
0.0000
 42
1.0000
  0
VERTEX
  8
39
 10
-65.7477
 20
34.0030
 30
0.0000
  0
SEQEND
  8
0
  0
POLYLINE
  8
39
 66
1
 10
0.0000
 20
0.0000
 30
0.0000
 40
0.0254
 41
0.0254
 70
0
  0
VERTEX
  8
39
 10
-65.7477
 20
32.0370
 30
0.0000
 42
1.0000
  0
VERTEX
  8
39
 10
-65.7223
 20
32.0370
 30
0.0000
  0
SEQEND
  8
0
  0
POLYLINE
  8
39
 66
1
 10
0.0000
 20
0.0000
 30
0.0000
 40
0.0508
 41
0.0508
 70
0
  0
VERTEX
  8
39
 10
-65.7350
 20
36.0350
 30
0.0000
  0
VERTEX
  8
39
 10
-62.7890
 20
36.0350
 30
0.0000
  0
SEQEND
  8
0
  0
POLYLINE
  8
39
 66
1
 10
0.0000
 20
0.0000
 30
0.0000
 40
0.0254
 41
0.0254
 70
0
  0
VERTEX
  8
39
 10
-62.7890
 20
36.0223
 30
0.0000
 42
1.0000
  0
VERTEX
  8
39
 10
-62.7890
 20
36.0477
 30
0.0000
  0
SEQEND
  8
0
  0
POLYLINE
  8
39
 66
1
 10
0.0000
 20
0.0000
 30
0.0000
 40
0.0254
 41
0.0254
 70
0
  0
VERTEX
  8
39
 10
-65.7350
 20
36.0477
 30
0.0000
 42
1.0000
  0
VERTEX
  8
39
 10
-65.7350
 20
36.0223
 30
0.0000
  0
SEQEND
  8
0
  0
POLYLINE
  8
39
 66
1
 10
0.0000
 20
0.0000
 30
0.0000
 40
0.0508
 41
0.0508
 70
0
  0
VERTEX
  8
39
 10
-62.7890
 20
36.0350
 30
0.0000
  0
VERTEX
  8
39
 10
-62.7890
 20
34.0690
 30
0.0000
  0
SEQEND
  8
0
  0
POLYLINE
  8
39
 66
1
 10
0.0000
 20
0.0000
 30
0.0000
 40
0.0254
 41
0.0254
 70
0
  0
VERTEX
  8
39
 10
-62.8017
 20
34.0690
 30
0.0000
 42
1.0000
  0
VERTEX
  8
39
 10
-62.7763
 20
34.0690
 30
0.0000
  0
SEQEND
  8
0
  0
POLYLINE
  8
39
 66
1
 10
0.0000
 20
0.0000
 30
0.0000
 40
0.0254
 41
0.0254
 70
0
  0
VERTEX
  8
39
 10
-62.7763
 20
36.0350
 30
0.0000
 42
1.0000
  0
VERTEX
  8
39
 10
-62.8017
 20
36.0350
 30
0.0000
  0
SEQEND
  8
0
  0
POLYLINE
  8
39
 66
1
 10
0.0000
 20
0.0000
 30
0.0000
 40
0.0508
 41
0.0508
 70
0
  0
VERTEX
  8
39
 10
-62.7890
 20
34.0690
 30
0.0000
  0
VERTEX
  8
39
 10
-65.7350
 20
34.0690
 30
0.0000
  0
SEQEND
  8
0
  0
POLYLINE
  8
39
 66
1
 10
0.0000
 20
0.0000
 30
0.0000
 40
0.0254
 41
0.0254
 70
0
  0
VERTEX
  8
39
 10
-65.7350
 20
34.0817
 30
0.0000
 42
1.0000
  0
VERTEX
  8
39
 10
-65.7350
 20
34.0563
 30
0.0000
  0
SEQEND
  8
0
  0
POLYLINE
  8
39
 66
1
 10
0.0000
 20
0.0000
 30
0.0000
 40
0.0254
 41
0.0254
 70
0
  0
VERTEX
  8
39
 10
-62.7890
 20
34.0563
 30
0.0000
 42
1.0000
  0
VERTEX
  8
39
 10
-62.7890
 20
34.0817
 30
0.0000
  0
SEQEND
  8
0
  0
POLYLINE
  8
39
 66
1
 10
0.0000
 20
0.0000
 30
0.0000
 40
0.0508
 41
0.0508
 70
0
  0
VERTEX
  8
39
 10
-65.7350
 20
34.0690
 30
0.0000
  0
VERTEX
  8
39
 10
-65.7350
 20
36.0350
 30
0.0000
  0
SEQEND
  8
0
  0
POLYLINE
  8
39
 66
1
 10
0.0000
 20
0.0000
 30
0.0000
 40
0.0254
 41
0.0254
 70
0
  0
VERTEX
  8
39
 10
-65.7223
 20
36.0350
 30
0.0000
 42
1.0000
  0
VERTEX
  8
39
 10
-65.7477
 20
36.0350
 30
0.0000
  0
SEQEND
  8
0
  0
POLYLINE
  8
39
 66
1
 10
0.0000
 20
0.0000
 30
0.0000
 40
0.0254
 41
0.0254
 70
0
  0
VERTEX
  8
39
 10
-65.7477
 20
34.0690
 30
0.0000
 42
1.0000
  0
VERTEX
  8
39
 10
-65.7223
 20
34.0690
 30
0.0000
  0
SEQEND
  8
0
  0
POLYLINE
  8
39
 66
1
 10
0.0000
 20
0.0000
 30
0.0000
 40
0.0508
 41
0.0508
 70
0
  0
VERTEX
  8
39
 10
-65.7350
 20
38.0670
 30
0.0000
  0
VERTEX
  8
39
 10
-62.7890
 20
38.0670
 30
0.0000
  0
SEQEND
  8
0
  0
POLYLINE
  8
39
 66
1
 10
0.0000
 20
0.0000
 30
0.0000
 40
0.0254
 41
0.0254
 70
0
  0
VERTEX
  8
39
 10
-62.7890
 20
38.0543
 30
0.0000
 42
1.0000
  0
VERTEX
  8
39
 10
-62.7890
 20
38.0797
 30
0.0000
  0
SEQEND
  8
0
  0
POLYLINE
  8
39
 66
1
 10
0.0000
 20
0.0000
 30
0.0000
 40
0.0254
 41
0.0254
 70
0
  0
VERTEX
  8
39
 10
-65.7350
 20
38.0797
 30
0.0000
 42
1.0000
  0
VERTEX
  8
39
 10
-65.7350
 20
38.0543
 30
0.0000
  0
SEQEND
  8
0
  0
POLYLINE
  8
39
 66
1
 10
0.0000
 20
0.0000
 30
0.0000
 40
0.0508
 41
0.0508
 70
0
  0
VERTEX
  8
39
 10
-62.7890
 20
38.0670
 30
0.0000
  0
VERTEX
  8
39
 10
-62.7890
 20
36.1010
 30
0.0000
  0
SEQEND
  8
0
  0
POLYLINE
  8
39
 66
1
 10
0.0000
 20
0.0000
 30
0.0000
 40
0.0254
 41
0.0254
 70
0
  0
VERTEX
  8
39
 10
-62.8017
 20
36.1010
 30
0.0000
 42
1.0000
  0
VERTEX
  8
39
 10
-62.7763
 20
36.1010
 30
0.0000
  0
SEQEND
  8
0
  0
POLYLINE
  8
39
 66
1
 10
0.0000
 20
0.0000
 30
0.0000
 40
0.0254
 41
0.0254
 70
0
  0
VERTEX
  8
39
 10
-62.7763
 20
38.0670
 30
0.0000
 42
1.0000
  0
VERTEX
  8
39
 10
-62.8017
 20
38.0670
 30
0.0000
  0
SEQEND
  8
0
  0
POLYLINE
  8
39
 66
1
 10
0.0000
 20
0.0000
 30
0.0000
 40
0.0508
 41
0.0508
 70
0
  0
VERTEX
  8
39
 10
-62.7890
 20
36.1010
 30
0.0000
  0
VERTEX
  8
39
 10
-65.7350
 20
36.1010
 30
0.0000
  0
SEQEND
  8
0
  0
POLYLINE
  8
39
 66
1
 10
0.0000
 20
0.0000
 30
0.0000
 40
0.0254
 41
0.0254
 70
0
  0
VERTEX
  8
39
 10
-65.7350
 20
36.1137
 30
0.0000
 42
1.0000
  0
VERTEX
  8
39
 10
-65.7350
 20
36.0883
 30
0.0000
  0
SEQEND
  8
0
  0
POLYLINE
  8
39
 66
1
 10
0.0000
 20
0.0000
 30
0.0000
 40
0.0254
 41
0.0254
 70
0
  0
VERTEX
  8
39
 10
-62.7890
 20
36.0883
 30
0.0000
 42
1.0000
  0
VERTEX
  8
39
 10
-62.7890
 20
36.1137
 30
0.0000
  0
SEQEND
  8
0
  0
POLYLINE
  8
39
 66
1
 10
0.0000
 20
0.0000
 30
0.0000
 40
0.0508
 41
0.0508
 70
0
  0
VERTEX
  8
39
 10
-65.7350
 20
36.1010
 30
0.0000
  0
VERTEX
  8
39
 10
-65.7350
 20
38.0670
 30
0.0000
  0
SEQEND
  8
0
  0
POLYLINE
  8
39
 66
1
 10
0.0000
 20
0.0000
 30
0.0000
 40
0.0254
 41
0.0254
 70
0
  0
VERTEX
  8
39
 10
-65.7223
 20
38.0670
 30
0.0000
 42
1.0000
  0
VERTEX
  8
39
 10
-65.7477
 20
38.0670
 30
0.0000
  0
SEQEND
  8
0
  0
POLYLINE
  8
39
 66
1
 10
0.0000
 20
0.0000
 30
0.0000
 40
0.0254
 41
0.0254
 70
0
  0
VERTEX
  8
39
 10
-65.7477
 20
36.1010
 30
0.0000
 42
1.0000
  0
VERTEX
  8
39
 10
-65.7223
 20
36.1010
 30
0.0000
  0
SEQEND
  8
0
  0
POLYLINE
  8
39
 66
1
 10
0.0000
 20
0.0000
 30
0.0000
 40
0.0508
 41
0.0508
 70
0
  0
VERTEX
  8
39
 10
-31.9530
 20
50.5130
 30
0.0000
  0
VERTEX
  8
39
 10
-29.0070
 20
50.5130
 30
0.0000
  0
SEQEND
  8
0
  0
POLYLINE
  8
39
 66
1
 10
0.0000
 20
0.0000
 30
0.0000
 40
0.0254
 41
0.0254
 70
0
  0
VERTEX
  8
39
 10
-29.0070
 20
50.5003
 30
0.0000
 42
1.0000
  0
VERTEX
  8
39
 10
-29.0070
 20
50.5257
 30
0.0000
  0
SEQEND
  8
0
  0
POLYLINE
  8
39
 66
1
 10
0.0000
 20
0.0000
 30
0.0000
 40
0.0254
 41
0.0254
 70
0
  0
VERTEX
  8
39
 10
-31.9530
 20
50.5257
 30
0.0000
 42
1.0000
  0
VERTEX
  8
39
 10
-31.9530
 20
50.5003
 30
0.0000
  0
SEQEND
  8
0
  0
POLYLINE
  8
39
 66
1
 10
0.0000
 20
0.0000
 30
0.0000
 40
0.0508
 41
0.0508
 70
0
  0
VERTEX
  8
39
 10
-29.0070
 20
50.5130
 30
0.0000
  0
VERTEX
  8
39
 10
-29.0070
 20
48.5470
 30
0.0000
  0
SEQEND
  8
0
  0
POLYLINE
  8
39
 66
1
 10
0.0000
 20
0.0000
 30
0.0000
 40
0.0254
 41
0.0254
 70
0
  0
VERTEX
  8
39
 10
-29.0197
 20
48.5470
 30
0.0000
 42
1.0000
  0
VERTEX
  8
39
 10
-28.9943
 20
48.5470
 30
0.0000
  0
SEQEND
  8
0
  0
POLYLINE
  8
39
 66
1
 10
0.0000
 20
0.0000
 30
0.0000
 40
0.0254
 41
0.0254
 70
0
  0
VERTEX
  8
39
 10
-28.9943
 20
50.5130
 30
0.0000
 42
1.0000
  0
VERTEX
  8
39
 10
-29.0197
 20
50.5130
 30
0.0000
  0
SEQEND
  8
0
  0
POLYLINE
  8
39
 66
1
 10
0.0000
 20
0.0000
 30
0.0000
 40
0.0508
 41
0.0508
 70
0
  0
VERTEX
  8
39
 10
-29.0070
 20
48.5470
 30
0.0000
  0
VERTEX
  8
39
 10
-31.9530
 20
48.5470
 30
0.0000
  0
SEQEND
  8
0
  0
POLYLINE
  8
39
 66
1
 10
0.0000
 20
0.0000
 30
0.0000
 40
0.0254
 41
0.0254
 70
0
  0
VERTEX
  8
39
 10
-31.9530
 20
48.5597
 30
0.0000
 42
1.0000
  0
VERTEX
  8
39
 10
-31.9530
 20
48.5343
 30
0.0000
  0
SEQEND
  8
0
  0
POLYLINE
  8
39
 66
1
 10
0.0000
 20
0.0000
 30
0.0000
 40
0.0254
 41
0.0254
 70
0
  0
VERTEX
  8
39
 10
-29.0070
 20
48.5343
 30
0.0000
 42
1.0000
  0
VERTEX
  8
39
 10
-29.0070
 20
48.5597
 30
0.0000
  0
SEQEND
  8
0
  0
POLYLINE
  8
39
 66
1
 10
0.0000
 20
0.0000
 30
0.0000
 40
0.0508
 41
0.0508
 70
0
  0
VERTEX
  8
39
 10
-31.9530
 20
48.5470
 30
0.0000
  0
VERTEX
  8
39
 10
-31.9530
 20
50.5130
 30
0.0000
  0
SEQEND
  8
0
  0
POLYLINE
  8
39
 66
1
 10
0.0000
 20
0.0000
 30
0.0000
 40
0.0254
 41
0.0254
 70
0
  0
VERTEX
  8
39
 10
-31.9403
 20
50.5130
 30
0.0000
 42
1.0000
  0
VERTEX
  8
39
 10
-31.9657
 20
50.5130
 30
0.0000
  0
SEQEND
  8
0
  0
POLYLINE
  8
39
 66
1
 10
0.0000
 20
0.0000
 30
0.0000
 40
0.0254
 41
0.0254
 70
0
  0
VERTEX
  8
39
 10
-31.9657
 20
48.5470
 30
0.0000
 42
1.0000
  0
VERTEX
  8
39
 10
-31.9403
 20
48.5470
 30
0.0000
  0
SEQEND
  8
0
  0
POLYLINE
  8
39
 66
1
 10
0.0000
 20
0.0000
 30
0.0000
 40
0.0508
 41
0.0508
 70
0
  0
VERTEX
  8
39
 10
-35.7630
 20
50.5130
 30
0.0000
  0
VERTEX
  8
39
 10
-32.8170
 20
50.5130
 30
0.0000
  0
SEQEND
  8
0
  0
POLYLINE
  8
39
 66
1
 10
0.0000
 20
0.0000
 30
0.0000
 40
0.0254
 41
0.0254
 70
0
  0
VERTEX
  8
39
 10
-32.8170
 20
50.5003
 30
0.0000
 42
1.0000
  0
VERTEX
  8
39
 10
-32.8170
 20
50.5257
 30
0.0000
  0
SEQEND
  8
0
  0
POLYLINE
  8
39
 66
1
 10
0.0000
 20
0.0000
 30
0.0000
 40
0.0254
 41
0.0254
 70
0
  0
VERTEX
  8
39
 10
-35.7630
 20
50.5257
 30
0.0000
 42
1.0000
  0
VERTEX
  8
39
 10
-35.7630
 20
50.5003
 30
0.0000
  0
SEQEND
  8
0
  0
POLYLINE
  8
39
 66
1
 10
0.0000
 20
0.0000
 30
0.0000
 40
0.0508
 41
0.0508
 70
0
  0
VERTEX
  8
39
 10
-32.8170
 20
50.5130
 30
0.0000
  0
VERTEX
  8
39
 10
-32.8170
 20
48.5470
 30
0.0000
  0
SEQEND
  8
0
  0
POLYLINE
  8
39
 66
1
 10
0.0000
 20
0.0000
 30
0.0000
 40
0.0254
 41
0.0254
 70
0
  0
VERTEX
  8
39
 10
-32.8297
 20
48.5470
 30
0.0000
 42
1.0000
  0
VERTEX
  8
39
 10
-32.8043
 20
48.5470
 30
0.0000
  0
SEQEND
  8
0
  0
POLYLINE
  8
39
 66
1
 10
0.0000
 20
0.0000
 30
0.0000
 40
0.0254
 41
0.0254
 70
0
  0
VERTEX
  8
39
 10
-32.8043
 20
50.5130
 30
0.0000
 42
1.0000
  0
VERTEX
  8
39
 10
-32.8297
 20
50.5130
 30
0.0000
  0
SEQEND
  8
0
  0
POLYLINE
  8
39
 66
1
 10
0.0000
 20
0.0000
 30
0.0000
 40
0.0508
 41
0.0508
 70
0
  0
VERTEX
  8
39
 10
-32.8170
 20
48.5470
 30
0.0000
  0
VERTEX
  8
39
 10
-35.7630
 20
48.5470
 30
0.0000
  0
SEQEND
  8
0
  0
POLYLINE
  8
39
 66
1
 10
0.0000
 20
0.0000
 30
0.0000
 40
0.0254
 41
0.0254
 70
0
  0
VERTEX
  8
39
 10
-35.7630
 20
48.5597
 30
0.0000
 42
1.0000
  0
VERTEX
  8
39
 10
-35.7630
 20
48.5343
 30
0.0000
  0
SEQEND
  8
0
  0
POLYLINE
  8
39
 66
1
 10
0.0000
 20
0.0000
 30
0.0000
 40
0.0254
 41
0.0254
 70
0
  0
VERTEX
  8
39
 10
-32.8170
 20
48.5343
 30
0.0000
 42
1.0000
  0
VERTEX
  8
39
 10
-32.8170
 20
48.5597
 30
0.0000
  0
SEQEND
  8
0
  0
POLYLINE
  8
39
 66
1
 10
0.0000
 20
0.0000
 30
0.0000
 40
0.0508
 41
0.0508
 70
0
  0
VERTEX
  8
39
 10
-35.7630
 20
48.5470
 30
0.0000
  0
VERTEX
  8
39
 10
-35.7630
 20
50.5130
 30
0.0000
  0
SEQEND
  8
0
  0
POLYLINE
  8
39
 66
1
 10
0.0000
 20
0.0000
 30
0.0000
 40
0.0254
 41
0.0254
 70
0
  0
VERTEX
  8
39
 10
-35.7503
 20
50.5130
 30
0.0000
 42
1.0000
  0
VERTEX
  8
39
 10
-35.7757
 20
50.5130
 30
0.0000
  0
SEQEND
  8
0
  0
POLYLINE
  8
39
 66
1
 10
0.0000
 20
0.0000
 30
0.0000
 40
0.0254
 41
0.0254
 70
0
  0
VERTEX
  8
39
 10
-35.7757
 20
48.5470
 30
0.0000
 42
1.0000
  0
VERTEX
  8
39
 10
-35.7503
 20
48.5470
 30
0.0000
  0
SEQEND
  8
0
  0
POLYLINE
  8
39
 66
1
 10
0.0000
 20
0.0000
 30
0.0000
 40
0.0508
 41
0.0508
 70
0
  0
VERTEX
  8
39
 10
-39.5730
 20
50.5130
 30
0.0000
  0
VERTEX
  8
39
 10
-36.6270
 20
50.5130
 30
0.0000
  0
SEQEND
  8
0
  0
POLYLINE
  8
39
 66
1
 10
0.0000
 20
0.0000
 30
0.0000
 40
0.0254
 41
0.0254
 70
0
  0
VERTEX
  8
39
 10
-36.6270
 20
50.5003
 30
0.0000
 42
1.0000
  0
VERTEX
  8
39
 10
-36.6270
 20
50.5257
 30
0.0000
  0
SEQEND
  8
0
  0
POLYLINE
  8
39
 66
1
 10
0.0000
 20
0.0000
 30
0.0000
 40
0.0254
 41
0.0254
 70
0
  0
VERTEX
  8
39
 10
-39.5730
 20
50.5257
 30
0.0000
 42
1.0000
  0
VERTEX
  8
39
 10
-39.5730
 20
50.5003
 30
0.0000
  0
SEQEND
  8
0
  0
POLYLINE
  8
39
 66
1
 10
0.0000
 20
0.0000
 30
0.0000
 40
0.0508
 41
0.0508
 70
0
  0
VERTEX
  8
39
 10
-36.6270
 20
50.5130
 30
0.0000
  0
VERTEX
  8
39
 10
-36.6270
 20
48.5470
 30
0.0000
  0
SEQEND
  8
0
  0
POLYLINE
  8
39
 66
1
 10
0.0000
 20
0.0000
 30
0.0000
 40
0.0254
 41
0.0254
 70
0
  0
VERTEX
  8
39
 10
-36.6397
 20
48.5470
 30
0.0000
 42
1.0000
  0
VERTEX
  8
39
 10
-36.6143
 20
48.5470
 30
0.0000
  0
SEQEND
  8
0
  0
POLYLINE
  8
39
 66
1
 10
0.0000
 20
0.0000
 30
0.0000
 40
0.0254
 41
0.0254
 70
0
  0
VERTEX
  8
39
 10
-36.6143
 20
50.5130
 30
0.0000
 42
1.0000
  0
VERTEX
  8
39
 10
-36.6397
 20
50.5130
 30
0.0000
  0
SEQEND
  8
0
  0
POLYLINE
  8
39
 66
1
 10
0.0000
 20
0.0000
 30
0.0000
 40
0.0508
 41
0.0508
 70
0
  0
VERTEX
  8
39
 10
-36.6270
 20
48.5470
 30
0.0000
  0
VERTEX
  8
39
 10
-39.5730
 20
48.5470
 30
0.0000
  0
SEQEND
  8
0
  0
POLYLINE
  8
39
 66
1
 10
0.0000
 20
0.0000
 30
0.0000
 40
0.0254
 41
0.0254
 70
0
  0
VERTEX
  8
39
 10
-39.5730
 20
48.5597
 30
0.0000
 42
1.0000
  0
VERTEX
  8
39
 10
-39.5730
 20
48.5343
 30
0.0000
  0
SEQEND
  8
0
  0
POLYLINE
  8
39
 66
1
 10
0.0000
 20
0.0000
 30
0.0000
 40
0.0254
 41
0.0254
 70
0
  0
VERTEX
  8
39
 10
-36.6270
 20
48.5343
 30
0.0000
 42
1.0000
  0
VERTEX
  8
39
 10
-36.6270
 20
48.5597
 30
0.0000
  0
SEQEND
  8
0
  0
POLYLINE
  8
39
 66
1
 10
0.0000
 20
0.0000
 30
0.0000
 40
0.0508
 41
0.0508
 70
0
  0
VERTEX
  8
39
 10
-39.5730
 20
48.5470
 30
0.0000
  0
VERTEX
  8
39
 10
-39.5730
 20
50.5130
 30
0.0000
  0
SEQEND
  8
0
  0
POLYLINE
  8
39
 66
1
 10
0.0000
 20
0.0000
 30
0.0000
 40
0.0254
 41
0.0254
 70
0
  0
VERTEX
  8
39
 10
-39.5603
 20
50.5130
 30
0.0000
 42
1.0000
  0
VERTEX
  8
39
 10
-39.5857
 20
50.5130
 30
0.0000
  0
SEQEND
  8
0
  0
POLYLINE
  8
39
 66
1
 10
0.0000
 20
0.0000
 30
0.0000
 40
0.0254
 41
0.0254
 70
0
  0
VERTEX
  8
39
 10
-39.5857
 20
48.5470
 30
0.0000
 42
1.0000
  0
VERTEX
  8
39
 10
-39.5603
 20
48.5470
 30
0.0000
  0
SEQEND
  8
0
  0
POLYLINE
  8
39
 66
1
 10
0.0000
 20
0.0000
 30
0.0000
 40
0.0508
 41
0.0508
 70
0
  0
VERTEX
  8
39
 10
-43.3830
 20
50.5130
 30
0.0000
  0
VERTEX
  8
39
 10
-40.4370
 20
50.5130
 30
0.0000
  0
SEQEND
  8
0
  0
POLYLINE
  8
39
 66
1
 10
0.0000
 20
0.0000
 30
0.0000
 40
0.0254
 41
0.0254
 70
0
  0
VERTEX
  8
39
 10
-40.4370
 20
50.5003
 30
0.0000
 42
1.0000
  0
VERTEX
  8
39
 10
-40.4370
 20
50.5257
 30
0.0000
  0
SEQEND
  8
0
  0
POLYLINE
  8
39
 66
1
 10
0.0000
 20
0.0000
 30
0.0000
 40
0.0254
 41
0.0254
 70
0
  0
VERTEX
  8
39
 10
-43.3830
 20
50.5257
 30
0.0000
 42
1.0000
  0
VERTEX
  8
39
 10
-43.3830
 20
50.5003
 30
0.0000
  0
SEQEND
  8
0
  0
POLYLINE
  8
39
 66
1
 10
0.0000
 20
0.0000
 30
0.0000
 40
0.0508
 41
0.0508
 70
0
  0
VERTEX
  8
39
 10
-40.4370
 20
50.5130
 30
0.0000
  0
VERTEX
  8
39
 10
-40.4370
 20
48.5470
 30
0.0000
  0
SEQEND
  8
0
  0
POLYLINE
  8
39
 66
1
 10
0.0000
 20
0.0000
 30
0.0000
 40
0.0254
 41
0.0254
 70
0
  0
VERTEX
  8
39
 10
-40.4497
 20
48.5470
 30
0.0000
 42
1.0000
  0
VERTEX
  8
39
 10
-40.4243
 20
48.5470
 30
0.0000
  0
SEQEND
  8
0
  0
POLYLINE
  8
39
 66
1
 10
0.0000
 20
0.0000
 30
0.0000
 40
0.0254
 41
0.0254
 70
0
  0
VERTEX
  8
39
 10
-40.4243
 20
50.5130
 30
0.0000
 42
1.0000
  0
VERTEX
  8
39
 10
-40.4497
 20
50.5130
 30
0.0000
  0
SEQEND
  8
0
  0
POLYLINE
  8
39
 66
1
 10
0.0000
 20
0.0000
 30
0.0000
 40
0.0508
 41
0.0508
 70
0
  0
VERTEX
  8
39
 10
-40.4370
 20
48.5470
 30
0.0000
  0
VERTEX
  8
39
 10
-43.3830
 20
48.5470
 30
0.0000
  0
SEQEND
  8
0
  0
POLYLINE
  8
39
 66
1
 10
0.0000
 20
0.0000
 30
0.0000
 40
0.0254
 41
0.0254
 70
0
  0
VERTEX
  8
39
 10
-43.3830
 20
48.5597
 30
0.0000
 42
1.0000
  0
VERTEX
  8
39
 10
-43.3830
 20
48.5343
 30
0.0000
  0
SEQEND
  8
0
  0
POLYLINE
  8
39
 66
1
 10
0.0000
 20
0.0000
 30
0.0000
 40
0.0254
 41
0.0254
 70
0
  0
VERTEX
  8
39
 10
-40.4370
 20
48.5343
 30
0.0000
 42
1.0000
  0
VERTEX
  8
39
 10
-40.4370
 20
48.5597
 30
0.0000
  0
SEQEND
  8
0
  0
POLYLINE
  8
39
 66
1
 10
0.0000
 20
0.0000
 30
0.0000
 40
0.0508
 41
0.0508
 70
0
  0
VERTEX
  8
39
 10
-43.3830
 20
48.5470
 30
0.0000
  0
VERTEX
  8
39
 10
-43.3830
 20
50.5130
 30
0.0000
  0
SEQEND
  8
0
  0
POLYLINE
  8
39
 66
1
 10
0.0000
 20
0.0000
 30
0.0000
 40
0.0254
 41
0.0254
 70
0
  0
VERTEX
  8
39
 10
-43.3703
 20
50.5130
 30
0.0000
 42
1.0000
  0
VERTEX
  8
39
 10
-43.3957
 20
50.5130
 30
0.0000
  0
SEQEND
  8
0
  0
POLYLINE
  8
39
 66
1
 10
0.0000
 20
0.0000
 30
0.0000
 40
0.0254
 41
0.0254
 70
0
  0
VERTEX
  8
39
 10
-43.3957
 20
48.5470
 30
0.0000
 42
1.0000
  0
VERTEX
  8
39
 10
-43.3703
 20
48.5470
 30
0.0000
  0
SEQEND
  8
0
  0
POLYLINE
  8
39
 66
1
 10
0.0000
 20
0.0000
 30
0.0000
 40
0.0508
 41
0.0508
 70
0
  0
VERTEX
  8
39
 10
-47.1930
 20
50.5130
 30
0.0000
  0
VERTEX
  8
39
 10
-44.2470
 20
50.5130
 30
0.0000
  0
SEQEND
  8
0
  0
POLYLINE
  8
39
 66
1
 10
0.0000
 20
0.0000
 30
0.0000
 40
0.0254
 41
0.0254
 70
0
  0
VERTEX
  8
39
 10
-44.2470
 20
50.5003
 30
0.0000
 42
1.0000
  0
VERTEX
  8
39
 10
-44.2470
 20
50.5257
 30
0.0000
  0
SEQEND
  8
0
  0
POLYLINE
  8
39
 66
1
 10
0.0000
 20
0.0000
 30
0.0000
 40
0.0254
 41
0.0254
 70
0
  0
VERTEX
  8
39
 10
-47.1930
 20
50.5257
 30
0.0000
 42
1.0000
  0
VERTEX
  8
39
 10
-47.1930
 20
50.5003
 30
0.0000
  0
SEQEND
  8
0
  0
POLYLINE
  8
39
 66
1
 10
0.0000
 20
0.0000
 30
0.0000
 40
0.0508
 41
0.0508
 70
0
  0
VERTEX
  8
39
 10
-44.2470
 20
50.5130
 30
0.0000
  0
VERTEX
  8
39
 10
-44.2470
 20
48.5470
 30
0.0000
  0
SEQEND
  8
0
  0
POLYLINE
  8
39
 66
1
 10
0.0000
 20
0.0000
 30
0.0000
 40
0.0254
 41
0.0254
 70
0
  0
VERTEX
  8
39
 10
-44.2597
 20
48.5470
 30
0.0000
 42
1.0000
  0
VERTEX
  8
39
 10
-44.2343
 20
48.5470
 30
0.0000
  0
SEQEND
  8
0
  0
POLYLINE
  8
39
 66
1
 10
0.0000
 20
0.0000
 30
0.0000
 40
0.0254
 41
0.0254
 70
0
  0
VERTEX
  8
39
 10
-44.2343
 20
50.5130
 30
0.0000
 42
1.0000
  0
VERTEX
  8
39
 10
-44.2597
 20
50.5130
 30
0.0000
  0
SEQEND
  8
0
  0
POLYLINE
  8
39
 66
1
 10
0.0000
 20
0.0000
 30
0.0000
 40
0.0508
 41
0.0508
 70
0
  0
VERTEX
  8
39
 10
-44.2470
 20
48.5470
 30
0.0000
  0
VERTEX
  8
39
 10
-47.1930
 20
48.5470
 30
0.0000
  0
SEQEND
  8
0
  0
POLYLINE
  8
39
 66
1
 10
0.0000
 20
0.0000
 30
0.0000
 40
0.0254
 41
0.0254
 70
0
  0
VERTEX
  8
39
 10
-47.1930
 20
48.5597
 30
0.0000
 42
1.0000
  0
VERTEX
  8
39
 10
-47.1930
 20
48.5343
 30
0.0000
  0
SEQEND
  8
0
  0
POLYLINE
  8
39
 66
1
 10
0.0000
 20
0.0000
 30
0.0000
 40
0.0254
 41
0.0254
 70
0
  0
VERTEX
  8
39
 10
-44.2470
 20
48.5343
 30
0.0000
 42
1.0000
  0
VERTEX
  8
39
 10
-44.2470
 20
48.5597
 30
0.0000
  0
SEQEND
  8
0
  0
POLYLINE
  8
39
 66
1
 10
0.0000
 20
0.0000
 30
0.0000
 40
0.0508
 41
0.0508
 70
0
  0
VERTEX
  8
39
 10
-47.1930
 20
48.5470
 30
0.0000
  0
VERTEX
  8
39
 10
-47.1930
 20
50.5130
 30
0.0000
  0
SEQEND
  8
0
  0
POLYLINE
  8
39
 66
1
 10
0.0000
 20
0.0000
 30
0.0000
 40
0.0254
 41
0.0254
 70
0
  0
VERTEX
  8
39
 10
-47.1803
 20
50.5130
 30
0.0000
 42
1.0000
  0
VERTEX
  8
39
 10
-47.2057
 20
50.5130
 30
0.0000
  0
SEQEND
  8
0
  0
POLYLINE
  8
39
 66
1
 10
0.0000
 20
0.0000
 30
0.0000
 40
0.0254
 41
0.0254
 70
0
  0
VERTEX
  8
39
 10
-47.2057
 20
48.5470
 30
0.0000
 42
1.0000
  0
VERTEX
  8
39
 10
-47.1803
 20
48.5470
 30
0.0000
  0
SEQEND
  8
0
  0
POLYLINE
  8
39
 66
1
 10
0.0000
 20
0.0000
 30
0.0000
 40
0.0508
 41
0.0508
 70
0
  0
VERTEX
  8
39
 10
-51.0030
 20
50.5130
 30
0.0000
  0
VERTEX
  8
39
 10
-48.0570
 20
50.5130
 30
0.0000
  0
SEQEND
  8
0
  0
POLYLINE
  8
39
 66
1
 10
0.0000
 20
0.0000
 30
0.0000
 40
0.0254
 41
0.0254
 70
0
  0
VERTEX
  8
39
 10
-48.0570
 20
50.5003
 30
0.0000
 42
1.0000
  0
VERTEX
  8
39
 10
-48.0570
 20
50.5257
 30
0.0000
  0
SEQEND
  8
0
  0
POLYLINE
  8
39
 66
1
 10
0.0000
 20
0.0000
 30
0.0000
 40
0.0254
 41
0.0254
 70
0
  0
VERTEX
  8
39
 10
-51.0030
 20
50.5257
 30
0.0000
 42
1.0000
  0
VERTEX
  8
39
 10
-51.0030
 20
50.5003
 30
0.0000
  0
SEQEND
  8
0
  0
POLYLINE
  8
39
 66
1
 10
0.0000
 20
0.0000
 30
0.0000
 40
0.0508
 41
0.0508
 70
0
  0
VERTEX
  8
39
 10
-48.0570
 20
50.5130
 30
0.0000
  0
VERTEX
  8
39
 10
-48.0570
 20
48.5470
 30
0.0000
  0
SEQEND
  8
0
  0
POLYLINE
  8
39
 66
1
 10
0.0000
 20
0.0000
 30
0.0000
 40
0.0254
 41
0.0254
 70
0
  0
VERTEX
  8
39
 10
-48.0697
 20
48.5470
 30
0.0000
 42
1.0000
  0
VERTEX
  8
39
 10
-48.0443
 20
48.5470
 30
0.0000
  0
SEQEND
  8
0
  0
POLYLINE
  8
39
 66
1
 10
0.0000
 20
0.0000
 30
0.0000
 40
0.0254
 41
0.0254
 70
0
  0
VERTEX
  8
39
 10
-48.0443
 20
50.5130
 30
0.0000
 42
1.0000
  0
VERTEX
  8
39
 10
-48.0697
 20
50.5130
 30
0.0000
  0
SEQEND
  8
0
  0
POLYLINE
  8
39
 66
1
 10
0.0000
 20
0.0000
 30
0.0000
 40
0.0508
 41
0.0508
 70
0
  0
VERTEX
  8
39
 10
-48.0570
 20
48.5470
 30
0.0000
  0
VERTEX
  8
39
 10
-51.0030
 20
48.5470
 30
0.0000
  0
SEQEND
  8
0
  0
POLYLINE
  8
39
 66
1
 10
0.0000
 20
0.0000
 30
0.0000
 40
0.0254
 41
0.0254
 70
0
  0
VERTEX
  8
39
 10
-51.0030
 20
48.5597
 30
0.0000
 42
1.0000
  0
VERTEX
  8
39
 10
-51.0030
 20
48.5343
 30
0.0000
  0
SEQEND
  8
0
  0
POLYLINE
  8
39
 66
1
 10
0.0000
 20
0.0000
 30
0.0000
 40
0.0254
 41
0.0254
 70
0
  0
VERTEX
  8
39
 10
-48.0570
 20
48.5343
 30
0.0000
 42
1.0000
  0
VERTEX
  8
39
 10
-48.0570
 20
48.5597
 30
0.0000
  0
SEQEND
  8
0
  0
POLYLINE
  8
39
 66
1
 10
0.0000
 20
0.0000
 30
0.0000
 40
0.0508
 41
0.0508
 70
0
  0
VERTEX
  8
39
 10
-51.0030
 20
48.5470
 30
0.0000
  0
VERTEX
  8
39
 10
-51.0030
 20
50.5130
 30
0.0000
  0
SEQEND
  8
0
  0
POLYLINE
  8
39
 66
1
 10
0.0000
 20
0.0000
 30
0.0000
 40
0.0254
 41
0.0254
 70
0
  0
VERTEX
  8
39
 10
-50.9903
 20
50.5130
 30
0.0000
 42
1.0000
  0
VERTEX
  8
39
 10
-51.0157
 20
50.5130
 30
0.0000
  0
SEQEND
  8
0
  0
POLYLINE
  8
39
 66
1
 10
0.0000
 20
0.0000
 30
0.0000
 40
0.0254
 41
0.0254
 70
0
  0
VERTEX
  8
39
 10
-51.0157
 20
48.5470
 30
0.0000
 42
1.0000
  0
VERTEX
  8
39
 10
-50.9903
 20
48.5470
 30
0.0000
  0
SEQEND
  8
0
  0
POLYLINE
  8
39
 66
1
 10
0.0000
 20
0.0000
 30
0.0000
 40
0.0508
 41
0.0508
 70
0
  0
VERTEX
  8
39
 10
-37.1600
 20
-42.4800
 30
0.0000
  0
VERTEX
  8
39
 10
-33.9600
 20
-42.4800
 30
0.0000
  0
SEQEND
  8
0
  0
POLYLINE
  8
39
 66
1
 10
0.0000
 20
0.0000
 30
0.0000
 40
0.0254
 41
0.0254
 70
0
  0
VERTEX
  8
39
 10
-33.9600
 20
-42.4927
 30
0.0000
 42
1.0000
  0
VERTEX
  8
39
 10
-33.9600
 20
-42.4673
 30
0.0000
  0
SEQEND
  8
0
  0
POLYLINE
  8
39
 66
1
 10
0.0000
 20
0.0000
 30
0.0000
 40
0.0254
 41
0.0254
 70
0
  0
VERTEX
  8
39
 10
-37.1600
 20
-42.4673
 30
0.0000
 42
1.0000
  0
VERTEX
  8
39
 10
-37.1600
 20
-42.4927
 30
0.0000
  0
SEQEND
  8
0
  0
POLYLINE
  8
39
 66
1
 10
0.0000
 20
0.0000
 30
0.0000
 40
0.0508
 41
0.0508
 70
0
  0
VERTEX
  8
39
 10
-33.9600
 20
-42.4800
 30
0.0000
  0
VERTEX
  8
39
 10
-33.9600
 20
-43.8800
 30
0.0000
  0
SEQEND
  8
0
  0
POLYLINE
  8
39
 66
1
 10
0.0000
 20
0.0000
 30
0.0000
 40
0.0254
 41
0.0254
 70
0
  0
VERTEX
  8
39
 10
-33.9727
 20
-43.8800
 30
0.0000
 42
1.0000
  0
VERTEX
  8
39
 10
-33.9473
 20
-43.8800
 30
0.0000
  0
SEQEND
  8
0
  0
POLYLINE
  8
39
 66
1
 10
0.0000
 20
0.0000
 30
0.0000
 40
0.0254
 41
0.0254
 70
0
  0
VERTEX
  8
39
 10
-33.9473
 20
-42.4800
 30
0.0000
 42
1.0000
  0
VERTEX
  8
39
 10
-33.9727
 20
-42.4800
 30
0.0000
  0
SEQEND
  8
0
  0
POLYLINE
  8
39
 66
1
 10
0.0000
 20
0.0000
 30
0.0000
 40
0.0508
 41
0.0508
 70
0
  0
VERTEX
  8
39
 10
-33.9600
 20
-43.8800
 30
0.0000
  0
VERTEX
  8
39
 10
-37.1600
 20
-43.8800
 30
0.0000
  0
SEQEND
  8
0
  0
POLYLINE
  8
39
 66
1
 10
0.0000
 20
0.0000
 30
0.0000
 40
0.0254
 41
0.0254
 70
0
  0
VERTEX
  8
39
 10
-37.1600
 20
-43.8673
 30
0.0000
 42
1.0000
  0
VERTEX
  8
39
 10
-37.1600
 20
-43.8927
 30
0.0000
  0
SEQEND
  8
0
  0
POLYLINE
  8
39
 66
1
 10
0.0000
 20
0.0000
 30
0.0000
 40
0.0254
 41
0.0254
 70
0
  0
VERTEX
  8
39
 10
-33.9600
 20
-43.8927
 30
0.0000
 42
1.0000
  0
VERTEX
  8
39
 10
-33.9600
 20
-43.8673
 30
0.0000
  0
SEQEND
  8
0
  0
POLYLINE
  8
39
 66
1
 10
0.0000
 20
0.0000
 30
0.0000
 40
0.0508
 41
0.0508
 70
0
  0
VERTEX
  8
39
 10
-37.1600
 20
-43.8800
 30
0.0000
  0
VERTEX
  8
39
 10
-37.1600
 20
-42.4800
 30
0.0000
  0
SEQEND
  8
0
  0
POLYLINE
  8
39
 66
1
 10
0.0000
 20
0.0000
 30
0.0000
 40
0.0254
 41
0.0254
 70
0
  0
VERTEX
  8
39
 10
-37.1473
 20
-42.4800
 30
0.0000
 42
1.0000
  0
VERTEX
  8
39
 10
-37.1727
 20
-42.4800
 30
0.0000
  0
SEQEND
  8
0
  0
POLYLINE
  8
39
 66
1
 10
0.0000
 20
0.0000
 30
0.0000
 40
0.0254
 41
0.0254
 70
0
  0
VERTEX
  8
39
 10
-37.1727
 20
-43.8800
 30
0.0000
 42
1.0000
  0
VERTEX
  8
39
 10
-37.1473
 20
-43.8800
 30
0.0000
  0
SEQEND
  8
0
  0
POLYLINE
  8
39
 66
1
 10
0.0000
 20
0.0000
 30
0.0000
 40
0.0508
 41
0.0508
 70
0
  0
VERTEX
  8
39
 10
-30.8100
 20
-42.4800
 30
0.0000
  0
VERTEX
  8
39
 10
-27.6100
 20
-42.4800
 30
0.0000
  0
SEQEND
  8
0
  0
POLYLINE
  8
39
 66
1
 10
0.0000
 20
0.0000
 30
0.0000
 40
0.0254
 41
0.0254
 70
0
  0
VERTEX
  8
39
 10
-27.6100
 20
-42.4927
 30
0.0000
 42
1.0000
  0
VERTEX
  8
39
 10
-27.6100
 20
-42.4673
 30
0.0000
  0
SEQEND
  8
0
  0
POLYLINE
  8
39
 66
1
 10
0.0000
 20
0.0000
 30
0.0000
 40
0.0254
 41
0.0254
 70
0
  0
VERTEX
  8
39
 10
-30.8100
 20
-42.4673
 30
0.0000
 42
1.0000
  0
VERTEX
  8
39
 10
-30.8100
 20
-42.4927
 30
0.0000
  0
SEQEND
  8
0
  0
POLYLINE
  8
39
 66
1
 10
0.0000
 20
0.0000
 30
0.0000
 40
0.0508
 41
0.0508
 70
0
  0
VERTEX
  8
39
 10
-27.6100
 20
-42.4800
 30
0.0000
  0
VERTEX
  8
39
 10
-27.6100
 20
-43.8800
 30
0.0000
  0
SEQEND
  8
0
  0
POLYLINE
  8
39
 66
1
 10
0.0000
 20
0.0000
 30
0.0000
 40
0.0254
 41
0.0254
 70
0
  0
VERTEX
  8
39
 10
-27.6227
 20
-43.8800
 30
0.0000
 42
1.0000
  0
VERTEX
  8
39
 10
-27.5973
 20
-43.8800
 30
0.0000
  0
SEQEND
  8
0
  0
POLYLINE
  8
39
 66
1
 10
0.0000
 20
0.0000
 30
0.0000
 40
0.0254
 41
0.0254
 70
0
  0
VERTEX
  8
39
 10
-27.5973
 20
-42.4800
 30
0.0000
 42
1.0000
  0
VERTEX
  8
39
 10
-27.6227
 20
-42.4800
 30
0.0000
  0
SEQEND
  8
0
  0
POLYLINE
  8
39
 66
1
 10
0.0000
 20
0.0000
 30
0.0000
 40
0.0508
 41
0.0508
 70
0
  0
VERTEX
  8
39
 10
-27.6100
 20
-43.8800
 30
0.0000
  0
VERTEX
  8
39
 10
-30.8100
 20
-43.8800
 30
0.0000
  0
SEQEND
  8
0
  0
POLYLINE
  8
39
 66
1
 10
0.0000
 20
0.0000
 30
0.0000
 40
0.0254
 41
0.0254
 70
0
  0
VERTEX
  8
39
 10
-30.8100
 20
-43.8673
 30
0.0000
 42
1.0000
  0
VERTEX
  8
39
 10
-30.8100
 20
-43.8927
 30
0.0000
  0
SEQEND
  8
0
  0
POLYLINE
  8
39
 66
1
 10
0.0000
 20
0.0000
 30
0.0000
 40
0.0254
 41
0.0254
 70
0
  0
VERTEX
  8
39
 10
-27.6100
 20
-43.8927
 30
0.0000
 42
1.0000
  0
VERTEX
  8
39
 10
-27.6100
 20
-43.8673
 30
0.0000
  0
SEQEND
  8
0
  0
POLYLINE
  8
39
 66
1
 10
0.0000
 20
0.0000
 30
0.0000
 40
0.0508
 41
0.0508
 70
0
  0
VERTEX
  8
39
 10
-30.8100
 20
-43.8800
 30
0.0000
  0
VERTEX
  8
39
 10
-30.8100
 20
-42.4800
 30
0.0000
  0
SEQEND
  8
0
  0
POLYLINE
  8
39
 66
1
 10
0.0000
 20
0.0000
 30
0.0000
 40
0.0254
 41
0.0254
 70
0
  0
VERTEX
  8
39
 10
-30.7973
 20
-42.4800
 30
0.0000
 42
1.0000
  0
VERTEX
  8
39
 10
-30.8227
 20
-42.4800
 30
0.0000
  0
SEQEND
  8
0
  0
POLYLINE
  8
39
 66
1
 10
0.0000
 20
0.0000
 30
0.0000
 40
0.0254
 41
0.0254
 70
0
  0
VERTEX
  8
39
 10
-30.8227
 20
-43.8800
 30
0.0000
 42
1.0000
  0
VERTEX
  8
39
 10
-30.7973
 20
-43.8800
 30
0.0000
  0
SEQEND
  8
0
  0
POLYLINE
  8
39
 66
1
 10
0.0000
 20
0.0000
 30
0.0000
 40
0.0508
 41
0.0508
 70
0
  0
VERTEX
  8
39
 10
-24.4600
 20
-42.4800
 30
0.0000
  0
VERTEX
  8
39
 10
-21.2600
 20
-42.4800
 30
0.0000
  0
SEQEND
  8
0
  0
POLYLINE
  8
39
 66
1
 10
0.0000
 20
0.0000
 30
0.0000
 40
0.0254
 41
0.0254
 70
0
  0
VERTEX
  8
39
 10
-21.2600
 20
-42.4927
 30
0.0000
 42
1.0000
  0
VERTEX
  8
39
 10
-21.2600
 20
-42.4673
 30
0.0000
  0
SEQEND
  8
0
  0
POLYLINE
  8
39
 66
1
 10
0.0000
 20
0.0000
 30
0.0000
 40
0.0254
 41
0.0254
 70
0
  0
VERTEX
  8
39
 10
-24.4600
 20
-42.4673
 30
0.0000
 42
1.0000
  0
VERTEX
  8
39
 10
-24.4600
 20
-42.4927
 30
0.0000
  0
SEQEND
  8
0
  0
POLYLINE
  8
39
 66
1
 10
0.0000
 20
0.0000
 30
0.0000
 40
0.0508
 41
0.0508
 70
0
  0
VERTEX
  8
39
 10
-21.2600
 20
-42.4800
 30
0.0000
  0
VERTEX
  8
39
 10
-21.2600
 20
-43.8800
 30
0.0000
  0
SEQEND
  8
0
  0
POLYLINE
  8
39
 66
1
 10
0.0000
 20
0.0000
 30
0.0000
 40
0.0254
 41
0.0254
 70
0
  0
VERTEX
  8
39
 10
-21.2727
 20
-43.8800
 30
0.0000
 42
1.0000
  0
VERTEX
  8
39
 10
-21.2473
 20
-43.8800
 30
0.0000
  0
SEQEND
  8
0
  0
POLYLINE
  8
39
 66
1
 10
0.0000
 20
0.0000
 30
0.0000
 40
0.0254
 41
0.0254
 70
0
  0
VERTEX
  8
39
 10
-21.2473
 20
-42.4800
 30
0.0000
 42
1.0000
  0
VERTEX
  8
39
 10
-21.2727
 20
-42.4800
 30
0.0000
  0
SEQEND
  8
0
  0
POLYLINE
  8
39
 66
1
 10
0.0000
 20
0.0000
 30
0.0000
 40
0.0508
 41
0.0508
 70
0
  0
VERTEX
  8
39
 10
-21.2600
 20
-43.8800
 30
0.0000
  0
VERTEX
  8
39
 10
-24.4600
 20
-43.8800
 30
0.0000
  0
SEQEND
  8
0
  0
POLYLINE
  8
39
 66
1
 10
0.0000
 20
0.0000
 30
0.0000
 40
0.0254
 41
0.0254
 70
0
  0
VERTEX
  8
39
 10
-24.4600
 20
-43.8673
 30
0.0000
 42
1.0000
  0
VERTEX
  8
39
 10
-24.4600
 20
-43.8927
 30
0.0000
  0
SEQEND
  8
0
  0
POLYLINE
  8
39
 66
1
 10
0.0000
 20
0.0000
 30
0.0000
 40
0.0254
 41
0.0254
 70
0
  0
VERTEX
  8
39
 10
-21.2600
 20
-43.8927
 30
0.0000
 42
1.0000
  0
VERTEX
  8
39
 10
-21.2600
 20
-43.8673
 30
0.0000
  0
SEQEND
  8
0
  0
POLYLINE
  8
39
 66
1
 10
0.0000
 20
0.0000
 30
0.0000
 40
0.0508
 41
0.0508
 70
0
  0
VERTEX
  8
39
 10
-24.4600
 20
-43.8800
 30
0.0000
  0
VERTEX
  8
39
 10
-24.4600
 20
-42.4800
 30
0.0000
  0
SEQEND
  8
0
  0
POLYLINE
  8
39
 66
1
 10
0.0000
 20
0.0000
 30
0.0000
 40
0.0254
 41
0.0254
 70
0
  0
VERTEX
  8
39
 10
-24.4473
 20
-42.4800
 30
0.0000
 42
1.0000
  0
VERTEX
  8
39
 10
-24.4727
 20
-42.4800
 30
0.0000
  0
SEQEND
  8
0
  0
POLYLINE
  8
39
 66
1
 10
0.0000
 20
0.0000
 30
0.0000
 40
0.0254
 41
0.0254
 70
0
  0
VERTEX
  8
39
 10
-24.4727
 20
-43.8800
 30
0.0000
 42
1.0000
  0
VERTEX
  8
39
 10
-24.4473
 20
-43.8800
 30
0.0000
  0
SEQEND
  8
0
  0
POLYLINE
  8
39
 66
1
 10
0.0000
 20
0.0000
 30
0.0000
 40
0.0508
 41
0.0508
 70
0
  0
VERTEX
  8
39
 10
-56.2100
 20
-46.2900
 30
0.0000
  0
VERTEX
  8
39
 10
-53.0100
 20
-46.2900
 30
0.0000
  0
SEQEND
  8
0
  0
POLYLINE
  8
39
 66
1
 10
0.0000
 20
0.0000
 30
0.0000
 40
0.0254
 41
0.0254
 70
0
  0
VERTEX
  8
39
 10
-53.0100
 20
-46.3027
 30
0.0000
 42
1.0000
  0
VERTEX
  8
39
 10
-53.0100
 20
-46.2773
 30
0.0000
  0
SEQEND
  8
0
  0
POLYLINE
  8
39
 66
1
 10
0.0000
 20
0.0000
 30
0.0000
 40
0.0254
 41
0.0254
 70
0
  0
VERTEX
  8
39
 10
-56.2100
 20
-46.2773
 30
0.0000
 42
1.0000
  0
VERTEX
  8
39
 10
-56.2100
 20
-46.3027
 30
0.0000
  0
SEQEND
  8
0
  0
POLYLINE
  8
39
 66
1
 10
0.0000
 20
0.0000
 30
0.0000
 40
0.0508
 41
0.0508
 70
0
  0
VERTEX
  8
39
 10
-53.0100
 20
-46.2900
 30
0.0000
  0
VERTEX
  8
39
 10
-53.0100
 20
-47.6900
 30
0.0000
  0
SEQEND
  8
0
  0
POLYLINE
  8
39
 66
1
 10
0.0000
 20
0.0000
 30
0.0000
 40
0.0254
 41
0.0254
 70
0
  0
VERTEX
  8
39
 10
-53.0227
 20
-47.6900
 30
0.0000
 42
1.0000
  0
VERTEX
  8
39
 10
-52.9973
 20
-47.6900
 30
0.0000
  0
SEQEND
  8
0
  0
POLYLINE
  8
39
 66
1
 10
0.0000
 20
0.0000
 30
0.0000
 40
0.0254
 41
0.0254
 70
0
  0
VERTEX
  8
39
 10
-52.9973
 20
-46.2900
 30
0.0000
 42
1.0000
  0
VERTEX
  8
39
 10
-53.0227
 20
-46.2900
 30
0.0000
  0
SEQEND
  8
0
  0
POLYLINE
  8
39
 66
1
 10
0.0000
 20
0.0000
 30
0.0000
 40
0.0508
 41
0.0508
 70
0
  0
VERTEX
  8
39
 10
-53.0100
 20
-47.6900
 30
0.0000
  0
VERTEX
  8
39
 10
-56.2100
 20
-47.6900
 30
0.0000
  0
SEQEND
  8
0
  0
POLYLINE
  8
39
 66
1
 10
0.0000
 20
0.0000
 30
0.0000
 40
0.0254
 41
0.0254
 70
0
  0
VERTEX
  8
39
 10
-56.2100
 20
-47.6773
 30
0.0000
 42
1.0000
  0
VERTEX
  8
39
 10
-56.2100
 20
-47.7027
 30
0.0000
  0
SEQEND
  8
0
  0
POLYLINE
  8
39
 66
1
 10
0.0000
 20
0.0000
 30
0.0000
 40
0.0254
 41
0.0254
 70
0
  0
VERTEX
  8
39
 10
-53.0100
 20
-47.7027
 30
0.0000
 42
1.0000
  0
VERTEX
  8
39
 10
-53.0100
 20
-47.6773
 30
0.0000
  0
SEQEND
  8
0
  0
POLYLINE
  8
39
 66
1
 10
0.0000
 20
0.0000
 30
0.0000
 40
0.0508
 41
0.0508
 70
0
  0
VERTEX
  8
39
 10
-56.2100
 20
-47.6900
 30
0.0000
  0
VERTEX
  8
39
 10
-56.2100
 20
-46.2900
 30
0.0000
  0
SEQEND
  8
0
  0
POLYLINE
  8
39
 66
1
 10
0.0000
 20
0.0000
 30
0.0000
 40
0.0254
 41
0.0254
 70
0
  0
VERTEX
  8
39
 10
-56.1973
 20
-46.2900
 30
0.0000
 42
1.0000
  0
VERTEX
  8
39
 10
-56.2227
 20
-46.2900
 30
0.0000
  0
SEQEND
  8
0
  0
POLYLINE
  8
39
 66
1
 10
0.0000
 20
0.0000
 30
0.0000
 40
0.0254
 41
0.0254
 70
0
  0
VERTEX
  8
39
 10
-56.2227
 20
-47.6900
 30
0.0000
 42
1.0000
  0
VERTEX
  8
39
 10
-56.1973
 20
-47.6900
 30
0.0000
  0
SEQEND
  8
0
  0
POLYLINE
  8
39
 66
1
 10
0.0000
 20
0.0000
 30
0.0000
 40
0.0508
 41
0.0508
 70
0
  0
VERTEX
  8
39
 10
-49.8600
 20
-46.2900
 30
0.0000
  0
VERTEX
  8
39
 10
-46.6600
 20
-46.2900
 30
0.0000
  0
SEQEND
  8
0
  0
POLYLINE
  8
39
 66
1
 10
0.0000
 20
0.0000
 30
0.0000
 40
0.0254
 41
0.0254
 70
0
  0
VERTEX
  8
39
 10
-46.6600
 20
-46.3027
 30
0.0000
 42
1.0000
  0
VERTEX
  8
39
 10
-46.6600
 20
-46.2773
 30
0.0000
  0
SEQEND
  8
0
  0
POLYLINE
  8
39
 66
1
 10
0.0000
 20
0.0000
 30
0.0000
 40
0.0254
 41
0.0254
 70
0
  0
VERTEX
  8
39
 10
-49.8600
 20
-46.2773
 30
0.0000
 42
1.0000
  0
VERTEX
  8
39
 10
-49.8600
 20
-46.3027
 30
0.0000
  0
SEQEND
  8
0
  0
POLYLINE
  8
39
 66
1
 10
0.0000
 20
0.0000
 30
0.0000
 40
0.0508
 41
0.0508
 70
0
  0
VERTEX
  8
39
 10
-46.6600
 20
-46.2900
 30
0.0000
  0
VERTEX
  8
39
 10
-46.6600
 20
-47.6900
 30
0.0000
  0
SEQEND
  8
0
  0
POLYLINE
  8
39
 66
1
 10
0.0000
 20
0.0000
 30
0.0000
 40
0.0254
 41
0.0254
 70
0
  0
VERTEX
  8
39
 10
-46.6727
 20
-47.6900
 30
0.0000
 42
1.0000
  0
VERTEX
  8
39
 10
-46.6473
 20
-47.6900
 30
0.0000
  0
SEQEND
  8
0
  0
POLYLINE
  8
39
 66
1
 10
0.0000
 20
0.0000
 30
0.0000
 40
0.0254
 41
0.0254
 70
0
  0
VERTEX
  8
39
 10
-46.6473
 20
-46.2900
 30
0.0000
 42
1.0000
  0
VERTEX
  8
39
 10
-46.6727
 20
-46.2900
 30
0.0000
  0
SEQEND
  8
0
  0
POLYLINE
  8
39
 66
1
 10
0.0000
 20
0.0000
 30
0.0000
 40
0.0508
 41
0.0508
 70
0
  0
VERTEX
  8
39
 10
-46.6600
 20
-47.6900
 30
0.0000
  0
VERTEX
  8
39
 10
-49.8600
 20
-47.6900
 30
0.0000
  0
SEQEND
  8
0
  0
POLYLINE
  8
39
 66
1
 10
0.0000
 20
0.0000
 30
0.0000
 40
0.0254
 41
0.0254
 70
0
  0
VERTEX
  8
39
 10
-49.8600
 20
-47.6773
 30
0.0000
 42
1.0000
  0
VERTEX
  8
39
 10
-49.8600
 20
-47.7027
 30
0.0000
  0
SEQEND
  8
0
  0
POLYLINE
  8
39
 66
1
 10
0.0000
 20
0.0000
 30
0.0000
 40
0.0254
 41
0.0254
 70
0
  0
VERTEX
  8
39
 10
-46.6600
 20
-47.7027
 30
0.0000
 42
1.0000
  0
VERTEX
  8
39
 10
-46.6600
 20
-47.6773
 30
0.0000
  0
SEQEND
  8
0
  0
POLYLINE
  8
39
 66
1
 10
0.0000
 20
0.0000
 30
0.0000
 40
0.0508
 41
0.0508
 70
0
  0
VERTEX
  8
39
 10
-49.8600
 20
-47.6900
 30
0.0000
  0
VERTEX
  8
39
 10
-49.8600
 20
-46.2900
 30
0.0000
  0
SEQEND
  8
0
  0
POLYLINE
  8
39
 66
1
 10
0.0000
 20
0.0000
 30
0.0000
 40
0.0254
 41
0.0254
 70
0
  0
VERTEX
  8
39
 10
-49.8473
 20
-46.2900
 30
0.0000
 42
1.0000
  0
VERTEX
  8
39
 10
-49.8727
 20
-46.2900
 30
0.0000
  0
SEQEND
  8
0
  0
POLYLINE
  8
39
 66
1
 10
0.0000
 20
0.0000
 30
0.0000
 40
0.0254
 41
0.0254
 70
0
  0
VERTEX
  8
39
 10
-49.8727
 20
-47.6900
 30
0.0000
 42
1.0000
  0
VERTEX
  8
39
 10
-49.8473
 20
-47.6900
 30
0.0000
  0
SEQEND
  8
0
  0
POLYLINE
  8
39
 66
1
 10
0.0000
 20
0.0000
 30
0.0000
 40
0.0508
 41
0.0508
 70
0
  0
VERTEX
  8
39
 10
-43.5100
 20
-46.2900
 30
0.0000
  0
VERTEX
  8
39
 10
-40.3100
 20
-46.2900
 30
0.0000
  0
SEQEND
  8
0
  0
POLYLINE
  8
39
 66
1
 10
0.0000
 20
0.0000
 30
0.0000
 40
0.0254
 41
0.0254
 70
0
  0
VERTEX
  8
39
 10
-40.3100
 20
-46.3027
 30
0.0000
 42
1.0000
  0
VERTEX
  8
39
 10
-40.3100
 20
-46.2773
 30
0.0000
  0
SEQEND
  8
0
  0
POLYLINE
  8
39
 66
1
 10
0.0000
 20
0.0000
 30
0.0000
 40
0.0254
 41
0.0254
 70
0
  0
VERTEX
  8
39
 10
-43.5100
 20
-46.2773
 30
0.0000
 42
1.0000
  0
VERTEX
  8
39
 10
-43.5100
 20
-46.3027
 30
0.0000
  0
SEQEND
  8
0
  0
POLYLINE
  8
39
 66
1
 10
0.0000
 20
0.0000
 30
0.0000
 40
0.0508
 41
0.0508
 70
0
  0
VERTEX
  8
39
 10
-40.3100
 20
-46.2900
 30
0.0000
  0
VERTEX
  8
39
 10
-40.3100
 20
-47.6900
 30
0.0000
  0
SEQEND
  8
0
  0
POLYLINE
  8
39
 66
1
 10
0.0000
 20
0.0000
 30
0.0000
 40
0.0254
 41
0.0254
 70
0
  0
VERTEX
  8
39
 10
-40.3227
 20
-47.6900
 30
0.0000
 42
1.0000
  0
VERTEX
  8
39
 10
-40.2973
 20
-47.6900
 30
0.0000
  0
SEQEND
  8
0
  0
POLYLINE
  8
39
 66
1
 10
0.0000
 20
0.0000
 30
0.0000
 40
0.0254
 41
0.0254
 70
0
  0
VERTEX
  8
39
 10
-40.2973
 20
-46.2900
 30
0.0000
 42
1.0000
  0
VERTEX
  8
39
 10
-40.3227
 20
-46.2900
 30
0.0000
  0
SEQEND
  8
0
  0
POLYLINE
  8
39
 66
1
 10
0.0000
 20
0.0000
 30
0.0000
 40
0.0508
 41
0.0508
 70
0
  0
VERTEX
  8
39
 10
-40.3100
 20
-47.6900
 30
0.0000
  0
VERTEX
  8
39
 10
-43.5100
 20
-47.6900
 30
0.0000
  0
SEQEND
  8
0
  0
POLYLINE
  8
39
 66
1
 10
0.0000
 20
0.0000
 30
0.0000
 40
0.0254
 41
0.0254
 70
0
  0
VERTEX
  8
39
 10
-43.5100
 20
-47.6773
 30
0.0000
 42
1.0000
  0
VERTEX
  8
39
 10
-43.5100
 20
-47.7027
 30
0.0000
  0
SEQEND
  8
0
  0
POLYLINE
  8
39
 66
1
 10
0.0000
 20
0.0000
 30
0.0000
 40
0.0254
 41
0.0254
 70
0
  0
VERTEX
  8
39
 10
-40.3100
 20
-47.7027
 30
0.0000
 42
1.0000
  0
VERTEX
  8
39
 10
-40.3100
 20
-47.6773
 30
0.0000
  0
SEQEND
  8
0
  0
POLYLINE
  8
39
 66
1
 10
0.0000
 20
0.0000
 30
0.0000
 40
0.0508
 41
0.0508
 70
0
  0
VERTEX
  8
39
 10
-43.5100
 20
-47.6900
 30
0.0000
  0
VERTEX
  8
39
 10
-43.5100
 20
-46.2900
 30
0.0000
  0
SEQEND
  8
0
  0
POLYLINE
  8
39
 66
1
 10
0.0000
 20
0.0000
 30
0.0000
 40
0.0254
 41
0.0254
 70
0
  0
VERTEX
  8
39
 10
-43.4973
 20
-46.2900
 30
0.0000
 42
1.0000
  0
VERTEX
  8
39
 10
-43.5227
 20
-46.2900
 30
0.0000
  0
SEQEND
  8
0
  0
POLYLINE
  8
39
 66
1
 10
0.0000
 20
0.0000
 30
0.0000
 40
0.0254
 41
0.0254
 70
0
  0
VERTEX
  8
39
 10
-43.5227
 20
-47.6900
 30
0.0000
 42
1.0000
  0
VERTEX
  8
39
 10
-43.4973
 20
-47.6900
 30
0.0000
  0
SEQEND
  8
0
  0
POLYLINE
  8
39
 66
1
 10
0.0000
 20
0.0000
 30
0.0000
 40
0.0508
 41
0.0508
 70
0
  0
VERTEX
  8
39
 10
-56.2100
 20
-56.4500
 30
0.0000
  0
VERTEX
  8
39
 10
-53.0100
 20
-56.4500
 30
0.0000
  0
SEQEND
  8
0
  0
POLYLINE
  8
39
 66
1
 10
0.0000
 20
0.0000
 30
0.0000
 40
0.0254
 41
0.0254
 70
0
  0
VERTEX
  8
39
 10
-53.0100
 20
-56.4627
 30
0.0000
 42
1.0000
  0
VERTEX
  8
39
 10
-53.0100
 20
-56.4373
 30
0.0000
  0
SEQEND
  8
0
  0
POLYLINE
  8
39
 66
1
 10
0.0000
 20
0.0000
 30
0.0000
 40
0.0254
 41
0.0254
 70
0
  0
VERTEX
  8
39
 10
-56.2100
 20
-56.4373
 30
0.0000
 42
1.0000
  0
VERTEX
  8
39
 10
-56.2100
 20
-56.4627
 30
0.0000
  0
SEQEND
  8
0
  0
POLYLINE
  8
39
 66
1
 10
0.0000
 20
0.0000
 30
0.0000
 40
0.0508
 41
0.0508
 70
0
  0
VERTEX
  8
39
 10
-53.0100
 20
-56.4500
 30
0.0000
  0
VERTEX
  8
39
 10
-53.0100
 20
-57.8500
 30
0.0000
  0
SEQEND
  8
0
  0
POLYLINE
  8
39
 66
1
 10
0.0000
 20
0.0000
 30
0.0000
 40
0.0254
 41
0.0254
 70
0
  0
VERTEX
  8
39
 10
-53.0227
 20
-57.8500
 30
0.0000
 42
1.0000
  0
VERTEX
  8
39
 10
-52.9973
 20
-57.8500
 30
0.0000
  0
SEQEND
  8
0
  0
POLYLINE
  8
39
 66
1
 10
0.0000
 20
0.0000
 30
0.0000
 40
0.0254
 41
0.0254
 70
0
  0
VERTEX
  8
39
 10
-52.9973
 20
-56.4500
 30
0.0000
 42
1.0000
  0
VERTEX
  8
39
 10
-53.0227
 20
-56.4500
 30
0.0000
  0
SEQEND
  8
0
  0
POLYLINE
  8
39
 66
1
 10
0.0000
 20
0.0000
 30
0.0000
 40
0.0508
 41
0.0508
 70
0
  0
VERTEX
  8
39
 10
-53.0100
 20
-57.8500
 30
0.0000
  0
VERTEX
  8
39
 10
-56.2100
 20
-57.8500
 30
0.0000
  0
SEQEND
  8
0
  0
POLYLINE
  8
39
 66
1
 10
0.0000
 20
0.0000
 30
0.0000
 40
0.0254
 41
0.0254
 70
0
  0
VERTEX
  8
39
 10
-56.2100
 20
-57.8373
 30
0.0000
 42
1.0000
  0
VERTEX
  8
39
 10
-56.2100
 20
-57.8627
 30
0.0000
  0
SEQEND
  8
0
  0
POLYLINE
  8
39
 66
1
 10
0.0000
 20
0.0000
 30
0.0000
 40
0.0254
 41
0.0254
 70
0
  0
VERTEX
  8
39
 10
-53.0100
 20
-57.8627
 30
0.0000
 42
1.0000
  0
VERTEX
  8
39
 10
-53.0100
 20
-57.8373
 30
0.0000
  0
SEQEND
  8
0
  0
POLYLINE
  8
39
 66
1
 10
0.0000
 20
0.0000
 30
0.0000
 40
0.0508
 41
0.0508
 70
0
  0
VERTEX
  8
39
 10
-56.2100
 20
-57.8500
 30
0.0000
  0
VERTEX
  8
39
 10
-56.2100
 20
-56.4500
 30
0.0000
  0
SEQEND
  8
0
  0
POLYLINE
  8
39
 66
1
 10
0.0000
 20
0.0000
 30
0.0000
 40
0.0254
 41
0.0254
 70
0
  0
VERTEX
  8
39
 10
-56.1973
 20
-56.4500
 30
0.0000
 42
1.0000
  0
VERTEX
  8
39
 10
-56.2227
 20
-56.4500
 30
0.0000
  0
SEQEND
  8
0
  0
POLYLINE
  8
39
 66
1
 10
0.0000
 20
0.0000
 30
0.0000
 40
0.0254
 41
0.0254
 70
0
  0
VERTEX
  8
39
 10
-56.2227
 20
-57.8500
 30
0.0000
 42
1.0000
  0
VERTEX
  8
39
 10
-56.1973
 20
-57.8500
 30
0.0000
  0
SEQEND
  8
0
  0
POLYLINE
  8
39
 66
1
 10
0.0000
 20
0.0000
 30
0.0000
 40
0.0508
 41
0.0508
 70
0
  0
VERTEX
  8
39
 10
-56.2100
 20
-60.2600
 30
0.0000
  0
VERTEX
  8
39
 10
-53.0100
 20
-60.2600
 30
0.0000
  0
SEQEND
  8
0
  0
POLYLINE
  8
39
 66
1
 10
0.0000
 20
0.0000
 30
0.0000
 40
0.0254
 41
0.0254
 70
0
  0
VERTEX
  8
39
 10
-53.0100
 20
-60.2727
 30
0.0000
 42
1.0000
  0
VERTEX
  8
39
 10
-53.0100
 20
-60.2473
 30
0.0000
  0
SEQEND
  8
0
  0
POLYLINE
  8
39
 66
1
 10
0.0000
 20
0.0000
 30
0.0000
 40
0.0254
 41
0.0254
 70
0
  0
VERTEX
  8
39
 10
-56.2100
 20
-60.2473
 30
0.0000
 42
1.0000
  0
VERTEX
  8
39
 10
-56.2100
 20
-60.2727
 30
0.0000
  0
SEQEND
  8
0
  0
POLYLINE
  8
39
 66
1
 10
0.0000
 20
0.0000
 30
0.0000
 40
0.0508
 41
0.0508
 70
0
  0
VERTEX
  8
39
 10
-53.0100
 20
-60.2600
 30
0.0000
  0
VERTEX
  8
39
 10
-53.0100
 20
-61.6600
 30
0.0000
  0
SEQEND
  8
0
  0
POLYLINE
  8
39
 66
1
 10
0.0000
 20
0.0000
 30
0.0000
 40
0.0254
 41
0.0254
 70
0
  0
VERTEX
  8
39
 10
-53.0227
 20
-61.6600
 30
0.0000
 42
1.0000
  0
VERTEX
  8
39
 10
-52.9973
 20
-61.6600
 30
0.0000
  0
SEQEND
  8
0
  0
POLYLINE
  8
39
 66
1
 10
0.0000
 20
0.0000
 30
0.0000
 40
0.0254
 41
0.0254
 70
0
  0
VERTEX
  8
39
 10
-52.9973
 20
-60.2600
 30
0.0000
 42
1.0000
  0
VERTEX
  8
39
 10
-53.0227
 20
-60.2600
 30
0.0000
  0
SEQEND
  8
0
  0
POLYLINE
  8
39
 66
1
 10
0.0000
 20
0.0000
 30
0.0000
 40
0.0508
 41
0.0508
 70
0
  0
VERTEX
  8
39
 10
-53.0100
 20
-61.6600
 30
0.0000
  0
VERTEX
  8
39
 10
-56.2100
 20
-61.6600
 30
0.0000
  0
SEQEND
  8
0
  0
POLYLINE
  8
39
 66
1
 10
0.0000
 20
0.0000
 30
0.0000
 40
0.0254
 41
0.0254
 70
0
  0
VERTEX
  8
39
 10
-56.2100
 20
-61.6473
 30
0.0000
 42
1.0000
  0
VERTEX
  8
39
 10
-56.2100
 20
-61.6727
 30
0.0000
  0
SEQEND
  8
0
  0
POLYLINE
  8
39
 66
1
 10
0.0000
 20
0.0000
 30
0.0000
 40
0.0254
 41
0.0254
 70
0
  0
VERTEX
  8
39
 10
-53.0100
 20
-61.6727
 30
0.0000
 42
1.0000
  0
VERTEX
  8
39
 10
-53.0100
 20
-61.6473
 30
0.0000
  0
SEQEND
  8
0
  0
POLYLINE
  8
39
 66
1
 10
0.0000
 20
0.0000
 30
0.0000
 40
0.0508
 41
0.0508
 70
0
  0
VERTEX
  8
39
 10
-56.2100
 20
-61.6600
 30
0.0000
  0
VERTEX
  8
39
 10
-56.2100
 20
-60.2600
 30
0.0000
  0
SEQEND
  8
0
  0
POLYLINE
  8
39
 66
1
 10
0.0000
 20
0.0000
 30
0.0000
 40
0.0254
 41
0.0254
 70
0
  0
VERTEX
  8
39
 10
-56.1973
 20
-60.2600
 30
0.0000
 42
1.0000
  0
VERTEX
  8
39
 10
-56.2227
 20
-60.2600
 30
0.0000
  0
SEQEND
  8
0
  0
POLYLINE
  8
39
 66
1
 10
0.0000
 20
0.0000
 30
0.0000
 40
0.0254
 41
0.0254
 70
0
  0
VERTEX
  8
39
 10
-56.2227
 20
-61.6600
 30
0.0000
 42
1.0000
  0
VERTEX
  8
39
 10
-56.1973
 20
-61.6600
 30
0.0000
  0
SEQEND
  8
0
  0
ENDSEC
  0
EOF
