  0
SECTION
  2
HEADER
  9
$ACADVER
  1
AC1009
  9
$DWGCODEPAGE
  3
ansi_1252
  9
$INSBASE
 10
0.0
 20
0.0
 30
0.0
  9
$EXTMIN
 10
-57.2933
 20
-54.2798
 30
0.0
  9
$EXTMAX
 10
194.3735
 20
106.49
 30
0.0
  9
$LIMMIN
 10
0.0
 20
0.0
  9
$LIMMAX
 10
12.0
 20
9.0
  9
$ORTHOMODE
 70
     0
  9
$REGENMODE
 70
     1
  9
$FILLMODE
 70
     0
  9
$QTEXTMODE
 70
     0
  9
$MIRRTEXT
 70
     1
  9
$DRAGMODE
 70
     2
  9
$LTSCALE
 40
1.0
  9
$OSMODE
 70
    37
  9
$ATTMODE
 70
     1
  9
$TEXTSIZE
 40
0.2
  9
$TRACEWID
 40
0.05
  9
$TEXTSTYLE
  7
STANDARD
  9
$CLAYER
  8
0
  9
$CELTYPE
  6
BYLAYER
  9
$CECOLOR
 62
    18
  9
$DIMSCALE
 40
1.0
  9
$DIMASZ
 40
0.18
  9
$DIMEXO
 40
0.0625
  9
$DIMDLI
 40
0.38
  9
$DIMRND
 40
0.0
  9
$DIMDLE
 40
0.0
  9
$DIMEXE
 40
0.18
  9
$DIMTP
 40
0.0
  9
$DIMTM
 40
0.0
  9
$DIMTXT
 40
0.18
  9
$DIMCEN
 40
0.09
  9
$DIMTSZ
 40
0.0
  9
$DIMTOL
 70
     0
  9
$DIMLIM
 70
     0
  9
$DIMTIH
 70
     1
  9
$DIMTOH
 70
     1
  9
$DIMSE1
 70
     0
  9
$DIMSE2
 70
     0
  9
$DIMTAD
 70
     0
  9
$DIMZIN
 70
     0
  9
$DIMBLK
  1

  9
$DIMASO
 70
     1
  9
$DIMSHO
 70
     1
  9
$DIMPOST
  1

  9
$DIMAPOST
  1

  9
$DIMALT
 70
     0
  9
$DIMALTD
 70
     2
  9
$DIMALTF
 40
25.4
  9
$DIMLFAC
 40
1.0
  9
$DIMTOFL
 70
     0
  9
$DIMTVP
 40
0.0
  9
$DIMTIX
 70
     0
  9
$DIMSOXD
 70
     0
  9
$DIMSAH
 70
     0
  9
$DIMBLK1
  1

  9
$DIMBLK2
  1

  9
$DIMSTYLE
  2
STANDARD
  9
$DIMCLRD
 70
    18
  9
$DIMCLRE
 70
    18
  9
$DIMCLRT
 70
    18
  9
$DIMTFAC
 40
1.0
  9
$DIMGAP
 40
0.09
  9
$LUNITS
 70
     2
  9
$LUPREC
 70
     4
  9
$SKETCHINC
 40
0.1
  9
$FILLETRAD
 40
0.5
  9
$AUNITS
 70
     0
  9
$AUPREC
 70
     0
  9
$MENU
  1
.
  9
$ELEVATION
 40
0.0
  9
$PELEVATION
 40
0.0
  9
$THICKNESS
 40
0.0
  9
$LIMCHECK
 70
     0
  9
$CHAMFERA
 40
0.0
  9
$CHAMFERB
 40
0.0
  9
$SKPOLY
 70
     0
  9
$TDCREATE
 40
2458167.749818958
  9
$TDUPDATE
 40
2458167.749819132
  9
$TDINDWG
 40
0.0000000116
  9
$TDUSRTIMER
 40
0.0000000116
  9
$USRTIMER
 70
     1
  9
$ANGBASE
 50
0.0
  9
$ANGDIR
 70
     0
  9
$PDMODE
 70
     0
  9
$PDSIZE
 40
0.0
  9
$PLINEWID
 40
0.0
  9
$COORDS
 70
     1
  9
$SPLFRAME
 70
     0
  9
$SPLINETYPE
 70
     6
  9
$SPLINESEGS
 70
     8
  9
$ATTDIA
 70
     0
  9
$ATTREQ
 70
     1
  9
$HANDLING
 70
     1
  9
$HANDSEED
  5
319
  9
$SURFTAB1
 70
     6
  9
$SURFTAB2
 70
     6
  9
$SURFTYPE
 70
     6
  9
$SURFU
 70
     6
  9
$SURFV
 70
     6
  9
$UCSNAME
  2

  9
$UCSORG
 10
0.0
 20
0.0
 30
0.0
  9
$UCSXDIR
 10
1.0
 20
0.0
 30
0.0
  9
$UCSYDIR
 10
0.0
 20
1.0
 30
0.0
  9
$PUCSNAME
  2

  9
$PUCSORG
 10
0.0
 20
0.0
 30
0.0
  9
$PUCSXDIR
 10
1.0
 20
0.0
 30
0.0
  9
$PUCSYDIR
 10
0.0
 20
1.0
 30
0.0
  9
$USERI1
 70
     0
  9
$USERI2
 70
     0
  9
$USERI3
 70
     0
  9
$USERI4
 70
     0
  9
$USERI5
 70
     0
  9
$USERR1
 40
0.0
  9
$USERR2
 40
0.0
  9
$USERR3
 40
0.0
  9
$USERR4
 40
0.0
  9
$USERR5
 40
0.0
  9
$WORLDVIEW
 70
     1
  9
$SHADEDGE
 70
     3
  9
$SHADEDIF
 70
    70
  9
$TILEMODE
 70
     1
  9
$MAXACTVP
 70
     2
  9
$PLIMCHECK
 70
     0
  9
$PEXTMIN
 10
1.000000000000000E+20
 20
1.000000000000000E+20
 30
1.000000000000000E+20
  9
$PEXTMAX
 10
-1.000000000000000E+20
 20
-1.000000000000000E+20
 30
-1.000000000000000E+20
  9
$PLIMMIN
 10
0.0
 20
0.0
  9
$PLIMMAX
 10
12.0
 20
9.0
  9
$UNITMODE
 70
     0
  9
$VISRETAIN
 70
     1
  9
$PLINEGEN
 70
     0
  9
$PSLTSCALE
 70
     1
  0
ENDSEC
  0
SECTION
  2
TABLES
  0
TABLE
  2
VPORT
 70
     1
  0
VPORT
  2
*ACTIVE
 70
     0
 10
0.0
 20
0.0
 11
1.0
 21
1.0
 12
10.42990654205607
 22
4.5
 13
0.0
 23
0.0
 14
0.5
 24
0.5
 15
0.5
 25
0.5
 16
0.0
 26
0.0
 36
1.0
 17
0.0
 27
0.0
 37
0.0
 40
9.0
 41
1.972972972850329
 42
50.0
 43
0.0
 44
0.0
 50
0.0
 51
0.0
 71
     0
 72
   100
 73
     1
 74
     3
 75
     0
 76
     0
 77
     0
 78
     0
  0
ENDTAB
  0
TABLE
  2
LTYPE
 70
    48
  0
LTYPE
  2
CONTINUOUS
 70
     0
  3
Solid line
 72
    65
 73
     0
 40
0.0
  0
LTYPE
  2
ACAD_ISO02W100
 70
     0
  3
ISO dash __ __ __ __ __ __ __ __ __ __ __ __ __
 72
    65
 73
     2
 40
15.0
 49
12.0
 49
-3.0
  0
LTYPE
  2
ACAD_ISO03W100
 70
     0
  3
ISO dash space __    __    __    __    __    __
 72
    65
 73
     2
 40
30.0
 49
12.0
 49
-18.0
  0
LTYPE
  2
ACAD_ISO04W100
 70
     0
  3
ISO long-dash dot ____ . ____ . ____ . ____ . _
 72
    65
 73
     4
 40
30.0
 49
24.0
 49
-3.0
 49
0.0
 49
-3.0
  0
LTYPE
  2
ACAD_ISO05W100
 70
     0
  3
ISO long-dash double-dot ____ .. ____ .. ____ . 
 72
    65
 73
     6
 40
33.0
 49
24.0
 49
-3.0
 49
0.0
 49
-3.0
 49
0.0
 49
-3.0
  0
LTYPE
  2
ACAD_ISO06W100
 70
     0
  3
ISO long-dash triple-dot ____ ... ____ ... ____
 72
    65
 73
     8
 40
36.0
 49
24.0
 49
-3.0
 49
0.0
 49
-3.0
 49
0.0
 49
-3.0
 49
0.0
 49
-3.0
  0
LTYPE
  2
ACAD_ISO07W100
 70
     0
  3
ISO dot . . . . . . . . . . . . . . . . . . . . 
 72
    65
 73
     2
 40
3.0
 49
0.0
 49
-3.0
  0
LTYPE
  2
ACAD_ISO08W100
 70
     0
  3
ISO long-dash short-dash ____ __ ____ __ ____ _
 72
    65
 73
     4
 40
36.0
 49
24.0
 49
-3.0
 49
6.0
 49
-3.0
  0
LTYPE
  2
ACAD_ISO09W100
 70
     0
  3
ISO long-dash double-short-dash ____ __ __ ____
 72
    65
 73
     6
 40
45.0
 49
24.0
 49
-3.0
 49
6.0
 49
-3.0
 49
6.0
 49
-3.0
  0
LTYPE
  2
ACAD_ISO10W100
 70
     0
  3
ISO dash dot __ . __ . __ . __ . __ . __ . __ . 
 72
    65
 73
     4
 40
18.0
 49
12.0
 49
-3.0
 49
0.0
 49
-3.0
  0
LTYPE
  2
ACAD_ISO11W100
 70
     0
  3
ISO double-dash dot __ __ . __ __ . __ __ . __ _
 72
    65
 73
     6
 40
33.0
 49
12.0
 49
-3.0
 49
12.0
 49
-3.0
 49
0.0
 49
-3.0
  0
LTYPE
  2
ACAD_ISO12W100
 70
     0
  3
ISO dash double-dot __ . . __ . . __ . . __ . . 
 72
    65
 73
     6
 40
21.0
 49
12.0
 49
-3.0
 49
0.0
 49
-3.0
 49
0.0
 49
-3.0
  0
LTYPE
  2
ACAD_ISO13W100
 70
     0
  3
ISO double-dash double-dot __ __ . . __ __ . . _
 72
    65
 73
     8
 40
36.0
 49
12.0
 49
-3.0
 49
12.0
 49
-3.0
 49
0.0
 49
-3.0
 49
0.0
 49
-3.0
  0
LTYPE
  2
ACAD_ISO14W100
 70
     0
  3
ISO dash triple-dot __ . . . __ . . . __ . . . _
 72
    65
 73
     8
 40
24.0
 49
12.0
 49
-3.0
 49
0.0
 49
-3.0
 49
0.0
 49
-3.0
 49
0.0
 49
-3.0
  0
LTYPE
  2
ACAD_ISO15W100
 70
     0
  3
ISO double-dash triple-dot __ __ . . . __ __ . .
 72
    65
 73
    10
 40
39.0
 49
12.0
 49
-3.0
 49
12.0
 49
-3.0
 49
0.0
 49
-3.0
 49
0.0
 49
-3.0
 49
0.0
 49
-3.0
  0
LTYPE
  2
BATTING
 70
     0
  3
Batting SSSSSSSSSSSSSSSSSSSSSSSSSSSSSSSSSSSSSSSSSSSSSSS
 72
    65
 73
     4
 40
10.16254
 49
0.00254
 49
-2.54
 49
-5.08
 49
-2.54
  0
LTYPE
  2
BORDER
 70
     0
  3
Border __ __ . __ __ . __ __ . __ __ . __ __ .
 72
    65
 73
     6
 40
44.45
 49
12.7
 49
-6.35
 49
12.7
 49
-6.35
 49
0.0
 49
-6.35
  0
LTYPE
  2
BORDER2
 70
     0
  3
Border (.5x) __.__.__.__.__.__.__.__.__.__.__.
 72
    65
 73
     6
 40
22.225
 49
6.35
 49
-3.175
 49
6.35
 49
-3.175
 49
0.0
 49
-3.175
  0
LTYPE
  2
BORDERX2
 70
     0
  3
Border (2x) ____  ____  .  ____  ____  .  ___
 72
    65
 73
     6
 40
88.89999999999999
 49
25.4
 49
-12.7
 49
25.4
 49
-12.7
 49
0.0
 49
-12.7
  0
LTYPE
  2
CENTER
 70
     0
  3
Center ____ _ ____ _ ____ _ ____ _ ____ _ ____
 72
    65
 73
     4
 40
50.8
 49
31.75
 49
-6.35
 49
6.35
 49
-6.35
  0
LTYPE
  2
CENTER2
 70
     0
  3
Center (.5x) ___ _ ___ _ ___ _ ___ _ ___ _ ___
 72
    65
 73
     4
 40
28.575
 49
19.05
 49
-3.175
 49
3.175
 49
-3.175
  0
LTYPE
  2
CENTERX2
 70
     0
  3
Center (2x) ________  __  ________  __  _____
 72
    65
 73
     4
 40
101.6
 49
63.5
 49
-12.7
 49
12.7
 49
-12.7
  0
LTYPE
  2
DASHDOT
 70
     0
  3
Dash dot __ . __ . __ . __ . __ . __ . __ . __
 72
    65
 73
     4
 40
25.4
 49
12.7
 49
-6.35
 49
0.0
 49
-6.35
  0
LTYPE
  2
DASHDOT2
 70
     0
  3
Dash dot (.5x) _._._._._._._._._._._._._._._.
 72
    65
 73
     4
 40
12.7
 49
6.35
 49
-3.175
 49
0.0
 49
-3.175
  0
LTYPE
  2
DASHDOTX2
 70
     0
  3
Dash dot (2x) ____  .  ____  .  ____  .  ___
 72
    65
 73
     4
 40
50.8
 49
25.4
 49
-12.7
 49
0.0
 49
-12.7
  0
LTYPE
  2
DASHED
 70
     0
  3
Dashed __ __ __ __ __ __ __ __ __ __ __ __ __ _
 72
    65
 73
     2
 40
19.05
 49
12.7
 49
-6.35
  0
LTYPE
  2
DASHED2
 70
     0
  3
Dashed (.5x) _ _ _ _ _ _ _ _ _ _ _ _ _ _ _ _ _ 
 72
    65
 73
     2
 40
9.524999999999999
 49
6.35
 49
-3.175
  0
LTYPE
  2
DASHEDX2
 70
     0
  3
Dashed (2x) ____  ____  ____  ____  ____  ___
 72
    65
 73
     2
 40
38.09999999999999
 49
25.4
 49
-12.7
  0
LTYPE
  2
DIVIDE
 70
     0
  3
Divide ____ . . ____ . . ____ . . ____ . . ____
 72
    65
 73
     6
 40
31.75
 49
12.7
 49
-6.35
 49
0.0
 49
-6.35
 49
0.0
 49
-6.35
  0
LTYPE
  2
DIVIDE2
 70
     0
  3
Divide (.5x) __..__..__..__..__..__..__..__.._
 72
    65
 73
     6
 40
15.875
 49
6.35
 49
-3.175
 49
0.0
 49
-3.175
 49
0.0
 49
-3.175
  0
LTYPE
  2
DIVIDEX2
 70
     0
  3
Divide (2x) ________  .  .  ________  .  .  _
 72
    65
 73
     6
 40
63.5
 49
25.4
 49
-12.7
 49
0.0
 49
-12.7
 49
0.0
 49
-12.7
  0
LTYPE
  2
DOT
 70
     0
  3
Dot . . . . . . . . . . . . . . . . . . . . . . . .
 72
    65
 73
     2
 40
6.35
 49
0.0
 49
-6.35
  0
LTYPE
  2
DOT2
 70
     0
  3
Dot (.5x) ........................................
 72
    65
 73
     2
 40
3.175
 49
0.0
 49
-3.175
  0
LTYPE
  2
DOTX2
 70
     0
  3
Dot (2x) .  .  .  .  .  .  .  .  .  .  .  .  .  .
 72
    65
 73
     2
 40
12.7
 49
0.0
 49
-12.7
  0
LTYPE
  2
DRAINAGE
 70
     0
  3
Drainage ---->---->---->----
 72
    65
 73
     2
 40
10.16
 49
5.08
 49
5.08
  0
LTYPE
  2
DRAINAGE2
 70
     0
  3
Drainage reversed----<----<----<----
 72
    65
 73
     2
 40
10.16
 49
5.08
 49
5.08
  0
LTYPE
  2
FENCELINE1
 70
     0
  3
Fenceline circle ----0-----0----0-----0----0-----0--
 72
    65
 73
     4
 40
36.83
 49
6.35
 49
-2.54
 49
-2.54
 49
25.4
  0
LTYPE
  2
FENCELINE2
 70
     0
  3
Fenceline square ----[]-----[]----[]-----[]----[]---
 72
    65
 73
     4
 40
36.83
 49
6.35
 49
-2.54
 49
-2.54
 49
25.4
  0
LTYPE
  2
GAS_LINE
 70
     0
  3
Gas line ----GAS----GAS----GAS----GAS----GAS----GAS--
 72
    65
 73
     3
 40
24.13
 49
12.7
 49
-5.08
 49
-6.35
  0
LTYPE
  2
HIDDEN
 70
     0
  3
Hidden __ __ __ __ __ __ __ __ __ __ __ __ __ __
 72
    65
 73
     2
 40
9.524999999999999
 49
6.35
 49
-3.175
  0
LTYPE
  2
HIDDEN2
 70
     0
  3
Hidden (.5x) _ _ _ _ _ _ _ _ _ _ _ _ _ _ _ _ _ 
 72
    65
 73
     2
 40
4.762499999999999
 49
3.175
 49
-1.5875
  0
LTYPE
  2
HIDDENX2
 70
     0
  3
Hidden (2x) ____ ____ ____ ____ ____ ____ ____ 
 72
    65
 73
     2
 40
19.05
 49
12.7
 49
-6.35
  0
LTYPE
  2
HOT_WATER_SUPPLY
 70
     0
  3
Hot water supply ---- HW ---- HW ---- HW ----
 72
    65
 73
     3
 40
22.86
 49
12.7
 49
-5.08
 49
-5.08
  0
LTYPE
  2
PHANTOM
 70
     0
  3
Phantom ______  __  __  ______  __  __  ______ 
 72
    65
 73
     6
 40
63.50000000000001
 49
31.75
 49
-6.35
 49
6.35
 49
-6.35
 49
6.35
 49
-6.35
  0
LTYPE
  2
PHANTOM2
 70
     0
  3
Phantom (.5x) ___ _ _ ___ _ _ ___ _ _ ___ _ _
 72
    65
 73
     6
 40
31.75
 49
15.875
 49
-3.175
 49
3.175
 49
-3.175
 49
3.175
 49
-3.175
  0
LTYPE
  2
PHANTOMX2
 70
     0
  3
Phantom (2x) ____________    ____    ____   _
 72
    65
 73
     6
 40
127.0
 49
63.5
 49
-12.7
 49
12.7
 49
-12.7
 49
12.7
 49
-12.7
  0
LTYPE
  2
TRACKS
 70
     0
  3
Tracks -|-|-|-|-|-|-|-|-|-|-|-|-|-|-|-|-|-|-|-|-|-|-|-|-
 72
    65
 73
     2
 40
7.62
 49
3.81
 49
3.81
  0
LTYPE
  2
ZIGZAG
 70
     0
  3
Zig zag /\/\/\/\/\/\/\/\/\/\/\/\/\/\/\/\/\/\/\/\/\/\/\/
 72
    65
 73
     4
 40
20.32254
 49
0.00254
 49
-5.08
 49
-10.16
 49
-5.08
  0
ENDTAB
  0
TABLE
  2
LAYER
 70
     3
  0
LAYER
  2
0
 70
     0
 62
     7
  6
CONTINUOUS
  0
LAYER
  2
20
 70
     0
 62
     7
  6
CONTINUOUS
  0
LAYER
  2
44
 70
     0
 62
   253
  6
CONTINUOUS
  0
ENDTAB
  0
TABLE
  2
STYLE
 70
    13
  0
STYLE
  2
STANDARD
 70
     0
 40
0.0
 41
1.0
 50
0.0
 71
     0
 42
0.2
  3
txt
  4

  0
STYLE
  2
QCADDIMTEXTSTYLE
 70
     0
 40
0.0
 41
1.0
 50
0.0
 71
     0
 42
0.2
  3

  4

  0
STYLE
  2
TEXTSTYLE0
 70
     0
 40
0.0
 41
1.0
 50
0.0
 71
     0
 42
0.2
  3
ltypeshp.shx
  4

  0
STYLE
  2
TEXTSTYLE1
 70
     0
 40
0.0
 41
1.0
 50
0.0
 71
     0
 42
0.2
  3
ltypeshp.shx
  4

  0
STYLE
  2
TEXTSTYLE2
 70
     0
 40
0.0
 41
1.0
 50
0.0
 71
     0
 42
0.2
  3
qcadshp.shx
  4

  0
STYLE
  2
TEXTSTYLE3
 70
     0
 40
0.0
 41
1.0
 50
0.0
 71
     0
 42
0.2
  3
qcadshp.shx
  4

  0
STYLE
  2
TEXTSTYLE4
 70
     0
 40
0.0
 41
1.0
 50
0.0
 71
     0
 42
0.2
  3
ltypeshp.shx
  4

  0
STYLE
  2
TEXTSTYLE5
 70
     0
 40
0.0
 41
1.0
 50
0.0
 71
     0
 42
0.2
  3
ltypeshp.shx
  4

  0
STYLE
  2
TEXTSTYLE6
 70
     0
 40
0.0
 41
1.0
 50
0.0
 71
     0
 42
0.2
  3
STANDARD
  4

  0
STYLE
  2
TEXTSTYLE7
 70
     0
 40
0.0
 41
1.0
 50
0.0
 71
     0
 42
0.2
  3
STANDARD
  4

  0
STYLE
  2
TEXTSTYLE8
 70
     0
 40
0.0
 41
1.0
 50
0.0
 71
     0
 42
0.2
  3
ltypeshp.shx
  4

  0
STYLE
  2
TEXTSTYLE9
 70
     0
 40
0.0
 41
1.0
 50
0.0
 71
     0
 42
0.2
  3
ltypeshp.shx
  4

  0
STYLE
  2
TEXTSTYLE10
 70
     0
 40
0.0
 41
1.0
 50
0.0
 71
     0
 42
0.2
  3
ltypeshp.shx
  4

  0
ENDTAB
  0
TABLE
  2
VIEW
 70
     0
  0
ENDTAB
  0
TABLE
  2
UCS
 70
     0
  0
ENDTAB
  0
TABLE
  2
APPID
 70
     2
  0
APPID
  2
ACAD
 70
     0
  0
APPID
  2
QCAD
 70
     0
  0
ENDTAB
  0
TABLE
  2
DIMSTYLE
 70
     2
  0
DIMSTYLE
  2
STANDARD
 70
     0
  3

  4

  5

  6

  7

 40
1.0
 41
0.18
 42
0.0625
 43
0.38
 44
0.18
 45
0.0
 46
0.0
 47
0.0
 48
0.0
140
0.18
141
0.09
142
0.0
143
25.4
144
1.0
145
0.0
146
1.0
147
0.09
 71
     0
 72
     0
 73
     1
 74
     1
 75
     0
 76
     0
 77
     0
 78
     0
170
     0
171
     2
172
     0
173
     0
174
     0
175
     0
176
     0
177
     0
178
     0
  0
DIMSTYLE
  2
QCADDIMSTYLE
 70
     0
  3

  4

  5

  6

  7

 40
1.0
 41
0.18
 42
0.0625
 43
0.38
 44
0.18
 45
0.0
 46
0.0
 47
0.0
 48
0.0
140
0.18
141
0.09
142
0.0
143
25.4
144
1.0
145
0.0
146
1.0
147
0.09
 71
     0
 72
     0
 73
     0
 74
     1
 75
     0
 76
     0
 77
     1
 78
     0
170
     0
171
     2
172
     0
173
     0
174
     0
175
     0
176
     0
177
     0
178
     0
  0
ENDTAB
  0
ENDSEC
  0
SECTION
  2
BLOCKS
  0
BLOCK
  8
0
  2
$MODEL_SPACE
 70
     0
 10
0.0
 20
0.0
 30
0.0
  3
$MODEL_SPACE
  1

  0
ENDBLK
  5
221
  8
0
  0
BLOCK
 67
     1
  8
0
  2
$PAPER_SPACE
 70
     0
 10
0.0
 20
0.0
 30
0.0
  3
$PAPER_SPACE
  1

  0
ENDBLK
  5
21D
 67
     1
  8
0
  0
BLOCK
  8
0
  2
ANNULUSV
 70
     0
 10
0.0
 20
0.0
 30
0.0
  3
ANNULUSV
  1

  0
CIRCLE
  5
65
  8
0
 10
0.0
 20
0.0
 30
0.0
 40
0.5
  0
ENDBLK
  5
2DC
  8
0
  0
BLOCK
  8
0
  2
THERMALV
 70
     0
 10
0.0
 20
0.0
 30
0.0
  3
THERMALV
  1

  0
LINE
  5
69
  8
0
 10
-0.2379
 20
0.45
 30
0.0
 11
0.2379
 21
0.45
 31
0.0
  0
LINE
  5
6A
  8
0
 10
0.45
 20
0.2379
 30
0.0
 11
0.45
 21
-0.2379
 31
0.0
  0
LINE
  5
6B
  8
0
 10
0.2379
 20
-0.45
 30
0.0
 11
-0.2379
 21
-0.45
 31
0.0
  0
LINE
  5
6C
  8
0
 10
-0.45
 20
-0.2379
 30
0.0
 11
-0.45
 21
0.2379
 31
0.0
  0
ENDBLK
  5
2DF
  8
0
  0
BLOCK
  8
0
  2
RECT
 70
     0
 10
0.0
 20
0.0
 30
0.0
  3
RECT
  1

  0
SOLID
  5
28
  8
0
 10
-0.5
 20
-0.5
 30
0.0
 11
0.5
 21
-0.5
 31
0.0
 12
-0.5
 22
0.5
 32
0.0
 13
0.5
 23
0.5
 33
0.0
  0
ENDBLK
  5
2E2
  8
0
  0
BLOCK
  8
0
  2
PIE
 70
     0
 10
0.0
 20
0.0
 30
0.0
  3
PIE
  1

  0
CIRCLE
  5
2C
  8
0
 10
0.0
 20
0.0
 30
0.0
 40
0.5
  0
ENDBLK
  5
2E5
  8
0
  0
BLOCK
  8
0
  2
OCTAGONP
 70
     0
 10
0.0
 20
0.0
 30
0.0
  3
OCTAGONP
  1

  0
POLYLINE
  5
30
  8
0
 66
     1
 10
0.0
 20
0.0
 30
0.0
 70
     1
  0
VERTEX
  5
305
  8
0
 10
-0.5
 20
-0.2071
 30
0.0
  0
VERTEX
  5
306
  8
0
 10
-0.5
 20
0.2071
 30
0.0
  0
VERTEX
  5
307
  8
0
 10
-0.2071
 20
0.5
 30
0.0
  0
VERTEX
  5
308
  8
0
 10
0.2071
 20
0.5
 30
0.0
  0
VERTEX
  5
309
  8
0
 10
0.5
 20
0.2071
 30
0.0
  0
VERTEX
  5
30A
  8
0
 10
0.5
 20
-0.2071
 30
0.0
  0
VERTEX
  5
30B
  8
0
 10
0.2071
 20
-0.5
 30
0.0
  0
VERTEX
  5
30C
  8
0
 10
-0.2071
 20
-0.5
 30
0.0
  0
SEQEND
  5
317
  8
0
  0
ENDBLK
  5
2E8
  8
0
  0
BLOCK
  8
0
  2
SQUAREP
 70
     0
 10
0.0
 20
0.0
 30
0.0
  3
SQUAREP
  1

  0
SOLID
  5
3D
  8
0
 10
-0.5
 20
-0.5
 30
0.0
 11
0.5
 21
-0.5
 31
0.0
 12
-0.5
 22
0.5
 32
0.0
 13
0.5
 23
0.5
 33
0.0
  0
ENDBLK
  5
2EB
  8
0
  0
BLOCK
  8
0
  2
ROUNDP
 70
     0
 10
0.0
 20
0.0
 30
0.0
  3
ROUNDP
  1

  0
CIRCLE
  5
41
  8
0
 10
0.0
 20
0.0
 30
0.0
 40
0.5
  0
ENDBLK
  5
2EE
  8
0
  0
BLOCK
  8
0
  2
ANNULUSP
 70
     0
 10
0.0
 20
0.0
 30
0.0
  3
ANNULUSP
  1

  0
CIRCLE
  5
45
  8
0
 10
0.0
 20
0.0
 30
0.0
 40
0.5
  0
ENDBLK
  5
2F1
  8
0
  0
BLOCK
  8
0
  2
THERMALP
 70
     0
 10
0.0
 20
0.0
 30
0.0
  3
THERMALP
  1

  0
LINE
  5
49
  8
0
 10
-0.2379
 20
0.45
 30
0.0
 11
0.2379
 21
0.45
 31
0.0
  0
LINE
  5
4A
  8
0
 10
0.45
 20
0.2379
 30
0.0
 11
0.45
 21
-0.2379
 31
0.0
  0
LINE
  5
4B
  8
0
 10
0.2379
 20
-0.45
 30
0.0
 11
-0.2379
 21
-0.45
 31
0.0
  0
LINE
  5
4C
  8
0
 10
-0.45
 20
-0.2379
 30
0.0
 11
-0.45
 21
0.2379
 31
0.0
  0
ENDBLK
  5
2F4
  8
0
  0
BLOCK
  8
0
  2
OCTAGONV
 70
     0
 10
0.0
 20
0.0
 30
0.0
  3
OCTAGONV
  1

  0
POLYLINE
  5
50
  8
0
 66
     1
 10
0.0
 20
0.0
 30
0.0
 70
     1
  0
VERTEX
  5
30D
  8
0
 10
-0.5
 20
-0.2071
 30
0.0
  0
VERTEX
  5
30E
  8
0
 10
-0.5
 20
0.2071
 30
0.0
  0
VERTEX
  5
30F
  8
0
 10
-0.2071
 20
0.5
 30
0.0
  0
VERTEX
  5
310
  8
0
 10
0.2071
 20
0.5
 30
0.0
  0
VERTEX
  5
311
  8
0
 10
0.5
 20
0.2071
 30
0.0
  0
VERTEX
  5
312
  8
0
 10
0.5
 20
-0.2071
 30
0.0
  0
VERTEX
  5
313
  8
0
 10
0.2071
 20
-0.5
 30
0.0
  0
VERTEX
  5
314
  8
0
 10
-0.2071
 20
-0.5
 30
0.0
  0
SEQEND
  5
318
  8
0
  0
ENDBLK
  5
2F7
  8
0
  0
BLOCK
  8
0
  2
SQUAREV
 70
     0
 10
0.0
 20
0.0
 30
0.0
  3
SQUAREV
  1

  0
SOLID
  5
5D
  8
0
 10
-0.5
 20
-0.5
 30
0.0
 11
0.5
 21
-0.5
 31
0.0
 12
-0.5
 22
0.5
 32
0.0
 13
0.5
 23
0.5
 33
0.0
  0
ENDBLK
  5
2FA
  8
0
  0
BLOCK
  8
0
  2
ROUNDV
 70
     0
 10
0.0
 20
0.0
 30
0.0
  3
ROUNDV
  1

  0
CIRCLE
  5
61
  8
0
 10
0.0
 20
0.0
 30
0.0
 40
0.5
  0
ENDBLK
  5
2FD
  8
0
  0
ENDSEC
  0
SECTION
  2
ENTITIES
  0
LINE
  5
6E
  8
20
 10
0.0
 20
0.0
 30
0.0
 11
194.31
 21
0.0
 31
0.0
  0
LINE
  5
6F
  8
20
 10
194.31
 20
0.0
 30
0.0
 11
194.31
 21
76.2
 31
0.0
  0
LINE
  5
70
  8
20
 10
194.31
 20
76.2
 30
0.0
 11
0.0
 21
76.2
 31
0.0
  0
LINE
  5
71
  8
20
 10
0.0
 20
76.2
 30
0.0
 11
0.0
 21
0.0
 31
0.0
  0
CIRCLE
  5
72
  8
20
 10
18.796
 20
63.5
 30
0.0
 40
1.27
  0
CIRCLE
  5
73
  8
20
 10
18.796
 20
12.7
 30
0.0
 40
1.27
  0
CIRCLE
  5
74
  8
20
 10
177.546
 20
63.5
 30
0.0
 40
1.27
  0
CIRCLE
  5
75
  8
20
 10
177.546
 20
12.7
 30
0.0
 40
1.27
  0
CIRCLE
  5
76
  8
20
 10
98.171
 20
63.5
 30
0.0
 40
1.27
  0
CIRCLE
  5
77
  8
20
 10
98.171
 20
12.7
 30
0.0
 40
1.27
  0
CIRCLE
  5
7A
  8
44
 10
67.008
 20
8.89
 30
0.0
 40
0.4
  0
CIRCLE
  5
7D
  8
44
 10
65.008
 20
8.89
 30
0.0
 40
0.4
  0
CIRCLE
  5
80
  8
44
 10
63.008
 20
8.89
 30
0.0
 40
0.4
  0
CIRCLE
  5
83
  8
44
 10
61.008
 20
8.89
 30
0.0
 40
0.4
  0
CIRCLE
  5
86
  8
44
 10
89.36
 20
8.89
 30
0.0
 40
0.4
  0
CIRCLE
  5
89
  8
44
 10
87.36
 20
8.89
 30
0.0
 40
0.4
  0
CIRCLE
  5
8C
  8
44
 10
85.36
 20
8.89
 30
0.0
 40
0.4
  0
CIRCLE
  5
8F
  8
44
 10
83.36
 20
8.89
 30
0.0
 40
0.4
  0
CIRCLE
  5
92
  8
44
 10
58.8824
 20
70.824
 30
0.0
 40
0.508
  0
CIRCLE
  5
95
  8
44
 10
61.4224
 20
70.824
 30
0.0
 40
0.508
  0
CIRCLE
  5
98
  8
44
 10
63.9624
 20
70.824
 30
0.0
 40
0.508
  0
CIRCLE
  5
9B
  8
44
 10
66.5024
 20
70.824
 30
0.0
 40
0.508
  0
CIRCLE
  5
9E
  8
44
 10
69.0424
 20
70.824
 30
0.0
 40
0.508
  0
CIRCLE
  5
A1
  8
44
 10
71.5824
 20
70.824
 30
0.0
 40
0.508
  0
CIRCLE
  5
A4
  8
44
 10
78.184
 20
8.89
 30
0.0
 40
0.4
  0
CIRCLE
  5
A7
  8
44
 10
76.184
 20
8.89
 30
0.0
 40
0.4
  0
CIRCLE
  5
AA
  8
44
 10
74.184
 20
8.89
 30
0.0
 40
0.4
  0
CIRCLE
  5
AD
  8
44
 10
72.184
 20
8.89
 30
0.0
 40
0.4
  0
CIRCLE
  5
B0
  8
44
 10
43.386
 20
8.89
 30
0.0
 40
0.4
  0
CIRCLE
  5
B3
  8
44
 10
41.386
 20
8.89
 30
0.0
 40
0.4
  0
CIRCLE
  5
B6
  8
44
 10
39.386
 20
8.89
 30
0.0
 40
0.4
  0
CIRCLE
  5
B9
  8
44
 10
37.386
 20
8.89
 30
0.0
 40
0.4
  0
CIRCLE
  5
BC
  8
44
 10
113.157
 20
44.577
 30
0.0
 40
0.6
  0
CIRCLE
  5
BF
  8
44
 10
113.157
 20
48.387
 30
0.0
 40
0.6
  0
CIRCLE
  5
C2
  8
44
 10
113.157
 20
52.197
 30
0.0
 40
0.6
  0
CIRCLE
  5
C5
  8
44
 10
113.157
 20
56.007
 30
0.0
 40
0.6
  0
CIRCLE
  5
C8
  8
44
 10
113.157
 20
59.817
 30
0.0
 40
0.6
  0
CIRCLE
  5
CB
  8
44
 10
113.157
 20
63.627
 30
0.0
 40
0.6
  0
CIRCLE
  5
CE
  8
44
 10
113.157
 20
67.437
 30
0.0
 40
0.6
  0
CIRCLE
  5
D1
  8
44
 10
113.157
 20
71.247
 30
0.0
 40
0.6
  0
CIRCLE
  5
D4
  8
44
 10
113.411
 20
5.715
 30
0.0
 40
0.6
  0
CIRCLE
  5
D7
  8
44
 10
113.411
 20
9.525
 30
0.0
 40
0.6
  0
CIRCLE
  5
DA
  8
44
 10
113.411
 20
13.335
 30
0.0
 40
0.6
  0
CIRCLE
  5
DD
  8
44
 10
113.411
 20
17.145
 30
0.0
 40
0.6
  0
CIRCLE
  5
E0
  8
44
 10
113.411
 20
20.955
 30
0.0
 40
0.6
  0
CIRCLE
  5
E3
  8
44
 10
113.411
 20
24.765
 30
0.0
 40
0.6
  0
CIRCLE
  5
E6
  8
44
 10
113.411
 20
28.575
 30
0.0
 40
0.6
  0
CIRCLE
  5
E9
  8
44
 10
113.411
 20
32.385
 30
0.0
 40
0.6
  0
CIRCLE
  5
EC
  8
44
 10
72.898
 20
28.956
 30
0.0
 40
0.508
  0
CIRCLE
  5
EF
  8
44
 10
70.358
 20
28.956
 30
0.0
 40
0.508
  0
CIRCLE
  5
F2
  8
44
 10
72.898
 20
31.496
 30
0.0
 40
0.508
  0
CIRCLE
  5
F5
  8
44
 10
70.358
 20
31.496
 30
0.0
 40
0.508
  0
CIRCLE
  5
F8
  8
44
 10
72.898
 20
34.036
 30
0.0
 40
0.508
  0
CIRCLE
  5
FB
  8
44
 10
70.358
 20
34.036
 30
0.0
 40
0.508
  0
CIRCLE
  5
FE
  8
44
 10
72.898
 20
36.576
 30
0.0
 40
0.508
  0
CIRCLE
  5
101
  8
44
 10
70.358
 20
36.576
 30
0.0
 40
0.508
  0
CIRCLE
  5
104
  8
44
 10
72.898
 20
39.116
 30
0.0
 40
0.508
  0
CIRCLE
  5
107
  8
44
 10
70.358
 20
39.116
 30
0.0
 40
0.508
  0
CIRCLE
  5
10A
  8
44
 10
72.898
 20
41.656
 30
0.0
 40
0.508
  0
CIRCLE
  5
10D
  8
44
 10
70.358
 20
41.656
 30
0.0
 40
0.508
  0
CIRCLE
  5
110
  8
44
 10
72.898
 20
44.196
 30
0.0
 40
0.508
  0
CIRCLE
  5
113
  8
44
 10
70.358
 20
44.196
 30
0.0
 40
0.508
  0
CIRCLE
  5
116
  8
44
 10
72.898
 20
46.736
 30
0.0
 40
0.508
  0
CIRCLE
  5
119
  8
44
 10
70.358
 20
46.736
 30
0.0
 40
0.508
  0
CIRCLE
  5
11C
  8
44
 10
9.906
 20
66.056
 30
0.0
 40
0.35
  0
CIRCLE
  5
11F
  8
44
 10
9.906
 20
68.056
 30
0.0
 40
0.35
  0
CIRCLE
  5
120
  8
20
 10
33.2613
 20
21.209
 30
0.0
 40
1.65
  0
CIRCLE
  5
121
  8
20
 10
73.4187
 20
61.849
 30
0.0
 40
1.65
  0
CIRCLE
  5
122
  8
20
 10
33.2613
 20
61.849
 30
0.0
 40
1.65
  0
CIRCLE
  5
125
  8
44
 10
72.39
 20
64.77
 30
0.0
 40
0.508
  0
CIRCLE
  5
128
  8
44
 10
69.85
 20
64.77
 30
0.0
 40
0.508
  0
CIRCLE
  5
12B
  8
44
 10
67.31
 20
64.77
 30
0.0
 40
0.508
  0
CIRCLE
  5
12E
  8
44
 10
64.77
 20
64.77
 30
0.0
 40
0.508
  0
CIRCLE
  5
131
  8
44
 10
62.23
 20
64.77
 30
0.0
 40
0.508
  0
CIRCLE
  5
134
  8
44
 10
59.69
 20
64.77
 30
0.0
 40
0.508
  0
CIRCLE
  5
137
  8
44
 10
57.15
 20
64.77
 30
0.0
 40
0.508
  0
CIRCLE
  5
13A
  8
44
 10
54.61
 20
64.77
 30
0.0
 40
0.508
  0
CIRCLE
  5
13D
  8
44
 10
52.07
 20
64.77
 30
0.0
 40
0.508
  0
CIRCLE
  5
140
  8
44
 10
49.53
 20
64.77
 30
0.0
 40
0.508
  0
CIRCLE
  5
143
  8
44
 10
46.99
 20
64.77
 30
0.0
 40
0.508
  0
CIRCLE
  5
146
  8
44
 10
44.45
 20
64.77
 30
0.0
 40
0.508
  0
CIRCLE
  5
149
  8
44
 10
41.91
 20
64.77
 30
0.0
 40
0.508
  0
CIRCLE
  5
14C
  8
44
 10
39.37
 20
64.77
 30
0.0
 40
0.508
  0
CIRCLE
  5
14F
  8
44
 10
36.83
 20
64.77
 30
0.0
 40
0.508
  0
CIRCLE
  5
152
  8
44
 10
34.29
 20
64.77
 30
0.0
 40
0.508
  0
CIRCLE
  5
155
  8
44
 10
4.826
 20
11.43
 30
0.0
 40
0.4064
  0
CIRCLE
  5
158
  8
44
 10
7.366
 20
11.43
 30
0.0
 40
0.4064
  0
CIRCLE
  5
15B
  8
44
 10
4.572
 20
19.558
 30
0.0
 40
0.4064
  0
CIRCLE
  5
15E
  8
44
 10
7.112
 20
19.558
 30
0.0
 40
0.4064
  0
CIRCLE
  5
15F
  8
20
 10
88.265
 20
53.34
 30
0.0
 40
0.5
  0
CIRCLE
  5
160
  8
20
 10
80.645
 20
58.42
 30
0.0
 40
0.5
  0
CIRCLE
  5
163
  8
44
 10
88.265
 20
60.96
 30
0.0
 40
0.61
  0
CIRCLE
  5
166
  8
44
 10
83.185
 20
55.88
 30
0.0
 40
0.61
  0
CIRCLE
  5
167
  8
20
 10
88.265
 20
40.64
 30
0.0
 40
0.5
  0
CIRCLE
  5
168
  8
20
 10
80.645
 20
45.72
 30
0.0
 40
0.5
  0
CIRCLE
  5
16B
  8
44
 10
88.265
 20
48.26
 30
0.0
 40
0.61
  0
CIRCLE
  5
16E
  8
44
 10
83.185
 20
43.18
 30
0.0
 40
0.61
  0
CIRCLE
  5
16F
  8
20
 10
88.265
 20
27.94
 30
0.0
 40
0.5
  0
CIRCLE
  5
170
  8
20
 10
80.645
 20
33.02
 30
0.0
 40
0.5
  0
CIRCLE
  5
173
  8
44
 10
88.265
 20
35.56
 30
0.0
 40
0.61
  0
CIRCLE
  5
176
  8
44
 10
83.185
 20
30.48
 30
0.0
 40
0.61
  0
CIRCLE
  5
177
  8
20
 10
88.265
 20
15.24
 30
0.0
 40
0.5
  0
CIRCLE
  5
178
  8
20
 10
80.645
 20
20.32
 30
0.0
 40
0.5
  0
CIRCLE
  5
17B
  8
44
 10
88.265
 20
22.86
 30
0.0
 40
0.61
  0
CIRCLE
  5
17E
  8
44
 10
83.185
 20
17.78
 30
0.0
 40
0.61
  0
CIRCLE
  5
17F
  8
20
 10
49.924
 20
69.64
 30
0.0
 40
1.375
  0
CIRCLE
  5
180
  8
20
 10
26.924
 20
69.64
 30
0.0
 40
1.375
  0
CIRCLE
  5
181
  8
20
 10
49.924
 20
11.64
 30
0.0
 40
1.375
  0
CIRCLE
  5
182
  8
20
 10
26.924
 20
11.64
 30
0.0
 40
1.375
  0
CIRCLE
  5
185
  8
44
 10
28.194
 20
64.77
 30
0.0
 40
0.5
  0
CIRCLE
  5
188
  8
44
 10
25.654
 20
64.77
 30
0.0
 40
0.5
  0
CIRCLE
  5
18B
  8
44
 10
28.194
 20
62.23
 30
0.0
 40
0.5
  0
CIRCLE
  5
18E
  8
44
 10
25.654
 20
62.23
 30
0.0
 40
0.5
  0
CIRCLE
  5
191
  8
44
 10
28.194
 20
59.69
 30
0.0
 40
0.5
  0
CIRCLE
  5
194
  8
44
 10
25.654
 20
59.69
 30
0.0
 40
0.5
  0
CIRCLE
  5
197
  8
44
 10
28.194
 20
57.15
 30
0.0
 40
0.5
  0
CIRCLE
  5
19A
  8
44
 10
25.654
 20
57.15
 30
0.0
 40
0.5
  0
CIRCLE
  5
19D
  8
44
 10
28.194
 20
54.61
 30
0.0
 40
0.5
  0
CIRCLE
  5
1A0
  8
44
 10
25.654
 20
54.61
 30
0.0
 40
0.5
  0
CIRCLE
  5
1A3
  8
44
 10
28.194
 20
52.07
 30
0.0
 40
0.5
  0
CIRCLE
  5
1A6
  8
44
 10
25.654
 20
52.07
 30
0.0
 40
0.5
  0
CIRCLE
  5
1A9
  8
44
 10
28.194
 20
49.53
 30
0.0
 40
0.5
  0
CIRCLE
  5
1AC
  8
44
 10
25.654
 20
49.53
 30
0.0
 40
0.5
  0
CIRCLE
  5
1AF
  8
44
 10
28.194
 20
46.99
 30
0.0
 40
0.5
  0
CIRCLE
  5
1B2
  8
44
 10
25.654
 20
46.99
 30
0.0
 40
0.5
  0
CIRCLE
  5
1B5
  8
44
 10
28.194
 20
44.45
 30
0.0
 40
0.5
  0
CIRCLE
  5
1B8
  8
44
 10
25.654
 20
44.45
 30
0.0
 40
0.5
  0
CIRCLE
  5
1BB
  8
44
 10
28.194
 20
41.91
 30
0.0
 40
0.5
  0
CIRCLE
  5
1BE
  8
44
 10
25.654
 20
41.91
 30
0.0
 40
0.5
  0
CIRCLE
  5
1C1
  8
44
 10
28.194
 20
39.37
 30
0.0
 40
0.5
  0
CIRCLE
  5
1C4
  8
44
 10
25.654
 20
39.37
 30
0.0
 40
0.5
  0
CIRCLE
  5
1C7
  8
44
 10
28.194
 20
36.83
 30
0.0
 40
0.5
  0
CIRCLE
  5
1CA
  8
44
 10
25.654
 20
36.83
 30
0.0
 40
0.5
  0
CIRCLE
  5
1CD
  8
44
 10
28.194
 20
34.29
 30
0.0
 40
0.5
  0
CIRCLE
  5
1D0
  8
44
 10
25.654
 20
34.29
 30
0.0
 40
0.5
  0
CIRCLE
  5
1D3
  8
44
 10
28.194
 20
31.75
 30
0.0
 40
0.5
  0
CIRCLE
  5
1D6
  8
44
 10
25.654
 20
31.75
 30
0.0
 40
0.5
  0
CIRCLE
  5
1D9
  8
44
 10
28.194
 20
29.21
 30
0.0
 40
0.5
  0
CIRCLE
  5
1DC
  8
44
 10
25.654
 20
29.21
 30
0.0
 40
0.5
  0
CIRCLE
  5
1DF
  8
44
 10
28.194
 20
26.67
 30
0.0
 40
0.5
  0
CIRCLE
  5
1E2
  8
44
 10
25.654
 20
26.67
 30
0.0
 40
0.5
  0
CIRCLE
  5
1E5
  8
44
 10
28.194
 20
24.13
 30
0.0
 40
0.5
  0
CIRCLE
  5
1E8
  8
44
 10
25.654
 20
24.13
 30
0.0
 40
0.5
  0
CIRCLE
  5
1EB
  8
44
 10
28.194
 20
21.59
 30
0.0
 40
0.5
  0
CIRCLE
  5
1EE
  8
44
 10
25.654
 20
21.59
 30
0.0
 40
0.5
  0
CIRCLE
  5
1F1
  8
44
 10
28.194
 20
19.05
 30
0.0
 40
0.5
  0
CIRCLE
  5
1F4
  8
44
 10
25.654
 20
19.05
 30
0.0
 40
0.5
  0
CIRCLE
  5
1F7
  8
44
 10
28.194
 20
16.51
 30
0.0
 40
0.5
  0
CIRCLE
  5
1FA
  8
44
 10
25.654
 20
16.51
 30
0.0
 40
0.5
  0
CIRCLE
  5
1FD
  8
44
 10
10.092
 20
27.138
 30
0.0
 40
0.5
  0
CIRCLE
  5
200
  8
44
 10
10.092
 20
30.638
 30
0.0
 40
0.5
  0
ENDSEC
  0
EOF
