  0
SECTION
  2
HEADER
  9
$ACADVER
  1
AC1024
  9
$ACADMAINTVER
 70
     6
  9
$DWGCODEPAGE
  3
ANSI_1252
  9
$INSBASE
 10
0.0
 20
0.0
 30
0.0
  9
$EXTMIN
 10
1.000000000000000E+20
 20
1.000000000000000E+20
 30
1.000000000000000E+20
  9
$EXTMAX
 10
-1.000000000000000E+20
 20
-1.000000000000000E+20
 30
-1.000000000000000E+20
  9
$LIMMIN
 10
0.0
 20
0.0
  9
$LIMMAX
 10
12.0
 20
9.0
  9
$ORTHOMODE
 70
     0
  9
$REGENMODE
 70
     1
  9
$FILLMODE
 70
     1
  9
$QTEXTMODE
 70
     0
  9
$MIRRTEXT
 70
     1
  9
$LTSCALE
 40
1.0
  9
$ATTMODE
 70
     1
  9
$TEXTSIZE
 40
0.2
  9
$TRACEWID
 40
0.05
  9
$TEXTSTYLE
  7
Standard
  9
$CLAYER
  8
0
  9
$CELTYPE
  6
ByLayer
  9
$CECOLOR
 62
   256
  9
$CELTSCALE
 40
1.0
  9
$DISPSILH
 70
     0
  9
$DIMSCALE
 40
1.0
  9
$DIMASZ
 40
0.18
  9
$DIMEXO
 40
0.0625
  9
$DIMDLI
 40
0.38
  9
$DIMRND
 40
0.0
  9
$DIMDLE
 40
0.0
  9
$DIMEXE
 40
0.18
  9
$DIMTP
 40
0.0
  9
$DIMTM
 40
0.0
  9
$DIMTXT
 40
0.18
  9
$DIMCEN
 40
0.09
  9
$DIMTSZ
 40
0.0
  9
$DIMTOL
 70
     0
  9
$DIMLIM
 70
     0
  9
$DIMTIH
 70
     1
  9
$DIMTOH
 70
     1
  9
$DIMSE1
 70
     0
  9
$DIMSE2
 70
     0
  9
$DIMTAD
 70
     0
  9
$DIMZIN
 70
     0
  9
$DIMBLK
  1

  9
$DIMASO
 70
     1
  9
$DIMSHO
 70
     1
  9
$DIMPOST
  1

  9
$DIMAPOST
  1

  9
$DIMALT
 70
     0
  9
$DIMALTD
 70
     2
  9
$DIMALTF
 40
25.4
  9
$DIMLFAC
 40
1.0
  9
$DIMTOFL
 70
     0
  9
$DIMTVP
 40
0.0
  9
$DIMTIX
 70
     0
  9
$DIMSOXD
 70
     0
  9
$DIMSAH
 70
     0
  9
$DIMBLK1
  1

  9
$DIMBLK2
  1

  9
$DIMSTYLE
  2
Standard
  9
$DIMCLRD
 70
     0
  9
$DIMCLRE
 70
     0
  9
$DIMCLRT
 70
     0
  9
$DIMTFAC
 40
1.0
  9
$DIMGAP
 40
0.09
  9
$DIMJUST
 70
     0
  9
$DIMSD1
 70
     0
  9
$DIMSD2
 70
     0
  9
$DIMTOLJ
 70
     1
  9
$DIMTZIN
 70
     0
  9
$DIMALTZ
 70
     0
  9
$DIMALTTZ
 70
     0
  9
$DIMUPT
 70
     0
  9
$DIMDEC
 70
     4
  9
$DIMTDEC
 70
     4
  9
$DIMALTU
 70
     2
  9
$DIMALTTD
 70
     2
  9
$DIMTXSTY
  7
Standard
  9
$DIMAUNIT
 70
     0
  9
$DIMADEC
 70
     0
  9
$DIMALTRND
 40
0.0
  9
$DIMAZIN
 70
     0
  9
$DIMDSEP
 70
    46
  9
$DIMATFIT
 70
     3
  9
$DIMFRAC
 70
     0
  9
$DIMLDRBLK
  1

  9
$DIMLUNIT
 70
     2
  9
$DIMLWD
 70
    -2
  9
$DIMLWE
 70
    -2
  9
$DIMTMOVE
 70
     0
  9
$DIMFXL
 40
1.0
  9
$DIMFXLON
 70
     0
  9
$DIMJOGANG
 40
0.7853981633974483
  9
$DIMTFILL
 70
     0
  9
$DIMTFILLCLR
 70
     0
  9
$DIMARCSYM
 70
     0
  9
$DIMLTYPE
  6

  9
$DIMLTEX1
  6

  9
$DIMLTEX2
  6

  9
$DIMTXTDIRECTION
 70
     0
  9
$LUNITS
 70
     2
  9
$LUPREC
 70
     4
  9
$SKETCHINC
 40
0.1
  9
$FILLETRAD
 40
0.5
  9
$AUNITS
 70
     0
  9
$AUPREC
 70
     0
  9
$MENU
  1
.
  9
$ELEVATION
 40
0.0
  9
$PELEVATION
 40
0.0
  9
$THICKNESS
 40
0.0
  9
$LIMCHECK
 70
     0
  9
$CHAMFERA
 40
0.5
  9
$CHAMFERB
 40
0.5
  9
$CHAMFERC
 40
1.0
  9
$CHAMFERD
 40
0.0
  9
$SKPOLY
 70
     0
  9
$TDCREATE
 40
2459205.359438032
  9
$TDUCREATE
 40
2459205.567771366
  9
$TDUPDATE
 40
2459205.359438056
  9
$TDUUPDATE
 40
2459205.567771389
  9
$TDINDWG
 40
0.0000000116
  9
$TDUSRTIMER
 40
0.0000000116
  9
$USRTIMER
 70
     1
  9
$ANGBASE
 50
0.0
  9
$ANGDIR
 70
     0
  9
$PDMODE
 70
     0
  9
$PDSIZE
 40
0.0
  9
$PLINEWID
 40
0.0
  9
$SPLFRAME
 70
     0
  9
$SPLINETYPE
 70
     6
  9
$SPLINESEGS
 70
     8
  9
$HANDSEED
  5
95
  9
$SURFTAB1
 70
     6
  9
$SURFTAB2
 70
     6
  9
$SURFTYPE
 70
     6
  9
$SURFU
 70
     6
  9
$SURFV
 70
     6
  9
$UCSBASE
  2

  9
$UCSNAME
  2

  9
$UCSORG
 10
0.0
 20
0.0
 30
0.0
  9
$UCSXDIR
 10
1.0
 20
0.0
 30
0.0
  9
$UCSYDIR
 10
0.0
 20
1.0
 30
0.0
  9
$UCSORTHOREF
  2

  9
$UCSORTHOVIEW
 70
     0
  9
$UCSORGTOP
 10
0.0
 20
0.0
 30
0.0
  9
$UCSORGBOTTOM
 10
0.0
 20
0.0
 30
0.0
  9
$UCSORGLEFT
 10
0.0
 20
0.0
 30
0.0
  9
$UCSORGRIGHT
 10
0.0
 20
0.0
 30
0.0
  9
$UCSORGFRONT
 10
0.0
 20
0.0
 30
0.0
  9
$UCSORGBACK
 10
0.0
 20
0.0
 30
0.0
  9
$PUCSBASE
  2

  9
$PUCSNAME
  2

  9
$PUCSORG
 10
0.0
 20
0.0
 30
0.0
  9
$PUCSXDIR
 10
1.0
 20
0.0
 30
0.0
  9
$PUCSYDIR
 10
0.0
 20
1.0
 30
0.0
  9
$PUCSORTHOREF
  2

  9
$PUCSORTHOVIEW
 70
     0
  9
$PUCSORGTOP
 10
0.0
 20
0.0
 30
0.0
  9
$PUCSORGBOTTOM
 10
0.0
 20
0.0
 30
0.0
  9
$PUCSORGLEFT
 10
0.0
 20
0.0
 30
0.0
  9
$PUCSORGRIGHT
 10
0.0
 20
0.0
 30
0.0
  9
$PUCSORGFRONT
 10
0.0
 20
0.0
 30
0.0
  9
$PUCSORGBACK
 10
0.0
 20
0.0
 30
0.0
  9
$USERI1
 70
     0
  9
$USERI2
 70
     0
  9
$USERI3
 70
     0
  9
$USERI4
 70
     0
  9
$USERI5
 70
     0
  9
$USERR1
 40
0.0
  9
$USERR2
 40
0.0
  9
$USERR3
 40
0.0
  9
$USERR4
 40
0.0
  9
$USERR5
 40
0.0
  9
$WORLDVIEW
 70
     1
  9
$SHADEDGE
 70
     3
  9
$SHADEDIF
 70
    70
  9
$TILEMODE
 70
     1
  9
$MAXACTVP
 70
    64
  9
$PINSBASE
 10
0.0
 20
0.0
 30
0.0
  9
$PLIMCHECK
 70
     0
  9
$PEXTMIN
 10
1.000000000000000E+20
 20
1.000000000000000E+20
 30
1.000000000000000E+20
  9
$PEXTMAX
 10
-1.000000000000000E+20
 20
-1.000000000000000E+20
 30
-1.000000000000000E+20
  9
$PLIMMIN
 10
0.0
 20
0.0
  9
$PLIMMAX
 10
12.0
 20
9.0
  9
$UNITMODE
 70
     0
  9
$VISRETAIN
 70
     1
  9
$PLINEGEN
 70
     0
  9
$PSLTSCALE
 70
     1
  9
$TREEDEPTH
 70
  3020
  9
$CMLSTYLE
  2
Standard
  9
$CMLJUST
 70
     0
  9
$CMLSCALE
 40
1.0
  9
$PROXYGRAPHICS
 70
     1
  9
$MEASUREMENT
 70
     0
  9
$CELWEIGHT
370
    -1
  9
$ENDCAPS
280
     0
  9
$JOINSTYLE
280
     0
  9
$LWDISPLAY
290
     1
  9
$INSUNITS
 70
     1
  9
$HYPERLINKBASE
  1

  9
$STYLESHEET
  1

  9
$XEDIT
290
     1
  9
$CEPSNTYPE
380
     0
  9
$PSTYLEMODE
290
     1
  9
$FINGERPRINTGUID
  2
{2BBE4EFC-25F1-4050-893C-11D4F7F4D9FC}
  9
$VERSIONGUID
  2
{FAEB1C32-E019-11D5-929B-00C0DF256EC4}
  9
$EXTNAMES
290
     1
  9
$PSVPSCALE
 40
0.0
  9
$OLESTARTUP
290
     0
  9
$SORTENTS
280
   127
  9
$INDEXCTL
280
     0
  9
$HIDETEXT
280
     1
  9
$XCLIPFRAME
280
     2
  9
$HALOGAP
280
     0
  9
$OBSCOLOR
 70
   257
  9
$OBSLTYPE
280
     0
  9
$INTERSECTIONDISPLAY
280
     0
  9
$INTERSECTIONCOLOR
 70
   257
  9
$DIMASSOC
280
     2
  9
$PROJECTNAME
  1

  9
$CAMERADISPLAY
290
     0
  9
$LENSLENGTH
 40
50.0
  9
$CAMERAHEIGHT
 40
0.0
  9
$STEPSPERSEC
 40
2.0
  9
$STEPSIZE
 40
6.0
  9
$3DDWFPREC
 40
2.0
  9
$PSOLWIDTH
 40
0.25
  9
$PSOLHEIGHT
 40
4.0
  9
$LOFTANG1
 40
1.570796326794897
  9
$LOFTANG2
 40
1.570796326794897
  9
$LOFTMAG1
 40
0.0
  9
$LOFTMAG2
 40
0.0
  9
$LOFTPARAM
 70
     7
  9
$LOFTNORMALS
280
     1
  9
$LATITUDE
 40
37.795
  9
$LONGITUDE
 40
-122.394
  9
$NORTHDIRECTION
 40
0.0
  9
$TIMEZONE
 70
 -8000
  9
$LIGHTGLYPHDISPLAY
280
     1
  9
$TILEMODELIGHTSYNCH
280
     1
  9
$CMATERIAL
347
3C
  9
$SOLIDHIST
280
     1
  9
$SHOWHIST
280
     1
  9
$DWFFRAME
280
     2
  9
$DGNFRAME
280
     2
  9
$REALWORLDSCALE
290
     1
  9
$INTERFERECOLOR
 62
   256
  9
$CSHADOW
280
     0
  9
$SHADOWPLANELOCATION
 40
0.0
  0
ENDSEC
  0
SECTION
  2
CLASSES
  0
CLASS
  1
ACDBDICTIONARYWDFLT
  2
AcDbDictionaryWithDefault
  3
ObjectDBX Classes
 90
        0
 91
        4
280
     0
281
     0
  0
CLASS
  1
VISUALSTYLE
  2
AcDbVisualStyle
  3
ObjectDBX Classes
 90
     4095
 91
        4
280
     0
281
     0
  0
CLASS
  1
MATERIAL
  2
AcDbMaterial
  3
ObjectDBX Classes
 90
     1153
 91
        4
280
     0
281
     0
  0
CLASS
  1
SUN
  2
AcDbSun
  3
SCENEOE
 90
     1024
 91
        4
280
     0
281
     0
  0
ENDSEC
  0
SECTION
  2
TABLES
  0
TABLE
  2
VPORT
  5
8
330
0
100
AcDbSymbolTable
 70
     1
  0
VPORT
  5
29
330
8
100
AcDbSymbolTableRecord
100
AcDbViewportTableRecord
  2
*Active
 70
     0
 10
0.0
 20
0.0
 11
1.0
 21
1.0
 12
0.0
 22
0.0
 13
0.0
 23
0.0
 14
0.5
 24
0.5
 15
0.5
 25
0.5
 16
0.0
 26
0.0
 36
1.0
 17
5.238095945782131
 27
8.373016039530436
 37
0.0
 40
1.51563835144043
 41
6.106320592688792
 42
50.0
 43
0.0
 44
0.0
 50
0.0
 51
0.0
 71
     0
 72
   100
 73
     1
 74
     3
 75
     0
 76
     0
 77
     0
 78
     0
281
     0
 65
     1
110
0.0
120
0.0
130
0.0
111
1.0
121
0.0
131
0.0
112
0.0
122
1.0
132
0.0
 79
     0
146
0.0
 60
     3
 61
     5
292
     1
282
     1
141
0.0
142
0.0
 63
   250
361
3F
  0
ENDTAB
  0
TABLE
  2
LTYPE
  5
5
330
0
100
AcDbSymbolTable
 70
     1
  0
LTYPE
  5
14
330
5
100
AcDbSymbolTableRecord
100
AcDbLinetypeTableRecord
  2
ByBlock
 70
     0
  3

 72
    65
 73
     0
 40
0.0
  0
LTYPE
  5
15
330
5
100
AcDbSymbolTableRecord
100
AcDbLinetypeTableRecord
  2
ByLayer
 70
     0
  3

 72
    65
 73
     0
 40
0.0
  0
LTYPE
  5
16
330
5
100
AcDbSymbolTableRecord
100
AcDbLinetypeTableRecord
  2
Continuous
 70
     0
  3
Solid line
 72
    65
 73
     0
 40
0.0
  0
ENDTAB
  0
TABLE
  2
LAYER
  5
2
330
0
100
AcDbSymbolTable
 70
     2
  0
LAYER
  5
10
330
2
100
AcDbSymbolTableRecord
100
AcDbLayerTableRecord
  2
0
 70
     0
 62
     7
  6
Continuous
370
    -3
390
F
347
3E
  0
LAYER
  5
40
330
2
100
AcDbSymbolTableRecord
100
AcDbLayerTableRecord
  2
Layer 1
 70
     0
 62
     7
  6
Continuous
370
    -3
390
F
347
3E
  0
ENDTAB
  0
TABLE
  2
STYLE
  5
3
330
0
100
AcDbSymbolTable
 70
     1
  0
STYLE
  5
11
330
3
100
AcDbSymbolTableRecord
100
AcDbTextStyleTableRecord
  2
Standard
 70
     0
 40
0.0
 41
1.0
 50
0.0
 71
     0
 42
0.2
  3
txt
  4

  0
ENDTAB
  0
TABLE
  2
VIEW
  5
6
330
0
100
AcDbSymbolTable
 70
     0
  0
ENDTAB
  0
TABLE
  2
UCS
  5
7
330
0
100
AcDbSymbolTable
 70
     0
  0
ENDTAB
  0
TABLE
  2
APPID
  5
9
330
0
100
AcDbSymbolTable
 70
     1
  0
APPID
  5
12
330
9
100
AcDbSymbolTableRecord
100
AcDbRegAppTableRecord
  2
ACAD
 70
     0
  0
ENDTAB
  0
TABLE
  2
DIMSTYLE
  5
A
330
0
100
AcDbSymbolTable
 70
     1
100
AcDbDimStyleTable
  0
DIMSTYLE
105
27
330
A
100
AcDbSymbolTableRecord
100
AcDbDimStyleTableRecord
  2
Standard
 70
     0
178
     0
340
11
  0
ENDTAB
  0
TABLE
  2
BLOCK_RECORD
  5
1
330
0
100
AcDbSymbolTable
 70
    12
  0
BLOCK_RECORD
  5
1F
330
1
100
AcDbSymbolTableRecord
100
AcDbBlockTableRecord
  2
*Model_Space
340
22
 70
     0
280
     1
281
     0
  0
BLOCK_RECORD
  5
1B
330
1
100
AcDbSymbolTableRecord
100
AcDbBlockTableRecord
  2
*Paper_Space
340
1E
 70
     0
280
     1
281
     0
  0
BLOCK_RECORD
  5
23
330
1
100
AcDbSymbolTableRecord
100
AcDbBlockTableRecord
  2
*Paper_Space0
340
26
 70
     0
280
     1
281
     0
  0
BLOCK_RECORD
  5
41
330
1
100
AcDbSymbolTableRecord
100
AcDbBlockTableRecord
  2
block 2
340
0
102
{BLKREFS
331
42
102
}
 70
     0
280
     1
281
     0
  0
BLOCK_RECORD
  5
45
330
1
100
AcDbSymbolTableRecord
100
AcDbBlockTableRecord
  2
block 3
340
0
102
{BLKREFS
331
46
102
}
 70
     0
280
     1
281
     0
  0
BLOCK_RECORD
  5
49
330
1
100
AcDbSymbolTableRecord
100
AcDbBlockTableRecord
  2
block 4
340
0
102
{BLKREFS
331
4A
102
}
 70
     0
280
     1
281
     0
  0
BLOCK_RECORD
  5
4D
330
1
100
AcDbSymbolTableRecord
100
AcDbBlockTableRecord
  2
block 5
340
0
102
{BLKREFS
331
4E
102
}
 70
     0
280
     1
281
     0
  0
BLOCK_RECORD
  5
51
330
1
100
AcDbSymbolTableRecord
100
AcDbBlockTableRecord
  2
block 6
340
0
102
{BLKREFS
331
52
102
}
 70
     0
280
     1
281
     0
  0
BLOCK_RECORD
  5
55
330
1
100
AcDbSymbolTableRecord
100
AcDbBlockTableRecord
  2
block 7
340
0
102
{BLKREFS
331
56
102
}
 70
     0
280
     1
281
     0
  0
BLOCK_RECORD
  5
6F
330
1
100
AcDbSymbolTableRecord
100
AcDbBlockTableRecord
  2
block 8
340
0
102
{BLKREFS
331
70
102
}
 70
     0
280
     1
281
     0
  0
BLOCK_RECORD
  5
79
330
1
100
AcDbSymbolTableRecord
100
AcDbBlockTableRecord
  2
block 9
340
0
102
{BLKREFS
331
7A
102
}
 70
     0
280
     1
281
     0
  0
BLOCK_RECORD
  5
7D
330
1
100
AcDbSymbolTableRecord
100
AcDbBlockTableRecord
  2
block 10
340
0
102
{BLKREFS
331
7E
102
}
 70
     0
280
     1
281
     0
  0
BLOCK_RECORD
  5
83
330
1
100
AcDbSymbolTableRecord
100
AcDbBlockTableRecord
  2
block 11
340
0
102
{BLKREFS
331
84
102
}
 70
     0
280
     1
281
     0
  0
BLOCK_RECORD
  5
89
330
1
100
AcDbSymbolTableRecord
100
AcDbBlockTableRecord
  2
block 12
340
0
102
{BLKREFS
331
8A
102
}
 70
     0
280
     1
281
     0
  0
ENDTAB
  0
ENDSEC
  0
SECTION
  2
BLOCKS
  0
BLOCK
  5
20
330
1F
100
AcDbEntity
  8
0
100
AcDbBlockBegin
  2
*Model_Space
 70
     0
 10
0.0
 20
0.0
 30
0.0
  3
*Model_Space
  1

  0
ENDBLK
  5
21
330
1F
100
AcDbEntity
  8
0
100
AcDbBlockEnd
  0
BLOCK
  5
1C
330
1B
100
AcDbEntity
 67
     1
  8
0
100
AcDbBlockBegin
  2
*Paper_Space
 70
     0
 10
0.0
 20
0.0
 30
0.0
  3
*Paper_Space
  1

  0
ENDBLK
  5
1D
330
1B
100
AcDbEntity
 67
     1
  8
0
100
AcDbBlockEnd
  0
BLOCK
  5
24
330
23
100
AcDbEntity
  8
0
100
AcDbBlockBegin
  2
*Paper_Space0
 70
     0
 10
0.0
 20
0.0
 30
0.0
  3
*Paper_Space0
  1

  0
ENDBLK
  5
25
330
23
100
AcDbEntity
  8
0
100
AcDbBlockEnd
  0
BLOCK
  5
43
330
41
100
AcDbEntity
  8
0
100
AcDbBlockBegin
  2
block 2
 70
     0
 10
0.0
 20
0.0
 30
0.0
  3
block 2
  1

  0
INSERT
  5
46
330
41
100
AcDbEntity
  8
Layer 1
100
AcDbBlockReference
  2
block 3
 10
0.0
 20
0.0
 30
0.0
  0
ENDBLK
  5
44
330
41
100
AcDbEntity
  8
0
100
AcDbBlockEnd
  0
BLOCK
  5
47
330
45
100
AcDbEntity
  8
0
100
AcDbBlockBegin
  2
block 3
 70
     0
 10
0.0
 20
0.0
 30
0.0
  3
block 3
  1

  0
ENDBLK
  5
48
330
45
100
AcDbEntity
  8
0
100
AcDbBlockEnd
  0
BLOCK
  5
4B
330
49
100
AcDbEntity
  8
0
100
AcDbBlockBegin
  2
block 4
 70
     0
 10
0.0
 20
0.0
 30
0.0
  3
block 4
  1

  0
ENDBLK
  5
4C
330
49
100
AcDbEntity
  8
0
100
AcDbBlockEnd
  0
BLOCK
  5
4F
330
4D
100
AcDbEntity
  8
0
100
AcDbBlockBegin
  2
block 5
 70
     0
 10
0.0
 20
0.0
 30
0.0
  3
block 5
  1

  0
INSERT
  5
52
330
4D
100
AcDbEntity
  8
Layer 1
100
AcDbBlockReference
  2
block 6
 10
0.0
 20
0.0
 30
0.0
  0
INSERT
  5
56
330
4D
100
AcDbEntity
  8
Layer 1
100
AcDbBlockReference
  2
block 7
 10
0.0
 20
0.0
 30
0.0
  0
ENDBLK
  5
50
330
4D
100
AcDbEntity
  8
0
100
AcDbBlockEnd
  0
BLOCK
  5
53
330
51
100
AcDbEntity
  8
0
100
AcDbBlockBegin
  2
block 6
 70
     0
 10
0.0
 20
0.0
 30
0.0
  3
block 6
  1

  0
ENDBLK
  5
54
330
51
100
AcDbEntity
  8
0
100
AcDbBlockEnd
  0
BLOCK
  5
57
330
55
100
AcDbEntity
  8
0
100
AcDbBlockBegin
  2
block 7
 70
     0
 10
0.0
 20
0.0
 30
0.0
  3
block 7
  1

  0
SPLINE
  5
59
330
55
100
AcDbEntity
  8
Layer 1
370
     0
100
AcDbSpline
210
0.0
220
0.0
230
1.0
 70
    11
 71
     3
 72
   110
 73
   106
 74
     0
 42
0.0000000001
 43
0.0000000001
 12
1.0
 22
0.0
 32
0.0
 13
1.0
 23
0.0
 33
0.0
 40
0.0
 40
0.0
 40
0.0
 40
0.0
 40
1.0
 40
1.0
 40
1.0
 40
2.0
 40
2.0
 40
2.0
 40
3.0
 40
3.0
 40
3.0
 40
4.0
 40
4.0
 40
4.0
 40
5.0
 40
5.0
 40
5.0
 40
6.0
 40
6.0
 40
6.0
 40
7.0
 40
7.0
 40
7.0
 40
8.0
 40
8.0
 40
8.0
 40
9.0
 40
9.0
 40
9.0
 40
10.0
 40
10.0
 40
10.0
 40
11.0
 40
11.0
 40
11.0
 40
12.0
 40
12.0
 40
12.0
 40
13.0
 40
13.0
 40
13.0
 40
14.0
 40
14.0
 40
14.0
 40
15.0
 40
15.0
 40
15.0
 40
16.0
 40
16.0
 40
16.0
 40
17.0
 40
17.0
 40
17.0
 40
18.0
 40
18.0
 40
18.0
 40
19.0
 40
19.0
 40
19.0
 40
20.0
 40
20.0
 40
20.0
 40
21.0
 40
21.0
 40
21.0
 40
22.0
 40
22.0
 40
22.0
 40
23.0
 40
23.0
 40
23.0
 40
24.0
 40
24.0
 40
24.0
 40
25.0
 40
25.0
 40
25.0
 40
26.0
 40
26.0
 40
26.0
 40
27.0
 40
27.0
 40
27.0
 40
28.0
 40
28.0
 40
28.0
 40
29.0
 40
29.0
 40
29.0
 40
30.0
 40
30.0
 40
30.0
 40
31.0
 40
31.0
 40
31.0
 40
32.0
 40
32.0
 40
32.0
 40
33.0
 40
33.0
 40
33.0
 40
34.0
 40
34.0
 40
34.0
 40
35.0
 40
35.0
 40
35.0
 40
35.0
 10
0.9999008178710938
 20
7.829057481553819
 30
0.0
 10
0.9999008178710938
 20
7.829057481553819
 30
0.0
 10
0.8198174900478786
 20
8.544821421305338
 30
0.0
 10
0.8198174900478786
 20
8.544821421305338
 30
0.0
 10
0.8198174900478786
 20
8.544821421305338
 30
0.0
 10
0.8198174900478786
 20
7.769307454427083
 30
0.0
 10
0.8198174900478786
 20
7.769307454427083
 30
0.0
 10
0.8198174900478786
 20
7.726390838623047
 30
0.0
 10
0.810248057047526
 20
7.694196489122178
 30
0.0
 10
0.7910813755459255
 20
7.672737969292534
 30
0.0
 10
0.7719285753038194
 20
7.651279449462891
 30
0.0
 10
0.7465119361877441
 20
7.640571170383029
 30
0.0
 10
0.7148313522338867
 20
7.640571170383029
 30
0.0
 10
0.6841785642835828
 20
7.640571170383029
 30
0.0
 10
0.6591368781195747
 20
7.651182386610243
 30
0.0
 10
0.6397341092427571
 20
7.672362857394748
 30
0.0
 10
0.6203174591064453
 20
7.69355731540256
 30
0.0
 10
0.6106091075473361
 20
7.725890689425998
 30
0.0
 10
0.6106091075473361
 20
7.769307454427083
 30
0.0
 10
0.6106091075473361
 20
7.769307454427083
 30
0.0
 10
0.6106091075473361
 20
8.658237881130642
 30
0.0
 10
0.6106091075473361
 20
8.658237881130642
 30
0.0
 10
0.6106091075473361
 20
8.707279629177517
 30
0.0
 10
0.6233729786343044
 20
8.740362803141275
 30
0.0
 10
0.6489285363091363
 20
8.757473839653862
 30
0.0
 10
0.6744702127244737
 20
8.774584876166449
 30
0.0
 10
0.7089562945895724
 20
8.78315438164605
 30
0.0
 10
0.7523868878682454
 20
8.78315438164605
 30
0.0
 10
0.7523868878682454
 20
8.78315438164605
 30
0.0
 10
0.8228868908352321
 20
8.78315438164605
 30
0.0
 10
0.8228868908352321
 20
8.78315438164605
 30
0.0
 10
0.8652896881103516
 20
8.78315438164605
 30
0.0
 10
0.8960812886555989
 20
8.779321034749348
 30
0.0
 10
0.9152202606201172
 20
8.771654340955946
 30
0.0
 10
0.9343868891398112
 20
8.763987647162542
 30
0.0
 10
0.9485536151462131
 20
8.750195821126301
 30
0.0
 10
0.957761976453993
 20
8.730279286702473
 30
0.0
 10
0.966970337761773
 20
8.710362752278645
 30
0.0
 10
0.9774286482069227
 20
8.677904340955946
 30
0.0
 10
0.9891786575317383
 20
8.632960001627604
 30
0.0
 10
0.9891786575317383
 20
8.632960001627604
 30
0.0
 10
1.152400864495171
 20
8.017598893907335
 30
0.0
 10
1.152400864495171
 20
8.017598893907335
 30
0.0
 10
1.152400864495171
 20
8.017598893907335
 30
0.0
 10
1.315623071458605
 20
8.632960001627604
 30
0.0
 10
1.315623071458605
 20
8.632960001627604
 30
0.0
 10
1.32737308078342
 20
8.677904340955946
 30
0.0
 10
1.337845272488064
 20
8.710362752278645
 30
0.0
 10
1.34703975253635
 20
8.730279286702473
 30
0.0
 10
1.356234232584635
 20
8.750195821126301
 30
0.0
 10
1.370414733886719
 20
8.764001634385851
 30
0.0
 10
1.389581468370226
 20
8.771654340955946
 30
0.0
 10
1.408734215630425
 20
8.779321034749348
 30
0.0
 10
1.439512040879991
 20
8.78315438164605
 30
0.0
 10
1.481914838155111
 20
8.78315438164605
 30
0.0
 10
1.481914838155111
 20
8.78315438164605
 30
0.0
 10
1.552414788140191
 20
8.78315438164605
 30
0.0
 10
1.552414788140191
 20
8.78315438164605
 30
0.0
 10
1.595831447177463
 20
8.78315438164605
 30
0.0
 10
1.630317582024468
 20
8.774598863389757
 30
0.0
 10
1.655873086717394
 20
8.757473839653862
 30
0.0
 10
1.681414710150825
 20
8.740362803141275
 30
0.0
 10
1.6941925684611
 20
8.707279205322266
 30
0.0
 10
1.6941925684611
 20
8.658237881130642
 30
0.0
 10
1.6941925684611
 20
8.658237881130642
 30
0.0
 10
1.6941925684611
 20
7.769307454427083
 30
0.0
 10
1.6941925684611
 20
7.769307454427083
 30
0.0
 10
1.6941925684611
 20
7.726390838623047
 30
0.0
 10
1.684609201219347
 20
7.694196489122178
 30
0.0
 10
1.665456453959147
 20
7.672737969292534
 30
0.0
 10
1.646289825439453
 20
7.651279449462891
 30
0.0
 10
1.62062316470676
 20
7.640571170383029
 30
0.0
 10
1.588442590501573
 20
7.640571170383029
 30
0.0
 10
1.558289845784505
 20
7.640571170383029
 30
0.0
 10
1.533512009514703
 20
7.651279449462891
 30
0.0
 10
1.514109293619792
 20
7.672737969292534
 30
0.0
 10
1.494692590501573
 20
7.694196489122178
 30
0.0
 10
1.484984291924371
 20
7.726390838623047
 30
0.0
 10
1.484984291924371
 20
7.769307454427083
 30
0.0
 10
1.484984291924371
 20
7.769307454427083
 30
0.0
 10
1.484984291924371
 20
8.544821421305338
 30
0.0
 10
1.484984291924371
 20
8.544821421305338
 30
0.0
 10
1.484984291924371
 20
8.544821421305338
 30
0.0
 10
1.304900911119249
 20
7.829057481553819
 30
0.0
 10
1.304900911119249
 20
7.829057481553819
 30
0.0
 10
1.293137020534939
 20
7.782571580674913
 30
0.0
 10
1.28356753455268
 20
7.748460133870442
 30
0.0
 10
1.276164796617296
 20
7.726765950520833
 30
0.0
 10
1.268748177422417
 20
7.705043792724609
 30
0.0
 10
1.255081494649251
 20
7.685251871744791
 30
0.0
 10
1.235164748297797
 20
7.667377048068576
 30
0.0
 10
1.215248107910156
 20
7.649502224392361
 30
0.0
 10
1.187650892469618
 20
7.640557607014974
 30
0.0
 10
1.152400864495171
 20
7.640557607014974
 30
0.0
 10
1.12583139207628
 20
7.640557607014974
 30
0.0
 10
1.103359222412109
 20
7.646293640136719
 30
0.0
 10
1.084970262315538
 20
7.657793680826822
 30
0.0
 10
1.06658140818278
 20
7.669279734293619
 30
0.0
 10
1.052275763617621
 20
7.683974372016059
 30
0.0
 10
1.042053646511502
 20
7.701863182915581
 30
0.0
 10
1.031831423441569
 20
7.719738006591797
 30
0.0
 10
1.023789723714193
 20
7.739529927571614
 30
0.0
 10
1.017914772033691
 20
7.761238098144531
 30
0.0
 10
1.01203982035319
 20
7.782946268717447
 30
0.0
 10
1.006025844150119
 20
7.805571238199869
 30
0.0
 10
0.9999008178710938
 20
7.829057481553819
 30
0.0
  0
HATCH
  5
5A
330
55
100
AcDbEntity
  8
Layer 1
 62
   162
100
AcDbHatch
 10
0.0
 20
0.0
 30
0.0
210
0.0
220
0.0
230
1.0
  2
SOLID
 70
     1
 71
     0
 91
        1
 92
        1
 93
        1
 72
     4
 94
        3
 73
     0
 74
     1
 95
      110
 96
      106
 40
0.0
 40
0.0
 40
0.0
 40
0.0
 40
1.0
 40
1.0
 40
1.0
 40
2.0
 40
2.0
 40
2.0
 40
3.0
 40
3.0
 40
3.0
 40
4.0
 40
4.0
 40
4.0
 40
5.0
 40
5.0
 40
5.0
 40
6.0
 40
6.0
 40
6.0
 40
7.0
 40
7.0
 40
7.0
 40
8.0
 40
8.0
 40
8.0
 40
9.0
 40
9.0
 40
9.0
 40
10.0
 40
10.0
 40
10.0
 40
11.0
 40
11.0
 40
11.0
 40
12.0
 40
12.0
 40
12.0
 40
13.0
 40
13.0
 40
13.0
 40
14.0
 40
14.0
 40
14.0
 40
15.0
 40
15.0
 40
15.0
 40
16.0
 40
16.0
 40
16.0
 40
17.0
 40
17.0
 40
17.0
 40
18.0
 40
18.0
 40
18.0
 40
19.0
 40
19.0
 40
19.0
 40
20.0
 40
20.0
 40
20.0
 40
21.0
 40
21.0
 40
21.0
 40
22.0
 40
22.0
 40
22.0
 40
23.0
 40
23.0
 40
23.0
 40
24.0
 40
24.0
 40
24.0
 40
25.0
 40
25.0
 40
25.0
 40
26.0
 40
26.0
 40
26.0
 40
27.0
 40
27.0
 40
27.0
 40
28.0
 40
28.0
 40
28.0
 40
29.0
 40
29.0
 40
29.0
 40
30.0
 40
30.0
 40
30.0
 40
31.0
 40
31.0
 40
31.0
 40
32.0
 40
32.0
 40
32.0
 40
33.0
 40
33.0
 40
33.0
 40
34.0
 40
34.0
 40
34.0
 40
35.0
 40
35.0
 40
35.0
 40
35.0
 10
0.9999008178710938
 20
7.829057481553819
 10
0.9999008178710938
 20
7.829057481553819
 10
0.8198174900478786
 20
8.544821421305338
 10
0.8198174900478786
 20
8.544821421305338
 10
0.8198174900478786
 20
8.544821421305338
 10
0.8198174900478786
 20
7.769307454427083
 10
0.8198174900478786
 20
7.769307454427083
 10
0.8198174900478786
 20
7.726390838623047
 10
0.810248057047526
 20
7.694196489122178
 10
0.7910813755459255
 20
7.672737969292534
 10
0.7719285753038194
 20
7.651279449462891
 10
0.7465119361877441
 20
7.640571170383029
 10
0.7148313522338867
 20
7.640571170383029
 10
0.6841785642835828
 20
7.640571170383029
 10
0.6591368781195747
 20
7.651182386610243
 10
0.6397341092427571
 20
7.672362857394748
 10
0.6203174591064453
 20
7.69355731540256
 10
0.6106091075473361
 20
7.725890689425998
 10
0.6106091075473361
 20
7.769307454427083
 10
0.6106091075473361
 20
7.769307454427083
 10
0.6106091075473361
 20
8.658237881130642
 10
0.6106091075473361
 20
8.658237881130642
 10
0.6106091075473361
 20
8.707279629177517
 10
0.6233729786343044
 20
8.740362803141275
 10
0.6489285363091363
 20
8.757473839653862
 10
0.6744702127244737
 20
8.774584876166449
 10
0.7089562945895724
 20
8.78315438164605
 10
0.7523868878682454
 20
8.78315438164605
 10
0.7523868878682454
 20
8.78315438164605
 10
0.8228868908352321
 20
8.78315438164605
 10
0.8228868908352321
 20
8.78315438164605
 10
0.8652896881103516
 20
8.78315438164605
 10
0.8960812886555989
 20
8.779321034749348
 10
0.9152202606201172
 20
8.771654340955946
 10
0.9343868891398112
 20
8.763987647162542
 10
0.9485536151462131
 20
8.750195821126301
 10
0.957761976453993
 20
8.730279286702473
 10
0.966970337761773
 20
8.710362752278645
 10
0.9774286482069227
 20
8.677904340955946
 10
0.9891786575317383
 20
8.632960001627604
 10
0.9891786575317383
 20
8.632960001627604
 10
1.152400864495171
 20
8.017598893907335
 10
1.152400864495171
 20
8.017598893907335
 10
1.152400864495171
 20
8.017598893907335
 10
1.315623071458605
 20
8.632960001627604
 10
1.315623071458605
 20
8.632960001627604
 10
1.32737308078342
 20
8.677904340955946
 10
1.337845272488064
 20
8.710362752278645
 10
1.34703975253635
 20
8.730279286702473
 10
1.356234232584635
 20
8.750195821126301
 10
1.370414733886719
 20
8.764001634385851
 10
1.389581468370226
 20
8.771654340955946
 10
1.408734215630425
 20
8.779321034749348
 10
1.439512040879991
 20
8.78315438164605
 10
1.481914838155111
 20
8.78315438164605
 10
1.481914838155111
 20
8.78315438164605
 10
1.552414788140191
 20
8.78315438164605
 10
1.552414788140191
 20
8.78315438164605
 10
1.595831447177463
 20
8.78315438164605
 10
1.630317582024468
 20
8.774598863389757
 10
1.655873086717394
 20
8.757473839653862
 10
1.681414710150825
 20
8.740362803141275
 10
1.6941925684611
 20
8.707279205322266
 10
1.6941925684611
 20
8.658237881130642
 10
1.6941925684611
 20
8.658237881130642
 10
1.6941925684611
 20
7.769307454427083
 10
1.6941925684611
 20
7.769307454427083
 10
1.6941925684611
 20
7.726390838623047
 10
1.684609201219347
 20
7.694196489122178
 10
1.665456453959147
 20
7.672737969292534
 10
1.646289825439453
 20
7.651279449462891
 10
1.62062316470676
 20
7.640571170383029
 10
1.588442590501573
 20
7.640571170383029
 10
1.558289845784505
 20
7.640571170383029
 10
1.533512009514703
 20
7.651279449462891
 10
1.514109293619792
 20
7.672737969292534
 10
1.494692590501573
 20
7.694196489122178
 10
1.484984291924371
 20
7.726390838623047
 10
1.484984291924371
 20
7.769307454427083
 10
1.484984291924371
 20
7.769307454427083
 10
1.484984291924371
 20
8.544821421305338
 10
1.484984291924371
 20
8.544821421305338
 10
1.484984291924371
 20
8.544821421305338
 10
1.304900911119249
 20
7.829057481553819
 10
1.304900911119249
 20
7.829057481553819
 10
1.293137020534939
 20
7.782571580674913
 10
1.28356753455268
 20
7.748460133870442
 10
1.276164796617296
 20
7.726765950520833
 10
1.268748177422417
 20
7.705043792724609
 10
1.255081494649251
 20
7.685251871744791
 10
1.235164748297797
 20
7.667377048068576
 10
1.215248107910156
 20
7.649502224392361
 10
1.187650892469618
 20
7.640557607014974
 10
1.152400864495171
 20
7.640557607014974
 10
1.12583139207628
 20
7.640557607014974
 10
1.103359222412109
 20
7.646293640136719
 10
1.084970262315538
 20
7.657793680826822
 10
1.06658140818278
 20
7.669279734293619
 10
1.052275763617621
 20
7.683974372016059
 10
1.042053646511502
 20
7.701863182915581
 10
1.031831423441569
 20
7.719738006591797
 10
1.023789723714193
 20
7.739529927571614
 10
1.017914772033691
 20
7.761238098144531
 10
1.01203982035319
 20
7.782946268717447
 10
1.006025844150119
 20
7.805571238199869
 10
0.9999008178710938
 20
7.829057481553819
 97
        0
 97
        0
 75
     2
 76
     1
 98
        0
  0
SPLINE
  5
5B
330
55
100
AcDbEntity
  8
Layer 1
370
     0
100
AcDbSpline
210
0.0
220
0.0
230
1.0
 70
    11
 71
     3
 72
   104
 73
   100
 74
     0
 42
0.0000000001
 43
0.0000000001
 12
1.0
 22
0.0
 32
0.0
 13
1.0
 23
0.0
 33
0.0
 40
0.0
 40
0.0
 40
0.0
 40
0.0
 40
1.0
 40
1.0
 40
1.0
 40
2.0
 40
2.0
 40
2.0
 40
3.0
 40
3.0
 40
3.0
 40
4.0
 40
4.0
 40
4.0
 40
5.0
 40
5.0
 40
5.0
 40
6.0
 40
6.0
 40
6.0
 40
7.0
 40
7.0
 40
7.0
 40
8.0
 40
8.0
 40
8.0
 40
9.0
 40
9.0
 40
9.0
 40
10.0
 40
10.0
 40
10.0
 40
11.0
 40
11.0
 40
11.0
 40
12.0
 40
12.0
 40
12.0
 40
13.0
 40
13.0
 40
13.0
 40
14.0
 40
14.0
 40
14.0
 40
15.0
 40
15.0
 40
15.0
 40
16.0
 40
16.0
 40
16.0
 40
17.0
 40
17.0
 40
17.0
 40
18.0
 40
18.0
 40
18.0
 40
19.0
 40
19.0
 40
19.0
 40
20.0
 40
20.0
 40
20.0
 40
21.0
 40
21.0
 40
21.0
 40
22.0
 40
22.0
 40
22.0
 40
23.0
 40
23.0
 40
23.0
 40
24.0
 40
24.0
 40
24.0
 40
25.0
 40
25.0
 40
25.0
 40
26.0
 40
26.0
 40
26.0
 40
27.0
 40
27.0
 40
27.0
 40
28.0
 40
28.0
 40
28.0
 40
29.0
 40
29.0
 40
29.0
 40
30.0
 40
30.0
 40
30.0
 40
31.0
 40
31.0
 40
31.0
 40
32.0
 40
32.0
 40
32.0
 40
33.0
 40
33.0
 40
33.0
 40
33.0
 10
2.442136976453993
 20
7.758557637532552
 30
0.0
 10
2.391553666856554
 20
7.719224294026692
 30
0.0
 10
2.342636956108941
 20
7.689710405137803
 30
0.0
 10
2.29538705613878
 20
7.670057508680555
 30
0.0
 10
2.248123168945312
 20
7.650391048855251
 30
0.0
 10
2.195109261406793
 20
7.640557607014974
 30
0.0
 10
2.136373096042209
 20
7.640557607014974
 30
0.0
 10
2.082734213935004
 20
7.640557607014974
 30
0.0
 10
2.035595364040799
 20
7.651168823242188
 30
0.0
 10
1.994984096950955
 20
7.672349294026692
 30
0.0
 10
1.95435905456543
 20
7.693543752034505
 30
0.0
 10
1.923067516750759
 20
7.722293853759766
 30
0.0
 10
1.901109059651693
 20
7.758557637532552
 30
0.0
 10
1.879136827256944
 20
7.794835408528646
 30
0.0
 10
1.86815071105957
 20
7.834168752034505
 30
0.0
 10
1.86815071105957
 20
7.876585218641493
 30
0.0
 10
1.86815071105957
 20
7.933793385823567
 30
0.0
 10
1.88627560933431
 20
7.982585059271918
 30
0.0
 10
1.922553592258029
 20
8.022946251763237
 30
0.0
 10
1.958817376030816
 20
8.06329345703125
 30
0.0
 10
2.008636898464627
 20
8.090376959906683
 30
0.0
 10
2.071984185112847
 20
8.10418234931098
 30
0.0
 10
2.085261874728733
 20
8.107251909044054
 30
0.0
 10
2.118220223320855
 20
8.11414082845052
 30
0.0
 10
2.170845243665907
 20
8.124876658121744
 30
0.0
 10
2.223456276787652
 20
8.135584937201605
 30
0.0
 10
2.26855362786187
 20
8.145418379041883
 30
0.0
 10
2.306109110514323
 20
8.154376559787327
 30
0.0
 10
2.343650817871094
 20
8.163307189941406
 30
0.0
 10
2.384386910332573
 20
8.174168056911892
 30
0.0
 10
2.42833137512207
 20
8.18694602118598
 30
0.0
 10
2.425761964586046
 20
8.24212646484375
 30
0.0
 10
2.414664798312717
 20
8.28261269463433
 30
0.0
 10
2.394998126559787
 20
8.308404286702473
 30
0.0
 10
2.37531746758355
 20
8.334195878770617
 30
0.0
 10
2.334567599826389
 20
8.347098880343967
 30
0.0
 10
2.272762086656358
 20
8.347098880343967
 30
0.0
 10
2.219623141818576
 20
8.347098880343967
 30
0.0
 10
2.17965104844835
 20
8.339696248372395
 30
0.0
 10
2.152831607394748
 20
8.324876573350695
 30
0.0
 10
2.125998179117838
 20
8.310057322184244
 30
0.0
 10
2.103012084960938
 20
8.287835015190971
 30
0.0
 10
2.083859337700738
 20
8.258196089002821
 30
0.0
 10
2.064692603217231
 20
8.228571150037977
 30
0.0
 10
2.051164839002821
 20
8.209029303656683
 30
0.0
 10
2.043234295315213
 20
8.199570973714192
 30
0.0
 10
2.035303751627604
 20
8.190112643771702
 30
0.0
 10
2.018331527709961
 20
8.18539047241211
 30
0.0
 10
1.992275873819987
 20
8.18539047241211
 30
0.0
 10
1.968775855170356
 20
8.18539047241211
 30
0.0
 10
1.948470221625434
 20
8.192918141682942
 30
0.0
 10
1.931345409817166
 20
8.208001454671223
 30
0.0
 10
1.914234373304579
 20
8.223057217068142
 30
0.0
 10
1.90567864312066
 20
8.242362552218967
 30
0.0
 10
1.90567864312066
 20
8.265862358940971
 30
0.0
 10
1.90567864312066
 20
8.302640279134113
 30
0.0
 10
1.918706470065647
 20
8.338403913709852
 30
0.0
 10
1.944761912027995
 20
8.373154110378689
 30
0.0
 10
1.970817565917969
 20
8.407890319824219
 30
0.0
 10
2.011428621080186
 20
8.436501397026909
 30
0.0
 10
2.066609064737956
 20
8.458973354763454
 30
0.0
 10
2.12178972032335
 20
8.481445736355251
 30
0.0
 10
2.190484152899848
 20
8.49269570244683
 30
0.0
 10
2.272747887505425
 20
8.49269570244683
 30
0.0
 10
2.364706251356337
 20
8.49269570244683
 30
0.0
 10
2.436997943454319
 20
8.481834411621094
 30
0.0
 10
2.48962296379937
 20
8.460126241048176
 30
0.0
 10
2.542233996921115
 20
8.43841807047526
 30
0.0
 10
2.579400804307725
 20
8.404056972927517
 30
0.0
 10
2.60112296210395
 20
8.357056935628254
 30
0.0
 10
2.622831344604492
 20
8.310042911105686
 30
0.0
 10
2.633692423502604
 20
8.247723473442925
 30
0.0
 10
2.633692423502604
 20
8.17007064819336
 30
0.0
 10
2.633692423502604
 20
8.121028900146484
 30
0.0
 10
2.633567386203342
 20
8.079390207926432
 30
0.0
 10
2.633303536309136
 20
8.045167711046007
 30
0.0
 10
2.63303968641493
 20
8.010931650797525
 30
0.0
 10
2.632664574517144
 20
7.972862243652344
 30
0.0
 10
2.63215086195204
 20
7.930973476833767
 30
0.0
 10
2.63215086195204
 20
7.8916261461046
 30
0.0
 10
2.638664669460721
 20
7.850626203748915
 30
0.0
 10
2.651692496405707
 20
7.807987213134766
 30
0.0
 10
2.664720323350694
 20
7.765320671929253
 30
0.0
 10
2.671234130859375
 20
7.737862057156033
 30
0.0
 10
2.671234130859375
 20
7.7255982293023
 30
0.0
 10
2.671234130859375
 20
7.704139709472656
 30
0.0
 10
2.661136839124891
 20
7.684598286946614
 30
0.0
 10
2.640956454806858
 20
7.666973114013672
 30
0.0
 10
2.620775858561198
 20
7.649334377712673
 30
0.0
 10
2.597914801703559
 20
7.640542348225911
 30
0.0
 10
2.572373072306315
 20
7.640542348225911
 30
0.0
 10
2.550914764404297
 20
7.640542348225911
 30
0.0
 10
2.529706319173177
 20
7.650639428032768
 30
0.0
 10
2.508761935763889
 20
7.670806037055121
 30
0.0
 10
2.487845314873589
 20
7.691000620524088
 30
0.0
 10
2.465623007880317
 20
7.720250447591146
 30
0.0
 10
2.442136976453993
 20
7.758555942111545
 30
0.0
 10
2.442136976453993
 20
7.758555942111545
 30
0.0
 10
2.442136976453993
 20
7.758557637532552
 30
0.0
 10
2.442136976453993
 20
7.758557637532552
 30
0.0
  0
SPLINE
  5
5C
330
55
100
AcDbEntity
  8
Layer 1
370
     0
100
AcDbSpline
210
0.0
220
0.0
230
1.0
 70
    11
 71
     3
 72
    38
 73
    34
 74
     0
 42
0.0000000001
 43
0.0000000001
 12
1.0
 22
0.0
 32
0.0
 13
1.0
 23
0.0
 33
0.0
 40
0.0
 40
0.0
 40
0.0
 40
0.0
 40
1.0
 40
1.0
 40
1.0
 40
2.0
 40
2.0
 40
2.0
 40
3.0
 40
3.0
 40
3.0
 40
4.0
 40
4.0
 40
4.0
 40
5.0
 40
5.0
 40
5.0
 40
6.0
 40
6.0
 40
6.0
 40
7.0
 40
7.0
 40
7.0
 40
8.0
 40
8.0
 40
8.0
 40
9.0
 40
9.0
 40
9.0
 40
10.0
 40
10.0
 40
10.0
 40
11.0
 40
11.0
 40
11.0
 40
11.0
 10
2.428345362345377
 20
8.061266157362196
 30
0.0
 10
2.397692574395073
 20
8.050016191270617
 30
0.0
 10
2.353109147813585
 20
8.038141038682726
 30
0.0
 10
2.294623057047526
 20
8.025641123453775
 30
0.0
 10
2.236122979058159
 20
8.013113233778212
 30
0.0
 10
2.195636961195204
 20
8.003918965657551
 30
0.0
 10
2.173164791531033
 20
7.998057895236545
 30
0.0
 10
2.150678634643555
 20
7.992168850368923
 30
0.0
 10
2.129220326741536
 20
7.980682796902126
 30
0.0
 10
2.108789867824978
 20
7.96357176038954
 30
0.0
 10
2.088345421685113
 20
7.946460723876953
 30
0.0
 10
2.078137079874674
 20
7.922585805257161
 30
0.0
 10
2.078137079874674
 20
7.891933017306857
 30
0.0
 10
2.078137079874674
 20
7.860252380371094
 30
0.0
 10
2.090137057834201
 20
7.833294338650173
 30
0.0
 10
2.114151000976562
 20
7.811085595024956
 30
0.0
 10
2.138164944118924
 20
7.788849300808376
 30
0.0
 10
2.169581519232856
 20
7.777752346462673
 30
0.0
 10
2.208414925469293
 20
7.777752346462673
 30
0.0
 10
2.249789979722765
 20
7.777752346462673
 30
0.0
 10
2.287984424167209
 20
7.786808013916016
 30
0.0
 10
2.322984271579319
 20
7.804960886637369
 30
0.0
 10
2.357970343695746
 20
7.823085784912109
 30
0.0
 10
2.383637110392252
 20
7.846460978190104
 30
0.0
 10
2.399998135036892
 20
7.875072055392795
 30
0.0
 10
2.418887032402886
 20
7.906752692328559
 30
0.0
 10
2.428359349568685
 20
7.958863576253255
 30
0.0
 10
2.428359349568685
 20
8.031405554877386
 30
0.0
 10
2.428359349568685
 20
8.031405554877386
 30
0.0
 10
2.428359349568685
 20
8.061266581217447
 30
0.0
 10
2.428359349568685
 20
8.061266581217447
 30
0.0
 10
2.428359349568685
 20
8.061266581217447
 30
0.0
 10
2.428345362345377
 20
8.061266157362196
 30
0.0
 10
2.428345362345377
 20
8.061266157362196
 30
0.0
  0
HATCH
  5
5D
330
55
100
AcDbEntity
  8
Layer 1
 62
   162
100
AcDbHatch
 10
0.0
 20
0.0
 30
0.0
210
0.0
220
0.0
230
1.0
  2
SOLID
 70
     1
 71
     0
 91
        2
 92
        1
 93
        1
 72
     4
 94
        3
 73
     0
 74
     1
 95
      104
 96
      100
 40
0.0
 40
0.0
 40
0.0
 40
0.0
 40
1.0
 40
1.0
 40
1.0
 40
2.0
 40
2.0
 40
2.0
 40
3.0
 40
3.0
 40
3.0
 40
4.0
 40
4.0
 40
4.0
 40
5.0
 40
5.0
 40
5.0
 40
6.0
 40
6.0
 40
6.0
 40
7.0
 40
7.0
 40
7.0
 40
8.0
 40
8.0
 40
8.0
 40
9.0
 40
9.0
 40
9.0
 40
10.0
 40
10.0
 40
10.0
 40
11.0
 40
11.0
 40
11.0
 40
12.0
 40
12.0
 40
12.0
 40
13.0
 40
13.0
 40
13.0
 40
14.0
 40
14.0
 40
14.0
 40
15.0
 40
15.0
 40
15.0
 40
16.0
 40
16.0
 40
16.0
 40
17.0
 40
17.0
 40
17.0
 40
18.0
 40
18.0
 40
18.0
 40
19.0
 40
19.0
 40
19.0
 40
20.0
 40
20.0
 40
20.0
 40
21.0
 40
21.0
 40
21.0
 40
22.0
 40
22.0
 40
22.0
 40
23.0
 40
23.0
 40
23.0
 40
24.0
 40
24.0
 40
24.0
 40
25.0
 40
25.0
 40
25.0
 40
26.0
 40
26.0
 40
26.0
 40
27.0
 40
27.0
 40
27.0
 40
28.0
 40
28.0
 40
28.0
 40
29.0
 40
29.0
 40
29.0
 40
30.0
 40
30.0
 40
30.0
 40
31.0
 40
31.0
 40
31.0
 40
32.0
 40
32.0
 40
32.0
 40
33.0
 40
33.0
 40
33.0
 40
33.0
 10
2.442136976453993
 20
7.758557637532552
 10
2.391553666856554
 20
7.719224294026692
 10
2.342636956108941
 20
7.689710405137803
 10
2.29538705613878
 20
7.670057508680555
 10
2.248123168945312
 20
7.650391048855251
 10
2.195109261406793
 20
7.640557607014974
 10
2.136373096042209
 20
7.640557607014974
 10
2.082734213935004
 20
7.640557607014974
 10
2.035595364040799
 20
7.651168823242188
 10
1.994984096950955
 20
7.672349294026692
 10
1.95435905456543
 20
7.693543752034505
 10
1.923067516750759
 20
7.722293853759766
 10
1.901109059651693
 20
7.758557637532552
 10
1.879136827256944
 20
7.794835408528646
 10
1.86815071105957
 20
7.834168752034505
 10
1.86815071105957
 20
7.876585218641493
 10
1.86815071105957
 20
7.933793385823567
 10
1.88627560933431
 20
7.982585059271918
 10
1.922553592258029
 20
8.022946251763237
 10
1.958817376030816
 20
8.06329345703125
 10
2.008636898464627
 20
8.090376959906683
 10
2.071984185112847
 20
8.10418234931098
 10
2.085261874728733
 20
8.107251909044054
 10
2.118220223320855
 20
8.11414082845052
 10
2.170845243665907
 20
8.124876658121744
 10
2.223456276787652
 20
8.135584937201605
 10
2.26855362786187
 20
8.145418379041883
 10
2.306109110514323
 20
8.154376559787327
 10
2.343650817871094
 20
8.163307189941406
 10
2.384386910332573
 20
8.174168056911892
 10
2.42833137512207
 20
8.18694602118598
 10
2.425761964586046
 20
8.24212646484375
 10
2.414664798312717
 20
8.28261269463433
 10
2.394998126559787
 20
8.308404286702473
 10
2.37531746758355
 20
8.334195878770617
 10
2.334567599826389
 20
8.347098880343967
 10
2.272762086656358
 20
8.347098880343967
 10
2.219623141818576
 20
8.347098880343967
 10
2.17965104844835
 20
8.339696248372395
 10
2.152831607394748
 20
8.324876573350695
 10
2.125998179117838
 20
8.310057322184244
 10
2.103012084960938
 20
8.287835015190971
 10
2.083859337700738
 20
8.258196089002821
 10
2.064692603217231
 20
8.228571150037977
 10
2.051164839002821
 20
8.209029303656683
 10
2.043234295315213
 20
8.199570973714192
 10
2.035303751627604
 20
8.190112643771702
 10
2.018331527709961
 20
8.18539047241211
 10
1.992275873819987
 20
8.18539047241211
 10
1.968775855170356
 20
8.18539047241211
 10
1.948470221625434
 20
8.192918141682942
 10
1.931345409817166
 20
8.208001454671223
 10
1.914234373304579
 20
8.223057217068142
 10
1.90567864312066
 20
8.242362552218967
 10
1.90567864312066
 20
8.265862358940971
 10
1.90567864312066
 20
8.302640279134113
 10
1.918706470065647
 20
8.338403913709852
 10
1.944761912027995
 20
8.373154110378689
 10
1.970817565917969
 20
8.407890319824219
 10
2.011428621080186
 20
8.436501397026909
 10
2.066609064737956
 20
8.458973354763454
 10
2.12178972032335
 20
8.481445736355251
 10
2.190484152899848
 20
8.49269570244683
 10
2.272747887505425
 20
8.49269570244683
 10
2.364706251356337
 20
8.49269570244683
 10
2.436997943454319
 20
8.481834411621094
 10
2.48962296379937
 20
8.460126241048176
 10
2.542233996921115
 20
8.43841807047526
 10
2.579400804307725
 20
8.404056972927517
 10
2.60112296210395
 20
8.357056935628254
 10
2.622831344604492
 20
8.310042911105686
 10
2.633692423502604
 20
8.247723473442925
 10
2.633692423502604
 20
8.17007064819336
 10
2.633692423502604
 20
8.121028900146484
 10
2.633567386203342
 20
8.079390207926432
 10
2.633303536309136
 20
8.045167711046007
 10
2.63303968641493
 20
8.010931650797525
 10
2.632664574517144
 20
7.972862243652344
 10
2.63215086195204
 20
7.930973476833767
 10
2.63215086195204
 20
7.8916261461046
 10
2.638664669460721
 20
7.850626203748915
 10
2.651692496405707
 20
7.807987213134766
 10
2.664720323350694
 20
7.765320671929253
 10
2.671234130859375
 20
7.737862057156033
 10
2.671234130859375
 20
7.7255982293023
 10
2.671234130859375
 20
7.704139709472656
 10
2.661136839124891
 20
7.684598286946614
 10
2.640956454806858
 20
7.666973114013672
 10
2.620775858561198
 20
7.649334377712673
 10
2.597914801703559
 20
7.640542348225911
 10
2.572373072306315
 20
7.640542348225911
 10
2.550914764404297
 20
7.640542348225911
 10
2.529706319173177
 20
7.650639428032768
 10
2.508761935763889
 20
7.670806037055121
 10
2.487845314873589
 20
7.691000620524088
 10
2.465623007880317
 20
7.720250447591146
 10
2.442136976453993
 20
7.758555942111545
 10
2.442136976453993
 20
7.758555942111545
 10
2.442136976453993
 20
7.758557637532552
 10
2.442136976453993
 20
7.758557637532552
 97
        0
 97
        0
 92
        1
 93
        1
 72
     4
 94
        3
 73
     0
 74
     1
 95
       38
 96
       34
 40
0.0
 40
0.0
 40
0.0
 40
0.0
 40
1.0
 40
1.0
 40
1.0
 40
2.0
 40
2.0
 40
2.0
 40
3.0
 40
3.0
 40
3.0
 40
4.0
 40
4.0
 40
4.0
 40
5.0
 40
5.0
 40
5.0
 40
6.0
 40
6.0
 40
6.0
 40
7.0
 40
7.0
 40
7.0
 40
8.0
 40
8.0
 40
8.0
 40
9.0
 40
9.0
 40
9.0
 40
10.0
 40
10.0
 40
10.0
 40
11.0
 40
11.0
 40
11.0
 40
11.0
 10
2.428345362345377
 20
8.061266157362196
 10
2.397692574395073
 20
8.050016191270617
 10
2.353109147813585
 20
8.038141038682726
 10
2.294623057047526
 20
8.025641123453775
 10
2.236122979058159
 20
8.013113233778212
 10
2.195636961195204
 20
8.003918965657551
 10
2.173164791531033
 20
7.998057895236545
 10
2.150678634643555
 20
7.992168850368923
 10
2.129220326741536
 20
7.980682796902126
 10
2.108789867824978
 20
7.96357176038954
 10
2.088345421685113
 20
7.946460723876953
 10
2.078137079874674
 20
7.922585805257161
 10
2.078137079874674
 20
7.891933017306857
 10
2.078137079874674
 20
7.860252380371094
 10
2.090137057834201
 20
7.833294338650173
 10
2.114151000976562
 20
7.811085595024956
 10
2.138164944118924
 20
7.788849300808376
 10
2.169581519232856
 20
7.777752346462673
 10
2.208414925469293
 20
7.777752346462673
 10
2.249789979722765
 20
7.777752346462673
 10
2.287984424167209
 20
7.786808013916016
 10
2.322984271579319
 20
7.804960886637369
 10
2.357970343695746
 20
7.823085784912109
 10
2.383637110392252
 20
7.846460978190104
 10
2.399998135036892
 20
7.875072055392795
 10
2.418887032402886
 20
7.906752692328559
 10
2.428359349568685
 20
7.958863576253255
 10
2.428359349568685
 20
8.031405554877386
 10
2.428359349568685
 20
8.031405554877386
 10
2.428359349568685
 20
8.061266581217447
 10
2.428359349568685
 20
8.061266581217447
 10
2.428359349568685
 20
8.061266581217447
 10
2.428345362345377
 20
8.061266157362196
 10
2.428345362345377
 20
8.061266157362196
 97
        0
 97
        0
 75
     2
 76
     1
 98
        0
  0
SPLINE
  5
5E
330
55
100
AcDbEntity
  8
Layer 1
370
     0
100
AcDbSpline
210
0.0
220
0.0
230
1.0
 70
    11
 71
     3
 72
    89
 73
    85
 74
     0
 42
0.0000000001
 43
0.0000000001
 12
1.0
 22
0.0
 32
0.0
 13
1.0
 23
0.0
 33
0.0
 40
0.0
 40
0.0
 40
0.0
 40
0.0
 40
1.0
 40
1.0
 40
1.0
 40
2.0
 40
2.0
 40
2.0
 40
3.0
 40
3.0
 40
3.0
 40
4.0
 40
4.0
 40
4.0
 40
5.0
 40
5.0
 40
5.0
 40
6.0
 40
6.0
 40
6.0
 40
7.0
 40
7.0
 40
7.0
 40
8.0
 40
8.0
 40
8.0
 40
9.0
 40
9.0
 40
9.0
 40
10.0
 40
10.0
 40
10.0
 40
11.0
 40
11.0
 40
11.0
 40
12.0
 40
12.0
 40
12.0
 40
13.0
 40
13.0
 40
13.0
 40
14.0
 40
14.0
 40
14.0
 40
15.0
 40
15.0
 40
15.0
 40
16.0
 40
16.0
 40
16.0
 40
17.0
 40
17.0
 40
17.0
 40
18.0
 40
18.0
 40
18.0
 40
19.0
 40
19.0
 40
19.0
 40
20.0
 40
20.0
 40
20.0
 40
21.0
 40
21.0
 40
21.0
 40
22.0
 40
22.0
 40
22.0
 40
23.0
 40
23.0
 40
23.0
 40
24.0
 40
24.0
 40
24.0
 40
25.0
 40
25.0
 40
25.0
 40
26.0
 40
26.0
 40
26.0
 40
27.0
 40
27.0
 40
27.0
 40
28.0
 40
28.0
 40
28.0
 40
28.0
 10
3.367095311482747
 20
7.736349317762587
 30
0.0
 10
3.367095311482747
 20
7.736349317762587
 30
0.0
 10
3.182414796617296
 20
8.03982162475586
 30
0.0
 10
3.182414796617296
 20
8.03982162475586
 30
0.0
 10
3.182414796617296
 20
8.03982162475586
 30
0.0
 10
3.068998124864366
 20
7.932529873318142
 30
0.0
 10
3.068998124864366
 20
7.932529873318142
 30
0.0
 10
3.068998124864366
 20
7.932529873318142
 30
0.0
 10
3.068998124864366
 20
7.766238318549262
 30
0.0
 10
3.068998124864366
 20
7.766238318549262
 30
0.0
 10
3.068998124864366
 20
7.725877126057942
 30
0.0
 10
3.058386908637153
 20
7.694821675618489
 30
0.0
 10
3.037192662556966
 20
7.673127068413628
 30
0.0
 10
3.015984429253472
 20
7.651418897840712
 30
0.0
 10
2.991595374213325
 20
7.640557607014974
 30
0.0
 10
2.963998158772786
 20
7.640557607014974
 30
0.0
 10
2.9318175845676
 20
7.640557607014974
 30
0.0
 10
2.90652592976888
 20
7.651265886094834
 30
0.0
 10
2.888136969672309
 20
7.672724405924479
 30
0.0
 10
2.869748009575738
 20
7.694182925754123
 30
0.0
 10
2.860553741455078
 20
7.725863138834635
 30
0.0
 10
2.860553741455078
 20
7.767752329508463
 30
0.0
 10
2.860553741455078
 20
7.767752329508463
 30
0.0
 10
2.860553741455078
 20
8.659766303168402
 30
0.0
 10
2.860553741455078
 20
8.659766303168402
 30
0.0
 10
2.860553741455078
 20
8.706252204047308
 30
0.0
 10
2.869484371609158
 20
8.741641150580511
 30
0.0
 10
2.88737318250868
 20
8.765905168321398
 30
0.0
 10
2.905248218112522
 20
8.790169186062283
 30
0.0
 10
2.930789947509766
 20
8.802307976616753
 30
0.0
 10
2.964012145996094
 20
8.802307976616753
 30
0.0
 10
2.99619272020128
 20
8.802307976616753
 30
0.0
 10
3.021734449598524
 20
8.791308085123697
 30
0.0
 10
3.040651109483507
 20
8.769349839952257
 30
0.0
 10
3.059540006849501
 20
8.747377607557508
 30
0.0
 10
3.069012324015299
 20
8.714947170681423
 30
0.0
 10
3.069012324015299
 20
8.672030554877386
 30
0.0
 10
3.069012324015299
 20
8.672030554877386
 30
0.0
 10
3.069012324015299
 20
8.164724985758463
 30
0.0
 10
3.069012324015299
 20
8.164724985758463
 30
0.0
 10
3.069012324015299
 20
8.164724985758463
 30
0.0
 10
3.30427614847819
 20
8.41147486368815
 30
0.0
 10
3.30427614847819
 20
8.41147486368815
 30
0.0
 10
3.333401150173611
 20
8.442127651638454
 30
0.0
 10
3.355623457166883
 20
8.463072035047743
 30
0.0
 10
3.370942857530382
 20
8.474322001139322
 30
0.0
 10
3.386276245117188
 20
8.485557980007595
 30
0.0
 10
3.404915067884657
 20
8.491182963053385
 30
0.0
 10
3.426887300279405
 20
8.491182963053385
 30
0.0
 10
3.452942954169379
 20
8.491182963053385
 30
0.0
 10
3.474651124742296
 20
8.482877519395617
 30
0.0
 10
3.492026223076714
 20
8.466280195448133
 30
0.0
 10
3.509387334187825
 20
8.44968287150065
 30
0.0
 10
3.518081876966688
 20
8.428863525390625
 30
0.0
 10
3.518081876966688
 20
8.40383572048611
 30
0.0
 10
3.518081876966688
 20
8.373182932535807
 30
0.0
 10
3.489720662434896
 20
8.332308027479383
 30
0.0
 10
3.433012432522244
 20
8.281224568684895
 30
0.0
 10
3.433012432522244
 20
8.281224568684895
 30
0.0
 10
3.321901321411133
 20
8.17929416232639
 30
0.0
 10
3.321901321411133
 20
8.17929416232639
 30
0.0
 10
3.321901321411133
 20
8.17929416232639
 30
0.0
 10
3.536470837063259
 20
7.842113494873047
 30
0.0
 10
3.536470837063259
 20
7.842113494873047
 30
0.0
 10
3.552304161919488
 20
7.817071702745225
 30
0.0
 10
3.563665178087022
 20
7.798043992784288
 30
0.0
 10
3.570582071940104
 20
7.785030364990234
 30
0.0
 10
3.577470991346571
 20
7.772002749972873
 30
0.0
 10
3.580929226345486
 20
7.759613884819878
 30
0.0
 10
3.580929226345486
 20
7.74786376953125
 30
0.0
 10
3.580929226345486
 20
7.714641571044922
 30
0.0
 10
3.571859571668837
 20
7.688474867078993
 30
0.0
 10
3.553734885321723
 20
7.669308132595486
 30
0.0
 10
3.535595999823676
 20
7.650155385335286
 30
0.0
 10
3.511707093980577
 20
7.64058600531684
 30
0.0
 10
3.482082155015733
 20
7.64058600531684
 30
0.0
 10
3.456526650322808
 20
7.64058600531684
 30
0.0
 10
3.43687375386556
 20
7.647474924723307
 30
0.0
 10
3.423068364461263
 20
7.661266750759548
 30
0.0
 10
3.40926276312934
 20
7.67505857679579
 30
0.0
 10
3.390582190619575
 20
7.700058407253689
 30
0.0
 10
3.367096159193251
 20
7.73635016547309
 30
0.0
 10
3.367096159193251
 20
7.73635016547309
 30
0.0
 10
3.367095311482747
 20
7.736349317762587
 30
0.0
 10
3.367095311482747
 20
7.736349317762587
 30
0.0
  0
HATCH
  5
5F
330
55
100
AcDbEntity
  8
Layer 1
 62
   162
100
AcDbHatch
 10
0.0
 20
0.0
 30
0.0
210
0.0
220
0.0
230
1.0
  2
SOLID
 70
     1
 71
     0
 91
        1
 92
        1
 93
        1
 72
     4
 94
        3
 73
     0
 74
     1
 95
       89
 96
       85
 40
0.0
 40
0.0
 40
0.0
 40
0.0
 40
1.0
 40
1.0
 40
1.0
 40
2.0
 40
2.0
 40
2.0
 40
3.0
 40
3.0
 40
3.0
 40
4.0
 40
4.0
 40
4.0
 40
5.0
 40
5.0
 40
5.0
 40
6.0
 40
6.0
 40
6.0
 40
7.0
 40
7.0
 40
7.0
 40
8.0
 40
8.0
 40
8.0
 40
9.0
 40
9.0
 40
9.0
 40
10.0
 40
10.0
 40
10.0
 40
11.0
 40
11.0
 40
11.0
 40
12.0
 40
12.0
 40
12.0
 40
13.0
 40
13.0
 40
13.0
 40
14.0
 40
14.0
 40
14.0
 40
15.0
 40
15.0
 40
15.0
 40
16.0
 40
16.0
 40
16.0
 40
17.0
 40
17.0
 40
17.0
 40
18.0
 40
18.0
 40
18.0
 40
19.0
 40
19.0
 40
19.0
 40
20.0
 40
20.0
 40
20.0
 40
21.0
 40
21.0
 40
21.0
 40
22.0
 40
22.0
 40
22.0
 40
23.0
 40
23.0
 40
23.0
 40
24.0
 40
24.0
 40
24.0
 40
25.0
 40
25.0
 40
25.0
 40
26.0
 40
26.0
 40
26.0
 40
27.0
 40
27.0
 40
27.0
 40
28.0
 40
28.0
 40
28.0
 40
28.0
 10
3.367095311482747
 20
7.736349317762587
 10
3.367095311482747
 20
7.736349317762587
 10
3.182414796617296
 20
8.03982162475586
 10
3.182414796617296
 20
8.03982162475586
 10
3.182414796617296
 20
8.03982162475586
 10
3.068998124864366
 20
7.932529873318142
 10
3.068998124864366
 20
7.932529873318142
 10
3.068998124864366
 20
7.932529873318142
 10
3.068998124864366
 20
7.766238318549262
 10
3.068998124864366
 20
7.766238318549262
 10
3.068998124864366
 20
7.725877126057942
 10
3.058386908637153
 20
7.694821675618489
 10
3.037192662556966
 20
7.673127068413628
 10
3.015984429253472
 20
7.651418897840712
 10
2.991595374213325
 20
7.640557607014974
 10
2.963998158772786
 20
7.640557607014974
 10
2.9318175845676
 20
7.640557607014974
 10
2.90652592976888
 20
7.651265886094834
 10
2.888136969672309
 20
7.672724405924479
 10
2.869748009575738
 20
7.694182925754123
 10
2.860553741455078
 20
7.725863138834635
 10
2.860553741455078
 20
7.767752329508463
 10
2.860553741455078
 20
7.767752329508463
 10
2.860553741455078
 20
8.659766303168402
 10
2.860553741455078
 20
8.659766303168402
 10
2.860553741455078
 20
8.706252204047308
 10
2.869484371609158
 20
8.741641150580511
 10
2.88737318250868
 20
8.765905168321398
 10
2.905248218112522
 20
8.790169186062283
 10
2.930789947509766
 20
8.802307976616753
 10
2.964012145996094
 20
8.802307976616753
 10
2.99619272020128
 20
8.802307976616753
 10
3.021734449598524
 20
8.791308085123697
 10
3.040651109483507
 20
8.769349839952257
 10
3.059540006849501
 20
8.747377607557508
 10
3.069012324015299
 20
8.714947170681423
 10
3.069012324015299
 20
8.672030554877386
 10
3.069012324015299
 20
8.672030554877386
 10
3.069012324015299
 20
8.164724985758463
 10
3.069012324015299
 20
8.164724985758463
 10
3.069012324015299
 20
8.164724985758463
 10
3.30427614847819
 20
8.41147486368815
 10
3.30427614847819
 20
8.41147486368815
 10
3.333401150173611
 20
8.442127651638454
 10
3.355623457166883
 20
8.463072035047743
 10
3.370942857530382
 20
8.474322001139322
 10
3.386276245117188
 20
8.485557980007595
 10
3.404915067884657
 20
8.491182963053385
 10
3.426887300279405
 20
8.491182963053385
 10
3.452942954169379
 20
8.491182963053385
 10
3.474651124742296
 20
8.482877519395617
 10
3.492026223076714
 20
8.466280195448133
 10
3.509387334187825
 20
8.44968287150065
 10
3.518081876966688
 20
8.428863525390625
 10
3.518081876966688
 20
8.40383572048611
 10
3.518081876966688
 20
8.373182932535807
 10
3.489720662434896
 20
8.332308027479383
 10
3.433012432522244
 20
8.281224568684895
 10
3.433012432522244
 20
8.281224568684895
 10
3.321901321411133
 20
8.17929416232639
 10
3.321901321411133
 20
8.17929416232639
 10
3.321901321411133
 20
8.17929416232639
 10
3.536470837063259
 20
7.842113494873047
 10
3.536470837063259
 20
7.842113494873047
 10
3.552304161919488
 20
7.817071702745225
 10
3.563665178087022
 20
7.798043992784288
 10
3.570582071940104
 20
7.785030364990234
 10
3.577470991346571
 20
7.772002749972873
 10
3.580929226345486
 20
7.759613884819878
 10
3.580929226345486
 20
7.74786376953125
 10
3.580929226345486
 20
7.714641571044922
 10
3.571859571668837
 20
7.688474867078993
 10
3.553734885321723
 20
7.669308132595486
 10
3.535595999823676
 20
7.650155385335286
 10
3.511707093980577
 20
7.64058600531684
 10
3.482082155015733
 20
7.64058600531684
 10
3.456526650322808
 20
7.64058600531684
 10
3.43687375386556
 20
7.647474924723307
 10
3.423068364461263
 20
7.661266750759548
 10
3.40926276312934
 20
7.67505857679579
 10
3.390582190619575
 20
7.700058407253689
 10
3.367096159193251
 20
7.73635016547309
 10
3.367096159193251
 20
7.73635016547309
 10
3.367095311482747
 20
7.736349317762587
 10
3.367095311482747
 20
7.736349317762587
 97
        0
 97
        0
 75
     2
 76
     1
 98
        0
  0
SPLINE
  5
60
330
55
100
AcDbEntity
  8
Layer 1
370
     0
100
AcDbSpline
210
0.0
220
0.0
230
1.0
 70
    11
 71
     3
 72
    86
 73
    82
 74
     0
 42
0.0000000001
 43
0.0000000001
 12
1.0
 22
0.0
 32
0.0
 13
1.0
 23
0.0
 33
0.0
 40
0.0
 40
0.0
 40
0.0
 40
0.0
 40
1.0
 40
1.0
 40
1.0
 40
2.0
 40
2.0
 40
2.0
 40
3.0
 40
3.0
 40
3.0
 40
4.0
 40
4.0
 40
4.0
 40
5.0
 40
5.0
 40
5.0
 40
6.0
 40
6.0
 40
6.0
 40
7.0
 40
7.0
 40
7.0
 40
8.0
 40
8.0
 40
8.0
 40
9.0
 40
9.0
 40
9.0
 40
10.0
 40
10.0
 40
10.0
 40
11.0
 40
11.0
 40
11.0
 40
12.0
 40
12.0
 40
12.0
 40
13.0
 40
13.0
 40
13.0
 40
14.0
 40
14.0
 40
14.0
 40
15.0
 40
15.0
 40
15.0
 40
16.0
 40
16.0
 40
16.0
 40
17.0
 40
17.0
 40
17.0
 40
18.0
 40
18.0
 40
18.0
 40
19.0
 40
19.0
 40
19.0
 40
20.0
 40
20.0
 40
20.0
 40
21.0
 40
21.0
 40
21.0
 40
22.0
 40
22.0
 40
22.0
 40
23.0
 40
23.0
 40
23.0
 40
24.0
 40
24.0
 40
24.0
 40
25.0
 40
25.0
 40
25.0
 40
26.0
 40
26.0
 40
26.0
 40
27.0
 40
27.0
 40
27.0
 40
27.0
 10
4.269831339518229
 20
8.014529758029514
 30
0.0
 10
4.269831339518229
 20
8.014529758029514
 30
0.0
 10
3.860609266493055
 20
8.014529758029514
 30
0.0
 10
3.860609266493055
 20
8.014529758029514
 30
0.0
 10
3.861109415690104
 20
7.96700202094184
 30
0.0
 10
3.870692782931858
 20
7.925113254123263
 30
0.0
 10
3.889345380995008
 20
7.888849046495225
 30
0.0
 10
3.907984415690104
 20
7.852571275499131
 30
0.0
 10
3.932762145996094
 20
7.825238121880425
 30
0.0
 10
3.963678571912977
 20
7.806849161783854
 30
0.0
 10
3.994595421685113
 20
7.788460201687283
 30
0.0
 10
4.028692457411024
 20
7.779265933566623
 30
0.0
 10
4.065984090169271
 20
7.779265933566623
 30
0.0
 10
4.091011895073785
 20
7.779265933566623
 30
0.0
 10
4.113872951931423
 20
7.782196468777126
 30
0.0
 10
4.134567260742188
 20
7.788085513644748
 30
0.0
 10
4.155248006184896
 20
7.793946584065755
 30
0.0
 10
4.175303565131293
 20
7.803141276041666
 30
0.0
 10
4.194719950358072
 20
7.815668741861979
 30
0.0
 10
4.214122772216797
 20
7.828168657090928
 30
0.0
 10
4.23201158311632
 20
7.841585371229383
 30
0.0
 10
4.248358832465278
 20
7.855890909830729
 30
0.0
 10
4.264706081814236
 20
7.870182461208767
 30
0.0
 10
4.285914527045356
 20
7.889613257514106
 30
0.0
 10
4.311969757080078
 20
7.914126925998263
 30
0.0
 10
4.322692023383246
 20
7.923321194118923
 30
0.0
 10
4.338025410970052
 20
7.927918752034505
 30
0.0
 10
4.357955932617188
 20
7.927918752034505
 30
0.0
 10
4.379414452446832
 20
7.927918752034505
 30
0.0
 10
4.396775563557942
 20
7.92204369439019
 30
0.0
 10
4.410067240397135
 20
7.910293579101562
 30
0.0
 10
4.423344930013021
 20
7.898529900444878
 30
0.0
 10
4.429997762044271
 20
7.881932576497396
 30
0.0
 10
4.429997762044271
 20
7.860474056667751
 30
0.0
 10
4.429997762044271
 20
7.841571384006076
 30
0.0
 10
4.422581142849392
 20
7.819474114312065
 30
0.0
 10
4.407775455050998
 20
7.794196234809028
 30
0.0
 10
4.392956203884548
 20
7.768904368082682
 30
0.0
 10
4.370608859592013
 20
7.744640774197048
 30
0.0
 10
4.340719858805338
 20
7.721390618218315
 30
0.0
 10
4.31084484524197
 20
7.698140462239583
 30
0.0
 10
4.273289150661892
 20
7.678849114312065
 30
0.0
 10
4.22808117336697
 20
7.663529713948567
 30
0.0
 10
4.182858784993489
 20
7.648196326361762
 30
0.0
 10
4.130872938368055
 20
7.640557607014974
 30
0.0
 10
4.072122785780165
 20
7.640557607014974
 30
0.0
 10
3.937747955322266
 20
7.640557607014974
 30
0.0
 10
3.833275689019097
 20
7.678863101535373
 30
0.0
 10
3.758692423502604
 20
7.755488077799479
 30
0.0
 10
3.684095170762804
 20
7.832127041286892
 30
0.0
 10
3.646803538004557
 20
7.936085171169704
 30
0.0
 10
3.646803538004557
 20
8.067390865749783
 30
0.0
 10
3.646803538004557
 20
8.129196590847439
 30
0.0
 10
3.655997806125217
 20
8.18655734592014
 30
0.0
 10
3.674386766221788
 20
8.239432440863714
 30
0.0
 10
3.692775726318359
 20
8.292321523030598
 30
0.0
 10
3.719595167371962
 20
8.337640974256727
 30
0.0
 10
3.754845089382595
 20
8.375460306803385
 30
0.0
 10
3.790095011393229
 20
8.413265652126736
 30
0.0
 10
3.833511776394314
 20
8.442251841227213
 30
0.0
 10
3.885122934977213
 20
8.46244642469618
 30
0.0
 10
3.936720106336805
 20
8.48262702094184
 30
0.0
 10
3.993942260742188
 20
8.49271011352539
 30
0.0
 10
4.056775834825304
 20
8.49271011352539
 30
0.0
 10
4.138512081570095
 20
8.49271011352539
 30
0.0
 10
4.208636813693576
 20
8.475460052490234
 30
0.0
 10
4.267136891682942
 20
8.440987904866535
 30
0.0
 10
4.325636969672309
 20
8.406501770019531
 30
0.0
 10
4.369442409939236
 20
8.361932542588976
 30
0.0
 10
4.398567623562283
 20
8.307251824273003
 30
0.0
 10
4.427692413330078
 20
8.252585093180338
 30
0.0
 10
4.442248026529947
 20
8.19690450032552
 30
0.0
 10
4.442248026529947
 20
8.14021004570855
 30
0.0
 10
4.442248026529947
 20
8.087585025363499
 30
0.0
 10
4.427178700764974
 20
8.05347400241428
 30
0.0
 10
4.397039625379774
 20
8.037904527452257
 30
0.0
 10
4.366886986626519
 20
8.022293514675564
 30
0.0
 10
4.324498070610894
 20
8.014529334174261
 30
0.0
 10
4.269831339518229
 20
8.014529334174261
 30
0.0
 10
4.269831339518229
 20
8.014529334174261
 30
0.0
 10
4.269831339518229
 20
8.014529758029514
 30
0.0
 10
4.269831339518229
 20
8.014529758029514
 30
0.0
  0
SPLINE
  5
61
330
55
100
AcDbEntity
  8
Layer 1
370
     0
100
AcDbSpline
210
0.0
220
0.0
230
1.0
 70
    11
 71
     3
 72
    23
 73
    19
 74
     0
 42
0.0000000001
 43
0.0000000001
 12
1.0
 22
0.0
 32
0.0
 13
1.0
 23
0.0
 33
0.0
 40
0.0
 40
0.0
 40
0.0
 40
0.0
 40
1.0
 40
1.0
 40
1.0
 40
2.0
 40
2.0
 40
2.0
 40
3.0
 40
3.0
 40
3.0
 40
4.0
 40
4.0
 40
4.0
 40
5.0
 40
5.0
 40
5.0
 40
6.0
 40
6.0
 40
6.0
 40
6.0
 10
3.860609266493055
 20
8.133307562934027
 30
0.0
 10
3.860609266493055
 20
8.133307562934027
 30
0.0
 10
4.239942762586805
 20
8.133307562934027
 30
0.0
 10
4.239942762586805
 20
8.133307562934027
 30
0.0
 10
4.234831492106119
 20
8.204821268717447
 30
0.0
 10
4.215540144178602
 20
8.258335537380642
 30
0.0
 10
4.182081858317057
 20
8.293863084581163
 30
0.0
 10
4.148609585232204
 20
8.329363081190321
 30
0.0
 10
4.104540083143446
 20
8.347113291422525
 30
0.0
 10
4.049887339274088
 20
8.347113291422525
 30
0.0
 10
3.997776031494141
 20
8.347113291422525
 30
0.0
 10
3.954984452989366
 20
8.329113430447048
 30
0.0
 10
3.921526167127821
 20
8.293085310194227
 30
0.0
 10
3.888067881266276
 20
8.257071601019964
 30
0.0
 10
3.867762247721354
 20
8.203807406955296
 30
0.0
 10
3.860609690348307
 20
8.133307562934027
 30
0.0
 10
3.860609690348307
 20
8.133307562934027
 30
0.0
 10
3.860609266493055
 20
8.133307562934027
 30
0.0
 10
3.860609266493055
 20
8.133307562934027
 30
0.0
  0
HATCH
  5
62
330
55
100
AcDbEntity
  8
Layer 1
 62
   162
100
AcDbHatch
 10
0.0
 20
0.0
 30
0.0
210
0.0
220
0.0
230
1.0
  2
SOLID
 70
     1
 71
     0
 91
        2
 92
        1
 93
        1
 72
     4
 94
        3
 73
     0
 74
     1
 95
       86
 96
       82
 40
0.0
 40
0.0
 40
0.0
 40
0.0
 40
1.0
 40
1.0
 40
1.0
 40
2.0
 40
2.0
 40
2.0
 40
3.0
 40
3.0
 40
3.0
 40
4.0
 40
4.0
 40
4.0
 40
5.0
 40
5.0
 40
5.0
 40
6.0
 40
6.0
 40
6.0
 40
7.0
 40
7.0
 40
7.0
 40
8.0
 40
8.0
 40
8.0
 40
9.0
 40
9.0
 40
9.0
 40
10.0
 40
10.0
 40
10.0
 40
11.0
 40
11.0
 40
11.0
 40
12.0
 40
12.0
 40
12.0
 40
13.0
 40
13.0
 40
13.0
 40
14.0
 40
14.0
 40
14.0
 40
15.0
 40
15.0
 40
15.0
 40
16.0
 40
16.0
 40
16.0
 40
17.0
 40
17.0
 40
17.0
 40
18.0
 40
18.0
 40
18.0
 40
19.0
 40
19.0
 40
19.0
 40
20.0
 40
20.0
 40
20.0
 40
21.0
 40
21.0
 40
21.0
 40
22.0
 40
22.0
 40
22.0
 40
23.0
 40
23.0
 40
23.0
 40
24.0
 40
24.0
 40
24.0
 40
25.0
 40
25.0
 40
25.0
 40
26.0
 40
26.0
 40
26.0
 40
27.0
 40
27.0
 40
27.0
 40
27.0
 10
4.269831339518229
 20
8.014529758029514
 10
4.269831339518229
 20
8.014529758029514
 10
3.860609266493055
 20
8.014529758029514
 10
3.860609266493055
 20
8.014529758029514
 10
3.861109415690104
 20
7.96700202094184
 10
3.870692782931858
 20
7.925113254123263
 10
3.889345380995008
 20
7.888849046495225
 10
3.907984415690104
 20
7.852571275499131
 10
3.932762145996094
 20
7.825238121880425
 10
3.963678571912977
 20
7.806849161783854
 10
3.994595421685113
 20
7.788460201687283
 10
4.028692457411024
 20
7.779265933566623
 10
4.065984090169271
 20
7.779265933566623
 10
4.091011895073785
 20
7.779265933566623
 10
4.113872951931423
 20
7.782196468777126
 10
4.134567260742188
 20
7.788085513644748
 10
4.155248006184896
 20
7.793946584065755
 10
4.175303565131293
 20
7.803141276041666
 10
4.194719950358072
 20
7.815668741861979
 10
4.214122772216797
 20
7.828168657090928
 10
4.23201158311632
 20
7.841585371229383
 10
4.248358832465278
 20
7.855890909830729
 10
4.264706081814236
 20
7.870182461208767
 10
4.285914527045356
 20
7.889613257514106
 10
4.311969757080078
 20
7.914126925998263
 10
4.322692023383246
 20
7.923321194118923
 10
4.338025410970052
 20
7.927918752034505
 10
4.357955932617188
 20
7.927918752034505
 10
4.379414452446832
 20
7.927918752034505
 10
4.396775563557942
 20
7.92204369439019
 10
4.410067240397135
 20
7.910293579101562
 10
4.423344930013021
 20
7.898529900444878
 10
4.429997762044271
 20
7.881932576497396
 10
4.429997762044271
 20
7.860474056667751
 10
4.429997762044271
 20
7.841571384006076
 10
4.422581142849392
 20
7.819474114312065
 10
4.407775455050998
 20
7.794196234809028
 10
4.392956203884548
 20
7.768904368082682
 10
4.370608859592013
 20
7.744640774197048
 10
4.340719858805338
 20
7.721390618218315
 10
4.31084484524197
 20
7.698140462239583
 10
4.273289150661892
 20
7.678849114312065
 10
4.22808117336697
 20
7.663529713948567
 10
4.182858784993489
 20
7.648196326361762
 10
4.130872938368055
 20
7.640557607014974
 10
4.072122785780165
 20
7.640557607014974
 10
3.937747955322266
 20
7.640557607014974
 10
3.833275689019097
 20
7.678863101535373
 10
3.758692423502604
 20
7.755488077799479
 10
3.684095170762804
 20
7.832127041286892
 10
3.646803538004557
 20
7.936085171169704
 10
3.646803538004557
 20
8.067390865749783
 10
3.646803538004557
 20
8.129196590847439
 10
3.655997806125217
 20
8.18655734592014
 10
3.674386766221788
 20
8.239432440863714
 10
3.692775726318359
 20
8.292321523030598
 10
3.719595167371962
 20
8.337640974256727
 10
3.754845089382595
 20
8.375460306803385
 10
3.790095011393229
 20
8.413265652126736
 10
3.833511776394314
 20
8.442251841227213
 10
3.885122934977213
 20
8.46244642469618
 10
3.936720106336805
 20
8.48262702094184
 10
3.993942260742188
 20
8.49271011352539
 10
4.056775834825304
 20
8.49271011352539
 10
4.138512081570095
 20
8.49271011352539
 10
4.208636813693576
 20
8.475460052490234
 10
4.267136891682942
 20
8.440987904866535
 10
4.325636969672309
 20
8.406501770019531
 10
4.369442409939236
 20
8.361932542588976
 10
4.398567623562283
 20
8.307251824273003
 10
4.427692413330078
 20
8.252585093180338
 10
4.442248026529947
 20
8.19690450032552
 10
4.442248026529947
 20
8.14021004570855
 10
4.442248026529947
 20
8.087585025363499
 10
4.427178700764974
 20
8.05347400241428
 10
4.397039625379774
 20
8.037904527452257
 10
4.366886986626519
 20
8.022293514675564
 10
4.324498070610894
 20
8.014529334174261
 10
4.269831339518229
 20
8.014529334174261
 10
4.269831339518229
 20
8.014529334174261
 10
4.269831339518229
 20
8.014529758029514
 10
4.269831339518229
 20
8.014529758029514
 97
        0
 97
        0
 92
        1
 93
        1
 72
     4
 94
        3
 73
     0
 74
     1
 95
       23
 96
       19
 40
0.0
 40
0.0
 40
0.0
 40
0.0
 40
1.0
 40
1.0
 40
1.0
 40
2.0
 40
2.0
 40
2.0
 40
3.0
 40
3.0
 40
3.0
 40
4.0
 40
4.0
 40
4.0
 40
5.0
 40
5.0
 40
5.0
 40
6.0
 40
6.0
 40
6.0
 40
6.0
 10
3.860609266493055
 20
8.133307562934027
 10
3.860609266493055
 20
8.133307562934027
 10
4.239942762586805
 20
8.133307562934027
 10
4.239942762586805
 20
8.133307562934027
 10
4.234831492106119
 20
8.204821268717447
 10
4.215540144178602
 20
8.258335537380642
 10
4.182081858317057
 20
8.293863084581163
 10
4.148609585232204
 20
8.329363081190321
 10
4.104540083143446
 20
8.347113291422525
 10
4.049887339274088
 20
8.347113291422525
 10
3.997776031494141
 20
8.347113291422525
 10
3.954984452989366
 20
8.329113430447048
 10
3.921526167127821
 20
8.293085310194227
 10
3.888067881266276
 20
8.257071601019964
 10
3.867762247721354
 20
8.203807406955296
 10
3.860609690348307
 20
8.133307562934027
 10
3.860609690348307
 20
8.133307562934027
 10
3.860609266493055
 20
8.133307562934027
 10
3.860609266493055
 20
8.133307562934027
 97
        0
 97
        0
 75
     2
 76
     1
 98
        0
  0
SPLINE
  5
63
330
55
100
AcDbEntity
  8
Layer 1
370
     0
100
AcDbSpline
210
0.0
220
0.0
230
1.0
 70
    11
 71
     3
 72
   113
 73
   109
 74
     0
 42
0.0000000001
 43
0.0000000001
 12
1.0
 22
0.0
 32
0.0
 13
1.0
 23
0.0
 33
0.0
 40
0.0
 40
0.0
 40
0.0
 40
0.0
 40
1.0
 40
1.0
 40
1.0
 40
2.0
 40
2.0
 40
2.0
 40
3.0
 40
3.0
 40
3.0
 40
4.0
 40
4.0
 40
4.0
 40
5.0
 40
5.0
 40
5.0
 40
6.0
 40
6.0
 40
6.0
 40
7.0
 40
7.0
 40
7.0
 40
8.0
 40
8.0
 40
8.0
 40
9.0
 40
9.0
 40
9.0
 40
10.0
 40
10.0
 40
10.0
 40
11.0
 40
11.0
 40
11.0
 40
12.0
 40
12.0
 40
12.0
 40
13.0
 40
13.0
 40
13.0
 40
14.0
 40
14.0
 40
14.0
 40
15.0
 40
15.0
 40
15.0
 40
16.0
 40
16.0
 40
16.0
 40
17.0
 40
17.0
 40
17.0
 40
18.0
 40
18.0
 40
18.0
 40
19.0
 40
19.0
 40
19.0
 40
20.0
 40
20.0
 40
20.0
 40
21.0
 40
21.0
 40
21.0
 40
22.0
 40
22.0
 40
22.0
 40
23.0
 40
23.0
 40
23.0
 40
24.0
 40
24.0
 40
24.0
 40
25.0
 40
25.0
 40
25.0
 40
26.0
 40
26.0
 40
26.0
 40
27.0
 40
27.0
 40
27.0
 40
28.0
 40
28.0
 40
28.0
 40
29.0
 40
29.0
 40
29.0
 40
30.0
 40
30.0
 40
30.0
 40
31.0
 40
31.0
 40
31.0
 40
32.0
 40
32.0
 40
32.0
 40
33.0
 40
33.0
 40
33.0
 40
34.0
 40
34.0
 40
34.0
 40
35.0
 40
35.0
 40
35.0
 40
36.0
 40
36.0
 40
36.0
 40
36.0
 10
5.414734310574001
 20
8.472779591878254
 30
0.0
 10
5.414734310574001
 20
8.472779591878254
 30
0.0
 10
5.437720404730903
 20
8.472779591878254
 30
0.0
 10
5.437720404730903
 20
8.472779591878254
 30
0.0
 10
5.437720404730903
 20
8.472779591878254
 30
0.0
 10
5.437720404730903
 20
8.598460303412542
 30
0.0
 10
5.437720404730903
 20
8.598460303412542
 30
0.0
 10
5.437720404730903
 20
8.63218265109592
 30
0.0
 10
5.438595241970486
 20
8.658626980251736
 30
0.0
 10
5.440400865342881
 20
8.677765740288628
 30
0.0
 10
5.442178514268663
 20
8.696932474772135
 30
0.0
 10
5.447164747450087
 20
8.713404761420355
 30
0.0
 10
5.455331590440538
 20
8.727196163601345
 30
0.0
 10
5.463511996799045
 20
8.741487714979383
 30
0.0
 10
5.475276099310981
 20
8.753126780192057
 30
0.0
 10
5.490595499674479
 20
8.762057410346136
 30
0.0
 10
5.505914900037977
 20
8.770988040500217
 30
0.0
 10
5.523025936550564
 20
8.775474124484592
 30
0.0
 10
5.541929033067491
 20
8.775474124484592
 30
0.0
 10
5.568484412299262
 20
8.775474124484592
 30
0.0
 10
5.59251234266493
 20
8.765515645345051
 30
0.0
 10
5.613970862494575
 20
8.745585123697916
 30
0.0
 10
5.628262413872613
 20
8.732293446858723
 30
0.0
 10
5.637346055772569
 20
8.716071234809027
 30
0.0
 10
5.641179402669271
 20
8.696932474772135
 30
0.0
 10
5.644998762342665
 20
8.677765740288628
 30
0.0
 10
5.646929423014322
 20
8.650571187337238
 30
0.0
 10
5.646929423014322
 20
8.615321265326605
 30
0.0
 10
5.646929423014322
 20
8.615321265326605
 30
0.0
 10
5.646929423014322
 20
8.472779591878254
 30
0.0
 10
5.646929423014322
 20
8.472779591878254
 30
0.0
 10
5.646929423014322
 20
8.472779591878254
 30
0.0
 10
5.723568386501736
 20
8.472779591878254
 30
0.0
 10
5.723568386501736
 20
8.472779591878254
 30
0.0
 10
5.753193325466579
 20
8.472779591878254
 30
0.0
 10
5.775790744357638
 20
8.465751647949219
 30
0.0
 10
5.791387769911024
 20
8.451710171169704
 30
0.0
 10
5.806957244873047
 20
8.437640719943577
 30
0.0
 10
5.814762963189019
 20
8.419640858968098
 30
0.0
 10
5.814762963189019
 20
8.397682189941406
 30
0.0
 10
5.814762963189019
 20
8.36958482530382
 30
0.0
 10
5.803652021620008
 20
8.349904378255207
 30
0.0
 10
5.781429714626736
 20
8.338668399386936
 30
0.0
 10
5.759207407633463
 20
8.327418433295355
 30
0.0
 10
5.727401733398438
 20
8.321807437472874
 30
0.0
 10
5.686027103000217
 20
8.321807437472874
 30
0.0
 10
5.686027103000217
 20
8.321807437472874
 30
0.0
 10
5.646957821316189
 20
8.321807437472874
 30
0.0
 10
5.646957821316189
 20
8.321807437472874
 30
0.0
 10
5.646957821316189
 20
8.321807437472874
 30
0.0
 10
5.646957821316189
 20
7.937113020155165
 30
0.0
 10
5.646957821316189
 20
7.937113020155165
 30
0.0
 10
5.646957821316189
 20
7.904418521457248
 30
0.0
 10
5.648096720377604
 20
7.879252115885416
 30
0.0
 10
5.650402069091797
 20
7.861626942952474
 30
0.0
 10
5.652693854437934
 20
7.843988206651475
 30
0.0
 10
5.658818562825521
 20
7.82968266805013
 30
0.0
 10
5.668791029188368
 20
7.818710327148438
 30
0.0
 10
5.678749508327908
 20
7.807710435655381
 30
0.0
 10
5.694971720377604
 20
7.802224053276909
 30
0.0
 10
5.717457665337457
 20
7.802224053276909
 30
0.0
 10
5.729721493191189
 20
7.802224053276909
 30
0.0
 10
5.746304829915364
 20
7.804390801323784
 30
0.0
 10
5.767263200547959
 20
7.80873786078559
 30
0.0
 10
5.788207583957248
 20
7.813084920247396
 30
0.0
 10
5.804554833306207
 20
7.815265655517578
 30
0.0
 10
5.816304948594834
 20
7.815265655517578
 30
0.0
 10
5.833165910508897
 20
7.815265655517578
 30
0.0
 10
5.848360697428385
 20
7.808487786187065
 30
0.0
 10
5.86190202501085
 20
7.794946034749349
 30
0.0
 10
5.87542978922526
 20
7.781404283311631
 30
0.0
 10
5.882207658555772
 20
7.764668358696831
 30
0.0
 10
5.882207658555772
 20
7.744765387641059
 30
0.0
 10
5.882207658555772
 20
7.711043039957682
 30
0.0
 10
5.863818698459201
 20
7.685237460666232
 30
0.0
 10
5.827027214898004
 20
7.667362636990017
 30
0.0
 10
5.790235731336805
 20
7.649487813313802
 30
0.0
 10
5.737360636393229
 20
7.640543195936415
 30
0.0
 10
5.668402353922525
 20
7.640543195936415
 30
0.0
 10
5.602999369303385
 20
7.640543195936415
 30
0.0
 10
5.553443908691406
 20
7.651529100206163
 30
0.0
 10
5.519721984863281
 20
7.673487769232856
 30
0.0
 10
5.485999637179904
 20
7.695446014404297
 30
0.0
 10
5.463902367485894
 20
7.725862714979383
 30
0.0
 10
5.453444163004557
 20
7.764668358696831
 30
0.0
 10
5.442971971299913
 20
7.803501553005642
 30
0.0
 10
5.437735663519965
 20
7.855348798963758
 30
0.0
 10
5.437735663519965
 20
7.920237647162543
 30
0.0
 10
5.437735663519965
 20
7.920237647162543
 30
0.0
 10
5.437735663519965
 20
8.321793026394314
 30
0.0
 10
5.437735663519965
 20
8.321793026394314
 30
0.0
 10
5.437735663519965
 20
8.321793026394314
 30
0.0
 10
5.410152435302734
 20
8.321793026394314
 30
0.0
 10
5.410152435302734
 20
8.321793026394314
 30
0.0
 10
5.379999796549479
 20
8.321793026394314
 30
0.0
 10
5.357013702392578
 20
8.328946007622612
 30
0.0
 10
5.341180165608724
 20
8.343251546223957
 30
0.0
 10
5.325333065456814
 20
8.357543097601996
 30
0.0
 10
5.317416297064887
 20
8.375695970323351
 30
0.0
 10
5.317416297064887
 20
8.397668202718098
 30
0.0
 10
5.317416297064887
 20
8.41962644788954
 30
0.0
 10
5.325721740722656
 20
8.437626732720268
 30
0.0
 10
5.342333051893446
 20
8.451696183946398
 30
0.0
 10
5.358902401394314
 20
8.465765635172525
 30
0.0
 10
5.383041381835938
 20
8.472779591878254
 30
0.0
 10
5.414736005995008
 20
8.472779591878254
 30
0.0
 10
5.414736005995008
 20
8.472779591878254
 30
0.0
 10
5.414734310574001
 20
8.472779591878254
 30
0.0
 10
5.414734310574001
 20
8.472779591878254
 30
0.0
  0
HATCH
  5
64
330
55
100
AcDbEntity
  8
Layer 1
 62
   162
100
AcDbHatch
 10
0.0
 20
0.0
 30
0.0
210
0.0
220
0.0
230
1.0
  2
SOLID
 70
     1
 71
     0
 91
        1
 92
        1
 93
        1
 72
     4
 94
        3
 73
     0
 74
     1
 95
      113
 96
      109
 40
0.0
 40
0.0
 40
0.0
 40
0.0
 40
1.0
 40
1.0
 40
1.0
 40
2.0
 40
2.0
 40
2.0
 40
3.0
 40
3.0
 40
3.0
 40
4.0
 40
4.0
 40
4.0
 40
5.0
 40
5.0
 40
5.0
 40
6.0
 40
6.0
 40
6.0
 40
7.0
 40
7.0
 40
7.0
 40
8.0
 40
8.0
 40
8.0
 40
9.0
 40
9.0
 40
9.0
 40
10.0
 40
10.0
 40
10.0
 40
11.0
 40
11.0
 40
11.0
 40
12.0
 40
12.0
 40
12.0
 40
13.0
 40
13.0
 40
13.0
 40
14.0
 40
14.0
 40
14.0
 40
15.0
 40
15.0
 40
15.0
 40
16.0
 40
16.0
 40
16.0
 40
17.0
 40
17.0
 40
17.0
 40
18.0
 40
18.0
 40
18.0
 40
19.0
 40
19.0
 40
19.0
 40
20.0
 40
20.0
 40
20.0
 40
21.0
 40
21.0
 40
21.0
 40
22.0
 40
22.0
 40
22.0
 40
23.0
 40
23.0
 40
23.0
 40
24.0
 40
24.0
 40
24.0
 40
25.0
 40
25.0
 40
25.0
 40
26.0
 40
26.0
 40
26.0
 40
27.0
 40
27.0
 40
27.0
 40
28.0
 40
28.0
 40
28.0
 40
29.0
 40
29.0
 40
29.0
 40
30.0
 40
30.0
 40
30.0
 40
31.0
 40
31.0
 40
31.0
 40
32.0
 40
32.0
 40
32.0
 40
33.0
 40
33.0
 40
33.0
 40
34.0
 40
34.0
 40
34.0
 40
35.0
 40
35.0
 40
35.0
 40
36.0
 40
36.0
 40
36.0
 40
36.0
 10
5.414734310574001
 20
8.472779591878254
 10
5.414734310574001
 20
8.472779591878254
 10
5.437720404730903
 20
8.472779591878254
 10
5.437720404730903
 20
8.472779591878254
 10
5.437720404730903
 20
8.472779591878254
 10
5.437720404730903
 20
8.598460303412542
 10
5.437720404730903
 20
8.598460303412542
 10
5.437720404730903
 20
8.63218265109592
 10
5.438595241970486
 20
8.658626980251736
 10
5.440400865342881
 20
8.677765740288628
 10
5.442178514268663
 20
8.696932474772135
 10
5.447164747450087
 20
8.713404761420355
 10
5.455331590440538
 20
8.727196163601345
 10
5.463511996799045
 20
8.741487714979383
 10
5.475276099310981
 20
8.753126780192057
 10
5.490595499674479
 20
8.762057410346136
 10
5.505914900037977
 20
8.770988040500217
 10
5.523025936550564
 20
8.775474124484592
 10
5.541929033067491
 20
8.775474124484592
 10
5.568484412299262
 20
8.775474124484592
 10
5.59251234266493
 20
8.765515645345051
 10
5.613970862494575
 20
8.745585123697916
 10
5.628262413872613
 20
8.732293446858723
 10
5.637346055772569
 20
8.716071234809027
 10
5.641179402669271
 20
8.696932474772135
 10
5.644998762342665
 20
8.677765740288628
 10
5.646929423014322
 20
8.650571187337238
 10
5.646929423014322
 20
8.615321265326605
 10
5.646929423014322
 20
8.615321265326605
 10
5.646929423014322
 20
8.472779591878254
 10
5.646929423014322
 20
8.472779591878254
 10
5.646929423014322
 20
8.472779591878254
 10
5.723568386501736
 20
8.472779591878254
 10
5.723568386501736
 20
8.472779591878254
 10
5.753193325466579
 20
8.472779591878254
 10
5.775790744357638
 20
8.465751647949219
 10
5.791387769911024
 20
8.451710171169704
 10
5.806957244873047
 20
8.437640719943577
 10
5.814762963189019
 20
8.419640858968098
 10
5.814762963189019
 20
8.397682189941406
 10
5.814762963189019
 20
8.36958482530382
 10
5.803652021620008
 20
8.349904378255207
 10
5.781429714626736
 20
8.338668399386936
 10
5.759207407633463
 20
8.327418433295355
 10
5.727401733398438
 20
8.321807437472874
 10
5.686027103000217
 20
8.321807437472874
 10
5.686027103000217
 20
8.321807437472874
 10
5.646957821316189
 20
8.321807437472874
 10
5.646957821316189
 20
8.321807437472874
 10
5.646957821316189
 20
8.321807437472874
 10
5.646957821316189
 20
7.937113020155165
 10
5.646957821316189
 20
7.937113020155165
 10
5.646957821316189
 20
7.904418521457248
 10
5.648096720377604
 20
7.879252115885416
 10
5.650402069091797
 20
7.861626942952474
 10
5.652693854437934
 20
7.843988206651475
 10
5.658818562825521
 20
7.82968266805013
 10
5.668791029188368
 20
7.818710327148438
 10
5.678749508327908
 20
7.807710435655381
 10
5.694971720377604
 20
7.802224053276909
 10
5.717457665337457
 20
7.802224053276909
 10
5.729721493191189
 20
7.802224053276909
 10
5.746304829915364
 20
7.804390801323784
 10
5.767263200547959
 20
7.80873786078559
 10
5.788207583957248
 20
7.813084920247396
 10
5.804554833306207
 20
7.815265655517578
 10
5.816304948594834
 20
7.815265655517578
 10
5.833165910508897
 20
7.815265655517578
 10
5.848360697428385
 20
7.808487786187065
 10
5.86190202501085
 20
7.794946034749349
 10
5.87542978922526
 20
7.781404283311631
 10
5.882207658555772
 20
7.764668358696831
 10
5.882207658555772
 20
7.744765387641059
 10
5.882207658555772
 20
7.711043039957682
 10
5.863818698459201
 20
7.685237460666232
 10
5.827027214898004
 20
7.667362636990017
 10
5.790235731336805
 20
7.649487813313802
 10
5.737360636393229
 20
7.640543195936415
 10
5.668402353922525
 20
7.640543195936415
 10
5.602999369303385
 20
7.640543195936415
 10
5.553443908691406
 20
7.651529100206163
 10
5.519721984863281
 20
7.673487769232856
 10
5.485999637179904
 20
7.695446014404297
 10
5.463902367485894
 20
7.725862714979383
 10
5.453444163004557
 20
7.764668358696831
 10
5.442971971299913
 20
7.803501553005642
 10
5.437735663519965
 20
7.855348798963758
 10
5.437735663519965
 20
7.920237647162543
 10
5.437735663519965
 20
7.920237647162543
 10
5.437735663519965
 20
8.321793026394314
 10
5.437735663519965
 20
8.321793026394314
 10
5.437735663519965
 20
8.321793026394314
 10
5.410152435302734
 20
8.321793026394314
 10
5.410152435302734
 20
8.321793026394314
 10
5.379999796549479
 20
8.321793026394314
 10
5.357013702392578
 20
8.328946007622612
 10
5.341180165608724
 20
8.343251546223957
 10
5.325333065456814
 20
8.357543097601996
 10
5.317416297064887
 20
8.375695970323351
 10
5.317416297064887
 20
8.397668202718098
 10
5.317416297064887
 20
8.41962644788954
 10
5.325721740722656
 20
8.437626732720268
 10
5.342333051893446
 20
8.451696183946398
 10
5.358902401394314
 20
8.465765635172525
 10
5.383041381835938
 20
8.472779591878254
 10
5.414736005995008
 20
8.472779591878254
 10
5.414736005995008
 20
8.472779591878254
 10
5.414734310574001
 20
8.472779591878254
 10
5.414734310574001
 20
8.472779591878254
 97
        0
 97
        0
 75
     2
 76
     1
 98
        0
  0
SPLINE
  5
65
330
55
100
AcDbEntity
  8
Layer 1
370
     0
100
AcDbSpline
210
0.0
220
0.0
230
1.0
 70
    11
 71
     3
 72
    50
 73
    46
 74
     0
 42
0.0000000001
 43
0.0000000001
 12
1.0
 22
0.0
 32
0.0
 13
1.0
 23
0.0
 33
0.0
 40
0.0
 40
0.0
 40
0.0
 40
0.0
 40
1.0
 40
1.0
 40
1.0
 40
2.0
 40
2.0
 40
2.0
 40
3.0
 40
3.0
 40
3.0
 40
4.0
 40
4.0
 40
4.0
 40
5.0
 40
5.0
 40
5.0
 40
6.0
 40
6.0
 40
6.0
 40
7.0
 40
7.0
 40
7.0
 40
8.0
 40
8.0
 40
8.0
 40
9.0
 40
9.0
 40
9.0
 40
10.0
 40
10.0
 40
10.0
 40
11.0
 40
11.0
 40
11.0
 40
12.0
 40
12.0
 40
12.0
 40
13.0
 40
13.0
 40
13.0
 40
14.0
 40
14.0
 40
14.0
 40
15.0
 40
15.0
 40
15.0
 40
15.0
 10
6.588748084174262
 20
8.66436301337348
 30
0.0
 10
6.588748084174262
 20
8.66436301337348
 30
0.0
 10
6.588748084174262
 20
7.84668223063151
 30
0.0
 10
6.588748084174262
 20
7.84668223063151
 30
0.0
 10
6.588748084174262
 20
7.84668223063151
 30
0.0
 10
7.050067477756076
 20
7.84668223063151
 30
0.0
 10
7.050067477756076
 20
7.84668223063151
 30
0.0
 10
7.086845397949219
 20
7.84668223063151
 30
0.0
 10
7.115081787109375
 20
7.837737613254123
 30
0.0
 10
7.134762234157986
 20
7.8198488023546
 30
0.0
 10
7.154414706759982
 20
7.801973978678385
 30
0.0
 10
7.164262559678819
 20
7.779501597086588
 30
0.0
 10
7.164262559678819
 20
7.752418094211154
 30
0.0
 10
7.164262559678819
 20
7.724834865993923
 30
0.0
 10
7.154554578993055
 20
7.702473534478081
 30
0.0
 10
7.135137769911024
 20
7.685376485188802
 30
0.0
 10
7.115720960828993
 20
7.668251461452908
 30
0.0
 10
7.087373945448133
 20
7.659695943196614
 30
0.0
 10
7.050068325466579
 20
7.659695943196614
 30
0.0
 10
7.050068325466579
 20
7.659695943196614
 30
0.0
 10
6.500609927707248
 20
7.659695943196614
 30
0.0
 10
6.500609927707248
 20
7.659695943196614
 30
0.0
 10
6.451054467095268
 20
7.659695943196614
 30
0.0
 10
6.415415445963541
 20
7.670681847466362
 30
0.0
 10
6.393707275390625
 20
7.692654079861111
 30
0.0
 10
6.371999104817708
 20
7.714612325032552
 30
0.0
 10
6.36113781399197
 20
7.750126308865017
 30
0.0
 10
6.36113781399197
 20
7.799168056911892
 30
0.0
 10
6.36113781399197
 20
7.799168056911892
 30
0.0
 10
6.36113781399197
 20
8.664348602294922
 30
0.0
 10
6.36113781399197
 20
8.664348602294922
 30
0.0
 10
6.36113781399197
 20
8.710334777832031
 30
0.0
 10
6.371484968397352
 20
8.744806925455729
 30
0.0
 10
6.39216571384006
 20
8.767807006835938
 30
0.0
 10
6.412860022650825
 20
8.790793100992838
 30
0.0
 10
6.440054575602213
 20
8.802293141682942
 30
0.0
 10
6.47377692328559
 20
8.802293141682942
 30
0.0
 10
6.508012983534071
 20
8.802293141682942
 30
0.0
 10
6.535721249050564
 20
8.790918138292101
 30
0.0
 10
6.556929694281684
 20
8.768182118733723
 30
0.0
 10
6.578124152289496
 20
8.74547364976671
 30
0.0
 10
6.588748931884766
 20
8.710848914252386
 30
0.0
 10
6.588748931884766
 20
8.664362589518229
 30
0.0
 10
6.588748931884766
 20
8.664362589518229
 30
0.0
 10
6.588748084174262
 20
8.66436301337348
 30
0.0
 10
6.588748084174262
 20
8.66436301337348
 30
0.0
  0
HATCH
  5
66
330
55
100
AcDbEntity
  8
Layer 1
 62
    30
100
AcDbHatch
 10
0.0
 20
0.0
 30
0.0
210
0.0
220
0.0
230
1.0
  2
SOLID
 70
     1
 71
     0
 91
        1
 92
        1
 93
        1
 72
     4
 94
        3
 73
     0
 74
     1
 95
       50
 96
       46
 40
0.0
 40
0.0
 40
0.0
 40
0.0
 40
1.0
 40
1.0
 40
1.0
 40
2.0
 40
2.0
 40
2.0
 40
3.0
 40
3.0
 40
3.0
 40
4.0
 40
4.0
 40
4.0
 40
5.0
 40
5.0
 40
5.0
 40
6.0
 40
6.0
 40
6.0
 40
7.0
 40
7.0
 40
7.0
 40
8.0
 40
8.0
 40
8.0
 40
9.0
 40
9.0
 40
9.0
 40
10.0
 40
10.0
 40
10.0
 40
11.0
 40
11.0
 40
11.0
 40
12.0
 40
12.0
 40
12.0
 40
13.0
 40
13.0
 40
13.0
 40
14.0
 40
14.0
 40
14.0
 40
15.0
 40
15.0
 40
15.0
 40
15.0
 10
6.588748084174262
 20
8.66436301337348
 10
6.588748084174262
 20
8.66436301337348
 10
6.588748084174262
 20
7.84668223063151
 10
6.588748084174262
 20
7.84668223063151
 10
6.588748084174262
 20
7.84668223063151
 10
7.050067477756076
 20
7.84668223063151
 10
7.050067477756076
 20
7.84668223063151
 10
7.086845397949219
 20
7.84668223063151
 10
7.115081787109375
 20
7.837737613254123
 10
7.134762234157986
 20
7.8198488023546
 10
7.154414706759982
 20
7.801973978678385
 10
7.164262559678819
 20
7.779501597086588
 10
7.164262559678819
 20
7.752418094211154
 10
7.164262559678819
 20
7.724834865993923
 10
7.154554578993055
 20
7.702473534478081
 10
7.135137769911024
 20
7.685376485188802
 10
7.115720960828993
 20
7.668251461452908
 10
7.087373945448133
 20
7.659695943196614
 10
7.050068325466579
 20
7.659695943196614
 10
7.050068325466579
 20
7.659695943196614
 10
6.500609927707248
 20
7.659695943196614
 10
6.500609927707248
 20
7.659695943196614
 10
6.451054467095268
 20
7.659695943196614
 10
6.415415445963541
 20
7.670681847466362
 10
6.393707275390625
 20
7.692654079861111
 10
6.371999104817708
 20
7.714612325032552
 10
6.36113781399197
 20
7.750126308865017
 10
6.36113781399197
 20
7.799168056911892
 10
6.36113781399197
 20
7.799168056911892
 10
6.36113781399197
 20
8.664348602294922
 10
6.36113781399197
 20
8.664348602294922
 10
6.36113781399197
 20
8.710334777832031
 10
6.371484968397352
 20
8.744806925455729
 10
6.39216571384006
 20
8.767807006835938
 10
6.412860022650825
 20
8.790793100992838
 10
6.440054575602213
 20
8.802293141682942
 10
6.47377692328559
 20
8.802293141682942
 10
6.508012983534071
 20
8.802293141682942
 10
6.535721249050564
 20
8.790918138292101
 10
6.556929694281684
 20
8.768182118733723
 10
6.578124152289496
 20
8.74547364976671
 10
6.588748931884766
 20
8.710848914252386
 10
6.588748931884766
 20
8.664362589518229
 10
6.588748931884766
 20
8.664362589518229
 10
6.588748084174262
 20
8.66436301337348
 10
6.588748084174262
 20
8.66436301337348
 97
        0
 97
        0
 75
     2
 76
     1
 98
        0
  0
SPLINE
  5
67
330
55
100
AcDbEntity
  8
Layer 1
370
     0
100
AcDbSpline
210
0.0
220
0.0
230
1.0
 70
    11
 71
     3
 72
   104
 73
   100
 74
     0
 42
0.0000000001
 43
0.0000000001
 12
1.0
 22
0.0
 32
0.0
 13
1.0
 23
0.0
 33
0.0
 40
0.0
 40
0.0
 40
0.0
 40
0.0
 40
1.0
 40
1.0
 40
1.0
 40
2.0
 40
2.0
 40
2.0
 40
3.0
 40
3.0
 40
3.0
 40
4.0
 40
4.0
 40
4.0
 40
5.0
 40
5.0
 40
5.0
 40
6.0
 40
6.0
 40
6.0
 40
7.0
 40
7.0
 40
7.0
 40
8.0
 40
8.0
 40
8.0
 40
9.0
 40
9.0
 40
9.0
 40
10.0
 40
10.0
 40
10.0
 40
11.0
 40
11.0
 40
11.0
 40
12.0
 40
12.0
 40
12.0
 40
13.0
 40
13.0
 40
13.0
 40
14.0
 40
14.0
 40
14.0
 40
15.0
 40
15.0
 40
15.0
 40
16.0
 40
16.0
 40
16.0
 40
17.0
 40
17.0
 40
17.0
 40
18.0
 40
18.0
 40
18.0
 40
19.0
 40
19.0
 40
19.0
 40
20.0
 40
20.0
 40
20.0
 40
21.0
 40
21.0
 40
21.0
 40
22.0
 40
22.0
 40
22.0
 40
23.0
 40
23.0
 40
23.0
 40
24.0
 40
24.0
 40
24.0
 40
25.0
 40
25.0
 40
25.0
 40
26.0
 40
26.0
 40
26.0
 40
27.0
 40
27.0
 40
27.0
 40
28.0
 40
28.0
 40
28.0
 40
29.0
 40
29.0
 40
29.0
 40
30.0
 40
30.0
 40
30.0
 40
31.0
 40
31.0
 40
31.0
 40
32.0
 40
32.0
 40
32.0
 40
33.0
 40
33.0
 40
33.0
 40
33.0
 10
7.827901204427083
 20
7.758557637532552
 30
0.0
 10
7.777331882052951
 20
7.719224294026692
 30
0.0
 10
7.728401184082031
 20
7.689710405137803
 30
0.0
 10
7.681165059407552
 20
7.670057508680555
 30
0.0
 10
7.633900960286458
 20
7.650391048855251
 30
0.0
 10
7.580887688530815
 20
7.640557607014974
 30
0.0
 10
7.522151523166232
 20
7.640557607014974
 30
0.0
 10
7.468512641059028
 20
7.640557607014974
 30
0.0
 10
7.421374003092447
 20
7.651168823242188
 30
0.0
 10
7.380762736002604
 20
7.672349294026692
 30
0.0
 10
7.340137905544704
 20
7.693543752034505
 30
0.0
 10
7.308846367730034
 20
7.722293853759766
 30
0.0
 10
7.286888122558594
 20
7.758557637532552
 30
0.0
 10
7.264916314019096
 20
7.794835408528646
 30
0.0
 10
7.253929985894096
 20
7.834168752034505
 30
0.0
 10
7.253929985894096
 20
7.876585218641493
 30
0.0
 10
7.253929985894096
 20
7.933793385823567
 30
0.0
 10
7.272069295247396
 20
7.982585059271918
 30
0.0
 10
7.308347066243489
 20
8.022946251763237
 30
0.0
 10
7.344611273871528
 20
8.06329345703125
 30
0.0
 10
7.394416809082031
 20
8.090376959906683
 30
0.0
 10
7.457777235243055
 20
8.10418234931098
 30
0.0
 10
7.47105492485894
 20
8.107251909044054
 30
0.0
 10
7.504013061523438
 20
8.11414082845052
 30
0.0
 10
7.556638081868489
 20
8.124876658121744
 30
0.0
 10
7.609249538845486
 20
8.135584937201605
 30
0.0
 10
7.654332478841146
 20
8.145418379041883
 30
0.0
 10
7.691887749565971
 20
8.154376559787327
 30
0.0
 10
7.729429456922743
 20
8.163307189941406
 30
0.0
 10
7.770179748535156
 20
8.174168056911892
 30
0.0
 10
7.814124213324653
 20
8.18694602118598
 30
0.0
 10
7.811554802788628
 20
8.24212646484375
 30
0.0
 10
7.800443861219618
 20
8.28261269463433
 30
0.0
 10
7.780790540907118
 20
8.308404286702473
 30
0.0
 10
7.761110093858506
 20
8.334195878770617
 30
0.0
 10
7.720359802246094
 20
8.347098880343967
 30
0.0
 10
7.658554077148438
 20
8.347098880343967
 30
0.0
 10
7.605415344238281
 20
8.347098880343967
 30
0.0
 10
7.565443250868055
 20
8.339696248372395
 30
0.0
 10
7.538623385959201
 20
8.324876573350695
 30
0.0
 10
7.511789957682291
 20
8.310057322184244
 30
0.0
 10
7.488804287380642
 20
8.287835015190971
 30
0.0
 10
7.46965111626519
 20
8.258196089002821
 30
0.0
 10
7.450484381781684
 20
8.228571150037977
 30
0.0
 10
7.436956617567274
 20
8.209029303656683
 30
0.0
 10
7.429026285807291
 20
8.199570973714192
 30
0.0
 10
7.421095954047309
 20
8.190112643771702
 30
0.0
 10
7.404123094346788
 20
8.18539047241211
 30
0.0
 10
7.378067864312065
 20
8.18539047241211
 30
0.0
 10
7.354567633734809
 20
8.18539047241211
 30
0.0
 10
7.334262424045138
 20
8.192918141682942
 30
0.0
 10
7.317136976453993
 20
8.208001454671223
 30
0.0
 10
7.300025939941406
 20
8.223057217068142
 30
0.0
 10
7.291456434461805
 20
8.242362552218967
 30
0.0
 10
7.291456434461805
 20
8.265862358940971
 30
0.0
 10
7.291456434461805
 20
8.302640279134113
 30
0.0
 10
7.304484049479166
 20
8.338403913709852
 30
0.0
 10
7.330540127224392
 20
8.373154110378689
 30
0.0
 10
7.356595357259114
 20
8.407890319824219
 30
0.0
 10
7.397221035427517
 20
8.436501397026909
 30
0.0
 10
7.452387491861979
 20
8.458973354763454
 30
0.0
 10
7.507568359375
 20
8.481445736355251
 30
0.0
 10
7.576262580023871
 20
8.49269570244683
 30
0.0
 10
7.658526102701822
 20
8.49269570244683
 30
0.0
 10
7.750484042697482
 20
8.49269570244683
 30
0.0
 10
7.82277594672309
 20
8.481834411621094
 30
0.0
 10
7.875400967068142
 20
8.460126241048176
 30
0.0
 10
7.928012424045138
 20
8.43841807047526
 30
0.0
 10
7.965178595648871
 20
8.404056972927517
 30
0.0
 10
7.986886766221788
 20
8.357056935628254
 30
0.0
 10
8.008594936794704
 20
8.310042911105686
 30
0.0
 10
8.01947021484375
 20
8.247723473442925
 30
0.0
 10
8.01947021484375
 20
8.17007064819336
 30
0.0
 10
8.01947021484375
 20
8.121028900146484
 30
0.0
 10
8.01933119032118
 20
8.079390207926432
 30
0.0
 10
8.019081115722656
 20
8.045167711046007
 30
0.0
 10
8.018817477756077
 20
8.010931650797525
 30
0.0
 10
8.018441942003038
 20
7.972862243652344
 30
0.0
 10
8.017928229437933
 20
7.930973476833767
 30
0.0
 10
8.017928229437933
 20
7.8916261461046
 30
0.0
 10
8.02445560031467
 20
7.850626203748915
 30
0.0
 10
8.037469651963976
 20
7.807987213134766
 30
0.0
 10
8.050497266981337
 20
7.765320671929253
 30
0.0
 10
8.057011074490017
 20
7.737862057156033
 30
0.0
 10
8.057011074490017
 20
7.7255982293023
 30
0.0
 10
8.057011074490017
 20
7.704139709472656
 30
0.0
 10
8.046913994683159
 20
7.684598286946614
 30
0.0
 10
8.0267333984375
 20
7.666973114013672
 30
0.0
 10
8.00655280219184
 20
7.649334377712673
 30
0.0
 10
7.983691745334201
 20
7.640542348225911
 30
0.0
 10
7.958150227864583
 20
7.640542348225911
 30
0.0
 10
7.93669213189019
 20
7.640542348225911
 30
0.0
 10
7.915483262803819
 20
7.650639428032768
 30
0.0
 10
7.894538879394531
 20
7.670806037055121
 30
0.0
 10
7.873622470431857
 20
7.691000620524088
 30
0.0
 10
7.851399739583333
 20
7.720250447591146
 30
0.0
 10
7.827900356716579
 20
7.758555942111545
 30
0.0
 10
7.827900356716579
 20
7.758555942111545
 30
0.0
 10
7.827901204427083
 20
7.758557637532552
 30
0.0
 10
7.827901204427083
 20
7.758557637532552
 30
0.0
  0
SPLINE
  5
68
330
55
100
AcDbEntity
  8
Layer 1
370
     0
100
AcDbSpline
210
0.0
220
0.0
230
1.0
 70
    11
 71
     3
 72
    38
 73
    34
 74
     0
 42
0.0000000001
 43
0.0000000001
 12
1.0
 22
0.0
 32
0.0
 13
1.0
 23
0.0
 33
0.0
 40
0.0
 40
0.0
 40
0.0
 40
0.0
 40
1.0
 40
1.0
 40
1.0
 40
2.0
 40
2.0
 40
2.0
 40
3.0
 40
3.0
 40
3.0
 40
4.0
 40
4.0
 40
4.0
 40
5.0
 40
5.0
 40
5.0
 40
6.0
 40
6.0
 40
6.0
 40
7.0
 40
7.0
 40
7.0
 40
8.0
 40
8.0
 40
8.0
 40
9.0
 40
9.0
 40
9.0
 40
10.0
 40
10.0
 40
10.0
 40
11.0
 40
11.0
 40
11.0
 40
11.0
 10
7.814123365614149
 20
8.061266157362196
 30
0.0
 10
7.783471001519096
 20
8.050016191270617
 30
0.0
 10
7.738887363009982
 20
8.038141038682726
 30
0.0
 10
7.680386861165364
 20
8.025641123453775
 30
0.0
 10
7.62188720703125
 20
8.013113233778212
 30
0.0
 10
7.581400553385416
 20
8.003918965657551
 30
0.0
 10
7.558928595648871
 20
7.998057895236545
 30
0.0
 10
7.536442226833767
 20
7.992168850368923
 30
0.0
 10
7.514984130859375
 20
7.980682796902126
 30
0.0
 10
7.49455346001519
 20
7.96357176038954
 30
0.0
 10
7.474109225802951
 20
7.946460723876953
 30
0.0
 10
7.463901095920138
 20
7.922585805257161
 30
0.0
 10
7.463901095920138
 20
7.891933017306857
 30
0.0
 10
7.463901095920138
 20
7.860252380371094
 30
0.0
 10
7.475901285807291
 20
7.833294338650173
 30
0.0
 10
7.499915228949653
 20
7.811085595024956
 30
0.0
 10
7.523929172092013
 20
7.788849300808376
 30
0.0
 10
7.555346171061197
 20
7.777752346462673
 30
0.0
 10
7.594178941514756
 20
7.777752346462673
 30
0.0
 10
7.635553995768229
 20
7.777752346462673
 30
0.0
 10
7.673748440212673
 20
7.786808013916016
 30
0.0
 10
7.708748711480034
 20
7.804960886637369
 30
0.0
 10
7.743734571668837
 20
7.823085784912109
 30
0.0
 10
7.769401550292969
 20
7.846460978190104
 30
0.0
 10
7.785762363009982
 20
7.875072055392795
 30
0.0
 10
7.80465104844835
 20
7.906752692328559
 30
0.0
 10
7.814123365614149
 20
7.958863576253255
 30
0.0
 10
7.814123365614149
 20
8.031405554877386
 30
0.0
 10
7.814123365614149
 20
8.031405554877386
 30
0.0
 10
7.814123365614149
 20
8.061266581217447
 30
0.0
 10
7.814123365614149
 20
8.061266581217447
 30
0.0
 10
7.814123365614149
 20
8.061266581217447
 30
0.0
 10
7.814123365614149
 20
8.061266157362196
 30
0.0
 10
7.814123365614149
 20
8.061266157362196
 30
0.0
  0
HATCH
  5
69
330
55
100
AcDbEntity
  8
Layer 1
 62
    30
100
AcDbHatch
 10
0.0
 20
0.0
 30
0.0
210
0.0
220
0.0
230
1.0
  2
SOLID
 70
     1
 71
     0
 91
        2
 92
        1
 93
        1
 72
     4
 94
        3
 73
     0
 74
     1
 95
      104
 96
      100
 40
0.0
 40
0.0
 40
0.0
 40
0.0
 40
1.0
 40
1.0
 40
1.0
 40
2.0
 40
2.0
 40
2.0
 40
3.0
 40
3.0
 40
3.0
 40
4.0
 40
4.0
 40
4.0
 40
5.0
 40
5.0
 40
5.0
 40
6.0
 40
6.0
 40
6.0
 40
7.0
 40
7.0
 40
7.0
 40
8.0
 40
8.0
 40
8.0
 40
9.0
 40
9.0
 40
9.0
 40
10.0
 40
10.0
 40
10.0
 40
11.0
 40
11.0
 40
11.0
 40
12.0
 40
12.0
 40
12.0
 40
13.0
 40
13.0
 40
13.0
 40
14.0
 40
14.0
 40
14.0
 40
15.0
 40
15.0
 40
15.0
 40
16.0
 40
16.0
 40
16.0
 40
17.0
 40
17.0
 40
17.0
 40
18.0
 40
18.0
 40
18.0
 40
19.0
 40
19.0
 40
19.0
 40
20.0
 40
20.0
 40
20.0
 40
21.0
 40
21.0
 40
21.0
 40
22.0
 40
22.0
 40
22.0
 40
23.0
 40
23.0
 40
23.0
 40
24.0
 40
24.0
 40
24.0
 40
25.0
 40
25.0
 40
25.0
 40
26.0
 40
26.0
 40
26.0
 40
27.0
 40
27.0
 40
27.0
 40
28.0
 40
28.0
 40
28.0
 40
29.0
 40
29.0
 40
29.0
 40
30.0
 40
30.0
 40
30.0
 40
31.0
 40
31.0
 40
31.0
 40
32.0
 40
32.0
 40
32.0
 40
33.0
 40
33.0
 40
33.0
 40
33.0
 10
7.827901204427083
 20
7.758557637532552
 10
7.777331882052951
 20
7.719224294026692
 10
7.728401184082031
 20
7.689710405137803
 10
7.681165059407552
 20
7.670057508680555
 10
7.633900960286458
 20
7.650391048855251
 10
7.580887688530815
 20
7.640557607014974
 10
7.522151523166232
 20
7.640557607014974
 10
7.468512641059028
 20
7.640557607014974
 10
7.421374003092447
 20
7.651168823242188
 10
7.380762736002604
 20
7.672349294026692
 10
7.340137905544704
 20
7.693543752034505
 10
7.308846367730034
 20
7.722293853759766
 10
7.286888122558594
 20
7.758557637532552
 10
7.264916314019096
 20
7.794835408528646
 10
7.253929985894096
 20
7.834168752034505
 10
7.253929985894096
 20
7.876585218641493
 10
7.253929985894096
 20
7.933793385823567
 10
7.272069295247396
 20
7.982585059271918
 10
7.308347066243489
 20
8.022946251763237
 10
7.344611273871528
 20
8.06329345703125
 10
7.394416809082031
 20
8.090376959906683
 10
7.457777235243055
 20
8.10418234931098
 10
7.47105492485894
 20
8.107251909044054
 10
7.504013061523438
 20
8.11414082845052
 10
7.556638081868489
 20
8.124876658121744
 10
7.609249538845486
 20
8.135584937201605
 10
7.654332478841146
 20
8.145418379041883
 10
7.691887749565971
 20
8.154376559787327
 10
7.729429456922743
 20
8.163307189941406
 10
7.770179748535156
 20
8.174168056911892
 10
7.814124213324653
 20
8.18694602118598
 10
7.811554802788628
 20
8.24212646484375
 10
7.800443861219618
 20
8.28261269463433
 10
7.780790540907118
 20
8.308404286702473
 10
7.761110093858506
 20
8.334195878770617
 10
7.720359802246094
 20
8.347098880343967
 10
7.658554077148438
 20
8.347098880343967
 10
7.605415344238281
 20
8.347098880343967
 10
7.565443250868055
 20
8.339696248372395
 10
7.538623385959201
 20
8.324876573350695
 10
7.511789957682291
 20
8.310057322184244
 10
7.488804287380642
 20
8.287835015190971
 10
7.46965111626519
 20
8.258196089002821
 10
7.450484381781684
 20
8.228571150037977
 10
7.436956617567274
 20
8.209029303656683
 10
7.429026285807291
 20
8.199570973714192
 10
7.421095954047309
 20
8.190112643771702
 10
7.404123094346788
 20
8.18539047241211
 10
7.378067864312065
 20
8.18539047241211
 10
7.354567633734809
 20
8.18539047241211
 10
7.334262424045138
 20
8.192918141682942
 10
7.317136976453993
 20
8.208001454671223
 10
7.300025939941406
 20
8.223057217068142
 10
7.291456434461805
 20
8.242362552218967
 10
7.291456434461805
 20
8.265862358940971
 10
7.291456434461805
 20
8.302640279134113
 10
7.304484049479166
 20
8.338403913709852
 10
7.330540127224392
 20
8.373154110378689
 10
7.356595357259114
 20
8.407890319824219
 10
7.397221035427517
 20
8.436501397026909
 10
7.452387491861979
 20
8.458973354763454
 10
7.507568359375
 20
8.481445736355251
 10
7.576262580023871
 20
8.49269570244683
 10
7.658526102701822
 20
8.49269570244683
 10
7.750484042697482
 20
8.49269570244683
 10
7.82277594672309
 20
8.481834411621094
 10
7.875400967068142
 20
8.460126241048176
 10
7.928012424045138
 20
8.43841807047526
 10
7.965178595648871
 20
8.404056972927517
 10
7.986886766221788
 20
8.357056935628254
 10
8.008594936794704
 20
8.310042911105686
 10
8.01947021484375
 20
8.247723473442925
 10
8.01947021484375
 20
8.17007064819336
 10
8.01947021484375
 20
8.121028900146484
 10
8.01933119032118
 20
8.079390207926432
 10
8.019081115722656
 20
8.045167711046007
 10
8.018817477756077
 20
8.010931650797525
 10
8.018441942003038
 20
7.972862243652344
 10
8.017928229437933
 20
7.930973476833767
 10
8.017928229437933
 20
7.8916261461046
 10
8.02445560031467
 20
7.850626203748915
 10
8.037469651963976
 20
7.807987213134766
 10
8.050497266981337
 20
7.765320671929253
 10
8.057011074490017
 20
7.737862057156033
 10
8.057011074490017
 20
7.7255982293023
 10
8.057011074490017
 20
7.704139709472656
 10
8.046913994683159
 20
7.684598286946614
 10
8.0267333984375
 20
7.666973114013672
 10
8.00655280219184
 20
7.649334377712673
 10
7.983691745334201
 20
7.640542348225911
 10
7.958150227864583
 20
7.640542348225911
 10
7.93669213189019
 20
7.640542348225911
 10
7.915483262803819
 20
7.650639428032768
 10
7.894538879394531
 20
7.670806037055121
 10
7.873622470431857
 20
7.691000620524088
 10
7.851399739583333
 20
7.720250447591146
 10
7.827900356716579
 20
7.758555942111545
 10
7.827900356716579
 20
7.758555942111545
 10
7.827901204427083
 20
7.758557637532552
 10
7.827901204427083
 20
7.758557637532552
 97
        0
 97
        0
 92
        1
 93
        1
 72
     4
 94
        3
 73
     0
 74
     1
 95
       38
 96
       34
 40
0.0
 40
0.0
 40
0.0
 40
0.0
 40
1.0
 40
1.0
 40
1.0
 40
2.0
 40
2.0
 40
2.0
 40
3.0
 40
3.0
 40
3.0
 40
4.0
 40
4.0
 40
4.0
 40
5.0
 40
5.0
 40
5.0
 40
6.0
 40
6.0
 40
6.0
 40
7.0
 40
7.0
 40
7.0
 40
8.0
 40
8.0
 40
8.0
 40
9.0
 40
9.0
 40
9.0
 40
10.0
 40
10.0
 40
10.0
 40
11.0
 40
11.0
 40
11.0
 40
11.0
 10
7.814123365614149
 20
8.061266157362196
 10
7.783471001519096
 20
8.050016191270617
 10
7.738887363009982
 20
8.038141038682726
 10
7.680386861165364
 20
8.025641123453775
 10
7.62188720703125
 20
8.013113233778212
 10
7.581400553385416
 20
8.003918965657551
 10
7.558928595648871
 20
7.998057895236545
 10
7.536442226833767
 20
7.992168850368923
 10
7.514984130859375
 20
7.980682796902126
 10
7.49455346001519
 20
7.96357176038954
 10
7.474109225802951
 20
7.946460723876953
 10
7.463901095920138
 20
7.922585805257161
 10
7.463901095920138
 20
7.891933017306857
 10
7.463901095920138
 20
7.860252380371094
 10
7.475901285807291
 20
7.833294338650173
 10
7.499915228949653
 20
7.811085595024956
 10
7.523929172092013
 20
7.788849300808376
 10
7.555346171061197
 20
7.777752346462673
 10
7.594178941514756
 20
7.777752346462673
 10
7.635553995768229
 20
7.777752346462673
 10
7.673748440212673
 20
7.786808013916016
 10
7.708748711480034
 20
7.804960886637369
 10
7.743734571668837
 20
7.823085784912109
 10
7.769401550292969
 20
7.846460978190104
 10
7.785762363009982
 20
7.875072055392795
 10
7.80465104844835
 20
7.906752692328559
 10
7.814123365614149
 20
7.958863576253255
 10
7.814123365614149
 20
8.031405554877386
 10
7.814123365614149
 20
8.031405554877386
 10
7.814123365614149
 20
8.061266581217447
 10
7.814123365614149
 20
8.061266581217447
 10
7.814123365614149
 20
8.061266581217447
 10
7.814123365614149
 20
8.061266157362196
 10
7.814123365614149
 20
8.061266157362196
 97
        0
 97
        0
 75
     2
 76
     1
 98
        0
  0
SPLINE
  5
6A
330
55
100
AcDbEntity
  8
Layer 1
370
     0
100
AcDbSpline
210
0.0
220
0.0
230
1.0
 70
    11
 71
     3
 72
    80
 73
    76
 74
     0
 42
0.0000000001
 43
0.0000000001
 12
1.0
 22
0.0
 32
0.0
 13
1.0
 23
0.0
 33
0.0
 40
0.0
 40
0.0
 40
0.0
 40
0.0
 40
1.0
 40
1.0
 40
1.0
 40
2.0
 40
2.0
 40
2.0
 40
3.0
 40
3.0
 40
3.0
 40
4.0
 40
4.0
 40
4.0
 40
5.0
 40
5.0
 40
5.0
 40
6.0
 40
6.0
 40
6.0
 40
7.0
 40
7.0
 40
7.0
 40
8.0
 40
8.0
 40
8.0
 40
9.0
 40
9.0
 40
9.0
 40
10.0
 40
10.0
 40
10.0
 40
11.0
 40
11.0
 40
11.0
 40
12.0
 40
12.0
 40
12.0
 40
13.0
 40
13.0
 40
13.0
 40
14.0
 40
14.0
 40
14.0
 40
15.0
 40
15.0
 40
15.0
 40
16.0
 40
16.0
 40
16.0
 40
17.0
 40
17.0
 40
17.0
 40
18.0
 40
18.0
 40
18.0
 40
19.0
 40
19.0
 40
19.0
 40
20.0
 40
20.0
 40
20.0
 40
21.0
 40
21.0
 40
21.0
 40
22.0
 40
22.0
 40
22.0
 40
23.0
 40
23.0
 40
23.0
 40
24.0
 40
24.0
 40
24.0
 40
25.0
 40
25.0
 40
25.0
 40
25.0
 10
8.404178195529514
 20
8.68276596069336
 30
0.0
 10
8.404178195529514
 20
8.68276596069336
 30
0.0
 10
8.404178195529514
 20
8.36321046617296
 30
0.0
 10
8.404178195529514
 20
8.36321046617296
 30
0.0
 10
8.44352552625868
 20
8.404071384006077
 30
0.0
 10
8.483622233072916
 20
8.435363345675999
 30
0.0
 10
8.524497985839844
 20
8.457085503472221
 30
0.0
 10
8.565359327528212
 20
8.47879367404514
 30
0.0
 10
8.615942213270399
 20
8.489654964870876
 30
0.0
 10
8.676233927408854
 20
8.489654964870876
 30
0.0
 10
8.745706346299913
 20
8.489654964870876
 30
0.0
 10
8.806636386447483
 20
8.473182678222656
 30
0.0
 10
8.858997768825954
 20
8.440224541558159
 30
0.0
 10
8.911372714572481
 20
8.407279968261719
 30
0.0
 10
8.951969570583767
 20
8.359488593207464
 30
0.0
 10
8.980845133463541
 20
8.296933068169487
 30
0.0
 10
9.0096927218967
 20
8.23433600531684
 30
0.0
 10
9.024136861165363
 20
8.160127427842882
 30
0.0
 10
9.024136861165363
 20
8.074308183458117
 30
0.0
 10
9.024136861165363
 20
8.010960896809895
 30
0.0
 10
9.016095479329426
 20
7.952849917941623
 30
0.0
 10
8.999998304578993
 20
7.899974822998047
 30
0.0
 10
8.983914693196613
 20
7.847085740831163
 30
0.0
 10
8.96053992377387
 20
7.801238589816623
 30
0.0
 10
8.92988755967882
 20
7.762419382731119
 30
0.0
 10
8.899235195583767
 20
7.723586188422309
 30
0.0
 10
8.862054612901476
 20
7.693572150336371
 30
0.0
 10
8.818387349446613
 20
7.672377692328559
 30
0.0
 10
8.774692959255642
 20
7.651197221544053
 30
0.0
 10
8.726554022894964
 20
7.64058600531684
 30
0.0
 10
8.673929002549913
 20
7.64058600531684
 30
0.0
 10
8.641762627495659
 20
7.64058600531684
 30
0.0
 10
8.611484951443142
 20
7.644405364990234
 30
0.0
 10
8.583123101128471
 20
7.652072058783637
 30
0.0
 10
8.55477566189236
 20
7.65973875257704
 30
0.0
 10
8.530637105305988
 20
7.669808281792534
 30
0.0
 10
8.510706583658854
 20
7.682349734836154
 30
0.0
 10
8.490776062011719
 20
7.694849650065104
 30
0.0
 10
8.473789638943142
 20
7.707752651638454
 30
0.0
 10
8.459748162163628
 20
7.721044328477647
 30
0.0
 10
8.4456787109375
 20
7.734322018093533
 30
0.0
 10
8.427179124620226
 20
7.754252539740668
 30
0.0
 10
8.404179043240017
 20
7.780821906195746
 30
0.0
 10
8.404179043240017
 20
7.780821906195746
 30
0.0
 10
8.404179043240017
 20
7.760141160753038
 30
0.0
 10
8.404179043240017
 20
7.760141160753038
 30
0.0
 10
8.404179043240017
 20
7.720793830023871
 30
0.0
 10
8.394720289442274
 20
7.691029866536458
 30
0.0
 10
8.375831604003906
 20
7.67084969414605
 30
0.0
 10
8.356928507486979
 20
7.650683085123697
 30
0.0
 10
8.332914564344618
 20
7.64058600531684
 30
0.0
 10
8.303789774576822
 20
7.64058600531684
 30
0.0
 10
8.274151272243923
 20
7.64058600531684
 30
0.0
 10
8.250525580512152
 20
7.650683085123697
 30
0.0
 10
8.232900831434462
 20
7.67084969414605
 30
0.0
 10
8.215261671278212
 20
7.691030290391709
 30
0.0
 10
8.206470065646702
 20
7.720794253879123
 30
0.0
 10
8.206470065646702
 20
7.760141160753038
 30
0.0
 10
8.206470065646702
 20
7.760141160753038
 30
0.0
 10
8.206470065646702
 20
8.673599243164062
 30
0.0
 10
8.206470065646702
 20
8.673599243164062
 30
0.0
 10
8.206470065646702
 20
8.716002146402994
 30
0.0
 10
8.215011596679688
 20
8.748057471381292
 30
0.0
 10
8.232137044270832
 20
8.769766065809462
 30
0.0
 10
8.249261644151476
 20
8.791474236382378
 30
0.0
 10
8.27313741048177
 20
8.802335527208117
 30
0.0
 10
8.303789774576822
 20
8.802335527208117
 30
0.0
 10
8.335970560709635
 20
8.802335527208117
 30
0.0
 10
8.36076185438368
 20
8.791988372802734
 30
0.0
 10
8.378137376573351
 20
8.77129406399197
 30
0.0
 10
8.395498487684462
 20
8.750585767957899
 30
0.0
 10
8.404179043240017
 20
8.72107187906901
 30
0.0
 10
8.404179043240017
 20
8.68276638454861
 30
0.0
 10
8.404179043240017
 20
8.68276638454861
 30
0.0
 10
8.404178195529514
 20
8.68276596069336
 30
0.0
 10
8.404178195529514
 20
8.68276596069336
 30
0.0
  0
SPLINE
  5
6B
330
55
100
AcDbEntity
  8
Layer 1
370
     0
100
AcDbSpline
210
0.0
220
0.0
230
1.0
 70
    11
 71
     3
 72
    38
 73
    34
 74
     0
 42
0.0000000001
 43
0.0000000001
 12
1.0
 22
0.0
 32
0.0
 13
1.0
 23
0.0
 33
0.0
 40
0.0
 40
0.0
 40
0.0
 40
0.0
 40
1.0
 40
1.0
 40
1.0
 40
2.0
 40
2.0
 40
2.0
 40
3.0
 40
3.0
 40
3.0
 40
4.0
 40
4.0
 40
4.0
 40
5.0
 40
5.0
 40
5.0
 40
6.0
 40
6.0
 40
6.0
 40
7.0
 40
7.0
 40
7.0
 40
8.0
 40
8.0
 40
8.0
 40
9.0
 40
9.0
 40
9.0
 40
10.0
 40
10.0
 40
10.0
 40
11.0
 40
11.0
 40
11.0
 40
11.0
 10
8.41415066189236
 20
8.061265733506945
 30
0.0
 10
8.41415066189236
 20
7.977987925211588
 30
0.0
 10
8.433178371853298
 20
7.913987901475694
 30
0.0
 10
8.471233791775173
 20
7.869307200113932
 30
0.0
 10
8.509289211697048
 20
7.8245849609375
 30
0.0
 10
8.55923377143012
 20
7.802251603868272
 30
0.0
 10
8.621053059895832
 20
7.802251603868272
 30
0.0
 10
8.67366451687283
 20
7.802251603868272
 30
0.0
 10
8.71901109483507
 20
7.825112660725911
 30
0.0
 10
8.757080925835503
 20
7.870834774441189
 30
0.0
 10
8.795122782389322
 20
7.916542900933159
 30
0.0
 10
8.814164055718315
 20
7.982070922851562
 30
0.0
 10
8.814164055718315
 20
8.067390441894531
 30
0.0
 10
8.814164055718315
 20
8.1225708855523
 30
0.0
 10
8.80624728732639
 20
8.170085059271917
 30
0.0
 10
8.790400187174479
 20
8.209932115342882
 30
0.0
 10
8.774566650390625
 20
8.249779171413845
 30
0.0
 10
8.75209469265408
 20
8.28055699666341
 30
0.0
 10
8.722969902886284
 20
8.30226559109158
 30
0.0
 10
8.693858676486546
 20
8.323973761664496
 30
0.0
 10
8.659872266981337
 20
8.334835052490234
 30
0.0
 10
8.621053059895832
 20
8.334835052490234
 30
0.0
 10
8.581205579969618
 20
8.334835052490234
 30
0.0
 10
8.545691596137152
 20
8.323987748887804
 30
0.0
 10
8.514525519476996
 20
8.30226559109158
 30
0.0
 10
8.483373006184895
 20
8.280557420518663
 30
0.0
 10
8.45884535047743
 20
8.249126858181423
 30
0.0
 10
8.440956115722656
 20
8.208015441894531
 30
0.0
 10
8.42308129204644
 20
8.166890462239582
 30
0.0
 10
8.41415066189236
 20
8.11797375149197
 30
0.0
 10
8.41415066189236
 20
8.061265309651692
 30
0.0
 10
8.41415066189236
 20
8.061265309651692
 30
0.0
 10
8.41415066189236
 20
8.061265733506945
 30
0.0
 10
8.41415066189236
 20
8.061265733506945
 30
0.0
  0
HATCH
  5
6C
330
55
100
AcDbEntity
  8
Layer 1
 62
    30
100
AcDbHatch
 10
0.0
 20
0.0
 30
0.0
210
0.0
220
0.0
230
1.0
  2
SOLID
 70
     1
 71
     0
 91
        2
 92
        1
 93
        1
 72
     4
 94
        3
 73
     0
 74
     1
 95
       80
 96
       76
 40
0.0
 40
0.0
 40
0.0
 40
0.0
 40
1.0
 40
1.0
 40
1.0
 40
2.0
 40
2.0
 40
2.0
 40
3.0
 40
3.0
 40
3.0
 40
4.0
 40
4.0
 40
4.0
 40
5.0
 40
5.0
 40
5.0
 40
6.0
 40
6.0
 40
6.0
 40
7.0
 40
7.0
 40
7.0
 40
8.0
 40
8.0
 40
8.0
 40
9.0
 40
9.0
 40
9.0
 40
10.0
 40
10.0
 40
10.0
 40
11.0
 40
11.0
 40
11.0
 40
12.0
 40
12.0
 40
12.0
 40
13.0
 40
13.0
 40
13.0
 40
14.0
 40
14.0
 40
14.0
 40
15.0
 40
15.0
 40
15.0
 40
16.0
 40
16.0
 40
16.0
 40
17.0
 40
17.0
 40
17.0
 40
18.0
 40
18.0
 40
18.0
 40
19.0
 40
19.0
 40
19.0
 40
20.0
 40
20.0
 40
20.0
 40
21.0
 40
21.0
 40
21.0
 40
22.0
 40
22.0
 40
22.0
 40
23.0
 40
23.0
 40
23.0
 40
24.0
 40
24.0
 40
24.0
 40
25.0
 40
25.0
 40
25.0
 40
25.0
 10
8.404178195529514
 20
8.68276596069336
 10
8.404178195529514
 20
8.68276596069336
 10
8.404178195529514
 20
8.36321046617296
 10
8.404178195529514
 20
8.36321046617296
 10
8.44352552625868
 20
8.404071384006077
 10
8.483622233072916
 20
8.435363345675999
 10
8.524497985839844
 20
8.457085503472221
 10
8.565359327528212
 20
8.47879367404514
 10
8.615942213270399
 20
8.489654964870876
 10
8.676233927408854
 20
8.489654964870876
 10
8.745706346299913
 20
8.489654964870876
 10
8.806636386447483
 20
8.473182678222656
 10
8.858997768825954
 20
8.440224541558159
 10
8.911372714572481
 20
8.407279968261719
 10
8.951969570583767
 20
8.359488593207464
 10
8.980845133463541
 20
8.296933068169487
 10
9.0096927218967
 20
8.23433600531684
 10
9.024136861165363
 20
8.160127427842882
 10
9.024136861165363
 20
8.074308183458117
 10
9.024136861165363
 20
8.010960896809895
 10
9.016095479329426
 20
7.952849917941623
 10
8.999998304578993
 20
7.899974822998047
 10
8.983914693196613
 20
7.847085740831163
 10
8.96053992377387
 20
7.801238589816623
 10
8.92988755967882
 20
7.762419382731119
 10
8.899235195583767
 20
7.723586188422309
 10
8.862054612901476
 20
7.693572150336371
 10
8.818387349446613
 20
7.672377692328559
 10
8.774692959255642
 20
7.651197221544053
 10
8.726554022894964
 20
7.64058600531684
 10
8.673929002549913
 20
7.64058600531684
 10
8.641762627495659
 20
7.64058600531684
 10
8.611484951443142
 20
7.644405364990234
 10
8.583123101128471
 20
7.652072058783637
 10
8.55477566189236
 20
7.65973875257704
 10
8.530637105305988
 20
7.669808281792534
 10
8.510706583658854
 20
7.682349734836154
 10
8.490776062011719
 20
7.694849650065104
 10
8.473789638943142
 20
7.707752651638454
 10
8.459748162163628
 20
7.721044328477647
 10
8.4456787109375
 20
7.734322018093533
 10
8.427179124620226
 20
7.754252539740668
 10
8.404179043240017
 20
7.780821906195746
 10
8.404179043240017
 20
7.780821906195746
 10
8.404179043240017
 20
7.760141160753038
 10
8.404179043240017
 20
7.760141160753038
 10
8.404179043240017
 20
7.720793830023871
 10
8.394720289442274
 20
7.691029866536458
 10
8.375831604003906
 20
7.67084969414605
 10
8.356928507486979
 20
7.650683085123697
 10
8.332914564344618
 20
7.64058600531684
 10
8.303789774576822
 20
7.64058600531684
 10
8.274151272243923
 20
7.64058600531684
 10
8.250525580512152
 20
7.650683085123697
 10
8.232900831434462
 20
7.67084969414605
 10
8.215261671278212
 20
7.691030290391709
 10
8.206470065646702
 20
7.720794253879123
 10
8.206470065646702
 20
7.760141160753038
 10
8.206470065646702
 20
7.760141160753038
 10
8.206470065646702
 20
8.673599243164062
 10
8.206470065646702
 20
8.673599243164062
 10
8.206470065646702
 20
8.716002146402994
 10
8.215011596679688
 20
8.748057471381292
 10
8.232137044270832
 20
8.769766065809462
 10
8.249261644151476
 20
8.791474236382378
 10
8.27313741048177
 20
8.802335527208117
 10
8.303789774576822
 20
8.802335527208117
 10
8.335970560709635
 20
8.802335527208117
 10
8.36076185438368
 20
8.791988372802734
 10
8.378137376573351
 20
8.77129406399197
 10
8.395498487684462
 20
8.750585767957899
 10
8.404179043240017
 20
8.72107187906901
 10
8.404179043240017
 20
8.68276638454861
 10
8.404179043240017
 20
8.68276638454861
 10
8.404178195529514
 20
8.68276596069336
 10
8.404178195529514
 20
8.68276596069336
 97
        0
 97
        0
 92
        1
 93
        1
 72
     4
 94
        3
 73
     0
 74
     1
 95
       38
 96
       34
 40
0.0
 40
0.0
 40
0.0
 40
0.0
 40
1.0
 40
1.0
 40
1.0
 40
2.0
 40
2.0
 40
2.0
 40
3.0
 40
3.0
 40
3.0
 40
4.0
 40
4.0
 40
4.0
 40
5.0
 40
5.0
 40
5.0
 40
6.0
 40
6.0
 40
6.0
 40
7.0
 40
7.0
 40
7.0
 40
8.0
 40
8.0
 40
8.0
 40
9.0
 40
9.0
 40
9.0
 40
10.0
 40
10.0
 40
10.0
 40
11.0
 40
11.0
 40
11.0
 40
11.0
 10
8.41415066189236
 20
8.061265733506945
 10
8.41415066189236
 20
7.977987925211588
 10
8.433178371853298
 20
7.913987901475694
 10
8.471233791775173
 20
7.869307200113932
 10
8.509289211697048
 20
7.8245849609375
 10
8.55923377143012
 20
7.802251603868272
 10
8.621053059895832
 20
7.802251603868272
 10
8.67366451687283
 20
7.802251603868272
 10
8.71901109483507
 20
7.825112660725911
 10
8.757080925835503
 20
7.870834774441189
 10
8.795122782389322
 20
7.916542900933159
 10
8.814164055718315
 20
7.982070922851562
 10
8.814164055718315
 20
8.067390441894531
 10
8.814164055718315
 20
8.1225708855523
 10
8.80624728732639
 20
8.170085059271917
 10
8.790400187174479
 20
8.209932115342882
 10
8.774566650390625
 20
8.249779171413845
 10
8.75209469265408
 20
8.28055699666341
 10
8.722969902886284
 20
8.30226559109158
 10
8.693858676486546
 20
8.323973761664496
 10
8.659872266981337
 20
8.334835052490234
 10
8.621053059895832
 20
8.334835052490234
 10
8.581205579969618
 20
8.334835052490234
 10
8.545691596137152
 20
8.323987748887804
 10
8.514525519476996
 20
8.30226559109158
 10
8.483373006184895
 20
8.280557420518663
 10
8.45884535047743
 20
8.249126858181423
 10
8.440956115722656
 20
8.208015441894531
 10
8.42308129204644
 20
8.166890462239582
 10
8.41415066189236
 20
8.11797375149197
 10
8.41415066189236
 20
8.061265309651692
 10
8.41415066189236
 20
8.061265309651692
 10
8.41415066189236
 20
8.061265733506945
 10
8.41415066189236
 20
8.061265733506945
 97
        0
 97
        0
 75
     2
 76
     1
 98
        0
  0
SPLINE
  5
6D
330
55
100
AcDbEntity
  8
Layer 1
370
     0
100
AcDbSpline
210
0.0
220
0.0
230
1.0
 70
    11
 71
     3
 72
   128
 73
   124
 74
     0
 42
0.0000000001
 43
0.0000000001
 12
1.0
 22
0.0
 32
0.0
 13
1.0
 23
0.0
 33
0.0
 40
0.0
 40
0.0
 40
0.0
 40
0.0
 40
1.0
 40
1.0
 40
1.0
 40
2.0
 40
2.0
 40
2.0
 40
3.0
 40
3.0
 40
3.0
 40
4.0
 40
4.0
 40
4.0
 40
5.0
 40
5.0
 40
5.0
 40
6.0
 40
6.0
 40
6.0
 40
7.0
 40
7.0
 40
7.0
 40
8.0
 40
8.0
 40
8.0
 40
9.0
 40
9.0
 40
9.0
 40
10.0
 40
10.0
 40
10.0
 40
11.0
 40
11.0
 40
11.0
 40
12.0
 40
12.0
 40
12.0
 40
13.0
 40
13.0
 40
13.0
 40
14.0
 40
14.0
 40
14.0
 40
15.0
 40
15.0
 40
15.0
 40
16.0
 40
16.0
 40
16.0
 40
17.0
 40
17.0
 40
17.0
 40
18.0
 40
18.0
 40
18.0
 40
19.0
 40
19.0
 40
19.0
 40
20.0
 40
20.0
 40
20.0
 40
21.0
 40
21.0
 40
21.0
 40
22.0
 40
22.0
 40
22.0
 40
23.0
 40
23.0
 40
23.0
 40
24.0
 40
24.0
 40
24.0
 40
25.0
 40
25.0
 40
25.0
 40
26.0
 40
26.0
 40
26.0
 40
27.0
 40
27.0
 40
27.0
 40
28.0
 40
28.0
 40
28.0
 40
29.0
 40
29.0
 40
29.0
 40
30.0
 40
30.0
 40
30.0
 40
31.0
 40
31.0
 40
31.0
 40
32.0
 40
32.0
 40
32.0
 40
33.0
 40
33.0
 40
33.0
 40
34.0
 40
34.0
 40
34.0
 40
35.0
 40
35.0
 40
35.0
 40
36.0
 40
36.0
 40
36.0
 40
37.0
 40
37.0
 40
37.0
 40
38.0
 40
38.0
 40
38.0
 40
39.0
 40
39.0
 40
39.0
 40
40.0
 40
40.0
 40
40.0
 40
41.0
 40
41.0
 40
41.0
 40
41.0
 10
9.865581088595919
 20
7.914126925998263
 30
0.0
 10
9.865581088595919
 20
7.856390635172525
 30
0.0
 10
9.851525200737846
 20
7.806960211859809
 30
0.0
 10
9.823428683810763
 20
7.765835232204861
 30
0.0
 10
9.795345730251736
 20
7.724710252549913
 30
0.0
 10
9.753817240397135
 20
7.693543752034505
 30
0.0
 10
9.698900858561197
 20
7.672349294026692
 30
0.0
 10
9.64398447672526
 20
7.651168823242188
 30
0.0
 10
9.577178955078125
 20
7.640557607014974
 30
0.0
 10
9.498497856987846
 20
7.640557607014974
 30
0.0
 10
9.423414442274305
 20
7.640557607014974
 30
0.0
 10
9.359039306640625
 20
7.652043660481771
 30
0.0
 10
9.305386861165363
 20
7.675029754638672
 30
0.0
 10
9.251761542426214
 20
7.698015848795572
 30
0.0
 10
9.212150573730469
 20
7.726765950520833
 30
0.0
 10
9.186609056260851
 20
7.761238098144531
 30
0.0
 10
9.161053127712673
 20
7.795724232991536
 30
0.0
 10
9.148289998372395
 20
7.830335405137803
 30
0.0
 10
9.148289998372395
 20
7.865085177951388
 30
0.0
 10
9.148289998372395
 20
7.88807127210829
 30
0.0
 10
9.156456841362846
 20
7.907738155788845
 30
0.0
 10
9.17281765407986
 20
7.924084981282552
 30
0.0
 10
9.18916490342882
 20
7.940446217854817
 30
0.0
 10
9.209859212239582
 20
7.948612636990017
 30
0.0
 10
9.234887017144096
 20
7.948612636990017
 30
0.0
 10
9.256858825683594
 20
7.948612636990017
 30
0.0
 10
9.273720635308159
 20
7.943251715766059
 30
0.0
 10
9.285484313964844
 20
7.932529449462891
 30
0.0
 10
9.297234429253471
 20
7.921807183159721
 30
0.0
 10
9.308456420898438
 20
7.906737857394748
 30
0.0
 10
9.319206237792969
 20
7.887307061089409
 30
0.0
 10
9.34066433376736
 20
7.850015428331163
 30
0.0
 10
9.366331312391493
 20
7.822182125515408
 30
0.0
 10
9.396219889322916
 20
7.803779178195529
 30
0.0
 10
9.426094902886284
 20
7.785390218098958
 30
0.0
 10
9.466845194498697
 20
7.776195949978298
 30
0.0
 10
9.518456353081596
 20
7.776195949978298
 30
0.0
 10
9.560345119900173
 20
7.776195949978298
 30
0.0
 10
9.59469265407986
 20
7.78551525539822
 30
0.0
 10
9.62152608235677
 20
7.804168277316623
 30
0.0
 10
9.648345947265625
 20
7.822820875379774
 30
0.0
 10
9.66174825032552
 20
7.844140370686849
 30
0.0
 10
9.66174825032552
 20
7.868154313829209
 30
0.0
 10
9.66174825032552
 20
7.904932234022352
 30
0.0
 10
9.647817823621962
 20
7.93176523844401
 30
0.0
 10
9.619984096950954
 20
7.948612636990017
 30
0.0
 10
9.592123243543837
 20
7.965487586127387
 30
0.0
 10
9.546275668674044
 20
7.981570773654513
 30
0.0
 10
9.482428656684027
 20
7.996904161241319
 30
0.0
 10
9.410386827256945
 20
8.014778984917534
 30
0.0
 10
9.351776123046875
 20
8.033557044135199
 30
0.0
 10
9.306553310818142
 20
8.053237491183811
 30
0.0
 10
9.261344909667969
 20
8.072890387641058
 30
0.0
 10
9.225206163194445
 20
8.09882100423177
 30
0.0
 10
9.198109096950954
 20
8.131029340955946
 30
0.0
 10
9.17104000515408
 20
8.163196139865452
 30
0.0
 10
9.15749782986111
 20
8.20279312133789
 30
0.0
 10
9.15749782986111
 20
8.24980714586046
 30
0.0
 10
9.15749782986111
 20
8.291695912679035
 30
0.0
 10
9.170011732313368
 20
8.331293318006727
 30
0.0
 10
9.195039537217882
 20
8.368584950764973
 30
0.0
 10
9.22008090549045
 20
8.405890570746527
 30
0.0
 10
9.256984286838106
 20
8.435640547010633
 30
0.0
 10
9.305789523654513
 20
8.457876417371962
 30
0.0
 10
9.354567633734808
 20
8.480098724365234
 30
0.0
 10
9.413456386990017
 20
8.491209665934244
 30
0.0
 10
9.482428656684027
 20
8.491209665934244
 30
0.0
 10
9.536567687988281
 20
8.491209665934244
 30
0.0
 10
9.585233900282118
 20
8.485584682888454
 30
0.0
 10
9.628414577907986
 20
8.474348704020182
 30
0.0
 10
9.671580844455294
 20
8.463098737928602
 30
0.0
 10
9.707594977484808
 20
8.448029412163628
 30
0.0
 10
9.736470540364582
 20
8.429140302870008
 30
0.0
 10
9.765318128797743
 20
8.410237630208332
 30
0.0
 10
9.787289937337238
 20
8.389293246799046
 30
0.0
 10
9.80237325032552
 20
8.366307152642143
 30
0.0
 10
9.817428588867188
 20
8.343321058485243
 30
0.0
 10
9.824984232584635
 20
8.32083511352539
 30
0.0
 10
9.824984232584635
 20
8.298876444498697
 30
0.0
 10
9.824984232584635
 20
8.274862501356337
 30
0.0
 10
9.816928439670138
 20
8.255182054307726
 30
0.0
 10
9.800845675998263
 20
8.239862653944227
 30
0.0
 10
9.78474850124783
 20
8.224529266357422
 30
0.0
 10
9.761873033311632
 20
8.216890547010633
 30
0.0
 10
9.732262505425346
 20
8.216890547010633
 30
0.0
 10
9.710804409450954
 20
8.216890547010633
 30
0.0
 10
9.692540486653645
 20
8.223015679253471
 30
0.0
 10
9.677470737033419
 20
8.235279507107204
 30
0.0
 10
9.662400987413195
 20
8.247543334960938
 30
0.0
 10
9.645165337456596
 20
8.265932295057508
 30
0.0
 10
9.625748528374565
 20
8.290459950764973
 30
0.0
 10
9.609901428222656
 20
8.310890621609158
 30
0.0
 10
9.591262817382812
 20
8.327237870958117
 30
0.0
 10
9.569803873697916
 20
8.339501698811848
 30
0.0
 10
9.548345777723524
 20
8.35176552666558
 30
0.0
 10
9.519220140245226
 20
8.35789065890842
 30
0.0
 10
9.482443067762587
 20
8.35789065890842
 30
0.0
 10
9.444623311360676
 20
8.35789065890842
 30
0.0
 10
9.413220723470051
 20
8.349835289849175
 30
0.0
 10
9.388179355197481
 20
8.333751678466797
 30
0.0
 10
9.363151550292969
 20
8.317654503716362
 30
0.0
 10
9.350637647840712
 20
8.297598944769964
 30
0.0
 10
9.350637647840712
 20
8.273585001627604
 30
0.0
 10
9.350637647840712
 20
8.251626756456163
 30
0.0
 10
9.35983191596137
 20
8.233612908257378
 30
0.0
 10
9.378221299913195
 20
8.219557020399305
 30
0.0
 10
9.396609836154513
 20
8.205501556396484
 30
0.0
 10
9.421387566460503
 20
8.193876478407118
 30
0.0
 10
9.452554490831163
 20
8.184682210286457
 30
0.0
 10
9.483721415201822
 20
8.175487942165798
 30
0.0
 10
9.526637607150606
 20
8.164251539442274
 30
0.0
 10
9.581304762098524
 20
8.15095986260308
 30
0.0
 10
9.646193610297308
 20
8.135126325819227
 30
0.0
 10
9.699193318684895
 20
8.116223653157551
 30
0.0
 10
9.740318298339844
 20
8.09426540798611
 30
0.0
 10
9.781443277994791
 20
8.072293175591362
 30
0.0
 10
9.81261020236545
 20
8.04636255900065
 30
0.0
 10
9.833804660373263
 20
8.016473558213976
 30
0.0
 10
9.854971143934462
 20
7.98654301961263
 30
0.0
 10
9.865582784016926
 20
7.952445983886719
 30
0.0
 10
9.865582784016926
 20
7.914126502143012
 30
0.0
 10
9.865582784016926
 20
7.914126502143012
 30
0.0
 10
9.865581088595919
 20
7.914126925998263
 30
0.0
 10
9.865581088595919
 20
7.914126925998263
 30
0.0
  0
HATCH
  5
6E
330
55
100
AcDbEntity
  8
Layer 1
 62
    30
100
AcDbHatch
 10
0.0
 20
0.0
 30
0.0
210
0.0
220
0.0
230
1.0
  2
SOLID
 70
     1
 71
     0
 91
        1
 92
        1
 93
        1
 72
     4
 94
        3
 73
     0
 74
     1
 95
      128
 96
      124
 40
0.0
 40
0.0
 40
0.0
 40
0.0
 40
1.0
 40
1.0
 40
1.0
 40
2.0
 40
2.0
 40
2.0
 40
3.0
 40
3.0
 40
3.0
 40
4.0
 40
4.0
 40
4.0
 40
5.0
 40
5.0
 40
5.0
 40
6.0
 40
6.0
 40
6.0
 40
7.0
 40
7.0
 40
7.0
 40
8.0
 40
8.0
 40
8.0
 40
9.0
 40
9.0
 40
9.0
 40
10.0
 40
10.0
 40
10.0
 40
11.0
 40
11.0
 40
11.0
 40
12.0
 40
12.0
 40
12.0
 40
13.0
 40
13.0
 40
13.0
 40
14.0
 40
14.0
 40
14.0
 40
15.0
 40
15.0
 40
15.0
 40
16.0
 40
16.0
 40
16.0
 40
17.0
 40
17.0
 40
17.0
 40
18.0
 40
18.0
 40
18.0
 40
19.0
 40
19.0
 40
19.0
 40
20.0
 40
20.0
 40
20.0
 40
21.0
 40
21.0
 40
21.0
 40
22.0
 40
22.0
 40
22.0
 40
23.0
 40
23.0
 40
23.0
 40
24.0
 40
24.0
 40
24.0
 40
25.0
 40
25.0
 40
25.0
 40
26.0
 40
26.0
 40
26.0
 40
27.0
 40
27.0
 40
27.0
 40
28.0
 40
28.0
 40
28.0
 40
29.0
 40
29.0
 40
29.0
 40
30.0
 40
30.0
 40
30.0
 40
31.0
 40
31.0
 40
31.0
 40
32.0
 40
32.0
 40
32.0
 40
33.0
 40
33.0
 40
33.0
 40
34.0
 40
34.0
 40
34.0
 40
35.0
 40
35.0
 40
35.0
 40
36.0
 40
36.0
 40
36.0
 40
37.0
 40
37.0
 40
37.0
 40
38.0
 40
38.0
 40
38.0
 40
39.0
 40
39.0
 40
39.0
 40
40.0
 40
40.0
 40
40.0
 40
41.0
 40
41.0
 40
41.0
 40
41.0
 10
9.865581088595919
 20
7.914126925998263
 10
9.865581088595919
 20
7.856390635172525
 10
9.851525200737846
 20
7.806960211859809
 10
9.823428683810763
 20
7.765835232204861
 10
9.795345730251736
 20
7.724710252549913
 10
9.753817240397135
 20
7.693543752034505
 10
9.698900858561197
 20
7.672349294026692
 10
9.64398447672526
 20
7.651168823242188
 10
9.577178955078125
 20
7.640557607014974
 10
9.498497856987846
 20
7.640557607014974
 10
9.423414442274305
 20
7.640557607014974
 10
9.359039306640625
 20
7.652043660481771
 10
9.305386861165363
 20
7.675029754638672
 10
9.251761542426214
 20
7.698015848795572
 10
9.212150573730469
 20
7.726765950520833
 10
9.186609056260851
 20
7.761238098144531
 10
9.161053127712673
 20
7.795724232991536
 10
9.148289998372395
 20
7.830335405137803
 10
9.148289998372395
 20
7.865085177951388
 10
9.148289998372395
 20
7.88807127210829
 10
9.156456841362846
 20
7.907738155788845
 10
9.17281765407986
 20
7.924084981282552
 10
9.18916490342882
 20
7.940446217854817
 10
9.209859212239582
 20
7.948612636990017
 10
9.234887017144096
 20
7.948612636990017
 10
9.256858825683594
 20
7.948612636990017
 10
9.273720635308159
 20
7.943251715766059
 10
9.285484313964844
 20
7.932529449462891
 10
9.297234429253471
 20
7.921807183159721
 10
9.308456420898438
 20
7.906737857394748
 10
9.319206237792969
 20
7.887307061089409
 10
9.34066433376736
 20
7.850015428331163
 10
9.366331312391493
 20
7.822182125515408
 10
9.396219889322916
 20
7.803779178195529
 10
9.426094902886284
 20
7.785390218098958
 10
9.466845194498697
 20
7.776195949978298
 10
9.518456353081596
 20
7.776195949978298
 10
9.560345119900173
 20
7.776195949978298
 10
9.59469265407986
 20
7.78551525539822
 10
9.62152608235677
 20
7.804168277316623
 10
9.648345947265625
 20
7.822820875379774
 10
9.66174825032552
 20
7.844140370686849
 10
9.66174825032552
 20
7.868154313829209
 10
9.66174825032552
 20
7.904932234022352
 10
9.647817823621962
 20
7.93176523844401
 10
9.619984096950954
 20
7.948612636990017
 10
9.592123243543837
 20
7.965487586127387
 10
9.546275668674044
 20
7.981570773654513
 10
9.482428656684027
 20
7.996904161241319
 10
9.410386827256945
 20
8.014778984917534
 10
9.351776123046875
 20
8.033557044135199
 10
9.306553310818142
 20
8.053237491183811
 10
9.261344909667969
 20
8.072890387641058
 10
9.225206163194445
 20
8.09882100423177
 10
9.198109096950954
 20
8.131029340955946
 10
9.17104000515408
 20
8.163196139865452
 10
9.15749782986111
 20
8.20279312133789
 10
9.15749782986111
 20
8.24980714586046
 10
9.15749782986111
 20
8.291695912679035
 10
9.170011732313368
 20
8.331293318006727
 10
9.195039537217882
 20
8.368584950764973
 10
9.22008090549045
 20
8.405890570746527
 10
9.256984286838106
 20
8.435640547010633
 10
9.305789523654513
 20
8.457876417371962
 10
9.354567633734808
 20
8.480098724365234
 10
9.413456386990017
 20
8.491209665934244
 10
9.482428656684027
 20
8.491209665934244
 10
9.536567687988281
 20
8.491209665934244
 10
9.585233900282118
 20
8.485584682888454
 10
9.628414577907986
 20
8.474348704020182
 10
9.671580844455294
 20
8.463098737928602
 10
9.707594977484808
 20
8.448029412163628
 10
9.736470540364582
 20
8.429140302870008
 10
9.765318128797743
 20
8.410237630208332
 10
9.787289937337238
 20
8.389293246799046
 10
9.80237325032552
 20
8.366307152642143
 10
9.817428588867188
 20
8.343321058485243
 10
9.824984232584635
 20
8.32083511352539
 10
9.824984232584635
 20
8.298876444498697
 10
9.824984232584635
 20
8.274862501356337
 10
9.816928439670138
 20
8.255182054307726
 10
9.800845675998263
 20
8.239862653944227
 10
9.78474850124783
 20
8.224529266357422
 10
9.761873033311632
 20
8.216890547010633
 10
9.732262505425346
 20
8.216890547010633
 10
9.710804409450954
 20
8.216890547010633
 10
9.692540486653645
 20
8.223015679253471
 10
9.677470737033419
 20
8.235279507107204
 10
9.662400987413195
 20
8.247543334960938
 10
9.645165337456596
 20
8.265932295057508
 10
9.625748528374565
 20
8.290459950764973
 10
9.609901428222656
 20
8.310890621609158
 10
9.591262817382812
 20
8.327237870958117
 10
9.569803873697916
 20
8.339501698811848
 10
9.548345777723524
 20
8.35176552666558
 10
9.519220140245226
 20
8.35789065890842
 10
9.482443067762587
 20
8.35789065890842
 10
9.444623311360676
 20
8.35789065890842
 10
9.413220723470051
 20
8.349835289849175
 10
9.388179355197481
 20
8.333751678466797
 10
9.363151550292969
 20
8.317654503716362
 10
9.350637647840712
 20
8.297598944769964
 10
9.350637647840712
 20
8.273585001627604
 10
9.350637647840712
 20
8.251626756456163
 10
9.35983191596137
 20
8.233612908257378
 10
9.378221299913195
 20
8.219557020399305
 10
9.396609836154513
 20
8.205501556396484
 10
9.421387566460503
 20
8.193876478407118
 10
9.452554490831163
 20
8.184682210286457
 10
9.483721415201822
 20
8.175487942165798
 10
9.526637607150606
 20
8.164251539442274
 10
9.581304762098524
 20
8.15095986260308
 10
9.646193610297308
 20
8.135126325819227
 10
9.699193318684895
 20
8.116223653157551
 10
9.740318298339844
 20
8.09426540798611
 10
9.781443277994791
 20
8.072293175591362
 10
9.81261020236545
 20
8.04636255900065
 10
9.833804660373263
 20
8.016473558213976
 10
9.854971143934462
 20
7.98654301961263
 10
9.865582784016926
 20
7.952445983886719
 10
9.865582784016926
 20
7.914126502143012
 10
9.865582784016926
 20
7.914126502143012
 10
9.865581088595919
 20
7.914126925998263
 10
9.865581088595919
 20
7.914126925998263
 97
        0
 97
        0
 75
     2
 76
     1
 98
        0
  0
INSERT
  5
70
330
55
100
AcDbEntity
  8
Layer 1
100
AcDbBlockReference
  2
block 8
 10
0.0
 20
0.0
 30
0.0
  0
ENDBLK
  5
58
330
55
100
AcDbEntity
  8
0
100
AcDbBlockEnd
  0
BLOCK
  5
71
330
6F
100
AcDbEntity
  8
0
100
AcDbBlockBegin
  2
block 8
 70
     0
 10
0.0
 20
0.0
 30
0.0
  3
block 8
  1

  0
POLYLINE
  5
73
330
6F
100
AcDbEntity
  8
Layer 1
370
     0
100
AcDb2dPolyline
 66
     1
 10
0.0
 20
0.0
 30
0.0
  0
VERTEX
  5
74
330
73
100
AcDbEntity
  8
Layer 1
370
     0
100
AcDbVertex
100
AcDb2dVertex
 10
4.834789699978298
 20
9.13083521525065
 30
0.0
  0
VERTEX
  5
91
330
73
100
AcDbEntity
  8
0
100
AcDbVertex
100
AcDb2dVertex
 10
4.834789699978298
 20
9.13083521525065
 30
0.0
  0
SEQEND
  5
75
330
73
100
AcDbEntity
  8
Layer 1
370
     0
  0
POLYLINE
  5
76
330
6F
100
AcDbEntity
  8
Layer 1
370
     0
100
AcDb2dPolyline
 66
     1
 10
0.0
 20
0.0
 30
0.0
  0
VERTEX
  5
77
330
76
100
AcDbEntity
  8
Layer 1
370
     0
100
AcDbVertex
100
AcDb2dVertex
 10
4.840192582872178
 20
7.794960445827908
 30
0.0
  0
VERTEX
  5
92
330
76
100
AcDbEntity
  8
0
100
AcDbVertex
100
AcDb2dVertex
 10
4.840192582872178
 20
7.794960445827908
 30
0.0
  0
SEQEND
  5
78
330
76
100
AcDbEntity
  8
Layer 1
370
     0
  0
INSERT
  5
7A
330
6F
100
AcDbEntity
  8
Layer 1
100
AcDbBlockReference
  2
block 9
 10
0.0
 20
0.0
 30
0.0
  0
INSERT
  5
84
330
6F
100
AcDbEntity
  8
Layer 1
100
AcDbBlockReference
  2
block 11
 10
0.0
 20
0.0
 30
0.0
  0
INSERT
  5
8A
330
6F
100
AcDbEntity
  8
Layer 1
100
AcDbBlockReference
  2
block 12
 10
0.0
 20
0.0
 30
0.0
  0
ENDBLK
  5
72
330
6F
100
AcDbEntity
  8
0
100
AcDbBlockEnd
  0
BLOCK
  5
7B
330
79
100
AcDbEntity
  8
0
100
AcDbBlockBegin
  2
block 9
 70
     0
 10
0.0
 20
0.0
 30
0.0
  3
block 9
  1

  0
INSERT
  5
7E
330
79
100
AcDbEntity
  8
Layer 1
100
AcDbBlockReference
  2
block 10
 10
0.0
 20
0.0
 30
0.0
  0
ENDBLK
  5
7C
330
79
100
AcDbEntity
  8
0
100
AcDbBlockEnd
  0
BLOCK
  5
7F
330
7D
100
AcDbEntity
  8
0
100
AcDbBlockBegin
  2
block 10
 70
     0
 10
0.0
 20
0.0
 30
0.0
  3
block 10
  1

  0
SPLINE
  5
81
330
7D
100
AcDbEntity
  8
Layer 1
370
     0
100
AcDbSpline
210
0.0
220
0.0
230
1.0
 70
    11
 71
     3
 72
    47
 73
    43
 74
     0
 42
0.0000000001
 43
0.0000000001
 12
1.0
 22
0.0
 32
0.0
 13
1.0
 23
0.0
 33
0.0
 40
0.0
 40
0.0
 40
0.0
 40
0.0
 40
1.0
 40
1.0
 40
1.0
 40
2.0
 40
2.0
 40
2.0
 40
3.0
 40
3.0
 40
3.0
 40
4.0
 40
4.0
 40
4.0
 40
5.0
 40
5.0
 40
5.0
 40
6.0
 40
6.0
 40
6.0
 40
7.0
 40
7.0
 40
7.0
 40
8.0
 40
8.0
 40
8.0
 40
9.0
 40
9.0
 40
9.0
 40
10.0
 40
10.0
 40
10.0
 40
11.0
 40
11.0
 40
11.0
 40
12.0
 40
12.0
 40
12.0
 40
13.0
 40
13.0
 40
13.0
 40
14.0
 40
14.0
 40
14.0
 40
14.0
 10
4.712303492758009
 20
7.978599336412217
 30
0.0
 10
4.704664773411221
 20
7.978599336412217
 30
0.0
 10
4.697025630209181
 20
7.978599336412217
 30
0.0
 10
4.683289753066169
 20
7.978599336412217
 30
0.0
 10
4.683289753066169
 20
8.011571884155273
 30
0.0
 10
4.683289753066169
 20
8.043183008829752
 30
0.0
 10
4.683289753066169
 20
8.076169119940863
 30
0.0
 10
4.686345325575934
 20
8.203975041707356
 30
0.0
 10
4.63591460386912
 20
8.31666882832845
 30
0.0
 10
4.561067700386047
 20
8.422502093844944
 30
0.0
 10
4.461762229601542
 20
8.566821416219074
 30
0.0
 10
4.451067513889736
 20
8.716613133748371
 30
0.0
 10
4.541206691000196
 20
8.866418838500977
 30
0.0
 10
4.611484434869554
 20
8.98323843214247
 30
0.0
 10
4.722998208469814
 20
9.050585640801323
 30
0.0
 10
4.874262399143642
 20
9.047835667928059
 30
0.0
 10
4.993428879313998
 20
9.045085695054796
 30
0.0
 10
5.088151203261481
 20
8.990113364325628
 30
0.0
 10
5.159956945313348
 20
8.9062803056505
 30
0.0
 10
5.280637436442905
 20
8.763349533081055
 30
0.0
 10
5.285221007135179
 20
8.56132231818305
 30
0.0
 10
5.16454009215037
 20
8.411516613430447
 30
0.0
 10
5.103429065810309
 20
8.334544499715168
 30
0.0
 10
5.063693059815301
 20
8.250711017184788
 30
0.0
 10
5.037734468777974
 20
8.161377588907877
 30
0.0
 10
5.023984604411655
 20
8.116016599867079
 30
0.0
 10
5.029109438260396
 20
8.06582196553548
 30
0.0
 10
5.023984604411655
 20
8.018446816338432
 30
0.0
 10
5.022457030084397
 20
8.004710515340168
 30
0.0
 10
5.023345854547288
 20
7.992502636379665
 30
0.0
 10
5.021706806288825
 20
7.978363672892252
 30
0.0
 10
5.007970505290561
 20
7.978363672892252
 30
0.0
 10
4.98579015996721
 20
7.978600184122721
 30
0.0
 10
4.972026308377584
 20
7.978600184122721
 30
0.0
 10
4.886484689182705
 20
7.978600184122721
 30
0.0
 10
4.799387521213955
 20
7.978600184122721
 30
0.0
 10
4.71230391661326
 20
7.978600184122721
 30
0.0
 10
4.71230391661326
 20
7.978600184122721
 30
0.0
 10
4.71230391661326
 20
7.978600184122721
 30
0.0
 10
4.71230391661326
 20
7.978600184122721
 30
0.0
 10
4.71230391661326
 20
7.978600184122721
 30
0.0
 10
4.712303492758009
 20
7.978599336412217
 30
0.0
 10
4.712303492758009
 20
7.978599336412217
 30
0.0
  0
HATCH
  5
82
330
7D
100
AcDbEntity
  8
Layer 1
 62
    30
100
AcDbHatch
 10
0.0
 20
0.0
 30
0.0
210
0.0
220
0.0
230
1.0
  2
SOLID
 70
     1
 71
     0
 91
        1
 92
        1
 93
        1
 72
     4
 94
        3
 73
     0
 74
     1
 95
       47
 96
       43
 40
0.0
 40
0.0
 40
0.0
 40
0.0
 40
1.0
 40
1.0
 40
1.0
 40
2.0
 40
2.0
 40
2.0
 40
3.0
 40
3.0
 40
3.0
 40
4.0
 40
4.0
 40
4.0
 40
5.0
 40
5.0
 40
5.0
 40
6.0
 40
6.0
 40
6.0
 40
7.0
 40
7.0
 40
7.0
 40
8.0
 40
8.0
 40
8.0
 40
9.0
 40
9.0
 40
9.0
 40
10.0
 40
10.0
 40
10.0
 40
11.0
 40
11.0
 40
11.0
 40
12.0
 40
12.0
 40
12.0
 40
13.0
 40
13.0
 40
13.0
 40
14.0
 40
14.0
 40
14.0
 40
14.0
 10
4.712303492758009
 20
7.978599336412217
 10
4.704664773411221
 20
7.978599336412217
 10
4.697025630209181
 20
7.978599336412217
 10
4.683289753066169
 20
7.978599336412217
 10
4.683289753066169
 20
8.011571884155273
 10
4.683289753066169
 20
8.043183008829752
 10
4.683289753066169
 20
8.076169119940863
 10
4.686345325575934
 20
8.203975041707356
 10
4.63591460386912
 20
8.31666882832845
 10
4.561067700386047
 20
8.422502093844944
 10
4.461762229601542
 20
8.566821416219074
 10
4.451067513889736
 20
8.716613133748371
 10
4.541206691000196
 20
8.866418838500977
 10
4.611484434869554
 20
8.98323843214247
 10
4.722998208469814
 20
9.050585640801323
 10
4.874262399143642
 20
9.047835667928059
 10
4.993428879313998
 20
9.045085695054796
 10
5.088151203261481
 20
8.990113364325628
 10
5.159956945313348
 20
8.9062803056505
 10
5.280637436442905
 20
8.763349533081055
 10
5.285221007135179
 20
8.56132231818305
 10
5.16454009215037
 20
8.411516613430447
 10
5.103429065810309
 20
8.334544499715168
 10
5.063693059815301
 20
8.250711017184788
 10
5.037734468777974
 20
8.161377588907877
 10
5.023984604411655
 20
8.116016599867079
 10
5.029109438260396
 20
8.06582196553548
 10
5.023984604411655
 20
8.018446816338432
 10
5.022457030084397
 20
8.004710515340168
 10
5.023345854547288
 20
7.992502636379665
 10
5.021706806288825
 20
7.978363672892252
 10
5.007970505290561
 20
7.978363672892252
 10
4.98579015996721
 20
7.978600184122721
 10
4.972026308377584
 20
7.978600184122721
 10
4.886484689182705
 20
7.978600184122721
 10
4.799387521213955
 20
7.978600184122721
 10
4.71230391661326
 20
7.978600184122721
 10
4.71230391661326
 20
7.978600184122721
 10
4.71230391661326
 20
7.978600184122721
 10
4.71230391661326
 20
7.978600184122721
 10
4.71230391661326
 20
7.978600184122721
 10
4.712303492758009
 20
7.978599336412217
 10
4.712303492758009
 20
7.978599336412217
 97
        0
 97
        0
 75
     2
 76
     1
 98
        0
  0
ENDBLK
  5
80
330
7D
100
AcDbEntity
  8
0
100
AcDbBlockEnd
  0
BLOCK
  5
85
330
83
100
AcDbEntity
  8
0
100
AcDbBlockBegin
  2
block 11
 70
     0
 10
0.0
 20
0.0
 30
0.0
  3
block 11
  1

  0
SPLINE
  5
87
330
83
100
AcDbEntity
  8
Layer 1
370
     0
100
AcDbSpline
210
0.0
220
0.0
230
1.0
 70
    11
 71
     3
 72
    17
 73
    13
 74
     0
 42
0.0000000001
 43
0.0000000001
 12
1.0
 22
0.0
 32
0.0
 13
1.0
 23
0.0
 33
0.0
 40
0.0
 40
0.0
 40
0.0
 40
0.0
 40
1.0
 40
1.0
 40
1.0
 40
2.0
 40
2.0
 40
2.0
 40
3.0
 40
3.0
 40
3.0
 40
4.0
 40
4.0
 40
4.0
 40
4.0
 10
4.738400684462653
 20
7.679335488213432
 30
0.0
 10
4.759539617432488
 20
7.641321606106228
 30
0.0
 10
4.802803370687696
 20
7.615196863810221
 30
0.0
 10
4.852872967720032
 20
7.615196863810221
 30
0.0
 10
4.9186366531584
 20
7.615196863810221
 30
0.0
 10
4.97274813387129
 20
7.660183164808485
 30
0.0
 10
4.980234265327454
 20
7.718141131930881
 30
0.0
 10
4.980234265327454
 20
7.718141131930881
 30
0.0
 10
4.738401108317905
 20
7.679335488213432
 30
0.0
 10
4.738401108317905
 20
7.679335488213432
 30
0.0
 10
4.738401108317905
 20
7.679335488213432
 30
0.0
 10
4.738400684462653
 20
7.679335488213432
 30
0.0
 10
4.738400684462653
 20
7.679335488213432
 30
0.0
  0
HATCH
  5
88
330
83
100
AcDbEntity
  8
Layer 1
 62
    30
100
AcDbHatch
 10
0.0
 20
0.0
 30
0.0
210
0.0
220
0.0
230
1.0
  2
SOLID
 70
     1
 71
     0
 91
        1
 92
        1
 93
        1
 72
     4
 94
        3
 73
     0
 74
     1
 95
       17
 96
       13
 40
0.0
 40
0.0
 40
0.0
 40
0.0
 40
1.0
 40
1.0
 40
1.0
 40
2.0
 40
2.0
 40
2.0
 40
3.0
 40
3.0
 40
3.0
 40
4.0
 40
4.0
 40
4.0
 40
4.0
 10
4.738400684462653
 20
7.679335488213432
 10
4.759539617432488
 20
7.641321606106228
 10
4.802803370687696
 20
7.615196863810221
 10
4.852872967720032
 20
7.615196863810221
 10
4.9186366531584
 20
7.615196863810221
 10
4.97274813387129
 20
7.660183164808485
 10
4.980234265327454
 20
7.718141131930881
 10
4.980234265327454
 20
7.718141131930881
 10
4.738401108317905
 20
7.679335488213432
 10
4.738401108317905
 20
7.679335488213432
 10
4.738401108317905
 20
7.679335488213432
 10
4.738400684462653
 20
7.679335488213432
 10
4.738400684462653
 20
7.679335488213432
 97
        0
 97
        0
 75
     2
 76
     1
 98
        0
  0
ENDBLK
  5
86
330
83
100
AcDbEntity
  8
0
100
AcDbBlockEnd
  0
BLOCK
  5
8B
330
89
100
AcDbEntity
  8
0
100
AcDbBlockBegin
  2
block 12
 70
     0
 10
0.0
 20
0.0
 30
0.0
  3
block 12
  1

  0
SPLINE
  5
8D
330
89
100
AcDbEntity
  8
Layer 1
370
     0
100
AcDbSpline
210
0.0
220
0.0
230
1.0
 70
    11
 71
     3
 72
    26
 73
    22
 74
     0
 42
0.0000000001
 43
0.0000000001
 12
1.0
 22
0.0
 32
0.0
 13
1.0
 23
0.0
 33
0.0
 40
0.0
 40
0.0
 40
0.0
 40
0.0
 40
1.0
 40
1.0
 40
1.0
 40
2.0
 40
2.0
 40
2.0
 40
3.0
 40
3.0
 40
3.0
 40
4.0
 40
4.0
 40
4.0
 40
5.0
 40
5.0
 40
5.0
 40
6.0
 40
6.0
 40
6.0
 40
7.0
 40
7.0
 40
7.0
 40
7.0
 10
4.702011863390604
 20
7.900988048977322
 30
0.0
 10
4.677817357911004
 20
7.896238327026367
 30
0.0
 10
4.659289797147115
 20
7.87741830613878
 30
0.0
 10
4.660678346951802
 20
7.85965453253852
 30
0.0
 10
4.662081307835049
 20
7.841918733384873
 30
0.0
 10
4.682358966933356
 20
7.831793679131401
 30
0.0
 10
4.705914298693338
 20
7.836668014526367
 30
0.0
 10
4.803650233480665
 20
7.856779098510742
 30
0.0
 10
4.90265052848392
 20
7.87089008755154
 30
0.0
 10
5.002192086643642
 20
7.87794558207194
 30
0.0
 10
5.026553167237176
 20
7.879695256551106
 30
0.0
 10
5.047678112983704
 20
7.894640392727322
 30
0.0
 10
5.049025548828973
 20
7.91169548034668
 30
0.0
 10
5.05037256081899
 20
7.92875141567654
 30
0.0
 10
5.03095617559221
 20
7.941903644137912
 30
0.0
 10
5.005969908502366
 20
7.94034809536404
 30
0.0
 10
4.903914464844598
 20
7.934014850192599
 30
0.0
 10
4.802344759305318
 20
7.9206116994222
 30
0.0
 10
4.702011439535353
 20
7.900987201266818
 30
0.0
 10
4.702011439535353
 20
7.900987201266818
 30
0.0
 10
4.702011863390604
 20
7.900988048977322
 30
0.0
 10
4.702011863390604
 20
7.900988048977322
 30
0.0
  0
HATCH
  5
8E
330
89
100
AcDbEntity
  8
Layer 1
 62
    30
100
AcDbHatch
 10
0.0
 20
0.0
 30
0.0
210
0.0
220
0.0
230
1.0
  2
SOLID
 70
     1
 71
     0
 91
        1
 92
        1
 93
        1
 72
     4
 94
        3
 73
     0
 74
     1
 95
       26
 96
       22
 40
0.0
 40
0.0
 40
0.0
 40
0.0
 40
1.0
 40
1.0
 40
1.0
 40
2.0
 40
2.0
 40
2.0
 40
3.0
 40
3.0
 40
3.0
 40
4.0
 40
4.0
 40
4.0
 40
5.0
 40
5.0
 40
5.0
 40
6.0
 40
6.0
 40
6.0
 40
7.0
 40
7.0
 40
7.0
 40
7.0
 10
4.702011863390604
 20
7.900988048977322
 10
4.677817357911004
 20
7.896238327026367
 10
4.659289797147115
 20
7.87741830613878
 10
4.660678346951802
 20
7.85965453253852
 10
4.662081307835049
 20
7.841918733384873
 10
4.682358966933356
 20
7.831793679131401
 10
4.705914298693338
 20
7.836668014526367
 10
4.803650233480665
 20
7.856779098510742
 10
4.90265052848392
 20
7.87089008755154
 10
5.002192086643642
 20
7.87794558207194
 10
5.026553167237176
 20
7.879695256551106
 10
5.047678112983704
 20
7.894640392727322
 10
5.049025548828973
 20
7.91169548034668
 10
5.05037256081899
 20
7.92875141567654
 10
5.03095617559221
 20
7.941903644137912
 10
5.005969908502366
 20
7.94034809536404
 10
4.903914464844598
 20
7.934014850192599
 10
4.802344759305318
 20
7.9206116994222
 10
4.702011439535353
 20
7.900987201266818
 10
4.702011439535353
 20
7.900987201266818
 10
4.702011863390604
 20
7.900988048977322
 10
4.702011863390604
 20
7.900988048977322
 97
        0
 97
        0
 75
     2
 76
     1
 98
        0
  0
SPLINE
  5
8F
330
89
100
AcDbEntity
  8
Layer 1
370
     0
100
AcDbSpline
210
0.0
220
0.0
230
1.0
 70
    11
 71
     3
 72
    26
 73
    22
 74
     0
 42
0.0000000001
 43
0.0000000001
 12
1.0
 22
0.0
 32
0.0
 13
1.0
 23
0.0
 33
0.0
 40
0.0
 40
0.0
 40
0.0
 40
0.0
 40
1.0
 40
1.0
 40
1.0
 40
2.0
 40
2.0
 40
2.0
 40
3.0
 40
3.0
 40
3.0
 40
4.0
 40
4.0
 40
4.0
 40
5.0
 40
5.0
 40
5.0
 40
6.0
 40
6.0
 40
6.0
 40
7.0
 40
7.0
 40
7.0
 40
7.0
 10
4.708984282281663
 20
7.786446253458658
 30
0.0
 10
4.68591468864017
 20
7.781487994723849
 30
0.0
 10
4.66833147737715
 20
7.762460284762912
 30
0.0
 10
4.669734438260396
 20
7.744723637898763
 30
0.0
 10
4.671137399143642
 20
7.726987838745117
 30
0.0
 10
4.690484272109138
 20
7.717043346828884
 30
0.0
 10
4.712915115886264
 20
7.722126219007704
 30
0.0
 10
4.823609577284919
 20
7.747251510620117
 30
0.0
 10
4.880526132053799
 20
7.756445778740776
 30
0.0
 10
4.995470590061611
 20
7.766862445407443
 30
0.0
 10
5.018762283855014
 20
7.768959681193033
 30
0.0
 10
5.038998405138651
 20
7.784209993150498
 30
0.0
 10
5.040345417128669
 20
7.801265080769856
 30
0.0
 10
5.041692429118686
 20
7.818321016099717
 30
0.0
 10
5.023136893908182
 20
7.83111211988661
 30
0.0
 10
4.999247988065084
 20
7.829223420884873
 30
0.0
 10
4.881303482585483
 20
7.81977907816569
 30
0.0
 10
4.822831379042731
 20
7.810959498087565
 30
0.0
 10
4.708984282281663
 20
7.786445405748155
 30
0.0
 10
4.708984282281663
 20
7.786445405748155
 30
0.0
 10
4.708984282281663
 20
7.786446253458658
 30
0.0
 10
4.708984282281663
 20
7.786446253458658
 30
0.0
  0
HATCH
  5
90
330
89
100
AcDbEntity
  8
Layer 1
 62
    30
100
AcDbHatch
 10
0.0
 20
0.0
 30
0.0
210
0.0
220
0.0
230
1.0
  2
SOLID
 70
     1
 71
     0
 91
        1
 92
        1
 93
        1
 72
     4
 94
        3
 73
     0
 74
     1
 95
       26
 96
       22
 40
0.0
 40
0.0
 40
0.0
 40
0.0
 40
1.0
 40
1.0
 40
1.0
 40
2.0
 40
2.0
 40
2.0
 40
3.0
 40
3.0
 40
3.0
 40
4.0
 40
4.0
 40
4.0
 40
5.0
 40
5.0
 40
5.0
 40
6.0
 40
6.0
 40
6.0
 40
7.0
 40
7.0
 40
7.0
 40
7.0
 10
4.708984282281663
 20
7.786446253458658
 10
4.68591468864017
 20
7.781487994723849
 10
4.66833147737715
 20
7.762460284762912
 10
4.669734438260396
 20
7.744723637898763
 10
4.671137399143642
 20
7.726987838745117
 10
4.690484272109138
 20
7.717043346828884
 10
4.712915115886264
 20
7.722126219007704
 10
4.823609577284919
 20
7.747251510620117
 10
4.880526132053799
 20
7.756445778740776
 10
4.995470590061611
 20
7.766862445407443
 10
5.018762283855014
 20
7.768959681193033
 10
5.038998405138651
 20
7.784209993150498
 10
5.040345417128669
 20
7.801265080769856
 10
5.041692429118686
 20
7.818321016099717
 10
5.023136893908182
 20
7.83111211988661
 10
4.999247988065084
 20
7.829223420884873
 10
4.881303482585483
 20
7.81977907816569
 10
4.822831379042731
 20
7.810959498087565
 10
4.708984282281663
 20
7.786445405748155
 10
4.708984282281663
 20
7.786445405748155
 10
4.708984282281663
 20
7.786446253458658
 10
4.708984282281663
 20
7.786446253458658
 97
        0
 97
        0
 75
     2
 76
     1
 98
        0
  0
ENDBLK
  5
8C
330
89
100
AcDbEntity
  8
0
100
AcDbBlockEnd
  0
ENDSEC
  0
SECTION
  2
ENTITIES
  0
INSERT
  5
42
330
1F
100
AcDbEntity
  8
Layer 1
100
AcDbBlockReference
  2
block 2
 10
0.0
 20
0.0
 30
0.0
  0
INSERT
  5
4A
330
1F
100
AcDbEntity
  8
Layer 1
100
AcDbBlockReference
  2
block 4
 10
0.0
 20
0.0
 30
0.0
  0
INSERT
  5
4E
330
1F
100
AcDbEntity
  8
Layer 1
100
AcDbBlockReference
  2
block 5
 10
0.0
 20
0.0
 30
0.0
  0
ENDSEC
  0
SECTION
  2
OBJECTS
  0
DICTIONARY
  5
C
330
0
100
AcDbDictionary
281
     1
  3
ACAD_GROUP
350
D
  3
ACAD_LAYOUT
350
1A
  3
ACAD_MATERIAL
350
3B
  3
ACAD_MLEADERSTYLE
350
94
  3
ACAD_MLINESTYLE
350
17
  3
ACAD_PLOTSETTINGS
350
19
  3
ACAD_PLOTSTYLENAME
350
E
  3
ACAD_TABLESTYLE
350
93
  3
ACAD_VISUALSTYLE
350
2A
  0
SUN
  5
3F
330
29
100
AcDbSun
 90
        1
290
     0
 63
     7
421
 16777215
 40
1.0
291
     1
 91
  2455826
 92
 54000000
292
     0
 70
     2
 71
   256
280
     1
  0
DICTIONARY
  5
D
102
{ACAD_REACTORS
330
C
102
}
330
C
100
AcDbDictionary
281
     1
  0
DICTIONARY
  5
1A
102
{ACAD_REACTORS
330
C
102
}
330
C
100
AcDbDictionary
281
     1
  3
Layout1
350
1E
  3
Layout2
350
26
  3
Model
350
22
  0
DICTIONARY
  5
3B
102
{ACAD_REACTORS
330
C
102
}
330
C
100
AcDbDictionary
281
     1
  3
ByBlock
350
3D
  3
ByLayer
350
3C
  3
Global
350
3E
  0
DICTIONARY
  5
94
102
{ACAD_REACTORS
330
C
102
}
330
C
100
AcDbDictionary
281
     1
  0
DICTIONARY
  5
17
102
{ACAD_REACTORS
330
C
102
}
330
C
100
AcDbDictionary
281
     1
  3
Standard
350
18
  0
DICTIONARY
  5
19
102
{ACAD_REACTORS
330
C
102
}
330
C
100
AcDbDictionary
281
     1
  0
ACDBDICTIONARYWDFLT
  5
E
102
{ACAD_REACTORS
330
C
102
}
330
C
100
AcDbDictionary
281
     1
  3
Normal
350
F
100
AcDbDictionaryWithDefault
340
F
  0
DICTIONARY
  5
93
102
{ACAD_REACTORS
330
C
102
}
330
C
100
AcDbDictionary
281
     1
  0
DICTIONARY
  5
2A
102
{ACAD_REACTORS
330
C
102
}
330
C
100
AcDbDictionary
281
     1
  3
2dWireframe
350
2F
  3
3D Hidden
350
31
  3
3dWireframe
350
30
  3
Basic
350
32
  3
Brighten
350
36
  3
ColorChange
350
3A
  3
Conceptual
350
34
  3
Dim
350
35
  3
Facepattern
350
39
  3
Flat
350
2B
  3
FlatWithEdges
350
2C
  3
Gouraud
350
2D
  3
GouraudWithEdges
350
2E
  3
Linepattern
350
38
  3
Realistic
350
33
  3
Thicken
350
37
  0
LAYOUT
  5
1E
102
{ACAD_REACTORS
330
1A
102
}
330
1A
100
AcDbPlotSettings
  1

  2
none_device
  4

  6

 40
0.0
 41
0.0
 42
0.0
 43
0.0
 44
0.0
 45
0.0
 46
0.0
 47
0.0
 48
0.0
 49
0.0
140
0.0
141
0.0
142
1.0
143
1.0
 70
   688
 72
     0
 73
     0
 74
     5
  7

 75
    16
 76
     0
 77
     2
 78
   300
147
1.0
148
0.0
149
0.0
100
AcDbLayout
  1
Layout1
 70
     1
 71
     1
 10
0.0
 20
0.0
 11
12.0
 21
9.0
 12
0.0
 22
0.0
 32
0.0
 14
1.000000000000000E+20
 24
1.000000000000000E+20
 34
1.000000000000000E+20
 15
-1.000000000000000E+20
 25
-1.000000000000000E+20
 35
-1.000000000000000E+20
146
0.0
 13
0.0
 23
0.0
 33
0.0
 16
1.0
 26
0.0
 36
0.0
 17
0.0
 27
1.0
 37
0.0
 76
     0
330
1B
  0
LAYOUT
  5
26
102
{ACAD_REACTORS
330
1A
102
}
330
1A
100
AcDbPlotSettings
  1

  2
none_device
  4

  6

 40
0.0
 41
0.0
 42
0.0
 43
0.0
 44
0.0
 45
0.0
 46
0.0
 47
0.0
 48
0.0
 49
0.0
140
0.0
141
0.0
142
1.0
143
1.0
 70
   688
 72
     0
 73
     0
 74
     5
  7

 75
    16
 76
     0
 77
     2
 78
   300
147
1.0
148
0.0
149
0.0
100
AcDbLayout
  1
Layout2
 70
     1
 71
     2
 10
0.0
 20
0.0
 11
0.0
 21
0.0
 12
0.0
 22
0.0
 32
0.0
 14
0.0
 24
0.0
 34
0.0
 15
0.0
 25
0.0
 35
0.0
146
0.0
 13
0.0
 23
0.0
 33
0.0
 16
1.0
 26
0.0
 36
0.0
 17
0.0
 27
1.0
 37
0.0
 76
     0
330
23
  0
LAYOUT
  5
22
102
{ACAD_REACTORS
330
1A
102
}
330
1A
100
AcDbPlotSettings
  1

  2
none_device
  4

  6

 40
0.0
 41
0.0
 42
0.0
 43
0.0
 44
0.0
 45
0.0
 46
0.0
 47
0.0
 48
0.0
 49
0.0
140
0.0
141
0.0
142
1.0
143
1.0
 70
  1712
 72
     0
 73
     0
 74
     0
  7

 75
     0
 76
     0
 77
     2
 78
   300
147
1.0
148
0.0
149
0.0
100
AcDbLayout
  1
Model
 70
     1
 71
     0
 10
0.0
 20
0.0
 11
12.0
 21
9.0
 12
0.0
 22
0.0
 32
0.0
 14
1.000000000000000E+20
 24
1.000000000000000E+20
 34
1.000000000000000E+20
 15
-1.000000000000000E+20
 25
-1.000000000000000E+20
 35
-1.000000000000000E+20
146
0.0
 13
0.0
 23
0.0
 33
0.0
 16
1.0
 26
0.0
 36
0.0
 17
0.0
 27
1.0
 37
0.0
 76
     0
330
1F
331
29
  0
MATERIAL
  5
3D
102
{ACAD_REACTORS
330
3B
102
}
330
3B
100
AcDbMaterial
  1
ByBlock
 72
     1
 94
      127
  0
MATERIAL
  5
3C
102
{ACAD_REACTORS
330
3B
102
}
330
3B
100
AcDbMaterial
  1
ByLayer
 72
     1
 94
      127
  0
MATERIAL
  5
3E
102
{ACAD_REACTORS
330
3B
102
}
330
3B
100
AcDbMaterial
  1
Global
 72
     1
 94
      127
  0
MLINESTYLE
  5
18
102
{ACAD_REACTORS
330
17
102
}
330
17
100
AcDbMlineStyle
  2
Standard
 70
     0
  3

 62
   256
 51
90.0
 52
90.0
 71
     2
 49
0.5
 62
   256
  6
BYLAYER
 49
-0.5
 62
   256
  6
BYLAYER
  0
ACDBPLACEHOLDER
  5
F
102
{ACAD_REACTORS
330
E
102
}
330
E
  0
VISUALSTYLE
  5
2F
102
{ACAD_REACTORS
330
2A
102
}
330
2A
100
AcDbVisualStyle
  2
2dWireframe
 70
     4
177
     2
291
     0
 71
     0
176
     1
 72
     2
176
     1
 73
     0
176
     1
 90
        0
176
     1
 40
-0.6
176
     1
 41
-30.0
176
     1
 62
     5
 63
     7
421
 16777215
176
     1
 74
     1
176
     1
 91
        4
176
     1
 64
     7
176
     1
 65
   257
176
     1
 75
     1
176
     1
175
     1
176
     1
 42
1.0
176
     1
 92
        0
176
     1
 66
   257
176
     1
 43
1.0
176
     1
 76
     1
176
     1
 77
     6
176
     1
 78
     2
176
     1
 67
     7
176
     1
 79
     5
176
     1
170
     0
176
     1
171
     0
176
     1
290
     0
176
     1
 93
        1
176
     1
 44
0.0
176
     1
173
     0
176
     1
  0
VISUALSTYLE
  5
31
102
{ACAD_REACTORS
330
2A
102
}
330
2A
100
AcDbVisualStyle
  2
3D Hidden
 70
     6
177
     2
291
     0
 71
     1
176
     1
 72
     2
176
     1
 73
     2
176
     1
 90
        0
176
     1
 40
-0.6
176
     1
 41
-30.0
176
     1
 62
     5
 63
     7
421
 16777215
176
     1
 74
     2
176
     1
 91
        2
176
     1
 64
     7
176
     1
 65
   257
176
     1
 75
     2
176
     1
175
     1
176
     1
 42
40.0
176
     1
 92
        0
176
     1
 66
   257
176
     1
 43
1.0
176
     1
 76
     1
176
     1
 77
     6
176
     1
 78
     2
176
     1
 67
     7
176
     1
 79
     3
176
     1
170
     0
176
     1
171
     0
176
     1
290
     0
176
     1
 93
        1
176
     1
 44
0.0
176
     1
173
     0
176
     1
  0
VISUALSTYLE
  5
30
102
{ACAD_REACTORS
330
2A
102
}
330
2A
100
AcDbVisualStyle
  2
3dWireframe
 70
     5
177
     2
291
     0
 71
     0
176
     1
 72
     2
176
     1
 73
     0
176
     1
 90
        0
176
     1
 40
-0.6
176
     1
 41
-30.0
176
     1
 62
     5
 63
     7
421
 16777215
176
     1
 74
     1
176
     1
 91
        4
176
     1
 64
     7
176
     1
 65
   257
176
     1
 75
     1
176
     1
175
     1
176
     1
 42
1.0
176
     1
 92
        0
176
     1
 66
   257
176
     1
 43
1.0
176
     1
 76
     1
176
     1
 77
     6
176
     1
 78
     2
176
     1
 67
     7
176
     1
 79
     5
176
     1
170
     0
176
     1
171
     0
176
     1
290
     0
176
     1
 93
        1
176
     1
 44
0.0
176
     1
173
     0
176
     1
  0
VISUALSTYLE
  5
32
102
{ACAD_REACTORS
330
2A
102
}
330
2A
100
AcDbVisualStyle
  2
Basic
 70
     7
177
     2
291
     1
 71
     1
176
     1
 72
     0
176
     1
 73
     1
176
     1
 90
        0
176
     1
 40
-0.6
176
     1
 41
-30.0
176
     1
 62
     5
 63
     7
421
 16777215
176
     1
 74
     0
176
     1
 91
        4
176
     1
 64
     7
176
     1
 65
   257
176
     1
 75
     1
176
     1
175
     1
176
     1
 42
1.0
176
     1
 92
        8
176
     1
 66
     7
176
     1
 43
1.0
176
     1
 76
     1
176
     1
 77
     6
176
     1
 78
     2
176
     1
 67
     7
176
     1
 79
     5
176
     1
170
     0
176
     1
171
     0
176
     1
290
     0
176
     1
 93
        1
176
     1
 44
0.0
176
     1
173
     0
176
     1
  0
VISUALSTYLE
  5
36
102
{ACAD_REACTORS
330
2A
102
}
330
2A
100
AcDbVisualStyle
  2
Brighten
 70
    12
177
     2
291
     1
 71
     2
176
     1
 72
     2
176
     1
 73
     0
176
     1
 90
        0
176
     1
 40
-0.6
176
     1
 41
-30.0
176
     1
 62
     5
 63
     7
421
 16777215
176
     1
 74
     1
176
     1
 91
        4
176
     1
 64
     7
176
     1
 65
   257
176
     1
 75
     1
176
     1
175
     1
176
     1
 42
1.0
176
     1
 92
        8
176
     1
 66
     7
176
     1
 43
1.0
176
     1
 76
     1
176
     1
 77
     6
176
     1
 78
     2
176
     1
 67
     7
176
     1
 79
     5
176
     1
170
     0
176
     1
171
     0
176
     1
290
     0
176
     1
 93
        1
176
     1
 44
50.0
176
     1
173
     0
176
     1
  0
VISUALSTYLE
  5
3A
102
{ACAD_REACTORS
330
2A
102
}
330
2A
100
AcDbVisualStyle
  2
ColorChange
 70
    16
177
     2
291
     1
 71
     2
176
     1
 72
     2
176
     1
 73
     3
176
     1
 90
        0
176
     1
 40
-0.6
176
     1
 41
-30.0
176
     1
 62
     5
 63
     8
421
  8421504
176
     1
 74
     1
176
     1
 91
        4
176
     1
 64
     7
176
     1
 65
   257
176
     1
 75
     1
176
     1
175
     1
176
     1
 42
1.0
176
     1
 92
        8
176
     1
 66
     8
424
  8421504
176
     1
 43
1.0
176
     1
 76
     1
176
     1
 77
     6
176
     1
 78
     2
176
     1
 67
     7
176
     1
 79
     5
176
     1
170
     0
176
     1
171
     0
176
     1
290
     0
176
     1
 93
        1
176
     1
 44
0.0
176
     1
173
     0
176
     1
  0
VISUALSTYLE
  5
34
102
{ACAD_REACTORS
330
2A
102
}
330
2A
100
AcDbVisualStyle
  2
Conceptual
 70
     9
177
     2
291
     0
 71
     3
176
     1
 72
     2
176
     1
 73
     0
176
     1
 90
        0
176
     1
 40
-0.6
176
     1
 41
-30.0
176
     1
 62
     5
 63
     7
421
 16777215
176
     1
 74
     2
176
     1
 91
        2
176
     1
 64
     7
176
     1
 65
   257
176
     1
 75
     1
176
     1
175
     1
176
     1
 42
40.0
176
     1
 92
        8
176
     1
 66
     7
176
     1
 43
1.0
176
     1
 76
     1
176
     1
 77
     6
176
     1
 78
     2
176
     1
 67
     7
176
     1
 79
     3
176
     1
170
     0
176
     1
171
     0
176
     1
290
     0
176
     1
 93
        1
176
     1
 44
0.0
176
     1
173
     0
176
     1
  0
VISUALSTYLE
  5
35
102
{ACAD_REACTORS
330
2A
102
}
330
2A
100
AcDbVisualStyle
  2
Dim
 70
    11
177
     2
291
     1
 71
     2
176
     1
 72
     2
176
     1
 73
     0
176
     1
 90
        0
176
     1
 40
-0.6
176
     1
 41
-30.0
176
     1
 62
     5
 63
     7
421
 16777215
176
     1
 74
     1
176
     1
 91
        4
176
     1
 64
     7
176
     1
 65
   257
176
     1
 75
     1
176
     1
175
     1
176
     1
 42
1.0
176
     1
 92
        8
176
     1
 66
     7
176
     1
 43
1.0
176
     1
 76
     1
176
     1
 77
     6
176
     1
 78
     2
176
     1
 67
     7
176
     1
 79
     5
176
     1
170
     0
176
     1
171
     0
176
     1
290
     0
176
     1
 93
        1
176
     1
 44
-50.0
176
     1
173
     0
176
     1
  0
VISUALSTYLE
  5
39
102
{ACAD_REACTORS
330
2A
102
}
330
2A
100
AcDbVisualStyle
  2
Facepattern
 70
    15
177
     2
291
     1
 71
     2
176
     1
 72
     2
176
     1
 73
     0
176
     1
 90
        0
176
     1
 40
-0.6
176
     1
 41
-30.0
176
     1
 62
     5
 63
     7
421
 16777215
176
     1
 74
     1
176
     1
 91
        4
176
     1
 64
     7
176
     1
 65
   257
176
     1
 75
     1
176
     1
175
     1
176
     1
 42
1.0
176
     1
 92
        8
176
     1
 66
     7
176
     1
 43
1.0
176
     1
 76
     1
176
     1
 77
     6
176
     1
 78
     2
176
     1
 67
     7
176
     1
 79
     5
176
     1
170
     0
176
     1
171
     0
176
     1
290
     0
176
     1
 93
        1
176
     1
 44
0.0
176
     1
173
     0
176
     1
  0
VISUALSTYLE
  5
2B
102
{ACAD_REACTORS
330
2A
102
}
330
2A
100
AcDbVisualStyle
  2
Flat
 70
     0
177
     2
291
     1
 71
     2
176
     1
 72
     1
176
     1
 73
     1
176
     1
 90
        2
176
     1
 40
-0.6
176
     1
 41
30.0
176
     1
 62
     5
 63
     7
421
 16777215
176
     1
 74
     0
176
     1
 91
        4
176
     1
 64
     7
176
     1
 65
   257
176
     1
 75
     1
176
     1
175
     1
176
     1
 42
1.0
176
     1
 92
        8
176
     1
 66
     7
176
     1
 43
1.0
176
     1
 76
     1
176
     1
 77
     6
176
     1
 78
     2
176
     1
 67
     7
176
     1
 79
     5
176
     1
170
     0
176
     1
171
     0
176
     1
290
     0
176
     1
 93
       13
176
     1
 44
0.0
176
     1
173
     0
176
     1
  0
VISUALSTYLE
  5
2C
102
{ACAD_REACTORS
330
2A
102
}
330
2A
100
AcDbVisualStyle
  2
FlatWithEdges
 70
     1
177
     2
291
     1
 71
     2
176
     1
 72
     1
176
     1
 73
     1
176
     1
 90
        2
176
     1
 40
-0.6
176
     1
 41
30.0
176
     1
 62
     5
 63
     7
421
 16777215
176
     1
 74
     1
176
     1
 91
        4
176
     1
 64
     7
176
     1
 65
   257
176
     1
 75
     1
176
     1
175
     1
176
     1
 42
1.0
176
     1
 92
        0
176
     1
 66
   257
176
     1
 43
1.0
176
     1
 76
     1
176
     1
 77
     6
176
     1
 78
     2
176
     1
 67
     7
176
     1
 79
     5
176
     1
170
     0
176
     1
171
     0
176
     1
290
     0
176
     1
 93
       13
176
     1
 44
0.0
176
     1
173
     0
176
     1
  0
VISUALSTYLE
  5
2D
102
{ACAD_REACTORS
330
2A
102
}
330
2A
100
AcDbVisualStyle
  2
Gouraud
 70
     2
177
     2
291
     1
 71
     2
176
     1
 72
     2
176
     1
 73
     1
176
     1
 90
        2
176
     1
 40
-0.6
176
     1
 41
30.0
176
     1
 62
     5
 63
     7
421
 16777215
176
     1
 74
     0
176
     1
 91
        4
176
     1
 64
     7
176
     1
 65
   257
176
     1
 75
     1
176
     1
175
     1
176
     1
 42
1.0
176
     1
 92
        0
176
     1
 66
     7
176
     1
 43
1.0
176
     1
 76
     1
176
     1
 77
     6
176
     1
 78
     2
176
     1
 67
     7
176
     1
 79
     5
176
     1
170
     0
176
     1
171
     0
176
     1
290
     0
176
     1
 93
       13
176
     1
 44
0.0
176
     1
173
     0
176
     1
  0
VISUALSTYLE
  5
2E
102
{ACAD_REACTORS
330
2A
102
}
330
2A
100
AcDbVisualStyle
  2
GouraudWithEdges
 70
     3
177
     2
291
     1
 71
     2
176
     1
 72
     2
176
     1
 73
     1
176
     1
 90
        2
176
     1
 40
-0.6
176
     1
 41
30.0
176
     1
 62
     5
 63
     7
421
 16777215
176
     1
 74
     1
176
     1
 91
        4
176
     1
 64
     7
176
     1
 65
   257
176
     1
 75
     1
176
     1
175
     1
176
     1
 42
1.0
176
     1
 92
        0
176
     1
 66
   257
176
     1
 43
1.0
176
     1
 76
     1
176
     1
 77
     6
176
     1
 78
     2
176
     1
 67
     7
176
     1
 79
     5
176
     1
170
     0
176
     1
171
     0
176
     1
290
     0
176
     1
 93
       13
176
     1
 44
0.0
176
     1
173
     0
176
     1
  0
VISUALSTYLE
  5
38
102
{ACAD_REACTORS
330
2A
102
}
330
2A
100
AcDbVisualStyle
  2
Linepattern
 70
    14
177
     2
291
     1
 71
     2
176
     1
 72
     2
176
     1
 73
     0
176
     1
 90
        0
176
     1
 40
-0.6
176
     1
 41
-30.0
176
     1
 62
     5
 63
     7
421
 16777215
176
     1
 74
     1
176
     1
 91
        4
176
     1
 64
     7
176
     1
 65
   257
176
     1
 75
     7
176
     1
175
     7
176
     1
 42
1.0
176
     1
 92
        8
176
     1
 66
     7
176
     1
 43
1.0
176
     1
 76
     1
176
     1
 77
     6
176
     1
 78
     2
176
     1
 67
     7
176
     1
 79
     5
176
     1
170
     0
176
     1
171
     0
176
     1
290
     0
176
     1
 93
        1
176
     1
 44
0.0
176
     1
173
     0
176
     1
  0
VISUALSTYLE
  5
33
102
{ACAD_REACTORS
330
2A
102
}
330
2A
100
AcDbVisualStyle
  2
Realistic
 70
     8
177
     2
291
     0
 71
     2
176
     1
 72
     2
176
     1
 73
     0
176
     1
 90
        0
176
     1
 40
-0.6
176
     1
 41
-30.0
176
     1
 62
     5
 63
     7
421
 16777215
176
     1
 74
     1
176
     1
 91
        0
176
     1
 64
     7
176
     1
 65
   257
176
     1
 75
     1
176
     1
175
     1
176
     1
 42
1.0
176
     1
 92
        8
176
     1
 66
     8
424
  7895160
176
     1
 43
1.0
176
     1
 76
     1
176
     1
 77
     6
176
     1
 78
     2
176
     1
 67
     7
176
     1
 79
     5
176
     1
170
     0
176
     1
171
     0
176
     1
290
     0
176
     1
 93
       13
176
     1
 44
0.0
176
     1
173
     0
176
     1
  0
VISUALSTYLE
  5
37
102
{ACAD_REACTORS
330
2A
102
}
330
2A
100
AcDbVisualStyle
  2
Thicken
 70
    13
177
     2
291
     1
 71
     2
176
     1
 72
     2
176
     1
 73
     0
176
     1
 90
        0
176
     1
 40
-0.6
176
     1
 41
-30.0
176
     1
 62
     5
 63
     7
421
 16777215
176
     1
 74
     1
176
     1
 91
        4
176
     1
 64
     7
176
     1
 65
   257
176
     1
 75
     1
176
     1
175
     1
176
     1
 42
1.0
176
     1
 92
       12
176
     1
 66
     7
176
     1
 43
1.0
176
     1
 76
     1
176
     1
 77
     6
176
     1
 78
     2
176
     1
 67
     7
176
     1
 79
     5
176
     1
170
     0
176
     1
171
     0
176
     1
290
     0
176
     1
 93
        1
176
     1
 44
0.0
176
     1
173
     0
176
     1
  0
ENDSEC
  0
EOF
