<?xml version="1.0" encoding="utf-8"?>
<!-- Generator: Adobe Illustrator 22.0.1, SVG Export Plug-In . SVG Version: 6.00 Build 0)  -->
<svg version="1.1" id="Layer_1" xmlns="http://www.w3.org/2000/svg" xmlns:xlink="http://www.w3.org/1999/xlink" x="0px" y="0px"
	 viewBox="0 0 61.5 28.5" style="enable-background:new 0 0 61.5 28.5;" xml:space="preserve">
<style type="text/css">
	.st0{fill:#FFFFFF;}
</style>
<g>
	<g>
		<path class="st0" d="M0.1,0c20.5,0,41,0,61.4,0c0,9.5,0,19,0,28.5c-20.5,0-41,0-61.4,0C0.1,19,0.1,9.5,0.1,0z M3.3,18.4
			c0.1,0.1,0.2,0.1,0.3,0.1c3.7,1.6,7.4,3.2,11.1,4.8c0.7,0.3,1.4,0.3,2.1,0c0.6-0.2,0.7-0.9,0.2-1.3c-0.1-0.1-0.3-0.2-0.5-0.3
			c-2.7-1.1-5.4-2.3-8.1-3.4c-0.1,0-0.1-0.1-0.2-0.1c1.3,0,2.6,0,3.8,0c0.7,0,1.4-0.1,2.1-0.2c1-0.1,1.9-0.4,2.7-1
			c0.6-0.4,1-1,1-1.7c0.1-1,0-1.9,0-2.9c0-0.6-0.4-1.1-0.9-1.5c-0.5-0.4-1.1-0.7-1.7-0.9c-1.1-0.4-2.3-0.5-3.5-0.5c-3,0-6,0-9.1,0
			c-0.4,0-0.8,0-1.3,0c-0.6,0-0.8,0.3-0.8,0.9c0,0,0,0.1,0,0.1c0,4,0,8,0,11.9c0,0.1,0,0.2,0,0.2c0,0.4,0.3,0.7,0.7,0.8
			c0.3,0,0.6,0,0.9,0c0.7,0,1-0.3,1-0.9c0-0.7,0-1.5,0-2.2C3.3,19.7,3.3,19.1,3.3,18.4z M29.7,21C29.7,21,29.7,20.9,29.7,21
			c0.3-0.1,0.7-0.2,1-0.2c0.8,0,1.6,0,2.4-0.1c0.2,0,0.4,0,0.6-0.1c0.3-0.1,0.4-0.4,0.3-0.7c0-0.3-0.2-0.4-0.5-0.5
			c-0.6-0.1-0.7-0.3-0.8-0.9c0-0.5-0.1-1-0.3-1.5c-0.2-0.6-0.5-1.1-0.8-1.6c-0.1-0.1-0.1-0.2,0-0.4c1.4-1.5,1.3-3.3,0.3-4.8
			c-0.5-0.8-1.2-1.2-2.2-1.3c-0.4,0-0.7,0.1-0.8,0.4c-0.2,0.3-0.3,0.6-0.5,0.9c-0.1,0.2-0.3,0.3-0.5,0.4c-1.3,0.3-2.6,0.3-3.9,0.1
			c-0.5-0.1-0.8-0.3-1-0.8c-0.1-0.3-0.3-0.6-0.5-0.8c-0.1-0.2-0.3-0.2-0.5-0.2c-0.4,0.1-0.8,0.2-1.2,0.4c-1.2,0.6-1.9,1.5-1.8,2.9
			c0,1,0.4,1.9,1,2.8c0.1,0.2,0.1,0.3,0,0.5c-0.6,0.9-1,1.9-1,3.1c0,0.5-0.3,0.7-0.8,0.8c-0.1,0-0.3,0.1-0.4,0.2
			c-0.3,0.4,0,0.9,0.5,1c0.1,0,0.3,0,0.4,0c0.7,0,1.4,0,2,0c0.5,0,0.9,0.1,1.2,0.6c-0.1,0-0.1,0-0.2,0.1c-1.1,0.2-2.1,0.4-3.2,0.6
			c-0.2,0-0.3,0.2-0.4,0.4c-0.1,0.7,0.1,0.9,0.8,0.8c0.1,0,0.1,0,0.2,0c0.9-0.1,1.8-0.2,2.7-0.3c0.1,0,0.2,0.1,0.3,0.1
			c0.3,0.3,0.6,0.7,0.9,1.1c1.5,1.5,3.5,1.5,5.1,0c0.3-0.3,0.6-0.7,0.8-1c0.1-0.2,0.2-0.2,0.4-0.2c0.9,0.1,1.8,0.2,2.8,0.3
			c0.9,0.1,1.1-0.2,0.9-1c0-0.1-0.1-0.2-0.2-0.2c-0.4-0.1-0.9-0.1-1.3-0.2C31.2,21.5,30.4,21.4,29.7,21z M46.6,9.5
			c0,0.8,0,1.6,0,2.4c1.6,0,3.1,0,4.6,0c0,0.2,0,0.3,0,0.4c0,3.4,0,6.9,0,10.3c0,0.2,0,0.3,0,0.5c0.1,0.3,0.3,0.5,0.6,0.6
			c0.4,0,0.8,0,1.2,0c0.4,0,0.6-0.2,0.6-0.6c0-0.2,0-0.3,0-0.5c0-3.5,0-6.9,0-10.4c0-0.1,0-0.2,0-0.4c0.2,0,0.3,0,0.4,0
			c1.8,0,3.6,0,5.5,0c0.1,0,0.3,0,0.4,0c0.9-0.1,1.1-0.4,1.1-1.3c0-0.1,0-0.2,0-0.3c0-0.4-0.3-0.6-0.6-0.7c-0.3-0.1-0.6-0.1-0.9-0.1
			c-4.2,0-8.5,0-12.7,0C46.8,9.5,46.7,9.5,46.6,9.5z M46.2,9.6c-0.1,0-0.2,0-0.3,0c-3.5,0-7,0-10.5,0c-0.2,0-0.5,0-0.7,0.1
			c-0.6,0.1-0.8,0.4-0.7,1c0,0.2,0,0.3,0,0.5c0,0.4,0.2,0.6,0.6,0.7c0.3,0.1,0.6,0.1,0.9,0.1c1.3,0,2.7,0,4,0c0.1,0,0.2,0,0.3,0
			c0,0.2,0,0.3,0,0.4c0,3.4,0,6.9,0,10.3c0,0.2,0,0.3,0,0.5c0.1,0.3,0.3,0.5,0.6,0.6c0.4,0,0.9,0,1.3,0c0.3,0,0.5-0.2,0.6-0.5
			c0-0.2,0-0.3,0-0.5c0-3.5,0-6.9,0-10.4c0-0.1,0-0.2,0-0.4c1.3,0,2.6,0,3.8,0C46.2,11.1,46.2,10.4,46.2,9.6z M0.7,7.9
			c20.2,0,40.3,0,60.4,0c0-0.2,0-0.4,0-0.6c-20.2,0-40.3,0-60.4,0C0.7,7.5,0.7,7.7,0.7,7.9z M52.4,2.7c0.1,0.1,0.1,0.1,0.1,0.1
			c0.3,1,0.7,1.9,1,2.9c0,0.1,0.1,0.2,0.2,0.2c0.2,0,0.5,0,0.7,0c0-1.6,0-3.1,0-4.6c-0.2,0-0.4,0-0.6,0c0,1.1,0,2.1,0,3.2
			c-0.1-0.1-0.1-0.2-0.1-0.2c-0.3-0.9-0.7-1.9-1-2.8c0-0.1-0.1-0.2-0.2-0.2c-0.2,0-0.5,0-0.7,0c0,1.6,0,3.1,0,4.6c0.2,0,0.4,0,0.6,0
			c0-0.5,0-1.1,0-1.6C52.4,3.8,52.4,3.3,52.4,2.7z M1.5,6c0-0.7,0-1.3,0-1.9C1.8,4,2,4.2,2.1,4.5c0.2,0.4,0.3,0.9,0.5,1.3
			c0,0.1,0.1,0.2,0.2,0.2C3,6,3.2,6,3.5,6C3.1,5.2,3,4.4,2.5,3.8c0.6-0.4,0.9-0.9,0.6-1.7C3,1.8,2.8,1.5,2.4,1.4
			C1.9,1.4,1.3,1.4,0.8,1.3c0,1.6,0,3.1,0,4.6C1,6,1.2,6,1.5,6z M10.3,5.9c0.4,0,0.8,0,1.2,0c0.7-0.1,1.2-0.5,1.4-1.1
			c0.2-0.8,0.2-1.6,0-2.4c-0.2-0.6-0.6-1-1.2-1c-0.5,0-0.9,0-1.4,0C10.3,2.9,10.3,4.4,10.3,5.9z M57.7,2.3c0-0.2,0-0.4,0-0.6
			c0-0.1-0.1-0.2-0.1-0.2c-1.1-0.5-2.1,0-2.5,1.1c-0.2,0.7-0.2,1.4,0,2.2c0.3,1.2,1.4,1.7,2.5,1.1c0.1,0,0.2-0.2,0.2-0.3
			c0-0.5,0-1.1,0-1.6c0-0.2,0-0.4,0-0.6c-0.5,0-0.9,0-1.3,0c0,0.2,0,0.4,0,0.7c0.2,0,0.4,0,0.6,0c0,0.1,0,0.1,0,0.1
			c0,0.3,0,0.6,0,0.8c0,0.2-0.1,0.2-0.2,0.3c-0.4,0.1-0.8-0.1-1-0.5c-0.3-0.7-0.3-1.4,0-2.1C56,2.2,56.3,2,56.8,2.1
			C57.1,2.1,57.4,2.2,57.7,2.3z M33.4,6c0-0.7,0-1.3,0-2c0.4,0,0.8,0,1.3,0c0,0.7,0,1.3,0,2c0.2,0,0.4,0,0.6,0c0-1.5,0-3,0-4.6
			c-0.2,0-0.4,0-0.7,0c0,0.6,0,1.2,0,1.8c-0.4,0-0.8,0-1.3,0c0-0.6,0-1.2,0-1.8c-0.2,0-0.5,0-0.7,0c0,1.5,0,3,0,4.6
			C32.9,6,33.1,6,33.4,6z M48.1,6c0-1.5,0-3.1,0-4.6c-0.2,0-0.4,0-0.7,0c0,0.6,0,1.2,0,1.8c-0.4,0-0.8,0-1.3,0c0-0.6,0-1.2,0-1.8
			c-0.2,0-0.4,0-0.7,0c0,1.5,0,3,0,4.6c0.2,0,0.4,0,0.7,0c0-0.7,0-1.3,0-2c0.4,0,0.8,0,1.3,0c0,0.7,0,1.3,0,2C47.6,6,47.8,6,48.1,6z
			 M18.5,1.4c-0.3,0-0.5,0-0.7,0c-0.2,0-0.3,0.1-0.3,0.2c-0.2,1-0.5,2-0.7,3c-0.1,0.4-0.2,0.9-0.3,1.3c0.2,0,0.5,0,0.7,0
			c0.1-0.2,0.1-0.5,0.2-0.7c0-0.2,0.1-0.2,0.3-0.2c0.2,0,0.5,0,0.7,0c0.2,0,0.3,0.1,0.4,0.3C18.8,6,18.8,6,19.5,6c0,0,0,0,0.1,0
			C19.2,4.4,18.8,2.9,18.5,1.4z M60.5,2.2c0-0.9,0.2-0.7-0.7-0.9c-0.1,0-0.1,0-0.2,0c-0.7,0-1.2,0.4-1.3,1c-0.1,0.7,0.1,1.2,0.8,1.6
			c0.2,0.1,0.5,0.2,0.7,0.4c0.2,0.1,0.3,0.4,0.3,0.6c-0.1,0.3-0.3,0.4-0.5,0.4c-0.2,0-0.5,0-0.7,0c-0.2,0-0.4-0.1-0.6-0.2
			c0,0.2,0,0.4,0,0.6c0,0.2,0.1,0.3,0.2,0.3C58.9,6,59.2,6,59.6,6c0.7,0,1.1-0.4,1.2-1.1c0.1-0.7-0.1-1.2-0.7-1.6
			c-0.2-0.1-0.5-0.2-0.7-0.4C59.2,2.9,59,2.7,59,2.4C59.1,2.2,59.3,2,59.7,2C60,2,60.2,2.1,60.5,2.2z M38.2,3.9c0-0.2,0-0.5,0-0.7
			c-0.5,0-0.9,0-1.4,0c0-0.4,0-0.8,0-1.2c0.5,0,1,0,1.5,0c0-0.3,0-0.5,0-0.7c-0.7,0-1.5,0-2.2,0c0,1.5,0,3,0,4.6c0.7,0,1.5,0,2.2,0
			c0-0.2,0-0.4,0-0.7c-0.5,0-1,0-1.5,0c0-0.4,0-0.9,0-1.3C37.3,3.9,37.8,3.9,38.2,3.9z M9.5,1.4c-0.8,0-1.5,0-2.3,0
			c0,0.2,0,0.4,0,0.7c0.3,0,0.5,0,0.8,0c0,1.1,0,2.1,0,3.2c-0.3,0-0.5,0-0.8,0c0,0.2,0,0.5,0,0.7c0.8,0,1.5,0,2.3,0
			c0-0.2,0-0.4,0-0.7c-0.3,0-0.5,0-0.8,0c0-1.1,0-2.1,0-3.2c0.3,0,0.5,0,0.8,0C9.5,1.8,9.5,1.6,9.5,1.4z M51.1,5.3
			c-0.3,0-0.5,0-0.8,0c0-1.1,0-2.1,0-3.2c0.3,0,0.5,0,0.8,0c0-0.3,0-0.5,0-0.7c-0.8,0-1.5,0-2.3,0c0,0.2,0,0.4,0,0.7
			c0.3,0,0.5,0,0.8,0c0,1.1,0,2.1,0,3.2c-0.3,0-0.5,0-0.8,0c0,0.2,0,0.4,0,0.7c0.8,0,1.5,0,2.3,0C51.1,5.7,51.1,5.5,51.1,5.3z
			 M4.8,2.1c0.5,0,1,0,1.4,0c0-0.3,0-0.5,0-0.7c-0.7,0-1.4,0-2.1,0c0,1.5,0,3,0,4.6c0.2,0,0.4,0,0.7,0c0-0.6,0-1.2,0-1.9
			c0.5,0,0.9,0,1.4,0c0-0.2,0-0.5,0-0.7c-0.5,0-0.9,0-1.4,0C4.8,2.9,4.8,2.5,4.8,2.1z M30.4,2.1c0,1.3,0,2.6,0,3.9
			c0.2,0,0.5,0,0.7,0c0-1.3,0-2.6,0-3.9c0.4,0,0.7,0,1,0c0-0.2,0-0.5,0-0.7c-0.9,0-1.8,0-2.7,0c0,0.2,0,0.5,0,0.7
			C29.8,2.1,30.1,2.1,30.4,2.1z M43.2,2.1c0,1.3,0,2.6,0,3.9c0.2,0,0.5,0,0.7,0c0-1.3,0-2.6,0-3.9c0.4,0,0.7,0,1,0
			c0-0.2,0-0.5,0-0.7c-0.9,0-1.8,0-2.7,0c0,0.2,0,0.5,0,0.7C42.5,2.1,42.9,2.1,43.2,2.1z M25.6,5.2c-0.5,0-1,0-1.6,0
			c0-1.3,0-2.6,0-3.8c-0.2,0-0.5,0-0.7,0c0,1.5,0,3,0,4.6c0.8,0,1.5,0,2.2,0C25.6,5.7,25.6,5.5,25.6,5.2z M20.2,5.9
			c0.8,0,1.5,0,2.2,0c0-0.2,0-0.5,0-0.7c-0.5,0-1,0-1.6,0c0-1.3,0-2.6,0-3.8c-0.2,0-0.5,0-0.7,0C20.2,2.9,20.2,4.4,20.2,5.9z"/>
		<path d="M3.3,18.4c0,0.7,0,1.3,0,1.9c0,0.7,0,1.5,0,2.2c0,0.7-0.3,0.9-1,0.9c-0.3,0-0.6,0-0.9,0c-0.4-0.1-0.7-0.3-0.7-0.8
			c0-0.1,0-0.2,0-0.2c0-4,0-8,0-11.9c0,0,0-0.1,0-0.1c0-0.6,0.3-0.8,0.8-0.9c0.4,0,0.8,0,1.3,0c3,0,6,0,9.1,0c1.2,0,2.4,0.1,3.5,0.5
			c0.6,0.2,1.2,0.5,1.7,0.9c0.5,0.4,0.8,0.9,0.9,1.5c0.1,1,0.1,1.9,0,2.9c0,0.7-0.4,1.3-1,1.7c-0.8,0.6-1.7,0.9-2.7,1
			c-0.7,0.1-1.4,0.1-2.1,0.2c-1.3,0-2.6,0-3.8,0c0.1,0,0.1,0.1,0.2,0.1c2.7,1.1,5.4,2.3,8.1,3.4c0.2,0.1,0.3,0.2,0.5,0.3
			c0.5,0.4,0.4,1.1-0.2,1.3c-0.7,0.2-1.4,0.3-2.1,0c-3.7-1.6-7.4-3.2-11.1-4.8C3.6,18.5,3.5,18.5,3.3,18.4z M3.3,16
			c0.1,0,0.2,0,0.3,0c2.9,0,5.7,0,8.6,0c0.4,0,0.8,0,1.2-0.1c0.5-0.1,1-0.2,1.4-0.4c0.4-0.2,0.6-0.5,0.6-1c0-0.5,0-1,0-1.5
			c0-0.5-0.2-0.8-0.6-1.1c-0.2-0.1-0.4-0.2-0.7-0.2c-0.7-0.1-1.5-0.2-2.2-0.2c-2.8,0-5.6,0-8.3,0c-0.1,0-0.2,0-0.3,0
			C3.3,13.1,3.3,14.5,3.3,16z"/>
		<path d="M29.7,21c0.7,0.4,1.5,0.6,2.3,0.7c0.4,0.1,0.9,0.1,1.3,0.2c0.1,0,0.2,0.1,0.2,0.2c0.2,0.9,0,1.1-0.9,1
			c-0.9-0.1-1.8-0.2-2.8-0.3c-0.2,0-0.3,0-0.4,0.2c-0.3,0.3-0.5,0.7-0.8,1c-1.5,1.5-3.5,1.5-5.1,0c-0.3-0.3-0.6-0.7-0.9-1.1
			c-0.1-0.1-0.2-0.1-0.3-0.1c-0.9,0.1-1.8,0.2-2.7,0.3c-0.1,0-0.1,0-0.2,0c-0.7,0-0.9-0.2-0.8-0.8c0-0.2,0.1-0.3,0.4-0.4
			c1.1-0.2,2.1-0.4,3.2-0.6c0.1,0,0.1,0,0.2-0.1c-0.3-0.4-0.7-0.5-1.2-0.6c-0.7,0-1.4,0-2,0c-0.1,0-0.3,0-0.4,0
			c-0.5-0.1-0.8-0.6-0.5-1c0.1-0.1,0.2-0.2,0.4-0.2c0.5-0.1,0.8-0.3,0.8-0.8c0-1.1,0.4-2.1,1-3.1c0.1-0.2,0.1-0.3,0-0.5
			c-0.5-0.9-0.9-1.8-1-2.8c0-1.4,0.6-2.3,1.8-2.9c0.4-0.2,0.8-0.2,1.2-0.4c0.2-0.1,0.4,0,0.5,0.2c0.2,0.3,0.4,0.5,0.5,0.8
			c0.2,0.5,0.5,0.7,1,0.8c1.3,0.2,2.6,0.2,3.9-0.1c0.2,0,0.3-0.2,0.5-0.4c0.2-0.3,0.3-0.6,0.5-0.9c0.2-0.3,0.5-0.5,0.8-0.4
			c1,0.1,1.7,0.5,2.2,1.3c0.9,1.5,1,3.3-0.3,4.8c-0.1,0.1-0.1,0.2,0,0.4c0.3,0.5,0.6,1,0.8,1.6c0.2,0.5,0.2,1,0.3,1.5
			c0,0.6,0.2,0.8,0.8,0.9c0.3,0.1,0.4,0.2,0.5,0.5c0,0.4-0.1,0.6-0.3,0.7c-0.2,0.1-0.4,0.1-0.6,0.1c-0.8,0-1.6,0-2.4,0.1
			C30.4,20.8,30.1,20.8,29.7,21C29.7,20.9,29.7,21,29.7,21z M30,19.3C30,19.3,30,19.4,30,19.3c0.4,0,0.8,0,1.1,0
			c0.3,0,0.4-0.2,0.5-0.5c0.1-0.5,0-1-0.2-1.5c-0.9-1.5-1.9-3.1-2.8-4.6c-0.4-0.6-0.8-0.8-1.5-0.5c-0.7,0.3-1.3,0.3-2,0
			c-0.5-0.3-1-0.1-1.3,0.4c-1,1.7-2.1,3.5-3.1,5.2c-0.2,0.3-0.2,0.7-0.1,1.1c0.1,0.2,0.2,0.4,0.4,0.4c0.3,0,0.7,0.1,1,0.1
			c0.4,0,0.8,0,1.2,0.1c0.3,0,0.5,0.2,0.5,0.6c0,0.2,0,0.3,0,0.5c0,0.7,0.1,1.5,0.5,2.1c0.9,1.5,3,1.5,3.9,0
			c0.3-0.6,0.5-1.2,0.5-1.9c0-0.3,0-0.6,0.1-0.9c0-0.2,0.2-0.4,0.5-0.4C29.4,19.4,29.7,19.4,30,19.3z M31,14.1
			c0.2-0.6,0.5-1.2,0.6-1.8c0.1-0.4,0-0.8-0.3-1.1c-0.3-0.3-0.7-0.6-1.1-0.9c-0.7,0.7-0.8,1.2-0.4,2C30.2,12.9,30.6,13.5,31,14.1z
			 M21.8,10.2c-0.4,0.5-0.8,0.9-1.1,1.4c-0.2,0.3-0.2,0.6-0.1,0.9c0.2,0.5,0.5,0.9,0.9,1.2c0.3-0.5,0.5-0.9,0.8-1.3
			C22.7,11.6,22.6,11,21.8,10.2z"/>
		<path d="M46.6,9.5c0.1,0,0.2,0,0.3,0c4.2,0,8.5,0,12.7,0c0.3,0,0.6,0,0.9,0.1c0.4,0.1,0.6,0.3,0.6,0.7c0,0.1,0,0.2,0,0.3
			c0.1,0.9-0.2,1.2-1.1,1.3c-0.1,0-0.3,0-0.4,0c-1.8,0-3.6,0-5.5,0c-0.1,0-0.2,0-0.4,0c0,0.1,0,0.3,0,0.4c0,3.5,0,6.9,0,10.4
			c0,0.2,0,0.3,0,0.5c-0.1,0.3-0.3,0.6-0.6,0.6c-0.4,0-0.8,0-1.2,0c-0.3,0-0.5-0.2-0.6-0.6c0-0.2,0-0.3,0-0.5c0-3.4,0-6.9,0-10.3
			c0-0.1,0-0.2,0-0.4c-1.6,0-3.1,0-4.6,0C46.6,11.2,46.6,10.4,46.6,9.5z"/>
		<path d="M46.2,9.6c0,0.8,0,1.6,0,2.4c-1.3,0-2.5,0-3.8,0c0,0.2,0,0.3,0,0.4c0,3.5,0,6.9,0,10.4c0,0.2,0,0.3,0,0.5
			c-0.1,0.3-0.3,0.5-0.6,0.5c-0.4,0-0.9,0-1.3,0c-0.3,0-0.5-0.3-0.6-0.6c0-0.2,0-0.3,0-0.5c0-3.4,0-6.9,0-10.3c0-0.1,0-0.3,0-0.4
			c-0.1,0-0.2,0-0.3,0c-1.3,0-2.7,0-4,0c-0.3,0-0.6,0-0.9-0.1c-0.4-0.1-0.6-0.3-0.6-0.7c0-0.2,0-0.3,0-0.5c0-0.6,0.2-0.9,0.7-1
			c0.2-0.1,0.5-0.1,0.7-0.1c3.5,0,7,0,10.5,0C46,9.5,46.1,9.6,46.2,9.6z"/>
		<path d="M0.7,7.9c0-0.2,0-0.4,0-0.6c20.1,0,40.3,0,60.4,0c0,0.2,0,0.4,0,0.6C41,7.9,20.9,7.9,0.7,7.9z"/>
		<path d="M52.4,2.7c0,0.6,0,1.1,0,1.6c0,0.5,0,1.1,0,1.6c-0.2,0-0.4,0-0.6,0c0-1.5,0-3,0-4.6c0.2,0,0.5,0,0.7,0
			c0.1,0,0.1,0.1,0.2,0.2c0.3,0.9,0.7,1.9,1,2.8c0,0,0,0.1,0.1,0.2c0-1.1,0-2.2,0-3.2c0.2,0,0.4,0,0.6,0c0,1.5,0,3,0,4.6
			c-0.2,0-0.5,0-0.7,0c-0.1,0-0.1-0.1-0.2-0.2c-0.3-1-0.7-1.9-1-2.9C52.5,2.8,52.5,2.8,52.4,2.7z"/>
		<path d="M1.5,6C1.2,6,1,6,0.8,6c0-1.5,0-3,0-4.6c0.5,0,1.1,0,1.6,0.1c0.4,0,0.6,0.3,0.7,0.7c0.2,0.7,0,1.3-0.6,1.7
			C3,4.4,3.1,5.2,3.5,6C3.2,6,3,6,2.8,6c-0.1,0-0.2-0.1-0.2-0.2C2.4,5.3,2.3,4.9,2.1,4.5C2,4.2,1.8,4,1.5,4.1C1.5,4.7,1.5,5.3,1.5,6
			z M1.5,3.4c0.4,0,0.7,0,0.9-0.3c0.1-0.2,0.1-0.5,0-0.7C2.2,2,1.8,2.1,1.5,2.1C1.5,2.5,1.5,2.9,1.5,3.4z"/>
		<path d="M10.3,5.9c0-1.5,0-3,0-4.6c0.5,0,0.9,0,1.4,0c0.6,0.1,1,0.4,1.2,1c0.2,0.8,0.2,1.6,0,2.4c-0.2,0.7-0.7,1.1-1.4,1.1
			C11.1,6,10.7,5.9,10.3,5.9z M11,2.1c0,1.1,0,2.1,0,3.1c0.6,0.1,1.1-0.1,1.2-0.7c0.1-0.5,0.1-0.9,0.1-1.4C12.2,2.3,11.8,2,11,2.1z"
			/>
		<path d="M57.7,2.3c-0.3-0.1-0.6-0.2-0.9-0.2C56.3,2,56,2.2,55.8,2.6c-0.3,0.7-0.3,1.4,0,2.1c0.2,0.4,0.5,0.6,1,0.5
			C56.9,5.2,57,5.2,57,5c0-0.3,0-0.6,0-0.8c0,0,0-0.1,0-0.1c-0.2,0-0.4,0-0.6,0c0-0.2,0-0.4,0-0.7c0.4,0,0.8,0,1.3,0
			c0,0.2,0,0.4,0,0.6c0,0.5,0,1.1,0,1.6c0,0.1-0.1,0.2-0.2,0.3c-1.1,0.5-2.2,0.1-2.5-1.1c-0.2-0.7-0.2-1.4,0-2.2
			c0.3-1.1,1.4-1.6,2.5-1.1c0.1,0,0.1,0.1,0.1,0.2C57.7,1.8,57.7,2.1,57.7,2.3z"/>
		<path d="M33.4,6c-0.3,0-0.5,0-0.7,0c0-1.5,0-3,0-4.6c0.2,0,0.4,0,0.7,0c0,0.6,0,1.2,0,1.8c0.4,0,0.8,0,1.3,0c0-0.6,0-1.2,0-1.8
			c0.2,0,0.4,0,0.7,0c0,1.5,0,3,0,4.6c-0.2,0-0.4,0-0.6,0c0-0.7,0-1.3,0-2c-0.4,0-0.8,0-1.3,0C33.4,4.6,33.4,5.3,33.4,6z"/>
		<path d="M48.1,6c-0.2,0-0.4,0-0.6,0c0-0.7,0-1.3,0-2c-0.4,0-0.8,0-1.3,0c0,0.7,0,1.3,0,2c-0.2,0-0.5,0-0.7,0c0-1.5,0-3,0-4.6
			c0.2,0,0.4,0,0.7,0c0,0.6,0,1.2,0,1.8c0.4,0,0.8,0,1.3,0c0-0.6,0-1.2,0-1.8c0.2,0,0.4,0,0.7,0C48.1,2.9,48.1,4.4,48.1,6z"/>
		<path d="M18.5,1.4c0.4,1.5,0.7,3.1,1.1,4.6c0,0,0,0-0.1,0C18.8,6,18.8,6,18.7,5.4c0-0.3-0.2-0.3-0.4-0.3c-0.2,0-0.5,0-0.7,0
			c-0.2,0-0.3,0-0.3,0.2c0,0.2-0.1,0.4-0.2,0.7c-0.2,0-0.4,0-0.7,0c0.1-0.5,0.2-0.9,0.3-1.3c0.2-1,0.5-2,0.7-3
			c0-0.2,0.1-0.3,0.3-0.2C18,1.4,18.2,1.4,18.5,1.4z M18.5,4.4c-0.2-0.7-0.3-1.4-0.5-2c0,0,0,0-0.1,0c-0.2,0.7-0.3,1.3-0.5,2
			c0.1,0,0.1,0,0.2,0C17.9,4.4,18.1,4.4,18.5,4.4z"/>
		<path d="M60.5,2.2C60.2,2.1,60,2,59.7,2c-0.4,0-0.6,0.1-0.6,0.4C59,2.7,59.2,2.9,59.4,3c0.2,0.1,0.5,0.2,0.7,0.4
			c0.6,0.3,0.8,0.9,0.7,1.6c-0.1,0.6-0.5,1-1.2,1.1c-0.4,0-0.8,0-1.1-0.1c-0.2,0-0.3-0.1-0.2-0.3c0-0.2,0-0.4,0-0.6
			c0.2,0.1,0.4,0.1,0.6,0.2c0.2,0,0.5,0.1,0.7,0c0.2,0,0.4-0.1,0.5-0.4c0.1-0.3,0-0.5-0.3-0.6c-0.2-0.1-0.5-0.2-0.7-0.4
			c-0.7-0.4-1-0.9-0.8-1.6c0.1-0.6,0.6-1,1.3-1c0.1,0,0.1,0,0.2,0C60.7,1.4,60.6,1.3,60.5,2.2z"/>
		<path d="M38.2,3.9c-0.5,0-0.9,0-1.4,0c0,0.4,0,0.8,0,1.3c0.5,0,1,0,1.5,0c0,0.3,0,0.5,0,0.7c-0.7,0-1.4,0-2.2,0c0-1.5,0-3,0-4.6
			c0.7,0,1.4,0,2.2,0c0,0.2,0,0.4,0,0.7c-0.5,0-1,0-1.5,0c0,0.4,0,0.8,0,1.2c0.5,0,0.9,0,1.4,0C38.2,3.5,38.2,3.7,38.2,3.9z"/>
		<path d="M9.5,1.4c0,0.2,0,0.4,0,0.7c-0.3,0-0.5,0-0.8,0c0,1.1,0,2.1,0,3.2c0.2,0,0.5,0,0.8,0c0,0.3,0,0.5,0,0.7
			c-0.8,0-1.5,0-2.3,0c0-0.2,0-0.4,0-0.7c0.3,0,0.5,0,0.8,0c0-1.1,0-2.1,0-3.2c-0.3,0-0.5,0-0.8,0c0-0.2,0-0.5,0-0.7
			C8,1.4,8.8,1.4,9.5,1.4z"/>
		<path d="M51.1,5.3c0,0.3,0,0.5,0,0.7c-0.8,0-1.5,0-2.3,0c0-0.2,0-0.4,0-0.7c0.2,0,0.5,0,0.8,0c0-1.1,0-2.1,0-3.2
			c-0.2,0-0.5,0-0.8,0c0-0.2,0-0.5,0-0.7c0.8,0,1.5,0,2.3,0c0,0.2,0,0.4,0,0.7c-0.2,0-0.5,0-0.8,0c0,1.1,0,2.1,0,3.2
			C50.6,5.3,50.8,5.3,51.1,5.3z"/>
		<path d="M4.8,2.1c0,0.4,0,0.8,0,1.3c0.5,0,0.9,0,1.4,0c0,0.2,0,0.5,0,0.7c-0.4,0-0.9,0-1.4,0c0,0.6,0,1.2,0,1.9
			c-0.2,0-0.5,0-0.7,0c0-1.5,0-3,0-4.6c0.7,0,1.4,0,2.1,0c0,0.2,0,0.4,0,0.7C5.8,2.1,5.3,2.1,4.8,2.1z"/>
		<path d="M30.4,2.1c-0.4,0-0.7,0-1,0c0-0.2,0-0.5,0-0.7c0.9,0,1.8,0,2.7,0c0,0.2,0,0.4,0,0.7c-0.3,0-0.6,0-1,0c0,1.3,0,2.6,0,3.9
			c-0.3,0-0.5,0-0.7,0C30.4,4.7,30.4,3.4,30.4,2.1z"/>
		<path d="M43.2,2.1c-0.4,0-0.7,0-1,0c0-0.2,0-0.5,0-0.7c0.9,0,1.8,0,2.7,0c0,0.2,0,0.4,0,0.7c-0.3,0-0.6,0-1,0c0,1.3,0,2.6,0,3.9
			c-0.3,0-0.5,0-0.7,0C43.2,4.7,43.2,3.4,43.2,2.1z"/>
		<path d="M25.6,5.2c0,0.3,0,0.5,0,0.7c-0.7,0-1.5,0-2.2,0c0-1.5,0-3,0-4.6c0.2,0,0.4,0,0.7,0c0,1.3,0,2.5,0,3.8
			C24.6,5.2,25.1,5.2,25.6,5.2z"/>
		<path d="M20.2,5.9c0-1.5,0-3,0-4.6c0.2,0,0.4,0,0.7,0c0,1.3,0,2.5,0,3.8c0.5,0,1,0,1.6,0c0,0.3,0,0.5,0,0.7
			C21.7,5.9,20.9,5.9,20.2,5.9z"/>
		<path class="st0" d="M3.3,16c0-1.5,0-3,0-4.5c0.1,0,0.2,0,0.3,0c2.8,0,5.6,0,8.3,0c0.7,0,1.5,0.1,2.2,0.2c0.2,0,0.5,0.1,0.7,0.2
			c0.4,0.2,0.7,0.6,0.6,1.1c0,0.5,0,1,0,1.5c0,0.5-0.2,0.9-0.6,1c-0.5,0.2-1,0.3-1.4,0.4c-0.4,0.1-0.8,0.1-1.2,0.1
			c-2.9,0-5.7,0-8.6,0C3.6,16,3.5,16,3.3,16z"/>
		<path class="st0" d="M30,19.3c-0.3,0-0.6,0-1,0.1c-0.3,0-0.4,0.2-0.5,0.4c0,0.3-0.1,0.6-0.1,0.9c0,0.7-0.2,1.3-0.5,1.9
			c-0.9,1.5-3,1.5-3.9,0c-0.4-0.7-0.5-1.4-0.5-2.1c0-0.2,0-0.3,0-0.5c0.1-0.4-0.2-0.5-0.5-0.6c-0.4,0-0.8,0-1.2-0.1
			c-0.3,0-0.7-0.1-1-0.1c-0.2,0-0.3-0.2-0.4-0.4c-0.1-0.4-0.1-0.7,0.1-1.1c1-1.7,2.1-3.5,3.1-5.2c0.3-0.5,0.8-0.6,1.3-0.4
			c0.7,0.3,1.3,0.3,2,0c0.7-0.3,1.1-0.1,1.5,0.5c0.9,1.5,1.9,3.1,2.8,4.6c0.3,0.5,0.4,0.9,0.2,1.5c-0.1,0.3-0.2,0.4-0.5,0.5
			C30.8,19.3,30.4,19.4,30,19.3C30,19.4,30,19.3,30,19.3z M23.4,16.9c0,0.5,0.3,0.8,0.8,0.8c0.5,0,0.8-0.3,0.8-0.8
			c0-0.5-0.3-0.8-0.8-0.8C23.7,16.1,23.4,16.4,23.4,16.9z M25.3,22.5c0,0.5,0.3,0.8,0.8,0.8c0.5,0,0.8-0.4,0.8-0.8
			c0-0.5-0.3-0.8-0.8-0.8C25.6,21.7,25.3,22,25.3,22.5z M28.7,16.8c0-0.5-0.3-0.8-0.8-0.8c-0.5,0-0.8,0.3-0.8,0.8
			c0,0.5,0.3,0.8,0.8,0.8C28.4,17.7,28.7,17.3,28.7,16.8z"/>
		<path class="st0" d="M31,14.1c-0.4-0.7-0.8-1.2-1.1-1.8c-0.4-0.7-0.3-1.3,0.4-2c0.3,0.3,0.7,0.6,1.1,0.9c0.3,0.3,0.4,0.7,0.3,1.1
			C31.4,13,31.2,13.5,31,14.1z"/>
		<path class="st0" d="M21.8,10.2c0.8,0.7,0.9,1.4,0.4,2.2c-0.2,0.4-0.5,0.9-0.8,1.3c-0.4-0.3-0.7-0.7-0.9-1.2
			c-0.1-0.3-0.1-0.7,0.1-0.9C21,11.2,21.4,10.7,21.8,10.2z"/>
		<path class="st0" d="M1.5,3.4c0-0.4,0-0.9,0-1.3c0.3,0,0.7-0.1,0.9,0.2c0.1,0.2,0.1,0.5,0,0.7C2.2,3.4,1.9,3.4,1.5,3.4z"/>
		<path class="st0" d="M11,2.1c0.9-0.1,1.2,0.2,1.3,1c0,0.5,0,0.9-0.1,1.4c-0.1,0.6-0.6,0.9-1.2,0.7C11,4.2,11,3.2,11,2.1z"/>
		<path class="st0" d="M18.5,4.4c-0.3,0-0.6,0-0.8,0c0,0-0.1,0-0.2,0c0.2-0.7,0.3-1.3,0.5-2c0,0,0,0,0.1,0C18.1,3,18.3,3.6,18.5,4.4
			z"/>
		<path d="M23.4,16.9c0-0.5,0.3-0.8,0.8-0.8c0.5,0,0.8,0.3,0.8,0.8c0,0.5-0.3,0.8-0.8,0.8C23.7,17.7,23.4,17.4,23.4,16.9z"/>
		<path d="M25.3,22.5c0-0.5,0.3-0.8,0.8-0.8c0.5,0,0.8,0.3,0.8,0.8c0,0.5-0.3,0.8-0.8,0.8C25.6,23.3,25.3,23,25.3,22.5z"/>
		<path d="M28.7,16.8c0,0.5-0.3,0.8-0.8,0.8c-0.5,0-0.8-0.3-0.8-0.8c0-0.5,0.3-0.8,0.8-0.8C28.4,16,28.7,16.4,28.7,16.8z"/>
	</g>
</g>
</svg>
