M48
; DRILL file {KiCad (5.1.8)-1} date 01/16/21 15:44:17
; FORMAT={-:-/ absolute / inch / decimal}
; #@! TF.CreationDate,2021-01-16T15:44:17-05:00
; #@! TF.GenerationSoftware,Kicad,Pcbnew,(5.1.8)-1
FMAT,2
INCH
T1C0.0138
T2C0.0197
T3C0.0295
T4C0.0300
T5C0.1063
T6C0.0138
T7C0.1063
%
G90
G05
T1
X1.0335Y-3.1102
X1.0335Y-3.376
X1.0707Y-3.144
X1.0728Y-3.2579
X1.0728Y-3.2874
X1.0738Y-3.2296
X1.0827Y-3.1201
X1.0827Y-3.5039
X1.096Y-3.0269
X1.096Y-3.0594
X1.1085Y-3.0044
X1.1085Y-3.0819
X1.11Y-2.1323
X1.12Y-2.2223
X1.1235Y-3.0269
X1.1235Y-3.0594
X1.136Y-3.0044
X1.136Y-3.0819
X1.1417Y-3.3366
X1.1417Y-3.4547
X1.151Y-3.0269
X1.151Y-3.0594
X1.1909Y-3.1201
X1.1909Y-3.1496
X1.1909Y-3.2677
X1.1909Y-3.2972
X1.2205Y-3.1201
X1.2205Y-3.1496
X1.2205Y-3.2677
X1.2205Y-3.2972
X1.2205Y-3.5039
X1.23Y-2.2223
X1.2303Y-1.4665
X1.2303Y-1.4961
X1.24Y-2.1323
X1.2598Y-1.4665
X1.2598Y-1.4961
X1.2598Y-3.1201
X1.2598Y-3.1496
X1.2598Y-3.2677
X1.2598Y-3.2972
X1.2894Y-3.1201
X1.2894Y-3.1496
X1.2894Y-3.2677
X1.2894Y-3.2972
X1.2894Y-3.3957
X1.2992Y-1.2303
X1.3091Y-3.061
X1.3091Y-2.9331
X1.3287Y-3.4646
X1.3437Y-1.6923
X1.3645Y-2.7854
X1.3681Y-3.3957
X1.3937Y-3.1427
X1.3983Y-3.1988
X1.3991Y-2.9154
X1.4075Y-1.7913
X1.4075Y-3.2283
X1.4075Y-3.2579
X1.4075Y-3.4744
X1.4145Y-1.3475
X1.4469Y-3.2382
X1.4469Y-3.0906
X1.4567Y-1.5354
X1.4665Y-3.6024
X1.4862Y-3.2087
X1.4862Y-3.3957
X1.5Y-2.63
X1.5Y-2.81
X1.5126Y-1.5206
X1.5157Y-1.3287
X1.5354Y-2.874
X1.55Y-1.9523
X1.5551Y-1.3091
X1.5551Y-1.5551
X1.5748Y-3.5039
X1.6043Y-1.5354
X1.63Y-2.3923
X1.6339Y-3.5433
X1.65Y-1.9323
X1.6535Y-1.6634
X1.66Y-1.7023
X1.66Y-1.7623
X1.66Y-2.1823
X1.66Y-2.3723
X1.6634Y-2.7638
X1.6732Y-3.5925
X1.68Y-2.6123
X1.69Y-1.2423
X1.69Y-2.4823
X1.6929Y-1.5354
X1.7028Y-2.7362
X1.71Y-1.8223
X1.71Y-2.0623
X1.71Y-2.1223
X1.7109Y-1.8823
X1.72Y-2.67
X1.73Y-1.5123
X1.73Y-1.7623
X1.75Y-1.6123
X1.7539Y-2.6123
X1.76Y-1.5323
X1.7635Y-1.4788
X1.78Y-1.3223
X1.78Y-1.5023
X1.7877Y-1.4669
X1.7903Y-1.432
X1.8Y-1.7923
X1.8Y-2.5591
X1.8081Y-1.3737
X1.8095Y-1.7373
X1.81Y-1.2823
X1.81Y-1.4023
X1.8191Y-1.8223
X1.82Y-2.1223
X1.82Y-2.1823
X1.82Y-2.2423
X1.82Y-2.3023
X1.82Y-2.3723
X1.82Y-2.4423
X1.82Y-2.6923
X1.8209Y-2.628
X1.8307Y-2.7362
X1.8504Y-2.9035
X1.8504Y-3.0906
X1.8602Y-3.3661
X1.8799Y-3.2087
X1.88Y-1.9623
X1.8898Y-3.3366
X1.8898Y-3.3661
X1.9154Y-3.1693
X1.9372Y-3.5187
X1.94Y-1.2823
X1.9587Y-2.3031
X1.9587Y-2.7362
X1.9587Y-2.8765
X1.96Y-1.3206
X1.9639Y-3.4728
X1.9685Y-2.2244
X1.9685Y-2.4409
X1.9783Y-2.0866
X1.98Y-1.8431
X1.98Y-2.6123
X1.98Y-2.6923
X1.99Y-1.7323
X1.99Y-1.7723
X1.99Y-2.0223
X1.9904Y-1.9135
X2.0Y-1.2731
X2.02Y-1.3423
X2.02Y-1.8223
X2.02Y-3.4323
X2.03Y-1.9123
X2.04Y-1.6323
X2.0472Y-3.248
X2.0531Y-3.002
X2.0546Y-1.6729
X2.0571Y-2.815
X2.0642Y-3.4504
X2.0669Y-2.4114
X2.0768Y-3.2185
X2.0866Y-2.9006
X2.09Y-3.0723
X2.1233Y-2.2656
X2.13Y-1.5123
X2.13Y-1.5423
X2.13Y-1.5723
X2.13Y-1.6023
X2.13Y-1.6323
X2.15Y-2.1523
X2.1502Y-1.4425
X2.1506Y-2.9281
X2.16Y-1.4031
X2.17Y-3.5123
X2.1754Y-2.9906
X2.18Y-1.5123
X2.18Y-1.5423
X2.18Y-1.5723
X2.18Y-1.6023
X2.18Y-1.6323
X2.19Y-2.35
X2.19Y-3.4323
X2.2Y-2.2023
X2.2Y-2.2623
X2.2146Y-2.9921
X2.218Y-2.9333
X2.22Y-2.4223
X2.23Y-1.5123
X2.23Y-1.5423
X2.23Y-1.5723
X2.23Y-1.6023
X2.23Y-1.6323
X2.246Y-3.0624
X2.25Y-3.1823
X2.2594Y-2.4219
X2.26Y-2.2023
X2.26Y-2.2623
X2.27Y-3.5723
X2.28Y-2.9723
X2.29Y-2.4223
X2.3Y-2.3423
X2.31Y-2.3123
X2.313Y-2.9528
X2.32Y-2.8923
X2.3228Y-3.189
X2.33Y-2.3331
X2.33Y-2.6223
X2.33Y-3.5723
X2.3552Y-3.6281
X2.36Y-3.4323
X2.3622Y-2.0748
X2.37Y-2.2823
X2.372Y-2.2441
X2.3819Y-3.3169
X2.39Y-1.3123
X2.39Y-1.6223
X2.39Y-3.0723
X2.39Y-3.5723
X2.3982Y-3.0015
X2.4016Y-2.1161
X2.41Y-2.4723
X2.412Y-2.3903
X2.4191Y-1.3209
X2.42Y-1.53
X2.4283Y-2.6424
X2.43Y-3.1523
X2.4409Y-3.189
X2.4409Y-3.3169
X2.45Y-1.7223
X2.45Y-2.9523
X2.46Y-2.5623
X2.46Y-2.7317
X2.4606Y-3.63
X2.47Y-3.5523
X2.48Y-1.2823
X2.48Y-1.3823
X2.5197Y-2.9626
X2.5197Y-3.3406
X2.52Y-3.4214
X2.52Y-3.5723
X2.53Y-2.3523
X2.5374Y-2.1358
X2.54Y-2.4723
X2.54Y-2.5323
X2.55Y-3.6023
X2.5591Y-2.0768
X2.56Y-3.2423
X2.5682Y-2.3123
X2.5886Y-3.1988
X2.59Y-2.2823
X2.59Y-3.2923
X2.6Y-1.9223
X2.61Y-1.2723
X2.6117Y-2.2244
X2.62Y-2.2614
X2.62Y-2.5723
X2.62Y-2.7123
X2.63Y-1.3923
X2.6378Y-3.1201
X2.65Y-2.3723
X2.6673Y-3.5039
X2.69Y-2.8523
X2.6913Y-3.079
X2.71Y-1.6323
X2.71Y-2.7723
X2.72Y-1.4423
X2.72Y-1.9
X2.72Y-2.6423
X2.73Y-2.2523
X2.7362Y-3.5236
X2.74Y-3.2023
X2.76Y-1.9523
X2.76Y-2.0323
X2.76Y-2.1023
X2.76Y-2.1823
X2.7657Y-3.622
X2.77Y-1.5523
X2.77Y-1.6923
X2.77Y-1.7623
X2.77Y-2.4223
X2.77Y-2.7023
X2.77Y-2.9323
X2.7731Y-3.1594
X2.78Y-3.0523
X2.78Y-3.1123
X2.8Y-1.3423
X2.8051Y-3.6024
X2.8094Y-1.9039
X2.81Y-1.3923
X2.84Y-2.4623
X2.84Y-2.6323
X2.84Y-3.0823
X2.85Y-1.8223
X2.85Y-2.5023
X2.86Y-2.8523
X2.86Y-2.9323
X2.8726Y-2.5723
X2.9Y-2.3441
X2.93Y-3.23
X2.94Y-1.8123
X2.95Y-1.5923
X2.95Y-1.9423
X2.95Y-2.12
X2.96Y-2.5223
X2.96Y-2.6123
X2.97Y-1.3923
X3.01Y-1.5323
X3.01Y-1.6623
X3.01Y-1.7223
X3.01Y-1.7823
X3.01Y-1.8423
X3.01Y-2.2023
X3.02Y-1.3
X3.02Y-3.51
X3.05Y-1.38
X3.06Y-1.4423
X3.061Y-0.9646
X3.08Y-1.7823
X3.08Y-1.8423
X3.08Y-2.4123
X3.08Y-2.4723
X3.09Y-1.6323
X3.09Y-2.2023
X3.09Y-2.2723
X3.1Y-3.59
X3.101Y-1.9013
X3.1102Y-2.0669
X3.1496Y-2.1752
X3.28Y-1.6823
X3.3169Y-2.7165
X3.35Y-1.7223
X3.35Y-2.1723
X3.37Y-1.7
X3.376Y-2.4213
X3.38Y-1.77
T3
X3.01Y-2.8223
X3.01Y-2.901
X3.23Y-1.9023
X3.23Y-1.981
X3.23Y-2.0598
X3.23Y-2.1385
X1.42Y-2.6213
X1.42Y-2.7
X3.01Y-3.1035
X3.01Y-3.1823
T4
X2.23Y-2.81
X2.33Y-2.81
X2.43Y-2.81
X3.2087Y-2.3524
X3.2087Y-2.4311
X3.2087Y-2.5098
X3.2087Y-2.5886
T5
X2.8105Y-3.3858
X2.8105Y-1.0858
X1.6105Y-1.0858
T6
X2.3327Y-0.889
X2.3622Y-0.889
X2.3917Y-0.889
X2.8445Y-0.889
X2.874Y-0.889
X2.9035Y-0.889
X2.2146Y-3.7008
X2.2441Y-3.7008
X2.2736Y-3.7008
X3.1988Y-3.7008
X3.2283Y-3.7008
X3.2579Y-3.7008
X1.8602Y-0.889
X1.8898Y-0.889
X1.9193Y-0.889
X1.1516Y-3.7008
X1.1811Y-3.7008
X1.2106Y-3.7008
T7
X1.6105Y-3.3858
T2
G00X2.1135Y-2.54
M15
G01X2.086Y-2.54
M16
G05
G00X2.2317Y-2.6246
M15
G01X2.1883Y-2.6246
M16
G05
G00X2.334Y-2.54
M15
G01X2.3065Y-2.54
M16
G05
T0
M30
