%TF.GenerationSoftware,KiCad,Pcbnew,(5.1.8)-1*%
%TF.CreationDate,2020-12-22T12:44:13-05:00*%
%TF.ProjectId,uratt,75726174-742e-46b6-9963-61645f706362,rev?*%
%TF.SameCoordinates,Original*%
%TF.FileFunction,Paste,Top*%
%TF.FilePolarity,Positive*%
%FSLAX46Y46*%
G04 Gerber Fmt 4.6, Leading zero omitted, Abs format (unit mm)*
G04 Created by KiCad (PCBNEW (5.1.8)-1) date 2020-12-22 12:44:13*
%MOMM*%
%LPD*%
G01*
G04 APERTURE LIST*
%ADD10R,2.800000X1.000000*%
%ADD11R,2.300000X2.500000*%
%ADD12R,3.100000X2.300000*%
%ADD13R,1.100000X0.300000*%
%ADD14C,0.600000*%
%ADD15R,2.310000X2.460000*%
%ADD16R,0.450000X1.500000*%
%ADD17R,2.000000X4.200000*%
%ADD18R,0.900000X0.800000*%
%ADD19R,1.220000X0.650000*%
%ADD20R,0.650000X1.060000*%
%ADD21R,2.000000X0.900000*%
%ADD22R,0.900000X2.000000*%
%ADD23R,5.000000X5.000000*%
%ADD24R,5.400000X2.900000*%
%ADD25R,1.550000X1.000000*%
%ADD26R,1.500000X1.500000*%
%ADD27R,1.750000X0.700000*%
%ADD28R,1.400000X0.800000*%
%ADD29R,1.000000X1.450000*%
%ADD30R,1.500000X0.800000*%
%ADD31R,1.500000X1.300000*%
%ADD32R,0.600000X0.200000*%
G04 APERTURE END LIST*
D10*
%TO.C,SW3*%
X80370000Y-114268000D03*
X74570000Y-114268000D03*
X80370000Y-110268000D03*
X74570000Y-110268000D03*
%TD*%
%TO.C,JP6*%
G36*
G01*
X38375000Y-72473000D02*
X37825000Y-72473000D01*
G75*
G02*
X37625000Y-72273000I0J200000D01*
G01*
X37625000Y-71873000D01*
G75*
G02*
X37825000Y-71673000I200000J0D01*
G01*
X38375000Y-71673000D01*
G75*
G02*
X38575000Y-71873000I0J-200000D01*
G01*
X38575000Y-72273000D01*
G75*
G02*
X38375000Y-72473000I-200000J0D01*
G01*
G37*
G36*
G01*
X38375000Y-74123000D02*
X37825000Y-74123000D01*
G75*
G02*
X37625000Y-73923000I0J200000D01*
G01*
X37625000Y-73523000D01*
G75*
G02*
X37825000Y-73323000I200000J0D01*
G01*
X38375000Y-73323000D01*
G75*
G02*
X38575000Y-73523000I0J-200000D01*
G01*
X38575000Y-73923000D01*
G75*
G02*
X38375000Y-74123000I-200000J0D01*
G01*
G37*
%TD*%
%TO.C,JP5*%
G36*
G01*
X35581000Y-72473000D02*
X35031000Y-72473000D01*
G75*
G02*
X34831000Y-72273000I0J200000D01*
G01*
X34831000Y-71873000D01*
G75*
G02*
X35031000Y-71673000I200000J0D01*
G01*
X35581000Y-71673000D01*
G75*
G02*
X35781000Y-71873000I0J-200000D01*
G01*
X35781000Y-72273000D01*
G75*
G02*
X35581000Y-72473000I-200000J0D01*
G01*
G37*
G36*
G01*
X35581000Y-74123000D02*
X35031000Y-74123000D01*
G75*
G02*
X34831000Y-73923000I0J200000D01*
G01*
X34831000Y-73523000D01*
G75*
G02*
X35031000Y-73323000I200000J0D01*
G01*
X35581000Y-73323000D01*
G75*
G02*
X35781000Y-73523000I0J-200000D01*
G01*
X35781000Y-73923000D01*
G75*
G02*
X35581000Y-74123000I-200000J0D01*
G01*
G37*
%TD*%
%TO.C,R55*%
G36*
G01*
X77133000Y-34311000D02*
X77133000Y-33761000D01*
G75*
G02*
X77333000Y-33561000I200000J0D01*
G01*
X77733000Y-33561000D01*
G75*
G02*
X77933000Y-33761000I0J-200000D01*
G01*
X77933000Y-34311000D01*
G75*
G02*
X77733000Y-34511000I-200000J0D01*
G01*
X77333000Y-34511000D01*
G75*
G02*
X77133000Y-34311000I0J200000D01*
G01*
G37*
G36*
G01*
X75483000Y-34311000D02*
X75483000Y-33761000D01*
G75*
G02*
X75683000Y-33561000I200000J0D01*
G01*
X76083000Y-33561000D01*
G75*
G02*
X76283000Y-33761000I0J-200000D01*
G01*
X76283000Y-34311000D01*
G75*
G02*
X76083000Y-34511000I-200000J0D01*
G01*
X75683000Y-34511000D01*
G75*
G02*
X75483000Y-34311000I0J200000D01*
G01*
G37*
%TD*%
%TO.C,R54*%
G36*
G01*
X70187000Y-47223000D02*
X70187000Y-47773000D01*
G75*
G02*
X69987000Y-47973000I-200000J0D01*
G01*
X69587000Y-47973000D01*
G75*
G02*
X69387000Y-47773000I0J200000D01*
G01*
X69387000Y-47223000D01*
G75*
G02*
X69587000Y-47023000I200000J0D01*
G01*
X69987000Y-47023000D01*
G75*
G02*
X70187000Y-47223000I0J-200000D01*
G01*
G37*
G36*
G01*
X71837000Y-47223000D02*
X71837000Y-47773000D01*
G75*
G02*
X71637000Y-47973000I-200000J0D01*
G01*
X71237000Y-47973000D01*
G75*
G02*
X71037000Y-47773000I0J200000D01*
G01*
X71037000Y-47223000D01*
G75*
G02*
X71237000Y-47023000I200000J0D01*
G01*
X71637000Y-47023000D01*
G75*
G02*
X71837000Y-47223000I0J-200000D01*
G01*
G37*
%TD*%
%TO.C,FB4*%
G36*
G01*
X84330250Y-43846000D02*
X83817750Y-43846000D01*
G75*
G02*
X83599000Y-43627250I0J218750D01*
G01*
X83599000Y-43189750D01*
G75*
G02*
X83817750Y-42971000I218750J0D01*
G01*
X84330250Y-42971000D01*
G75*
G02*
X84549000Y-43189750I0J-218750D01*
G01*
X84549000Y-43627250D01*
G75*
G02*
X84330250Y-43846000I-218750J0D01*
G01*
G37*
G36*
G01*
X84330250Y-45421000D02*
X83817750Y-45421000D01*
G75*
G02*
X83599000Y-45202250I0J218750D01*
G01*
X83599000Y-44764750D01*
G75*
G02*
X83817750Y-44546000I218750J0D01*
G01*
X84330250Y-44546000D01*
G75*
G02*
X84549000Y-44764750I0J-218750D01*
G01*
X84549000Y-45202250D01*
G75*
G02*
X84330250Y-45421000I-218750J0D01*
G01*
G37*
%TD*%
%TO.C,FB3*%
G36*
G01*
X80774250Y-43846000D02*
X80261750Y-43846000D01*
G75*
G02*
X80043000Y-43627250I0J218750D01*
G01*
X80043000Y-43189750D01*
G75*
G02*
X80261750Y-42971000I218750J0D01*
G01*
X80774250Y-42971000D01*
G75*
G02*
X80993000Y-43189750I0J-218750D01*
G01*
X80993000Y-43627250D01*
G75*
G02*
X80774250Y-43846000I-218750J0D01*
G01*
G37*
G36*
G01*
X80774250Y-45421000D02*
X80261750Y-45421000D01*
G75*
G02*
X80043000Y-45202250I0J218750D01*
G01*
X80043000Y-44764750D01*
G75*
G02*
X80261750Y-44546000I218750J0D01*
G01*
X80774250Y-44546000D01*
G75*
G02*
X80993000Y-44764750I0J-218750D01*
G01*
X80993000Y-45202250D01*
G75*
G02*
X80774250Y-45421000I-218750J0D01*
G01*
G37*
%TD*%
%TO.C,F1*%
G36*
G01*
X81397000Y-88633000D02*
X80147000Y-88633000D01*
G75*
G02*
X79897000Y-88383000I0J250000D01*
G01*
X79897000Y-87633000D01*
G75*
G02*
X80147000Y-87383000I250000J0D01*
G01*
X81397000Y-87383000D01*
G75*
G02*
X81647000Y-87633000I0J-250000D01*
G01*
X81647000Y-88383000D01*
G75*
G02*
X81397000Y-88633000I-250000J0D01*
G01*
G37*
G36*
G01*
X81397000Y-91433000D02*
X80147000Y-91433000D01*
G75*
G02*
X79897000Y-91183000I0J250000D01*
G01*
X79897000Y-90433000D01*
G75*
G02*
X80147000Y-90183000I250000J0D01*
G01*
X81397000Y-90183000D01*
G75*
G02*
X81647000Y-90433000I0J-250000D01*
G01*
X81647000Y-91183000D01*
G75*
G02*
X81397000Y-91433000I-250000J0D01*
G01*
G37*
%TD*%
D11*
%TO.C,D12*%
X76962000Y-91050000D03*
X76962000Y-86750000D03*
%TD*%
D12*
%TO.C,J3*%
X38512000Y-40300001D03*
X38512000Y-32460001D03*
D13*
X40212000Y-38630001D03*
X40212000Y-38130001D03*
X40212000Y-37630001D03*
X40212000Y-37130001D03*
X40212000Y-36630001D03*
X40212000Y-36130001D03*
X40212000Y-35630001D03*
X40212000Y-35130001D03*
X40212000Y-34630001D03*
X40212000Y-34130001D03*
%TD*%
%TO.C,D1*%
G36*
G01*
X58986000Y-66149751D02*
X58986000Y-67062251D01*
G75*
G02*
X58742250Y-67306001I-243750J0D01*
G01*
X58254750Y-67306001D01*
G75*
G02*
X58011000Y-67062251I0J243750D01*
G01*
X58011000Y-66149751D01*
G75*
G02*
X58254750Y-65906001I243750J0D01*
G01*
X58742250Y-65906001D01*
G75*
G02*
X58986000Y-66149751I0J-243750D01*
G01*
G37*
G36*
G01*
X60861000Y-66149751D02*
X60861000Y-67062251D01*
G75*
G02*
X60617250Y-67306001I-243750J0D01*
G01*
X60129750Y-67306001D01*
G75*
G02*
X59886000Y-67062251I0J243750D01*
G01*
X59886000Y-66149751D01*
G75*
G02*
X60129750Y-65906001I243750J0D01*
G01*
X60617250Y-65906001D01*
G75*
G02*
X60861000Y-66149751I0J-243750D01*
G01*
G37*
%TD*%
%TO.C,R24*%
G36*
G01*
X76283000Y-52107001D02*
X76283000Y-52657001D01*
G75*
G02*
X76083000Y-52857001I-200000J0D01*
G01*
X75683000Y-52857001D01*
G75*
G02*
X75483000Y-52657001I0J200000D01*
G01*
X75483000Y-52107001D01*
G75*
G02*
X75683000Y-51907001I200000J0D01*
G01*
X76083000Y-51907001D01*
G75*
G02*
X76283000Y-52107001I0J-200000D01*
G01*
G37*
G36*
G01*
X77933000Y-52107001D02*
X77933000Y-52657001D01*
G75*
G02*
X77733000Y-52857001I-200000J0D01*
G01*
X77333000Y-52857001D01*
G75*
G02*
X77133000Y-52657001I0J200000D01*
G01*
X77133000Y-52107001D01*
G75*
G02*
X77333000Y-51907001I200000J0D01*
G01*
X77733000Y-51907001D01*
G75*
G02*
X77933000Y-52107001I0J-200000D01*
G01*
G37*
%TD*%
D14*
%TO.C,GT1*%
X37719000Y-90355001D03*
X37719000Y-89656501D03*
X38290500Y-89339001D03*
X38290500Y-90037501D03*
X38290500Y-90736001D03*
X39687500Y-90355001D03*
X39687500Y-89656501D03*
X39116000Y-89339001D03*
X39116000Y-90037501D03*
X39116000Y-90736001D03*
%TD*%
D15*
%TO.C,U6*%
X34036000Y-85656001D03*
D16*
X31761000Y-82756001D03*
X31761000Y-88556001D03*
X32411000Y-82756001D03*
X32411000Y-88556001D03*
X33061000Y-82756001D03*
X33061000Y-88556001D03*
X33711000Y-82756001D03*
X33711000Y-88556001D03*
X34361000Y-82756001D03*
X34361000Y-88556001D03*
X35011000Y-82756001D03*
X35011000Y-88556001D03*
X35661000Y-82756001D03*
X35661000Y-88556001D03*
X36311000Y-82756001D03*
X36311000Y-88556001D03*
%TD*%
%TO.C,C28*%
G36*
G01*
X28031000Y-86827001D02*
X29881000Y-86827001D01*
G75*
G02*
X30131000Y-87077001I0J-250000D01*
G01*
X30131000Y-88652001D01*
G75*
G02*
X29881000Y-88902001I-250000J0D01*
G01*
X28031000Y-88902001D01*
G75*
G02*
X27781000Y-88652001I0J250000D01*
G01*
X27781000Y-87077001D01*
G75*
G02*
X28031000Y-86827001I250000J0D01*
G01*
G37*
G36*
G01*
X28031000Y-81902001D02*
X29881000Y-81902001D01*
G75*
G02*
X30131000Y-82152001I0J-250000D01*
G01*
X30131000Y-83727001D01*
G75*
G02*
X29881000Y-83977001I-250000J0D01*
G01*
X28031000Y-83977001D01*
G75*
G02*
X27781000Y-83727001I0J250000D01*
G01*
X27781000Y-82152001D01*
G75*
G02*
X28031000Y-81902001I250000J0D01*
G01*
G37*
%TD*%
D17*
%TO.C,BZ1*%
X72200000Y-101076000D03*
X80200000Y-101076000D03*
%TD*%
D18*
%TO.C,Q2*%
X71358000Y-58986001D03*
X69358000Y-59936001D03*
X69358000Y-58036001D03*
%TD*%
%TO.C,Q1*%
X71358000Y-62542001D03*
X69358000Y-63492001D03*
X69358000Y-61592001D03*
%TD*%
D19*
%TO.C,U9*%
X41108000Y-67302001D03*
X41108000Y-66352001D03*
X41108000Y-65402001D03*
X43728000Y-65402001D03*
X43728000Y-66352001D03*
X43728000Y-67302001D03*
%TD*%
D20*
%TO.C,U8*%
X61656000Y-79136001D03*
X59756000Y-79136001D03*
X59756000Y-76936001D03*
X60706000Y-76936001D03*
X61656000Y-76936001D03*
%TD*%
%TO.C,U7*%
X55814000Y-79136001D03*
X53914000Y-79136001D03*
X53914000Y-76936001D03*
X54864000Y-76936001D03*
X55814000Y-76936001D03*
%TD*%
%TO.C,U5*%
G36*
G01*
X63387000Y-84547001D02*
X63187000Y-84547001D01*
G75*
G02*
X63087000Y-84447001I0J100000D01*
G01*
X63087000Y-83172001D01*
G75*
G02*
X63187000Y-83072001I100000J0D01*
G01*
X63387000Y-83072001D01*
G75*
G02*
X63487000Y-83172001I0J-100000D01*
G01*
X63487000Y-84447001D01*
G75*
G02*
X63387000Y-84547001I-100000J0D01*
G01*
G37*
G36*
G01*
X64037000Y-84547001D02*
X63837000Y-84547001D01*
G75*
G02*
X63737000Y-84447001I0J100000D01*
G01*
X63737000Y-83172001D01*
G75*
G02*
X63837000Y-83072001I100000J0D01*
G01*
X64037000Y-83072001D01*
G75*
G02*
X64137000Y-83172001I0J-100000D01*
G01*
X64137000Y-84447001D01*
G75*
G02*
X64037000Y-84547001I-100000J0D01*
G01*
G37*
G36*
G01*
X64687000Y-84547001D02*
X64487000Y-84547001D01*
G75*
G02*
X64387000Y-84447001I0J100000D01*
G01*
X64387000Y-83172001D01*
G75*
G02*
X64487000Y-83072001I100000J0D01*
G01*
X64687000Y-83072001D01*
G75*
G02*
X64787000Y-83172001I0J-100000D01*
G01*
X64787000Y-84447001D01*
G75*
G02*
X64687000Y-84547001I-100000J0D01*
G01*
G37*
G36*
G01*
X65337000Y-84547001D02*
X65137000Y-84547001D01*
G75*
G02*
X65037000Y-84447001I0J100000D01*
G01*
X65037000Y-83172001D01*
G75*
G02*
X65137000Y-83072001I100000J0D01*
G01*
X65337000Y-83072001D01*
G75*
G02*
X65437000Y-83172001I0J-100000D01*
G01*
X65437000Y-84447001D01*
G75*
G02*
X65337000Y-84547001I-100000J0D01*
G01*
G37*
G36*
G01*
X65337000Y-90272001D02*
X65137000Y-90272001D01*
G75*
G02*
X65037000Y-90172001I0J100000D01*
G01*
X65037000Y-88897001D01*
G75*
G02*
X65137000Y-88797001I100000J0D01*
G01*
X65337000Y-88797001D01*
G75*
G02*
X65437000Y-88897001I0J-100000D01*
G01*
X65437000Y-90172001D01*
G75*
G02*
X65337000Y-90272001I-100000J0D01*
G01*
G37*
G36*
G01*
X64687000Y-90272001D02*
X64487000Y-90272001D01*
G75*
G02*
X64387000Y-90172001I0J100000D01*
G01*
X64387000Y-88897001D01*
G75*
G02*
X64487000Y-88797001I100000J0D01*
G01*
X64687000Y-88797001D01*
G75*
G02*
X64787000Y-88897001I0J-100000D01*
G01*
X64787000Y-90172001D01*
G75*
G02*
X64687000Y-90272001I-100000J0D01*
G01*
G37*
G36*
G01*
X64037000Y-90272001D02*
X63837000Y-90272001D01*
G75*
G02*
X63737000Y-90172001I0J100000D01*
G01*
X63737000Y-88897001D01*
G75*
G02*
X63837000Y-88797001I100000J0D01*
G01*
X64037000Y-88797001D01*
G75*
G02*
X64137000Y-88897001I0J-100000D01*
G01*
X64137000Y-90172001D01*
G75*
G02*
X64037000Y-90272001I-100000J0D01*
G01*
G37*
G36*
G01*
X63387000Y-90272001D02*
X63187000Y-90272001D01*
G75*
G02*
X63087000Y-90172001I0J100000D01*
G01*
X63087000Y-88897001D01*
G75*
G02*
X63187000Y-88797001I100000J0D01*
G01*
X63387000Y-88797001D01*
G75*
G02*
X63487000Y-88897001I0J-100000D01*
G01*
X63487000Y-90172001D01*
G75*
G02*
X63387000Y-90272001I-100000J0D01*
G01*
G37*
%TD*%
%TO.C,U4*%
X71562000Y-80406001D03*
X69662000Y-80406001D03*
X69662000Y-78206001D03*
X70612000Y-78206001D03*
X71562000Y-78206001D03*
%TD*%
D21*
%TO.C,U3*%
X64634000Y-32443001D03*
X64634000Y-33713001D03*
X64634000Y-34983001D03*
X64634000Y-36253001D03*
X64634000Y-37523001D03*
X64634000Y-38793001D03*
X64634000Y-40063001D03*
X64634000Y-41333001D03*
X64634000Y-42603001D03*
X64634000Y-43873001D03*
X64634000Y-45143001D03*
X64634000Y-46413001D03*
X64634000Y-47683001D03*
X64634000Y-48953001D03*
D22*
X61849000Y-49953001D03*
X60579000Y-49953001D03*
X59309000Y-49953001D03*
X58039000Y-49953001D03*
X56769000Y-49953001D03*
X55499000Y-49953001D03*
X54229000Y-49953001D03*
X52959000Y-49953001D03*
X51689000Y-49953001D03*
X50419000Y-49953001D03*
D21*
X47634000Y-48953001D03*
X47634000Y-47683001D03*
X47634000Y-46413001D03*
X47634000Y-45143001D03*
X47634000Y-43873001D03*
X47634000Y-42603001D03*
X47634000Y-41333001D03*
X47634000Y-40063001D03*
X47634000Y-38793001D03*
X47634000Y-37523001D03*
X47634000Y-36253001D03*
X47634000Y-34983001D03*
X47634000Y-33713001D03*
X47634000Y-32443001D03*
D23*
X55134000Y-39943001D03*
%TD*%
%TO.C,U2*%
G36*
G01*
X57567001Y-56575001D02*
X57016999Y-56575001D01*
G75*
G02*
X56767000Y-56325002I0J249999D01*
G01*
X56767000Y-55775000D01*
G75*
G02*
X57016999Y-55525001I249999J0D01*
G01*
X57567001Y-55525001D01*
G75*
G02*
X57817000Y-55775000I0J-249999D01*
G01*
X57817000Y-56325002D01*
G75*
G02*
X57567001Y-56575001I-249999J0D01*
G01*
G37*
G36*
G01*
X56267001Y-56575001D02*
X55716999Y-56575001D01*
G75*
G02*
X55467000Y-56325002I0J249999D01*
G01*
X55467000Y-55775000D01*
G75*
G02*
X55716999Y-55525001I249999J0D01*
G01*
X56267001Y-55525001D01*
G75*
G02*
X56517000Y-55775000I0J-249999D01*
G01*
X56517000Y-56325002D01*
G75*
G02*
X56267001Y-56575001I-249999J0D01*
G01*
G37*
G36*
G01*
X57567001Y-57875001D02*
X57016999Y-57875001D01*
G75*
G02*
X56767000Y-57625002I0J249999D01*
G01*
X56767000Y-57075000D01*
G75*
G02*
X57016999Y-56825001I249999J0D01*
G01*
X57567001Y-56825001D01*
G75*
G02*
X57817000Y-57075000I0J-249999D01*
G01*
X57817000Y-57625002D01*
G75*
G02*
X57567001Y-57875001I-249999J0D01*
G01*
G37*
G36*
G01*
X56267001Y-57875001D02*
X55716999Y-57875001D01*
G75*
G02*
X55467000Y-57625002I0J249999D01*
G01*
X55467000Y-57075000D01*
G75*
G02*
X55716999Y-56825001I249999J0D01*
G01*
X56267001Y-56825001D01*
G75*
G02*
X56517000Y-57075000I0J-249999D01*
G01*
X56517000Y-57625002D01*
G75*
G02*
X56267001Y-57875001I-249999J0D01*
G01*
G37*
G36*
G01*
X55054500Y-58075001D02*
X54354500Y-58075001D01*
G75*
G02*
X54292000Y-58012501I0J62500D01*
G01*
X54292000Y-57887501D01*
G75*
G02*
X54354500Y-57825001I62500J0D01*
G01*
X55054500Y-57825001D01*
G75*
G02*
X55117000Y-57887501I0J-62500D01*
G01*
X55117000Y-58012501D01*
G75*
G02*
X55054500Y-58075001I-62500J0D01*
G01*
G37*
G36*
G01*
X55054500Y-57575001D02*
X54354500Y-57575001D01*
G75*
G02*
X54292000Y-57512501I0J62500D01*
G01*
X54292000Y-57387501D01*
G75*
G02*
X54354500Y-57325001I62500J0D01*
G01*
X55054500Y-57325001D01*
G75*
G02*
X55117000Y-57387501I0J-62500D01*
G01*
X55117000Y-57512501D01*
G75*
G02*
X55054500Y-57575001I-62500J0D01*
G01*
G37*
G36*
G01*
X55054500Y-57075001D02*
X54354500Y-57075001D01*
G75*
G02*
X54292000Y-57012501I0J62500D01*
G01*
X54292000Y-56887501D01*
G75*
G02*
X54354500Y-56825001I62500J0D01*
G01*
X55054500Y-56825001D01*
G75*
G02*
X55117000Y-56887501I0J-62500D01*
G01*
X55117000Y-57012501D01*
G75*
G02*
X55054500Y-57075001I-62500J0D01*
G01*
G37*
G36*
G01*
X55054500Y-56575001D02*
X54354500Y-56575001D01*
G75*
G02*
X54292000Y-56512501I0J62500D01*
G01*
X54292000Y-56387501D01*
G75*
G02*
X54354500Y-56325001I62500J0D01*
G01*
X55054500Y-56325001D01*
G75*
G02*
X55117000Y-56387501I0J-62500D01*
G01*
X55117000Y-56512501D01*
G75*
G02*
X55054500Y-56575001I-62500J0D01*
G01*
G37*
G36*
G01*
X55054500Y-56075001D02*
X54354500Y-56075001D01*
G75*
G02*
X54292000Y-56012501I0J62500D01*
G01*
X54292000Y-55887501D01*
G75*
G02*
X54354500Y-55825001I62500J0D01*
G01*
X55054500Y-55825001D01*
G75*
G02*
X55117000Y-55887501I0J-62500D01*
G01*
X55117000Y-56012501D01*
G75*
G02*
X55054500Y-56075001I-62500J0D01*
G01*
G37*
G36*
G01*
X55054500Y-55575001D02*
X54354500Y-55575001D01*
G75*
G02*
X54292000Y-55512501I0J62500D01*
G01*
X54292000Y-55387501D01*
G75*
G02*
X54354500Y-55325001I62500J0D01*
G01*
X55054500Y-55325001D01*
G75*
G02*
X55117000Y-55387501I0J-62500D01*
G01*
X55117000Y-55512501D01*
G75*
G02*
X55054500Y-55575001I-62500J0D01*
G01*
G37*
G36*
G01*
X55454500Y-55175001D02*
X55329500Y-55175001D01*
G75*
G02*
X55267000Y-55112501I0J62500D01*
G01*
X55267000Y-54412501D01*
G75*
G02*
X55329500Y-54350001I62500J0D01*
G01*
X55454500Y-54350001D01*
G75*
G02*
X55517000Y-54412501I0J-62500D01*
G01*
X55517000Y-55112501D01*
G75*
G02*
X55454500Y-55175001I-62500J0D01*
G01*
G37*
G36*
G01*
X55954500Y-55175001D02*
X55829500Y-55175001D01*
G75*
G02*
X55767000Y-55112501I0J62500D01*
G01*
X55767000Y-54412501D01*
G75*
G02*
X55829500Y-54350001I62500J0D01*
G01*
X55954500Y-54350001D01*
G75*
G02*
X56017000Y-54412501I0J-62500D01*
G01*
X56017000Y-55112501D01*
G75*
G02*
X55954500Y-55175001I-62500J0D01*
G01*
G37*
G36*
G01*
X56454500Y-55175001D02*
X56329500Y-55175001D01*
G75*
G02*
X56267000Y-55112501I0J62500D01*
G01*
X56267000Y-54412501D01*
G75*
G02*
X56329500Y-54350001I62500J0D01*
G01*
X56454500Y-54350001D01*
G75*
G02*
X56517000Y-54412501I0J-62500D01*
G01*
X56517000Y-55112501D01*
G75*
G02*
X56454500Y-55175001I-62500J0D01*
G01*
G37*
G36*
G01*
X56954500Y-55175001D02*
X56829500Y-55175001D01*
G75*
G02*
X56767000Y-55112501I0J62500D01*
G01*
X56767000Y-54412501D01*
G75*
G02*
X56829500Y-54350001I62500J0D01*
G01*
X56954500Y-54350001D01*
G75*
G02*
X57017000Y-54412501I0J-62500D01*
G01*
X57017000Y-55112501D01*
G75*
G02*
X56954500Y-55175001I-62500J0D01*
G01*
G37*
G36*
G01*
X57454500Y-55175001D02*
X57329500Y-55175001D01*
G75*
G02*
X57267000Y-55112501I0J62500D01*
G01*
X57267000Y-54412501D01*
G75*
G02*
X57329500Y-54350001I62500J0D01*
G01*
X57454500Y-54350001D01*
G75*
G02*
X57517000Y-54412501I0J-62500D01*
G01*
X57517000Y-55112501D01*
G75*
G02*
X57454500Y-55175001I-62500J0D01*
G01*
G37*
G36*
G01*
X57954500Y-55175001D02*
X57829500Y-55175001D01*
G75*
G02*
X57767000Y-55112501I0J62500D01*
G01*
X57767000Y-54412501D01*
G75*
G02*
X57829500Y-54350001I62500J0D01*
G01*
X57954500Y-54350001D01*
G75*
G02*
X58017000Y-54412501I0J-62500D01*
G01*
X58017000Y-55112501D01*
G75*
G02*
X57954500Y-55175001I-62500J0D01*
G01*
G37*
G36*
G01*
X58929500Y-55575001D02*
X58229500Y-55575001D01*
G75*
G02*
X58167000Y-55512501I0J62500D01*
G01*
X58167000Y-55387501D01*
G75*
G02*
X58229500Y-55325001I62500J0D01*
G01*
X58929500Y-55325001D01*
G75*
G02*
X58992000Y-55387501I0J-62500D01*
G01*
X58992000Y-55512501D01*
G75*
G02*
X58929500Y-55575001I-62500J0D01*
G01*
G37*
G36*
G01*
X58929500Y-56075001D02*
X58229500Y-56075001D01*
G75*
G02*
X58167000Y-56012501I0J62500D01*
G01*
X58167000Y-55887501D01*
G75*
G02*
X58229500Y-55825001I62500J0D01*
G01*
X58929500Y-55825001D01*
G75*
G02*
X58992000Y-55887501I0J-62500D01*
G01*
X58992000Y-56012501D01*
G75*
G02*
X58929500Y-56075001I-62500J0D01*
G01*
G37*
G36*
G01*
X58929500Y-56575001D02*
X58229500Y-56575001D01*
G75*
G02*
X58167000Y-56512501I0J62500D01*
G01*
X58167000Y-56387501D01*
G75*
G02*
X58229500Y-56325001I62500J0D01*
G01*
X58929500Y-56325001D01*
G75*
G02*
X58992000Y-56387501I0J-62500D01*
G01*
X58992000Y-56512501D01*
G75*
G02*
X58929500Y-56575001I-62500J0D01*
G01*
G37*
G36*
G01*
X58929500Y-57075001D02*
X58229500Y-57075001D01*
G75*
G02*
X58167000Y-57012501I0J62500D01*
G01*
X58167000Y-56887501D01*
G75*
G02*
X58229500Y-56825001I62500J0D01*
G01*
X58929500Y-56825001D01*
G75*
G02*
X58992000Y-56887501I0J-62500D01*
G01*
X58992000Y-57012501D01*
G75*
G02*
X58929500Y-57075001I-62500J0D01*
G01*
G37*
G36*
G01*
X58929500Y-57575001D02*
X58229500Y-57575001D01*
G75*
G02*
X58167000Y-57512501I0J62500D01*
G01*
X58167000Y-57387501D01*
G75*
G02*
X58229500Y-57325001I62500J0D01*
G01*
X58929500Y-57325001D01*
G75*
G02*
X58992000Y-57387501I0J-62500D01*
G01*
X58992000Y-57512501D01*
G75*
G02*
X58929500Y-57575001I-62500J0D01*
G01*
G37*
G36*
G01*
X58929500Y-58075001D02*
X58229500Y-58075001D01*
G75*
G02*
X58167000Y-58012501I0J62500D01*
G01*
X58167000Y-57887501D01*
G75*
G02*
X58229500Y-57825001I62500J0D01*
G01*
X58929500Y-57825001D01*
G75*
G02*
X58992000Y-57887501I0J-62500D01*
G01*
X58992000Y-58012501D01*
G75*
G02*
X58929500Y-58075001I-62500J0D01*
G01*
G37*
G36*
G01*
X57954500Y-59050001D02*
X57829500Y-59050001D01*
G75*
G02*
X57767000Y-58987501I0J62500D01*
G01*
X57767000Y-58287501D01*
G75*
G02*
X57829500Y-58225001I62500J0D01*
G01*
X57954500Y-58225001D01*
G75*
G02*
X58017000Y-58287501I0J-62500D01*
G01*
X58017000Y-58987501D01*
G75*
G02*
X57954500Y-59050001I-62500J0D01*
G01*
G37*
G36*
G01*
X57454500Y-59050001D02*
X57329500Y-59050001D01*
G75*
G02*
X57267000Y-58987501I0J62500D01*
G01*
X57267000Y-58287501D01*
G75*
G02*
X57329500Y-58225001I62500J0D01*
G01*
X57454500Y-58225001D01*
G75*
G02*
X57517000Y-58287501I0J-62500D01*
G01*
X57517000Y-58987501D01*
G75*
G02*
X57454500Y-59050001I-62500J0D01*
G01*
G37*
G36*
G01*
X56954500Y-59050001D02*
X56829500Y-59050001D01*
G75*
G02*
X56767000Y-58987501I0J62500D01*
G01*
X56767000Y-58287501D01*
G75*
G02*
X56829500Y-58225001I62500J0D01*
G01*
X56954500Y-58225001D01*
G75*
G02*
X57017000Y-58287501I0J-62500D01*
G01*
X57017000Y-58987501D01*
G75*
G02*
X56954500Y-59050001I-62500J0D01*
G01*
G37*
G36*
G01*
X56454500Y-59050001D02*
X56329500Y-59050001D01*
G75*
G02*
X56267000Y-58987501I0J62500D01*
G01*
X56267000Y-58287501D01*
G75*
G02*
X56329500Y-58225001I62500J0D01*
G01*
X56454500Y-58225001D01*
G75*
G02*
X56517000Y-58287501I0J-62500D01*
G01*
X56517000Y-58987501D01*
G75*
G02*
X56454500Y-59050001I-62500J0D01*
G01*
G37*
G36*
G01*
X55954500Y-59050001D02*
X55829500Y-59050001D01*
G75*
G02*
X55767000Y-58987501I0J62500D01*
G01*
X55767000Y-58287501D01*
G75*
G02*
X55829500Y-58225001I62500J0D01*
G01*
X55954500Y-58225001D01*
G75*
G02*
X56017000Y-58287501I0J-62500D01*
G01*
X56017000Y-58987501D01*
G75*
G02*
X55954500Y-59050001I-62500J0D01*
G01*
G37*
G36*
G01*
X55454500Y-59050001D02*
X55329500Y-59050001D01*
G75*
G02*
X55267000Y-58987501I0J62500D01*
G01*
X55267000Y-58287501D01*
G75*
G02*
X55329500Y-58225001I62500J0D01*
G01*
X55454500Y-58225001D01*
G75*
G02*
X55517000Y-58287501I0J-62500D01*
G01*
X55517000Y-58987501D01*
G75*
G02*
X55454500Y-59050001I-62500J0D01*
G01*
G37*
%TD*%
D20*
%TO.C,U1*%
X57150000Y-60680001D03*
X56200000Y-60680001D03*
X58100000Y-60680001D03*
X58100000Y-62880001D03*
X57150000Y-62880001D03*
X56200000Y-62880001D03*
%TD*%
%TO.C,R42*%
G36*
G01*
X36089000Y-93231001D02*
X35539000Y-93231001D01*
G75*
G02*
X35339000Y-93031001I0J200000D01*
G01*
X35339000Y-92631001D01*
G75*
G02*
X35539000Y-92431001I200000J0D01*
G01*
X36089000Y-92431001D01*
G75*
G02*
X36289000Y-92631001I0J-200000D01*
G01*
X36289000Y-93031001D01*
G75*
G02*
X36089000Y-93231001I-200000J0D01*
G01*
G37*
G36*
G01*
X36089000Y-91581001D02*
X35539000Y-91581001D01*
G75*
G02*
X35339000Y-91381001I0J200000D01*
G01*
X35339000Y-90981001D01*
G75*
G02*
X35539000Y-90781001I200000J0D01*
G01*
X36089000Y-90781001D01*
G75*
G02*
X36289000Y-90981001I0J-200000D01*
G01*
X36289000Y-91381001D01*
G75*
G02*
X36089000Y-91581001I-200000J0D01*
G01*
G37*
%TD*%
%TO.C,R41*%
G36*
G01*
X43263000Y-42963001D02*
X43263000Y-43513001D01*
G75*
G02*
X43063000Y-43713001I-200000J0D01*
G01*
X42663000Y-43713001D01*
G75*
G02*
X42463000Y-43513001I0J200000D01*
G01*
X42463000Y-42963001D01*
G75*
G02*
X42663000Y-42763001I200000J0D01*
G01*
X43063000Y-42763001D01*
G75*
G02*
X43263000Y-42963001I0J-200000D01*
G01*
G37*
G36*
G01*
X44913000Y-42963001D02*
X44913000Y-43513001D01*
G75*
G02*
X44713000Y-43713001I-200000J0D01*
G01*
X44313000Y-43713001D01*
G75*
G02*
X44113000Y-43513001I0J200000D01*
G01*
X44113000Y-42963001D01*
G75*
G02*
X44313000Y-42763001I200000J0D01*
G01*
X44713000Y-42763001D01*
G75*
G02*
X44913000Y-42963001I0J-200000D01*
G01*
G37*
%TD*%
%TO.C,R40*%
G36*
G01*
X33549000Y-78881001D02*
X32999000Y-78881001D01*
G75*
G02*
X32799000Y-78681001I0J200000D01*
G01*
X32799000Y-78281001D01*
G75*
G02*
X32999000Y-78081001I200000J0D01*
G01*
X33549000Y-78081001D01*
G75*
G02*
X33749000Y-78281001I0J-200000D01*
G01*
X33749000Y-78681001D01*
G75*
G02*
X33549000Y-78881001I-200000J0D01*
G01*
G37*
G36*
G01*
X33549000Y-80531001D02*
X32999000Y-80531001D01*
G75*
G02*
X32799000Y-80331001I0J200000D01*
G01*
X32799000Y-79931001D01*
G75*
G02*
X32999000Y-79731001I200000J0D01*
G01*
X33549000Y-79731001D01*
G75*
G02*
X33749000Y-79931001I0J-200000D01*
G01*
X33749000Y-80331001D01*
G75*
G02*
X33549000Y-80531001I-200000J0D01*
G01*
G37*
%TD*%
%TO.C,R39*%
G36*
G01*
X31475000Y-79731001D02*
X32025000Y-79731001D01*
G75*
G02*
X32225000Y-79931001I0J-200000D01*
G01*
X32225000Y-80331001D01*
G75*
G02*
X32025000Y-80531001I-200000J0D01*
G01*
X31475000Y-80531001D01*
G75*
G02*
X31275000Y-80331001I0J200000D01*
G01*
X31275000Y-79931001D01*
G75*
G02*
X31475000Y-79731001I200000J0D01*
G01*
G37*
G36*
G01*
X31475000Y-78081001D02*
X32025000Y-78081001D01*
G75*
G02*
X32225000Y-78281001I0J-200000D01*
G01*
X32225000Y-78681001D01*
G75*
G02*
X32025000Y-78881001I-200000J0D01*
G01*
X31475000Y-78881001D01*
G75*
G02*
X31275000Y-78681001I0J200000D01*
G01*
X31275000Y-78281001D01*
G75*
G02*
X31475000Y-78081001I200000J0D01*
G01*
G37*
%TD*%
%TO.C,R38*%
G36*
G01*
X59203000Y-82183001D02*
X58653000Y-82183001D01*
G75*
G02*
X58453000Y-81983001I0J200000D01*
G01*
X58453000Y-81583001D01*
G75*
G02*
X58653000Y-81383001I200000J0D01*
G01*
X59203000Y-81383001D01*
G75*
G02*
X59403000Y-81583001I0J-200000D01*
G01*
X59403000Y-81983001D01*
G75*
G02*
X59203000Y-82183001I-200000J0D01*
G01*
G37*
G36*
G01*
X59203000Y-83833001D02*
X58653000Y-83833001D01*
G75*
G02*
X58453000Y-83633001I0J200000D01*
G01*
X58453000Y-83233001D01*
G75*
G02*
X58653000Y-83033001I200000J0D01*
G01*
X59203000Y-83033001D01*
G75*
G02*
X59403000Y-83233001I0J-200000D01*
G01*
X59403000Y-83633001D01*
G75*
G02*
X59203000Y-83833001I-200000J0D01*
G01*
G37*
%TD*%
%TO.C,R37*%
G36*
G01*
X55647000Y-82183001D02*
X55097000Y-82183001D01*
G75*
G02*
X54897000Y-81983001I0J200000D01*
G01*
X54897000Y-81583001D01*
G75*
G02*
X55097000Y-81383001I200000J0D01*
G01*
X55647000Y-81383001D01*
G75*
G02*
X55847000Y-81583001I0J-200000D01*
G01*
X55847000Y-81983001D01*
G75*
G02*
X55647000Y-82183001I-200000J0D01*
G01*
G37*
G36*
G01*
X55647000Y-83833001D02*
X55097000Y-83833001D01*
G75*
G02*
X54897000Y-83633001I0J200000D01*
G01*
X54897000Y-83233001D01*
G75*
G02*
X55097000Y-83033001I200000J0D01*
G01*
X55647000Y-83033001D01*
G75*
G02*
X55847000Y-83233001I0J-200000D01*
G01*
X55847000Y-83633001D01*
G75*
G02*
X55647000Y-83833001I-200000J0D01*
G01*
G37*
%TD*%
%TO.C,R36*%
G36*
G01*
X53827000Y-74905001D02*
X54377000Y-74905001D01*
G75*
G02*
X54577000Y-75105001I0J-200000D01*
G01*
X54577000Y-75505001D01*
G75*
G02*
X54377000Y-75705001I-200000J0D01*
G01*
X53827000Y-75705001D01*
G75*
G02*
X53627000Y-75505001I0J200000D01*
G01*
X53627000Y-75105001D01*
G75*
G02*
X53827000Y-74905001I200000J0D01*
G01*
G37*
G36*
G01*
X53827000Y-73255001D02*
X54377000Y-73255001D01*
G75*
G02*
X54577000Y-73455001I0J-200000D01*
G01*
X54577000Y-73855001D01*
G75*
G02*
X54377000Y-74055001I-200000J0D01*
G01*
X53827000Y-74055001D01*
G75*
G02*
X53627000Y-73855001I0J200000D01*
G01*
X53627000Y-73455001D01*
G75*
G02*
X53827000Y-73255001I200000J0D01*
G01*
G37*
%TD*%
%TO.C,R35*%
G36*
G01*
X61193000Y-74651001D02*
X61743000Y-74651001D01*
G75*
G02*
X61943000Y-74851001I0J-200000D01*
G01*
X61943000Y-75251001D01*
G75*
G02*
X61743000Y-75451001I-200000J0D01*
G01*
X61193000Y-75451001D01*
G75*
G02*
X60993000Y-75251001I0J200000D01*
G01*
X60993000Y-74851001D01*
G75*
G02*
X61193000Y-74651001I200000J0D01*
G01*
G37*
G36*
G01*
X61193000Y-73001001D02*
X61743000Y-73001001D01*
G75*
G02*
X61943000Y-73201001I0J-200000D01*
G01*
X61943000Y-73601001D01*
G75*
G02*
X61743000Y-73801001I-200000J0D01*
G01*
X61193000Y-73801001D01*
G75*
G02*
X60993000Y-73601001I0J200000D01*
G01*
X60993000Y-73201001D01*
G75*
G02*
X61193000Y-73001001I200000J0D01*
G01*
G37*
%TD*%
%TO.C,R34*%
G36*
G01*
X34523000Y-79731001D02*
X35073000Y-79731001D01*
G75*
G02*
X35273000Y-79931001I0J-200000D01*
G01*
X35273000Y-80331001D01*
G75*
G02*
X35073000Y-80531001I-200000J0D01*
G01*
X34523000Y-80531001D01*
G75*
G02*
X34323000Y-80331001I0J200000D01*
G01*
X34323000Y-79931001D01*
G75*
G02*
X34523000Y-79731001I200000J0D01*
G01*
G37*
G36*
G01*
X34523000Y-78081001D02*
X35073000Y-78081001D01*
G75*
G02*
X35273000Y-78281001I0J-200000D01*
G01*
X35273000Y-78681001D01*
G75*
G02*
X35073000Y-78881001I-200000J0D01*
G01*
X34523000Y-78881001D01*
G75*
G02*
X34323000Y-78681001I0J200000D01*
G01*
X34323000Y-78281001D01*
G75*
G02*
X34523000Y-78081001I200000J0D01*
G01*
G37*
%TD*%
%TO.C,R33*%
G36*
G01*
X27157000Y-92431001D02*
X27707000Y-92431001D01*
G75*
G02*
X27907000Y-92631001I0J-200000D01*
G01*
X27907000Y-93031001D01*
G75*
G02*
X27707000Y-93231001I-200000J0D01*
G01*
X27157000Y-93231001D01*
G75*
G02*
X26957000Y-93031001I0J200000D01*
G01*
X26957000Y-92631001D01*
G75*
G02*
X27157000Y-92431001I200000J0D01*
G01*
G37*
G36*
G01*
X27157000Y-90781001D02*
X27707000Y-90781001D01*
G75*
G02*
X27907000Y-90981001I0J-200000D01*
G01*
X27907000Y-91381001D01*
G75*
G02*
X27707000Y-91581001I-200000J0D01*
G01*
X27157000Y-91581001D01*
G75*
G02*
X26957000Y-91381001I0J200000D01*
G01*
X26957000Y-90981001D01*
G75*
G02*
X27157000Y-90781001I200000J0D01*
G01*
G37*
%TD*%
%TO.C,R32*%
G36*
G01*
X30501000Y-91581001D02*
X29951000Y-91581001D01*
G75*
G02*
X29751000Y-91381001I0J200000D01*
G01*
X29751000Y-90981001D01*
G75*
G02*
X29951000Y-90781001I200000J0D01*
G01*
X30501000Y-90781001D01*
G75*
G02*
X30701000Y-90981001I0J-200000D01*
G01*
X30701000Y-91381001D01*
G75*
G02*
X30501000Y-91581001I-200000J0D01*
G01*
G37*
G36*
G01*
X30501000Y-93231001D02*
X29951000Y-93231001D01*
G75*
G02*
X29751000Y-93031001I0J200000D01*
G01*
X29751000Y-92631001D01*
G75*
G02*
X29951000Y-92431001I200000J0D01*
G01*
X30501000Y-92431001D01*
G75*
G02*
X30701000Y-92631001I0J-200000D01*
G01*
X30701000Y-93031001D01*
G75*
G02*
X30501000Y-93231001I-200000J0D01*
G01*
G37*
%TD*%
%TO.C,R31*%
G36*
G01*
X43326000Y-44487001D02*
X43326000Y-45037001D01*
G75*
G02*
X43126000Y-45237001I-200000J0D01*
G01*
X42726000Y-45237001D01*
G75*
G02*
X42526000Y-45037001I0J200000D01*
G01*
X42526000Y-44487001D01*
G75*
G02*
X42726000Y-44287001I200000J0D01*
G01*
X43126000Y-44287001D01*
G75*
G02*
X43326000Y-44487001I0J-200000D01*
G01*
G37*
G36*
G01*
X44976000Y-44487001D02*
X44976000Y-45037001D01*
G75*
G02*
X44776000Y-45237001I-200000J0D01*
G01*
X44376000Y-45237001D01*
G75*
G02*
X44176000Y-45037001I0J200000D01*
G01*
X44176000Y-44487001D01*
G75*
G02*
X44376000Y-44287001I200000J0D01*
G01*
X44776000Y-44287001D01*
G75*
G02*
X44976000Y-44487001I0J-200000D01*
G01*
G37*
%TD*%
%TO.C,R30*%
G36*
G01*
X70187000Y-70141001D02*
X70187000Y-70691001D01*
G75*
G02*
X69987000Y-70891001I-200000J0D01*
G01*
X69587000Y-70891001D01*
G75*
G02*
X69387000Y-70691001I0J200000D01*
G01*
X69387000Y-70141001D01*
G75*
G02*
X69587000Y-69941001I200000J0D01*
G01*
X69987000Y-69941001D01*
G75*
G02*
X70187000Y-70141001I0J-200000D01*
G01*
G37*
G36*
G01*
X71837000Y-70141001D02*
X71837000Y-70691001D01*
G75*
G02*
X71637000Y-70891001I-200000J0D01*
G01*
X71237000Y-70891001D01*
G75*
G02*
X71037000Y-70691001I0J200000D01*
G01*
X71037000Y-70141001D01*
G75*
G02*
X71237000Y-69941001I200000J0D01*
G01*
X71637000Y-69941001D01*
G75*
G02*
X71837000Y-70141001I0J-200000D01*
G01*
G37*
%TD*%
%TO.C,R29*%
G36*
G01*
X60981000Y-88533001D02*
X60431000Y-88533001D01*
G75*
G02*
X60231000Y-88333001I0J200000D01*
G01*
X60231000Y-87933001D01*
G75*
G02*
X60431000Y-87733001I200000J0D01*
G01*
X60981000Y-87733001D01*
G75*
G02*
X61181000Y-87933001I0J-200000D01*
G01*
X61181000Y-88333001D01*
G75*
G02*
X60981000Y-88533001I-200000J0D01*
G01*
G37*
G36*
G01*
X60981000Y-90183001D02*
X60431000Y-90183001D01*
G75*
G02*
X60231000Y-89983001I0J200000D01*
G01*
X60231000Y-89583001D01*
G75*
G02*
X60431000Y-89383001I200000J0D01*
G01*
X60981000Y-89383001D01*
G75*
G02*
X61181000Y-89583001I0J-200000D01*
G01*
X61181000Y-89983001D01*
G75*
G02*
X60981000Y-90183001I-200000J0D01*
G01*
G37*
%TD*%
%TO.C,R28*%
G36*
G01*
X57933000Y-88533001D02*
X57383000Y-88533001D01*
G75*
G02*
X57183000Y-88333001I0J200000D01*
G01*
X57183000Y-87933001D01*
G75*
G02*
X57383000Y-87733001I200000J0D01*
G01*
X57933000Y-87733001D01*
G75*
G02*
X58133000Y-87933001I0J-200000D01*
G01*
X58133000Y-88333001D01*
G75*
G02*
X57933000Y-88533001I-200000J0D01*
G01*
G37*
G36*
G01*
X57933000Y-90183001D02*
X57383000Y-90183001D01*
G75*
G02*
X57183000Y-89983001I0J200000D01*
G01*
X57183000Y-89583001D01*
G75*
G02*
X57383000Y-89383001I200000J0D01*
G01*
X57933000Y-89383001D01*
G75*
G02*
X58133000Y-89583001I0J-200000D01*
G01*
X58133000Y-89983001D01*
G75*
G02*
X57933000Y-90183001I-200000J0D01*
G01*
G37*
%TD*%
%TO.C,R27*%
G36*
G01*
X59457000Y-88533001D02*
X58907000Y-88533001D01*
G75*
G02*
X58707000Y-88333001I0J200000D01*
G01*
X58707000Y-87933001D01*
G75*
G02*
X58907000Y-87733001I200000J0D01*
G01*
X59457000Y-87733001D01*
G75*
G02*
X59657000Y-87933001I0J-200000D01*
G01*
X59657000Y-88333001D01*
G75*
G02*
X59457000Y-88533001I-200000J0D01*
G01*
G37*
G36*
G01*
X59457000Y-90183001D02*
X58907000Y-90183001D01*
G75*
G02*
X58707000Y-89983001I0J200000D01*
G01*
X58707000Y-89583001D01*
G75*
G02*
X58907000Y-89383001I200000J0D01*
G01*
X59457000Y-89383001D01*
G75*
G02*
X59657000Y-89583001I0J-200000D01*
G01*
X59657000Y-89983001D01*
G75*
G02*
X59457000Y-90183001I-200000J0D01*
G01*
G37*
%TD*%
%TO.C,R26*%
G36*
G01*
X70441000Y-75983001D02*
X70441000Y-76533001D01*
G75*
G02*
X70241000Y-76733001I-200000J0D01*
G01*
X69841000Y-76733001D01*
G75*
G02*
X69641000Y-76533001I0J200000D01*
G01*
X69641000Y-75983001D01*
G75*
G02*
X69841000Y-75783001I200000J0D01*
G01*
X70241000Y-75783001D01*
G75*
G02*
X70441000Y-75983001I0J-200000D01*
G01*
G37*
G36*
G01*
X72091000Y-75983001D02*
X72091000Y-76533001D01*
G75*
G02*
X71891000Y-76733001I-200000J0D01*
G01*
X71491000Y-76733001D01*
G75*
G02*
X71291000Y-76533001I0J200000D01*
G01*
X71291000Y-75983001D01*
G75*
G02*
X71491000Y-75783001I200000J0D01*
G01*
X71891000Y-75783001D01*
G75*
G02*
X72091000Y-75983001I0J-200000D01*
G01*
G37*
%TD*%
%TO.C,JP4*%
G36*
G01*
X55901000Y-88533001D02*
X55351000Y-88533001D01*
G75*
G02*
X55151000Y-88333001I0J200000D01*
G01*
X55151000Y-87933001D01*
G75*
G02*
X55351000Y-87733001I200000J0D01*
G01*
X55901000Y-87733001D01*
G75*
G02*
X56101000Y-87933001I0J-200000D01*
G01*
X56101000Y-88333001D01*
G75*
G02*
X55901000Y-88533001I-200000J0D01*
G01*
G37*
G36*
G01*
X55901000Y-90183001D02*
X55351000Y-90183001D01*
G75*
G02*
X55151000Y-89983001I0J200000D01*
G01*
X55151000Y-89583001D01*
G75*
G02*
X55351000Y-89383001I200000J0D01*
G01*
X55901000Y-89383001D01*
G75*
G02*
X56101000Y-89583001I0J-200000D01*
G01*
X56101000Y-89983001D01*
G75*
G02*
X55901000Y-90183001I-200000J0D01*
G01*
G37*
%TD*%
%TO.C,JP3*%
G36*
G01*
X53827000Y-89383001D02*
X54377000Y-89383001D01*
G75*
G02*
X54577000Y-89583001I0J-200000D01*
G01*
X54577000Y-89983001D01*
G75*
G02*
X54377000Y-90183001I-200000J0D01*
G01*
X53827000Y-90183001D01*
G75*
G02*
X53627000Y-89983001I0J200000D01*
G01*
X53627000Y-89583001D01*
G75*
G02*
X53827000Y-89383001I200000J0D01*
G01*
G37*
G36*
G01*
X53827000Y-87733001D02*
X54377000Y-87733001D01*
G75*
G02*
X54577000Y-87933001I0J-200000D01*
G01*
X54577000Y-88333001D01*
G75*
G02*
X54377000Y-88533001I-200000J0D01*
G01*
X53827000Y-88533001D01*
G75*
G02*
X53627000Y-88333001I0J200000D01*
G01*
X53627000Y-87933001D01*
G75*
G02*
X53827000Y-87733001I200000J0D01*
G01*
G37*
%TD*%
%TO.C,JP2*%
G36*
G01*
X52303000Y-89383001D02*
X52853000Y-89383001D01*
G75*
G02*
X53053000Y-89583001I0J-200000D01*
G01*
X53053000Y-89983001D01*
G75*
G02*
X52853000Y-90183001I-200000J0D01*
G01*
X52303000Y-90183001D01*
G75*
G02*
X52103000Y-89983001I0J200000D01*
G01*
X52103000Y-89583001D01*
G75*
G02*
X52303000Y-89383001I200000J0D01*
G01*
G37*
G36*
G01*
X52303000Y-87733001D02*
X52853000Y-87733001D01*
G75*
G02*
X53053000Y-87933001I0J-200000D01*
G01*
X53053000Y-88333001D01*
G75*
G02*
X52853000Y-88533001I-200000J0D01*
G01*
X52303000Y-88533001D01*
G75*
G02*
X52103000Y-88333001I0J200000D01*
G01*
X52103000Y-87933001D01*
G75*
G02*
X52303000Y-87733001I200000J0D01*
G01*
G37*
%TD*%
%TO.C,JP1*%
G36*
G01*
X51329000Y-88533001D02*
X50779000Y-88533001D01*
G75*
G02*
X50579000Y-88333001I0J200000D01*
G01*
X50579000Y-87933001D01*
G75*
G02*
X50779000Y-87733001I200000J0D01*
G01*
X51329000Y-87733001D01*
G75*
G02*
X51529000Y-87933001I0J-200000D01*
G01*
X51529000Y-88333001D01*
G75*
G02*
X51329000Y-88533001I-200000J0D01*
G01*
G37*
G36*
G01*
X51329000Y-90183001D02*
X50779000Y-90183001D01*
G75*
G02*
X50579000Y-89983001I0J200000D01*
G01*
X50579000Y-89583001D01*
G75*
G02*
X50779000Y-89383001I200000J0D01*
G01*
X51329000Y-89383001D01*
G75*
G02*
X51529000Y-89583001I0J-200000D01*
G01*
X51529000Y-89983001D01*
G75*
G02*
X51329000Y-90183001I-200000J0D01*
G01*
G37*
%TD*%
%TO.C,R25*%
G36*
G01*
X77133000Y-40719001D02*
X77133000Y-40169001D01*
G75*
G02*
X77333000Y-39969001I200000J0D01*
G01*
X77733000Y-39969001D01*
G75*
G02*
X77933000Y-40169001I0J-200000D01*
G01*
X77933000Y-40719001D01*
G75*
G02*
X77733000Y-40919001I-200000J0D01*
G01*
X77333000Y-40919001D01*
G75*
G02*
X77133000Y-40719001I0J200000D01*
G01*
G37*
G36*
G01*
X75483000Y-40719001D02*
X75483000Y-40169001D01*
G75*
G02*
X75683000Y-39969001I200000J0D01*
G01*
X76083000Y-39969001D01*
G75*
G02*
X76283000Y-40169001I0J-200000D01*
G01*
X76283000Y-40719001D01*
G75*
G02*
X76083000Y-40919001I-200000J0D01*
G01*
X75683000Y-40919001D01*
G75*
G02*
X75483000Y-40719001I0J200000D01*
G01*
G37*
%TD*%
%TO.C,R23*%
G36*
G01*
X77133000Y-50625001D02*
X77133000Y-50075001D01*
G75*
G02*
X77333000Y-49875001I200000J0D01*
G01*
X77733000Y-49875001D01*
G75*
G02*
X77933000Y-50075001I0J-200000D01*
G01*
X77933000Y-50625001D01*
G75*
G02*
X77733000Y-50825001I-200000J0D01*
G01*
X77333000Y-50825001D01*
G75*
G02*
X77133000Y-50625001I0J200000D01*
G01*
G37*
G36*
G01*
X75483000Y-50625001D02*
X75483000Y-50075001D01*
G75*
G02*
X75683000Y-49875001I200000J0D01*
G01*
X76083000Y-49875001D01*
G75*
G02*
X76283000Y-50075001I0J-200000D01*
G01*
X76283000Y-50625001D01*
G75*
G02*
X76083000Y-50825001I-200000J0D01*
G01*
X75683000Y-50825001D01*
G75*
G02*
X75483000Y-50625001I0J200000D01*
G01*
G37*
%TD*%
%TO.C,R22*%
G36*
G01*
X77133000Y-39195001D02*
X77133000Y-38645001D01*
G75*
G02*
X77333000Y-38445001I200000J0D01*
G01*
X77733000Y-38445001D01*
G75*
G02*
X77933000Y-38645001I0J-200000D01*
G01*
X77933000Y-39195001D01*
G75*
G02*
X77733000Y-39395001I-200000J0D01*
G01*
X77333000Y-39395001D01*
G75*
G02*
X77133000Y-39195001I0J200000D01*
G01*
G37*
G36*
G01*
X75483000Y-39195001D02*
X75483000Y-38645001D01*
G75*
G02*
X75683000Y-38445001I200000J0D01*
G01*
X76083000Y-38445001D01*
G75*
G02*
X76283000Y-38645001I0J-200000D01*
G01*
X76283000Y-39195001D01*
G75*
G02*
X76083000Y-39395001I-200000J0D01*
G01*
X75683000Y-39395001D01*
G75*
G02*
X75483000Y-39195001I0J200000D01*
G01*
G37*
%TD*%
%TO.C,R21*%
G36*
G01*
X77133000Y-37671001D02*
X77133000Y-37121001D01*
G75*
G02*
X77333000Y-36921001I200000J0D01*
G01*
X77733000Y-36921001D01*
G75*
G02*
X77933000Y-37121001I0J-200000D01*
G01*
X77933000Y-37671001D01*
G75*
G02*
X77733000Y-37871001I-200000J0D01*
G01*
X77333000Y-37871001D01*
G75*
G02*
X77133000Y-37671001I0J200000D01*
G01*
G37*
G36*
G01*
X75483000Y-37671001D02*
X75483000Y-37121001D01*
G75*
G02*
X75683000Y-36921001I200000J0D01*
G01*
X76083000Y-36921001D01*
G75*
G02*
X76283000Y-37121001I0J-200000D01*
G01*
X76283000Y-37671001D01*
G75*
G02*
X76083000Y-37871001I-200000J0D01*
G01*
X75683000Y-37871001D01*
G75*
G02*
X75483000Y-37671001I0J200000D01*
G01*
G37*
%TD*%
%TO.C,R20*%
G36*
G01*
X76283000Y-53631001D02*
X76283000Y-54181001D01*
G75*
G02*
X76083000Y-54381001I-200000J0D01*
G01*
X75683000Y-54381001D01*
G75*
G02*
X75483000Y-54181001I0J200000D01*
G01*
X75483000Y-53631001D01*
G75*
G02*
X75683000Y-53431001I200000J0D01*
G01*
X76083000Y-53431001D01*
G75*
G02*
X76283000Y-53631001I0J-200000D01*
G01*
G37*
G36*
G01*
X77933000Y-53631001D02*
X77933000Y-54181001D01*
G75*
G02*
X77733000Y-54381001I-200000J0D01*
G01*
X77333000Y-54381001D01*
G75*
G02*
X77133000Y-54181001I0J200000D01*
G01*
X77133000Y-53631001D01*
G75*
G02*
X77333000Y-53431001I200000J0D01*
G01*
X77733000Y-53431001D01*
G75*
G02*
X77933000Y-53631001I0J-200000D01*
G01*
G37*
%TD*%
%TO.C,R19*%
G36*
G01*
X76283000Y-48551001D02*
X76283000Y-49101001D01*
G75*
G02*
X76083000Y-49301001I-200000J0D01*
G01*
X75683000Y-49301001D01*
G75*
G02*
X75483000Y-49101001I0J200000D01*
G01*
X75483000Y-48551001D01*
G75*
G02*
X75683000Y-48351001I200000J0D01*
G01*
X76083000Y-48351001D01*
G75*
G02*
X76283000Y-48551001I0J-200000D01*
G01*
G37*
G36*
G01*
X77933000Y-48551001D02*
X77933000Y-49101001D01*
G75*
G02*
X77733000Y-49301001I-200000J0D01*
G01*
X77333000Y-49301001D01*
G75*
G02*
X77133000Y-49101001I0J200000D01*
G01*
X77133000Y-48551001D01*
G75*
G02*
X77333000Y-48351001I200000J0D01*
G01*
X77733000Y-48351001D01*
G75*
G02*
X77933000Y-48551001I0J-200000D01*
G01*
G37*
%TD*%
%TO.C,R18*%
G36*
G01*
X62313000Y-52361001D02*
X62313000Y-52911001D01*
G75*
G02*
X62113000Y-53111001I-200000J0D01*
G01*
X61713000Y-53111001D01*
G75*
G02*
X61513000Y-52911001I0J200000D01*
G01*
X61513000Y-52361001D01*
G75*
G02*
X61713000Y-52161001I200000J0D01*
G01*
X62113000Y-52161001D01*
G75*
G02*
X62313000Y-52361001I0J-200000D01*
G01*
G37*
G36*
G01*
X63963000Y-52361001D02*
X63963000Y-52911001D01*
G75*
G02*
X63763000Y-53111001I-200000J0D01*
G01*
X63363000Y-53111001D01*
G75*
G02*
X63163000Y-52911001I0J200000D01*
G01*
X63163000Y-52361001D01*
G75*
G02*
X63363000Y-52161001I200000J0D01*
G01*
X63763000Y-52161001D01*
G75*
G02*
X63963000Y-52361001I0J-200000D01*
G01*
G37*
%TD*%
%TO.C,R17*%
G36*
G01*
X76283000Y-55663001D02*
X76283000Y-56213001D01*
G75*
G02*
X76083000Y-56413001I-200000J0D01*
G01*
X75683000Y-56413001D01*
G75*
G02*
X75483000Y-56213001I0J200000D01*
G01*
X75483000Y-55663001D01*
G75*
G02*
X75683000Y-55463001I200000J0D01*
G01*
X76083000Y-55463001D01*
G75*
G02*
X76283000Y-55663001I0J-200000D01*
G01*
G37*
G36*
G01*
X77933000Y-55663001D02*
X77933000Y-56213001D01*
G75*
G02*
X77733000Y-56413001I-200000J0D01*
G01*
X77333000Y-56413001D01*
G75*
G02*
X77133000Y-56213001I0J200000D01*
G01*
X77133000Y-55663001D01*
G75*
G02*
X77333000Y-55463001I200000J0D01*
G01*
X77733000Y-55463001D01*
G75*
G02*
X77933000Y-55663001I0J-200000D01*
G01*
G37*
%TD*%
%TO.C,R16*%
G36*
G01*
X76283000Y-66077001D02*
X76283000Y-66627001D01*
G75*
G02*
X76083000Y-66827001I-200000J0D01*
G01*
X75683000Y-66827001D01*
G75*
G02*
X75483000Y-66627001I0J200000D01*
G01*
X75483000Y-66077001D01*
G75*
G02*
X75683000Y-65877001I200000J0D01*
G01*
X76083000Y-65877001D01*
G75*
G02*
X76283000Y-66077001I0J-200000D01*
G01*
G37*
G36*
G01*
X77933000Y-66077001D02*
X77933000Y-66627001D01*
G75*
G02*
X77733000Y-66827001I-200000J0D01*
G01*
X77333000Y-66827001D01*
G75*
G02*
X77133000Y-66627001I0J200000D01*
G01*
X77133000Y-66077001D01*
G75*
G02*
X77333000Y-65877001I200000J0D01*
G01*
X77733000Y-65877001D01*
G75*
G02*
X77933000Y-66077001I0J-200000D01*
G01*
G37*
%TD*%
%TO.C,R15*%
G36*
G01*
X76283000Y-57441001D02*
X76283000Y-57991001D01*
G75*
G02*
X76083000Y-58191001I-200000J0D01*
G01*
X75683000Y-58191001D01*
G75*
G02*
X75483000Y-57991001I0J200000D01*
G01*
X75483000Y-57441001D01*
G75*
G02*
X75683000Y-57241001I200000J0D01*
G01*
X76083000Y-57241001D01*
G75*
G02*
X76283000Y-57441001I0J-200000D01*
G01*
G37*
G36*
G01*
X77933000Y-57441001D02*
X77933000Y-57991001D01*
G75*
G02*
X77733000Y-58191001I-200000J0D01*
G01*
X77333000Y-58191001D01*
G75*
G02*
X77133000Y-57991001I0J200000D01*
G01*
X77133000Y-57441001D01*
G75*
G02*
X77333000Y-57241001I200000J0D01*
G01*
X77733000Y-57241001D01*
G75*
G02*
X77933000Y-57441001I0J-200000D01*
G01*
G37*
%TD*%
%TO.C,R14*%
G36*
G01*
X70187000Y-65061001D02*
X70187000Y-65611001D01*
G75*
G02*
X69987000Y-65811001I-200000J0D01*
G01*
X69587000Y-65811001D01*
G75*
G02*
X69387000Y-65611001I0J200000D01*
G01*
X69387000Y-65061001D01*
G75*
G02*
X69587000Y-64861001I200000J0D01*
G01*
X69987000Y-64861001D01*
G75*
G02*
X70187000Y-65061001I0J-200000D01*
G01*
G37*
G36*
G01*
X71837000Y-65061001D02*
X71837000Y-65611001D01*
G75*
G02*
X71637000Y-65811001I-200000J0D01*
G01*
X71237000Y-65811001D01*
G75*
G02*
X71037000Y-65611001I0J200000D01*
G01*
X71037000Y-65061001D01*
G75*
G02*
X71237000Y-64861001I200000J0D01*
G01*
X71637000Y-64861001D01*
G75*
G02*
X71837000Y-65061001I0J-200000D01*
G01*
G37*
%TD*%
%TO.C,R13*%
G36*
G01*
X71061000Y-67291001D02*
X71061000Y-66741001D01*
G75*
G02*
X71261000Y-66541001I200000J0D01*
G01*
X71661000Y-66541001D01*
G75*
G02*
X71861000Y-66741001I0J-200000D01*
G01*
X71861000Y-67291001D01*
G75*
G02*
X71661000Y-67491001I-200000J0D01*
G01*
X71261000Y-67491001D01*
G75*
G02*
X71061000Y-67291001I0J200000D01*
G01*
G37*
G36*
G01*
X69411000Y-67291001D02*
X69411000Y-66741001D01*
G75*
G02*
X69611000Y-66541001I200000J0D01*
G01*
X70011000Y-66541001D01*
G75*
G02*
X70211000Y-66741001I0J-200000D01*
G01*
X70211000Y-67291001D01*
G75*
G02*
X70011000Y-67491001I-200000J0D01*
G01*
X69611000Y-67491001D01*
G75*
G02*
X69411000Y-67291001I0J200000D01*
G01*
G37*
%TD*%
%TO.C,R12*%
G36*
G01*
X77157000Y-59769001D02*
X77157000Y-59219001D01*
G75*
G02*
X77357000Y-59019001I200000J0D01*
G01*
X77757000Y-59019001D01*
G75*
G02*
X77957000Y-59219001I0J-200000D01*
G01*
X77957000Y-59769001D01*
G75*
G02*
X77757000Y-59969001I-200000J0D01*
G01*
X77357000Y-59969001D01*
G75*
G02*
X77157000Y-59769001I0J200000D01*
G01*
G37*
G36*
G01*
X75507000Y-59769001D02*
X75507000Y-59219001D01*
G75*
G02*
X75707000Y-59019001I200000J0D01*
G01*
X76107000Y-59019001D01*
G75*
G02*
X76307000Y-59219001I0J-200000D01*
G01*
X76307000Y-59769001D01*
G75*
G02*
X76107000Y-59969001I-200000J0D01*
G01*
X75707000Y-59969001D01*
G75*
G02*
X75507000Y-59769001I0J200000D01*
G01*
G37*
%TD*%
%TO.C,R11*%
G36*
G01*
X51479000Y-57991001D02*
X51479000Y-57441001D01*
G75*
G02*
X51679000Y-57241001I200000J0D01*
G01*
X52079000Y-57241001D01*
G75*
G02*
X52279000Y-57441001I0J-200000D01*
G01*
X52279000Y-57991001D01*
G75*
G02*
X52079000Y-58191001I-200000J0D01*
G01*
X51679000Y-58191001D01*
G75*
G02*
X51479000Y-57991001I0J200000D01*
G01*
G37*
G36*
G01*
X49829000Y-57991001D02*
X49829000Y-57441001D01*
G75*
G02*
X50029000Y-57241001I200000J0D01*
G01*
X50429000Y-57241001D01*
G75*
G02*
X50629000Y-57441001I0J-200000D01*
G01*
X50629000Y-57991001D01*
G75*
G02*
X50429000Y-58191001I-200000J0D01*
G01*
X50029000Y-58191001D01*
G75*
G02*
X49829000Y-57991001I0J200000D01*
G01*
G37*
%TD*%
%TO.C,R10*%
G36*
G01*
X51479000Y-61039001D02*
X51479000Y-60489001D01*
G75*
G02*
X51679000Y-60289001I200000J0D01*
G01*
X52079000Y-60289001D01*
G75*
G02*
X52279000Y-60489001I0J-200000D01*
G01*
X52279000Y-61039001D01*
G75*
G02*
X52079000Y-61239001I-200000J0D01*
G01*
X51679000Y-61239001D01*
G75*
G02*
X51479000Y-61039001I0J200000D01*
G01*
G37*
G36*
G01*
X49829000Y-61039001D02*
X49829000Y-60489001D01*
G75*
G02*
X50029000Y-60289001I200000J0D01*
G01*
X50429000Y-60289001D01*
G75*
G02*
X50629000Y-60489001I0J-200000D01*
G01*
X50629000Y-61039001D01*
G75*
G02*
X50429000Y-61239001I-200000J0D01*
G01*
X50029000Y-61239001D01*
G75*
G02*
X49829000Y-61039001I0J200000D01*
G01*
G37*
%TD*%
%TO.C,R9*%
G36*
G01*
X43263000Y-50583001D02*
X43263000Y-51133001D01*
G75*
G02*
X43063000Y-51333001I-200000J0D01*
G01*
X42663000Y-51333001D01*
G75*
G02*
X42463000Y-51133001I0J200000D01*
G01*
X42463000Y-50583001D01*
G75*
G02*
X42663000Y-50383001I200000J0D01*
G01*
X43063000Y-50383001D01*
G75*
G02*
X43263000Y-50583001I0J-200000D01*
G01*
G37*
G36*
G01*
X44913000Y-50583001D02*
X44913000Y-51133001D01*
G75*
G02*
X44713000Y-51333001I-200000J0D01*
G01*
X44313000Y-51333001D01*
G75*
G02*
X44113000Y-51133001I0J200000D01*
G01*
X44113000Y-50583001D01*
G75*
G02*
X44313000Y-50383001I200000J0D01*
G01*
X44713000Y-50383001D01*
G75*
G02*
X44913000Y-50583001I0J-200000D01*
G01*
G37*
%TD*%
%TO.C,R8*%
G36*
G01*
X43263000Y-58203001D02*
X43263000Y-58753001D01*
G75*
G02*
X43063000Y-58953001I-200000J0D01*
G01*
X42663000Y-58953001D01*
G75*
G02*
X42463000Y-58753001I0J200000D01*
G01*
X42463000Y-58203001D01*
G75*
G02*
X42663000Y-58003001I200000J0D01*
G01*
X43063000Y-58003001D01*
G75*
G02*
X43263000Y-58203001I0J-200000D01*
G01*
G37*
G36*
G01*
X44913000Y-58203001D02*
X44913000Y-58753001D01*
G75*
G02*
X44713000Y-58953001I-200000J0D01*
G01*
X44313000Y-58953001D01*
G75*
G02*
X44113000Y-58753001I0J200000D01*
G01*
X44113000Y-58203001D01*
G75*
G02*
X44313000Y-58003001I200000J0D01*
G01*
X44713000Y-58003001D01*
G75*
G02*
X44913000Y-58203001I0J-200000D01*
G01*
G37*
%TD*%
%TO.C,R7*%
G36*
G01*
X43263000Y-56679001D02*
X43263000Y-57229001D01*
G75*
G02*
X43063000Y-57429001I-200000J0D01*
G01*
X42663000Y-57429001D01*
G75*
G02*
X42463000Y-57229001I0J200000D01*
G01*
X42463000Y-56679001D01*
G75*
G02*
X42663000Y-56479001I200000J0D01*
G01*
X43063000Y-56479001D01*
G75*
G02*
X43263000Y-56679001I0J-200000D01*
G01*
G37*
G36*
G01*
X44913000Y-56679001D02*
X44913000Y-57229001D01*
G75*
G02*
X44713000Y-57429001I-200000J0D01*
G01*
X44313000Y-57429001D01*
G75*
G02*
X44113000Y-57229001I0J200000D01*
G01*
X44113000Y-56679001D01*
G75*
G02*
X44313000Y-56479001I200000J0D01*
G01*
X44713000Y-56479001D01*
G75*
G02*
X44913000Y-56679001I0J-200000D01*
G01*
G37*
%TD*%
%TO.C,R6*%
G36*
G01*
X43263000Y-55155001D02*
X43263000Y-55705001D01*
G75*
G02*
X43063000Y-55905001I-200000J0D01*
G01*
X42663000Y-55905001D01*
G75*
G02*
X42463000Y-55705001I0J200000D01*
G01*
X42463000Y-55155001D01*
G75*
G02*
X42663000Y-54955001I200000J0D01*
G01*
X43063000Y-54955001D01*
G75*
G02*
X43263000Y-55155001I0J-200000D01*
G01*
G37*
G36*
G01*
X44913000Y-55155001D02*
X44913000Y-55705001D01*
G75*
G02*
X44713000Y-55905001I-200000J0D01*
G01*
X44313000Y-55905001D01*
G75*
G02*
X44113000Y-55705001I0J200000D01*
G01*
X44113000Y-55155001D01*
G75*
G02*
X44313000Y-54955001I200000J0D01*
G01*
X44713000Y-54955001D01*
G75*
G02*
X44913000Y-55155001I0J-200000D01*
G01*
G37*
%TD*%
%TO.C,R5*%
G36*
G01*
X43263000Y-53631001D02*
X43263000Y-54181001D01*
G75*
G02*
X43063000Y-54381001I-200000J0D01*
G01*
X42663000Y-54381001D01*
G75*
G02*
X42463000Y-54181001I0J200000D01*
G01*
X42463000Y-53631001D01*
G75*
G02*
X42663000Y-53431001I200000J0D01*
G01*
X43063000Y-53431001D01*
G75*
G02*
X43263000Y-53631001I0J-200000D01*
G01*
G37*
G36*
G01*
X44913000Y-53631001D02*
X44913000Y-54181001D01*
G75*
G02*
X44713000Y-54381001I-200000J0D01*
G01*
X44313000Y-54381001D01*
G75*
G02*
X44113000Y-54181001I0J200000D01*
G01*
X44113000Y-53631001D01*
G75*
G02*
X44313000Y-53431001I200000J0D01*
G01*
X44713000Y-53431001D01*
G75*
G02*
X44913000Y-53631001I0J-200000D01*
G01*
G37*
%TD*%
%TO.C,R4*%
G36*
G01*
X43263000Y-52107001D02*
X43263000Y-52657001D01*
G75*
G02*
X43063000Y-52857001I-200000J0D01*
G01*
X42663000Y-52857001D01*
G75*
G02*
X42463000Y-52657001I0J200000D01*
G01*
X42463000Y-52107001D01*
G75*
G02*
X42663000Y-51907001I200000J0D01*
G01*
X43063000Y-51907001D01*
G75*
G02*
X43263000Y-52107001I0J-200000D01*
G01*
G37*
G36*
G01*
X44913000Y-52107001D02*
X44913000Y-52657001D01*
G75*
G02*
X44713000Y-52857001I-200000J0D01*
G01*
X44313000Y-52857001D01*
G75*
G02*
X44113000Y-52657001I0J200000D01*
G01*
X44113000Y-52107001D01*
G75*
G02*
X44313000Y-51907001I200000J0D01*
G01*
X44713000Y-51907001D01*
G75*
G02*
X44913000Y-52107001I0J-200000D01*
G01*
G37*
%TD*%
%TO.C,R3*%
G36*
G01*
X44113000Y-46561001D02*
X44113000Y-46011001D01*
G75*
G02*
X44313000Y-45811001I200000J0D01*
G01*
X44713000Y-45811001D01*
G75*
G02*
X44913000Y-46011001I0J-200000D01*
G01*
X44913000Y-46561001D01*
G75*
G02*
X44713000Y-46761001I-200000J0D01*
G01*
X44313000Y-46761001D01*
G75*
G02*
X44113000Y-46561001I0J200000D01*
G01*
G37*
G36*
G01*
X42463000Y-46561001D02*
X42463000Y-46011001D01*
G75*
G02*
X42663000Y-45811001I200000J0D01*
G01*
X43063000Y-45811001D01*
G75*
G02*
X43263000Y-46011001I0J-200000D01*
G01*
X43263000Y-46561001D01*
G75*
G02*
X43063000Y-46761001I-200000J0D01*
G01*
X42663000Y-46761001D01*
G75*
G02*
X42463000Y-46561001I0J200000D01*
G01*
G37*
%TD*%
%TO.C,R2*%
G36*
G01*
X44113000Y-49609001D02*
X44113000Y-49059001D01*
G75*
G02*
X44313000Y-48859001I200000J0D01*
G01*
X44713000Y-48859001D01*
G75*
G02*
X44913000Y-49059001I0J-200000D01*
G01*
X44913000Y-49609001D01*
G75*
G02*
X44713000Y-49809001I-200000J0D01*
G01*
X44313000Y-49809001D01*
G75*
G02*
X44113000Y-49609001I0J200000D01*
G01*
G37*
G36*
G01*
X42463000Y-49609001D02*
X42463000Y-49059001D01*
G75*
G02*
X42663000Y-48859001I200000J0D01*
G01*
X43063000Y-48859001D01*
G75*
G02*
X43263000Y-49059001I0J-200000D01*
G01*
X43263000Y-49609001D01*
G75*
G02*
X43063000Y-49809001I-200000J0D01*
G01*
X42663000Y-49809001D01*
G75*
G02*
X42463000Y-49609001I0J200000D01*
G01*
G37*
%TD*%
%TO.C,R1*%
G36*
G01*
X44113000Y-48085001D02*
X44113000Y-47535001D01*
G75*
G02*
X44313000Y-47335001I200000J0D01*
G01*
X44713000Y-47335001D01*
G75*
G02*
X44913000Y-47535001I0J-200000D01*
G01*
X44913000Y-48085001D01*
G75*
G02*
X44713000Y-48285001I-200000J0D01*
G01*
X44313000Y-48285001D01*
G75*
G02*
X44113000Y-48085001I0J200000D01*
G01*
G37*
G36*
G01*
X42463000Y-48085001D02*
X42463000Y-47535001D01*
G75*
G02*
X42663000Y-47335001I200000J0D01*
G01*
X43063000Y-47335001D01*
G75*
G02*
X43263000Y-47535001I0J-200000D01*
G01*
X43263000Y-48085001D01*
G75*
G02*
X43063000Y-48285001I-200000J0D01*
G01*
X42663000Y-48285001D01*
G75*
G02*
X42463000Y-48085001I0J200000D01*
G01*
G37*
%TD*%
D24*
%TO.C,L1*%
X45974000Y-80954001D03*
X45974000Y-71054001D03*
%TD*%
D25*
%TO.C,J2*%
X40756000Y-62021001D03*
D26*
X30081000Y-62071001D03*
D27*
X29956000Y-59621001D03*
X29956000Y-58521001D03*
X29956000Y-57421001D03*
X29956000Y-56321001D03*
X29956000Y-55221001D03*
X29956000Y-54121001D03*
X29956000Y-53021001D03*
D28*
X38331000Y-62421001D03*
D29*
X39181000Y-50796001D03*
D30*
X37681000Y-50471001D03*
D31*
X30081000Y-50721001D03*
D27*
X29956000Y-51921001D03*
%TD*%
%TO.C,FB2*%
G36*
G01*
X77058000Y-42478251D02*
X77058000Y-41965751D01*
G75*
G02*
X77276750Y-41747001I218750J0D01*
G01*
X77714250Y-41747001D01*
G75*
G02*
X77933000Y-41965751I0J-218750D01*
G01*
X77933000Y-42478251D01*
G75*
G02*
X77714250Y-42697001I-218750J0D01*
G01*
X77276750Y-42697001D01*
G75*
G02*
X77058000Y-42478251I0J218750D01*
G01*
G37*
G36*
G01*
X75483000Y-42478251D02*
X75483000Y-41965751D01*
G75*
G02*
X75701750Y-41747001I218750J0D01*
G01*
X76139250Y-41747001D01*
G75*
G02*
X76358000Y-41965751I0J-218750D01*
G01*
X76358000Y-42478251D01*
G75*
G02*
X76139250Y-42697001I-218750J0D01*
G01*
X75701750Y-42697001D01*
G75*
G02*
X75483000Y-42478251I0J218750D01*
G01*
G37*
%TD*%
%TO.C,FB1*%
G36*
G01*
X77058000Y-44002251D02*
X77058000Y-43489751D01*
G75*
G02*
X77276750Y-43271001I218750J0D01*
G01*
X77714250Y-43271001D01*
G75*
G02*
X77933000Y-43489751I0J-218750D01*
G01*
X77933000Y-44002251D01*
G75*
G02*
X77714250Y-44221001I-218750J0D01*
G01*
X77276750Y-44221001D01*
G75*
G02*
X77058000Y-44002251I0J218750D01*
G01*
G37*
G36*
G01*
X75483000Y-44002251D02*
X75483000Y-43489751D01*
G75*
G02*
X75701750Y-43271001I218750J0D01*
G01*
X76139250Y-43271001D01*
G75*
G02*
X76358000Y-43489751I0J-218750D01*
G01*
X76358000Y-44002251D01*
G75*
G02*
X76139250Y-44221001I-218750J0D01*
G01*
X75701750Y-44221001D01*
G75*
G02*
X75483000Y-44002251I0J218750D01*
G01*
G37*
%TD*%
%TO.C,D11*%
G36*
G01*
X41672500Y-90606001D02*
X42147500Y-90606001D01*
G75*
G02*
X42385000Y-90843501I0J-237500D01*
G01*
X42385000Y-91418501D01*
G75*
G02*
X42147500Y-91656001I-237500J0D01*
G01*
X41672500Y-91656001D01*
G75*
G02*
X41435000Y-91418501I0J237500D01*
G01*
X41435000Y-90843501D01*
G75*
G02*
X41672500Y-90606001I237500J0D01*
G01*
G37*
G36*
G01*
X41672500Y-92356001D02*
X42147500Y-92356001D01*
G75*
G02*
X42385000Y-92593501I0J-237500D01*
G01*
X42385000Y-93168501D01*
G75*
G02*
X42147500Y-93406001I-237500J0D01*
G01*
X41672500Y-93406001D01*
G75*
G02*
X41435000Y-93168501I0J237500D01*
G01*
X41435000Y-92593501D01*
G75*
G02*
X41672500Y-92356001I237500J0D01*
G01*
G37*
%TD*%
D18*
%TO.C,D10*%
X26686000Y-79306001D03*
X28686000Y-78356001D03*
X28686000Y-80256001D03*
%TD*%
%TO.C,D9*%
G36*
G01*
X56912500Y-82958001D02*
X57387500Y-82958001D01*
G75*
G02*
X57625000Y-83195501I0J-237500D01*
G01*
X57625000Y-83770501D01*
G75*
G02*
X57387500Y-84008001I-237500J0D01*
G01*
X56912500Y-84008001D01*
G75*
G02*
X56675000Y-83770501I0J237500D01*
G01*
X56675000Y-83195501D01*
G75*
G02*
X56912500Y-82958001I237500J0D01*
G01*
G37*
G36*
G01*
X56912500Y-81208001D02*
X57387500Y-81208001D01*
G75*
G02*
X57625000Y-81445501I0J-237500D01*
G01*
X57625000Y-82020501D01*
G75*
G02*
X57387500Y-82258001I-237500J0D01*
G01*
X56912500Y-82258001D01*
G75*
G02*
X56675000Y-82020501I0J237500D01*
G01*
X56675000Y-81445501D01*
G75*
G02*
X56912500Y-81208001I237500J0D01*
G01*
G37*
%TD*%
%TO.C,D8*%
G36*
G01*
X53356500Y-82958001D02*
X53831500Y-82958001D01*
G75*
G02*
X54069000Y-83195501I0J-237500D01*
G01*
X54069000Y-83770501D01*
G75*
G02*
X53831500Y-84008001I-237500J0D01*
G01*
X53356500Y-84008001D01*
G75*
G02*
X53119000Y-83770501I0J237500D01*
G01*
X53119000Y-83195501D01*
G75*
G02*
X53356500Y-82958001I237500J0D01*
G01*
G37*
G36*
G01*
X53356500Y-81208001D02*
X53831500Y-81208001D01*
G75*
G02*
X54069000Y-81445501I0J-237500D01*
G01*
X54069000Y-82020501D01*
G75*
G02*
X53831500Y-82258001I-237500J0D01*
G01*
X53356500Y-82258001D01*
G75*
G02*
X53119000Y-82020501I0J237500D01*
G01*
X53119000Y-81445501D01*
G75*
G02*
X53356500Y-81208001I237500J0D01*
G01*
G37*
%TD*%
%TO.C,D7*%
G36*
G01*
X70962000Y-68875501D02*
X70962000Y-68400501D01*
G75*
G02*
X71199500Y-68163001I237500J0D01*
G01*
X71774500Y-68163001D01*
G75*
G02*
X72012000Y-68400501I0J-237500D01*
G01*
X72012000Y-68875501D01*
G75*
G02*
X71774500Y-69113001I-237500J0D01*
G01*
X71199500Y-69113001D01*
G75*
G02*
X70962000Y-68875501I0J237500D01*
G01*
G37*
G36*
G01*
X69212000Y-68875501D02*
X69212000Y-68400501D01*
G75*
G02*
X69449500Y-68163001I237500J0D01*
G01*
X70024500Y-68163001D01*
G75*
G02*
X70262000Y-68400501I0J-237500D01*
G01*
X70262000Y-68875501D01*
G75*
G02*
X70024500Y-69113001I-237500J0D01*
G01*
X69449500Y-69113001D01*
G75*
G02*
X69212000Y-68875501I0J237500D01*
G01*
G37*
%TD*%
%TO.C,D6*%
X71612000Y-40444001D03*
X69612000Y-41394001D03*
X69612000Y-39494001D03*
%TD*%
%TO.C,D5*%
X71358000Y-50604001D03*
X69358000Y-51554001D03*
X69358000Y-49654001D03*
%TD*%
%TO.C,D4*%
X71358000Y-54414001D03*
X69358000Y-55364001D03*
X69358000Y-53464001D03*
%TD*%
%TO.C,D3*%
X71612000Y-44000001D03*
X69612000Y-44950001D03*
X69612000Y-43050001D03*
%TD*%
D32*
%TO.C,D2*%
X43909000Y-34826001D03*
X43909000Y-35726001D03*
X43909000Y-36526001D03*
X43909000Y-37426001D03*
X42959000Y-37826001D03*
X42959000Y-36926001D03*
X42959000Y-36126001D03*
X42959000Y-35326001D03*
X42959000Y-34426001D03*
%TD*%
%TO.C,C31*%
G36*
G01*
X48202000Y-65811001D02*
X48202000Y-64861001D01*
G75*
G02*
X48452000Y-64611001I250000J0D01*
G01*
X48952000Y-64611001D01*
G75*
G02*
X49202000Y-64861001I0J-250000D01*
G01*
X49202000Y-65811001D01*
G75*
G02*
X48952000Y-66061001I-250000J0D01*
G01*
X48452000Y-66061001D01*
G75*
G02*
X48202000Y-65811001I0J250000D01*
G01*
G37*
G36*
G01*
X46302000Y-65811001D02*
X46302000Y-64861001D01*
G75*
G02*
X46552000Y-64611001I250000J0D01*
G01*
X47052000Y-64611001D01*
G75*
G02*
X47302000Y-64861001I0J-250000D01*
G01*
X47302000Y-65811001D01*
G75*
G02*
X47052000Y-66061001I-250000J0D01*
G01*
X46552000Y-66061001D01*
G75*
G02*
X46302000Y-65811001I0J250000D01*
G01*
G37*
%TD*%
%TO.C,C30*%
G36*
G01*
X47823000Y-67618001D02*
X47823000Y-67118001D01*
G75*
G02*
X48048000Y-66893001I225000J0D01*
G01*
X48498000Y-66893001D01*
G75*
G02*
X48723000Y-67118001I0J-225000D01*
G01*
X48723000Y-67618001D01*
G75*
G02*
X48498000Y-67843001I-225000J0D01*
G01*
X48048000Y-67843001D01*
G75*
G02*
X47823000Y-67618001I0J225000D01*
G01*
G37*
G36*
G01*
X46273000Y-67618001D02*
X46273000Y-67118001D01*
G75*
G02*
X46498000Y-66893001I225000J0D01*
G01*
X46948000Y-66893001D01*
G75*
G02*
X47173000Y-67118001I0J-225000D01*
G01*
X47173000Y-67618001D01*
G75*
G02*
X46948000Y-67843001I-225000J0D01*
G01*
X46498000Y-67843001D01*
G75*
G02*
X46273000Y-67618001I0J225000D01*
G01*
G37*
%TD*%
%TO.C,C29*%
G36*
G01*
X29976000Y-79631001D02*
X30476000Y-79631001D01*
G75*
G02*
X30701000Y-79856001I0J-225000D01*
G01*
X30701000Y-80306001D01*
G75*
G02*
X30476000Y-80531001I-225000J0D01*
G01*
X29976000Y-80531001D01*
G75*
G02*
X29751000Y-80306001I0J225000D01*
G01*
X29751000Y-79856001D01*
G75*
G02*
X29976000Y-79631001I225000J0D01*
G01*
G37*
G36*
G01*
X29976000Y-78081001D02*
X30476000Y-78081001D01*
G75*
G02*
X30701000Y-78306001I0J-225000D01*
G01*
X30701000Y-78756001D01*
G75*
G02*
X30476000Y-78981001I-225000J0D01*
G01*
X29976000Y-78981001D01*
G75*
G02*
X29751000Y-78756001I0J225000D01*
G01*
X29751000Y-78306001D01*
G75*
G02*
X29976000Y-78081001I225000J0D01*
G01*
G37*
%TD*%
%TO.C,C27*%
G36*
G01*
X32770000Y-92331001D02*
X33270000Y-92331001D01*
G75*
G02*
X33495000Y-92556001I0J-225000D01*
G01*
X33495000Y-93006001D01*
G75*
G02*
X33270000Y-93231001I-225000J0D01*
G01*
X32770000Y-93231001D01*
G75*
G02*
X32545000Y-93006001I0J225000D01*
G01*
X32545000Y-92556001D01*
G75*
G02*
X32770000Y-92331001I225000J0D01*
G01*
G37*
G36*
G01*
X32770000Y-90781001D02*
X33270000Y-90781001D01*
G75*
G02*
X33495000Y-91006001I0J-225000D01*
G01*
X33495000Y-91456001D01*
G75*
G02*
X33270000Y-91681001I-225000J0D01*
G01*
X32770000Y-91681001D01*
G75*
G02*
X32545000Y-91456001I0J225000D01*
G01*
X32545000Y-91006001D01*
G75*
G02*
X32770000Y-90781001I225000J0D01*
G01*
G37*
%TD*%
%TO.C,C26*%
G36*
G01*
X63750000Y-77457001D02*
X63250000Y-77457001D01*
G75*
G02*
X63025000Y-77232001I0J225000D01*
G01*
X63025000Y-76782001D01*
G75*
G02*
X63250000Y-76557001I225000J0D01*
G01*
X63750000Y-76557001D01*
G75*
G02*
X63975000Y-76782001I0J-225000D01*
G01*
X63975000Y-77232001D01*
G75*
G02*
X63750000Y-77457001I-225000J0D01*
G01*
G37*
G36*
G01*
X63750000Y-79007001D02*
X63250000Y-79007001D01*
G75*
G02*
X63025000Y-78782001I0J225000D01*
G01*
X63025000Y-78332001D01*
G75*
G02*
X63250000Y-78107001I225000J0D01*
G01*
X63750000Y-78107001D01*
G75*
G02*
X63975000Y-78332001I0J-225000D01*
G01*
X63975000Y-78782001D01*
G75*
G02*
X63750000Y-79007001I-225000J0D01*
G01*
G37*
%TD*%
%TO.C,C25*%
G36*
G01*
X58162000Y-76695001D02*
X57662000Y-76695001D01*
G75*
G02*
X57437000Y-76470001I0J225000D01*
G01*
X57437000Y-76020001D01*
G75*
G02*
X57662000Y-75795001I225000J0D01*
G01*
X58162000Y-75795001D01*
G75*
G02*
X58387000Y-76020001I0J-225000D01*
G01*
X58387000Y-76470001D01*
G75*
G02*
X58162000Y-76695001I-225000J0D01*
G01*
G37*
G36*
G01*
X58162000Y-78245001D02*
X57662000Y-78245001D01*
G75*
G02*
X57437000Y-78020001I0J225000D01*
G01*
X57437000Y-77570001D01*
G75*
G02*
X57662000Y-77345001I225000J0D01*
G01*
X58162000Y-77345001D01*
G75*
G02*
X58387000Y-77570001I0J-225000D01*
G01*
X58387000Y-78020001D01*
G75*
G02*
X58162000Y-78245001I-225000J0D01*
G01*
G37*
%TD*%
%TO.C,C24*%
G36*
G01*
X36072000Y-79631001D02*
X36572000Y-79631001D01*
G75*
G02*
X36797000Y-79856001I0J-225000D01*
G01*
X36797000Y-80306001D01*
G75*
G02*
X36572000Y-80531001I-225000J0D01*
G01*
X36072000Y-80531001D01*
G75*
G02*
X35847000Y-80306001I0J225000D01*
G01*
X35847000Y-79856001D01*
G75*
G02*
X36072000Y-79631001I225000J0D01*
G01*
G37*
G36*
G01*
X36072000Y-78081001D02*
X36572000Y-78081001D01*
G75*
G02*
X36797000Y-78306001I0J-225000D01*
G01*
X36797000Y-78756001D01*
G75*
G02*
X36572000Y-78981001I-225000J0D01*
G01*
X36072000Y-78981001D01*
G75*
G02*
X35847000Y-78756001I0J225000D01*
G01*
X35847000Y-78306001D01*
G75*
G02*
X36072000Y-78081001I225000J0D01*
G01*
G37*
%TD*%
%TO.C,C23*%
G36*
G01*
X37625000Y-79756001D02*
X38575000Y-79756001D01*
G75*
G02*
X38825000Y-80006001I0J-250000D01*
G01*
X38825000Y-80506001D01*
G75*
G02*
X38575000Y-80756001I-250000J0D01*
G01*
X37625000Y-80756001D01*
G75*
G02*
X37375000Y-80506001I0J250000D01*
G01*
X37375000Y-80006001D01*
G75*
G02*
X37625000Y-79756001I250000J0D01*
G01*
G37*
G36*
G01*
X37625000Y-77856001D02*
X38575000Y-77856001D01*
G75*
G02*
X38825000Y-78106001I0J-250000D01*
G01*
X38825000Y-78606001D01*
G75*
G02*
X38575000Y-78856001I-250000J0D01*
G01*
X37625000Y-78856001D01*
G75*
G02*
X37375000Y-78606001I0J250000D01*
G01*
X37375000Y-78106001D01*
G75*
G02*
X37625000Y-77856001I250000J0D01*
G01*
G37*
%TD*%
%TO.C,C22*%
G36*
G01*
X55876000Y-74155001D02*
X55376000Y-74155001D01*
G75*
G02*
X55151000Y-73930001I0J225000D01*
G01*
X55151000Y-73480001D01*
G75*
G02*
X55376000Y-73255001I225000J0D01*
G01*
X55876000Y-73255001D01*
G75*
G02*
X56101000Y-73480001I0J-225000D01*
G01*
X56101000Y-73930001D01*
G75*
G02*
X55876000Y-74155001I-225000J0D01*
G01*
G37*
G36*
G01*
X55876000Y-75705001D02*
X55376000Y-75705001D01*
G75*
G02*
X55151000Y-75480001I0J225000D01*
G01*
X55151000Y-75030001D01*
G75*
G02*
X55376000Y-74805001I225000J0D01*
G01*
X55876000Y-74805001D01*
G75*
G02*
X56101000Y-75030001I0J-225000D01*
G01*
X56101000Y-75480001D01*
G75*
G02*
X55876000Y-75705001I-225000J0D01*
G01*
G37*
%TD*%
%TO.C,C21*%
G36*
G01*
X59940000Y-73901001D02*
X59440000Y-73901001D01*
G75*
G02*
X59215000Y-73676001I0J225000D01*
G01*
X59215000Y-73226001D01*
G75*
G02*
X59440000Y-73001001I225000J0D01*
G01*
X59940000Y-73001001D01*
G75*
G02*
X60165000Y-73226001I0J-225000D01*
G01*
X60165000Y-73676001D01*
G75*
G02*
X59940000Y-73901001I-225000J0D01*
G01*
G37*
G36*
G01*
X59940000Y-75451001D02*
X59440000Y-75451001D01*
G75*
G02*
X59215000Y-75226001I0J225000D01*
G01*
X59215000Y-74776001D01*
G75*
G02*
X59440000Y-74551001I225000J0D01*
G01*
X59940000Y-74551001D01*
G75*
G02*
X60165000Y-74776001I0J-225000D01*
G01*
X60165000Y-75226001D01*
G75*
G02*
X59940000Y-75451001I-225000J0D01*
G01*
G37*
%TD*%
%TO.C,C20*%
G36*
G01*
X71062000Y-72923001D02*
X71062000Y-71973001D01*
G75*
G02*
X71312000Y-71723001I250000J0D01*
G01*
X71812000Y-71723001D01*
G75*
G02*
X72062000Y-71973001I0J-250000D01*
G01*
X72062000Y-72923001D01*
G75*
G02*
X71812000Y-73173001I-250000J0D01*
G01*
X71312000Y-73173001D01*
G75*
G02*
X71062000Y-72923001I0J250000D01*
G01*
G37*
G36*
G01*
X69162000Y-72923001D02*
X69162000Y-71973001D01*
G75*
G02*
X69412000Y-71723001I250000J0D01*
G01*
X69912000Y-71723001D01*
G75*
G02*
X70162000Y-71973001I0J-250000D01*
G01*
X70162000Y-72923001D01*
G75*
G02*
X69912000Y-73173001I-250000J0D01*
G01*
X69412000Y-73173001D01*
G75*
G02*
X69162000Y-72923001I0J250000D01*
G01*
G37*
%TD*%
%TO.C,C19*%
G36*
G01*
X65528000Y-79007001D02*
X65028000Y-79007001D01*
G75*
G02*
X64803000Y-78782001I0J225000D01*
G01*
X64803000Y-78332001D01*
G75*
G02*
X65028000Y-78107001I225000J0D01*
G01*
X65528000Y-78107001D01*
G75*
G02*
X65753000Y-78332001I0J-225000D01*
G01*
X65753000Y-78782001D01*
G75*
G02*
X65528000Y-79007001I-225000J0D01*
G01*
G37*
G36*
G01*
X65528000Y-77457001D02*
X65028000Y-77457001D01*
G75*
G02*
X64803000Y-77232001I0J225000D01*
G01*
X64803000Y-76782001D01*
G75*
G02*
X65028000Y-76557001I225000J0D01*
G01*
X65528000Y-76557001D01*
G75*
G02*
X65753000Y-76782001I0J-225000D01*
G01*
X65753000Y-77232001D01*
G75*
G02*
X65528000Y-77457001I-225000J0D01*
G01*
G37*
%TD*%
%TO.C,C18*%
G36*
G01*
X60456000Y-82933001D02*
X60956000Y-82933001D01*
G75*
G02*
X61181000Y-83158001I0J-225000D01*
G01*
X61181000Y-83608001D01*
G75*
G02*
X60956000Y-83833001I-225000J0D01*
G01*
X60456000Y-83833001D01*
G75*
G02*
X60231000Y-83608001I0J225000D01*
G01*
X60231000Y-83158001D01*
G75*
G02*
X60456000Y-82933001I225000J0D01*
G01*
G37*
G36*
G01*
X60456000Y-81383001D02*
X60956000Y-81383001D01*
G75*
G02*
X61181000Y-81608001I0J-225000D01*
G01*
X61181000Y-82058001D01*
G75*
G02*
X60956000Y-82283001I-225000J0D01*
G01*
X60456000Y-82283001D01*
G75*
G02*
X60231000Y-82058001I0J225000D01*
G01*
X60231000Y-81608001D01*
G75*
G02*
X60456000Y-81383001I225000J0D01*
G01*
G37*
%TD*%
%TO.C,C17*%
G36*
G01*
X71062000Y-74955001D02*
X71062000Y-74005001D01*
G75*
G02*
X71312000Y-73755001I250000J0D01*
G01*
X71812000Y-73755001D01*
G75*
G02*
X72062000Y-74005001I0J-250000D01*
G01*
X72062000Y-74955001D01*
G75*
G02*
X71812000Y-75205001I-250000J0D01*
G01*
X71312000Y-75205001D01*
G75*
G02*
X71062000Y-74955001I0J250000D01*
G01*
G37*
G36*
G01*
X69162000Y-74955001D02*
X69162000Y-74005001D01*
G75*
G02*
X69412000Y-73755001I250000J0D01*
G01*
X69912000Y-73755001D01*
G75*
G02*
X70162000Y-74005001I0J-250000D01*
G01*
X70162000Y-74955001D01*
G75*
G02*
X69912000Y-75205001I-250000J0D01*
G01*
X69412000Y-75205001D01*
G75*
G02*
X69162000Y-74955001I0J250000D01*
G01*
G37*
%TD*%
%TO.C,C16*%
G36*
G01*
X77033000Y-47044001D02*
X77033000Y-46544001D01*
G75*
G02*
X77258000Y-46319001I225000J0D01*
G01*
X77708000Y-46319001D01*
G75*
G02*
X77933000Y-46544001I0J-225000D01*
G01*
X77933000Y-47044001D01*
G75*
G02*
X77708000Y-47269001I-225000J0D01*
G01*
X77258000Y-47269001D01*
G75*
G02*
X77033000Y-47044001I0J225000D01*
G01*
G37*
G36*
G01*
X75483000Y-47044001D02*
X75483000Y-46544001D01*
G75*
G02*
X75708000Y-46319001I225000J0D01*
G01*
X76158000Y-46319001D01*
G75*
G02*
X76383000Y-46544001I0J-225000D01*
G01*
X76383000Y-47044001D01*
G75*
G02*
X76158000Y-47269001I-225000J0D01*
G01*
X75708000Y-47269001D01*
G75*
G02*
X75483000Y-47044001I0J225000D01*
G01*
G37*
%TD*%
%TO.C,C15*%
G36*
G01*
X77033000Y-45520001D02*
X77033000Y-45020001D01*
G75*
G02*
X77258000Y-44795001I225000J0D01*
G01*
X77708000Y-44795001D01*
G75*
G02*
X77933000Y-45020001I0J-225000D01*
G01*
X77933000Y-45520001D01*
G75*
G02*
X77708000Y-45745001I-225000J0D01*
G01*
X77258000Y-45745001D01*
G75*
G02*
X77033000Y-45520001I0J225000D01*
G01*
G37*
G36*
G01*
X75483000Y-45520001D02*
X75483000Y-45020001D01*
G75*
G02*
X75708000Y-44795001I225000J0D01*
G01*
X76158000Y-44795001D01*
G75*
G02*
X76383000Y-45020001I0J-225000D01*
G01*
X76383000Y-45520001D01*
G75*
G02*
X76158000Y-45745001I-225000J0D01*
G01*
X75708000Y-45745001D01*
G75*
G02*
X75483000Y-45520001I0J225000D01*
G01*
G37*
%TD*%
%TO.C,C14*%
G36*
G01*
X77033000Y-61522001D02*
X77033000Y-61022001D01*
G75*
G02*
X77258000Y-60797001I225000J0D01*
G01*
X77708000Y-60797001D01*
G75*
G02*
X77933000Y-61022001I0J-225000D01*
G01*
X77933000Y-61522001D01*
G75*
G02*
X77708000Y-61747001I-225000J0D01*
G01*
X77258000Y-61747001D01*
G75*
G02*
X77033000Y-61522001I0J225000D01*
G01*
G37*
G36*
G01*
X75483000Y-61522001D02*
X75483000Y-61022001D01*
G75*
G02*
X75708000Y-60797001I225000J0D01*
G01*
X76158000Y-60797001D01*
G75*
G02*
X76383000Y-61022001I0J-225000D01*
G01*
X76383000Y-61522001D01*
G75*
G02*
X76158000Y-61747001I-225000J0D01*
G01*
X75708000Y-61747001D01*
G75*
G02*
X75483000Y-61522001I0J225000D01*
G01*
G37*
%TD*%
%TO.C,C13*%
G36*
G01*
X77033000Y-63046001D02*
X77033000Y-62546001D01*
G75*
G02*
X77258000Y-62321001I225000J0D01*
G01*
X77708000Y-62321001D01*
G75*
G02*
X77933000Y-62546001I0J-225000D01*
G01*
X77933000Y-63046001D01*
G75*
G02*
X77708000Y-63271001I-225000J0D01*
G01*
X77258000Y-63271001D01*
G75*
G02*
X77033000Y-63046001I0J225000D01*
G01*
G37*
G36*
G01*
X75483000Y-63046001D02*
X75483000Y-62546001D01*
G75*
G02*
X75708000Y-62321001I225000J0D01*
G01*
X76158000Y-62321001D01*
G75*
G02*
X76383000Y-62546001I0J-225000D01*
G01*
X76383000Y-63046001D01*
G75*
G02*
X76158000Y-63271001I-225000J0D01*
G01*
X75708000Y-63271001D01*
G75*
G02*
X75483000Y-63046001I0J225000D01*
G01*
G37*
%TD*%
%TO.C,C12*%
G36*
G01*
X71820000Y-35914001D02*
X71820000Y-34814001D01*
G75*
G02*
X72070000Y-34564001I250000J0D01*
G01*
X74570000Y-34564001D01*
G75*
G02*
X74820000Y-34814001I0J-250000D01*
G01*
X74820000Y-35914001D01*
G75*
G02*
X74570000Y-36164001I-250000J0D01*
G01*
X72070000Y-36164001D01*
G75*
G02*
X71820000Y-35914001I0J250000D01*
G01*
G37*
G36*
G01*
X67420000Y-35914001D02*
X67420000Y-34814001D01*
G75*
G02*
X67670000Y-34564001I250000J0D01*
G01*
X70170000Y-34564001D01*
G75*
G02*
X70420000Y-34814001I0J-250000D01*
G01*
X70420000Y-35914001D01*
G75*
G02*
X70170000Y-36164001I-250000J0D01*
G01*
X67670000Y-36164001D01*
G75*
G02*
X67420000Y-35914001I0J250000D01*
G01*
G37*
%TD*%
%TO.C,C11*%
G36*
G01*
X44013000Y-40186001D02*
X44013000Y-39686001D01*
G75*
G02*
X44238000Y-39461001I225000J0D01*
G01*
X44688000Y-39461001D01*
G75*
G02*
X44913000Y-39686001I0J-225000D01*
G01*
X44913000Y-40186001D01*
G75*
G02*
X44688000Y-40411001I-225000J0D01*
G01*
X44238000Y-40411001D01*
G75*
G02*
X44013000Y-40186001I0J225000D01*
G01*
G37*
G36*
G01*
X42463000Y-40186001D02*
X42463000Y-39686001D01*
G75*
G02*
X42688000Y-39461001I225000J0D01*
G01*
X43138000Y-39461001D01*
G75*
G02*
X43363000Y-39686001I0J-225000D01*
G01*
X43363000Y-40186001D01*
G75*
G02*
X43138000Y-40411001I-225000J0D01*
G01*
X42688000Y-40411001D01*
G75*
G02*
X42463000Y-40186001I0J225000D01*
G01*
G37*
%TD*%
%TO.C,C10*%
G36*
G01*
X44013000Y-41964001D02*
X44013000Y-41464001D01*
G75*
G02*
X44238000Y-41239001I225000J0D01*
G01*
X44688000Y-41239001D01*
G75*
G02*
X44913000Y-41464001I0J-225000D01*
G01*
X44913000Y-41964001D01*
G75*
G02*
X44688000Y-42189001I-225000J0D01*
G01*
X44238000Y-42189001D01*
G75*
G02*
X44013000Y-41964001I0J225000D01*
G01*
G37*
G36*
G01*
X42463000Y-41964001D02*
X42463000Y-41464001D01*
G75*
G02*
X42688000Y-41239001I225000J0D01*
G01*
X43138000Y-41239001D01*
G75*
G02*
X43363000Y-41464001I0J-225000D01*
G01*
X43363000Y-41964001D01*
G75*
G02*
X43138000Y-42189001I-225000J0D01*
G01*
X42688000Y-42189001D01*
G75*
G02*
X42463000Y-41964001I0J225000D01*
G01*
G37*
%TD*%
%TO.C,C9*%
G36*
G01*
X76383000Y-64324001D02*
X76383000Y-64824001D01*
G75*
G02*
X76158000Y-65049001I-225000J0D01*
G01*
X75708000Y-65049001D01*
G75*
G02*
X75483000Y-64824001I0J225000D01*
G01*
X75483000Y-64324001D01*
G75*
G02*
X75708000Y-64099001I225000J0D01*
G01*
X76158000Y-64099001D01*
G75*
G02*
X76383000Y-64324001I0J-225000D01*
G01*
G37*
G36*
G01*
X77933000Y-64324001D02*
X77933000Y-64824001D01*
G75*
G02*
X77708000Y-65049001I-225000J0D01*
G01*
X77258000Y-65049001D01*
G75*
G02*
X77033000Y-64824001I0J225000D01*
G01*
X77033000Y-64324001D01*
G75*
G02*
X77258000Y-64099001I225000J0D01*
G01*
X77708000Y-64099001D01*
G75*
G02*
X77933000Y-64324001I0J-225000D01*
G01*
G37*
%TD*%
%TO.C,C8*%
G36*
G01*
X63317000Y-64570001D02*
X63317000Y-64070001D01*
G75*
G02*
X63542000Y-63845001I225000J0D01*
G01*
X63992000Y-63845001D01*
G75*
G02*
X64217000Y-64070001I0J-225000D01*
G01*
X64217000Y-64570001D01*
G75*
G02*
X63992000Y-64795001I-225000J0D01*
G01*
X63542000Y-64795001D01*
G75*
G02*
X63317000Y-64570001I0J225000D01*
G01*
G37*
G36*
G01*
X61767000Y-64570001D02*
X61767000Y-64070001D01*
G75*
G02*
X61992000Y-63845001I225000J0D01*
G01*
X62442000Y-63845001D01*
G75*
G02*
X62667000Y-64070001I0J-225000D01*
G01*
X62667000Y-64570001D01*
G75*
G02*
X62442000Y-64795001I-225000J0D01*
G01*
X61992000Y-64795001D01*
G75*
G02*
X61767000Y-64570001I0J225000D01*
G01*
G37*
%TD*%
%TO.C,C7*%
G36*
G01*
X51379000Y-62792001D02*
X51379000Y-62292001D01*
G75*
G02*
X51604000Y-62067001I225000J0D01*
G01*
X52054000Y-62067001D01*
G75*
G02*
X52279000Y-62292001I0J-225000D01*
G01*
X52279000Y-62792001D01*
G75*
G02*
X52054000Y-63017001I-225000J0D01*
G01*
X51604000Y-63017001D01*
G75*
G02*
X51379000Y-62792001I0J225000D01*
G01*
G37*
G36*
G01*
X49829000Y-62792001D02*
X49829000Y-62292001D01*
G75*
G02*
X50054000Y-62067001I225000J0D01*
G01*
X50504000Y-62067001D01*
G75*
G02*
X50729000Y-62292001I0J-225000D01*
G01*
X50729000Y-62792001D01*
G75*
G02*
X50504000Y-63017001I-225000J0D01*
G01*
X50054000Y-63017001D01*
G75*
G02*
X49829000Y-62792001I0J225000D01*
G01*
G37*
%TD*%
%TO.C,C6*%
G36*
G01*
X63063000Y-54410001D02*
X63063000Y-53910001D01*
G75*
G02*
X63288000Y-53685001I225000J0D01*
G01*
X63738000Y-53685001D01*
G75*
G02*
X63963000Y-53910001I0J-225000D01*
G01*
X63963000Y-54410001D01*
G75*
G02*
X63738000Y-54635001I-225000J0D01*
G01*
X63288000Y-54635001D01*
G75*
G02*
X63063000Y-54410001I0J225000D01*
G01*
G37*
G36*
G01*
X61513000Y-54410001D02*
X61513000Y-53910001D01*
G75*
G02*
X61738000Y-53685001I225000J0D01*
G01*
X62188000Y-53685001D01*
G75*
G02*
X62413000Y-53910001I0J-225000D01*
G01*
X62413000Y-54410001D01*
G75*
G02*
X62188000Y-54635001I-225000J0D01*
G01*
X61738000Y-54635001D01*
G75*
G02*
X61513000Y-54410001I0J225000D01*
G01*
G37*
%TD*%
%TO.C,C5*%
G36*
G01*
X63442000Y-57937001D02*
X63442000Y-56987001D01*
G75*
G02*
X63692000Y-56737001I250000J0D01*
G01*
X64192000Y-56737001D01*
G75*
G02*
X64442000Y-56987001I0J-250000D01*
G01*
X64442000Y-57937001D01*
G75*
G02*
X64192000Y-58187001I-250000J0D01*
G01*
X63692000Y-58187001D01*
G75*
G02*
X63442000Y-57937001I0J250000D01*
G01*
G37*
G36*
G01*
X61542000Y-57937001D02*
X61542000Y-56987001D01*
G75*
G02*
X61792000Y-56737001I250000J0D01*
G01*
X62292000Y-56737001D01*
G75*
G02*
X62542000Y-56987001I0J-250000D01*
G01*
X62542000Y-57937001D01*
G75*
G02*
X62292000Y-58187001I-250000J0D01*
G01*
X61792000Y-58187001D01*
G75*
G02*
X61542000Y-57937001I0J250000D01*
G01*
G37*
%TD*%
%TO.C,C4*%
G36*
G01*
X43363000Y-60006001D02*
X43363000Y-60506001D01*
G75*
G02*
X43138000Y-60731001I-225000J0D01*
G01*
X42688000Y-60731001D01*
G75*
G02*
X42463000Y-60506001I0J225000D01*
G01*
X42463000Y-60006001D01*
G75*
G02*
X42688000Y-59781001I225000J0D01*
G01*
X43138000Y-59781001D01*
G75*
G02*
X43363000Y-60006001I0J-225000D01*
G01*
G37*
G36*
G01*
X44913000Y-60006001D02*
X44913000Y-60506001D01*
G75*
G02*
X44688000Y-60731001I-225000J0D01*
G01*
X44238000Y-60731001D01*
G75*
G02*
X44013000Y-60506001I0J225000D01*
G01*
X44013000Y-60006001D01*
G75*
G02*
X44238000Y-59781001I225000J0D01*
G01*
X44688000Y-59781001D01*
G75*
G02*
X44913000Y-60006001I0J-225000D01*
G01*
G37*
%TD*%
%TO.C,C3*%
G36*
G01*
X43363000Y-61784001D02*
X43363000Y-62284001D01*
G75*
G02*
X43138000Y-62509001I-225000J0D01*
G01*
X42688000Y-62509001D01*
G75*
G02*
X42463000Y-62284001I0J225000D01*
G01*
X42463000Y-61784001D01*
G75*
G02*
X42688000Y-61559001I225000J0D01*
G01*
X43138000Y-61559001D01*
G75*
G02*
X43363000Y-61784001I0J-225000D01*
G01*
G37*
G36*
G01*
X44913000Y-61784001D02*
X44913000Y-62284001D01*
G75*
G02*
X44688000Y-62509001I-225000J0D01*
G01*
X44238000Y-62509001D01*
G75*
G02*
X44013000Y-62284001I0J225000D01*
G01*
X44013000Y-61784001D01*
G75*
G02*
X44238000Y-61559001I225000J0D01*
G01*
X44688000Y-61559001D01*
G75*
G02*
X44913000Y-61784001I0J-225000D01*
G01*
G37*
%TD*%
%TO.C,C2*%
G36*
G01*
X63317000Y-63046001D02*
X63317000Y-62546001D01*
G75*
G02*
X63542000Y-62321001I225000J0D01*
G01*
X63992000Y-62321001D01*
G75*
G02*
X64217000Y-62546001I0J-225000D01*
G01*
X64217000Y-63046001D01*
G75*
G02*
X63992000Y-63271001I-225000J0D01*
G01*
X63542000Y-63271001D01*
G75*
G02*
X63317000Y-63046001I0J225000D01*
G01*
G37*
G36*
G01*
X61767000Y-63046001D02*
X61767000Y-62546001D01*
G75*
G02*
X61992000Y-62321001I225000J0D01*
G01*
X62442000Y-62321001D01*
G75*
G02*
X62667000Y-62546001I0J-225000D01*
G01*
X62667000Y-63046001D01*
G75*
G02*
X62442000Y-63271001I-225000J0D01*
G01*
X61992000Y-63271001D01*
G75*
G02*
X61767000Y-63046001I0J225000D01*
G01*
G37*
%TD*%
%TO.C,C1*%
G36*
G01*
X63442000Y-61239001D02*
X63442000Y-60289001D01*
G75*
G02*
X63692000Y-60039001I250000J0D01*
G01*
X64192000Y-60039001D01*
G75*
G02*
X64442000Y-60289001I0J-250000D01*
G01*
X64442000Y-61239001D01*
G75*
G02*
X64192000Y-61489001I-250000J0D01*
G01*
X63692000Y-61489001D01*
G75*
G02*
X63442000Y-61239001I0J250000D01*
G01*
G37*
G36*
G01*
X61542000Y-61239001D02*
X61542000Y-60289001D01*
G75*
G02*
X61792000Y-60039001I250000J0D01*
G01*
X62292000Y-60039001D01*
G75*
G02*
X62542000Y-60289001I0J-250000D01*
G01*
X62542000Y-61239001D01*
G75*
G02*
X62292000Y-61489001I-250000J0D01*
G01*
X61792000Y-61489001D01*
G75*
G02*
X61542000Y-61239001I0J250000D01*
G01*
G37*
%TD*%
M02*
