M48
; DRILL file {KiCad (5.1.8)-1} date 12/22/20 12:49:03
; FORMAT={-:-/ absolute / inch / decimal}
; #@! TF.CreationDate,2020-12-22T12:49:03-05:00
; #@! TF.GenerationSoftware,Kicad,Pcbnew,(5.1.8)-1
FMAT,2
INCH
T1C0.0138
T2C0.0197
T3C0.0295
T4C0.0300
T5C0.0394
T6C0.0157
T7C0.0827
T8C0.1063
%
G90
G05
T1
X1.0555Y-3.5123
X1.08Y-3.2623
X1.1Y-3.1623
X1.1Y-3.3723
X1.1Y-3.5523
X1.11Y-2.1323
X1.12Y-2.2223
X1.1275Y-3.6548
X1.14Y-3.3223
X1.1528Y-3.405
X1.16Y-3.1623
X1.17Y-3.5423
X1.2Y-3.2623
X1.2Y-3.4523
X1.22Y-3.2223
X1.23Y-2.2223
X1.23Y-3.1923
X1.24Y-2.1323
X1.25Y-3.0123
X1.25Y-3.3323
X1.25Y-3.3723
X1.25Y-3.4123
X1.27Y-3.2123
X1.27Y-3.5923
X1.27Y-3.6523
X1.3Y-3.5523
X1.3111Y-3.2034
X1.33Y-3.5323
X1.3437Y-1.6923
X1.35Y-3.22
X1.3645Y-2.9578
X1.37Y-1.19
X1.37Y-1.22
X1.37Y-3.3723
X1.37Y-3.4023
X1.37Y-3.55
X1.3839Y-3.2148
X1.39Y-2.94
X1.39Y-3.0523
X1.39Y-3.1523
X1.4Y-3.3323
X1.4Y-3.3723
X1.4Y-3.4123
X1.4Y-3.5423
X1.41Y-1.19
X1.41Y-1.22
X1.41Y-1.3423
X1.42Y-3.3123
X1.42Y-3.3523
X1.42Y-3.3923
X1.42Y-3.4323
X1.4729Y-3.041
X1.485Y-3.5298
X1.485Y-3.5573
X1.5Y-2.63
X1.5Y-2.81
X1.5Y-2.99
X1.5Y-3.2023
X1.5075Y-3.5173
X1.5075Y-3.5448
X1.5075Y-3.5723
X1.51Y-2.93
X1.54Y-3.5173
X1.54Y-3.5448
X1.54Y-3.5723
X1.55Y-1.5223
X1.55Y-1.9523
X1.5625Y-3.5298
X1.5625Y-3.5573
X1.59Y-3.0123
X1.63Y-1.5723
X1.63Y-2.3923
X1.64Y-1.6823
X1.65Y-1.5228
X1.65Y-1.9323
X1.65Y-3.2323
X1.66Y-1.7023
X1.66Y-1.7623
X1.66Y-2.1823
X1.66Y-2.3723
X1.68Y-2.6123
X1.69Y-1.2423
X1.69Y-2.4823
X1.69Y-2.8023
X1.69Y-3.5923
X1.71Y-1.8223
X1.71Y-2.0623
X1.71Y-2.1223
X1.7109Y-1.8823
X1.72Y-2.67
X1.73Y-1.5123
X1.73Y-1.7623
X1.75Y-1.6123
X1.7539Y-2.6123
X1.76Y-1.5323
X1.7635Y-1.4788
X1.78Y-1.3223
X1.78Y-1.5023
X1.7877Y-1.4669
X1.79Y-2.5823
X1.7903Y-1.432
X1.8Y-1.7923
X1.8Y-2.51
X1.8081Y-1.3737
X1.8095Y-1.7373
X1.81Y-1.2823
X1.81Y-1.4023
X1.8191Y-1.8223
X1.82Y-2.1223
X1.82Y-2.1823
X1.82Y-2.2423
X1.82Y-2.3023
X1.82Y-2.3723
X1.82Y-2.4423
X1.82Y-2.6923
X1.88Y-1.9623
X1.9Y-2.6823
X1.92Y-2.5323
X1.93Y-2.7923
X1.94Y-1.2823
X1.94Y-2.3923
X1.94Y-3.44
X1.9422Y-3.4033
X1.95Y-2.2723
X1.95Y-2.46
X1.96Y-1.3206
X1.96Y-2.1523
X1.98Y-1.8431
X1.98Y-2.6123
X1.98Y-2.6923
X1.99Y-1.7323
X1.99Y-1.7723
X1.99Y-2.0223
X1.9904Y-1.9135
X2.0Y-1.2731
X2.02Y-1.3423
X2.02Y-1.8223
X2.02Y-3.4323
X2.03Y-1.9123
X2.04Y-1.6323
X2.0546Y-1.6729
X2.0642Y-3.4504
X2.07Y-2.4623
X2.07Y-3.2223
X2.07Y-4.2794
X2.07Y-4.3294
X2.07Y-4.3861
X2.09Y-3.0723
X2.1Y-2.9023
X2.1233Y-2.2656
X2.13Y-1.5123
X2.13Y-1.5423
X2.13Y-1.5723
X2.13Y-1.6023
X2.13Y-1.6323
X2.15Y-2.1523
X2.1502Y-1.4425
X2.16Y-1.4031
X2.17Y-3.5123
X2.18Y-1.5123
X2.18Y-1.5423
X2.18Y-1.5723
X2.18Y-1.6023
X2.18Y-1.6323
X2.18Y-4.4394
X2.19Y-2.35
X2.19Y-3.4323
X2.2Y-2.2023
X2.2Y-2.2623
X2.22Y-2.4223
X2.22Y-2.9023
X2.22Y-2.9623
X2.22Y-3.0323
X2.23Y-1.5123
X2.23Y-1.5423
X2.23Y-1.5723
X2.23Y-1.6023
X2.23Y-1.6323
X2.23Y-4.5594
X2.24Y-4.3494
X2.24Y-4.4194
X2.25Y-3.0623
X2.25Y-3.1823
X2.2594Y-2.4219
X2.26Y-2.2023
X2.26Y-2.2623
X2.27Y-3.5723
X2.28Y-2.9723
X2.29Y-2.4223
X2.3Y-2.3423
X2.31Y-2.3123
X2.31Y-3.96
X2.31Y-4.4994
X2.32Y-2.8923
X2.32Y-2.9523
X2.32Y-3.1923
X2.32Y-3.3623
X2.33Y-2.3331
X2.33Y-2.6223
X2.33Y-3.5723
X2.33Y-3.98
X2.35Y-4.0
X2.3591Y-3.6291
X2.36Y-3.4323
X2.36Y-4.4094
X2.36Y-4.4494
X2.37Y-2.2823
X2.37Y-4.02
X2.37Y-4.12
X2.37Y-4.24
X2.37Y-4.3
X2.38Y-4.18
X2.39Y-1.3123
X2.39Y-1.6223
X2.39Y-3.0723
X2.39Y-3.3223
X2.39Y-3.5723
X2.39Y-3.63
X2.3982Y-3.0015
X2.4Y-2.1323
X2.4Y-2.2347
X2.4Y-3.93
X2.41Y-2.4723
X2.412Y-2.3903
X2.4191Y-1.3209
X2.42Y-1.53
X2.42Y-3.91
X2.42Y-4.13
X2.4283Y-2.6424
X2.43Y-3.1523
X2.45Y-1.7223
X2.45Y-2.9523
X2.45Y-3.0223
X2.4582Y-3.2218
X2.46Y-2.5623
X2.46Y-2.7317
X2.47Y-3.5523
X2.48Y-1.2823
X2.48Y-1.3823
X2.48Y-3.96
X2.5Y-2.0423
X2.5Y-3.0023
X2.5Y-3.1323
X2.5Y-4.11
X2.51Y-2.1623
X2.52Y-2.2223
X2.52Y-3.2523
X2.52Y-3.4214
X2.52Y-3.5723
X2.53Y-2.3523
X2.54Y-2.4723
X2.54Y-2.5323
X2.55Y-3.6023
X2.56Y-3.2423
X2.57Y-3.0023
X2.57Y-3.1323
X2.59Y-2.2823
X2.59Y-3.2923
X2.6Y-1.9223
X2.6Y-4.52
X2.61Y-1.2723
X2.61Y-2.7923
X2.62Y-2.2614
X2.62Y-2.5723
X2.62Y-2.7123
X2.63Y-1.3923
X2.65Y-2.3723
X2.69Y-2.8523
X2.6913Y-3.079
X2.71Y-1.6323
X2.71Y-2.7723
X2.72Y-1.4423
X2.72Y-1.9
X2.72Y-2.6423
X2.73Y-2.2523
X2.73Y-3.0023
X2.74Y-3.2023
X2.76Y-1.9523
X2.76Y-2.0323
X2.76Y-2.1023
X2.76Y-2.1823
X2.77Y-1.5523
X2.77Y-1.6923
X2.77Y-1.7623
X2.77Y-2.4223
X2.77Y-2.7023
X2.77Y-2.9323
X2.77Y-3.98
X2.78Y-3.0523
X2.78Y-3.1123
X2.8Y-1.3423
X2.8Y-4.53
X2.81Y-1.3923
X2.82Y-3.2023
X2.84Y-2.4623
X2.84Y-2.6323
X2.84Y-3.0823
X2.8489Y-1.8911
X2.85Y-1.8223
X2.85Y-2.5023
X2.86Y-2.8523
X2.86Y-2.9323
X2.86Y-3.0023
X2.8726Y-2.5723
X2.89Y-3.2323
X2.89Y-4.2194
X2.89Y-4.45
X2.9Y-2.3441
X2.93Y-3.23
X2.94Y-1.8123
X2.95Y-1.5923
X2.95Y-1.9423
X2.95Y-2.12
X2.96Y-2.5223
X2.96Y-2.6123
X2.97Y-1.3923
X2.99Y-2.0323
X2.99Y-4.4
X3.01Y-1.5323
X3.01Y-1.6623
X3.01Y-1.7223
X3.01Y-1.7823
X3.01Y-1.8423
X3.01Y-2.2023
X3.01Y-4.34
X3.02Y-1.3
X3.02Y-3.51
X3.05Y-1.38
X3.06Y-1.4423
X3.08Y-1.7823
X3.08Y-1.8423
X3.08Y-2.4123
X3.08Y-2.4723
X3.09Y-1.6323
X3.09Y-2.2023
X3.09Y-2.2723
X3.09Y-3.9794
X3.1Y-3.59
X3.101Y-1.9013
X3.1174Y-2.1323
X3.12Y-4.29
X3.14Y-2.0623
X3.16Y-4.0894
X3.28Y-1.6823
X3.35Y-1.7223
X3.35Y-2.1723
X3.37Y-1.7
X3.38Y-1.77
X3.38Y-2.54
T3
X1.42Y-2.6213
X1.42Y-2.7
X3.01Y-3.1035
X3.01Y-3.1823
X3.23Y-1.9023
X3.23Y-1.981
X3.23Y-2.0598
X3.23Y-2.1385
X3.01Y-2.8223
X3.01Y-2.901
T4
X2.23Y-2.81
X2.33Y-2.81
X2.43Y-2.81
X3.22Y-2.38
X3.22Y-2.4587
X3.22Y-2.5375
X3.22Y-2.6162
T5
X2.0254Y-4.0437
X2.0254Y-4.4532
T6
X1.4997Y-3.7008
X1.4997Y-3.7795
X1.5292Y-3.7008
X1.5292Y-3.7795
X1.5587Y-3.7008
X1.5587Y-3.7795
X1.5883Y-3.7008
X1.5883Y-3.7795
X1.6178Y-3.7008
X1.6178Y-3.7795
X3.2606Y-3.7
X3.2606Y-3.7787
X3.2902Y-3.7
X3.2902Y-3.7787
X3.3197Y-3.7
X3.3197Y-3.7787
X3.3492Y-3.7
X3.3492Y-3.7787
X3.3787Y-3.7
X3.3787Y-3.7787
X2.4197Y-3.7
X2.4197Y-3.7787
X2.4492Y-3.7
X2.4492Y-3.7787
X2.4787Y-3.7
X2.4787Y-3.7787
X2.5083Y-3.7
X2.5083Y-3.7787
X2.5378Y-3.7
X2.5378Y-3.7787
T7
X3.3325Y-3.8786
X1.5609Y-3.8786
X3.3325Y-4.626
X1.5609Y-4.626
T8
X1.6105Y-1.0858
X2.8105Y-1.0858
X1.6105Y-3.3858
X2.8105Y-3.3858
T2
G00X2.1135Y-2.54
M15
G01X2.086Y-2.54
M16
G05
G00X2.2317Y-2.6246
M15
G01X2.1883Y-2.6246
M16
G05
G00X2.334Y-2.54
M15
G01X2.3065Y-2.54
M16
G05
T0
M30
