%TF.GenerationSoftware,KiCad,Pcbnew,(5.1.8)-1*%
%TF.CreationDate,2020-12-22T12:44:13-05:00*%
%TF.ProjectId,uratt,75726174-742e-46b6-9963-61645f706362,rev?*%
%TF.SameCoordinates,Original*%
%TF.FileFunction,Soldermask,Bot*%
%TF.FilePolarity,Negative*%
%FSLAX46Y46*%
G04 Gerber Fmt 4.6, Leading zero omitted, Abs format (unit mm)*
G04 Created by KiCad (PCBNEW (5.1.8)-1) date 2020-12-22 12:44:13*
%MOMM*%
%LPD*%
G01*
G04 APERTURE LIST*
%ADD10R,3.100000X2.300000*%
%ADD11R,1.100000X0.300000*%
%ADD12C,1.000000*%
%ADD13C,1.524000*%
%ADD14R,1.524000X1.524000*%
%ADD15C,0.400000*%
%ADD16R,2.000000X4.200000*%
%ADD17C,2.100000*%
%ADD18O,2.200000X1.100000*%
%ADD19O,1.800000X1.100000*%
%ADD20R,0.450000X1.500000*%
%ADD21C,2.700000*%
%ADD22R,3.000000X0.500000*%
%ADD23R,0.900000X0.800000*%
%ADD24O,1.750000X1.200000*%
%ADD25R,0.900000X1.000000*%
G04 APERTURE END LIST*
D10*
%TO.C,J9*%
X63596000Y-106200000D03*
X63596000Y-98360000D03*
D11*
X61896000Y-104530000D03*
X61896000Y-104030000D03*
X61896000Y-103530000D03*
X61896000Y-103030000D03*
X61896000Y-102530000D03*
X61896000Y-102030000D03*
X61896000Y-101530000D03*
X61896000Y-101030000D03*
X61896000Y-100530000D03*
X61896000Y-100030000D03*
%TD*%
D12*
%TO.C,TP7*%
X38354000Y-74422000D03*
%TD*%
D13*
%TO.C,J5*%
X81788000Y-66452000D03*
X81788000Y-64452000D03*
X81788000Y-62452000D03*
D14*
X81788000Y-60452000D03*
%TD*%
D13*
%TO.C,SW4*%
X56642000Y-71374000D03*
X59182000Y-71374000D03*
X61722000Y-71374000D03*
%TD*%
D15*
%TO.C,BK3*%
X85820000Y-95980000D03*
X85070000Y-95980000D03*
X83570000Y-95980000D03*
X84320000Y-95980000D03*
X82820000Y-95980000D03*
X85820000Y-93980000D03*
X82820000Y-93980000D03*
X83570000Y-93980000D03*
X85070000Y-93980000D03*
X84320000Y-93980000D03*
%TD*%
%TO.C,BK2*%
X64460000Y-95980000D03*
X63710000Y-95980000D03*
X62210000Y-95980000D03*
X62960000Y-95980000D03*
X61460000Y-95980000D03*
X64460000Y-93980000D03*
X61460000Y-93980000D03*
X62210000Y-93980000D03*
X63710000Y-93980000D03*
X62960000Y-93980000D03*
%TD*%
%TO.C,BK1*%
X39592000Y-94000000D03*
X40342000Y-94000000D03*
X38842000Y-94000000D03*
X38092000Y-94000000D03*
X41092000Y-94000000D03*
X38092000Y-96000000D03*
X39592000Y-96000000D03*
X38842000Y-96000000D03*
X40342000Y-96000000D03*
X41092000Y-96000000D03*
%TD*%
D16*
%TO.C,BZ2*%
X73724000Y-101076000D03*
X81724000Y-101076000D03*
%TD*%
D17*
%TO.C,H8*%
X84646000Y-117500000D03*
%TD*%
%TO.C,H7*%
X39646000Y-117500000D03*
%TD*%
%TO.C,H6*%
X84646000Y-98516000D03*
%TD*%
%TO.C,H5*%
X39645999Y-98516000D03*
%TD*%
D18*
%TO.C,J1*%
X56134000Y-66665001D03*
D19*
X53334000Y-64515001D03*
X58934000Y-64515001D03*
D20*
X57434000Y-64765001D03*
X54834000Y-64765001D03*
X56784000Y-64765001D03*
X55484000Y-64765001D03*
X56134000Y-64765001D03*
%TD*%
D21*
%TO.C,H4*%
X71386000Y-86000001D03*
%TD*%
%TO.C,H3*%
X40905999Y-86000001D03*
%TD*%
%TO.C,H2*%
X71386000Y-27580001D03*
%TD*%
%TO.C,H1*%
X40906000Y-27580001D03*
%TD*%
D12*
%TO.C,TP6*%
X62484000Y-81026000D03*
%TD*%
%TO.C,TP5*%
X49784000Y-54668001D03*
%TD*%
%TO.C,TP4*%
X31750000Y-76512001D03*
%TD*%
%TO.C,TP3*%
X28956000Y-89974001D03*
%TD*%
%TO.C,TP2*%
X66294000Y-70924001D03*
%TD*%
%TO.C,TP1*%
X58928000Y-85402001D03*
%TD*%
D22*
%TO.C,LCD1*%
X54719000Y-112100000D03*
X54719000Y-111400000D03*
X54719000Y-110700000D03*
X54719000Y-110000000D03*
X54719000Y-109300000D03*
X54719000Y-108600000D03*
X54719000Y-107900000D03*
X54719000Y-107200000D03*
X54719000Y-106500000D03*
X54719000Y-105800000D03*
X54719000Y-105100000D03*
X54719000Y-104400000D03*
X54719000Y-103700000D03*
%TD*%
%TO.C,R53*%
G36*
G01*
X74147000Y-114455000D02*
X74697000Y-114455000D01*
G75*
G02*
X74897000Y-114655000I0J-200000D01*
G01*
X74897000Y-115055000D01*
G75*
G02*
X74697000Y-115255000I-200000J0D01*
G01*
X74147000Y-115255000D01*
G75*
G02*
X73947000Y-115055000I0J200000D01*
G01*
X73947000Y-114655000D01*
G75*
G02*
X74147000Y-114455000I200000J0D01*
G01*
G37*
G36*
G01*
X74147000Y-112805000D02*
X74697000Y-112805000D01*
G75*
G02*
X74897000Y-113005000I0J-200000D01*
G01*
X74897000Y-113405000D01*
G75*
G02*
X74697000Y-113605000I-200000J0D01*
G01*
X74147000Y-113605000D01*
G75*
G02*
X73947000Y-113405000I0J200000D01*
G01*
X73947000Y-113005000D01*
G75*
G02*
X74147000Y-112805000I200000J0D01*
G01*
G37*
%TD*%
%TO.C,R52*%
G36*
G01*
X71291000Y-112289000D02*
X71291000Y-111739000D01*
G75*
G02*
X71491000Y-111539000I200000J0D01*
G01*
X71891000Y-111539000D01*
G75*
G02*
X72091000Y-111739000I0J-200000D01*
G01*
X72091000Y-112289000D01*
G75*
G02*
X71891000Y-112489000I-200000J0D01*
G01*
X71491000Y-112489000D01*
G75*
G02*
X71291000Y-112289000I0J200000D01*
G01*
G37*
G36*
G01*
X69641000Y-112289000D02*
X69641000Y-111739000D01*
G75*
G02*
X69841000Y-111539000I200000J0D01*
G01*
X70241000Y-111539000D01*
G75*
G02*
X70441000Y-111739000I0J-200000D01*
G01*
X70441000Y-112289000D01*
G75*
G02*
X70241000Y-112489000I-200000J0D01*
G01*
X69841000Y-112489000D01*
G75*
G02*
X69641000Y-112289000I0J200000D01*
G01*
G37*
%TD*%
D23*
%TO.C,Q4*%
X72120000Y-115062000D03*
X70120000Y-114112000D03*
X70120000Y-116012000D03*
%TD*%
D24*
%TO.C,J8*%
X36068000Y-66580000D03*
G36*
G01*
X36693001Y-69180000D02*
X35442999Y-69180000D01*
G75*
G02*
X35193000Y-68930001I0J249999D01*
G01*
X35193000Y-68229999D01*
G75*
G02*
X35442999Y-67980000I249999J0D01*
G01*
X36693001Y-67980000D01*
G75*
G02*
X36943000Y-68229999I0J-249999D01*
G01*
X36943000Y-68930001D01*
G75*
G02*
X36693001Y-69180000I-249999J0D01*
G01*
G37*
%TD*%
%TO.C,J7*%
X76454000Y-73686001D03*
G36*
G01*
X75828999Y-71086001D02*
X77079001Y-71086001D01*
G75*
G02*
X77329000Y-71336000I0J-249999D01*
G01*
X77329000Y-72036002D01*
G75*
G02*
X77079001Y-72286001I-249999J0D01*
G01*
X75828999Y-72286001D01*
G75*
G02*
X75579000Y-72036002I0J249999D01*
G01*
X75579000Y-71336000D01*
G75*
G02*
X75828999Y-71086001I249999J0D01*
G01*
G37*
%TD*%
%TO.C,J6*%
X76454000Y-80830001D03*
G36*
G01*
X75828999Y-78230001D02*
X77079001Y-78230001D01*
G75*
G02*
X77329000Y-78480000I0J-249999D01*
G01*
X77329000Y-79180002D01*
G75*
G02*
X77079001Y-79430001I-249999J0D01*
G01*
X75828999Y-79430001D01*
G75*
G02*
X75579000Y-79180002I0J249999D01*
G01*
X75579000Y-78480000D01*
G75*
G02*
X75828999Y-78230001I249999J0D01*
G01*
G37*
%TD*%
%TO.C,J4*%
X82042000Y-54318001D03*
X82042000Y-52318001D03*
X82042000Y-50318001D03*
G36*
G01*
X81416999Y-47718001D02*
X82667001Y-47718001D01*
G75*
G02*
X82917000Y-47968000I0J-249999D01*
G01*
X82917000Y-48668002D01*
G75*
G02*
X82667001Y-48918001I-249999J0D01*
G01*
X81416999Y-48918001D01*
G75*
G02*
X81167000Y-48668002I0J249999D01*
G01*
X81167000Y-47968000D01*
G75*
G02*
X81416999Y-47718001I249999J0D01*
G01*
G37*
%TD*%
D25*
%TO.C,SW2*%
X66566000Y-66314001D03*
X66566000Y-67914001D03*
X62466000Y-66314001D03*
X62466000Y-67914001D03*
%TD*%
%TO.C,SW1*%
X49548000Y-66314001D03*
X49548000Y-67914001D03*
X45448000Y-66314001D03*
X45448000Y-67914001D03*
%TD*%
%TO.C,R51*%
G36*
G01*
X58845000Y-114559000D02*
X58845000Y-114009000D01*
G75*
G02*
X59045000Y-113809000I200000J0D01*
G01*
X59445000Y-113809000D01*
G75*
G02*
X59645000Y-114009000I0J-200000D01*
G01*
X59645000Y-114559000D01*
G75*
G02*
X59445000Y-114759000I-200000J0D01*
G01*
X59045000Y-114759000D01*
G75*
G02*
X58845000Y-114559000I0J200000D01*
G01*
G37*
G36*
G01*
X57195000Y-114559000D02*
X57195000Y-114009000D01*
G75*
G02*
X57395000Y-113809000I200000J0D01*
G01*
X57795000Y-113809000D01*
G75*
G02*
X57995000Y-114009000I0J-200000D01*
G01*
X57995000Y-114559000D01*
G75*
G02*
X57795000Y-114759000I-200000J0D01*
G01*
X57395000Y-114759000D01*
G75*
G02*
X57195000Y-114559000I0J200000D01*
G01*
G37*
%TD*%
%TO.C,R50*%
G36*
G01*
X58907000Y-103383000D02*
X58907000Y-102833000D01*
G75*
G02*
X59107000Y-102633000I200000J0D01*
G01*
X59507000Y-102633000D01*
G75*
G02*
X59707000Y-102833000I0J-200000D01*
G01*
X59707000Y-103383000D01*
G75*
G02*
X59507000Y-103583000I-200000J0D01*
G01*
X59107000Y-103583000D01*
G75*
G02*
X58907000Y-103383000I0J200000D01*
G01*
G37*
G36*
G01*
X57257000Y-103383000D02*
X57257000Y-102833000D01*
G75*
G02*
X57457000Y-102633000I200000J0D01*
G01*
X57857000Y-102633000D01*
G75*
G02*
X58057000Y-102833000I0J-200000D01*
G01*
X58057000Y-103383000D01*
G75*
G02*
X57857000Y-103583000I-200000J0D01*
G01*
X57457000Y-103583000D01*
G75*
G02*
X57257000Y-103383000I0J200000D01*
G01*
G37*
%TD*%
%TO.C,R49*%
G36*
G01*
X58907000Y-106431000D02*
X58907000Y-105881000D01*
G75*
G02*
X59107000Y-105681000I200000J0D01*
G01*
X59507000Y-105681000D01*
G75*
G02*
X59707000Y-105881000I0J-200000D01*
G01*
X59707000Y-106431000D01*
G75*
G02*
X59507000Y-106631000I-200000J0D01*
G01*
X59107000Y-106631000D01*
G75*
G02*
X58907000Y-106431000I0J200000D01*
G01*
G37*
G36*
G01*
X57257000Y-106431000D02*
X57257000Y-105881000D01*
G75*
G02*
X57457000Y-105681000I200000J0D01*
G01*
X57857000Y-105681000D01*
G75*
G02*
X58057000Y-105881000I0J-200000D01*
G01*
X58057000Y-106431000D01*
G75*
G02*
X57857000Y-106631000I-200000J0D01*
G01*
X57457000Y-106631000D01*
G75*
G02*
X57257000Y-106431000I0J200000D01*
G01*
G37*
%TD*%
%TO.C,R48*%
G36*
G01*
X58907000Y-109479000D02*
X58907000Y-108929000D01*
G75*
G02*
X59107000Y-108729000I200000J0D01*
G01*
X59507000Y-108729000D01*
G75*
G02*
X59707000Y-108929000I0J-200000D01*
G01*
X59707000Y-109479000D01*
G75*
G02*
X59507000Y-109679000I-200000J0D01*
G01*
X59107000Y-109679000D01*
G75*
G02*
X58907000Y-109479000I0J200000D01*
G01*
G37*
G36*
G01*
X57257000Y-109479000D02*
X57257000Y-108929000D01*
G75*
G02*
X57457000Y-108729000I200000J0D01*
G01*
X57857000Y-108729000D01*
G75*
G02*
X58057000Y-108929000I0J-200000D01*
G01*
X58057000Y-109479000D01*
G75*
G02*
X57857000Y-109679000I-200000J0D01*
G01*
X57457000Y-109679000D01*
G75*
G02*
X57257000Y-109479000I0J200000D01*
G01*
G37*
%TD*%
%TO.C,R47*%
G36*
G01*
X58907000Y-104907000D02*
X58907000Y-104357000D01*
G75*
G02*
X59107000Y-104157000I200000J0D01*
G01*
X59507000Y-104157000D01*
G75*
G02*
X59707000Y-104357000I0J-200000D01*
G01*
X59707000Y-104907000D01*
G75*
G02*
X59507000Y-105107000I-200000J0D01*
G01*
X59107000Y-105107000D01*
G75*
G02*
X58907000Y-104907000I0J200000D01*
G01*
G37*
G36*
G01*
X57257000Y-104907000D02*
X57257000Y-104357000D01*
G75*
G02*
X57457000Y-104157000I200000J0D01*
G01*
X57857000Y-104157000D01*
G75*
G02*
X58057000Y-104357000I0J-200000D01*
G01*
X58057000Y-104907000D01*
G75*
G02*
X57857000Y-105107000I-200000J0D01*
G01*
X57457000Y-105107000D01*
G75*
G02*
X57257000Y-104907000I0J200000D01*
G01*
G37*
%TD*%
%TO.C,R46*%
G36*
G01*
X58907000Y-107955000D02*
X58907000Y-107405000D01*
G75*
G02*
X59107000Y-107205000I200000J0D01*
G01*
X59507000Y-107205000D01*
G75*
G02*
X59707000Y-107405000I0J-200000D01*
G01*
X59707000Y-107955000D01*
G75*
G02*
X59507000Y-108155000I-200000J0D01*
G01*
X59107000Y-108155000D01*
G75*
G02*
X58907000Y-107955000I0J200000D01*
G01*
G37*
G36*
G01*
X57257000Y-107955000D02*
X57257000Y-107405000D01*
G75*
G02*
X57457000Y-107205000I200000J0D01*
G01*
X57857000Y-107205000D01*
G75*
G02*
X58057000Y-107405000I0J-200000D01*
G01*
X58057000Y-107955000D01*
G75*
G02*
X57857000Y-108155000I-200000J0D01*
G01*
X57457000Y-108155000D01*
G75*
G02*
X57257000Y-107955000I0J200000D01*
G01*
G37*
%TD*%
%TO.C,R45*%
G36*
G01*
X58907000Y-116211000D02*
X58907000Y-115661000D01*
G75*
G02*
X59107000Y-115461000I200000J0D01*
G01*
X59507000Y-115461000D01*
G75*
G02*
X59707000Y-115661000I0J-200000D01*
G01*
X59707000Y-116211000D01*
G75*
G02*
X59507000Y-116411000I-200000J0D01*
G01*
X59107000Y-116411000D01*
G75*
G02*
X58907000Y-116211000I0J200000D01*
G01*
G37*
G36*
G01*
X57257000Y-116211000D02*
X57257000Y-115661000D01*
G75*
G02*
X57457000Y-115461000I200000J0D01*
G01*
X57857000Y-115461000D01*
G75*
G02*
X58057000Y-115661000I0J-200000D01*
G01*
X58057000Y-116211000D01*
G75*
G02*
X57857000Y-116411000I-200000J0D01*
G01*
X57457000Y-116411000D01*
G75*
G02*
X57257000Y-116211000I0J200000D01*
G01*
G37*
%TD*%
%TO.C,R44*%
G36*
G01*
X65511000Y-116211000D02*
X65511000Y-115661000D01*
G75*
G02*
X65711000Y-115461000I200000J0D01*
G01*
X66111000Y-115461000D01*
G75*
G02*
X66311000Y-115661000I0J-200000D01*
G01*
X66311000Y-116211000D01*
G75*
G02*
X66111000Y-116411000I-200000J0D01*
G01*
X65711000Y-116411000D01*
G75*
G02*
X65511000Y-116211000I0J200000D01*
G01*
G37*
G36*
G01*
X63861000Y-116211000D02*
X63861000Y-115661000D01*
G75*
G02*
X64061000Y-115461000I200000J0D01*
G01*
X64461000Y-115461000D01*
G75*
G02*
X64661000Y-115661000I0J-200000D01*
G01*
X64661000Y-116211000D01*
G75*
G02*
X64461000Y-116411000I-200000J0D01*
G01*
X64061000Y-116411000D01*
G75*
G02*
X63861000Y-116211000I0J200000D01*
G01*
G37*
%TD*%
%TO.C,R43*%
G36*
G01*
X74697000Y-110557000D02*
X74147000Y-110557000D01*
G75*
G02*
X73947000Y-110357000I0J200000D01*
G01*
X73947000Y-109957000D01*
G75*
G02*
X74147000Y-109757000I200000J0D01*
G01*
X74697000Y-109757000D01*
G75*
G02*
X74897000Y-109957000I0J-200000D01*
G01*
X74897000Y-110357000D01*
G75*
G02*
X74697000Y-110557000I-200000J0D01*
G01*
G37*
G36*
G01*
X74697000Y-112207000D02*
X74147000Y-112207000D01*
G75*
G02*
X73947000Y-112007000I0J200000D01*
G01*
X73947000Y-111607000D01*
G75*
G02*
X74147000Y-111407000I200000J0D01*
G01*
X74697000Y-111407000D01*
G75*
G02*
X74897000Y-111607000I0J-200000D01*
G01*
X74897000Y-112007000D01*
G75*
G02*
X74697000Y-112207000I-200000J0D01*
G01*
G37*
%TD*%
D23*
%TO.C,Q3*%
X62784000Y-115174000D03*
X60784000Y-114224000D03*
X60784000Y-116124000D03*
%TD*%
%TO.C,C34*%
G36*
G01*
X58807000Y-112884000D02*
X58807000Y-112384000D01*
G75*
G02*
X59032000Y-112159000I225000J0D01*
G01*
X59482000Y-112159000D01*
G75*
G02*
X59707000Y-112384000I0J-225000D01*
G01*
X59707000Y-112884000D01*
G75*
G02*
X59482000Y-113109000I-225000J0D01*
G01*
X59032000Y-113109000D01*
G75*
G02*
X58807000Y-112884000I0J225000D01*
G01*
G37*
G36*
G01*
X57257000Y-112884000D02*
X57257000Y-112384000D01*
G75*
G02*
X57482000Y-112159000I225000J0D01*
G01*
X57932000Y-112159000D01*
G75*
G02*
X58157000Y-112384000I0J-225000D01*
G01*
X58157000Y-112884000D01*
G75*
G02*
X57932000Y-113109000I-225000J0D01*
G01*
X57482000Y-113109000D01*
G75*
G02*
X57257000Y-112884000I0J225000D01*
G01*
G37*
%TD*%
%TO.C,C33*%
G36*
G01*
X58807000Y-111360000D02*
X58807000Y-110860000D01*
G75*
G02*
X59032000Y-110635000I225000J0D01*
G01*
X59482000Y-110635000D01*
G75*
G02*
X59707000Y-110860000I0J-225000D01*
G01*
X59707000Y-111360000D01*
G75*
G02*
X59482000Y-111585000I-225000J0D01*
G01*
X59032000Y-111585000D01*
G75*
G02*
X58807000Y-111360000I0J225000D01*
G01*
G37*
G36*
G01*
X57257000Y-111360000D02*
X57257000Y-110860000D01*
G75*
G02*
X57482000Y-110635000I225000J0D01*
G01*
X57932000Y-110635000D01*
G75*
G02*
X58157000Y-110860000I0J-225000D01*
G01*
X58157000Y-111360000D01*
G75*
G02*
X57932000Y-111585000I-225000J0D01*
G01*
X57482000Y-111585000D01*
G75*
G02*
X57257000Y-111360000I0J225000D01*
G01*
G37*
%TD*%
%TO.C,C32*%
G36*
G01*
X74672000Y-107609000D02*
X74172000Y-107609000D01*
G75*
G02*
X73947000Y-107384000I0J225000D01*
G01*
X73947000Y-106934000D01*
G75*
G02*
X74172000Y-106709000I225000J0D01*
G01*
X74672000Y-106709000D01*
G75*
G02*
X74897000Y-106934000I0J-225000D01*
G01*
X74897000Y-107384000D01*
G75*
G02*
X74672000Y-107609000I-225000J0D01*
G01*
G37*
G36*
G01*
X74672000Y-109159000D02*
X74172000Y-109159000D01*
G75*
G02*
X73947000Y-108934000I0J225000D01*
G01*
X73947000Y-108484000D01*
G75*
G02*
X74172000Y-108259000I225000J0D01*
G01*
X74672000Y-108259000D01*
G75*
G02*
X74897000Y-108484000I0J-225000D01*
G01*
X74897000Y-108934000D01*
G75*
G02*
X74672000Y-109159000I-225000J0D01*
G01*
G37*
%TD*%
M02*
