%TF.GenerationSoftware,KiCad,Pcbnew,(5.1.8)-1*%
%TF.CreationDate,2020-12-22T12:44:13-05:00*%
%TF.ProjectId,uratt,75726174-742e-46b6-9963-61645f706362,rev?*%
%TF.SameCoordinates,Original*%
%TF.FileFunction,Legend,Top*%
%TF.FilePolarity,Positive*%
%FSLAX46Y46*%
G04 Gerber Fmt 4.6, Leading zero omitted, Abs format (unit mm)*
G04 Created by KiCad (PCBNEW (5.1.8)-1) date 2020-12-22 12:44:13*
%MOMM*%
%LPD*%
G01*
G04 APERTURE LIST*
%ADD10C,0.120000*%
%ADD11C,0.250000*%
%ADD12C,0.100000*%
%ADD13C,0.300000*%
%ADD14C,0.150000*%
G04 APERTURE END LIST*
D10*
X62992000Y-71628000D02*
X65278000Y-71628000D01*
X62992000Y-72644000D02*
X62992000Y-71628000D01*
X59436000Y-72644000D02*
X62992000Y-72644000D01*
D11*
X43834595Y-117572142D02*
X43834595Y-118822142D01*
X44310785Y-118226904D02*
X44358404Y-118345952D01*
X44453642Y-118405476D01*
X43834595Y-118226904D02*
X43882214Y-118345952D01*
X43977452Y-118405476D01*
X44167928Y-118405476D01*
X44263166Y-118345952D01*
X44310785Y-118226904D01*
X44310785Y-117572142D01*
X45453642Y-118405476D02*
X45120309Y-117810238D01*
X44882214Y-118405476D02*
X44882214Y-117155476D01*
X45263166Y-117155476D01*
X45358404Y-117215000D01*
X45406023Y-117274523D01*
X45453642Y-117393571D01*
X45453642Y-117572142D01*
X45406023Y-117691190D01*
X45358404Y-117750714D01*
X45263166Y-117810238D01*
X44882214Y-117810238D01*
X45834595Y-118048333D02*
X46310785Y-118048333D01*
X45739357Y-118405476D02*
X46072690Y-117155476D01*
X46406023Y-118405476D01*
X46596500Y-117155476D02*
X47167928Y-117155476D01*
X46882214Y-118405476D02*
X46882214Y-117155476D01*
X47358404Y-117155476D02*
X47929833Y-117155476D01*
X47644119Y-118405476D02*
X47644119Y-117155476D01*
X49025071Y-118405476D02*
X49025071Y-117155476D01*
X49263166Y-117155476D01*
X49406023Y-117215000D01*
X49501261Y-117334047D01*
X49548880Y-117453095D01*
X49596500Y-117691190D01*
X49596500Y-117869761D01*
X49548880Y-118107857D01*
X49501261Y-118226904D01*
X49406023Y-118345952D01*
X49263166Y-118405476D01*
X49025071Y-118405476D01*
X50215547Y-117155476D02*
X50406023Y-117155476D01*
X50501261Y-117215000D01*
X50596500Y-117334047D01*
X50644119Y-117572142D01*
X50644119Y-117988809D01*
X50596500Y-118226904D01*
X50501261Y-118345952D01*
X50406023Y-118405476D01*
X50215547Y-118405476D01*
X50120309Y-118345952D01*
X50025071Y-118226904D01*
X49977452Y-117988809D01*
X49977452Y-117572142D01*
X50025071Y-117334047D01*
X50120309Y-117215000D01*
X50215547Y-117155476D01*
X51263166Y-117155476D02*
X51453642Y-117155476D01*
X51548880Y-117215000D01*
X51644119Y-117334047D01*
X51691738Y-117572142D01*
X51691738Y-117988809D01*
X51644119Y-118226904D01*
X51548880Y-118345952D01*
X51453642Y-118405476D01*
X51263166Y-118405476D01*
X51167928Y-118345952D01*
X51072690Y-118226904D01*
X51025071Y-117988809D01*
X51025071Y-117572142D01*
X51072690Y-117334047D01*
X51167928Y-117215000D01*
X51263166Y-117155476D01*
X52691738Y-118405476D02*
X52358404Y-117810238D01*
X52120309Y-118405476D02*
X52120309Y-117155476D01*
X52501261Y-117155476D01*
X52596500Y-117215000D01*
X52644119Y-117274523D01*
X52691738Y-117393571D01*
X52691738Y-117572142D01*
X52644119Y-117691190D01*
X52596500Y-117750714D01*
X52501261Y-117810238D01*
X52120309Y-117810238D01*
X54358404Y-118405476D02*
X53882214Y-118405476D01*
X53882214Y-117155476D01*
X54882214Y-117155476D02*
X55072690Y-117155476D01*
X55167928Y-117215000D01*
X55263166Y-117334047D01*
X55310785Y-117572142D01*
X55310785Y-117988809D01*
X55263166Y-118226904D01*
X55167928Y-118345952D01*
X55072690Y-118405476D01*
X54882214Y-118405476D01*
X54786976Y-118345952D01*
X54691738Y-118226904D01*
X54644119Y-117988809D01*
X54644119Y-117572142D01*
X54691738Y-117334047D01*
X54786976Y-117215000D01*
X54882214Y-117155476D01*
X56310785Y-118286428D02*
X56263166Y-118345952D01*
X56120309Y-118405476D01*
X56025071Y-118405476D01*
X55882214Y-118345952D01*
X55786976Y-118226904D01*
X55739357Y-118107857D01*
X55691738Y-117869761D01*
X55691738Y-117691190D01*
X55739357Y-117453095D01*
X55786976Y-117334047D01*
X55882214Y-117215000D01*
X56025071Y-117155476D01*
X56120309Y-117155476D01*
X56263166Y-117215000D01*
X56310785Y-117274523D01*
X56739357Y-118405476D02*
X56739357Y-117155476D01*
X57310785Y-118405476D02*
X56882214Y-117691190D01*
X57310785Y-117155476D02*
X56739357Y-117869761D01*
X59072690Y-118286428D02*
X59025071Y-118345952D01*
X58882214Y-118405476D01*
X58786976Y-118405476D01*
X58644119Y-118345952D01*
X58548880Y-118226904D01*
X58501261Y-118107857D01*
X58453642Y-117869761D01*
X58453642Y-117691190D01*
X58501261Y-117453095D01*
X58548880Y-117334047D01*
X58644119Y-117215000D01*
X58786976Y-117155476D01*
X58882214Y-117155476D01*
X59025071Y-117215000D01*
X59072690Y-117274523D01*
X59691738Y-117155476D02*
X59882214Y-117155476D01*
X59977452Y-117215000D01*
X60072690Y-117334047D01*
X60120309Y-117572142D01*
X60120309Y-117988809D01*
X60072690Y-118226904D01*
X59977452Y-118345952D01*
X59882214Y-118405476D01*
X59691738Y-118405476D01*
X59596500Y-118345952D01*
X59501261Y-118226904D01*
X59453642Y-117988809D01*
X59453642Y-117572142D01*
X59501261Y-117334047D01*
X59596500Y-117215000D01*
X59691738Y-117155476D01*
X60548880Y-118405476D02*
X60548880Y-117155476D01*
X61120309Y-118405476D01*
X61120309Y-117155476D01*
X61453642Y-117155476D02*
X62025071Y-117155476D01*
X61739357Y-118405476D02*
X61739357Y-117155476D01*
X62929833Y-118405476D02*
X62596500Y-117810238D01*
X62358404Y-118405476D02*
X62358404Y-117155476D01*
X62739357Y-117155476D01*
X62834595Y-117215000D01*
X62882214Y-117274523D01*
X62929833Y-117393571D01*
X62929833Y-117572142D01*
X62882214Y-117691190D01*
X62834595Y-117750714D01*
X62739357Y-117810238D01*
X62358404Y-117810238D01*
X63548880Y-117155476D02*
X63739357Y-117155476D01*
X63834595Y-117215000D01*
X63929833Y-117334047D01*
X63977452Y-117572142D01*
X63977452Y-117988809D01*
X63929833Y-118226904D01*
X63834595Y-118345952D01*
X63739357Y-118405476D01*
X63548880Y-118405476D01*
X63453642Y-118345952D01*
X63358404Y-118226904D01*
X63310785Y-117988809D01*
X63310785Y-117572142D01*
X63358404Y-117334047D01*
X63453642Y-117215000D01*
X63548880Y-117155476D01*
X64882214Y-118405476D02*
X64406023Y-118405476D01*
X64406023Y-117155476D01*
X65691738Y-118405476D02*
X65215547Y-118405476D01*
X65215547Y-117155476D01*
X66025071Y-117750714D02*
X66358404Y-117750714D01*
X66501261Y-118405476D02*
X66025071Y-118405476D01*
X66025071Y-117155476D01*
X66501261Y-117155476D01*
X67501261Y-118405476D02*
X67167928Y-117810238D01*
X66929833Y-118405476D02*
X66929833Y-117155476D01*
X67310785Y-117155476D01*
X67406023Y-117215000D01*
X67453642Y-117274523D01*
X67501261Y-117393571D01*
X67501261Y-117572142D01*
X67453642Y-117691190D01*
X67406023Y-117750714D01*
X67310785Y-117810238D01*
X66929833Y-117810238D01*
X68691738Y-117929285D02*
X69453642Y-117929285D01*
X71025071Y-117750714D02*
X70691738Y-117750714D01*
X70691738Y-118405476D02*
X70691738Y-117155476D01*
X71167928Y-117155476D01*
X72120309Y-118405476D02*
X71786976Y-117810238D01*
X71548880Y-118405476D02*
X71548880Y-117155476D01*
X71929833Y-117155476D01*
X72025071Y-117215000D01*
X72072690Y-117274523D01*
X72120309Y-117393571D01*
X72120309Y-117572142D01*
X72072690Y-117691190D01*
X72025071Y-117750714D01*
X71929833Y-117810238D01*
X71548880Y-117810238D01*
X72739357Y-117155476D02*
X72929833Y-117155476D01*
X73025071Y-117215000D01*
X73120309Y-117334047D01*
X73167928Y-117572142D01*
X73167928Y-117988809D01*
X73120309Y-118226904D01*
X73025071Y-118345952D01*
X72929833Y-118405476D01*
X72739357Y-118405476D01*
X72644119Y-118345952D01*
X72548880Y-118226904D01*
X72501261Y-117988809D01*
X72501261Y-117572142D01*
X72548880Y-117334047D01*
X72644119Y-117215000D01*
X72739357Y-117155476D01*
X73596500Y-118405476D02*
X73596500Y-117155476D01*
X74167928Y-118405476D01*
X74167928Y-117155476D01*
X74501261Y-117155476D02*
X75072690Y-117155476D01*
X74786976Y-118405476D02*
X74786976Y-117155476D01*
X76167928Y-118405476D02*
X76167928Y-117155476D01*
X76548880Y-117155476D01*
X76644119Y-117215000D01*
X76691738Y-117274523D01*
X76739357Y-117393571D01*
X76739357Y-117572142D01*
X76691738Y-117691190D01*
X76644119Y-117750714D01*
X76548880Y-117810238D01*
X76167928Y-117810238D01*
X77120309Y-118048333D02*
X77596500Y-118048333D01*
X77025071Y-118405476D02*
X77358404Y-117155476D01*
X77691738Y-118405476D01*
X78025071Y-118405476D02*
X78025071Y-117155476D01*
X78596500Y-118405476D01*
X78596500Y-117155476D01*
X79072690Y-117750714D02*
X79406023Y-117750714D01*
X79548880Y-118405476D02*
X79072690Y-118405476D01*
X79072690Y-117155476D01*
X79548880Y-117155476D01*
X80453642Y-118405476D02*
X79977452Y-118405476D01*
X79977452Y-117155476D01*
D10*
X40890000Y-33274000D02*
G75*
G03*
X40890000Y-33274000I-250000J0D01*
G01*
X44192000Y-68326000D02*
G75*
G03*
X44192000Y-68326000I-250000J0D01*
G01*
X37588000Y-82550000D02*
G75*
G03*
X37588000Y-82550000I-250000J0D01*
G01*
X62480000Y-89662000D02*
G75*
G03*
X62480000Y-89662000I-250000J0D01*
G01*
X62734000Y-76200000D02*
G75*
G03*
X62734000Y-76200000I-250000J0D01*
G01*
X56892000Y-76200000D02*
G75*
G03*
X56892000Y-76200000I-250000J0D01*
G01*
X55368000Y-62992000D02*
G75*
G03*
X55368000Y-62992000I-250000J0D01*
G01*
X55114000Y-59182000D02*
G75*
G03*
X55114000Y-59182000I-250000J0D01*
G01*
D11*
X34615428Y-32099809D02*
X34615428Y-31766476D01*
X34091619Y-31766476D02*
X35091619Y-31766476D01*
X35091619Y-32242666D01*
X34091619Y-33195047D02*
X34567809Y-32861714D01*
X34091619Y-32623619D02*
X35091619Y-32623619D01*
X35091619Y-33004571D01*
X35044000Y-33099809D01*
X34996380Y-33147428D01*
X34901142Y-33195047D01*
X34758285Y-33195047D01*
X34663047Y-33147428D01*
X34615428Y-33099809D01*
X34567809Y-33004571D01*
X34567809Y-32623619D01*
X35091619Y-33814095D02*
X35091619Y-34004571D01*
X35044000Y-34099809D01*
X34948761Y-34195047D01*
X34758285Y-34242666D01*
X34424952Y-34242666D01*
X34234476Y-34195047D01*
X34139238Y-34099809D01*
X34091619Y-34004571D01*
X34091619Y-33814095D01*
X34139238Y-33718857D01*
X34234476Y-33623619D01*
X34424952Y-33576000D01*
X34758285Y-33576000D01*
X34948761Y-33623619D01*
X35044000Y-33718857D01*
X35091619Y-33814095D01*
X34091619Y-34671238D02*
X35091619Y-34671238D01*
X34091619Y-35242666D01*
X35091619Y-35242666D01*
X35091619Y-35576000D02*
X35091619Y-36147428D01*
X34091619Y-35861714D02*
X35091619Y-35861714D01*
X34091619Y-37242666D02*
X35091619Y-37242666D01*
X35091619Y-37623619D01*
X35044000Y-37718857D01*
X34996380Y-37766476D01*
X34901142Y-37814095D01*
X34758285Y-37814095D01*
X34663047Y-37766476D01*
X34615428Y-37718857D01*
X34567809Y-37623619D01*
X34567809Y-37242666D01*
X34377333Y-38195047D02*
X34377333Y-38671238D01*
X34091619Y-38099809D02*
X35091619Y-38433142D01*
X34091619Y-38766476D01*
X34091619Y-39099809D02*
X35091619Y-39099809D01*
X34091619Y-39671238D01*
X35091619Y-39671238D01*
X34615428Y-40147428D02*
X34615428Y-40480761D01*
X34091619Y-40623619D02*
X34091619Y-40147428D01*
X35091619Y-40147428D01*
X35091619Y-40623619D01*
X34091619Y-41528380D02*
X34091619Y-41052190D01*
X35091619Y-41052190D01*
D10*
X40386000Y-42164000D02*
X41656000Y-40894000D01*
X38100000Y-42164000D02*
X40386000Y-42164000D01*
X38100000Y-44958000D02*
X38100000Y-42164000D01*
D12*
G36*
X76454000Y-76708000D02*
G01*
X75946000Y-76200000D01*
X76962000Y-76200000D01*
X76454000Y-76708000D01*
G37*
X76454000Y-76708000D02*
X75946000Y-76200000D01*
X76962000Y-76200000D01*
X76454000Y-76708000D01*
G36*
X76454000Y-69596000D02*
G01*
X75946000Y-69088000D01*
X76962000Y-69088000D01*
X76454000Y-69596000D01*
G37*
X76454000Y-69596000D02*
X75946000Y-69088000D01*
X76962000Y-69088000D01*
X76454000Y-69596000D01*
D11*
X26217619Y-51134095D02*
X27217619Y-51134095D01*
X26503333Y-51467428D01*
X27217619Y-51800761D01*
X26217619Y-51800761D01*
X26217619Y-52276952D02*
X27217619Y-52276952D01*
X26312857Y-53324571D02*
X26265238Y-53276952D01*
X26217619Y-53134095D01*
X26217619Y-53038857D01*
X26265238Y-52896000D01*
X26360476Y-52800761D01*
X26455714Y-52753142D01*
X26646190Y-52705523D01*
X26789047Y-52705523D01*
X26979523Y-52753142D01*
X27074761Y-52800761D01*
X27170000Y-52896000D01*
X27217619Y-53038857D01*
X27217619Y-53134095D01*
X27170000Y-53276952D01*
X27122380Y-53324571D01*
X26217619Y-54324571D02*
X26693809Y-53991238D01*
X26217619Y-53753142D02*
X27217619Y-53753142D01*
X27217619Y-54134095D01*
X27170000Y-54229333D01*
X27122380Y-54276952D01*
X27027142Y-54324571D01*
X26884285Y-54324571D01*
X26789047Y-54276952D01*
X26741428Y-54229333D01*
X26693809Y-54134095D01*
X26693809Y-53753142D01*
X27217619Y-54943619D02*
X27217619Y-55134095D01*
X27170000Y-55229333D01*
X27074761Y-55324571D01*
X26884285Y-55372190D01*
X26550952Y-55372190D01*
X26360476Y-55324571D01*
X26265238Y-55229333D01*
X26217619Y-55134095D01*
X26217619Y-54943619D01*
X26265238Y-54848380D01*
X26360476Y-54753142D01*
X26550952Y-54705523D01*
X26884285Y-54705523D01*
X27074761Y-54753142D01*
X27170000Y-54848380D01*
X27217619Y-54943619D01*
X26265238Y-56515047D02*
X26217619Y-56657904D01*
X26217619Y-56896000D01*
X26265238Y-56991238D01*
X26312857Y-57038857D01*
X26408095Y-57086476D01*
X26503333Y-57086476D01*
X26598571Y-57038857D01*
X26646190Y-56991238D01*
X26693809Y-56896000D01*
X26741428Y-56705523D01*
X26789047Y-56610285D01*
X26836666Y-56562666D01*
X26931904Y-56515047D01*
X27027142Y-56515047D01*
X27122380Y-56562666D01*
X27170000Y-56610285D01*
X27217619Y-56705523D01*
X27217619Y-56943619D01*
X27170000Y-57086476D01*
X26217619Y-57515047D02*
X27217619Y-57515047D01*
X27217619Y-57753142D01*
X27170000Y-57896000D01*
X27074761Y-57991238D01*
X26979523Y-58038857D01*
X26789047Y-58086476D01*
X26646190Y-58086476D01*
X26455714Y-58038857D01*
X26360476Y-57991238D01*
X26265238Y-57896000D01*
X26217619Y-57753142D01*
X26217619Y-57515047D01*
X26312857Y-59848380D02*
X26265238Y-59800761D01*
X26217619Y-59657904D01*
X26217619Y-59562666D01*
X26265238Y-59419809D01*
X26360476Y-59324571D01*
X26455714Y-59276952D01*
X26646190Y-59229333D01*
X26789047Y-59229333D01*
X26979523Y-59276952D01*
X27074761Y-59324571D01*
X27170000Y-59419809D01*
X27217619Y-59562666D01*
X27217619Y-59657904D01*
X27170000Y-59800761D01*
X27122380Y-59848380D01*
X26503333Y-60229333D02*
X26503333Y-60705523D01*
X26217619Y-60134095D02*
X27217619Y-60467428D01*
X26217619Y-60800761D01*
X26217619Y-61705523D02*
X26693809Y-61372190D01*
X26217619Y-61134095D02*
X27217619Y-61134095D01*
X27217619Y-61515047D01*
X27170000Y-61610285D01*
X27122380Y-61657904D01*
X27027142Y-61705523D01*
X26884285Y-61705523D01*
X26789047Y-61657904D01*
X26741428Y-61610285D01*
X26693809Y-61515047D01*
X26693809Y-61134095D01*
X26217619Y-62134095D02*
X27217619Y-62134095D01*
X27217619Y-62372190D01*
X27170000Y-62515047D01*
X27074761Y-62610285D01*
X26979523Y-62657904D01*
X26789047Y-62705523D01*
X26646190Y-62705523D01*
X26455714Y-62657904D01*
X26360476Y-62610285D01*
X26265238Y-62515047D01*
X26217619Y-62372190D01*
X26217619Y-62134095D01*
X34314095Y-64206380D02*
X34314095Y-63206380D01*
X34647428Y-63920666D01*
X34980761Y-63206380D01*
X34980761Y-64206380D01*
X35647428Y-63206380D02*
X35837904Y-63206380D01*
X35933142Y-63254000D01*
X36028380Y-63349238D01*
X36076000Y-63539714D01*
X36076000Y-63873047D01*
X36028380Y-64063523D01*
X35933142Y-64158761D01*
X35837904Y-64206380D01*
X35647428Y-64206380D01*
X35552190Y-64158761D01*
X35456952Y-64063523D01*
X35409333Y-63873047D01*
X35409333Y-63539714D01*
X35456952Y-63349238D01*
X35552190Y-63254000D01*
X35647428Y-63206380D01*
X36361714Y-63206380D02*
X36933142Y-63206380D01*
X36647428Y-64206380D02*
X36647428Y-63206380D01*
X37456952Y-63206380D02*
X37647428Y-63206380D01*
X37742666Y-63254000D01*
X37837904Y-63349238D01*
X37885523Y-63539714D01*
X37885523Y-63873047D01*
X37837904Y-64063523D01*
X37742666Y-64158761D01*
X37647428Y-64206380D01*
X37456952Y-64206380D01*
X37361714Y-64158761D01*
X37266476Y-64063523D01*
X37218857Y-63873047D01*
X37218857Y-63539714D01*
X37266476Y-63349238D01*
X37361714Y-63254000D01*
X37456952Y-63206380D01*
X38885523Y-64206380D02*
X38552190Y-63730190D01*
X38314095Y-64206380D02*
X38314095Y-63206380D01*
X38695047Y-63206380D01*
X38790285Y-63254000D01*
X38837904Y-63301619D01*
X38885523Y-63396857D01*
X38885523Y-63539714D01*
X38837904Y-63634952D01*
X38790285Y-63682571D01*
X38695047Y-63730190D01*
X38314095Y-63730190D01*
D12*
G36*
X82042000Y-58166000D02*
G01*
X81534000Y-57658000D01*
X82550000Y-57658000D01*
X82042000Y-58166000D01*
G37*
X82042000Y-58166000D02*
X81534000Y-57658000D01*
X82550000Y-57658000D01*
X82042000Y-58166000D01*
G36*
X82042000Y-46228000D02*
G01*
X81534000Y-45720000D01*
X82550000Y-45720000D01*
X82042000Y-46228000D01*
G37*
X82042000Y-46228000D02*
X81534000Y-45720000D01*
X82550000Y-45720000D01*
X82042000Y-46228000D01*
D11*
X86304380Y-50387142D02*
X85828190Y-50720476D01*
X86304380Y-50958571D02*
X85304380Y-50958571D01*
X85304380Y-50577619D01*
X85352000Y-50482380D01*
X85399619Y-50434761D01*
X85494857Y-50387142D01*
X85637714Y-50387142D01*
X85732952Y-50434761D01*
X85780571Y-50482380D01*
X85828190Y-50577619D01*
X85828190Y-50958571D01*
X85780571Y-49625238D02*
X85780571Y-49958571D01*
X86304380Y-49958571D02*
X85304380Y-49958571D01*
X85304380Y-49482380D01*
X86304380Y-49101428D02*
X85304380Y-49101428D01*
X86304380Y-48625238D02*
X85304380Y-48625238D01*
X85304380Y-48387142D01*
X85352000Y-48244285D01*
X85447238Y-48149047D01*
X85542476Y-48101428D01*
X85732952Y-48053809D01*
X85875809Y-48053809D01*
X86066285Y-48101428D01*
X86161523Y-48149047D01*
X86256761Y-48244285D01*
X86304380Y-48387142D01*
X86304380Y-48625238D01*
X85352000Y-65539523D02*
X85304380Y-65634761D01*
X85304380Y-65777619D01*
X85352000Y-65920476D01*
X85447238Y-66015714D01*
X85542476Y-66063333D01*
X85732952Y-66110952D01*
X85875809Y-66110952D01*
X86066285Y-66063333D01*
X86161523Y-66015714D01*
X86256761Y-65920476D01*
X86304380Y-65777619D01*
X86304380Y-65682380D01*
X86256761Y-65539523D01*
X86209142Y-65491904D01*
X85875809Y-65491904D01*
X85875809Y-65682380D01*
X86304380Y-64491904D02*
X85828190Y-64825238D01*
X86304380Y-65063333D02*
X85304380Y-65063333D01*
X85304380Y-64682380D01*
X85352000Y-64587142D01*
X85399619Y-64539523D01*
X85494857Y-64491904D01*
X85637714Y-64491904D01*
X85732952Y-64539523D01*
X85780571Y-64587142D01*
X85828190Y-64682380D01*
X85828190Y-65063333D01*
X85304380Y-63872857D02*
X85304380Y-63682380D01*
X85352000Y-63587142D01*
X85447238Y-63491904D01*
X85637714Y-63444285D01*
X85971047Y-63444285D01*
X86161523Y-63491904D01*
X86256761Y-63587142D01*
X86304380Y-63682380D01*
X86304380Y-63872857D01*
X86256761Y-63968095D01*
X86161523Y-64063333D01*
X85971047Y-64110952D01*
X85637714Y-64110952D01*
X85447238Y-64063333D01*
X85352000Y-63968095D01*
X85304380Y-63872857D01*
X85304380Y-63158571D02*
X86304380Y-62825238D01*
X85304380Y-62491904D01*
X85780571Y-62158571D02*
X85780571Y-61825238D01*
X86304380Y-61682380D02*
X86304380Y-62158571D01*
X85304380Y-62158571D01*
X85304380Y-61682380D01*
X86304380Y-60491904D02*
X85304380Y-60491904D01*
X85256761Y-59301428D02*
X86542476Y-60158571D01*
X85304380Y-58777619D02*
X85304380Y-58587142D01*
X85352000Y-58491904D01*
X85447238Y-58396666D01*
X85637714Y-58349047D01*
X85971047Y-58349047D01*
X86161523Y-58396666D01*
X86256761Y-58491904D01*
X86304380Y-58587142D01*
X86304380Y-58777619D01*
X86256761Y-58872857D01*
X86161523Y-58968095D01*
X85971047Y-59015714D01*
X85637714Y-59015714D01*
X85447238Y-58968095D01*
X85352000Y-58872857D01*
X85304380Y-58777619D01*
X77017904Y-83526380D02*
X76541714Y-83526380D01*
X76494095Y-84002571D01*
X76541714Y-83954952D01*
X76636952Y-83907333D01*
X76875047Y-83907333D01*
X76970285Y-83954952D01*
X77017904Y-84002571D01*
X77065523Y-84097809D01*
X77065523Y-84335904D01*
X77017904Y-84431142D01*
X76970285Y-84478761D01*
X76875047Y-84526380D01*
X76636952Y-84526380D01*
X76541714Y-84478761D01*
X76494095Y-84431142D01*
X77351238Y-83526380D02*
X77684571Y-84526380D01*
X78017904Y-83526380D01*
X79113142Y-84526380D02*
X79113142Y-83526380D01*
X79589333Y-84526380D02*
X79589333Y-83526380D01*
X80160761Y-84526380D01*
X80160761Y-83526380D01*
X80636952Y-84526380D02*
X80636952Y-83526380D01*
X81017904Y-83526380D01*
X81113142Y-83574000D01*
X81160761Y-83621619D01*
X81208380Y-83716857D01*
X81208380Y-83859714D01*
X81160761Y-83954952D01*
X81113142Y-84002571D01*
X81017904Y-84050190D01*
X80636952Y-84050190D01*
X81636952Y-83526380D02*
X81636952Y-84335904D01*
X81684571Y-84431142D01*
X81732190Y-84478761D01*
X81827428Y-84526380D01*
X82017904Y-84526380D01*
X82113142Y-84478761D01*
X82160761Y-84431142D01*
X82208380Y-84335904D01*
X82208380Y-83526380D01*
X82541714Y-83526380D02*
X83113142Y-83526380D01*
X82827428Y-84526380D02*
X82827428Y-83526380D01*
D13*
X78676571Y-81895142D02*
X79819428Y-81895142D01*
X79248000Y-82466571D02*
X79248000Y-81323714D01*
X78676571Y-73767142D02*
X79819428Y-73767142D01*
X79248000Y-74338571D02*
X79248000Y-73195714D01*
D11*
X79549904Y-72080380D02*
X78978476Y-72080380D01*
X79264190Y-72080380D02*
X79264190Y-71080380D01*
X79168952Y-71223238D01*
X79073714Y-71318476D01*
X78978476Y-71366095D01*
X79930857Y-72032761D02*
X80073714Y-72080380D01*
X80311809Y-72080380D01*
X80407047Y-72032761D01*
X80454666Y-71985142D01*
X80502285Y-71889904D01*
X80502285Y-71794666D01*
X80454666Y-71699428D01*
X80407047Y-71651809D01*
X80311809Y-71604190D01*
X80121333Y-71556571D01*
X80026095Y-71508952D01*
X79978476Y-71461333D01*
X79930857Y-71366095D01*
X79930857Y-71270857D01*
X79978476Y-71175619D01*
X80026095Y-71128000D01*
X80121333Y-71080380D01*
X80359428Y-71080380D01*
X80502285Y-71128000D01*
X82168952Y-72080380D02*
X81692761Y-72080380D01*
X81692761Y-71080380D01*
X82502285Y-72080380D02*
X82502285Y-71080380D01*
X82978476Y-72080380D02*
X82978476Y-71080380D01*
X83359428Y-71080380D01*
X83454666Y-71128000D01*
X83502285Y-71175619D01*
X83549904Y-71270857D01*
X83549904Y-71413714D01*
X83502285Y-71508952D01*
X83454666Y-71556571D01*
X83359428Y-71604190D01*
X82978476Y-71604190D01*
X84168952Y-71080380D02*
X84359428Y-71080380D01*
X84454666Y-71128000D01*
X84549904Y-71223238D01*
X84597523Y-71413714D01*
X84597523Y-71747047D01*
X84549904Y-71937523D01*
X84454666Y-72032761D01*
X84359428Y-72080380D01*
X84168952Y-72080380D01*
X84073714Y-72032761D01*
X83978476Y-71937523D01*
X83930857Y-71747047D01*
X83930857Y-71413714D01*
X83978476Y-71223238D01*
X84073714Y-71128000D01*
X84168952Y-71080380D01*
D14*
X45475238Y-24132381D02*
X45475238Y-23132381D01*
X45713333Y-23132381D01*
X45856190Y-23180001D01*
X45951428Y-23275239D01*
X45999047Y-23370477D01*
X46046666Y-23560953D01*
X46046666Y-23703810D01*
X45999047Y-23894286D01*
X45951428Y-23989524D01*
X45856190Y-24084762D01*
X45713333Y-24132381D01*
X45475238Y-24132381D01*
X46665714Y-23132381D02*
X46856190Y-23132381D01*
X46951428Y-23180001D01*
X47046666Y-23275239D01*
X47094285Y-23465715D01*
X47094285Y-23799048D01*
X47046666Y-23989524D01*
X46951428Y-24084762D01*
X46856190Y-24132381D01*
X46665714Y-24132381D01*
X46570476Y-24084762D01*
X46475238Y-23989524D01*
X46427619Y-23799048D01*
X46427619Y-23465715D01*
X46475238Y-23275239D01*
X46570476Y-23180001D01*
X46665714Y-23132381D01*
X48284761Y-24132381D02*
X48284761Y-23132381D01*
X48856190Y-24132381D01*
X48856190Y-23132381D01*
X49522857Y-23132381D02*
X49713333Y-23132381D01*
X49808571Y-23180001D01*
X49903809Y-23275239D01*
X49951428Y-23465715D01*
X49951428Y-23799048D01*
X49903809Y-23989524D01*
X49808571Y-24084762D01*
X49713333Y-24132381D01*
X49522857Y-24132381D01*
X49427619Y-24084762D01*
X49332380Y-23989524D01*
X49284761Y-23799048D01*
X49284761Y-23465715D01*
X49332380Y-23275239D01*
X49427619Y-23180001D01*
X49522857Y-23132381D01*
X50237142Y-23132381D02*
X50808571Y-23132381D01*
X50522857Y-24132381D02*
X50522857Y-23132381D01*
X52094285Y-23132381D02*
X52284761Y-23132381D01*
X52380000Y-23180001D01*
X52475238Y-23275239D01*
X52522857Y-23465715D01*
X52522857Y-23799048D01*
X52475238Y-23989524D01*
X52380000Y-24084762D01*
X52284761Y-24132381D01*
X52094285Y-24132381D01*
X51999047Y-24084762D01*
X51903809Y-23989524D01*
X51856190Y-23799048D01*
X51856190Y-23465715D01*
X51903809Y-23275239D01*
X51999047Y-23180001D01*
X52094285Y-23132381D01*
X53284761Y-23608572D02*
X53427619Y-23656191D01*
X53475238Y-23703810D01*
X53522857Y-23799048D01*
X53522857Y-23941905D01*
X53475238Y-24037143D01*
X53427619Y-24084762D01*
X53332380Y-24132381D01*
X52951428Y-24132381D01*
X52951428Y-23132381D01*
X53284761Y-23132381D01*
X53380000Y-23180001D01*
X53427619Y-23227620D01*
X53475238Y-23322858D01*
X53475238Y-23418096D01*
X53427619Y-23513334D01*
X53380000Y-23560953D01*
X53284761Y-23608572D01*
X52951428Y-23608572D01*
X53903809Y-24084762D02*
X54046666Y-24132381D01*
X54284761Y-24132381D01*
X54380000Y-24084762D01*
X54427619Y-24037143D01*
X54475238Y-23941905D01*
X54475238Y-23846667D01*
X54427619Y-23751429D01*
X54380000Y-23703810D01*
X54284761Y-23656191D01*
X54094285Y-23608572D01*
X53999047Y-23560953D01*
X53951428Y-23513334D01*
X53903809Y-23418096D01*
X53903809Y-23322858D01*
X53951428Y-23227620D01*
X53999047Y-23180001D01*
X54094285Y-23132381D01*
X54332380Y-23132381D01*
X54475238Y-23180001D01*
X54760952Y-23132381D02*
X55332380Y-23132381D01*
X55046666Y-24132381D02*
X55046666Y-23132381D01*
X56237142Y-24132381D02*
X55903809Y-23656191D01*
X55665714Y-24132381D02*
X55665714Y-23132381D01*
X56046666Y-23132381D01*
X56141904Y-23180001D01*
X56189523Y-23227620D01*
X56237142Y-23322858D01*
X56237142Y-23465715D01*
X56189523Y-23560953D01*
X56141904Y-23608572D01*
X56046666Y-23656191D01*
X55665714Y-23656191D01*
X56665714Y-23132381D02*
X56665714Y-23941905D01*
X56713333Y-24037143D01*
X56760952Y-24084762D01*
X56856190Y-24132381D01*
X57046666Y-24132381D01*
X57141904Y-24084762D01*
X57189523Y-24037143D01*
X57237142Y-23941905D01*
X57237142Y-23132381D01*
X58284761Y-24037143D02*
X58237142Y-24084762D01*
X58094285Y-24132381D01*
X57999047Y-24132381D01*
X57856190Y-24084762D01*
X57760952Y-23989524D01*
X57713333Y-23894286D01*
X57665714Y-23703810D01*
X57665714Y-23560953D01*
X57713333Y-23370477D01*
X57760952Y-23275239D01*
X57856190Y-23180001D01*
X57999047Y-23132381D01*
X58094285Y-23132381D01*
X58237142Y-23180001D01*
X58284761Y-23227620D01*
X58570476Y-23132381D02*
X59141904Y-23132381D01*
X58856190Y-24132381D02*
X58856190Y-23132381D01*
X60189523Y-23846667D02*
X60665714Y-23846667D01*
X60094285Y-24132381D02*
X60427619Y-23132381D01*
X60760952Y-24132381D01*
X61094285Y-24132381D02*
X61094285Y-23132381D01*
X61665714Y-24132381D01*
X61665714Y-23132381D01*
X61999047Y-23132381D02*
X62570476Y-23132381D01*
X62284761Y-24132381D02*
X62284761Y-23132381D01*
X62903809Y-23608572D02*
X63237142Y-23608572D01*
X63379999Y-24132381D02*
X62903809Y-24132381D01*
X62903809Y-23132381D01*
X63379999Y-23132381D01*
X63808571Y-24132381D02*
X63808571Y-23132381D01*
X64379999Y-24132381D01*
X64379999Y-23132381D01*
X64856190Y-24132381D02*
X64856190Y-23132381D01*
X65427619Y-24132381D01*
X65427619Y-23132381D01*
X65856190Y-23846667D02*
X66332380Y-23846667D01*
X65760952Y-24132381D02*
X66094285Y-23132381D01*
X66427619Y-24132381D01*
D10*
%TO.C,SW3*%
X74260000Y-111068000D02*
X74260000Y-113468000D01*
X74260000Y-109058000D02*
X74260000Y-109468000D01*
X80680000Y-109058000D02*
X74260000Y-109058000D01*
X80680000Y-109468000D02*
X80680000Y-109058000D01*
X80680000Y-113468000D02*
X80680000Y-111068000D01*
X80680000Y-115478000D02*
X80680000Y-115198000D01*
X74260000Y-115478000D02*
X80680000Y-115478000D01*
X74260000Y-115068000D02*
X74260000Y-115478000D01*
%TO.C,JP6*%
X38622500Y-73135258D02*
X38622500Y-72660742D01*
X37577500Y-73135258D02*
X37577500Y-72660742D01*
%TO.C,JP5*%
X35828500Y-73135258D02*
X35828500Y-72660742D01*
X34783500Y-73135258D02*
X34783500Y-72660742D01*
%TO.C,R55*%
X76470742Y-34558500D02*
X76945258Y-34558500D01*
X76470742Y-33513500D02*
X76945258Y-33513500D01*
%TO.C,R54*%
X70849258Y-46975500D02*
X70374742Y-46975500D01*
X70849258Y-48020500D02*
X70374742Y-48020500D01*
%TO.C,J5*%
X78488000Y-66352000D02*
X78488000Y-69002000D01*
X78488000Y-57952000D02*
X78488000Y-60602000D01*
X78488000Y-69002000D02*
X84338000Y-69002000D01*
X78488000Y-61702000D02*
X78488000Y-65202000D01*
X78488000Y-57952000D02*
X84338000Y-57952000D01*
X84338000Y-57952000D02*
X84338000Y-69002000D01*
X78488000Y-60852000D02*
X78488000Y-61452000D01*
X78488000Y-65452000D02*
X78488000Y-66052000D01*
X81788000Y-57452000D02*
X84788000Y-57452000D01*
X84788000Y-57452000D02*
X84788000Y-60452000D01*
%TO.C,FB4*%
X84584000Y-44358779D02*
X84584000Y-44033221D01*
X83564000Y-44358779D02*
X83564000Y-44033221D01*
%TO.C,FB3*%
X81028000Y-44358779D02*
X81028000Y-44033221D01*
X80008000Y-44358779D02*
X80008000Y-44033221D01*
%TO.C,F1*%
X79862000Y-90010064D02*
X79862000Y-88805936D01*
X81682000Y-90010064D02*
X81682000Y-88805936D01*
%TO.C,D12*%
X79112000Y-85350000D02*
X74812000Y-85350000D01*
X74812000Y-85350000D02*
X74812000Y-91050000D01*
X79112000Y-85350000D02*
X79112000Y-91050000D01*
%TO.C,J3*%
X36822000Y-31165001D02*
X36822000Y-31055001D01*
X36822000Y-31055001D02*
X36222000Y-31055001D01*
X36822000Y-41595001D02*
X36822000Y-41705001D01*
X36822000Y-41705001D02*
X36222000Y-41705001D01*
X39412000Y-33930001D02*
X39012000Y-34130001D01*
X39012000Y-34130001D02*
X39412000Y-34330001D01*
X39412000Y-34330001D02*
X39412000Y-33930001D01*
%TO.C,D1*%
X61121000Y-65646001D02*
X58436000Y-65646001D01*
X61121000Y-67566001D02*
X61121000Y-65646001D01*
X58436000Y-67566001D02*
X61121000Y-67566001D01*
%TO.C,R24*%
X76945258Y-51859501D02*
X76470742Y-51859501D01*
X76945258Y-52904501D02*
X76470742Y-52904501D01*
%TO.C,U6*%
X36766500Y-81973001D02*
X36766500Y-87306001D01*
X31305500Y-87305001D02*
X31305500Y-84005001D01*
D13*
%TO.C,LCD1*%
X70096000Y-114661000D02*
X70096000Y-101161000D01*
X70096000Y-101161000D02*
X42146000Y-101161000D01*
X42146000Y-114661000D02*
X70096000Y-114661000D01*
X42146000Y-101161000D02*
X42146000Y-114661000D01*
D10*
%TO.C,C28*%
X27246000Y-81642001D02*
X27246000Y-88402001D01*
X30666000Y-81642001D02*
X27246000Y-81642001D01*
X30666000Y-88402001D02*
X30666000Y-81642001D01*
%TO.C,BZ1*%
X80800000Y-103476000D02*
X81200000Y-103476000D01*
X80800000Y-105676000D02*
X80800000Y-103476000D01*
X80800000Y-98676000D02*
X80800000Y-96476000D01*
X71600000Y-98676000D02*
X71600000Y-96476000D01*
X71600000Y-96476000D02*
X80800000Y-96476000D01*
X71600000Y-105676000D02*
X71600000Y-103476000D01*
X80800000Y-105676000D02*
X71600000Y-105676000D01*
%TO.C,J8*%
X33958000Y-70940000D02*
X35208000Y-70940000D01*
X33958000Y-69690000D02*
X33958000Y-70940000D01*
X38368000Y-67580000D02*
X37868000Y-67580000D01*
X37868000Y-67480000D02*
X38368000Y-67480000D01*
X37868000Y-67680000D02*
X37868000Y-67480000D01*
X38368000Y-67680000D02*
X37868000Y-67680000D01*
X36868000Y-64520000D02*
X36868000Y-65130000D01*
X35568000Y-64520000D02*
X35568000Y-65130000D01*
X36868000Y-70640000D02*
X36868000Y-70030000D01*
X35568000Y-70640000D02*
X35568000Y-70030000D01*
X34868000Y-67080000D02*
X34258000Y-67080000D01*
X34868000Y-65130000D02*
X34868000Y-67080000D01*
X38368000Y-65130000D02*
X34868000Y-65130000D01*
X38368000Y-70030000D02*
X38368000Y-65130000D01*
X34868000Y-70030000D02*
X38368000Y-70030000D01*
X34868000Y-68080000D02*
X34868000Y-70030000D01*
X34258000Y-68080000D02*
X34868000Y-68080000D01*
X34158000Y-68880000D02*
X34158000Y-69180000D01*
X34058000Y-69180000D02*
X34258000Y-69180000D01*
X34058000Y-68880000D02*
X34058000Y-69180000D01*
X34258000Y-68880000D02*
X34058000Y-68880000D01*
X34258000Y-64520000D02*
X34258000Y-70640000D01*
X38978000Y-64520000D02*
X34258000Y-64520000D01*
X38978000Y-70640000D02*
X38978000Y-64520000D01*
X34258000Y-70640000D02*
X38978000Y-70640000D01*
%TO.C,J7*%
X78564000Y-69326001D02*
X77314000Y-69326001D01*
X78564000Y-70576001D02*
X78564000Y-69326001D01*
X74154000Y-72686001D02*
X74654000Y-72686001D01*
X74654000Y-72786001D02*
X74154000Y-72786001D01*
X74654000Y-72586001D02*
X74654000Y-72786001D01*
X74154000Y-72586001D02*
X74654000Y-72586001D01*
X75654000Y-75746001D02*
X75654000Y-75136001D01*
X76954000Y-75746001D02*
X76954000Y-75136001D01*
X75654000Y-69626001D02*
X75654000Y-70236001D01*
X76954000Y-69626001D02*
X76954000Y-70236001D01*
X77654000Y-73186001D02*
X78264000Y-73186001D01*
X77654000Y-75136001D02*
X77654000Y-73186001D01*
X74154000Y-75136001D02*
X77654000Y-75136001D01*
X74154000Y-70236001D02*
X74154000Y-75136001D01*
X77654000Y-70236001D02*
X74154000Y-70236001D01*
X77654000Y-72186001D02*
X77654000Y-70236001D01*
X78264000Y-72186001D02*
X77654000Y-72186001D01*
X78364000Y-71386001D02*
X78364000Y-71086001D01*
X78464000Y-71086001D02*
X78264000Y-71086001D01*
X78464000Y-71386001D02*
X78464000Y-71086001D01*
X78264000Y-71386001D02*
X78464000Y-71386001D01*
X78264000Y-75746001D02*
X78264000Y-69626001D01*
X73544000Y-75746001D02*
X78264000Y-75746001D01*
X73544000Y-69626001D02*
X73544000Y-75746001D01*
X78264000Y-69626001D02*
X73544000Y-69626001D01*
%TO.C,J6*%
X78564000Y-76470001D02*
X77314000Y-76470001D01*
X78564000Y-77720001D02*
X78564000Y-76470001D01*
X74154000Y-79830001D02*
X74654000Y-79830001D01*
X74654000Y-79930001D02*
X74154000Y-79930001D01*
X74654000Y-79730001D02*
X74654000Y-79930001D01*
X74154000Y-79730001D02*
X74654000Y-79730001D01*
X75654000Y-82890001D02*
X75654000Y-82280001D01*
X76954000Y-82890001D02*
X76954000Y-82280001D01*
X75654000Y-76770001D02*
X75654000Y-77380001D01*
X76954000Y-76770001D02*
X76954000Y-77380001D01*
X77654000Y-80330001D02*
X78264000Y-80330001D01*
X77654000Y-82280001D02*
X77654000Y-80330001D01*
X74154000Y-82280001D02*
X77654000Y-82280001D01*
X74154000Y-77380001D02*
X74154000Y-82280001D01*
X77654000Y-77380001D02*
X74154000Y-77380001D01*
X77654000Y-79330001D02*
X77654000Y-77380001D01*
X78264000Y-79330001D02*
X77654000Y-79330001D01*
X78364000Y-78530001D02*
X78364000Y-78230001D01*
X78464000Y-78230001D02*
X78264000Y-78230001D01*
X78464000Y-78530001D02*
X78464000Y-78230001D01*
X78264000Y-78530001D02*
X78464000Y-78530001D01*
X78264000Y-82890001D02*
X78264000Y-76770001D01*
X73544000Y-82890001D02*
X78264000Y-82890001D01*
X73544000Y-76770001D02*
X73544000Y-82890001D01*
X78264000Y-76770001D02*
X73544000Y-76770001D01*
%TO.C,J4*%
X84152000Y-45958001D02*
X82902000Y-45958001D01*
X84152000Y-47208001D02*
X84152000Y-45958001D01*
X79742000Y-53318001D02*
X80242000Y-53318001D01*
X80242000Y-53418001D02*
X79742000Y-53418001D01*
X80242000Y-53218001D02*
X80242000Y-53418001D01*
X79742000Y-53218001D02*
X80242000Y-53218001D01*
X79742000Y-51318001D02*
X80242000Y-51318001D01*
X80242000Y-51418001D02*
X79742000Y-51418001D01*
X80242000Y-51218001D02*
X80242000Y-51418001D01*
X79742000Y-51218001D02*
X80242000Y-51218001D01*
X79742000Y-49318001D02*
X80242000Y-49318001D01*
X80242000Y-49418001D02*
X79742000Y-49418001D01*
X80242000Y-49218001D02*
X80242000Y-49418001D01*
X79742000Y-49218001D02*
X80242000Y-49218001D01*
X81242000Y-56378001D02*
X81242000Y-55768001D01*
X82542000Y-56378001D02*
X82542000Y-55768001D01*
X81242000Y-46258001D02*
X81242000Y-46868001D01*
X82542000Y-46258001D02*
X82542000Y-46868001D01*
X83242000Y-53818001D02*
X83852000Y-53818001D01*
X83242000Y-55768001D02*
X83242000Y-53818001D01*
X79742000Y-55768001D02*
X83242000Y-55768001D01*
X79742000Y-46868001D02*
X79742000Y-55768001D01*
X83242000Y-46868001D02*
X79742000Y-46868001D01*
X83242000Y-48818001D02*
X83242000Y-46868001D01*
X83852000Y-48818001D02*
X83242000Y-48818001D01*
X83952000Y-48018001D02*
X83952000Y-47718001D01*
X84052000Y-47718001D02*
X83852000Y-47718001D01*
X84052000Y-48018001D02*
X84052000Y-47718001D01*
X83852000Y-48018001D02*
X84052000Y-48018001D01*
X83852000Y-56378001D02*
X83852000Y-46258001D01*
X79132000Y-56378001D02*
X83852000Y-56378001D01*
X79132000Y-46258001D02*
X79132000Y-56378001D01*
X83852000Y-46258001D02*
X79132000Y-46258001D01*
%TO.C,Q2*%
X71118000Y-60566001D02*
X69658000Y-60566001D01*
X71118000Y-57406001D02*
X68958000Y-57406001D01*
X71118000Y-57406001D02*
X71118000Y-58336001D01*
X71118000Y-60566001D02*
X71118000Y-59636001D01*
%TO.C,Q1*%
X71118000Y-64122001D02*
X69658000Y-64122001D01*
X71118000Y-60962001D02*
X68958000Y-60962001D01*
X71118000Y-60962001D02*
X71118000Y-61892001D01*
X71118000Y-64122001D02*
X71118000Y-63192001D01*
%TO.C,U9*%
X41538000Y-67862001D02*
X43968000Y-67862001D01*
X43298000Y-64792001D02*
X41538000Y-64792001D01*
%TO.C,U8*%
X62316000Y-78936001D02*
X62316000Y-76486001D01*
X59096000Y-77136001D02*
X59096000Y-78936001D01*
%TO.C,U7*%
X56474000Y-78936001D02*
X56474000Y-76486001D01*
X53254000Y-77136001D02*
X53254000Y-78936001D01*
%TO.C,U5*%
X62652000Y-86672001D02*
X62652000Y-90272001D01*
X62652000Y-86672001D02*
X62652000Y-84472001D01*
X65872000Y-86672001D02*
X65872000Y-88872001D01*
X65872000Y-86672001D02*
X65872000Y-84472001D01*
%TO.C,U4*%
X72222000Y-80206001D02*
X72222000Y-77756001D01*
X69002000Y-78406001D02*
X69002000Y-80206001D01*
%TO.C,U3*%
X47014000Y-31253001D02*
X46634000Y-31253001D01*
X47014000Y-24833001D02*
X47014000Y-31253001D01*
X65254000Y-24833001D02*
X65254000Y-31253001D01*
X47014000Y-24833001D02*
X65254000Y-24833001D01*
X65254000Y-50578001D02*
X64254000Y-50578001D01*
X65254000Y-49798001D02*
X65254000Y-50578001D01*
X47014000Y-50578001D02*
X48014000Y-50578001D01*
X47014000Y-49798001D02*
X47014000Y-50578001D01*
%TO.C,U2*%
X54532000Y-58335001D02*
X54532000Y-58810001D01*
X58752000Y-54590001D02*
X58277000Y-54590001D01*
X58752000Y-55065001D02*
X58752000Y-54590001D01*
X58752000Y-58810001D02*
X58277000Y-58810001D01*
X58752000Y-58335001D02*
X58752000Y-58810001D01*
X54532000Y-54590001D02*
X55007000Y-54590001D01*
X54532000Y-55065001D02*
X54532000Y-54590001D01*
%TO.C,U1*%
X55540000Y-60880001D02*
X55540000Y-63330001D01*
X58760000Y-62680001D02*
X58760000Y-60880001D01*
%TO.C,R42*%
X35291500Y-92243259D02*
X35291500Y-91768743D01*
X36336500Y-92243259D02*
X36336500Y-91768743D01*
%TO.C,R41*%
X43925258Y-42715501D02*
X43450742Y-42715501D01*
X43925258Y-43760501D02*
X43450742Y-43760501D01*
%TO.C,R40*%
X33796500Y-79543259D02*
X33796500Y-79068743D01*
X32751500Y-79543259D02*
X32751500Y-79068743D01*
%TO.C,R39*%
X31227500Y-79068743D02*
X31227500Y-79543259D01*
X32272500Y-79068743D02*
X32272500Y-79543259D01*
%TO.C,R38*%
X59450500Y-82845259D02*
X59450500Y-82370743D01*
X58405500Y-82845259D02*
X58405500Y-82370743D01*
%TO.C,R37*%
X55894500Y-82845259D02*
X55894500Y-82370743D01*
X54849500Y-82845259D02*
X54849500Y-82370743D01*
%TO.C,R36*%
X53579500Y-74242743D02*
X53579500Y-74717259D01*
X54624500Y-74242743D02*
X54624500Y-74717259D01*
%TO.C,R35*%
X60945500Y-73988743D02*
X60945500Y-74463259D01*
X61990500Y-73988743D02*
X61990500Y-74463259D01*
%TO.C,R34*%
X34275500Y-79068743D02*
X34275500Y-79543259D01*
X35320500Y-79068743D02*
X35320500Y-79543259D01*
%TO.C,R33*%
X26909500Y-91768743D02*
X26909500Y-92243259D01*
X27954500Y-91768743D02*
X27954500Y-92243259D01*
%TO.C,R32*%
X30748500Y-92243259D02*
X30748500Y-91768743D01*
X29703500Y-92243259D02*
X29703500Y-91768743D01*
%TO.C,R31*%
X43988258Y-44239501D02*
X43513742Y-44239501D01*
X43988258Y-45284501D02*
X43513742Y-45284501D01*
%TO.C,R30*%
X70849258Y-69893501D02*
X70374742Y-69893501D01*
X70849258Y-70938501D02*
X70374742Y-70938501D01*
%TO.C,R29*%
X61228500Y-89195259D02*
X61228500Y-88720743D01*
X60183500Y-89195259D02*
X60183500Y-88720743D01*
%TO.C,R28*%
X58180500Y-89195259D02*
X58180500Y-88720743D01*
X57135500Y-89195259D02*
X57135500Y-88720743D01*
%TO.C,R27*%
X59704500Y-89195259D02*
X59704500Y-88720743D01*
X58659500Y-89195259D02*
X58659500Y-88720743D01*
%TO.C,R26*%
X71103258Y-75735501D02*
X70628742Y-75735501D01*
X71103258Y-76780501D02*
X70628742Y-76780501D01*
%TO.C,JP4*%
X56148500Y-89195259D02*
X56148500Y-88720743D01*
X55103500Y-89195259D02*
X55103500Y-88720743D01*
%TO.C,JP3*%
X53579500Y-88720743D02*
X53579500Y-89195259D01*
X54624500Y-88720743D02*
X54624500Y-89195259D01*
%TO.C,JP2*%
X52055500Y-88720743D02*
X52055500Y-89195259D01*
X53100500Y-88720743D02*
X53100500Y-89195259D01*
%TO.C,JP1*%
X51576500Y-89195259D02*
X51576500Y-88720743D01*
X50531500Y-89195259D02*
X50531500Y-88720743D01*
%TO.C,R25*%
X76470742Y-40966501D02*
X76945258Y-40966501D01*
X76470742Y-39921501D02*
X76945258Y-39921501D01*
%TO.C,R23*%
X76470742Y-50872501D02*
X76945258Y-50872501D01*
X76470742Y-49827501D02*
X76945258Y-49827501D01*
%TO.C,R22*%
X76470742Y-39442501D02*
X76945258Y-39442501D01*
X76470742Y-38397501D02*
X76945258Y-38397501D01*
%TO.C,R21*%
X76470742Y-37918501D02*
X76945258Y-37918501D01*
X76470742Y-36873501D02*
X76945258Y-36873501D01*
%TO.C,R20*%
X76945258Y-53383501D02*
X76470742Y-53383501D01*
X76945258Y-54428501D02*
X76470742Y-54428501D01*
%TO.C,R19*%
X76945258Y-48303501D02*
X76470742Y-48303501D01*
X76945258Y-49348501D02*
X76470742Y-49348501D01*
%TO.C,R18*%
X62975258Y-52113501D02*
X62500742Y-52113501D01*
X62975258Y-53158501D02*
X62500742Y-53158501D01*
%TO.C,R17*%
X76945258Y-55415501D02*
X76470742Y-55415501D01*
X76945258Y-56460501D02*
X76470742Y-56460501D01*
%TO.C,R16*%
X76945258Y-65829501D02*
X76470742Y-65829501D01*
X76945258Y-66874501D02*
X76470742Y-66874501D01*
%TO.C,R15*%
X76945258Y-57193501D02*
X76470742Y-57193501D01*
X76945258Y-58238501D02*
X76470742Y-58238501D01*
%TO.C,R14*%
X70849258Y-64813501D02*
X70374742Y-64813501D01*
X70849258Y-65858501D02*
X70374742Y-65858501D01*
%TO.C,R13*%
X70398742Y-67538501D02*
X70873258Y-67538501D01*
X70398742Y-66493501D02*
X70873258Y-66493501D01*
%TO.C,R12*%
X76494742Y-60016501D02*
X76969258Y-60016501D01*
X76494742Y-58971501D02*
X76969258Y-58971501D01*
%TO.C,R11*%
X50816742Y-58238501D02*
X51291258Y-58238501D01*
X50816742Y-57193501D02*
X51291258Y-57193501D01*
%TO.C,R10*%
X50816742Y-61286501D02*
X51291258Y-61286501D01*
X50816742Y-60241501D02*
X51291258Y-60241501D01*
%TO.C,R9*%
X43925258Y-50335501D02*
X43450742Y-50335501D01*
X43925258Y-51380501D02*
X43450742Y-51380501D01*
%TO.C,R8*%
X43925258Y-57955501D02*
X43450742Y-57955501D01*
X43925258Y-59000501D02*
X43450742Y-59000501D01*
%TO.C,R7*%
X43925258Y-56431501D02*
X43450742Y-56431501D01*
X43925258Y-57476501D02*
X43450742Y-57476501D01*
%TO.C,R6*%
X43925258Y-54907501D02*
X43450742Y-54907501D01*
X43925258Y-55952501D02*
X43450742Y-55952501D01*
%TO.C,R5*%
X43925258Y-53383501D02*
X43450742Y-53383501D01*
X43925258Y-54428501D02*
X43450742Y-54428501D01*
%TO.C,R4*%
X43925258Y-51859501D02*
X43450742Y-51859501D01*
X43925258Y-52904501D02*
X43450742Y-52904501D01*
%TO.C,R3*%
X43450742Y-46808501D02*
X43925258Y-46808501D01*
X43450742Y-45763501D02*
X43925258Y-45763501D01*
%TO.C,R2*%
X43450742Y-49856501D02*
X43925258Y-49856501D01*
X43450742Y-48811501D02*
X43925258Y-48811501D01*
%TO.C,R1*%
X43450742Y-48332501D02*
X43925258Y-48332501D01*
X43450742Y-47287501D02*
X43925258Y-47287501D01*
%TO.C,L1*%
X52274000Y-82304001D02*
X49274000Y-82304001D01*
X52274000Y-69704001D02*
X52274000Y-82304001D01*
X49274000Y-69704001D02*
X52274000Y-69704001D01*
X39674000Y-69704001D02*
X42674000Y-69704001D01*
X39674000Y-82304001D02*
X39674000Y-69704001D01*
X42674000Y-82304001D02*
X39674000Y-82304001D01*
%TO.C,J2*%
X41091000Y-62771001D02*
X41091000Y-62881001D01*
X39931000Y-50011001D02*
X41091000Y-50011001D01*
X41091000Y-50011001D02*
X41091000Y-61271001D01*
X41091000Y-62881001D02*
X39281000Y-62881001D01*
X36681000Y-50011001D02*
X31081000Y-50011001D01*
X37381000Y-62881001D02*
X31081000Y-62881001D01*
%TO.C,FB2*%
X76545221Y-42732001D02*
X76870779Y-42732001D01*
X76545221Y-41712001D02*
X76870779Y-41712001D01*
%TO.C,FB1*%
X76545221Y-44256001D02*
X76870779Y-44256001D01*
X76545221Y-43236001D02*
X76870779Y-43236001D01*
%TO.C,D11*%
X42645000Y-92806001D02*
X42645000Y-90346001D01*
X42645000Y-90346001D02*
X41175000Y-90346001D01*
X41175000Y-90346001D02*
X41175000Y-92806001D01*
%TO.C,D10*%
X26926000Y-77726001D02*
X28386000Y-77726001D01*
X26926000Y-80886001D02*
X29086000Y-80886001D01*
X26926000Y-80886001D02*
X26926000Y-79956001D01*
X26926000Y-77726001D02*
X26926000Y-78656001D01*
%TO.C,D9*%
X56415000Y-80948001D02*
X56415000Y-83408001D01*
X57885000Y-80948001D02*
X56415000Y-80948001D01*
X57885000Y-83408001D02*
X57885000Y-80948001D01*
%TO.C,D8*%
X52859000Y-80948001D02*
X52859000Y-83408001D01*
X54329000Y-80948001D02*
X52859000Y-80948001D01*
X54329000Y-83408001D02*
X54329000Y-80948001D01*
%TO.C,D7*%
X68952000Y-69373001D02*
X71412000Y-69373001D01*
X68952000Y-67903001D02*
X68952000Y-69373001D01*
X71412000Y-67903001D02*
X68952000Y-67903001D01*
%TO.C,D6*%
X71372000Y-42024001D02*
X69912000Y-42024001D01*
X71372000Y-38864001D02*
X69212000Y-38864001D01*
X71372000Y-38864001D02*
X71372000Y-39794001D01*
X71372000Y-42024001D02*
X71372000Y-41094001D01*
%TO.C,D5*%
X71118000Y-52184001D02*
X69658000Y-52184001D01*
X71118000Y-49024001D02*
X68958000Y-49024001D01*
X71118000Y-49024001D02*
X71118000Y-49954001D01*
X71118000Y-52184001D02*
X71118000Y-51254001D01*
%TO.C,D4*%
X71118000Y-55994001D02*
X69658000Y-55994001D01*
X71118000Y-52834001D02*
X68958000Y-52834001D01*
X71118000Y-52834001D02*
X71118000Y-53764001D01*
X71118000Y-55994001D02*
X71118000Y-55064001D01*
%TO.C,D3*%
X71372000Y-45580001D02*
X69912000Y-45580001D01*
X71372000Y-42420001D02*
X69212000Y-42420001D01*
X71372000Y-42420001D02*
X71372000Y-43350001D01*
X71372000Y-45580001D02*
X71372000Y-44650001D01*
%TO.C,D2*%
X44084000Y-35176001D02*
X44084000Y-35376001D01*
X42784000Y-35676001D02*
X42784000Y-35776001D01*
X42784000Y-37276001D02*
X42784000Y-37476001D01*
X44084000Y-36876001D02*
X44084000Y-37076001D01*
X42784000Y-36476001D02*
X42784000Y-36576001D01*
X44084000Y-36076001D02*
X44084000Y-36176001D01*
X44084000Y-38176001D02*
X42884000Y-38176001D01*
X44084000Y-37776001D02*
X44084000Y-38176001D01*
X44084000Y-34076001D02*
X43434000Y-34076001D01*
X44084000Y-34476001D02*
X44084000Y-34076001D01*
%TO.C,C31*%
X47490748Y-66071001D02*
X48013252Y-66071001D01*
X47490748Y-64601001D02*
X48013252Y-64601001D01*
%TO.C,C30*%
X47357420Y-67878001D02*
X47638580Y-67878001D01*
X47357420Y-66858001D02*
X47638580Y-66858001D01*
%TO.C,C29*%
X29716000Y-79165421D02*
X29716000Y-79446581D01*
X30736000Y-79165421D02*
X30736000Y-79446581D01*
%TO.C,C27*%
X32510000Y-91865421D02*
X32510000Y-92146581D01*
X33530000Y-91865421D02*
X33530000Y-92146581D01*
%TO.C,C26*%
X64010000Y-77922581D02*
X64010000Y-77641421D01*
X62990000Y-77922581D02*
X62990000Y-77641421D01*
%TO.C,C25*%
X58422000Y-77160581D02*
X58422000Y-76879421D01*
X57402000Y-77160581D02*
X57402000Y-76879421D01*
%TO.C,C24*%
X35812000Y-79165421D02*
X35812000Y-79446581D01*
X36832000Y-79165421D02*
X36832000Y-79446581D01*
%TO.C,C23*%
X37365000Y-79044749D02*
X37365000Y-79567253D01*
X38835000Y-79044749D02*
X38835000Y-79567253D01*
%TO.C,C22*%
X56136000Y-74620581D02*
X56136000Y-74339421D01*
X55116000Y-74620581D02*
X55116000Y-74339421D01*
%TO.C,C21*%
X60200000Y-74366581D02*
X60200000Y-74085421D01*
X59180000Y-74366581D02*
X59180000Y-74085421D01*
%TO.C,C20*%
X70350748Y-73183001D02*
X70873252Y-73183001D01*
X70350748Y-71713001D02*
X70873252Y-71713001D01*
%TO.C,C19*%
X64768000Y-77922581D02*
X64768000Y-77641421D01*
X65788000Y-77922581D02*
X65788000Y-77641421D01*
%TO.C,C18*%
X60196000Y-82467421D02*
X60196000Y-82748581D01*
X61216000Y-82467421D02*
X61216000Y-82748581D01*
%TO.C,C17*%
X70350748Y-75215001D02*
X70873252Y-75215001D01*
X70350748Y-73745001D02*
X70873252Y-73745001D01*
%TO.C,C16*%
X76567420Y-47304001D02*
X76848580Y-47304001D01*
X76567420Y-46284001D02*
X76848580Y-46284001D01*
%TO.C,C15*%
X76567420Y-45780001D02*
X76848580Y-45780001D01*
X76567420Y-44760001D02*
X76848580Y-44760001D01*
%TO.C,C14*%
X76567420Y-61782001D02*
X76848580Y-61782001D01*
X76567420Y-60762001D02*
X76848580Y-60762001D01*
%TO.C,C13*%
X76567420Y-63306001D02*
X76848580Y-63306001D01*
X76567420Y-62286001D02*
X76848580Y-62286001D01*
%TO.C,C12*%
X67807500Y-33366501D02*
X67807500Y-33991501D01*
X67495000Y-33679001D02*
X68120000Y-33679001D01*
X68360000Y-37059564D02*
X69424437Y-38124001D01*
X68360000Y-33668438D02*
X69424437Y-32604001D01*
X68360000Y-33668438D02*
X68360000Y-34304001D01*
X68360000Y-37059564D02*
X68360000Y-36424001D01*
X69424437Y-38124001D02*
X73880000Y-38124001D01*
X69424437Y-32604001D02*
X73880000Y-32604001D01*
X73880000Y-32604001D02*
X73880000Y-34304001D01*
X73880000Y-38124001D02*
X73880000Y-36424001D01*
%TO.C,C11*%
X43547420Y-40446001D02*
X43828580Y-40446001D01*
X43547420Y-39426001D02*
X43828580Y-39426001D01*
%TO.C,C10*%
X43547420Y-42224001D02*
X43828580Y-42224001D01*
X43547420Y-41204001D02*
X43828580Y-41204001D01*
%TO.C,C9*%
X76848580Y-64064001D02*
X76567420Y-64064001D01*
X76848580Y-65084001D02*
X76567420Y-65084001D01*
%TO.C,C8*%
X62851420Y-64830001D02*
X63132580Y-64830001D01*
X62851420Y-63810001D02*
X63132580Y-63810001D01*
%TO.C,C7*%
X50913420Y-63052001D02*
X51194580Y-63052001D01*
X50913420Y-62032001D02*
X51194580Y-62032001D01*
%TO.C,C6*%
X62597420Y-54670001D02*
X62878580Y-54670001D01*
X62597420Y-53650001D02*
X62878580Y-53650001D01*
%TO.C,C5*%
X62730748Y-58197001D02*
X63253252Y-58197001D01*
X62730748Y-56727001D02*
X63253252Y-56727001D01*
%TO.C,C4*%
X43828580Y-59746001D02*
X43547420Y-59746001D01*
X43828580Y-60766001D02*
X43547420Y-60766001D01*
%TO.C,C3*%
X43828580Y-61524001D02*
X43547420Y-61524001D01*
X43828580Y-62544001D02*
X43547420Y-62544001D01*
%TO.C,C2*%
X62851420Y-63306001D02*
X63132580Y-63306001D01*
X62851420Y-62286001D02*
X63132580Y-62286001D01*
%TO.C,C1*%
X62730748Y-61499001D02*
X63253252Y-61499001D01*
X62730748Y-60029001D02*
X63253252Y-60029001D01*
%TO.C,SW3*%
D14*
X81216666Y-112672761D02*
X81359523Y-112720380D01*
X81597619Y-112720380D01*
X81692857Y-112672761D01*
X81740476Y-112625142D01*
X81788095Y-112529904D01*
X81788095Y-112434666D01*
X81740476Y-112339428D01*
X81692857Y-112291809D01*
X81597619Y-112244190D01*
X81407142Y-112196571D01*
X81311904Y-112148952D01*
X81264285Y-112101333D01*
X81216666Y-112006095D01*
X81216666Y-111910857D01*
X81264285Y-111815619D01*
X81311904Y-111768000D01*
X81407142Y-111720380D01*
X81645238Y-111720380D01*
X81788095Y-111768000D01*
X82121428Y-111720380D02*
X82359523Y-112720380D01*
X82550000Y-112006095D01*
X82740476Y-112720380D01*
X82978571Y-111720380D01*
X83264285Y-111720380D02*
X83883333Y-111720380D01*
X83550000Y-112101333D01*
X83692857Y-112101333D01*
X83788095Y-112148952D01*
X83835714Y-112196571D01*
X83883333Y-112291809D01*
X83883333Y-112529904D01*
X83835714Y-112625142D01*
X83788095Y-112672761D01*
X83692857Y-112720380D01*
X83407142Y-112720380D01*
X83311904Y-112672761D01*
X83264285Y-112625142D01*
%TO.C,JP6*%
X36122380Y-73731333D02*
X36836666Y-73731333D01*
X36979523Y-73778952D01*
X37074761Y-73874190D01*
X37122380Y-74017047D01*
X37122380Y-74112285D01*
X37122380Y-73255142D02*
X36122380Y-73255142D01*
X36122380Y-72874190D01*
X36170000Y-72778952D01*
X36217619Y-72731333D01*
X36312857Y-72683714D01*
X36455714Y-72683714D01*
X36550952Y-72731333D01*
X36598571Y-72778952D01*
X36646190Y-72874190D01*
X36646190Y-73255142D01*
X36122380Y-71826571D02*
X36122380Y-72017047D01*
X36170000Y-72112285D01*
X36217619Y-72159904D01*
X36360476Y-72255142D01*
X36550952Y-72302761D01*
X36931904Y-72302761D01*
X37027142Y-72255142D01*
X37074761Y-72207523D01*
X37122380Y-72112285D01*
X37122380Y-71921809D01*
X37074761Y-71826571D01*
X37027142Y-71778952D01*
X36931904Y-71731333D01*
X36693809Y-71731333D01*
X36598571Y-71778952D01*
X36550952Y-71826571D01*
X36503333Y-71921809D01*
X36503333Y-72112285D01*
X36550952Y-72207523D01*
X36598571Y-72255142D01*
X36693809Y-72302761D01*
%TO.C,JP5*%
X33328380Y-73731333D02*
X34042666Y-73731333D01*
X34185523Y-73778952D01*
X34280761Y-73874190D01*
X34328380Y-74017047D01*
X34328380Y-74112285D01*
X34328380Y-73255142D02*
X33328380Y-73255142D01*
X33328380Y-72874190D01*
X33376000Y-72778952D01*
X33423619Y-72731333D01*
X33518857Y-72683714D01*
X33661714Y-72683714D01*
X33756952Y-72731333D01*
X33804571Y-72778952D01*
X33852190Y-72874190D01*
X33852190Y-73255142D01*
X33328380Y-71778952D02*
X33328380Y-72255142D01*
X33804571Y-72302761D01*
X33756952Y-72255142D01*
X33709333Y-72159904D01*
X33709333Y-71921809D01*
X33756952Y-71826571D01*
X33804571Y-71778952D01*
X33899809Y-71731333D01*
X34137904Y-71731333D01*
X34233142Y-71778952D01*
X34280761Y-71826571D01*
X34328380Y-71921809D01*
X34328380Y-72159904D01*
X34280761Y-72255142D01*
X34233142Y-72302761D01*
%TO.C,R55*%
X76065142Y-32964380D02*
X75731809Y-32488190D01*
X75493714Y-32964380D02*
X75493714Y-31964380D01*
X75874666Y-31964380D01*
X75969904Y-32012000D01*
X76017523Y-32059619D01*
X76065142Y-32154857D01*
X76065142Y-32297714D01*
X76017523Y-32392952D01*
X75969904Y-32440571D01*
X75874666Y-32488190D01*
X75493714Y-32488190D01*
X76969904Y-31964380D02*
X76493714Y-31964380D01*
X76446095Y-32440571D01*
X76493714Y-32392952D01*
X76588952Y-32345333D01*
X76827047Y-32345333D01*
X76922285Y-32392952D01*
X76969904Y-32440571D01*
X77017523Y-32535809D01*
X77017523Y-32773904D01*
X76969904Y-32869142D01*
X76922285Y-32916761D01*
X76827047Y-32964380D01*
X76588952Y-32964380D01*
X76493714Y-32916761D01*
X76446095Y-32869142D01*
X77922285Y-31964380D02*
X77446095Y-31964380D01*
X77398476Y-32440571D01*
X77446095Y-32392952D01*
X77541333Y-32345333D01*
X77779428Y-32345333D01*
X77874666Y-32392952D01*
X77922285Y-32440571D01*
X77969904Y-32535809D01*
X77969904Y-32773904D01*
X77922285Y-32869142D01*
X77874666Y-32916761D01*
X77779428Y-32964380D01*
X77541333Y-32964380D01*
X77446095Y-32916761D01*
X77398476Y-32869142D01*
%TO.C,R54*%
X66921142Y-47950380D02*
X66587809Y-47474190D01*
X66349714Y-47950380D02*
X66349714Y-46950380D01*
X66730666Y-46950380D01*
X66825904Y-46998000D01*
X66873523Y-47045619D01*
X66921142Y-47140857D01*
X66921142Y-47283714D01*
X66873523Y-47378952D01*
X66825904Y-47426571D01*
X66730666Y-47474190D01*
X66349714Y-47474190D01*
X67825904Y-46950380D02*
X67349714Y-46950380D01*
X67302095Y-47426571D01*
X67349714Y-47378952D01*
X67444952Y-47331333D01*
X67683047Y-47331333D01*
X67778285Y-47378952D01*
X67825904Y-47426571D01*
X67873523Y-47521809D01*
X67873523Y-47759904D01*
X67825904Y-47855142D01*
X67778285Y-47902761D01*
X67683047Y-47950380D01*
X67444952Y-47950380D01*
X67349714Y-47902761D01*
X67302095Y-47855142D01*
X68730666Y-47283714D02*
X68730666Y-47950380D01*
X68492571Y-46902761D02*
X68254476Y-47617047D01*
X68873523Y-47617047D01*
%TO.C,J5*%
X85304380Y-68913333D02*
X86018666Y-68913333D01*
X86161523Y-68960952D01*
X86256761Y-69056190D01*
X86304380Y-69199047D01*
X86304380Y-69294285D01*
X85304380Y-67960952D02*
X85304380Y-68437142D01*
X85780571Y-68484761D01*
X85732952Y-68437142D01*
X85685333Y-68341904D01*
X85685333Y-68103809D01*
X85732952Y-68008571D01*
X85780571Y-67960952D01*
X85875809Y-67913333D01*
X86113904Y-67913333D01*
X86209142Y-67960952D01*
X86256761Y-68008571D01*
X86304380Y-68103809D01*
X86304380Y-68341904D01*
X86256761Y-68437142D01*
X86209142Y-68484761D01*
%TO.C,FB4*%
X82572571Y-45029333D02*
X82572571Y-45362666D01*
X83096380Y-45362666D02*
X82096380Y-45362666D01*
X82096380Y-44886476D01*
X82572571Y-44172190D02*
X82620190Y-44029333D01*
X82667809Y-43981714D01*
X82763047Y-43934095D01*
X82905904Y-43934095D01*
X83001142Y-43981714D01*
X83048761Y-44029333D01*
X83096380Y-44124571D01*
X83096380Y-44505523D01*
X82096380Y-44505523D01*
X82096380Y-44172190D01*
X82144000Y-44076952D01*
X82191619Y-44029333D01*
X82286857Y-43981714D01*
X82382095Y-43981714D01*
X82477333Y-44029333D01*
X82524952Y-44076952D01*
X82572571Y-44172190D01*
X82572571Y-44505523D01*
X82429714Y-43076952D02*
X83096380Y-43076952D01*
X82048761Y-43315047D02*
X82763047Y-43553142D01*
X82763047Y-42934095D01*
%TO.C,FB3*%
X79016571Y-45029333D02*
X79016571Y-45362666D01*
X79540380Y-45362666D02*
X78540380Y-45362666D01*
X78540380Y-44886476D01*
X79016571Y-44172190D02*
X79064190Y-44029333D01*
X79111809Y-43981714D01*
X79207047Y-43934095D01*
X79349904Y-43934095D01*
X79445142Y-43981714D01*
X79492761Y-44029333D01*
X79540380Y-44124571D01*
X79540380Y-44505523D01*
X78540380Y-44505523D01*
X78540380Y-44172190D01*
X78588000Y-44076952D01*
X78635619Y-44029333D01*
X78730857Y-43981714D01*
X78826095Y-43981714D01*
X78921333Y-44029333D01*
X78968952Y-44076952D01*
X79016571Y-44172190D01*
X79016571Y-44505523D01*
X78540380Y-43600761D02*
X78540380Y-42981714D01*
X78921333Y-43315047D01*
X78921333Y-43172190D01*
X78968952Y-43076952D01*
X79016571Y-43029333D01*
X79111809Y-42981714D01*
X79349904Y-42981714D01*
X79445142Y-43029333D01*
X79492761Y-43076952D01*
X79540380Y-43172190D01*
X79540380Y-43457904D01*
X79492761Y-43553142D01*
X79445142Y-43600761D01*
%TO.C,F1*%
X82470666Y-91114571D02*
X82137333Y-91114571D01*
X82137333Y-91638380D02*
X82137333Y-90638380D01*
X82613523Y-90638380D01*
X83518285Y-91638380D02*
X82946857Y-91638380D01*
X83232571Y-91638380D02*
X83232571Y-90638380D01*
X83137333Y-90781238D01*
X83042095Y-90876476D01*
X82946857Y-90924095D01*
%TO.C,D12*%
X71937714Y-92400380D02*
X71937714Y-91400380D01*
X72175809Y-91400380D01*
X72318666Y-91448000D01*
X72413904Y-91543238D01*
X72461523Y-91638476D01*
X72509142Y-91828952D01*
X72509142Y-91971809D01*
X72461523Y-92162285D01*
X72413904Y-92257523D01*
X72318666Y-92352761D01*
X72175809Y-92400380D01*
X71937714Y-92400380D01*
X73461523Y-92400380D02*
X72890095Y-92400380D01*
X73175809Y-92400380D02*
X73175809Y-91400380D01*
X73080571Y-91543238D01*
X72985333Y-91638476D01*
X72890095Y-91686095D01*
X73842476Y-91495619D02*
X73890095Y-91448000D01*
X73985333Y-91400380D01*
X74223428Y-91400380D01*
X74318666Y-91448000D01*
X74366285Y-91495619D01*
X74413904Y-91590857D01*
X74413904Y-91686095D01*
X74366285Y-91828952D01*
X73794857Y-92400380D01*
X74413904Y-92400380D01*
%TO.C,J3*%
X37766666Y-29678380D02*
X37766666Y-30392666D01*
X37719047Y-30535523D01*
X37623809Y-30630761D01*
X37480952Y-30678380D01*
X37385714Y-30678380D01*
X38147619Y-29678380D02*
X38766666Y-29678380D01*
X38433333Y-30059333D01*
X38576190Y-30059333D01*
X38671428Y-30106952D01*
X38719047Y-30154571D01*
X38766666Y-30249809D01*
X38766666Y-30487904D01*
X38719047Y-30583142D01*
X38671428Y-30630761D01*
X38576190Y-30678380D01*
X38290476Y-30678380D01*
X38195238Y-30630761D01*
X38147619Y-30583142D01*
%TO.C,D1*%
X61745904Y-66804381D02*
X61745904Y-65804381D01*
X61984000Y-65804381D01*
X62126857Y-65852001D01*
X62222095Y-65947239D01*
X62269714Y-66042477D01*
X62317333Y-66232953D01*
X62317333Y-66375810D01*
X62269714Y-66566286D01*
X62222095Y-66661524D01*
X62126857Y-66756762D01*
X61984000Y-66804381D01*
X61745904Y-66804381D01*
X63269714Y-66804381D02*
X62698285Y-66804381D01*
X62984000Y-66804381D02*
X62984000Y-65804381D01*
X62888761Y-65947239D01*
X62793523Y-66042477D01*
X62698285Y-66090096D01*
%TO.C,R24*%
X73017142Y-52834381D02*
X72683809Y-52358191D01*
X72445714Y-52834381D02*
X72445714Y-51834381D01*
X72826666Y-51834381D01*
X72921904Y-51882001D01*
X72969523Y-51929620D01*
X73017142Y-52024858D01*
X73017142Y-52167715D01*
X72969523Y-52262953D01*
X72921904Y-52310572D01*
X72826666Y-52358191D01*
X72445714Y-52358191D01*
X73398095Y-51929620D02*
X73445714Y-51882001D01*
X73540952Y-51834381D01*
X73779047Y-51834381D01*
X73874285Y-51882001D01*
X73921904Y-51929620D01*
X73969523Y-52024858D01*
X73969523Y-52120096D01*
X73921904Y-52262953D01*
X73350476Y-52834381D01*
X73969523Y-52834381D01*
X74826666Y-52167715D02*
X74826666Y-52834381D01*
X74588571Y-51786762D02*
X74350476Y-52501048D01*
X74969523Y-52501048D01*
%TO.C,U6*%
X37084095Y-84288380D02*
X37084095Y-85097904D01*
X37131714Y-85193142D01*
X37179333Y-85240761D01*
X37274571Y-85288380D01*
X37465047Y-85288380D01*
X37560285Y-85240761D01*
X37607904Y-85193142D01*
X37655523Y-85097904D01*
X37655523Y-84288380D01*
X38560285Y-84288380D02*
X38369809Y-84288380D01*
X38274571Y-84336000D01*
X38226952Y-84383619D01*
X38131714Y-84526476D01*
X38084095Y-84716952D01*
X38084095Y-85097904D01*
X38131714Y-85193142D01*
X38179333Y-85240761D01*
X38274571Y-85288380D01*
X38465047Y-85288380D01*
X38560285Y-85240761D01*
X38607904Y-85193142D01*
X38655523Y-85097904D01*
X38655523Y-84859809D01*
X38607904Y-84764571D01*
X38560285Y-84716952D01*
X38465047Y-84669333D01*
X38274571Y-84669333D01*
X38179333Y-84716952D01*
X38131714Y-84764571D01*
X38084095Y-84859809D01*
%TO.C,LCD1*%
D11*
X51100190Y-109685761D02*
X51100190Y-107685761D01*
X52052571Y-109685761D02*
X52052571Y-107685761D01*
X52814476Y-107685761D01*
X53004952Y-107781000D01*
X53100190Y-107876238D01*
X53195428Y-108066714D01*
X53195428Y-108352428D01*
X53100190Y-108542904D01*
X53004952Y-108638142D01*
X52814476Y-108733380D01*
X52052571Y-108733380D01*
X53957333Y-109590523D02*
X54243047Y-109685761D01*
X54719238Y-109685761D01*
X54909714Y-109590523D01*
X55004952Y-109495285D01*
X55100190Y-109304809D01*
X55100190Y-109114333D01*
X55004952Y-108923857D01*
X54909714Y-108828619D01*
X54719238Y-108733380D01*
X54338285Y-108638142D01*
X54147809Y-108542904D01*
X54052571Y-108447666D01*
X53957333Y-108257190D01*
X53957333Y-108066714D01*
X54052571Y-107876238D01*
X54147809Y-107781000D01*
X54338285Y-107685761D01*
X54814476Y-107685761D01*
X55100190Y-107781000D01*
X58433523Y-109685761D02*
X57481142Y-109685761D01*
X57481142Y-107685761D01*
X60243047Y-109495285D02*
X60147809Y-109590523D01*
X59862095Y-109685761D01*
X59671619Y-109685761D01*
X59385904Y-109590523D01*
X59195428Y-109400047D01*
X59100190Y-109209571D01*
X59004952Y-108828619D01*
X59004952Y-108542904D01*
X59100190Y-108161952D01*
X59195428Y-107971476D01*
X59385904Y-107781000D01*
X59671619Y-107685761D01*
X59862095Y-107685761D01*
X60147809Y-107781000D01*
X60243047Y-107876238D01*
X61100190Y-109685761D02*
X61100190Y-107685761D01*
X61576380Y-107685761D01*
X61862095Y-107781000D01*
X62052571Y-107971476D01*
X62147809Y-108161952D01*
X62243047Y-108542904D01*
X62243047Y-108828619D01*
X62147809Y-109209571D01*
X62052571Y-109400047D01*
X61862095Y-109590523D01*
X61576380Y-109685761D01*
X61100190Y-109685761D01*
X47052571Y-103240761D02*
X47243047Y-103240761D01*
X47433523Y-103336000D01*
X47528761Y-103431238D01*
X47623999Y-103621714D01*
X47719238Y-104002666D01*
X47719238Y-104478857D01*
X47623999Y-104859809D01*
X47528761Y-105050285D01*
X47433523Y-105145523D01*
X47243047Y-105240761D01*
X47052571Y-105240761D01*
X46862095Y-105145523D01*
X46766857Y-105050285D01*
X46671619Y-104859809D01*
X46576380Y-104478857D01*
X46576380Y-104002666D01*
X46671619Y-103621714D01*
X46766857Y-103431238D01*
X46862095Y-103336000D01*
X47052571Y-103240761D01*
X48576380Y-105050285D02*
X48671619Y-105145523D01*
X48576380Y-105240761D01*
X48481142Y-105145523D01*
X48576380Y-105050285D01*
X48576380Y-105240761D01*
X49623999Y-105240761D02*
X50004952Y-105240761D01*
X50195428Y-105145523D01*
X50290666Y-105050285D01*
X50481142Y-104764571D01*
X50576380Y-104383619D01*
X50576380Y-103621714D01*
X50481142Y-103431238D01*
X50385904Y-103336000D01*
X50195428Y-103240761D01*
X49814476Y-103240761D01*
X49623999Y-103336000D01*
X49528761Y-103431238D01*
X49433523Y-103621714D01*
X49433523Y-104097904D01*
X49528761Y-104288380D01*
X49623999Y-104383619D01*
X49814476Y-104478857D01*
X50195428Y-104478857D01*
X50385904Y-104383619D01*
X50481142Y-104288380D01*
X50576380Y-104097904D01*
X52290666Y-103240761D02*
X51909714Y-103240761D01*
X51719238Y-103336000D01*
X51623999Y-103431238D01*
X51433523Y-103716952D01*
X51338285Y-104097904D01*
X51338285Y-104859809D01*
X51433523Y-105050285D01*
X51528761Y-105145523D01*
X51719238Y-105240761D01*
X52100190Y-105240761D01*
X52290666Y-105145523D01*
X52385904Y-105050285D01*
X52481142Y-104859809D01*
X52481142Y-104383619D01*
X52385904Y-104193142D01*
X52290666Y-104097904D01*
X52100190Y-104002666D01*
X51719238Y-104002666D01*
X51528761Y-104097904D01*
X51433523Y-104193142D01*
X51338285Y-104383619D01*
X53243047Y-103240761D02*
X53243047Y-103621714D01*
X54004952Y-103240761D02*
X54004952Y-103621714D01*
X57433523Y-105240761D02*
X56290666Y-105240761D01*
X56862095Y-105240761D02*
X56862095Y-103240761D01*
X56671619Y-103526476D01*
X56481142Y-103716952D01*
X56290666Y-103812190D01*
X59147809Y-103240761D02*
X58766857Y-103240761D01*
X58576380Y-103336000D01*
X58481142Y-103431238D01*
X58290666Y-103716952D01*
X58195428Y-104097904D01*
X58195428Y-104859809D01*
X58290666Y-105050285D01*
X58385904Y-105145523D01*
X58576380Y-105240761D01*
X58957333Y-105240761D01*
X59147809Y-105145523D01*
X59243047Y-105050285D01*
X59338285Y-104859809D01*
X59338285Y-104383619D01*
X59243047Y-104193142D01*
X59147809Y-104097904D01*
X58957333Y-104002666D01*
X58576380Y-104002666D01*
X58385904Y-104097904D01*
X58290666Y-104193142D01*
X58195428Y-104383619D01*
X60576380Y-103240761D02*
X60766857Y-103240761D01*
X60957333Y-103336000D01*
X61052571Y-103431238D01*
X61147809Y-103621714D01*
X61243047Y-104002666D01*
X61243047Y-104478857D01*
X61147809Y-104859809D01*
X61052571Y-105050285D01*
X60957333Y-105145523D01*
X60766857Y-105240761D01*
X60576380Y-105240761D01*
X60385904Y-105145523D01*
X60290666Y-105050285D01*
X60195428Y-104859809D01*
X60100190Y-104478857D01*
X60100190Y-104002666D01*
X60195428Y-103621714D01*
X60290666Y-103431238D01*
X60385904Y-103336000D01*
X60576380Y-103240761D01*
X61909714Y-105240761D02*
X62957333Y-103907428D01*
X61909714Y-103907428D02*
X62957333Y-105240761D01*
X64004952Y-104097904D02*
X63814476Y-104002666D01*
X63719238Y-103907428D01*
X63624000Y-103716952D01*
X63624000Y-103621714D01*
X63719238Y-103431238D01*
X63814476Y-103336000D01*
X64004952Y-103240761D01*
X64385904Y-103240761D01*
X64576380Y-103336000D01*
X64671619Y-103431238D01*
X64766857Y-103621714D01*
X64766857Y-103716952D01*
X64671619Y-103907428D01*
X64576380Y-104002666D01*
X64385904Y-104097904D01*
X64004952Y-104097904D01*
X63814476Y-104193142D01*
X63719238Y-104288380D01*
X63624000Y-104478857D01*
X63624000Y-104859809D01*
X63719238Y-105050285D01*
X63814476Y-105145523D01*
X64004952Y-105240761D01*
X64385904Y-105240761D01*
X64576380Y-105145523D01*
X64671619Y-105050285D01*
X64766857Y-104859809D01*
X64766857Y-104478857D01*
X64671619Y-104288380D01*
X64576380Y-104193142D01*
X64385904Y-104097904D01*
X66004952Y-103240761D02*
X66195428Y-103240761D01*
X66385904Y-103336000D01*
X66481142Y-103431238D01*
X66576380Y-103621714D01*
X66671619Y-104002666D01*
X66671619Y-104478857D01*
X66576380Y-104859809D01*
X66481142Y-105050285D01*
X66385904Y-105145523D01*
X66195428Y-105240761D01*
X66004952Y-105240761D01*
X65814476Y-105145523D01*
X65719238Y-105050285D01*
X65624000Y-104859809D01*
X65528761Y-104478857D01*
X65528761Y-104002666D01*
X65624000Y-103621714D01*
X65719238Y-103431238D01*
X65814476Y-103336000D01*
X66004952Y-103240761D01*
%TO.C,C28*%
D14*
X26773142Y-85790858D02*
X26820761Y-85838477D01*
X26868380Y-85981334D01*
X26868380Y-86076572D01*
X26820761Y-86219429D01*
X26725523Y-86314667D01*
X26630285Y-86362286D01*
X26439809Y-86409905D01*
X26296952Y-86409905D01*
X26106476Y-86362286D01*
X26011238Y-86314667D01*
X25916000Y-86219429D01*
X25868380Y-86076572D01*
X25868380Y-85981334D01*
X25916000Y-85838477D01*
X25963619Y-85790858D01*
X25963619Y-85409905D02*
X25916000Y-85362286D01*
X25868380Y-85267048D01*
X25868380Y-85028953D01*
X25916000Y-84933715D01*
X25963619Y-84886096D01*
X26058857Y-84838477D01*
X26154095Y-84838477D01*
X26296952Y-84886096D01*
X26868380Y-85457524D01*
X26868380Y-84838477D01*
X26296952Y-84267048D02*
X26249333Y-84362286D01*
X26201714Y-84409905D01*
X26106476Y-84457524D01*
X26058857Y-84457524D01*
X25963619Y-84409905D01*
X25916000Y-84362286D01*
X25868380Y-84267048D01*
X25868380Y-84076572D01*
X25916000Y-83981334D01*
X25963619Y-83933715D01*
X26058857Y-83886096D01*
X26106476Y-83886096D01*
X26201714Y-83933715D01*
X26249333Y-83981334D01*
X26296952Y-84076572D01*
X26296952Y-84267048D01*
X26344571Y-84362286D01*
X26392190Y-84409905D01*
X26487428Y-84457524D01*
X26677904Y-84457524D01*
X26773142Y-84409905D01*
X26820761Y-84362286D01*
X26868380Y-84267048D01*
X26868380Y-84076572D01*
X26820761Y-83981334D01*
X26773142Y-83933715D01*
X26677904Y-83886096D01*
X26487428Y-83886096D01*
X26392190Y-83933715D01*
X26344571Y-83981334D01*
X26296952Y-84076572D01*
%TO.C,BZ1*%
X81669047Y-105068571D02*
X81811904Y-105116190D01*
X81859523Y-105163809D01*
X81907142Y-105259047D01*
X81907142Y-105401904D01*
X81859523Y-105497142D01*
X81811904Y-105544761D01*
X81716666Y-105592380D01*
X81335714Y-105592380D01*
X81335714Y-104592380D01*
X81669047Y-104592380D01*
X81764285Y-104640000D01*
X81811904Y-104687619D01*
X81859523Y-104782857D01*
X81859523Y-104878095D01*
X81811904Y-104973333D01*
X81764285Y-105020952D01*
X81669047Y-105068571D01*
X81335714Y-105068571D01*
X82240476Y-104592380D02*
X82907142Y-104592380D01*
X82240476Y-105592380D01*
X82907142Y-105592380D01*
X83811904Y-105592380D02*
X83240476Y-105592380D01*
X83526190Y-105592380D02*
X83526190Y-104592380D01*
X83430952Y-104735238D01*
X83335714Y-104830476D01*
X83240476Y-104878095D01*
%TO.C,J8*%
X32686666Y-63206380D02*
X32686666Y-63920666D01*
X32639047Y-64063523D01*
X32543809Y-64158761D01*
X32400952Y-64206380D01*
X32305714Y-64206380D01*
X33305714Y-63634952D02*
X33210476Y-63587333D01*
X33162857Y-63539714D01*
X33115238Y-63444476D01*
X33115238Y-63396857D01*
X33162857Y-63301619D01*
X33210476Y-63254000D01*
X33305714Y-63206380D01*
X33496190Y-63206380D01*
X33591428Y-63254000D01*
X33639047Y-63301619D01*
X33686666Y-63396857D01*
X33686666Y-63444476D01*
X33639047Y-63539714D01*
X33591428Y-63587333D01*
X33496190Y-63634952D01*
X33305714Y-63634952D01*
X33210476Y-63682571D01*
X33162857Y-63730190D01*
X33115238Y-63825428D01*
X33115238Y-64015904D01*
X33162857Y-64111142D01*
X33210476Y-64158761D01*
X33305714Y-64206380D01*
X33496190Y-64206380D01*
X33591428Y-64158761D01*
X33639047Y-64111142D01*
X33686666Y-64015904D01*
X33686666Y-63825428D01*
X33639047Y-63730190D01*
X33591428Y-63682571D01*
X33496190Y-63634952D01*
%TO.C,J7*%
X79422666Y-69556380D02*
X79422666Y-70270666D01*
X79375047Y-70413523D01*
X79279809Y-70508761D01*
X79136952Y-70556380D01*
X79041714Y-70556380D01*
X79803619Y-69556380D02*
X80470285Y-69556380D01*
X80041714Y-70556380D01*
%TO.C,J6*%
X74596666Y-83526380D02*
X74596666Y-84240666D01*
X74549047Y-84383523D01*
X74453809Y-84478761D01*
X74310952Y-84526380D01*
X74215714Y-84526380D01*
X75501428Y-83526380D02*
X75310952Y-83526380D01*
X75215714Y-83574000D01*
X75168095Y-83621619D01*
X75072857Y-83764476D01*
X75025238Y-83954952D01*
X75025238Y-84335904D01*
X75072857Y-84431142D01*
X75120476Y-84478761D01*
X75215714Y-84526380D01*
X75406190Y-84526380D01*
X75501428Y-84478761D01*
X75549047Y-84431142D01*
X75596666Y-84335904D01*
X75596666Y-84097809D01*
X75549047Y-84002571D01*
X75501428Y-83954952D01*
X75406190Y-83907333D01*
X75215714Y-83907333D01*
X75120476Y-83954952D01*
X75072857Y-84002571D01*
X75025238Y-84097809D01*
%TO.C,J4*%
X85304380Y-53673333D02*
X86018666Y-53673333D01*
X86161523Y-53720952D01*
X86256761Y-53816190D01*
X86304380Y-53959047D01*
X86304380Y-54054285D01*
X85637714Y-52768571D02*
X86304380Y-52768571D01*
X85256761Y-53006666D02*
X85971047Y-53244761D01*
X85971047Y-52625714D01*
%TO.C,Q2*%
X67468761Y-59475619D02*
X67373523Y-59428000D01*
X67278285Y-59332761D01*
X67135428Y-59189904D01*
X67040190Y-59142285D01*
X66944952Y-59142285D01*
X66992571Y-59380380D02*
X66897333Y-59332761D01*
X66802095Y-59237523D01*
X66754476Y-59047047D01*
X66754476Y-58713714D01*
X66802095Y-58523238D01*
X66897333Y-58428000D01*
X66992571Y-58380380D01*
X67183047Y-58380380D01*
X67278285Y-58428000D01*
X67373523Y-58523238D01*
X67421142Y-58713714D01*
X67421142Y-59047047D01*
X67373523Y-59237523D01*
X67278285Y-59332761D01*
X67183047Y-59380380D01*
X66992571Y-59380380D01*
X67802095Y-58475619D02*
X67849714Y-58428000D01*
X67944952Y-58380380D01*
X68183047Y-58380380D01*
X68278285Y-58428000D01*
X68325904Y-58475619D01*
X68373523Y-58570857D01*
X68373523Y-58666095D01*
X68325904Y-58808952D01*
X67754476Y-59380380D01*
X68373523Y-59380380D01*
%TO.C,Q1*%
X67722761Y-63539619D02*
X67627523Y-63492000D01*
X67532285Y-63396761D01*
X67389428Y-63253904D01*
X67294190Y-63206285D01*
X67198952Y-63206285D01*
X67246571Y-63444380D02*
X67151333Y-63396761D01*
X67056095Y-63301523D01*
X67008476Y-63111047D01*
X67008476Y-62777714D01*
X67056095Y-62587238D01*
X67151333Y-62492000D01*
X67246571Y-62444380D01*
X67437047Y-62444380D01*
X67532285Y-62492000D01*
X67627523Y-62587238D01*
X67675142Y-62777714D01*
X67675142Y-63111047D01*
X67627523Y-63301523D01*
X67532285Y-63396761D01*
X67437047Y-63444380D01*
X67246571Y-63444380D01*
X68627523Y-63444380D02*
X68056095Y-63444380D01*
X68341809Y-63444380D02*
X68341809Y-62444380D01*
X68246571Y-62587238D01*
X68151333Y-62682476D01*
X68056095Y-62730095D01*
%TO.C,U9*%
X41656095Y-63518381D02*
X41656095Y-64327905D01*
X41703714Y-64423143D01*
X41751333Y-64470762D01*
X41846571Y-64518381D01*
X42037047Y-64518381D01*
X42132285Y-64470762D01*
X42179904Y-64423143D01*
X42227523Y-64327905D01*
X42227523Y-63518381D01*
X42751333Y-64518381D02*
X42941809Y-64518381D01*
X43037047Y-64470762D01*
X43084666Y-64423143D01*
X43179904Y-64280286D01*
X43227523Y-64089810D01*
X43227523Y-63708858D01*
X43179904Y-63613620D01*
X43132285Y-63566001D01*
X43037047Y-63518381D01*
X42846571Y-63518381D01*
X42751333Y-63566001D01*
X42703714Y-63613620D01*
X42656095Y-63708858D01*
X42656095Y-63946953D01*
X42703714Y-64042191D01*
X42751333Y-64089810D01*
X42846571Y-64137429D01*
X43037047Y-64137429D01*
X43132285Y-64089810D01*
X43179904Y-64042191D01*
X43227523Y-63946953D01*
%TO.C,U8*%
X59944095Y-77488381D02*
X59944095Y-78297905D01*
X59991714Y-78393143D01*
X60039333Y-78440762D01*
X60134571Y-78488381D01*
X60325047Y-78488381D01*
X60420285Y-78440762D01*
X60467904Y-78393143D01*
X60515523Y-78297905D01*
X60515523Y-77488381D01*
X61134571Y-77916953D02*
X61039333Y-77869334D01*
X60991714Y-77821715D01*
X60944095Y-77726477D01*
X60944095Y-77678858D01*
X60991714Y-77583620D01*
X61039333Y-77536001D01*
X61134571Y-77488381D01*
X61325047Y-77488381D01*
X61420285Y-77536001D01*
X61467904Y-77583620D01*
X61515523Y-77678858D01*
X61515523Y-77726477D01*
X61467904Y-77821715D01*
X61420285Y-77869334D01*
X61325047Y-77916953D01*
X61134571Y-77916953D01*
X61039333Y-77964572D01*
X60991714Y-78012191D01*
X60944095Y-78107429D01*
X60944095Y-78297905D01*
X60991714Y-78393143D01*
X61039333Y-78440762D01*
X61134571Y-78488381D01*
X61325047Y-78488381D01*
X61420285Y-78440762D01*
X61467904Y-78393143D01*
X61515523Y-78297905D01*
X61515523Y-78107429D01*
X61467904Y-78012191D01*
X61420285Y-77964572D01*
X61325047Y-77916953D01*
%TO.C,U7*%
X54102095Y-77488381D02*
X54102095Y-78297905D01*
X54149714Y-78393143D01*
X54197333Y-78440762D01*
X54292571Y-78488381D01*
X54483047Y-78488381D01*
X54578285Y-78440762D01*
X54625904Y-78393143D01*
X54673523Y-78297905D01*
X54673523Y-77488381D01*
X55054476Y-77488381D02*
X55721142Y-77488381D01*
X55292571Y-78488381D01*
%TO.C,U5*%
X66294095Y-85050380D02*
X66294095Y-85859904D01*
X66341714Y-85955142D01*
X66389333Y-86002761D01*
X66484571Y-86050380D01*
X66675047Y-86050380D01*
X66770285Y-86002761D01*
X66817904Y-85955142D01*
X66865523Y-85859904D01*
X66865523Y-85050380D01*
X67817904Y-85050380D02*
X67341714Y-85050380D01*
X67294095Y-85526571D01*
X67341714Y-85478952D01*
X67436952Y-85431333D01*
X67675047Y-85431333D01*
X67770285Y-85478952D01*
X67817904Y-85526571D01*
X67865523Y-85621809D01*
X67865523Y-85859904D01*
X67817904Y-85955142D01*
X67770285Y-86002761D01*
X67675047Y-86050380D01*
X67436952Y-86050380D01*
X67341714Y-86002761D01*
X67294095Y-85955142D01*
%TO.C,U4*%
X67056095Y-78504381D02*
X67056095Y-79313905D01*
X67103714Y-79409143D01*
X67151333Y-79456762D01*
X67246571Y-79504381D01*
X67437047Y-79504381D01*
X67532285Y-79456762D01*
X67579904Y-79409143D01*
X67627523Y-79313905D01*
X67627523Y-78504381D01*
X68532285Y-78837715D02*
X68532285Y-79504381D01*
X68294190Y-78456762D02*
X68056095Y-79171048D01*
X68675142Y-79171048D01*
%TO.C,U3*%
X44958095Y-29736381D02*
X44958095Y-30545905D01*
X45005714Y-30641143D01*
X45053333Y-30688762D01*
X45148571Y-30736381D01*
X45339047Y-30736381D01*
X45434285Y-30688762D01*
X45481904Y-30641143D01*
X45529523Y-30545905D01*
X45529523Y-29736381D01*
X45910476Y-29736381D02*
X46529523Y-29736381D01*
X46196190Y-30117334D01*
X46339047Y-30117334D01*
X46434285Y-30164953D01*
X46481904Y-30212572D01*
X46529523Y-30307810D01*
X46529523Y-30545905D01*
X46481904Y-30641143D01*
X46434285Y-30688762D01*
X46339047Y-30736381D01*
X46053333Y-30736381D01*
X45958095Y-30688762D01*
X45910476Y-30641143D01*
%TO.C,U2*%
X55768095Y-52708381D02*
X55768095Y-53517905D01*
X55815714Y-53613143D01*
X55863333Y-53660762D01*
X55958571Y-53708381D01*
X56149047Y-53708381D01*
X56244285Y-53660762D01*
X56291904Y-53613143D01*
X56339523Y-53517905D01*
X56339523Y-52708381D01*
X56768095Y-52803620D02*
X56815714Y-52756001D01*
X56910952Y-52708381D01*
X57149047Y-52708381D01*
X57244285Y-52756001D01*
X57291904Y-52803620D01*
X57339523Y-52898858D01*
X57339523Y-52994096D01*
X57291904Y-53136953D01*
X56720476Y-53708381D01*
X57339523Y-53708381D01*
%TO.C,U1*%
X53594095Y-60978381D02*
X53594095Y-61787905D01*
X53641714Y-61883143D01*
X53689333Y-61930762D01*
X53784571Y-61978381D01*
X53975047Y-61978381D01*
X54070285Y-61930762D01*
X54117904Y-61883143D01*
X54165523Y-61787905D01*
X54165523Y-60978381D01*
X55165523Y-61978381D02*
X54594095Y-61978381D01*
X54879809Y-61978381D02*
X54879809Y-60978381D01*
X54784571Y-61121239D01*
X54689333Y-61216477D01*
X54594095Y-61264096D01*
%TO.C,R42*%
X34996380Y-92648858D02*
X34520190Y-92982191D01*
X34996380Y-93220286D02*
X33996380Y-93220286D01*
X33996380Y-92839334D01*
X34044000Y-92744096D01*
X34091619Y-92696477D01*
X34186857Y-92648858D01*
X34329714Y-92648858D01*
X34424952Y-92696477D01*
X34472571Y-92744096D01*
X34520190Y-92839334D01*
X34520190Y-93220286D01*
X34329714Y-91791715D02*
X34996380Y-91791715D01*
X33948761Y-92029810D02*
X34663047Y-92267905D01*
X34663047Y-91648858D01*
X34091619Y-91315524D02*
X34044000Y-91267905D01*
X33996380Y-91172667D01*
X33996380Y-90934572D01*
X34044000Y-90839334D01*
X34091619Y-90791715D01*
X34186857Y-90744096D01*
X34282095Y-90744096D01*
X34424952Y-90791715D01*
X34996380Y-91363143D01*
X34996380Y-90744096D01*
%TO.C,R41*%
X39997142Y-43690381D02*
X39663809Y-43214191D01*
X39425714Y-43690381D02*
X39425714Y-42690381D01*
X39806666Y-42690381D01*
X39901904Y-42738001D01*
X39949523Y-42785620D01*
X39997142Y-42880858D01*
X39997142Y-43023715D01*
X39949523Y-43118953D01*
X39901904Y-43166572D01*
X39806666Y-43214191D01*
X39425714Y-43214191D01*
X40854285Y-43023715D02*
X40854285Y-43690381D01*
X40616190Y-42642762D02*
X40378095Y-43357048D01*
X40997142Y-43357048D01*
X41901904Y-43690381D02*
X41330476Y-43690381D01*
X41616190Y-43690381D02*
X41616190Y-42690381D01*
X41520952Y-42833239D01*
X41425714Y-42928477D01*
X41330476Y-42976096D01*
%TO.C,R40*%
X33726380Y-76900858D02*
X33250190Y-77234191D01*
X33726380Y-77472286D02*
X32726380Y-77472286D01*
X32726380Y-77091334D01*
X32774000Y-76996096D01*
X32821619Y-76948477D01*
X32916857Y-76900858D01*
X33059714Y-76900858D01*
X33154952Y-76948477D01*
X33202571Y-76996096D01*
X33250190Y-77091334D01*
X33250190Y-77472286D01*
X33059714Y-76043715D02*
X33726380Y-76043715D01*
X32678761Y-76281810D02*
X33393047Y-76519905D01*
X33393047Y-75900858D01*
X32726380Y-75329429D02*
X32726380Y-75234191D01*
X32774000Y-75138953D01*
X32821619Y-75091334D01*
X32916857Y-75043715D01*
X33107333Y-74996096D01*
X33345428Y-74996096D01*
X33535904Y-75043715D01*
X33631142Y-75091334D01*
X33678761Y-75138953D01*
X33726380Y-75234191D01*
X33726380Y-75329429D01*
X33678761Y-75424667D01*
X33631142Y-75472286D01*
X33535904Y-75519905D01*
X33345428Y-75567524D01*
X33107333Y-75567524D01*
X32916857Y-75519905D01*
X32821619Y-75472286D01*
X32774000Y-75424667D01*
X32726380Y-75329429D01*
%TO.C,R39*%
X32202380Y-76900858D02*
X31726190Y-77234191D01*
X32202380Y-77472286D02*
X31202380Y-77472286D01*
X31202380Y-77091334D01*
X31250000Y-76996096D01*
X31297619Y-76948477D01*
X31392857Y-76900858D01*
X31535714Y-76900858D01*
X31630952Y-76948477D01*
X31678571Y-76996096D01*
X31726190Y-77091334D01*
X31726190Y-77472286D01*
X31202380Y-76567524D02*
X31202380Y-75948477D01*
X31583333Y-76281810D01*
X31583333Y-76138953D01*
X31630952Y-76043715D01*
X31678571Y-75996096D01*
X31773809Y-75948477D01*
X32011904Y-75948477D01*
X32107142Y-75996096D01*
X32154761Y-76043715D01*
X32202380Y-76138953D01*
X32202380Y-76424667D01*
X32154761Y-76519905D01*
X32107142Y-76567524D01*
X32202380Y-75472286D02*
X32202380Y-75281810D01*
X32154761Y-75186572D01*
X32107142Y-75138953D01*
X31964285Y-75043715D01*
X31773809Y-74996096D01*
X31392857Y-74996096D01*
X31297619Y-75043715D01*
X31250000Y-75091334D01*
X31202380Y-75186572D01*
X31202380Y-75377048D01*
X31250000Y-75472286D01*
X31297619Y-75519905D01*
X31392857Y-75567524D01*
X31630952Y-75567524D01*
X31726190Y-75519905D01*
X31773809Y-75472286D01*
X31821428Y-75377048D01*
X31821428Y-75186572D01*
X31773809Y-75091334D01*
X31726190Y-75043715D01*
X31630952Y-74996096D01*
%TO.C,R38*%
X59380380Y-86298858D02*
X58904190Y-86632191D01*
X59380380Y-86870286D02*
X58380380Y-86870286D01*
X58380380Y-86489334D01*
X58428000Y-86394096D01*
X58475619Y-86346477D01*
X58570857Y-86298858D01*
X58713714Y-86298858D01*
X58808952Y-86346477D01*
X58856571Y-86394096D01*
X58904190Y-86489334D01*
X58904190Y-86870286D01*
X58380380Y-85965524D02*
X58380380Y-85346477D01*
X58761333Y-85679810D01*
X58761333Y-85536953D01*
X58808952Y-85441715D01*
X58856571Y-85394096D01*
X58951809Y-85346477D01*
X59189904Y-85346477D01*
X59285142Y-85394096D01*
X59332761Y-85441715D01*
X59380380Y-85536953D01*
X59380380Y-85822667D01*
X59332761Y-85917905D01*
X59285142Y-85965524D01*
X58808952Y-84775048D02*
X58761333Y-84870286D01*
X58713714Y-84917905D01*
X58618476Y-84965524D01*
X58570857Y-84965524D01*
X58475619Y-84917905D01*
X58428000Y-84870286D01*
X58380380Y-84775048D01*
X58380380Y-84584572D01*
X58428000Y-84489334D01*
X58475619Y-84441715D01*
X58570857Y-84394096D01*
X58618476Y-84394096D01*
X58713714Y-84441715D01*
X58761333Y-84489334D01*
X58808952Y-84584572D01*
X58808952Y-84775048D01*
X58856571Y-84870286D01*
X58904190Y-84917905D01*
X58999428Y-84965524D01*
X59189904Y-84965524D01*
X59285142Y-84917905D01*
X59332761Y-84870286D01*
X59380380Y-84775048D01*
X59380380Y-84584572D01*
X59332761Y-84489334D01*
X59285142Y-84441715D01*
X59189904Y-84394096D01*
X58999428Y-84394096D01*
X58904190Y-84441715D01*
X58856571Y-84489334D01*
X58808952Y-84584572D01*
%TO.C,R37*%
X55824380Y-86298858D02*
X55348190Y-86632191D01*
X55824380Y-86870286D02*
X54824380Y-86870286D01*
X54824380Y-86489334D01*
X54872000Y-86394096D01*
X54919619Y-86346477D01*
X55014857Y-86298858D01*
X55157714Y-86298858D01*
X55252952Y-86346477D01*
X55300571Y-86394096D01*
X55348190Y-86489334D01*
X55348190Y-86870286D01*
X54824380Y-85965524D02*
X54824380Y-85346477D01*
X55205333Y-85679810D01*
X55205333Y-85536953D01*
X55252952Y-85441715D01*
X55300571Y-85394096D01*
X55395809Y-85346477D01*
X55633904Y-85346477D01*
X55729142Y-85394096D01*
X55776761Y-85441715D01*
X55824380Y-85536953D01*
X55824380Y-85822667D01*
X55776761Y-85917905D01*
X55729142Y-85965524D01*
X54824380Y-85013143D02*
X54824380Y-84346477D01*
X55824380Y-84775048D01*
%TO.C,R36*%
X54046380Y-72074858D02*
X53570190Y-72408191D01*
X54046380Y-72646286D02*
X53046380Y-72646286D01*
X53046380Y-72265334D01*
X53094000Y-72170096D01*
X53141619Y-72122477D01*
X53236857Y-72074858D01*
X53379714Y-72074858D01*
X53474952Y-72122477D01*
X53522571Y-72170096D01*
X53570190Y-72265334D01*
X53570190Y-72646286D01*
X53046380Y-71741524D02*
X53046380Y-71122477D01*
X53427333Y-71455810D01*
X53427333Y-71312953D01*
X53474952Y-71217715D01*
X53522571Y-71170096D01*
X53617809Y-71122477D01*
X53855904Y-71122477D01*
X53951142Y-71170096D01*
X53998761Y-71217715D01*
X54046380Y-71312953D01*
X54046380Y-71598667D01*
X53998761Y-71693905D01*
X53951142Y-71741524D01*
X53046380Y-70265334D02*
X53046380Y-70455810D01*
X53094000Y-70551048D01*
X53141619Y-70598667D01*
X53284476Y-70693905D01*
X53474952Y-70741524D01*
X53855904Y-70741524D01*
X53951142Y-70693905D01*
X53998761Y-70646286D01*
X54046380Y-70551048D01*
X54046380Y-70360572D01*
X53998761Y-70265334D01*
X53951142Y-70217715D01*
X53855904Y-70170096D01*
X53617809Y-70170096D01*
X53522571Y-70217715D01*
X53474952Y-70265334D01*
X53427333Y-70360572D01*
X53427333Y-70551048D01*
X53474952Y-70646286D01*
X53522571Y-70693905D01*
X53617809Y-70741524D01*
%TO.C,R35*%
X65222380Y-70746857D02*
X64746190Y-71080190D01*
X65222380Y-71318285D02*
X64222380Y-71318285D01*
X64222380Y-70937333D01*
X64270000Y-70842095D01*
X64317619Y-70794476D01*
X64412857Y-70746857D01*
X64555714Y-70746857D01*
X64650952Y-70794476D01*
X64698571Y-70842095D01*
X64746190Y-70937333D01*
X64746190Y-71318285D01*
X64222380Y-70413523D02*
X64222380Y-69794476D01*
X64603333Y-70127809D01*
X64603333Y-69984952D01*
X64650952Y-69889714D01*
X64698571Y-69842095D01*
X64793809Y-69794476D01*
X65031904Y-69794476D01*
X65127142Y-69842095D01*
X65174761Y-69889714D01*
X65222380Y-69984952D01*
X65222380Y-70270666D01*
X65174761Y-70365904D01*
X65127142Y-70413523D01*
X64222380Y-68889714D02*
X64222380Y-69365904D01*
X64698571Y-69413523D01*
X64650952Y-69365904D01*
X64603333Y-69270666D01*
X64603333Y-69032571D01*
X64650952Y-68937333D01*
X64698571Y-68889714D01*
X64793809Y-68842095D01*
X65031904Y-68842095D01*
X65127142Y-68889714D01*
X65174761Y-68937333D01*
X65222380Y-69032571D01*
X65222380Y-69270666D01*
X65174761Y-69365904D01*
X65127142Y-69413523D01*
%TO.C,R34*%
X35250380Y-76900858D02*
X34774190Y-77234191D01*
X35250380Y-77472286D02*
X34250380Y-77472286D01*
X34250380Y-77091334D01*
X34298000Y-76996096D01*
X34345619Y-76948477D01*
X34440857Y-76900858D01*
X34583714Y-76900858D01*
X34678952Y-76948477D01*
X34726571Y-76996096D01*
X34774190Y-77091334D01*
X34774190Y-77472286D01*
X34250380Y-76567524D02*
X34250380Y-75948477D01*
X34631333Y-76281810D01*
X34631333Y-76138953D01*
X34678952Y-76043715D01*
X34726571Y-75996096D01*
X34821809Y-75948477D01*
X35059904Y-75948477D01*
X35155142Y-75996096D01*
X35202761Y-76043715D01*
X35250380Y-76138953D01*
X35250380Y-76424667D01*
X35202761Y-76519905D01*
X35155142Y-76567524D01*
X34583714Y-75091334D02*
X35250380Y-75091334D01*
X34202761Y-75329429D02*
X34917047Y-75567524D01*
X34917047Y-74948477D01*
%TO.C,R33*%
X26614380Y-92648858D02*
X26138190Y-92982191D01*
X26614380Y-93220286D02*
X25614380Y-93220286D01*
X25614380Y-92839334D01*
X25662000Y-92744096D01*
X25709619Y-92696477D01*
X25804857Y-92648858D01*
X25947714Y-92648858D01*
X26042952Y-92696477D01*
X26090571Y-92744096D01*
X26138190Y-92839334D01*
X26138190Y-93220286D01*
X25614380Y-92315524D02*
X25614380Y-91696477D01*
X25995333Y-92029810D01*
X25995333Y-91886953D01*
X26042952Y-91791715D01*
X26090571Y-91744096D01*
X26185809Y-91696477D01*
X26423904Y-91696477D01*
X26519142Y-91744096D01*
X26566761Y-91791715D01*
X26614380Y-91886953D01*
X26614380Y-92172667D01*
X26566761Y-92267905D01*
X26519142Y-92315524D01*
X25614380Y-91363143D02*
X25614380Y-90744096D01*
X25995333Y-91077429D01*
X25995333Y-90934572D01*
X26042952Y-90839334D01*
X26090571Y-90791715D01*
X26185809Y-90744096D01*
X26423904Y-90744096D01*
X26519142Y-90791715D01*
X26566761Y-90839334D01*
X26614380Y-90934572D01*
X26614380Y-91220286D01*
X26566761Y-91315524D01*
X26519142Y-91363143D01*
%TO.C,R32*%
X29408380Y-92648858D02*
X28932190Y-92982191D01*
X29408380Y-93220286D02*
X28408380Y-93220286D01*
X28408380Y-92839334D01*
X28456000Y-92744096D01*
X28503619Y-92696477D01*
X28598857Y-92648858D01*
X28741714Y-92648858D01*
X28836952Y-92696477D01*
X28884571Y-92744096D01*
X28932190Y-92839334D01*
X28932190Y-93220286D01*
X28408380Y-92315524D02*
X28408380Y-91696477D01*
X28789333Y-92029810D01*
X28789333Y-91886953D01*
X28836952Y-91791715D01*
X28884571Y-91744096D01*
X28979809Y-91696477D01*
X29217904Y-91696477D01*
X29313142Y-91744096D01*
X29360761Y-91791715D01*
X29408380Y-91886953D01*
X29408380Y-92172667D01*
X29360761Y-92267905D01*
X29313142Y-92315524D01*
X28503619Y-91315524D02*
X28456000Y-91267905D01*
X28408380Y-91172667D01*
X28408380Y-90934572D01*
X28456000Y-90839334D01*
X28503619Y-90791715D01*
X28598857Y-90744096D01*
X28694095Y-90744096D01*
X28836952Y-90791715D01*
X29408380Y-91363143D01*
X29408380Y-90744096D01*
%TO.C,R31*%
X39997142Y-45214381D02*
X39663809Y-44738191D01*
X39425714Y-45214381D02*
X39425714Y-44214381D01*
X39806666Y-44214381D01*
X39901904Y-44262001D01*
X39949523Y-44309620D01*
X39997142Y-44404858D01*
X39997142Y-44547715D01*
X39949523Y-44642953D01*
X39901904Y-44690572D01*
X39806666Y-44738191D01*
X39425714Y-44738191D01*
X40330476Y-44214381D02*
X40949523Y-44214381D01*
X40616190Y-44595334D01*
X40759047Y-44595334D01*
X40854285Y-44642953D01*
X40901904Y-44690572D01*
X40949523Y-44785810D01*
X40949523Y-45023905D01*
X40901904Y-45119143D01*
X40854285Y-45166762D01*
X40759047Y-45214381D01*
X40473333Y-45214381D01*
X40378095Y-45166762D01*
X40330476Y-45119143D01*
X41901904Y-45214381D02*
X41330476Y-45214381D01*
X41616190Y-45214381D02*
X41616190Y-44214381D01*
X41520952Y-44357239D01*
X41425714Y-44452477D01*
X41330476Y-44500096D01*
%TO.C,R30*%
X66921142Y-70868381D02*
X66587809Y-70392191D01*
X66349714Y-70868381D02*
X66349714Y-69868381D01*
X66730666Y-69868381D01*
X66825904Y-69916001D01*
X66873523Y-69963620D01*
X66921142Y-70058858D01*
X66921142Y-70201715D01*
X66873523Y-70296953D01*
X66825904Y-70344572D01*
X66730666Y-70392191D01*
X66349714Y-70392191D01*
X67254476Y-69868381D02*
X67873523Y-69868381D01*
X67540190Y-70249334D01*
X67683047Y-70249334D01*
X67778285Y-70296953D01*
X67825904Y-70344572D01*
X67873523Y-70439810D01*
X67873523Y-70677905D01*
X67825904Y-70773143D01*
X67778285Y-70820762D01*
X67683047Y-70868381D01*
X67397333Y-70868381D01*
X67302095Y-70820762D01*
X67254476Y-70773143D01*
X68492571Y-69868381D02*
X68587809Y-69868381D01*
X68683047Y-69916001D01*
X68730666Y-69963620D01*
X68778285Y-70058858D01*
X68825904Y-70249334D01*
X68825904Y-70487429D01*
X68778285Y-70677905D01*
X68730666Y-70773143D01*
X68683047Y-70820762D01*
X68587809Y-70868381D01*
X68492571Y-70868381D01*
X68397333Y-70820762D01*
X68349714Y-70773143D01*
X68302095Y-70677905D01*
X68254476Y-70487429D01*
X68254476Y-70249334D01*
X68302095Y-70058858D01*
X68349714Y-69963620D01*
X68397333Y-69916001D01*
X68492571Y-69868381D01*
%TO.C,R29*%
X61158380Y-92648858D02*
X60682190Y-92982191D01*
X61158380Y-93220286D02*
X60158380Y-93220286D01*
X60158380Y-92839334D01*
X60206000Y-92744096D01*
X60253619Y-92696477D01*
X60348857Y-92648858D01*
X60491714Y-92648858D01*
X60586952Y-92696477D01*
X60634571Y-92744096D01*
X60682190Y-92839334D01*
X60682190Y-93220286D01*
X60253619Y-92267905D02*
X60206000Y-92220286D01*
X60158380Y-92125048D01*
X60158380Y-91886953D01*
X60206000Y-91791715D01*
X60253619Y-91744096D01*
X60348857Y-91696477D01*
X60444095Y-91696477D01*
X60586952Y-91744096D01*
X61158380Y-92315524D01*
X61158380Y-91696477D01*
X61158380Y-91220286D02*
X61158380Y-91029810D01*
X61110761Y-90934572D01*
X61063142Y-90886953D01*
X60920285Y-90791715D01*
X60729809Y-90744096D01*
X60348857Y-90744096D01*
X60253619Y-90791715D01*
X60206000Y-90839334D01*
X60158380Y-90934572D01*
X60158380Y-91125048D01*
X60206000Y-91220286D01*
X60253619Y-91267905D01*
X60348857Y-91315524D01*
X60586952Y-91315524D01*
X60682190Y-91267905D01*
X60729809Y-91220286D01*
X60777428Y-91125048D01*
X60777428Y-90934572D01*
X60729809Y-90839334D01*
X60682190Y-90791715D01*
X60586952Y-90744096D01*
%TO.C,R28*%
X58110380Y-92648858D02*
X57634190Y-92982191D01*
X58110380Y-93220286D02*
X57110380Y-93220286D01*
X57110380Y-92839334D01*
X57158000Y-92744096D01*
X57205619Y-92696477D01*
X57300857Y-92648858D01*
X57443714Y-92648858D01*
X57538952Y-92696477D01*
X57586571Y-92744096D01*
X57634190Y-92839334D01*
X57634190Y-93220286D01*
X57205619Y-92267905D02*
X57158000Y-92220286D01*
X57110380Y-92125048D01*
X57110380Y-91886953D01*
X57158000Y-91791715D01*
X57205619Y-91744096D01*
X57300857Y-91696477D01*
X57396095Y-91696477D01*
X57538952Y-91744096D01*
X58110380Y-92315524D01*
X58110380Y-91696477D01*
X57538952Y-91125048D02*
X57491333Y-91220286D01*
X57443714Y-91267905D01*
X57348476Y-91315524D01*
X57300857Y-91315524D01*
X57205619Y-91267905D01*
X57158000Y-91220286D01*
X57110380Y-91125048D01*
X57110380Y-90934572D01*
X57158000Y-90839334D01*
X57205619Y-90791715D01*
X57300857Y-90744096D01*
X57348476Y-90744096D01*
X57443714Y-90791715D01*
X57491333Y-90839334D01*
X57538952Y-90934572D01*
X57538952Y-91125048D01*
X57586571Y-91220286D01*
X57634190Y-91267905D01*
X57729428Y-91315524D01*
X57919904Y-91315524D01*
X58015142Y-91267905D01*
X58062761Y-91220286D01*
X58110380Y-91125048D01*
X58110380Y-90934572D01*
X58062761Y-90839334D01*
X58015142Y-90791715D01*
X57919904Y-90744096D01*
X57729428Y-90744096D01*
X57634190Y-90791715D01*
X57586571Y-90839334D01*
X57538952Y-90934572D01*
%TO.C,R27*%
X59634380Y-92648858D02*
X59158190Y-92982191D01*
X59634380Y-93220286D02*
X58634380Y-93220286D01*
X58634380Y-92839334D01*
X58682000Y-92744096D01*
X58729619Y-92696477D01*
X58824857Y-92648858D01*
X58967714Y-92648858D01*
X59062952Y-92696477D01*
X59110571Y-92744096D01*
X59158190Y-92839334D01*
X59158190Y-93220286D01*
X58729619Y-92267905D02*
X58682000Y-92220286D01*
X58634380Y-92125048D01*
X58634380Y-91886953D01*
X58682000Y-91791715D01*
X58729619Y-91744096D01*
X58824857Y-91696477D01*
X58920095Y-91696477D01*
X59062952Y-91744096D01*
X59634380Y-92315524D01*
X59634380Y-91696477D01*
X58634380Y-91363143D02*
X58634380Y-90696477D01*
X59634380Y-91125048D01*
%TO.C,R26*%
X66921142Y-76710381D02*
X66587809Y-76234191D01*
X66349714Y-76710381D02*
X66349714Y-75710381D01*
X66730666Y-75710381D01*
X66825904Y-75758001D01*
X66873523Y-75805620D01*
X66921142Y-75900858D01*
X66921142Y-76043715D01*
X66873523Y-76138953D01*
X66825904Y-76186572D01*
X66730666Y-76234191D01*
X66349714Y-76234191D01*
X67302095Y-75805620D02*
X67349714Y-75758001D01*
X67444952Y-75710381D01*
X67683047Y-75710381D01*
X67778285Y-75758001D01*
X67825904Y-75805620D01*
X67873523Y-75900858D01*
X67873523Y-75996096D01*
X67825904Y-76138953D01*
X67254476Y-76710381D01*
X67873523Y-76710381D01*
X68730666Y-75710381D02*
X68540190Y-75710381D01*
X68444952Y-75758001D01*
X68397333Y-75805620D01*
X68302095Y-75948477D01*
X68254476Y-76138953D01*
X68254476Y-76519905D01*
X68302095Y-76615143D01*
X68349714Y-76662762D01*
X68444952Y-76710381D01*
X68635428Y-76710381D01*
X68730666Y-76662762D01*
X68778285Y-76615143D01*
X68825904Y-76519905D01*
X68825904Y-76281810D01*
X68778285Y-76186572D01*
X68730666Y-76138953D01*
X68635428Y-76091334D01*
X68444952Y-76091334D01*
X68349714Y-76138953D01*
X68302095Y-76186572D01*
X68254476Y-76281810D01*
%TO.C,JP4*%
X55078380Y-92839334D02*
X55792666Y-92839334D01*
X55935523Y-92886953D01*
X56030761Y-92982191D01*
X56078380Y-93125048D01*
X56078380Y-93220286D01*
X56078380Y-92363143D02*
X55078380Y-92363143D01*
X55078380Y-91982191D01*
X55126000Y-91886953D01*
X55173619Y-91839334D01*
X55268857Y-91791715D01*
X55411714Y-91791715D01*
X55506952Y-91839334D01*
X55554571Y-91886953D01*
X55602190Y-91982191D01*
X55602190Y-92363143D01*
X55411714Y-90934572D02*
X56078380Y-90934572D01*
X55030761Y-91172667D02*
X55745047Y-91410762D01*
X55745047Y-90791715D01*
%TO.C,JP3*%
X53554380Y-92839334D02*
X54268666Y-92839334D01*
X54411523Y-92886953D01*
X54506761Y-92982191D01*
X54554380Y-93125048D01*
X54554380Y-93220286D01*
X54554380Y-92363143D02*
X53554380Y-92363143D01*
X53554380Y-91982191D01*
X53602000Y-91886953D01*
X53649619Y-91839334D01*
X53744857Y-91791715D01*
X53887714Y-91791715D01*
X53982952Y-91839334D01*
X54030571Y-91886953D01*
X54078190Y-91982191D01*
X54078190Y-92363143D01*
X53554380Y-91458381D02*
X53554380Y-90839334D01*
X53935333Y-91172667D01*
X53935333Y-91029810D01*
X53982952Y-90934572D01*
X54030571Y-90886953D01*
X54125809Y-90839334D01*
X54363904Y-90839334D01*
X54459142Y-90886953D01*
X54506761Y-90934572D01*
X54554380Y-91029810D01*
X54554380Y-91315524D01*
X54506761Y-91410762D01*
X54459142Y-91458381D01*
%TO.C,JP2*%
X52030380Y-92839334D02*
X52744666Y-92839334D01*
X52887523Y-92886953D01*
X52982761Y-92982191D01*
X53030380Y-93125048D01*
X53030380Y-93220286D01*
X53030380Y-92363143D02*
X52030380Y-92363143D01*
X52030380Y-91982191D01*
X52078000Y-91886953D01*
X52125619Y-91839334D01*
X52220857Y-91791715D01*
X52363714Y-91791715D01*
X52458952Y-91839334D01*
X52506571Y-91886953D01*
X52554190Y-91982191D01*
X52554190Y-92363143D01*
X52125619Y-91410762D02*
X52078000Y-91363143D01*
X52030380Y-91267905D01*
X52030380Y-91029810D01*
X52078000Y-90934572D01*
X52125619Y-90886953D01*
X52220857Y-90839334D01*
X52316095Y-90839334D01*
X52458952Y-90886953D01*
X53030380Y-91458381D01*
X53030380Y-90839334D01*
%TO.C,JP1*%
X50506380Y-92839334D02*
X51220666Y-92839334D01*
X51363523Y-92886953D01*
X51458761Y-92982191D01*
X51506380Y-93125048D01*
X51506380Y-93220286D01*
X51506380Y-92363143D02*
X50506380Y-92363143D01*
X50506380Y-91982191D01*
X50554000Y-91886953D01*
X50601619Y-91839334D01*
X50696857Y-91791715D01*
X50839714Y-91791715D01*
X50934952Y-91839334D01*
X50982571Y-91886953D01*
X51030190Y-91982191D01*
X51030190Y-92363143D01*
X51506380Y-90839334D02*
X51506380Y-91410762D01*
X51506380Y-91125048D02*
X50506380Y-91125048D01*
X50649238Y-91220286D01*
X50744476Y-91315524D01*
X50792095Y-91410762D01*
%TO.C,R25*%
X73017142Y-41150381D02*
X72683809Y-40674191D01*
X72445714Y-41150381D02*
X72445714Y-40150381D01*
X72826666Y-40150381D01*
X72921904Y-40198001D01*
X72969523Y-40245620D01*
X73017142Y-40340858D01*
X73017142Y-40483715D01*
X72969523Y-40578953D01*
X72921904Y-40626572D01*
X72826666Y-40674191D01*
X72445714Y-40674191D01*
X73398095Y-40245620D02*
X73445714Y-40198001D01*
X73540952Y-40150381D01*
X73779047Y-40150381D01*
X73874285Y-40198001D01*
X73921904Y-40245620D01*
X73969523Y-40340858D01*
X73969523Y-40436096D01*
X73921904Y-40578953D01*
X73350476Y-41150381D01*
X73969523Y-41150381D01*
X74874285Y-40150381D02*
X74398095Y-40150381D01*
X74350476Y-40626572D01*
X74398095Y-40578953D01*
X74493333Y-40531334D01*
X74731428Y-40531334D01*
X74826666Y-40578953D01*
X74874285Y-40626572D01*
X74921904Y-40721810D01*
X74921904Y-40959905D01*
X74874285Y-41055143D01*
X74826666Y-41102762D01*
X74731428Y-41150381D01*
X74493333Y-41150381D01*
X74398095Y-41102762D01*
X74350476Y-41055143D01*
%TO.C,R23*%
X73017142Y-50802381D02*
X72683809Y-50326191D01*
X72445714Y-50802381D02*
X72445714Y-49802381D01*
X72826666Y-49802381D01*
X72921904Y-49850001D01*
X72969523Y-49897620D01*
X73017142Y-49992858D01*
X73017142Y-50135715D01*
X72969523Y-50230953D01*
X72921904Y-50278572D01*
X72826666Y-50326191D01*
X72445714Y-50326191D01*
X73398095Y-49897620D02*
X73445714Y-49850001D01*
X73540952Y-49802381D01*
X73779047Y-49802381D01*
X73874285Y-49850001D01*
X73921904Y-49897620D01*
X73969523Y-49992858D01*
X73969523Y-50088096D01*
X73921904Y-50230953D01*
X73350476Y-50802381D01*
X73969523Y-50802381D01*
X74302857Y-49802381D02*
X74921904Y-49802381D01*
X74588571Y-50183334D01*
X74731428Y-50183334D01*
X74826666Y-50230953D01*
X74874285Y-50278572D01*
X74921904Y-50373810D01*
X74921904Y-50611905D01*
X74874285Y-50707143D01*
X74826666Y-50754762D01*
X74731428Y-50802381D01*
X74445714Y-50802381D01*
X74350476Y-50754762D01*
X74302857Y-50707143D01*
%TO.C,R22*%
X73017142Y-39626381D02*
X72683809Y-39150191D01*
X72445714Y-39626381D02*
X72445714Y-38626381D01*
X72826666Y-38626381D01*
X72921904Y-38674001D01*
X72969523Y-38721620D01*
X73017142Y-38816858D01*
X73017142Y-38959715D01*
X72969523Y-39054953D01*
X72921904Y-39102572D01*
X72826666Y-39150191D01*
X72445714Y-39150191D01*
X73398095Y-38721620D02*
X73445714Y-38674001D01*
X73540952Y-38626381D01*
X73779047Y-38626381D01*
X73874285Y-38674001D01*
X73921904Y-38721620D01*
X73969523Y-38816858D01*
X73969523Y-38912096D01*
X73921904Y-39054953D01*
X73350476Y-39626381D01*
X73969523Y-39626381D01*
X74350476Y-38721620D02*
X74398095Y-38674001D01*
X74493333Y-38626381D01*
X74731428Y-38626381D01*
X74826666Y-38674001D01*
X74874285Y-38721620D01*
X74921904Y-38816858D01*
X74921904Y-38912096D01*
X74874285Y-39054953D01*
X74302857Y-39626381D01*
X74921904Y-39626381D01*
%TO.C,R21*%
X76319142Y-36266380D02*
X75985809Y-35790190D01*
X75747714Y-36266380D02*
X75747714Y-35266380D01*
X76128666Y-35266380D01*
X76223904Y-35314000D01*
X76271523Y-35361619D01*
X76319142Y-35456857D01*
X76319142Y-35599714D01*
X76271523Y-35694952D01*
X76223904Y-35742571D01*
X76128666Y-35790190D01*
X75747714Y-35790190D01*
X76700095Y-35361619D02*
X76747714Y-35314000D01*
X76842952Y-35266380D01*
X77081047Y-35266380D01*
X77176285Y-35314000D01*
X77223904Y-35361619D01*
X77271523Y-35456857D01*
X77271523Y-35552095D01*
X77223904Y-35694952D01*
X76652476Y-36266380D01*
X77271523Y-36266380D01*
X78223904Y-36266380D02*
X77652476Y-36266380D01*
X77938190Y-36266380D02*
X77938190Y-35266380D01*
X77842952Y-35409238D01*
X77747714Y-35504476D01*
X77652476Y-35552095D01*
%TO.C,R20*%
X73017142Y-54358381D02*
X72683809Y-53882191D01*
X72445714Y-54358381D02*
X72445714Y-53358381D01*
X72826666Y-53358381D01*
X72921904Y-53406001D01*
X72969523Y-53453620D01*
X73017142Y-53548858D01*
X73017142Y-53691715D01*
X72969523Y-53786953D01*
X72921904Y-53834572D01*
X72826666Y-53882191D01*
X72445714Y-53882191D01*
X73398095Y-53453620D02*
X73445714Y-53406001D01*
X73540952Y-53358381D01*
X73779047Y-53358381D01*
X73874285Y-53406001D01*
X73921904Y-53453620D01*
X73969523Y-53548858D01*
X73969523Y-53644096D01*
X73921904Y-53786953D01*
X73350476Y-54358381D01*
X73969523Y-54358381D01*
X74588571Y-53358381D02*
X74683809Y-53358381D01*
X74779047Y-53406001D01*
X74826666Y-53453620D01*
X74874285Y-53548858D01*
X74921904Y-53739334D01*
X74921904Y-53977429D01*
X74874285Y-54167905D01*
X74826666Y-54263143D01*
X74779047Y-54310762D01*
X74683809Y-54358381D01*
X74588571Y-54358381D01*
X74493333Y-54310762D01*
X74445714Y-54263143D01*
X74398095Y-54167905D01*
X74350476Y-53977429D01*
X74350476Y-53739334D01*
X74398095Y-53548858D01*
X74445714Y-53453620D01*
X74493333Y-53406001D01*
X74588571Y-53358381D01*
%TO.C,R19*%
X73017142Y-49278381D02*
X72683809Y-48802191D01*
X72445714Y-49278381D02*
X72445714Y-48278381D01*
X72826666Y-48278381D01*
X72921904Y-48326001D01*
X72969523Y-48373620D01*
X73017142Y-48468858D01*
X73017142Y-48611715D01*
X72969523Y-48706953D01*
X72921904Y-48754572D01*
X72826666Y-48802191D01*
X72445714Y-48802191D01*
X73969523Y-49278381D02*
X73398095Y-49278381D01*
X73683809Y-49278381D02*
X73683809Y-48278381D01*
X73588571Y-48421239D01*
X73493333Y-48516477D01*
X73398095Y-48564096D01*
X74445714Y-49278381D02*
X74636190Y-49278381D01*
X74731428Y-49230762D01*
X74779047Y-49183143D01*
X74874285Y-49040286D01*
X74921904Y-48849810D01*
X74921904Y-48468858D01*
X74874285Y-48373620D01*
X74826666Y-48326001D01*
X74731428Y-48278381D01*
X74540952Y-48278381D01*
X74445714Y-48326001D01*
X74398095Y-48373620D01*
X74350476Y-48468858D01*
X74350476Y-48706953D01*
X74398095Y-48802191D01*
X74445714Y-48849810D01*
X74540952Y-48897429D01*
X74731428Y-48897429D01*
X74826666Y-48849810D01*
X74874285Y-48802191D01*
X74921904Y-48706953D01*
%TO.C,R18*%
X65143142Y-53088381D02*
X64809809Y-52612191D01*
X64571714Y-53088381D02*
X64571714Y-52088381D01*
X64952666Y-52088381D01*
X65047904Y-52136001D01*
X65095523Y-52183620D01*
X65143142Y-52278858D01*
X65143142Y-52421715D01*
X65095523Y-52516953D01*
X65047904Y-52564572D01*
X64952666Y-52612191D01*
X64571714Y-52612191D01*
X66095523Y-53088381D02*
X65524095Y-53088381D01*
X65809809Y-53088381D02*
X65809809Y-52088381D01*
X65714571Y-52231239D01*
X65619333Y-52326477D01*
X65524095Y-52374096D01*
X66666952Y-52516953D02*
X66571714Y-52469334D01*
X66524095Y-52421715D01*
X66476476Y-52326477D01*
X66476476Y-52278858D01*
X66524095Y-52183620D01*
X66571714Y-52136001D01*
X66666952Y-52088381D01*
X66857428Y-52088381D01*
X66952666Y-52136001D01*
X67000285Y-52183620D01*
X67047904Y-52278858D01*
X67047904Y-52326477D01*
X67000285Y-52421715D01*
X66952666Y-52469334D01*
X66857428Y-52516953D01*
X66666952Y-52516953D01*
X66571714Y-52564572D01*
X66524095Y-52612191D01*
X66476476Y-52707429D01*
X66476476Y-52897905D01*
X66524095Y-52993143D01*
X66571714Y-53040762D01*
X66666952Y-53088381D01*
X66857428Y-53088381D01*
X66952666Y-53040762D01*
X67000285Y-52993143D01*
X67047904Y-52897905D01*
X67047904Y-52707429D01*
X67000285Y-52612191D01*
X66952666Y-52564572D01*
X66857428Y-52516953D01*
%TO.C,R17*%
X73017142Y-56390381D02*
X72683809Y-55914191D01*
X72445714Y-56390381D02*
X72445714Y-55390381D01*
X72826666Y-55390381D01*
X72921904Y-55438001D01*
X72969523Y-55485620D01*
X73017142Y-55580858D01*
X73017142Y-55723715D01*
X72969523Y-55818953D01*
X72921904Y-55866572D01*
X72826666Y-55914191D01*
X72445714Y-55914191D01*
X73969523Y-56390381D02*
X73398095Y-56390381D01*
X73683809Y-56390381D02*
X73683809Y-55390381D01*
X73588571Y-55533239D01*
X73493333Y-55628477D01*
X73398095Y-55676096D01*
X74302857Y-55390381D02*
X74969523Y-55390381D01*
X74540952Y-56390381D01*
%TO.C,R16*%
X73017142Y-66804381D02*
X72683809Y-66328191D01*
X72445714Y-66804381D02*
X72445714Y-65804381D01*
X72826666Y-65804381D01*
X72921904Y-65852001D01*
X72969523Y-65899620D01*
X73017142Y-65994858D01*
X73017142Y-66137715D01*
X72969523Y-66232953D01*
X72921904Y-66280572D01*
X72826666Y-66328191D01*
X72445714Y-66328191D01*
X73969523Y-66804381D02*
X73398095Y-66804381D01*
X73683809Y-66804381D02*
X73683809Y-65804381D01*
X73588571Y-65947239D01*
X73493333Y-66042477D01*
X73398095Y-66090096D01*
X74826666Y-65804381D02*
X74636190Y-65804381D01*
X74540952Y-65852001D01*
X74493333Y-65899620D01*
X74398095Y-66042477D01*
X74350476Y-66232953D01*
X74350476Y-66613905D01*
X74398095Y-66709143D01*
X74445714Y-66756762D01*
X74540952Y-66804381D01*
X74731428Y-66804381D01*
X74826666Y-66756762D01*
X74874285Y-66709143D01*
X74921904Y-66613905D01*
X74921904Y-66375810D01*
X74874285Y-66280572D01*
X74826666Y-66232953D01*
X74731428Y-66185334D01*
X74540952Y-66185334D01*
X74445714Y-66232953D01*
X74398095Y-66280572D01*
X74350476Y-66375810D01*
%TO.C,R15*%
X73017142Y-58168381D02*
X72683809Y-57692191D01*
X72445714Y-58168381D02*
X72445714Y-57168381D01*
X72826666Y-57168381D01*
X72921904Y-57216001D01*
X72969523Y-57263620D01*
X73017142Y-57358858D01*
X73017142Y-57501715D01*
X72969523Y-57596953D01*
X72921904Y-57644572D01*
X72826666Y-57692191D01*
X72445714Y-57692191D01*
X73969523Y-58168381D02*
X73398095Y-58168381D01*
X73683809Y-58168381D02*
X73683809Y-57168381D01*
X73588571Y-57311239D01*
X73493333Y-57406477D01*
X73398095Y-57454096D01*
X74874285Y-57168381D02*
X74398095Y-57168381D01*
X74350476Y-57644572D01*
X74398095Y-57596953D01*
X74493333Y-57549334D01*
X74731428Y-57549334D01*
X74826666Y-57596953D01*
X74874285Y-57644572D01*
X74921904Y-57739810D01*
X74921904Y-57977905D01*
X74874285Y-58073143D01*
X74826666Y-58120762D01*
X74731428Y-58168381D01*
X74493333Y-58168381D01*
X74398095Y-58120762D01*
X74350476Y-58073143D01*
%TO.C,R14*%
X66921142Y-65788381D02*
X66587809Y-65312191D01*
X66349714Y-65788381D02*
X66349714Y-64788381D01*
X66730666Y-64788381D01*
X66825904Y-64836001D01*
X66873523Y-64883620D01*
X66921142Y-64978858D01*
X66921142Y-65121715D01*
X66873523Y-65216953D01*
X66825904Y-65264572D01*
X66730666Y-65312191D01*
X66349714Y-65312191D01*
X67873523Y-65788381D02*
X67302095Y-65788381D01*
X67587809Y-65788381D02*
X67587809Y-64788381D01*
X67492571Y-64931239D01*
X67397333Y-65026477D01*
X67302095Y-65074096D01*
X68730666Y-65121715D02*
X68730666Y-65788381D01*
X68492571Y-64740762D02*
X68254476Y-65455048D01*
X68873523Y-65455048D01*
%TO.C,R13*%
X66793142Y-67468381D02*
X66459809Y-66992191D01*
X66221714Y-67468381D02*
X66221714Y-66468381D01*
X66602666Y-66468381D01*
X66697904Y-66516001D01*
X66745523Y-66563620D01*
X66793142Y-66658858D01*
X66793142Y-66801715D01*
X66745523Y-66896953D01*
X66697904Y-66944572D01*
X66602666Y-66992191D01*
X66221714Y-66992191D01*
X67745523Y-67468381D02*
X67174095Y-67468381D01*
X67459809Y-67468381D02*
X67459809Y-66468381D01*
X67364571Y-66611239D01*
X67269333Y-66706477D01*
X67174095Y-66754096D01*
X68078857Y-66468381D02*
X68697904Y-66468381D01*
X68364571Y-66849334D01*
X68507428Y-66849334D01*
X68602666Y-66896953D01*
X68650285Y-66944572D01*
X68697904Y-67039810D01*
X68697904Y-67277905D01*
X68650285Y-67373143D01*
X68602666Y-67420762D01*
X68507428Y-67468381D01*
X68221714Y-67468381D01*
X68126476Y-67420762D01*
X68078857Y-67373143D01*
%TO.C,R12*%
X73017142Y-59980381D02*
X72683809Y-59504191D01*
X72445714Y-59980381D02*
X72445714Y-58980381D01*
X72826666Y-58980381D01*
X72921904Y-59028001D01*
X72969523Y-59075620D01*
X73017142Y-59170858D01*
X73017142Y-59313715D01*
X72969523Y-59408953D01*
X72921904Y-59456572D01*
X72826666Y-59504191D01*
X72445714Y-59504191D01*
X73969523Y-59980381D02*
X73398095Y-59980381D01*
X73683809Y-59980381D02*
X73683809Y-58980381D01*
X73588571Y-59123239D01*
X73493333Y-59218477D01*
X73398095Y-59266096D01*
X74350476Y-59075620D02*
X74398095Y-59028001D01*
X74493333Y-58980381D01*
X74731428Y-58980381D01*
X74826666Y-59028001D01*
X74874285Y-59075620D01*
X74921904Y-59170858D01*
X74921904Y-59266096D01*
X74874285Y-59408953D01*
X74302857Y-59980381D01*
X74921904Y-59980381D01*
%TO.C,R11*%
X50411142Y-56644381D02*
X50077809Y-56168191D01*
X49839714Y-56644381D02*
X49839714Y-55644381D01*
X50220666Y-55644381D01*
X50315904Y-55692001D01*
X50363523Y-55739620D01*
X50411142Y-55834858D01*
X50411142Y-55977715D01*
X50363523Y-56072953D01*
X50315904Y-56120572D01*
X50220666Y-56168191D01*
X49839714Y-56168191D01*
X51363523Y-56644381D02*
X50792095Y-56644381D01*
X51077809Y-56644381D02*
X51077809Y-55644381D01*
X50982571Y-55787239D01*
X50887333Y-55882477D01*
X50792095Y-55930096D01*
X52315904Y-56644381D02*
X51744476Y-56644381D01*
X52030190Y-56644381D02*
X52030190Y-55644381D01*
X51934952Y-55787239D01*
X51839714Y-55882477D01*
X51744476Y-55930096D01*
%TO.C,R10*%
X50411142Y-59946381D02*
X50077809Y-59470191D01*
X49839714Y-59946381D02*
X49839714Y-58946381D01*
X50220666Y-58946381D01*
X50315904Y-58994001D01*
X50363523Y-59041620D01*
X50411142Y-59136858D01*
X50411142Y-59279715D01*
X50363523Y-59374953D01*
X50315904Y-59422572D01*
X50220666Y-59470191D01*
X49839714Y-59470191D01*
X51363523Y-59946381D02*
X50792095Y-59946381D01*
X51077809Y-59946381D02*
X51077809Y-58946381D01*
X50982571Y-59089239D01*
X50887333Y-59184477D01*
X50792095Y-59232096D01*
X51982571Y-58946381D02*
X52077809Y-58946381D01*
X52173047Y-58994001D01*
X52220666Y-59041620D01*
X52268285Y-59136858D01*
X52315904Y-59327334D01*
X52315904Y-59565429D01*
X52268285Y-59755905D01*
X52220666Y-59851143D01*
X52173047Y-59898762D01*
X52077809Y-59946381D01*
X51982571Y-59946381D01*
X51887333Y-59898762D01*
X51839714Y-59851143D01*
X51792095Y-59755905D01*
X51744476Y-59565429D01*
X51744476Y-59327334D01*
X51792095Y-59136858D01*
X51839714Y-59041620D01*
X51887333Y-58994001D01*
X51982571Y-58946381D01*
%TO.C,R9*%
X46061333Y-51310381D02*
X45728000Y-50834191D01*
X45489904Y-51310381D02*
X45489904Y-50310381D01*
X45870857Y-50310381D01*
X45966095Y-50358001D01*
X46013714Y-50405620D01*
X46061333Y-50500858D01*
X46061333Y-50643715D01*
X46013714Y-50738953D01*
X45966095Y-50786572D01*
X45870857Y-50834191D01*
X45489904Y-50834191D01*
X46537523Y-51310381D02*
X46728000Y-51310381D01*
X46823238Y-51262762D01*
X46870857Y-51215143D01*
X46966095Y-51072286D01*
X47013714Y-50881810D01*
X47013714Y-50500858D01*
X46966095Y-50405620D01*
X46918476Y-50358001D01*
X46823238Y-50310381D01*
X46632761Y-50310381D01*
X46537523Y-50358001D01*
X46489904Y-50405620D01*
X46442285Y-50500858D01*
X46442285Y-50738953D01*
X46489904Y-50834191D01*
X46537523Y-50881810D01*
X46632761Y-50929429D01*
X46823238Y-50929429D01*
X46918476Y-50881810D01*
X46966095Y-50834191D01*
X47013714Y-50738953D01*
%TO.C,R8*%
X46061333Y-58930381D02*
X45728000Y-58454191D01*
X45489904Y-58930381D02*
X45489904Y-57930381D01*
X45870857Y-57930381D01*
X45966095Y-57978001D01*
X46013714Y-58025620D01*
X46061333Y-58120858D01*
X46061333Y-58263715D01*
X46013714Y-58358953D01*
X45966095Y-58406572D01*
X45870857Y-58454191D01*
X45489904Y-58454191D01*
X46632761Y-58358953D02*
X46537523Y-58311334D01*
X46489904Y-58263715D01*
X46442285Y-58168477D01*
X46442285Y-58120858D01*
X46489904Y-58025620D01*
X46537523Y-57978001D01*
X46632761Y-57930381D01*
X46823238Y-57930381D01*
X46918476Y-57978001D01*
X46966095Y-58025620D01*
X47013714Y-58120858D01*
X47013714Y-58168477D01*
X46966095Y-58263715D01*
X46918476Y-58311334D01*
X46823238Y-58358953D01*
X46632761Y-58358953D01*
X46537523Y-58406572D01*
X46489904Y-58454191D01*
X46442285Y-58549429D01*
X46442285Y-58739905D01*
X46489904Y-58835143D01*
X46537523Y-58882762D01*
X46632761Y-58930381D01*
X46823238Y-58930381D01*
X46918476Y-58882762D01*
X46966095Y-58835143D01*
X47013714Y-58739905D01*
X47013714Y-58549429D01*
X46966095Y-58454191D01*
X46918476Y-58406572D01*
X46823238Y-58358953D01*
%TO.C,R7*%
X46061333Y-57406381D02*
X45728000Y-56930191D01*
X45489904Y-57406381D02*
X45489904Y-56406381D01*
X45870857Y-56406381D01*
X45966095Y-56454001D01*
X46013714Y-56501620D01*
X46061333Y-56596858D01*
X46061333Y-56739715D01*
X46013714Y-56834953D01*
X45966095Y-56882572D01*
X45870857Y-56930191D01*
X45489904Y-56930191D01*
X46394666Y-56406381D02*
X47061333Y-56406381D01*
X46632761Y-57406381D01*
%TO.C,R6*%
X46061333Y-55882381D02*
X45728000Y-55406191D01*
X45489904Y-55882381D02*
X45489904Y-54882381D01*
X45870857Y-54882381D01*
X45966095Y-54930001D01*
X46013714Y-54977620D01*
X46061333Y-55072858D01*
X46061333Y-55215715D01*
X46013714Y-55310953D01*
X45966095Y-55358572D01*
X45870857Y-55406191D01*
X45489904Y-55406191D01*
X46918476Y-54882381D02*
X46728000Y-54882381D01*
X46632761Y-54930001D01*
X46585142Y-54977620D01*
X46489904Y-55120477D01*
X46442285Y-55310953D01*
X46442285Y-55691905D01*
X46489904Y-55787143D01*
X46537523Y-55834762D01*
X46632761Y-55882381D01*
X46823238Y-55882381D01*
X46918476Y-55834762D01*
X46966095Y-55787143D01*
X47013714Y-55691905D01*
X47013714Y-55453810D01*
X46966095Y-55358572D01*
X46918476Y-55310953D01*
X46823238Y-55263334D01*
X46632761Y-55263334D01*
X46537523Y-55310953D01*
X46489904Y-55358572D01*
X46442285Y-55453810D01*
%TO.C,R5*%
X46061333Y-54358381D02*
X45728000Y-53882191D01*
X45489904Y-54358381D02*
X45489904Y-53358381D01*
X45870857Y-53358381D01*
X45966095Y-53406001D01*
X46013714Y-53453620D01*
X46061333Y-53548858D01*
X46061333Y-53691715D01*
X46013714Y-53786953D01*
X45966095Y-53834572D01*
X45870857Y-53882191D01*
X45489904Y-53882191D01*
X46966095Y-53358381D02*
X46489904Y-53358381D01*
X46442285Y-53834572D01*
X46489904Y-53786953D01*
X46585142Y-53739334D01*
X46823238Y-53739334D01*
X46918476Y-53786953D01*
X46966095Y-53834572D01*
X47013714Y-53929810D01*
X47013714Y-54167905D01*
X46966095Y-54263143D01*
X46918476Y-54310762D01*
X46823238Y-54358381D01*
X46585142Y-54358381D01*
X46489904Y-54310762D01*
X46442285Y-54263143D01*
%TO.C,R4*%
X46061333Y-52834381D02*
X45728000Y-52358191D01*
X45489904Y-52834381D02*
X45489904Y-51834381D01*
X45870857Y-51834381D01*
X45966095Y-51882001D01*
X46013714Y-51929620D01*
X46061333Y-52024858D01*
X46061333Y-52167715D01*
X46013714Y-52262953D01*
X45966095Y-52310572D01*
X45870857Y-52358191D01*
X45489904Y-52358191D01*
X46918476Y-52167715D02*
X46918476Y-52834381D01*
X46680380Y-51786762D02*
X46442285Y-52501048D01*
X47061333Y-52501048D01*
%TO.C,R3*%
X40981333Y-46738381D02*
X40648000Y-46262191D01*
X40409904Y-46738381D02*
X40409904Y-45738381D01*
X40790857Y-45738381D01*
X40886095Y-45786001D01*
X40933714Y-45833620D01*
X40981333Y-45928858D01*
X40981333Y-46071715D01*
X40933714Y-46166953D01*
X40886095Y-46214572D01*
X40790857Y-46262191D01*
X40409904Y-46262191D01*
X41314666Y-45738381D02*
X41933714Y-45738381D01*
X41600380Y-46119334D01*
X41743238Y-46119334D01*
X41838476Y-46166953D01*
X41886095Y-46214572D01*
X41933714Y-46309810D01*
X41933714Y-46547905D01*
X41886095Y-46643143D01*
X41838476Y-46690762D01*
X41743238Y-46738381D01*
X41457523Y-46738381D01*
X41362285Y-46690762D01*
X41314666Y-46643143D01*
%TO.C,R2*%
X40981333Y-49786381D02*
X40648000Y-49310191D01*
X40409904Y-49786381D02*
X40409904Y-48786381D01*
X40790857Y-48786381D01*
X40886095Y-48834001D01*
X40933714Y-48881620D01*
X40981333Y-48976858D01*
X40981333Y-49119715D01*
X40933714Y-49214953D01*
X40886095Y-49262572D01*
X40790857Y-49310191D01*
X40409904Y-49310191D01*
X41362285Y-48881620D02*
X41409904Y-48834001D01*
X41505142Y-48786381D01*
X41743238Y-48786381D01*
X41838476Y-48834001D01*
X41886095Y-48881620D01*
X41933714Y-48976858D01*
X41933714Y-49072096D01*
X41886095Y-49214953D01*
X41314666Y-49786381D01*
X41933714Y-49786381D01*
%TO.C,R1*%
X40981333Y-48262381D02*
X40648000Y-47786191D01*
X40409904Y-48262381D02*
X40409904Y-47262381D01*
X40790857Y-47262381D01*
X40886095Y-47310001D01*
X40933714Y-47357620D01*
X40981333Y-47452858D01*
X40981333Y-47595715D01*
X40933714Y-47690953D01*
X40886095Y-47738572D01*
X40790857Y-47786191D01*
X40409904Y-47786191D01*
X41933714Y-48262381D02*
X41362285Y-48262381D01*
X41648000Y-48262381D02*
X41648000Y-47262381D01*
X41552761Y-47405239D01*
X41457523Y-47500477D01*
X41362285Y-47548096D01*
%TO.C,L1*%
X48093333Y-84330381D02*
X47617142Y-84330381D01*
X47617142Y-83330381D01*
X48950476Y-84330381D02*
X48379047Y-84330381D01*
X48664761Y-84330381D02*
X48664761Y-83330381D01*
X48569523Y-83473239D01*
X48474285Y-83568477D01*
X48379047Y-83616096D01*
%TO.C,J2*%
X37258666Y-48474380D02*
X37258666Y-49188666D01*
X37211047Y-49331523D01*
X37115809Y-49426761D01*
X36972952Y-49474380D01*
X36877714Y-49474380D01*
X37687238Y-48569619D02*
X37734857Y-48522000D01*
X37830095Y-48474380D01*
X38068190Y-48474380D01*
X38163428Y-48522000D01*
X38211047Y-48569619D01*
X38258666Y-48664857D01*
X38258666Y-48760095D01*
X38211047Y-48902952D01*
X37639619Y-49474380D01*
X38258666Y-49474380D01*
%TO.C,FB2*%
X72826666Y-42150572D02*
X72493333Y-42150572D01*
X72493333Y-42674381D02*
X72493333Y-41674381D01*
X72969523Y-41674381D01*
X73683809Y-42150572D02*
X73826666Y-42198191D01*
X73874285Y-42245810D01*
X73921904Y-42341048D01*
X73921904Y-42483905D01*
X73874285Y-42579143D01*
X73826666Y-42626762D01*
X73731428Y-42674381D01*
X73350476Y-42674381D01*
X73350476Y-41674381D01*
X73683809Y-41674381D01*
X73779047Y-41722001D01*
X73826666Y-41769620D01*
X73874285Y-41864858D01*
X73874285Y-41960096D01*
X73826666Y-42055334D01*
X73779047Y-42102953D01*
X73683809Y-42150572D01*
X73350476Y-42150572D01*
X74302857Y-41769620D02*
X74350476Y-41722001D01*
X74445714Y-41674381D01*
X74683809Y-41674381D01*
X74779047Y-41722001D01*
X74826666Y-41769620D01*
X74874285Y-41864858D01*
X74874285Y-41960096D01*
X74826666Y-42102953D01*
X74255238Y-42674381D01*
X74874285Y-42674381D01*
%TO.C,FB1*%
X72826666Y-43674572D02*
X72493333Y-43674572D01*
X72493333Y-44198381D02*
X72493333Y-43198381D01*
X72969523Y-43198381D01*
X73683809Y-43674572D02*
X73826666Y-43722191D01*
X73874285Y-43769810D01*
X73921904Y-43865048D01*
X73921904Y-44007905D01*
X73874285Y-44103143D01*
X73826666Y-44150762D01*
X73731428Y-44198381D01*
X73350476Y-44198381D01*
X73350476Y-43198381D01*
X73683809Y-43198381D01*
X73779047Y-43246001D01*
X73826666Y-43293620D01*
X73874285Y-43388858D01*
X73874285Y-43484096D01*
X73826666Y-43579334D01*
X73779047Y-43626953D01*
X73683809Y-43674572D01*
X73350476Y-43674572D01*
X74874285Y-44198381D02*
X74302857Y-44198381D01*
X74588571Y-44198381D02*
X74588571Y-43198381D01*
X74493333Y-43341239D01*
X74398095Y-43436477D01*
X74302857Y-43484096D01*
%TO.C,D11*%
X40838380Y-93474286D02*
X39838380Y-93474286D01*
X39838380Y-93236191D01*
X39886000Y-93093334D01*
X39981238Y-92998096D01*
X40076476Y-92950477D01*
X40266952Y-92902858D01*
X40409809Y-92902858D01*
X40600285Y-92950477D01*
X40695523Y-92998096D01*
X40790761Y-93093334D01*
X40838380Y-93236191D01*
X40838380Y-93474286D01*
X40838380Y-91950477D02*
X40838380Y-92521905D01*
X40838380Y-92236191D02*
X39838380Y-92236191D01*
X39981238Y-92331429D01*
X40076476Y-92426667D01*
X40124095Y-92521905D01*
X40838380Y-90998096D02*
X40838380Y-91569524D01*
X40838380Y-91283810D02*
X39838380Y-91283810D01*
X39981238Y-91379048D01*
X40076476Y-91474286D01*
X40124095Y-91569524D01*
%TO.C,D10*%
X26217714Y-77218381D02*
X26217714Y-76218381D01*
X26455809Y-76218381D01*
X26598666Y-76266001D01*
X26693904Y-76361239D01*
X26741523Y-76456477D01*
X26789142Y-76646953D01*
X26789142Y-76789810D01*
X26741523Y-76980286D01*
X26693904Y-77075524D01*
X26598666Y-77170762D01*
X26455809Y-77218381D01*
X26217714Y-77218381D01*
X27741523Y-77218381D02*
X27170095Y-77218381D01*
X27455809Y-77218381D02*
X27455809Y-76218381D01*
X27360571Y-76361239D01*
X27265333Y-76456477D01*
X27170095Y-76504096D01*
X28360571Y-76218381D02*
X28455809Y-76218381D01*
X28551047Y-76266001D01*
X28598666Y-76313620D01*
X28646285Y-76408858D01*
X28693904Y-76599334D01*
X28693904Y-76837429D01*
X28646285Y-77027905D01*
X28598666Y-77123143D01*
X28551047Y-77170762D01*
X28455809Y-77218381D01*
X28360571Y-77218381D01*
X28265333Y-77170762D01*
X28217714Y-77123143D01*
X28170095Y-77027905D01*
X28122476Y-76837429D01*
X28122476Y-76599334D01*
X28170095Y-76408858D01*
X28217714Y-76313620D01*
X28265333Y-76266001D01*
X28360571Y-76218381D01*
%TO.C,D9*%
X57602380Y-86140096D02*
X56602380Y-86140096D01*
X56602380Y-85902001D01*
X56650000Y-85759143D01*
X56745238Y-85663905D01*
X56840476Y-85616286D01*
X57030952Y-85568667D01*
X57173809Y-85568667D01*
X57364285Y-85616286D01*
X57459523Y-85663905D01*
X57554761Y-85759143D01*
X57602380Y-85902001D01*
X57602380Y-86140096D01*
X57602380Y-85092477D02*
X57602380Y-84902001D01*
X57554761Y-84806762D01*
X57507142Y-84759143D01*
X57364285Y-84663905D01*
X57173809Y-84616286D01*
X56792857Y-84616286D01*
X56697619Y-84663905D01*
X56650000Y-84711524D01*
X56602380Y-84806762D01*
X56602380Y-84997239D01*
X56650000Y-85092477D01*
X56697619Y-85140096D01*
X56792857Y-85187715D01*
X57030952Y-85187715D01*
X57126190Y-85140096D01*
X57173809Y-85092477D01*
X57221428Y-84997239D01*
X57221428Y-84806762D01*
X57173809Y-84711524D01*
X57126190Y-84663905D01*
X57030952Y-84616286D01*
%TO.C,D8*%
X54046380Y-86140096D02*
X53046380Y-86140096D01*
X53046380Y-85902001D01*
X53094000Y-85759143D01*
X53189238Y-85663905D01*
X53284476Y-85616286D01*
X53474952Y-85568667D01*
X53617809Y-85568667D01*
X53808285Y-85616286D01*
X53903523Y-85663905D01*
X53998761Y-85759143D01*
X54046380Y-85902001D01*
X54046380Y-86140096D01*
X53474952Y-84997239D02*
X53427333Y-85092477D01*
X53379714Y-85140096D01*
X53284476Y-85187715D01*
X53236857Y-85187715D01*
X53141619Y-85140096D01*
X53094000Y-85092477D01*
X53046380Y-84997239D01*
X53046380Y-84806762D01*
X53094000Y-84711524D01*
X53141619Y-84663905D01*
X53236857Y-84616286D01*
X53284476Y-84616286D01*
X53379714Y-84663905D01*
X53427333Y-84711524D01*
X53474952Y-84806762D01*
X53474952Y-84997239D01*
X53522571Y-85092477D01*
X53570190Y-85140096D01*
X53665428Y-85187715D01*
X53855904Y-85187715D01*
X53951142Y-85140096D01*
X53998761Y-85092477D01*
X54046380Y-84997239D01*
X54046380Y-84806762D01*
X53998761Y-84711524D01*
X53951142Y-84663905D01*
X53855904Y-84616286D01*
X53665428Y-84616286D01*
X53570190Y-84663905D01*
X53522571Y-84711524D01*
X53474952Y-84806762D01*
%TO.C,D7*%
X66571904Y-69090381D02*
X66571904Y-68090381D01*
X66810000Y-68090381D01*
X66952857Y-68138001D01*
X67048095Y-68233239D01*
X67095714Y-68328477D01*
X67143333Y-68518953D01*
X67143333Y-68661810D01*
X67095714Y-68852286D01*
X67048095Y-68947524D01*
X66952857Y-69042762D01*
X66810000Y-69090381D01*
X66571904Y-69090381D01*
X67476666Y-68090381D02*
X68143333Y-68090381D01*
X67714761Y-69090381D01*
%TO.C,D6*%
X67079904Y-39880381D02*
X67079904Y-38880381D01*
X67318000Y-38880381D01*
X67460857Y-38928001D01*
X67556095Y-39023239D01*
X67603714Y-39118477D01*
X67651333Y-39308953D01*
X67651333Y-39451810D01*
X67603714Y-39642286D01*
X67556095Y-39737524D01*
X67460857Y-39832762D01*
X67318000Y-39880381D01*
X67079904Y-39880381D01*
X68508476Y-38880381D02*
X68318000Y-38880381D01*
X68222761Y-38928001D01*
X68175142Y-38975620D01*
X68079904Y-39118477D01*
X68032285Y-39308953D01*
X68032285Y-39689905D01*
X68079904Y-39785143D01*
X68127523Y-39832762D01*
X68222761Y-39880381D01*
X68413238Y-39880381D01*
X68508476Y-39832762D01*
X68556095Y-39785143D01*
X68603714Y-39689905D01*
X68603714Y-39451810D01*
X68556095Y-39356572D01*
X68508476Y-39308953D01*
X68413238Y-39261334D01*
X68222761Y-39261334D01*
X68127523Y-39308953D01*
X68079904Y-39356572D01*
X68032285Y-39451810D01*
%TO.C,D5*%
X66825904Y-50040381D02*
X66825904Y-49040381D01*
X67064000Y-49040381D01*
X67206857Y-49088001D01*
X67302095Y-49183239D01*
X67349714Y-49278477D01*
X67397333Y-49468953D01*
X67397333Y-49611810D01*
X67349714Y-49802286D01*
X67302095Y-49897524D01*
X67206857Y-49992762D01*
X67064000Y-50040381D01*
X66825904Y-50040381D01*
X68302095Y-49040381D02*
X67825904Y-49040381D01*
X67778285Y-49516572D01*
X67825904Y-49468953D01*
X67921142Y-49421334D01*
X68159238Y-49421334D01*
X68254476Y-49468953D01*
X68302095Y-49516572D01*
X68349714Y-49611810D01*
X68349714Y-49849905D01*
X68302095Y-49945143D01*
X68254476Y-49992762D01*
X68159238Y-50040381D01*
X67921142Y-50040381D01*
X67825904Y-49992762D01*
X67778285Y-49945143D01*
%TO.C,D4*%
X66825904Y-55628381D02*
X66825904Y-54628381D01*
X67064000Y-54628381D01*
X67206857Y-54676001D01*
X67302095Y-54771239D01*
X67349714Y-54866477D01*
X67397333Y-55056953D01*
X67397333Y-55199810D01*
X67349714Y-55390286D01*
X67302095Y-55485524D01*
X67206857Y-55580762D01*
X67064000Y-55628381D01*
X66825904Y-55628381D01*
X68254476Y-54961715D02*
X68254476Y-55628381D01*
X68016380Y-54580762D02*
X67778285Y-55295048D01*
X68397333Y-55295048D01*
%TO.C,D3*%
X67079904Y-43436381D02*
X67079904Y-42436381D01*
X67318000Y-42436381D01*
X67460857Y-42484001D01*
X67556095Y-42579239D01*
X67603714Y-42674477D01*
X67651333Y-42864953D01*
X67651333Y-43007810D01*
X67603714Y-43198286D01*
X67556095Y-43293524D01*
X67460857Y-43388762D01*
X67318000Y-43436381D01*
X67079904Y-43436381D01*
X67984666Y-42436381D02*
X68603714Y-42436381D01*
X68270380Y-42817334D01*
X68413238Y-42817334D01*
X68508476Y-42864953D01*
X68556095Y-42912572D01*
X68603714Y-43007810D01*
X68603714Y-43245905D01*
X68556095Y-43341143D01*
X68508476Y-43388762D01*
X68413238Y-43436381D01*
X68127523Y-43436381D01*
X68032285Y-43388762D01*
X67984666Y-43341143D01*
%TO.C,D2*%
X42695904Y-33530381D02*
X42695904Y-32530381D01*
X42934000Y-32530381D01*
X43076857Y-32578001D01*
X43172095Y-32673239D01*
X43219714Y-32768477D01*
X43267333Y-32958953D01*
X43267333Y-33101810D01*
X43219714Y-33292286D01*
X43172095Y-33387524D01*
X43076857Y-33482762D01*
X42934000Y-33530381D01*
X42695904Y-33530381D01*
X43648285Y-32625620D02*
X43695904Y-32578001D01*
X43791142Y-32530381D01*
X44029238Y-32530381D01*
X44124476Y-32578001D01*
X44172095Y-32625620D01*
X44219714Y-32720858D01*
X44219714Y-32816096D01*
X44172095Y-32958953D01*
X43600666Y-33530381D01*
X44219714Y-33530381D01*
%TO.C,C31*%
X50157142Y-65693143D02*
X50109523Y-65740762D01*
X49966666Y-65788381D01*
X49871428Y-65788381D01*
X49728571Y-65740762D01*
X49633333Y-65645524D01*
X49585714Y-65550286D01*
X49538095Y-65359810D01*
X49538095Y-65216953D01*
X49585714Y-65026477D01*
X49633333Y-64931239D01*
X49728571Y-64836001D01*
X49871428Y-64788381D01*
X49966666Y-64788381D01*
X50109523Y-64836001D01*
X50157142Y-64883620D01*
X50490476Y-64788381D02*
X51109523Y-64788381D01*
X50776190Y-65169334D01*
X50919047Y-65169334D01*
X51014285Y-65216953D01*
X51061904Y-65264572D01*
X51109523Y-65359810D01*
X51109523Y-65597905D01*
X51061904Y-65693143D01*
X51014285Y-65740762D01*
X50919047Y-65788381D01*
X50633333Y-65788381D01*
X50538095Y-65740762D01*
X50490476Y-65693143D01*
X52061904Y-65788381D02*
X51490476Y-65788381D01*
X51776190Y-65788381D02*
X51776190Y-64788381D01*
X51680952Y-64931239D01*
X51585714Y-65026477D01*
X51490476Y-65074096D01*
%TO.C,C30*%
X49903142Y-67725143D02*
X49855523Y-67772762D01*
X49712666Y-67820381D01*
X49617428Y-67820381D01*
X49474571Y-67772762D01*
X49379333Y-67677524D01*
X49331714Y-67582286D01*
X49284095Y-67391810D01*
X49284095Y-67248953D01*
X49331714Y-67058477D01*
X49379333Y-66963239D01*
X49474571Y-66868001D01*
X49617428Y-66820381D01*
X49712666Y-66820381D01*
X49855523Y-66868001D01*
X49903142Y-66915620D01*
X50236476Y-66820381D02*
X50855523Y-66820381D01*
X50522190Y-67201334D01*
X50665047Y-67201334D01*
X50760285Y-67248953D01*
X50807904Y-67296572D01*
X50855523Y-67391810D01*
X50855523Y-67629905D01*
X50807904Y-67725143D01*
X50760285Y-67772762D01*
X50665047Y-67820381D01*
X50379333Y-67820381D01*
X50284095Y-67772762D01*
X50236476Y-67725143D01*
X51474571Y-66820381D02*
X51569809Y-66820381D01*
X51665047Y-66868001D01*
X51712666Y-66915620D01*
X51760285Y-67010858D01*
X51807904Y-67201334D01*
X51807904Y-67439429D01*
X51760285Y-67629905D01*
X51712666Y-67725143D01*
X51665047Y-67772762D01*
X51569809Y-67820381D01*
X51474571Y-67820381D01*
X51379333Y-67772762D01*
X51331714Y-67725143D01*
X51284095Y-67629905D01*
X51236476Y-67439429D01*
X51236476Y-67201334D01*
X51284095Y-67010858D01*
X51331714Y-66915620D01*
X51379333Y-66868001D01*
X51474571Y-66820381D01*
%TO.C,C29*%
X30583142Y-76900858D02*
X30630761Y-76948477D01*
X30678380Y-77091334D01*
X30678380Y-77186572D01*
X30630761Y-77329429D01*
X30535523Y-77424667D01*
X30440285Y-77472286D01*
X30249809Y-77519905D01*
X30106952Y-77519905D01*
X29916476Y-77472286D01*
X29821238Y-77424667D01*
X29726000Y-77329429D01*
X29678380Y-77186572D01*
X29678380Y-77091334D01*
X29726000Y-76948477D01*
X29773619Y-76900858D01*
X29773619Y-76519905D02*
X29726000Y-76472286D01*
X29678380Y-76377048D01*
X29678380Y-76138953D01*
X29726000Y-76043715D01*
X29773619Y-75996096D01*
X29868857Y-75948477D01*
X29964095Y-75948477D01*
X30106952Y-75996096D01*
X30678380Y-76567524D01*
X30678380Y-75948477D01*
X30678380Y-75472286D02*
X30678380Y-75281810D01*
X30630761Y-75186572D01*
X30583142Y-75138953D01*
X30440285Y-75043715D01*
X30249809Y-74996096D01*
X29868857Y-74996096D01*
X29773619Y-75043715D01*
X29726000Y-75091334D01*
X29678380Y-75186572D01*
X29678380Y-75377048D01*
X29726000Y-75472286D01*
X29773619Y-75519905D01*
X29868857Y-75567524D01*
X30106952Y-75567524D01*
X30202190Y-75519905D01*
X30249809Y-75472286D01*
X30297428Y-75377048D01*
X30297428Y-75186572D01*
X30249809Y-75091334D01*
X30202190Y-75043715D01*
X30106952Y-74996096D01*
%TO.C,C27*%
X32107142Y-92648858D02*
X32154761Y-92696477D01*
X32202380Y-92839334D01*
X32202380Y-92934572D01*
X32154761Y-93077429D01*
X32059523Y-93172667D01*
X31964285Y-93220286D01*
X31773809Y-93267905D01*
X31630952Y-93267905D01*
X31440476Y-93220286D01*
X31345238Y-93172667D01*
X31250000Y-93077429D01*
X31202380Y-92934572D01*
X31202380Y-92839334D01*
X31250000Y-92696477D01*
X31297619Y-92648858D01*
X31297619Y-92267905D02*
X31250000Y-92220286D01*
X31202380Y-92125048D01*
X31202380Y-91886953D01*
X31250000Y-91791715D01*
X31297619Y-91744096D01*
X31392857Y-91696477D01*
X31488095Y-91696477D01*
X31630952Y-91744096D01*
X32202380Y-92315524D01*
X32202380Y-91696477D01*
X31202380Y-91363143D02*
X31202380Y-90696477D01*
X32202380Y-91125048D01*
%TO.C,C26*%
X63857142Y-75376858D02*
X63904761Y-75424477D01*
X63952380Y-75567334D01*
X63952380Y-75662572D01*
X63904761Y-75805429D01*
X63809523Y-75900667D01*
X63714285Y-75948286D01*
X63523809Y-75995905D01*
X63380952Y-75995905D01*
X63190476Y-75948286D01*
X63095238Y-75900667D01*
X63000000Y-75805429D01*
X62952380Y-75662572D01*
X62952380Y-75567334D01*
X63000000Y-75424477D01*
X63047619Y-75376858D01*
X63047619Y-74995905D02*
X63000000Y-74948286D01*
X62952380Y-74853048D01*
X62952380Y-74614953D01*
X63000000Y-74519715D01*
X63047619Y-74472096D01*
X63142857Y-74424477D01*
X63238095Y-74424477D01*
X63380952Y-74472096D01*
X63952380Y-75043524D01*
X63952380Y-74424477D01*
X62952380Y-73567334D02*
X62952380Y-73757810D01*
X63000000Y-73853048D01*
X63047619Y-73900667D01*
X63190476Y-73995905D01*
X63380952Y-74043524D01*
X63761904Y-74043524D01*
X63857142Y-73995905D01*
X63904761Y-73948286D01*
X63952380Y-73853048D01*
X63952380Y-73662572D01*
X63904761Y-73567334D01*
X63857142Y-73519715D01*
X63761904Y-73472096D01*
X63523809Y-73472096D01*
X63428571Y-73519715D01*
X63380952Y-73567334D01*
X63333333Y-73662572D01*
X63333333Y-73853048D01*
X63380952Y-73948286D01*
X63428571Y-73995905D01*
X63523809Y-74043524D01*
%TO.C,C25*%
X58269142Y-74360858D02*
X58316761Y-74408477D01*
X58364380Y-74551334D01*
X58364380Y-74646572D01*
X58316761Y-74789429D01*
X58221523Y-74884667D01*
X58126285Y-74932286D01*
X57935809Y-74979905D01*
X57792952Y-74979905D01*
X57602476Y-74932286D01*
X57507238Y-74884667D01*
X57412000Y-74789429D01*
X57364380Y-74646572D01*
X57364380Y-74551334D01*
X57412000Y-74408477D01*
X57459619Y-74360858D01*
X57459619Y-73979905D02*
X57412000Y-73932286D01*
X57364380Y-73837048D01*
X57364380Y-73598953D01*
X57412000Y-73503715D01*
X57459619Y-73456096D01*
X57554857Y-73408477D01*
X57650095Y-73408477D01*
X57792952Y-73456096D01*
X58364380Y-74027524D01*
X58364380Y-73408477D01*
X57364380Y-72503715D02*
X57364380Y-72979905D01*
X57840571Y-73027524D01*
X57792952Y-72979905D01*
X57745333Y-72884667D01*
X57745333Y-72646572D01*
X57792952Y-72551334D01*
X57840571Y-72503715D01*
X57935809Y-72456096D01*
X58173904Y-72456096D01*
X58269142Y-72503715D01*
X58316761Y-72551334D01*
X58364380Y-72646572D01*
X58364380Y-72884667D01*
X58316761Y-72979905D01*
X58269142Y-73027524D01*
%TO.C,C24*%
X36679142Y-76900858D02*
X36726761Y-76948477D01*
X36774380Y-77091334D01*
X36774380Y-77186572D01*
X36726761Y-77329429D01*
X36631523Y-77424667D01*
X36536285Y-77472286D01*
X36345809Y-77519905D01*
X36202952Y-77519905D01*
X36012476Y-77472286D01*
X35917238Y-77424667D01*
X35822000Y-77329429D01*
X35774380Y-77186572D01*
X35774380Y-77091334D01*
X35822000Y-76948477D01*
X35869619Y-76900858D01*
X35869619Y-76519905D02*
X35822000Y-76472286D01*
X35774380Y-76377048D01*
X35774380Y-76138953D01*
X35822000Y-76043715D01*
X35869619Y-75996096D01*
X35964857Y-75948477D01*
X36060095Y-75948477D01*
X36202952Y-75996096D01*
X36774380Y-76567524D01*
X36774380Y-75948477D01*
X36107714Y-75091334D02*
X36774380Y-75091334D01*
X35726761Y-75329429D02*
X36441047Y-75567524D01*
X36441047Y-74948477D01*
%TO.C,C23*%
X38457142Y-76646858D02*
X38504761Y-76694477D01*
X38552380Y-76837334D01*
X38552380Y-76932572D01*
X38504761Y-77075429D01*
X38409523Y-77170667D01*
X38314285Y-77218286D01*
X38123809Y-77265905D01*
X37980952Y-77265905D01*
X37790476Y-77218286D01*
X37695238Y-77170667D01*
X37600000Y-77075429D01*
X37552380Y-76932572D01*
X37552380Y-76837334D01*
X37600000Y-76694477D01*
X37647619Y-76646858D01*
X37647619Y-76265905D02*
X37600000Y-76218286D01*
X37552380Y-76123048D01*
X37552380Y-75884953D01*
X37600000Y-75789715D01*
X37647619Y-75742096D01*
X37742857Y-75694477D01*
X37838095Y-75694477D01*
X37980952Y-75742096D01*
X38552380Y-76313524D01*
X38552380Y-75694477D01*
X37552380Y-75361143D02*
X37552380Y-74742096D01*
X37933333Y-75075429D01*
X37933333Y-74932572D01*
X37980952Y-74837334D01*
X38028571Y-74789715D01*
X38123809Y-74742096D01*
X38361904Y-74742096D01*
X38457142Y-74789715D01*
X38504761Y-74837334D01*
X38552380Y-74932572D01*
X38552380Y-75218286D01*
X38504761Y-75313524D01*
X38457142Y-75361143D01*
%TO.C,C22*%
X55475142Y-72074858D02*
X55522761Y-72122477D01*
X55570380Y-72265334D01*
X55570380Y-72360572D01*
X55522761Y-72503429D01*
X55427523Y-72598667D01*
X55332285Y-72646286D01*
X55141809Y-72693905D01*
X54998952Y-72693905D01*
X54808476Y-72646286D01*
X54713238Y-72598667D01*
X54618000Y-72503429D01*
X54570380Y-72360572D01*
X54570380Y-72265334D01*
X54618000Y-72122477D01*
X54665619Y-72074858D01*
X54665619Y-71693905D02*
X54618000Y-71646286D01*
X54570380Y-71551048D01*
X54570380Y-71312953D01*
X54618000Y-71217715D01*
X54665619Y-71170096D01*
X54760857Y-71122477D01*
X54856095Y-71122477D01*
X54998952Y-71170096D01*
X55570380Y-71741524D01*
X55570380Y-71122477D01*
X54665619Y-70741524D02*
X54618000Y-70693905D01*
X54570380Y-70598667D01*
X54570380Y-70360572D01*
X54618000Y-70265334D01*
X54665619Y-70217715D01*
X54760857Y-70170096D01*
X54856095Y-70170096D01*
X54998952Y-70217715D01*
X55570380Y-70789143D01*
X55570380Y-70170096D01*
%TO.C,C21*%
X63857142Y-70746857D02*
X63904761Y-70794476D01*
X63952380Y-70937333D01*
X63952380Y-71032571D01*
X63904761Y-71175428D01*
X63809523Y-71270666D01*
X63714285Y-71318285D01*
X63523809Y-71365904D01*
X63380952Y-71365904D01*
X63190476Y-71318285D01*
X63095238Y-71270666D01*
X63000000Y-71175428D01*
X62952380Y-71032571D01*
X62952380Y-70937333D01*
X63000000Y-70794476D01*
X63047619Y-70746857D01*
X63047619Y-70365904D02*
X63000000Y-70318285D01*
X62952380Y-70223047D01*
X62952380Y-69984952D01*
X63000000Y-69889714D01*
X63047619Y-69842095D01*
X63142857Y-69794476D01*
X63238095Y-69794476D01*
X63380952Y-69842095D01*
X63952380Y-70413523D01*
X63952380Y-69794476D01*
X63952380Y-68842095D02*
X63952380Y-69413523D01*
X63952380Y-69127809D02*
X62952380Y-69127809D01*
X63095238Y-69223047D01*
X63190476Y-69318285D01*
X63238095Y-69413523D01*
%TO.C,C20*%
X66667142Y-72805143D02*
X66619523Y-72852762D01*
X66476666Y-72900381D01*
X66381428Y-72900381D01*
X66238571Y-72852762D01*
X66143333Y-72757524D01*
X66095714Y-72662286D01*
X66048095Y-72471810D01*
X66048095Y-72328953D01*
X66095714Y-72138477D01*
X66143333Y-72043239D01*
X66238571Y-71948001D01*
X66381428Y-71900381D01*
X66476666Y-71900381D01*
X66619523Y-71948001D01*
X66667142Y-71995620D01*
X67048095Y-71995620D02*
X67095714Y-71948001D01*
X67190952Y-71900381D01*
X67429047Y-71900381D01*
X67524285Y-71948001D01*
X67571904Y-71995620D01*
X67619523Y-72090858D01*
X67619523Y-72186096D01*
X67571904Y-72328953D01*
X67000476Y-72900381D01*
X67619523Y-72900381D01*
X68238571Y-71900381D02*
X68333809Y-71900381D01*
X68429047Y-71948001D01*
X68476666Y-71995620D01*
X68524285Y-72090858D01*
X68571904Y-72281334D01*
X68571904Y-72519429D01*
X68524285Y-72709905D01*
X68476666Y-72805143D01*
X68429047Y-72852762D01*
X68333809Y-72900381D01*
X68238571Y-72900381D01*
X68143333Y-72852762D01*
X68095714Y-72805143D01*
X68048095Y-72709905D01*
X68000476Y-72519429D01*
X68000476Y-72281334D01*
X68048095Y-72090858D01*
X68095714Y-71995620D01*
X68143333Y-71948001D01*
X68238571Y-71900381D01*
%TO.C,C19*%
X65381142Y-75376858D02*
X65428761Y-75424477D01*
X65476380Y-75567334D01*
X65476380Y-75662572D01*
X65428761Y-75805429D01*
X65333523Y-75900667D01*
X65238285Y-75948286D01*
X65047809Y-75995905D01*
X64904952Y-75995905D01*
X64714476Y-75948286D01*
X64619238Y-75900667D01*
X64524000Y-75805429D01*
X64476380Y-75662572D01*
X64476380Y-75567334D01*
X64524000Y-75424477D01*
X64571619Y-75376858D01*
X65476380Y-74424477D02*
X65476380Y-74995905D01*
X65476380Y-74710191D02*
X64476380Y-74710191D01*
X64619238Y-74805429D01*
X64714476Y-74900667D01*
X64762095Y-74995905D01*
X65476380Y-73948286D02*
X65476380Y-73757810D01*
X65428761Y-73662572D01*
X65381142Y-73614953D01*
X65238285Y-73519715D01*
X65047809Y-73472096D01*
X64666857Y-73472096D01*
X64571619Y-73519715D01*
X64524000Y-73567334D01*
X64476380Y-73662572D01*
X64476380Y-73853048D01*
X64524000Y-73948286D01*
X64571619Y-73995905D01*
X64666857Y-74043524D01*
X64904952Y-74043524D01*
X65000190Y-73995905D01*
X65047809Y-73948286D01*
X65095428Y-73853048D01*
X65095428Y-73662572D01*
X65047809Y-73567334D01*
X65000190Y-73519715D01*
X64904952Y-73472096D01*
%TO.C,C18*%
X61063142Y-86298858D02*
X61110761Y-86346477D01*
X61158380Y-86489334D01*
X61158380Y-86584572D01*
X61110761Y-86727429D01*
X61015523Y-86822667D01*
X60920285Y-86870286D01*
X60729809Y-86917905D01*
X60586952Y-86917905D01*
X60396476Y-86870286D01*
X60301238Y-86822667D01*
X60206000Y-86727429D01*
X60158380Y-86584572D01*
X60158380Y-86489334D01*
X60206000Y-86346477D01*
X60253619Y-86298858D01*
X61158380Y-85346477D02*
X61158380Y-85917905D01*
X61158380Y-85632191D02*
X60158380Y-85632191D01*
X60301238Y-85727429D01*
X60396476Y-85822667D01*
X60444095Y-85917905D01*
X60586952Y-84775048D02*
X60539333Y-84870286D01*
X60491714Y-84917905D01*
X60396476Y-84965524D01*
X60348857Y-84965524D01*
X60253619Y-84917905D01*
X60206000Y-84870286D01*
X60158380Y-84775048D01*
X60158380Y-84584572D01*
X60206000Y-84489334D01*
X60253619Y-84441715D01*
X60348857Y-84394096D01*
X60396476Y-84394096D01*
X60491714Y-84441715D01*
X60539333Y-84489334D01*
X60586952Y-84584572D01*
X60586952Y-84775048D01*
X60634571Y-84870286D01*
X60682190Y-84917905D01*
X60777428Y-84965524D01*
X60967904Y-84965524D01*
X61063142Y-84917905D01*
X61110761Y-84870286D01*
X61158380Y-84775048D01*
X61158380Y-84584572D01*
X61110761Y-84489334D01*
X61063142Y-84441715D01*
X60967904Y-84394096D01*
X60777428Y-84394096D01*
X60682190Y-84441715D01*
X60634571Y-84489334D01*
X60586952Y-84584572D01*
%TO.C,C17*%
X66667142Y-74837143D02*
X66619523Y-74884762D01*
X66476666Y-74932381D01*
X66381428Y-74932381D01*
X66238571Y-74884762D01*
X66143333Y-74789524D01*
X66095714Y-74694286D01*
X66048095Y-74503810D01*
X66048095Y-74360953D01*
X66095714Y-74170477D01*
X66143333Y-74075239D01*
X66238571Y-73980001D01*
X66381428Y-73932381D01*
X66476666Y-73932381D01*
X66619523Y-73980001D01*
X66667142Y-74027620D01*
X67619523Y-74932381D02*
X67048095Y-74932381D01*
X67333809Y-74932381D02*
X67333809Y-73932381D01*
X67238571Y-74075239D01*
X67143333Y-74170477D01*
X67048095Y-74218096D01*
X67952857Y-73932381D02*
X68619523Y-73932381D01*
X68190952Y-74932381D01*
%TO.C,C16*%
X73017142Y-47151143D02*
X72969523Y-47198762D01*
X72826666Y-47246381D01*
X72731428Y-47246381D01*
X72588571Y-47198762D01*
X72493333Y-47103524D01*
X72445714Y-47008286D01*
X72398095Y-46817810D01*
X72398095Y-46674953D01*
X72445714Y-46484477D01*
X72493333Y-46389239D01*
X72588571Y-46294001D01*
X72731428Y-46246381D01*
X72826666Y-46246381D01*
X72969523Y-46294001D01*
X73017142Y-46341620D01*
X73969523Y-47246381D02*
X73398095Y-47246381D01*
X73683809Y-47246381D02*
X73683809Y-46246381D01*
X73588571Y-46389239D01*
X73493333Y-46484477D01*
X73398095Y-46532096D01*
X74826666Y-46246381D02*
X74636190Y-46246381D01*
X74540952Y-46294001D01*
X74493333Y-46341620D01*
X74398095Y-46484477D01*
X74350476Y-46674953D01*
X74350476Y-47055905D01*
X74398095Y-47151143D01*
X74445714Y-47198762D01*
X74540952Y-47246381D01*
X74731428Y-47246381D01*
X74826666Y-47198762D01*
X74874285Y-47151143D01*
X74921904Y-47055905D01*
X74921904Y-46817810D01*
X74874285Y-46722572D01*
X74826666Y-46674953D01*
X74731428Y-46627334D01*
X74540952Y-46627334D01*
X74445714Y-46674953D01*
X74398095Y-46722572D01*
X74350476Y-46817810D01*
%TO.C,C15*%
X73017142Y-45627143D02*
X72969523Y-45674762D01*
X72826666Y-45722381D01*
X72731428Y-45722381D01*
X72588571Y-45674762D01*
X72493333Y-45579524D01*
X72445714Y-45484286D01*
X72398095Y-45293810D01*
X72398095Y-45150953D01*
X72445714Y-44960477D01*
X72493333Y-44865239D01*
X72588571Y-44770001D01*
X72731428Y-44722381D01*
X72826666Y-44722381D01*
X72969523Y-44770001D01*
X73017142Y-44817620D01*
X73969523Y-45722381D02*
X73398095Y-45722381D01*
X73683809Y-45722381D02*
X73683809Y-44722381D01*
X73588571Y-44865239D01*
X73493333Y-44960477D01*
X73398095Y-45008096D01*
X74874285Y-44722381D02*
X74398095Y-44722381D01*
X74350476Y-45198572D01*
X74398095Y-45150953D01*
X74493333Y-45103334D01*
X74731428Y-45103334D01*
X74826666Y-45150953D01*
X74874285Y-45198572D01*
X74921904Y-45293810D01*
X74921904Y-45531905D01*
X74874285Y-45627143D01*
X74826666Y-45674762D01*
X74731428Y-45722381D01*
X74493333Y-45722381D01*
X74398095Y-45674762D01*
X74350476Y-45627143D01*
%TO.C,C14*%
X73017142Y-61629143D02*
X72969523Y-61676762D01*
X72826666Y-61724381D01*
X72731428Y-61724381D01*
X72588571Y-61676762D01*
X72493333Y-61581524D01*
X72445714Y-61486286D01*
X72398095Y-61295810D01*
X72398095Y-61152953D01*
X72445714Y-60962477D01*
X72493333Y-60867239D01*
X72588571Y-60772001D01*
X72731428Y-60724381D01*
X72826666Y-60724381D01*
X72969523Y-60772001D01*
X73017142Y-60819620D01*
X73969523Y-61724381D02*
X73398095Y-61724381D01*
X73683809Y-61724381D02*
X73683809Y-60724381D01*
X73588571Y-60867239D01*
X73493333Y-60962477D01*
X73398095Y-61010096D01*
X74826666Y-61057715D02*
X74826666Y-61724381D01*
X74588571Y-60676762D02*
X74350476Y-61391048D01*
X74969523Y-61391048D01*
%TO.C,C13*%
X73017142Y-63153143D02*
X72969523Y-63200762D01*
X72826666Y-63248381D01*
X72731428Y-63248381D01*
X72588571Y-63200762D01*
X72493333Y-63105524D01*
X72445714Y-63010286D01*
X72398095Y-62819810D01*
X72398095Y-62676953D01*
X72445714Y-62486477D01*
X72493333Y-62391239D01*
X72588571Y-62296001D01*
X72731428Y-62248381D01*
X72826666Y-62248381D01*
X72969523Y-62296001D01*
X73017142Y-62343620D01*
X73969523Y-63248381D02*
X73398095Y-63248381D01*
X73683809Y-63248381D02*
X73683809Y-62248381D01*
X73588571Y-62391239D01*
X73493333Y-62486477D01*
X73398095Y-62534096D01*
X74302857Y-62248381D02*
X74921904Y-62248381D01*
X74588571Y-62629334D01*
X74731428Y-62629334D01*
X74826666Y-62676953D01*
X74874285Y-62724572D01*
X74921904Y-62819810D01*
X74921904Y-63057905D01*
X74874285Y-63153143D01*
X74826666Y-63200762D01*
X74731428Y-63248381D01*
X74445714Y-63248381D01*
X74350476Y-63200762D01*
X74302857Y-63153143D01*
%TO.C,C12*%
X70985142Y-32107142D02*
X70937523Y-32154761D01*
X70794666Y-32202380D01*
X70699428Y-32202380D01*
X70556571Y-32154761D01*
X70461333Y-32059523D01*
X70413714Y-31964285D01*
X70366095Y-31773809D01*
X70366095Y-31630952D01*
X70413714Y-31440476D01*
X70461333Y-31345238D01*
X70556571Y-31250000D01*
X70699428Y-31202380D01*
X70794666Y-31202380D01*
X70937523Y-31250000D01*
X70985142Y-31297619D01*
X71937523Y-32202380D02*
X71366095Y-32202380D01*
X71651809Y-32202380D02*
X71651809Y-31202380D01*
X71556571Y-31345238D01*
X71461333Y-31440476D01*
X71366095Y-31488095D01*
X72318476Y-31297619D02*
X72366095Y-31250000D01*
X72461333Y-31202380D01*
X72699428Y-31202380D01*
X72794666Y-31250000D01*
X72842285Y-31297619D01*
X72889904Y-31392857D01*
X72889904Y-31488095D01*
X72842285Y-31630952D01*
X72270857Y-32202380D01*
X72889904Y-32202380D01*
%TO.C,C11*%
X35933142Y-43283142D02*
X35885523Y-43330761D01*
X35742666Y-43378380D01*
X35647428Y-43378380D01*
X35504571Y-43330761D01*
X35409333Y-43235523D01*
X35361714Y-43140285D01*
X35314095Y-42949809D01*
X35314095Y-42806952D01*
X35361714Y-42616476D01*
X35409333Y-42521238D01*
X35504571Y-42426000D01*
X35647428Y-42378380D01*
X35742666Y-42378380D01*
X35885523Y-42426000D01*
X35933142Y-42473619D01*
X36885523Y-43378380D02*
X36314095Y-43378380D01*
X36599809Y-43378380D02*
X36599809Y-42378380D01*
X36504571Y-42521238D01*
X36409333Y-42616476D01*
X36314095Y-42664095D01*
X37837904Y-43378380D02*
X37266476Y-43378380D01*
X37552190Y-43378380D02*
X37552190Y-42378380D01*
X37456952Y-42521238D01*
X37361714Y-42616476D01*
X37266476Y-42664095D01*
%TO.C,C10*%
X35933142Y-44807142D02*
X35885523Y-44854761D01*
X35742666Y-44902380D01*
X35647428Y-44902380D01*
X35504571Y-44854761D01*
X35409333Y-44759523D01*
X35361714Y-44664285D01*
X35314095Y-44473809D01*
X35314095Y-44330952D01*
X35361714Y-44140476D01*
X35409333Y-44045238D01*
X35504571Y-43950000D01*
X35647428Y-43902380D01*
X35742666Y-43902380D01*
X35885523Y-43950000D01*
X35933142Y-43997619D01*
X36885523Y-44902380D02*
X36314095Y-44902380D01*
X36599809Y-44902380D02*
X36599809Y-43902380D01*
X36504571Y-44045238D01*
X36409333Y-44140476D01*
X36314095Y-44188095D01*
X37504571Y-43902380D02*
X37599809Y-43902380D01*
X37695047Y-43950000D01*
X37742666Y-43997619D01*
X37790285Y-44092857D01*
X37837904Y-44283333D01*
X37837904Y-44521428D01*
X37790285Y-44711904D01*
X37742666Y-44807142D01*
X37695047Y-44854761D01*
X37599809Y-44902380D01*
X37504571Y-44902380D01*
X37409333Y-44854761D01*
X37361714Y-44807142D01*
X37314095Y-44711904D01*
X37266476Y-44521428D01*
X37266476Y-44283333D01*
X37314095Y-44092857D01*
X37361714Y-43997619D01*
X37409333Y-43950000D01*
X37504571Y-43902380D01*
%TO.C,C9*%
X74001333Y-64931143D02*
X73953714Y-64978762D01*
X73810857Y-65026381D01*
X73715619Y-65026381D01*
X73572761Y-64978762D01*
X73477523Y-64883524D01*
X73429904Y-64788286D01*
X73382285Y-64597810D01*
X73382285Y-64454953D01*
X73429904Y-64264477D01*
X73477523Y-64169239D01*
X73572761Y-64074001D01*
X73715619Y-64026381D01*
X73810857Y-64026381D01*
X73953714Y-64074001D01*
X74001333Y-64121620D01*
X74477523Y-65026381D02*
X74668000Y-65026381D01*
X74763238Y-64978762D01*
X74810857Y-64931143D01*
X74906095Y-64788286D01*
X74953714Y-64597810D01*
X74953714Y-64216858D01*
X74906095Y-64121620D01*
X74858476Y-64074001D01*
X74763238Y-64026381D01*
X74572761Y-64026381D01*
X74477523Y-64074001D01*
X74429904Y-64121620D01*
X74382285Y-64216858D01*
X74382285Y-64454953D01*
X74429904Y-64550191D01*
X74477523Y-64597810D01*
X74572761Y-64645429D01*
X74763238Y-64645429D01*
X74858476Y-64597810D01*
X74906095Y-64550191D01*
X74953714Y-64454953D01*
%TO.C,C8*%
X65619333Y-64365142D02*
X65571714Y-64412761D01*
X65428857Y-64460380D01*
X65333619Y-64460380D01*
X65190761Y-64412761D01*
X65095523Y-64317523D01*
X65047904Y-64222285D01*
X65000285Y-64031809D01*
X65000285Y-63888952D01*
X65047904Y-63698476D01*
X65095523Y-63603238D01*
X65190761Y-63508000D01*
X65333619Y-63460380D01*
X65428857Y-63460380D01*
X65571714Y-63508000D01*
X65619333Y-63555619D01*
X66190761Y-63888952D02*
X66095523Y-63841333D01*
X66047904Y-63793714D01*
X66000285Y-63698476D01*
X66000285Y-63650857D01*
X66047904Y-63555619D01*
X66095523Y-63508000D01*
X66190761Y-63460380D01*
X66381238Y-63460380D01*
X66476476Y-63508000D01*
X66524095Y-63555619D01*
X66571714Y-63650857D01*
X66571714Y-63698476D01*
X66524095Y-63793714D01*
X66476476Y-63841333D01*
X66381238Y-63888952D01*
X66190761Y-63888952D01*
X66095523Y-63936571D01*
X66047904Y-63984190D01*
X66000285Y-64079428D01*
X66000285Y-64269904D01*
X66047904Y-64365142D01*
X66095523Y-64412761D01*
X66190761Y-64460380D01*
X66381238Y-64460380D01*
X66476476Y-64412761D01*
X66524095Y-64365142D01*
X66571714Y-64269904D01*
X66571714Y-64079428D01*
X66524095Y-63984190D01*
X66476476Y-63936571D01*
X66381238Y-63888952D01*
%TO.C,C7*%
X48347333Y-62899143D02*
X48299714Y-62946762D01*
X48156857Y-62994381D01*
X48061619Y-62994381D01*
X47918761Y-62946762D01*
X47823523Y-62851524D01*
X47775904Y-62756286D01*
X47728285Y-62565810D01*
X47728285Y-62422953D01*
X47775904Y-62232477D01*
X47823523Y-62137239D01*
X47918761Y-62042001D01*
X48061619Y-61994381D01*
X48156857Y-61994381D01*
X48299714Y-62042001D01*
X48347333Y-62089620D01*
X48680666Y-61994381D02*
X49347333Y-61994381D01*
X48918761Y-62994381D01*
%TO.C,C6*%
X65111333Y-54517143D02*
X65063714Y-54564762D01*
X64920857Y-54612381D01*
X64825619Y-54612381D01*
X64682761Y-54564762D01*
X64587523Y-54469524D01*
X64539904Y-54374286D01*
X64492285Y-54183810D01*
X64492285Y-54040953D01*
X64539904Y-53850477D01*
X64587523Y-53755239D01*
X64682761Y-53660001D01*
X64825619Y-53612381D01*
X64920857Y-53612381D01*
X65063714Y-53660001D01*
X65111333Y-53707620D01*
X65968476Y-53612381D02*
X65778000Y-53612381D01*
X65682761Y-53660001D01*
X65635142Y-53707620D01*
X65539904Y-53850477D01*
X65492285Y-54040953D01*
X65492285Y-54421905D01*
X65539904Y-54517143D01*
X65587523Y-54564762D01*
X65682761Y-54612381D01*
X65873238Y-54612381D01*
X65968476Y-54564762D01*
X66016095Y-54517143D01*
X66063714Y-54421905D01*
X66063714Y-54183810D01*
X66016095Y-54088572D01*
X65968476Y-54040953D01*
X65873238Y-53993334D01*
X65682761Y-53993334D01*
X65587523Y-54040953D01*
X65539904Y-54088572D01*
X65492285Y-54183810D01*
%TO.C,C5*%
X65619333Y-57507142D02*
X65571714Y-57554761D01*
X65428857Y-57602380D01*
X65333619Y-57602380D01*
X65190761Y-57554761D01*
X65095523Y-57459523D01*
X65047904Y-57364285D01*
X65000285Y-57173809D01*
X65000285Y-57030952D01*
X65047904Y-56840476D01*
X65095523Y-56745238D01*
X65190761Y-56650000D01*
X65333619Y-56602380D01*
X65428857Y-56602380D01*
X65571714Y-56650000D01*
X65619333Y-56697619D01*
X66524095Y-56602380D02*
X66047904Y-56602380D01*
X66000285Y-57078571D01*
X66047904Y-57030952D01*
X66143142Y-56983333D01*
X66381238Y-56983333D01*
X66476476Y-57030952D01*
X66524095Y-57078571D01*
X66571714Y-57173809D01*
X66571714Y-57411904D01*
X66524095Y-57507142D01*
X66476476Y-57554761D01*
X66381238Y-57602380D01*
X66143142Y-57602380D01*
X66047904Y-57554761D01*
X66000285Y-57507142D01*
%TO.C,C4*%
X46061333Y-60613143D02*
X46013714Y-60660762D01*
X45870857Y-60708381D01*
X45775619Y-60708381D01*
X45632761Y-60660762D01*
X45537523Y-60565524D01*
X45489904Y-60470286D01*
X45442285Y-60279810D01*
X45442285Y-60136953D01*
X45489904Y-59946477D01*
X45537523Y-59851239D01*
X45632761Y-59756001D01*
X45775619Y-59708381D01*
X45870857Y-59708381D01*
X46013714Y-59756001D01*
X46061333Y-59803620D01*
X46918476Y-60041715D02*
X46918476Y-60708381D01*
X46680380Y-59660762D02*
X46442285Y-60375048D01*
X47061333Y-60375048D01*
%TO.C,C3*%
X46061333Y-62391143D02*
X46013714Y-62438762D01*
X45870857Y-62486381D01*
X45775619Y-62486381D01*
X45632761Y-62438762D01*
X45537523Y-62343524D01*
X45489904Y-62248286D01*
X45442285Y-62057810D01*
X45442285Y-61914953D01*
X45489904Y-61724477D01*
X45537523Y-61629239D01*
X45632761Y-61534001D01*
X45775619Y-61486381D01*
X45870857Y-61486381D01*
X46013714Y-61534001D01*
X46061333Y-61581620D01*
X46394666Y-61486381D02*
X47013714Y-61486381D01*
X46680380Y-61867334D01*
X46823238Y-61867334D01*
X46918476Y-61914953D01*
X46966095Y-61962572D01*
X47013714Y-62057810D01*
X47013714Y-62295905D01*
X46966095Y-62391143D01*
X46918476Y-62438762D01*
X46823238Y-62486381D01*
X46537523Y-62486381D01*
X46442285Y-62438762D01*
X46394666Y-62391143D01*
%TO.C,C2*%
X60285333Y-63095142D02*
X60237714Y-63142761D01*
X60094857Y-63190380D01*
X59999619Y-63190380D01*
X59856761Y-63142761D01*
X59761523Y-63047523D01*
X59713904Y-62952285D01*
X59666285Y-62761809D01*
X59666285Y-62618952D01*
X59713904Y-62428476D01*
X59761523Y-62333238D01*
X59856761Y-62238000D01*
X59999619Y-62190380D01*
X60094857Y-62190380D01*
X60237714Y-62238000D01*
X60285333Y-62285619D01*
X60666285Y-62285619D02*
X60713904Y-62238000D01*
X60809142Y-62190380D01*
X61047238Y-62190380D01*
X61142476Y-62238000D01*
X61190095Y-62285619D01*
X61237714Y-62380857D01*
X61237714Y-62476095D01*
X61190095Y-62618952D01*
X60618666Y-63190380D01*
X61237714Y-63190380D01*
%TO.C,C1*%
X60285333Y-61121143D02*
X60237714Y-61168762D01*
X60094857Y-61216381D01*
X59999619Y-61216381D01*
X59856761Y-61168762D01*
X59761523Y-61073524D01*
X59713904Y-60978286D01*
X59666285Y-60787810D01*
X59666285Y-60644953D01*
X59713904Y-60454477D01*
X59761523Y-60359239D01*
X59856761Y-60264001D01*
X59999619Y-60216381D01*
X60094857Y-60216381D01*
X60237714Y-60264001D01*
X60285333Y-60311620D01*
X61237714Y-61216381D02*
X60666285Y-61216381D01*
X60952000Y-61216381D02*
X60952000Y-60216381D01*
X60856761Y-60359239D01*
X60761523Y-60454477D01*
X60666285Y-60502096D01*
%TD*%
M02*
