G04 #@! TF.GenerationSoftware,KiCad,Pcbnew,(5.1.0)-1*
G04 #@! TF.CreationDate,2019-03-23T10:05:58-04:00*
G04 #@! TF.ProjectId,doorbot,646f6f72-626f-4742-9e6b-696361645f70,rev?*
G04 #@! TF.SameCoordinates,Original*
G04 #@! TF.FileFunction,Paste,Bot*
G04 #@! TF.FilePolarity,Positive*
%FSLAX46Y46*%
G04 Gerber Fmt 4.6, Leading zero omitted, Abs format (unit mm)*
G04 Created by KiCad (PCBNEW (5.1.0)-1) date 2019-03-23 10:05:58*
%MOMM*%
%LPD*%
G04 APERTURE LIST*
%ADD10C,0.100000*%
%ADD11C,0.875000*%
%ADD12R,2.200000X1.600000*%
%ADD13R,1.600000X2.200000*%
%ADD14R,0.640000X2.000000*%
%ADD15R,1.000000X1.150000*%
%ADD16R,0.900000X0.800000*%
%ADD17R,0.800000X0.900000*%
%ADD18R,2.500000X1.000000*%
%ADD19R,4.000000X2.000000*%
%ADD20C,0.750000*%
%ADD21R,0.600000X1.550000*%
%ADD22R,2.500000X2.300000*%
%ADD23R,1.600000X0.550000*%
%ADD24R,0.550000X1.600000*%
G04 APERTURE END LIST*
D10*
G36*
X122297691Y-82393053D02*
G01*
X122318926Y-82396203D01*
X122339750Y-82401419D01*
X122359962Y-82408651D01*
X122379368Y-82417830D01*
X122397781Y-82428866D01*
X122415024Y-82441654D01*
X122430930Y-82456070D01*
X122445346Y-82471976D01*
X122458134Y-82489219D01*
X122469170Y-82507632D01*
X122478349Y-82527038D01*
X122485581Y-82547250D01*
X122490797Y-82568074D01*
X122493947Y-82589309D01*
X122495000Y-82610750D01*
X122495000Y-83048250D01*
X122493947Y-83069691D01*
X122490797Y-83090926D01*
X122485581Y-83111750D01*
X122478349Y-83131962D01*
X122469170Y-83151368D01*
X122458134Y-83169781D01*
X122445346Y-83187024D01*
X122430930Y-83202930D01*
X122415024Y-83217346D01*
X122397781Y-83230134D01*
X122379368Y-83241170D01*
X122359962Y-83250349D01*
X122339750Y-83257581D01*
X122318926Y-83262797D01*
X122297691Y-83265947D01*
X122276250Y-83267000D01*
X121763750Y-83267000D01*
X121742309Y-83265947D01*
X121721074Y-83262797D01*
X121700250Y-83257581D01*
X121680038Y-83250349D01*
X121660632Y-83241170D01*
X121642219Y-83230134D01*
X121624976Y-83217346D01*
X121609070Y-83202930D01*
X121594654Y-83187024D01*
X121581866Y-83169781D01*
X121570830Y-83151368D01*
X121561651Y-83131962D01*
X121554419Y-83111750D01*
X121549203Y-83090926D01*
X121546053Y-83069691D01*
X121545000Y-83048250D01*
X121545000Y-82610750D01*
X121546053Y-82589309D01*
X121549203Y-82568074D01*
X121554419Y-82547250D01*
X121561651Y-82527038D01*
X121570830Y-82507632D01*
X121581866Y-82489219D01*
X121594654Y-82471976D01*
X121609070Y-82456070D01*
X121624976Y-82441654D01*
X121642219Y-82428866D01*
X121660632Y-82417830D01*
X121680038Y-82408651D01*
X121700250Y-82401419D01*
X121721074Y-82396203D01*
X121742309Y-82393053D01*
X121763750Y-82392000D01*
X122276250Y-82392000D01*
X122297691Y-82393053D01*
X122297691Y-82393053D01*
G37*
D11*
X122020000Y-82829500D03*
D10*
G36*
X122297691Y-80818053D02*
G01*
X122318926Y-80821203D01*
X122339750Y-80826419D01*
X122359962Y-80833651D01*
X122379368Y-80842830D01*
X122397781Y-80853866D01*
X122415024Y-80866654D01*
X122430930Y-80881070D01*
X122445346Y-80896976D01*
X122458134Y-80914219D01*
X122469170Y-80932632D01*
X122478349Y-80952038D01*
X122485581Y-80972250D01*
X122490797Y-80993074D01*
X122493947Y-81014309D01*
X122495000Y-81035750D01*
X122495000Y-81473250D01*
X122493947Y-81494691D01*
X122490797Y-81515926D01*
X122485581Y-81536750D01*
X122478349Y-81556962D01*
X122469170Y-81576368D01*
X122458134Y-81594781D01*
X122445346Y-81612024D01*
X122430930Y-81627930D01*
X122415024Y-81642346D01*
X122397781Y-81655134D01*
X122379368Y-81666170D01*
X122359962Y-81675349D01*
X122339750Y-81682581D01*
X122318926Y-81687797D01*
X122297691Y-81690947D01*
X122276250Y-81692000D01*
X121763750Y-81692000D01*
X121742309Y-81690947D01*
X121721074Y-81687797D01*
X121700250Y-81682581D01*
X121680038Y-81675349D01*
X121660632Y-81666170D01*
X121642219Y-81655134D01*
X121624976Y-81642346D01*
X121609070Y-81627930D01*
X121594654Y-81612024D01*
X121581866Y-81594781D01*
X121570830Y-81576368D01*
X121561651Y-81556962D01*
X121554419Y-81536750D01*
X121549203Y-81515926D01*
X121546053Y-81494691D01*
X121545000Y-81473250D01*
X121545000Y-81035750D01*
X121546053Y-81014309D01*
X121549203Y-80993074D01*
X121554419Y-80972250D01*
X121561651Y-80952038D01*
X121570830Y-80932632D01*
X121581866Y-80914219D01*
X121594654Y-80896976D01*
X121609070Y-80881070D01*
X121624976Y-80866654D01*
X121642219Y-80853866D01*
X121660632Y-80842830D01*
X121680038Y-80833651D01*
X121700250Y-80826419D01*
X121721074Y-80821203D01*
X121742309Y-80818053D01*
X121763750Y-80817000D01*
X122276250Y-80817000D01*
X122297691Y-80818053D01*
X122297691Y-80818053D01*
G37*
D11*
X122020000Y-81254500D03*
D12*
X107720000Y-107315000D03*
X110720000Y-107315000D03*
D13*
X113030000Y-84050000D03*
X113030000Y-81050000D03*
D12*
X139240000Y-100076000D03*
X142240000Y-100076000D03*
D14*
X118745000Y-92100000D03*
X120015000Y-92100000D03*
X120015000Y-98400000D03*
X118745000Y-98400000D03*
X111760000Y-92100000D03*
X113030000Y-92100000D03*
X113030000Y-98400000D03*
X111760000Y-98400000D03*
X133350000Y-98400000D03*
X132080000Y-98400000D03*
X132080000Y-92100000D03*
X133350000Y-92100000D03*
X128905000Y-98400000D03*
X127635000Y-98400000D03*
X127635000Y-92100000D03*
X128905000Y-92100000D03*
X124460000Y-98400000D03*
X123190000Y-98400000D03*
X123190000Y-92100000D03*
X124460000Y-92100000D03*
X147730000Y-84150000D03*
X146460000Y-84150000D03*
X146460000Y-77850000D03*
X147730000Y-77850000D03*
X156845000Y-77850000D03*
X158115000Y-77850000D03*
X158115000Y-84150000D03*
X156845000Y-84150000D03*
D15*
X139130000Y-88505000D03*
X139130000Y-86755000D03*
X137730000Y-86755000D03*
X137730000Y-88505000D03*
D16*
X118494409Y-80202190D03*
X120494409Y-81152190D03*
X120494409Y-79252190D03*
D17*
X115824000Y-100092000D03*
X114874000Y-102092000D03*
X116774000Y-102092000D03*
X108585000Y-93615000D03*
X107635000Y-95615000D03*
X109535000Y-95615000D03*
X114300000Y-77835000D03*
X115250000Y-75835000D03*
X113350000Y-75835000D03*
D10*
G36*
X107592691Y-82266053D02*
G01*
X107613926Y-82269203D01*
X107634750Y-82274419D01*
X107654962Y-82281651D01*
X107674368Y-82290830D01*
X107692781Y-82301866D01*
X107710024Y-82314654D01*
X107725930Y-82329070D01*
X107740346Y-82344976D01*
X107753134Y-82362219D01*
X107764170Y-82380632D01*
X107773349Y-82400038D01*
X107780581Y-82420250D01*
X107785797Y-82441074D01*
X107788947Y-82462309D01*
X107790000Y-82483750D01*
X107790000Y-82921250D01*
X107788947Y-82942691D01*
X107785797Y-82963926D01*
X107780581Y-82984750D01*
X107773349Y-83004962D01*
X107764170Y-83024368D01*
X107753134Y-83042781D01*
X107740346Y-83060024D01*
X107725930Y-83075930D01*
X107710024Y-83090346D01*
X107692781Y-83103134D01*
X107674368Y-83114170D01*
X107654962Y-83123349D01*
X107634750Y-83130581D01*
X107613926Y-83135797D01*
X107592691Y-83138947D01*
X107571250Y-83140000D01*
X107058750Y-83140000D01*
X107037309Y-83138947D01*
X107016074Y-83135797D01*
X106995250Y-83130581D01*
X106975038Y-83123349D01*
X106955632Y-83114170D01*
X106937219Y-83103134D01*
X106919976Y-83090346D01*
X106904070Y-83075930D01*
X106889654Y-83060024D01*
X106876866Y-83042781D01*
X106865830Y-83024368D01*
X106856651Y-83004962D01*
X106849419Y-82984750D01*
X106844203Y-82963926D01*
X106841053Y-82942691D01*
X106840000Y-82921250D01*
X106840000Y-82483750D01*
X106841053Y-82462309D01*
X106844203Y-82441074D01*
X106849419Y-82420250D01*
X106856651Y-82400038D01*
X106865830Y-82380632D01*
X106876866Y-82362219D01*
X106889654Y-82344976D01*
X106904070Y-82329070D01*
X106919976Y-82314654D01*
X106937219Y-82301866D01*
X106955632Y-82290830D01*
X106975038Y-82281651D01*
X106995250Y-82274419D01*
X107016074Y-82269203D01*
X107037309Y-82266053D01*
X107058750Y-82265000D01*
X107571250Y-82265000D01*
X107592691Y-82266053D01*
X107592691Y-82266053D01*
G37*
D11*
X107315000Y-82702500D03*
D10*
G36*
X107592691Y-80691053D02*
G01*
X107613926Y-80694203D01*
X107634750Y-80699419D01*
X107654962Y-80706651D01*
X107674368Y-80715830D01*
X107692781Y-80726866D01*
X107710024Y-80739654D01*
X107725930Y-80754070D01*
X107740346Y-80769976D01*
X107753134Y-80787219D01*
X107764170Y-80805632D01*
X107773349Y-80825038D01*
X107780581Y-80845250D01*
X107785797Y-80866074D01*
X107788947Y-80887309D01*
X107790000Y-80908750D01*
X107790000Y-81346250D01*
X107788947Y-81367691D01*
X107785797Y-81388926D01*
X107780581Y-81409750D01*
X107773349Y-81429962D01*
X107764170Y-81449368D01*
X107753134Y-81467781D01*
X107740346Y-81485024D01*
X107725930Y-81500930D01*
X107710024Y-81515346D01*
X107692781Y-81528134D01*
X107674368Y-81539170D01*
X107654962Y-81548349D01*
X107634750Y-81555581D01*
X107613926Y-81560797D01*
X107592691Y-81563947D01*
X107571250Y-81565000D01*
X107058750Y-81565000D01*
X107037309Y-81563947D01*
X107016074Y-81560797D01*
X106995250Y-81555581D01*
X106975038Y-81548349D01*
X106955632Y-81539170D01*
X106937219Y-81528134D01*
X106919976Y-81515346D01*
X106904070Y-81500930D01*
X106889654Y-81485024D01*
X106876866Y-81467781D01*
X106865830Y-81449368D01*
X106856651Y-81429962D01*
X106849419Y-81409750D01*
X106844203Y-81388926D01*
X106841053Y-81367691D01*
X106840000Y-81346250D01*
X106840000Y-80908750D01*
X106841053Y-80887309D01*
X106844203Y-80866074D01*
X106849419Y-80845250D01*
X106856651Y-80825038D01*
X106865830Y-80805632D01*
X106876866Y-80787219D01*
X106889654Y-80769976D01*
X106904070Y-80754070D01*
X106919976Y-80739654D01*
X106937219Y-80726866D01*
X106955632Y-80715830D01*
X106975038Y-80706651D01*
X106995250Y-80699419D01*
X107016074Y-80694203D01*
X107037309Y-80691053D01*
X107058750Y-80690000D01*
X107571250Y-80690000D01*
X107592691Y-80691053D01*
X107592691Y-80691053D01*
G37*
D11*
X107315000Y-81127500D03*
D10*
G36*
X107592691Y-102586053D02*
G01*
X107613926Y-102589203D01*
X107634750Y-102594419D01*
X107654962Y-102601651D01*
X107674368Y-102610830D01*
X107692781Y-102621866D01*
X107710024Y-102634654D01*
X107725930Y-102649070D01*
X107740346Y-102664976D01*
X107753134Y-102682219D01*
X107764170Y-102700632D01*
X107773349Y-102720038D01*
X107780581Y-102740250D01*
X107785797Y-102761074D01*
X107788947Y-102782309D01*
X107790000Y-102803750D01*
X107790000Y-103241250D01*
X107788947Y-103262691D01*
X107785797Y-103283926D01*
X107780581Y-103304750D01*
X107773349Y-103324962D01*
X107764170Y-103344368D01*
X107753134Y-103362781D01*
X107740346Y-103380024D01*
X107725930Y-103395930D01*
X107710024Y-103410346D01*
X107692781Y-103423134D01*
X107674368Y-103434170D01*
X107654962Y-103443349D01*
X107634750Y-103450581D01*
X107613926Y-103455797D01*
X107592691Y-103458947D01*
X107571250Y-103460000D01*
X107058750Y-103460000D01*
X107037309Y-103458947D01*
X107016074Y-103455797D01*
X106995250Y-103450581D01*
X106975038Y-103443349D01*
X106955632Y-103434170D01*
X106937219Y-103423134D01*
X106919976Y-103410346D01*
X106904070Y-103395930D01*
X106889654Y-103380024D01*
X106876866Y-103362781D01*
X106865830Y-103344368D01*
X106856651Y-103324962D01*
X106849419Y-103304750D01*
X106844203Y-103283926D01*
X106841053Y-103262691D01*
X106840000Y-103241250D01*
X106840000Y-102803750D01*
X106841053Y-102782309D01*
X106844203Y-102761074D01*
X106849419Y-102740250D01*
X106856651Y-102720038D01*
X106865830Y-102700632D01*
X106876866Y-102682219D01*
X106889654Y-102664976D01*
X106904070Y-102649070D01*
X106919976Y-102634654D01*
X106937219Y-102621866D01*
X106955632Y-102610830D01*
X106975038Y-102601651D01*
X106995250Y-102594419D01*
X107016074Y-102589203D01*
X107037309Y-102586053D01*
X107058750Y-102585000D01*
X107571250Y-102585000D01*
X107592691Y-102586053D01*
X107592691Y-102586053D01*
G37*
D11*
X107315000Y-103022500D03*
D10*
G36*
X107592691Y-101011053D02*
G01*
X107613926Y-101014203D01*
X107634750Y-101019419D01*
X107654962Y-101026651D01*
X107674368Y-101035830D01*
X107692781Y-101046866D01*
X107710024Y-101059654D01*
X107725930Y-101074070D01*
X107740346Y-101089976D01*
X107753134Y-101107219D01*
X107764170Y-101125632D01*
X107773349Y-101145038D01*
X107780581Y-101165250D01*
X107785797Y-101186074D01*
X107788947Y-101207309D01*
X107790000Y-101228750D01*
X107790000Y-101666250D01*
X107788947Y-101687691D01*
X107785797Y-101708926D01*
X107780581Y-101729750D01*
X107773349Y-101749962D01*
X107764170Y-101769368D01*
X107753134Y-101787781D01*
X107740346Y-101805024D01*
X107725930Y-101820930D01*
X107710024Y-101835346D01*
X107692781Y-101848134D01*
X107674368Y-101859170D01*
X107654962Y-101868349D01*
X107634750Y-101875581D01*
X107613926Y-101880797D01*
X107592691Y-101883947D01*
X107571250Y-101885000D01*
X107058750Y-101885000D01*
X107037309Y-101883947D01*
X107016074Y-101880797D01*
X106995250Y-101875581D01*
X106975038Y-101868349D01*
X106955632Y-101859170D01*
X106937219Y-101848134D01*
X106919976Y-101835346D01*
X106904070Y-101820930D01*
X106889654Y-101805024D01*
X106876866Y-101787781D01*
X106865830Y-101769368D01*
X106856651Y-101749962D01*
X106849419Y-101729750D01*
X106844203Y-101708926D01*
X106841053Y-101687691D01*
X106840000Y-101666250D01*
X106840000Y-101228750D01*
X106841053Y-101207309D01*
X106844203Y-101186074D01*
X106849419Y-101165250D01*
X106856651Y-101145038D01*
X106865830Y-101125632D01*
X106876866Y-101107219D01*
X106889654Y-101089976D01*
X106904070Y-101074070D01*
X106919976Y-101059654D01*
X106937219Y-101046866D01*
X106955632Y-101035830D01*
X106975038Y-101026651D01*
X106995250Y-101019419D01*
X107016074Y-101014203D01*
X107037309Y-101011053D01*
X107058750Y-101010000D01*
X107571250Y-101010000D01*
X107592691Y-101011053D01*
X107592691Y-101011053D01*
G37*
D11*
X107315000Y-101447500D03*
D10*
G36*
X141247691Y-87981053D02*
G01*
X141268926Y-87984203D01*
X141289750Y-87989419D01*
X141309962Y-87996651D01*
X141329368Y-88005830D01*
X141347781Y-88016866D01*
X141365024Y-88029654D01*
X141380930Y-88044070D01*
X141395346Y-88059976D01*
X141408134Y-88077219D01*
X141419170Y-88095632D01*
X141428349Y-88115038D01*
X141435581Y-88135250D01*
X141440797Y-88156074D01*
X141443947Y-88177309D01*
X141445000Y-88198750D01*
X141445000Y-88636250D01*
X141443947Y-88657691D01*
X141440797Y-88678926D01*
X141435581Y-88699750D01*
X141428349Y-88719962D01*
X141419170Y-88739368D01*
X141408134Y-88757781D01*
X141395346Y-88775024D01*
X141380930Y-88790930D01*
X141365024Y-88805346D01*
X141347781Y-88818134D01*
X141329368Y-88829170D01*
X141309962Y-88838349D01*
X141289750Y-88845581D01*
X141268926Y-88850797D01*
X141247691Y-88853947D01*
X141226250Y-88855000D01*
X140713750Y-88855000D01*
X140692309Y-88853947D01*
X140671074Y-88850797D01*
X140650250Y-88845581D01*
X140630038Y-88838349D01*
X140610632Y-88829170D01*
X140592219Y-88818134D01*
X140574976Y-88805346D01*
X140559070Y-88790930D01*
X140544654Y-88775024D01*
X140531866Y-88757781D01*
X140520830Y-88739368D01*
X140511651Y-88719962D01*
X140504419Y-88699750D01*
X140499203Y-88678926D01*
X140496053Y-88657691D01*
X140495000Y-88636250D01*
X140495000Y-88198750D01*
X140496053Y-88177309D01*
X140499203Y-88156074D01*
X140504419Y-88135250D01*
X140511651Y-88115038D01*
X140520830Y-88095632D01*
X140531866Y-88077219D01*
X140544654Y-88059976D01*
X140559070Y-88044070D01*
X140574976Y-88029654D01*
X140592219Y-88016866D01*
X140610632Y-88005830D01*
X140630038Y-87996651D01*
X140650250Y-87989419D01*
X140671074Y-87984203D01*
X140692309Y-87981053D01*
X140713750Y-87980000D01*
X141226250Y-87980000D01*
X141247691Y-87981053D01*
X141247691Y-87981053D01*
G37*
D11*
X140970000Y-88417500D03*
D10*
G36*
X141247691Y-86406053D02*
G01*
X141268926Y-86409203D01*
X141289750Y-86414419D01*
X141309962Y-86421651D01*
X141329368Y-86430830D01*
X141347781Y-86441866D01*
X141365024Y-86454654D01*
X141380930Y-86469070D01*
X141395346Y-86484976D01*
X141408134Y-86502219D01*
X141419170Y-86520632D01*
X141428349Y-86540038D01*
X141435581Y-86560250D01*
X141440797Y-86581074D01*
X141443947Y-86602309D01*
X141445000Y-86623750D01*
X141445000Y-87061250D01*
X141443947Y-87082691D01*
X141440797Y-87103926D01*
X141435581Y-87124750D01*
X141428349Y-87144962D01*
X141419170Y-87164368D01*
X141408134Y-87182781D01*
X141395346Y-87200024D01*
X141380930Y-87215930D01*
X141365024Y-87230346D01*
X141347781Y-87243134D01*
X141329368Y-87254170D01*
X141309962Y-87263349D01*
X141289750Y-87270581D01*
X141268926Y-87275797D01*
X141247691Y-87278947D01*
X141226250Y-87280000D01*
X140713750Y-87280000D01*
X140692309Y-87278947D01*
X140671074Y-87275797D01*
X140650250Y-87270581D01*
X140630038Y-87263349D01*
X140610632Y-87254170D01*
X140592219Y-87243134D01*
X140574976Y-87230346D01*
X140559070Y-87215930D01*
X140544654Y-87200024D01*
X140531866Y-87182781D01*
X140520830Y-87164368D01*
X140511651Y-87144962D01*
X140504419Y-87124750D01*
X140499203Y-87103926D01*
X140496053Y-87082691D01*
X140495000Y-87061250D01*
X140495000Y-86623750D01*
X140496053Y-86602309D01*
X140499203Y-86581074D01*
X140504419Y-86560250D01*
X140511651Y-86540038D01*
X140520830Y-86520632D01*
X140531866Y-86502219D01*
X140544654Y-86484976D01*
X140559070Y-86469070D01*
X140574976Y-86454654D01*
X140592219Y-86441866D01*
X140610632Y-86430830D01*
X140630038Y-86421651D01*
X140650250Y-86414419D01*
X140671074Y-86409203D01*
X140692309Y-86406053D01*
X140713750Y-86405000D01*
X141226250Y-86405000D01*
X141247691Y-86406053D01*
X141247691Y-86406053D01*
G37*
D11*
X140970000Y-86842500D03*
D10*
G36*
X136167691Y-86406053D02*
G01*
X136188926Y-86409203D01*
X136209750Y-86414419D01*
X136229962Y-86421651D01*
X136249368Y-86430830D01*
X136267781Y-86441866D01*
X136285024Y-86454654D01*
X136300930Y-86469070D01*
X136315346Y-86484976D01*
X136328134Y-86502219D01*
X136339170Y-86520632D01*
X136348349Y-86540038D01*
X136355581Y-86560250D01*
X136360797Y-86581074D01*
X136363947Y-86602309D01*
X136365000Y-86623750D01*
X136365000Y-87061250D01*
X136363947Y-87082691D01*
X136360797Y-87103926D01*
X136355581Y-87124750D01*
X136348349Y-87144962D01*
X136339170Y-87164368D01*
X136328134Y-87182781D01*
X136315346Y-87200024D01*
X136300930Y-87215930D01*
X136285024Y-87230346D01*
X136267781Y-87243134D01*
X136249368Y-87254170D01*
X136229962Y-87263349D01*
X136209750Y-87270581D01*
X136188926Y-87275797D01*
X136167691Y-87278947D01*
X136146250Y-87280000D01*
X135633750Y-87280000D01*
X135612309Y-87278947D01*
X135591074Y-87275797D01*
X135570250Y-87270581D01*
X135550038Y-87263349D01*
X135530632Y-87254170D01*
X135512219Y-87243134D01*
X135494976Y-87230346D01*
X135479070Y-87215930D01*
X135464654Y-87200024D01*
X135451866Y-87182781D01*
X135440830Y-87164368D01*
X135431651Y-87144962D01*
X135424419Y-87124750D01*
X135419203Y-87103926D01*
X135416053Y-87082691D01*
X135415000Y-87061250D01*
X135415000Y-86623750D01*
X135416053Y-86602309D01*
X135419203Y-86581074D01*
X135424419Y-86560250D01*
X135431651Y-86540038D01*
X135440830Y-86520632D01*
X135451866Y-86502219D01*
X135464654Y-86484976D01*
X135479070Y-86469070D01*
X135494976Y-86454654D01*
X135512219Y-86441866D01*
X135530632Y-86430830D01*
X135550038Y-86421651D01*
X135570250Y-86414419D01*
X135591074Y-86409203D01*
X135612309Y-86406053D01*
X135633750Y-86405000D01*
X136146250Y-86405000D01*
X136167691Y-86406053D01*
X136167691Y-86406053D01*
G37*
D11*
X135890000Y-86842500D03*
D10*
G36*
X136167691Y-87981053D02*
G01*
X136188926Y-87984203D01*
X136209750Y-87989419D01*
X136229962Y-87996651D01*
X136249368Y-88005830D01*
X136267781Y-88016866D01*
X136285024Y-88029654D01*
X136300930Y-88044070D01*
X136315346Y-88059976D01*
X136328134Y-88077219D01*
X136339170Y-88095632D01*
X136348349Y-88115038D01*
X136355581Y-88135250D01*
X136360797Y-88156074D01*
X136363947Y-88177309D01*
X136365000Y-88198750D01*
X136365000Y-88636250D01*
X136363947Y-88657691D01*
X136360797Y-88678926D01*
X136355581Y-88699750D01*
X136348349Y-88719962D01*
X136339170Y-88739368D01*
X136328134Y-88757781D01*
X136315346Y-88775024D01*
X136300930Y-88790930D01*
X136285024Y-88805346D01*
X136267781Y-88818134D01*
X136249368Y-88829170D01*
X136229962Y-88838349D01*
X136209750Y-88845581D01*
X136188926Y-88850797D01*
X136167691Y-88853947D01*
X136146250Y-88855000D01*
X135633750Y-88855000D01*
X135612309Y-88853947D01*
X135591074Y-88850797D01*
X135570250Y-88845581D01*
X135550038Y-88838349D01*
X135530632Y-88829170D01*
X135512219Y-88818134D01*
X135494976Y-88805346D01*
X135479070Y-88790930D01*
X135464654Y-88775024D01*
X135451866Y-88757781D01*
X135440830Y-88739368D01*
X135431651Y-88719962D01*
X135424419Y-88699750D01*
X135419203Y-88678926D01*
X135416053Y-88657691D01*
X135415000Y-88636250D01*
X135415000Y-88198750D01*
X135416053Y-88177309D01*
X135419203Y-88156074D01*
X135424419Y-88135250D01*
X135431651Y-88115038D01*
X135440830Y-88095632D01*
X135451866Y-88077219D01*
X135464654Y-88059976D01*
X135479070Y-88044070D01*
X135494976Y-88029654D01*
X135512219Y-88016866D01*
X135530632Y-88005830D01*
X135550038Y-87996651D01*
X135570250Y-87989419D01*
X135591074Y-87984203D01*
X135612309Y-87981053D01*
X135633750Y-87980000D01*
X136146250Y-87980000D01*
X136167691Y-87981053D01*
X136167691Y-87981053D01*
G37*
D11*
X135890000Y-88417500D03*
D10*
G36*
X122297691Y-83866053D02*
G01*
X122318926Y-83869203D01*
X122339750Y-83874419D01*
X122359962Y-83881651D01*
X122379368Y-83890830D01*
X122397781Y-83901866D01*
X122415024Y-83914654D01*
X122430930Y-83929070D01*
X122445346Y-83944976D01*
X122458134Y-83962219D01*
X122469170Y-83980632D01*
X122478349Y-84000038D01*
X122485581Y-84020250D01*
X122490797Y-84041074D01*
X122493947Y-84062309D01*
X122495000Y-84083750D01*
X122495000Y-84521250D01*
X122493947Y-84542691D01*
X122490797Y-84563926D01*
X122485581Y-84584750D01*
X122478349Y-84604962D01*
X122469170Y-84624368D01*
X122458134Y-84642781D01*
X122445346Y-84660024D01*
X122430930Y-84675930D01*
X122415024Y-84690346D01*
X122397781Y-84703134D01*
X122379368Y-84714170D01*
X122359962Y-84723349D01*
X122339750Y-84730581D01*
X122318926Y-84735797D01*
X122297691Y-84738947D01*
X122276250Y-84740000D01*
X121763750Y-84740000D01*
X121742309Y-84738947D01*
X121721074Y-84735797D01*
X121700250Y-84730581D01*
X121680038Y-84723349D01*
X121660632Y-84714170D01*
X121642219Y-84703134D01*
X121624976Y-84690346D01*
X121609070Y-84675930D01*
X121594654Y-84660024D01*
X121581866Y-84642781D01*
X121570830Y-84624368D01*
X121561651Y-84604962D01*
X121554419Y-84584750D01*
X121549203Y-84563926D01*
X121546053Y-84542691D01*
X121545000Y-84521250D01*
X121545000Y-84083750D01*
X121546053Y-84062309D01*
X121549203Y-84041074D01*
X121554419Y-84020250D01*
X121561651Y-84000038D01*
X121570830Y-83980632D01*
X121581866Y-83962219D01*
X121594654Y-83944976D01*
X121609070Y-83929070D01*
X121624976Y-83914654D01*
X121642219Y-83901866D01*
X121660632Y-83890830D01*
X121680038Y-83881651D01*
X121700250Y-83874419D01*
X121721074Y-83869203D01*
X121742309Y-83866053D01*
X121763750Y-83865000D01*
X122276250Y-83865000D01*
X122297691Y-83866053D01*
X122297691Y-83866053D01*
G37*
D11*
X122020000Y-84302500D03*
D10*
G36*
X122297691Y-85441053D02*
G01*
X122318926Y-85444203D01*
X122339750Y-85449419D01*
X122359962Y-85456651D01*
X122379368Y-85465830D01*
X122397781Y-85476866D01*
X122415024Y-85489654D01*
X122430930Y-85504070D01*
X122445346Y-85519976D01*
X122458134Y-85537219D01*
X122469170Y-85555632D01*
X122478349Y-85575038D01*
X122485581Y-85595250D01*
X122490797Y-85616074D01*
X122493947Y-85637309D01*
X122495000Y-85658750D01*
X122495000Y-86096250D01*
X122493947Y-86117691D01*
X122490797Y-86138926D01*
X122485581Y-86159750D01*
X122478349Y-86179962D01*
X122469170Y-86199368D01*
X122458134Y-86217781D01*
X122445346Y-86235024D01*
X122430930Y-86250930D01*
X122415024Y-86265346D01*
X122397781Y-86278134D01*
X122379368Y-86289170D01*
X122359962Y-86298349D01*
X122339750Y-86305581D01*
X122318926Y-86310797D01*
X122297691Y-86313947D01*
X122276250Y-86315000D01*
X121763750Y-86315000D01*
X121742309Y-86313947D01*
X121721074Y-86310797D01*
X121700250Y-86305581D01*
X121680038Y-86298349D01*
X121660632Y-86289170D01*
X121642219Y-86278134D01*
X121624976Y-86265346D01*
X121609070Y-86250930D01*
X121594654Y-86235024D01*
X121581866Y-86217781D01*
X121570830Y-86199368D01*
X121561651Y-86179962D01*
X121554419Y-86159750D01*
X121549203Y-86138926D01*
X121546053Y-86117691D01*
X121545000Y-86096250D01*
X121545000Y-85658750D01*
X121546053Y-85637309D01*
X121549203Y-85616074D01*
X121554419Y-85595250D01*
X121561651Y-85575038D01*
X121570830Y-85555632D01*
X121581866Y-85537219D01*
X121594654Y-85519976D01*
X121609070Y-85504070D01*
X121624976Y-85489654D01*
X121642219Y-85476866D01*
X121660632Y-85465830D01*
X121680038Y-85456651D01*
X121700250Y-85449419D01*
X121721074Y-85444203D01*
X121742309Y-85441053D01*
X121763750Y-85440000D01*
X122276250Y-85440000D01*
X122297691Y-85441053D01*
X122297691Y-85441053D01*
G37*
D11*
X122020000Y-85877500D03*
D10*
G36*
X135913691Y-84679053D02*
G01*
X135934926Y-84682203D01*
X135955750Y-84687419D01*
X135975962Y-84694651D01*
X135995368Y-84703830D01*
X136013781Y-84714866D01*
X136031024Y-84727654D01*
X136046930Y-84742070D01*
X136061346Y-84757976D01*
X136074134Y-84775219D01*
X136085170Y-84793632D01*
X136094349Y-84813038D01*
X136101581Y-84833250D01*
X136106797Y-84854074D01*
X136109947Y-84875309D01*
X136111000Y-84896750D01*
X136111000Y-85334250D01*
X136109947Y-85355691D01*
X136106797Y-85376926D01*
X136101581Y-85397750D01*
X136094349Y-85417962D01*
X136085170Y-85437368D01*
X136074134Y-85455781D01*
X136061346Y-85473024D01*
X136046930Y-85488930D01*
X136031024Y-85503346D01*
X136013781Y-85516134D01*
X135995368Y-85527170D01*
X135975962Y-85536349D01*
X135955750Y-85543581D01*
X135934926Y-85548797D01*
X135913691Y-85551947D01*
X135892250Y-85553000D01*
X135379750Y-85553000D01*
X135358309Y-85551947D01*
X135337074Y-85548797D01*
X135316250Y-85543581D01*
X135296038Y-85536349D01*
X135276632Y-85527170D01*
X135258219Y-85516134D01*
X135240976Y-85503346D01*
X135225070Y-85488930D01*
X135210654Y-85473024D01*
X135197866Y-85455781D01*
X135186830Y-85437368D01*
X135177651Y-85417962D01*
X135170419Y-85397750D01*
X135165203Y-85376926D01*
X135162053Y-85355691D01*
X135161000Y-85334250D01*
X135161000Y-84896750D01*
X135162053Y-84875309D01*
X135165203Y-84854074D01*
X135170419Y-84833250D01*
X135177651Y-84813038D01*
X135186830Y-84793632D01*
X135197866Y-84775219D01*
X135210654Y-84757976D01*
X135225070Y-84742070D01*
X135240976Y-84727654D01*
X135258219Y-84714866D01*
X135276632Y-84703830D01*
X135296038Y-84694651D01*
X135316250Y-84687419D01*
X135337074Y-84682203D01*
X135358309Y-84679053D01*
X135379750Y-84678000D01*
X135892250Y-84678000D01*
X135913691Y-84679053D01*
X135913691Y-84679053D01*
G37*
D11*
X135636000Y-85115500D03*
D10*
G36*
X135913691Y-83104053D02*
G01*
X135934926Y-83107203D01*
X135955750Y-83112419D01*
X135975962Y-83119651D01*
X135995368Y-83128830D01*
X136013781Y-83139866D01*
X136031024Y-83152654D01*
X136046930Y-83167070D01*
X136061346Y-83182976D01*
X136074134Y-83200219D01*
X136085170Y-83218632D01*
X136094349Y-83238038D01*
X136101581Y-83258250D01*
X136106797Y-83279074D01*
X136109947Y-83300309D01*
X136111000Y-83321750D01*
X136111000Y-83759250D01*
X136109947Y-83780691D01*
X136106797Y-83801926D01*
X136101581Y-83822750D01*
X136094349Y-83842962D01*
X136085170Y-83862368D01*
X136074134Y-83880781D01*
X136061346Y-83898024D01*
X136046930Y-83913930D01*
X136031024Y-83928346D01*
X136013781Y-83941134D01*
X135995368Y-83952170D01*
X135975962Y-83961349D01*
X135955750Y-83968581D01*
X135934926Y-83973797D01*
X135913691Y-83976947D01*
X135892250Y-83978000D01*
X135379750Y-83978000D01*
X135358309Y-83976947D01*
X135337074Y-83973797D01*
X135316250Y-83968581D01*
X135296038Y-83961349D01*
X135276632Y-83952170D01*
X135258219Y-83941134D01*
X135240976Y-83928346D01*
X135225070Y-83913930D01*
X135210654Y-83898024D01*
X135197866Y-83880781D01*
X135186830Y-83862368D01*
X135177651Y-83842962D01*
X135170419Y-83822750D01*
X135165203Y-83801926D01*
X135162053Y-83780691D01*
X135161000Y-83759250D01*
X135161000Y-83321750D01*
X135162053Y-83300309D01*
X135165203Y-83279074D01*
X135170419Y-83258250D01*
X135177651Y-83238038D01*
X135186830Y-83218632D01*
X135197866Y-83200219D01*
X135210654Y-83182976D01*
X135225070Y-83167070D01*
X135240976Y-83152654D01*
X135258219Y-83139866D01*
X135276632Y-83128830D01*
X135296038Y-83119651D01*
X135316250Y-83112419D01*
X135337074Y-83107203D01*
X135358309Y-83104053D01*
X135379750Y-83103000D01*
X135892250Y-83103000D01*
X135913691Y-83104053D01*
X135913691Y-83104053D01*
G37*
D11*
X135636000Y-83540500D03*
D10*
G36*
X163917691Y-89061053D02*
G01*
X163938926Y-89064203D01*
X163959750Y-89069419D01*
X163979962Y-89076651D01*
X163999368Y-89085830D01*
X164017781Y-89096866D01*
X164035024Y-89109654D01*
X164050930Y-89124070D01*
X164065346Y-89139976D01*
X164078134Y-89157219D01*
X164089170Y-89175632D01*
X164098349Y-89195038D01*
X164105581Y-89215250D01*
X164110797Y-89236074D01*
X164113947Y-89257309D01*
X164115000Y-89278750D01*
X164115000Y-89791250D01*
X164113947Y-89812691D01*
X164110797Y-89833926D01*
X164105581Y-89854750D01*
X164098349Y-89874962D01*
X164089170Y-89894368D01*
X164078134Y-89912781D01*
X164065346Y-89930024D01*
X164050930Y-89945930D01*
X164035024Y-89960346D01*
X164017781Y-89973134D01*
X163999368Y-89984170D01*
X163979962Y-89993349D01*
X163959750Y-90000581D01*
X163938926Y-90005797D01*
X163917691Y-90008947D01*
X163896250Y-90010000D01*
X163458750Y-90010000D01*
X163437309Y-90008947D01*
X163416074Y-90005797D01*
X163395250Y-90000581D01*
X163375038Y-89993349D01*
X163355632Y-89984170D01*
X163337219Y-89973134D01*
X163319976Y-89960346D01*
X163304070Y-89945930D01*
X163289654Y-89930024D01*
X163276866Y-89912781D01*
X163265830Y-89894368D01*
X163256651Y-89874962D01*
X163249419Y-89854750D01*
X163244203Y-89833926D01*
X163241053Y-89812691D01*
X163240000Y-89791250D01*
X163240000Y-89278750D01*
X163241053Y-89257309D01*
X163244203Y-89236074D01*
X163249419Y-89215250D01*
X163256651Y-89195038D01*
X163265830Y-89175632D01*
X163276866Y-89157219D01*
X163289654Y-89139976D01*
X163304070Y-89124070D01*
X163319976Y-89109654D01*
X163337219Y-89096866D01*
X163355632Y-89085830D01*
X163375038Y-89076651D01*
X163395250Y-89069419D01*
X163416074Y-89064203D01*
X163437309Y-89061053D01*
X163458750Y-89060000D01*
X163896250Y-89060000D01*
X163917691Y-89061053D01*
X163917691Y-89061053D01*
G37*
D11*
X163677500Y-89535000D03*
D10*
G36*
X165492691Y-89061053D02*
G01*
X165513926Y-89064203D01*
X165534750Y-89069419D01*
X165554962Y-89076651D01*
X165574368Y-89085830D01*
X165592781Y-89096866D01*
X165610024Y-89109654D01*
X165625930Y-89124070D01*
X165640346Y-89139976D01*
X165653134Y-89157219D01*
X165664170Y-89175632D01*
X165673349Y-89195038D01*
X165680581Y-89215250D01*
X165685797Y-89236074D01*
X165688947Y-89257309D01*
X165690000Y-89278750D01*
X165690000Y-89791250D01*
X165688947Y-89812691D01*
X165685797Y-89833926D01*
X165680581Y-89854750D01*
X165673349Y-89874962D01*
X165664170Y-89894368D01*
X165653134Y-89912781D01*
X165640346Y-89930024D01*
X165625930Y-89945930D01*
X165610024Y-89960346D01*
X165592781Y-89973134D01*
X165574368Y-89984170D01*
X165554962Y-89993349D01*
X165534750Y-90000581D01*
X165513926Y-90005797D01*
X165492691Y-90008947D01*
X165471250Y-90010000D01*
X165033750Y-90010000D01*
X165012309Y-90008947D01*
X164991074Y-90005797D01*
X164970250Y-90000581D01*
X164950038Y-89993349D01*
X164930632Y-89984170D01*
X164912219Y-89973134D01*
X164894976Y-89960346D01*
X164879070Y-89945930D01*
X164864654Y-89930024D01*
X164851866Y-89912781D01*
X164840830Y-89894368D01*
X164831651Y-89874962D01*
X164824419Y-89854750D01*
X164819203Y-89833926D01*
X164816053Y-89812691D01*
X164815000Y-89791250D01*
X164815000Y-89278750D01*
X164816053Y-89257309D01*
X164819203Y-89236074D01*
X164824419Y-89215250D01*
X164831651Y-89195038D01*
X164840830Y-89175632D01*
X164851866Y-89157219D01*
X164864654Y-89139976D01*
X164879070Y-89124070D01*
X164894976Y-89109654D01*
X164912219Y-89096866D01*
X164930632Y-89085830D01*
X164950038Y-89076651D01*
X164970250Y-89069419D01*
X164991074Y-89064203D01*
X165012309Y-89061053D01*
X165033750Y-89060000D01*
X165471250Y-89060000D01*
X165492691Y-89061053D01*
X165492691Y-89061053D01*
G37*
D11*
X165252500Y-89535000D03*
D10*
G36*
X165619691Y-80552053D02*
G01*
X165640926Y-80555203D01*
X165661750Y-80560419D01*
X165681962Y-80567651D01*
X165701368Y-80576830D01*
X165719781Y-80587866D01*
X165737024Y-80600654D01*
X165752930Y-80615070D01*
X165767346Y-80630976D01*
X165780134Y-80648219D01*
X165791170Y-80666632D01*
X165800349Y-80686038D01*
X165807581Y-80706250D01*
X165812797Y-80727074D01*
X165815947Y-80748309D01*
X165817000Y-80769750D01*
X165817000Y-81282250D01*
X165815947Y-81303691D01*
X165812797Y-81324926D01*
X165807581Y-81345750D01*
X165800349Y-81365962D01*
X165791170Y-81385368D01*
X165780134Y-81403781D01*
X165767346Y-81421024D01*
X165752930Y-81436930D01*
X165737024Y-81451346D01*
X165719781Y-81464134D01*
X165701368Y-81475170D01*
X165681962Y-81484349D01*
X165661750Y-81491581D01*
X165640926Y-81496797D01*
X165619691Y-81499947D01*
X165598250Y-81501000D01*
X165160750Y-81501000D01*
X165139309Y-81499947D01*
X165118074Y-81496797D01*
X165097250Y-81491581D01*
X165077038Y-81484349D01*
X165057632Y-81475170D01*
X165039219Y-81464134D01*
X165021976Y-81451346D01*
X165006070Y-81436930D01*
X164991654Y-81421024D01*
X164978866Y-81403781D01*
X164967830Y-81385368D01*
X164958651Y-81365962D01*
X164951419Y-81345750D01*
X164946203Y-81324926D01*
X164943053Y-81303691D01*
X164942000Y-81282250D01*
X164942000Y-80769750D01*
X164943053Y-80748309D01*
X164946203Y-80727074D01*
X164951419Y-80706250D01*
X164958651Y-80686038D01*
X164967830Y-80666632D01*
X164978866Y-80648219D01*
X164991654Y-80630976D01*
X165006070Y-80615070D01*
X165021976Y-80600654D01*
X165039219Y-80587866D01*
X165057632Y-80576830D01*
X165077038Y-80567651D01*
X165097250Y-80560419D01*
X165118074Y-80555203D01*
X165139309Y-80552053D01*
X165160750Y-80551000D01*
X165598250Y-80551000D01*
X165619691Y-80552053D01*
X165619691Y-80552053D01*
G37*
D11*
X165379500Y-81026000D03*
D10*
G36*
X164044691Y-80552053D02*
G01*
X164065926Y-80555203D01*
X164086750Y-80560419D01*
X164106962Y-80567651D01*
X164126368Y-80576830D01*
X164144781Y-80587866D01*
X164162024Y-80600654D01*
X164177930Y-80615070D01*
X164192346Y-80630976D01*
X164205134Y-80648219D01*
X164216170Y-80666632D01*
X164225349Y-80686038D01*
X164232581Y-80706250D01*
X164237797Y-80727074D01*
X164240947Y-80748309D01*
X164242000Y-80769750D01*
X164242000Y-81282250D01*
X164240947Y-81303691D01*
X164237797Y-81324926D01*
X164232581Y-81345750D01*
X164225349Y-81365962D01*
X164216170Y-81385368D01*
X164205134Y-81403781D01*
X164192346Y-81421024D01*
X164177930Y-81436930D01*
X164162024Y-81451346D01*
X164144781Y-81464134D01*
X164126368Y-81475170D01*
X164106962Y-81484349D01*
X164086750Y-81491581D01*
X164065926Y-81496797D01*
X164044691Y-81499947D01*
X164023250Y-81501000D01*
X163585750Y-81501000D01*
X163564309Y-81499947D01*
X163543074Y-81496797D01*
X163522250Y-81491581D01*
X163502038Y-81484349D01*
X163482632Y-81475170D01*
X163464219Y-81464134D01*
X163446976Y-81451346D01*
X163431070Y-81436930D01*
X163416654Y-81421024D01*
X163403866Y-81403781D01*
X163392830Y-81385368D01*
X163383651Y-81365962D01*
X163376419Y-81345750D01*
X163371203Y-81324926D01*
X163368053Y-81303691D01*
X163367000Y-81282250D01*
X163367000Y-80769750D01*
X163368053Y-80748309D01*
X163371203Y-80727074D01*
X163376419Y-80706250D01*
X163383651Y-80686038D01*
X163392830Y-80666632D01*
X163403866Y-80648219D01*
X163416654Y-80630976D01*
X163431070Y-80615070D01*
X163446976Y-80600654D01*
X163464219Y-80587866D01*
X163482632Y-80576830D01*
X163502038Y-80567651D01*
X163522250Y-80560419D01*
X163543074Y-80555203D01*
X163564309Y-80552053D01*
X163585750Y-80551000D01*
X164023250Y-80551000D01*
X164044691Y-80552053D01*
X164044691Y-80552053D01*
G37*
D11*
X163804500Y-81026000D03*
D10*
G36*
X115947691Y-78876053D02*
G01*
X115968926Y-78879203D01*
X115989750Y-78884419D01*
X116009962Y-78891651D01*
X116029368Y-78900830D01*
X116047781Y-78911866D01*
X116065024Y-78924654D01*
X116080930Y-78939070D01*
X116095346Y-78954976D01*
X116108134Y-78972219D01*
X116119170Y-78990632D01*
X116128349Y-79010038D01*
X116135581Y-79030250D01*
X116140797Y-79051074D01*
X116143947Y-79072309D01*
X116145000Y-79093750D01*
X116145000Y-79531250D01*
X116143947Y-79552691D01*
X116140797Y-79573926D01*
X116135581Y-79594750D01*
X116128349Y-79614962D01*
X116119170Y-79634368D01*
X116108134Y-79652781D01*
X116095346Y-79670024D01*
X116080930Y-79685930D01*
X116065024Y-79700346D01*
X116047781Y-79713134D01*
X116029368Y-79724170D01*
X116009962Y-79733349D01*
X115989750Y-79740581D01*
X115968926Y-79745797D01*
X115947691Y-79748947D01*
X115926250Y-79750000D01*
X115413750Y-79750000D01*
X115392309Y-79748947D01*
X115371074Y-79745797D01*
X115350250Y-79740581D01*
X115330038Y-79733349D01*
X115310632Y-79724170D01*
X115292219Y-79713134D01*
X115274976Y-79700346D01*
X115259070Y-79685930D01*
X115244654Y-79670024D01*
X115231866Y-79652781D01*
X115220830Y-79634368D01*
X115211651Y-79614962D01*
X115204419Y-79594750D01*
X115199203Y-79573926D01*
X115196053Y-79552691D01*
X115195000Y-79531250D01*
X115195000Y-79093750D01*
X115196053Y-79072309D01*
X115199203Y-79051074D01*
X115204419Y-79030250D01*
X115211651Y-79010038D01*
X115220830Y-78990632D01*
X115231866Y-78972219D01*
X115244654Y-78954976D01*
X115259070Y-78939070D01*
X115274976Y-78924654D01*
X115292219Y-78911866D01*
X115310632Y-78900830D01*
X115330038Y-78891651D01*
X115350250Y-78884419D01*
X115371074Y-78879203D01*
X115392309Y-78876053D01*
X115413750Y-78875000D01*
X115926250Y-78875000D01*
X115947691Y-78876053D01*
X115947691Y-78876053D01*
G37*
D11*
X115670000Y-79312500D03*
D10*
G36*
X115947691Y-80451053D02*
G01*
X115968926Y-80454203D01*
X115989750Y-80459419D01*
X116009962Y-80466651D01*
X116029368Y-80475830D01*
X116047781Y-80486866D01*
X116065024Y-80499654D01*
X116080930Y-80514070D01*
X116095346Y-80529976D01*
X116108134Y-80547219D01*
X116119170Y-80565632D01*
X116128349Y-80585038D01*
X116135581Y-80605250D01*
X116140797Y-80626074D01*
X116143947Y-80647309D01*
X116145000Y-80668750D01*
X116145000Y-81106250D01*
X116143947Y-81127691D01*
X116140797Y-81148926D01*
X116135581Y-81169750D01*
X116128349Y-81189962D01*
X116119170Y-81209368D01*
X116108134Y-81227781D01*
X116095346Y-81245024D01*
X116080930Y-81260930D01*
X116065024Y-81275346D01*
X116047781Y-81288134D01*
X116029368Y-81299170D01*
X116009962Y-81308349D01*
X115989750Y-81315581D01*
X115968926Y-81320797D01*
X115947691Y-81323947D01*
X115926250Y-81325000D01*
X115413750Y-81325000D01*
X115392309Y-81323947D01*
X115371074Y-81320797D01*
X115350250Y-81315581D01*
X115330038Y-81308349D01*
X115310632Y-81299170D01*
X115292219Y-81288134D01*
X115274976Y-81275346D01*
X115259070Y-81260930D01*
X115244654Y-81245024D01*
X115231866Y-81227781D01*
X115220830Y-81209368D01*
X115211651Y-81189962D01*
X115204419Y-81169750D01*
X115199203Y-81148926D01*
X115196053Y-81127691D01*
X115195000Y-81106250D01*
X115195000Y-80668750D01*
X115196053Y-80647309D01*
X115199203Y-80626074D01*
X115204419Y-80605250D01*
X115211651Y-80585038D01*
X115220830Y-80565632D01*
X115231866Y-80547219D01*
X115244654Y-80529976D01*
X115259070Y-80514070D01*
X115274976Y-80499654D01*
X115292219Y-80486866D01*
X115310632Y-80475830D01*
X115330038Y-80466651D01*
X115350250Y-80459419D01*
X115371074Y-80454203D01*
X115392309Y-80451053D01*
X115413750Y-80450000D01*
X115926250Y-80450000D01*
X115947691Y-80451053D01*
X115947691Y-80451053D01*
G37*
D11*
X115670000Y-80887500D03*
D10*
G36*
X107592691Y-74976053D02*
G01*
X107613926Y-74979203D01*
X107634750Y-74984419D01*
X107654962Y-74991651D01*
X107674368Y-75000830D01*
X107692781Y-75011866D01*
X107710024Y-75024654D01*
X107725930Y-75039070D01*
X107740346Y-75054976D01*
X107753134Y-75072219D01*
X107764170Y-75090632D01*
X107773349Y-75110038D01*
X107780581Y-75130250D01*
X107785797Y-75151074D01*
X107788947Y-75172309D01*
X107790000Y-75193750D01*
X107790000Y-75631250D01*
X107788947Y-75652691D01*
X107785797Y-75673926D01*
X107780581Y-75694750D01*
X107773349Y-75714962D01*
X107764170Y-75734368D01*
X107753134Y-75752781D01*
X107740346Y-75770024D01*
X107725930Y-75785930D01*
X107710024Y-75800346D01*
X107692781Y-75813134D01*
X107674368Y-75824170D01*
X107654962Y-75833349D01*
X107634750Y-75840581D01*
X107613926Y-75845797D01*
X107592691Y-75848947D01*
X107571250Y-75850000D01*
X107058750Y-75850000D01*
X107037309Y-75848947D01*
X107016074Y-75845797D01*
X106995250Y-75840581D01*
X106975038Y-75833349D01*
X106955632Y-75824170D01*
X106937219Y-75813134D01*
X106919976Y-75800346D01*
X106904070Y-75785930D01*
X106889654Y-75770024D01*
X106876866Y-75752781D01*
X106865830Y-75734368D01*
X106856651Y-75714962D01*
X106849419Y-75694750D01*
X106844203Y-75673926D01*
X106841053Y-75652691D01*
X106840000Y-75631250D01*
X106840000Y-75193750D01*
X106841053Y-75172309D01*
X106844203Y-75151074D01*
X106849419Y-75130250D01*
X106856651Y-75110038D01*
X106865830Y-75090632D01*
X106876866Y-75072219D01*
X106889654Y-75054976D01*
X106904070Y-75039070D01*
X106919976Y-75024654D01*
X106937219Y-75011866D01*
X106955632Y-75000830D01*
X106975038Y-74991651D01*
X106995250Y-74984419D01*
X107016074Y-74979203D01*
X107037309Y-74976053D01*
X107058750Y-74975000D01*
X107571250Y-74975000D01*
X107592691Y-74976053D01*
X107592691Y-74976053D01*
G37*
D11*
X107315000Y-75412500D03*
D10*
G36*
X107592691Y-76551053D02*
G01*
X107613926Y-76554203D01*
X107634750Y-76559419D01*
X107654962Y-76566651D01*
X107674368Y-76575830D01*
X107692781Y-76586866D01*
X107710024Y-76599654D01*
X107725930Y-76614070D01*
X107740346Y-76629976D01*
X107753134Y-76647219D01*
X107764170Y-76665632D01*
X107773349Y-76685038D01*
X107780581Y-76705250D01*
X107785797Y-76726074D01*
X107788947Y-76747309D01*
X107790000Y-76768750D01*
X107790000Y-77206250D01*
X107788947Y-77227691D01*
X107785797Y-77248926D01*
X107780581Y-77269750D01*
X107773349Y-77289962D01*
X107764170Y-77309368D01*
X107753134Y-77327781D01*
X107740346Y-77345024D01*
X107725930Y-77360930D01*
X107710024Y-77375346D01*
X107692781Y-77388134D01*
X107674368Y-77399170D01*
X107654962Y-77408349D01*
X107634750Y-77415581D01*
X107613926Y-77420797D01*
X107592691Y-77423947D01*
X107571250Y-77425000D01*
X107058750Y-77425000D01*
X107037309Y-77423947D01*
X107016074Y-77420797D01*
X106995250Y-77415581D01*
X106975038Y-77408349D01*
X106955632Y-77399170D01*
X106937219Y-77388134D01*
X106919976Y-77375346D01*
X106904070Y-77360930D01*
X106889654Y-77345024D01*
X106876866Y-77327781D01*
X106865830Y-77309368D01*
X106856651Y-77289962D01*
X106849419Y-77269750D01*
X106844203Y-77248926D01*
X106841053Y-77227691D01*
X106840000Y-77206250D01*
X106840000Y-76768750D01*
X106841053Y-76747309D01*
X106844203Y-76726074D01*
X106849419Y-76705250D01*
X106856651Y-76685038D01*
X106865830Y-76665632D01*
X106876866Y-76647219D01*
X106889654Y-76629976D01*
X106904070Y-76614070D01*
X106919976Y-76599654D01*
X106937219Y-76586866D01*
X106955632Y-76575830D01*
X106975038Y-76566651D01*
X106995250Y-76559419D01*
X107016074Y-76554203D01*
X107037309Y-76551053D01*
X107058750Y-76550000D01*
X107571250Y-76550000D01*
X107592691Y-76551053D01*
X107592691Y-76551053D01*
G37*
D11*
X107315000Y-76987500D03*
D10*
G36*
X169302691Y-101761053D02*
G01*
X169323926Y-101764203D01*
X169344750Y-101769419D01*
X169364962Y-101776651D01*
X169384368Y-101785830D01*
X169402781Y-101796866D01*
X169420024Y-101809654D01*
X169435930Y-101824070D01*
X169450346Y-101839976D01*
X169463134Y-101857219D01*
X169474170Y-101875632D01*
X169483349Y-101895038D01*
X169490581Y-101915250D01*
X169495797Y-101936074D01*
X169498947Y-101957309D01*
X169500000Y-101978750D01*
X169500000Y-102491250D01*
X169498947Y-102512691D01*
X169495797Y-102533926D01*
X169490581Y-102554750D01*
X169483349Y-102574962D01*
X169474170Y-102594368D01*
X169463134Y-102612781D01*
X169450346Y-102630024D01*
X169435930Y-102645930D01*
X169420024Y-102660346D01*
X169402781Y-102673134D01*
X169384368Y-102684170D01*
X169364962Y-102693349D01*
X169344750Y-102700581D01*
X169323926Y-102705797D01*
X169302691Y-102708947D01*
X169281250Y-102710000D01*
X168843750Y-102710000D01*
X168822309Y-102708947D01*
X168801074Y-102705797D01*
X168780250Y-102700581D01*
X168760038Y-102693349D01*
X168740632Y-102684170D01*
X168722219Y-102673134D01*
X168704976Y-102660346D01*
X168689070Y-102645930D01*
X168674654Y-102630024D01*
X168661866Y-102612781D01*
X168650830Y-102594368D01*
X168641651Y-102574962D01*
X168634419Y-102554750D01*
X168629203Y-102533926D01*
X168626053Y-102512691D01*
X168625000Y-102491250D01*
X168625000Y-101978750D01*
X168626053Y-101957309D01*
X168629203Y-101936074D01*
X168634419Y-101915250D01*
X168641651Y-101895038D01*
X168650830Y-101875632D01*
X168661866Y-101857219D01*
X168674654Y-101839976D01*
X168689070Y-101824070D01*
X168704976Y-101809654D01*
X168722219Y-101796866D01*
X168740632Y-101785830D01*
X168760038Y-101776651D01*
X168780250Y-101769419D01*
X168801074Y-101764203D01*
X168822309Y-101761053D01*
X168843750Y-101760000D01*
X169281250Y-101760000D01*
X169302691Y-101761053D01*
X169302691Y-101761053D01*
G37*
D11*
X169062500Y-102235000D03*
D10*
G36*
X167727691Y-101761053D02*
G01*
X167748926Y-101764203D01*
X167769750Y-101769419D01*
X167789962Y-101776651D01*
X167809368Y-101785830D01*
X167827781Y-101796866D01*
X167845024Y-101809654D01*
X167860930Y-101824070D01*
X167875346Y-101839976D01*
X167888134Y-101857219D01*
X167899170Y-101875632D01*
X167908349Y-101895038D01*
X167915581Y-101915250D01*
X167920797Y-101936074D01*
X167923947Y-101957309D01*
X167925000Y-101978750D01*
X167925000Y-102491250D01*
X167923947Y-102512691D01*
X167920797Y-102533926D01*
X167915581Y-102554750D01*
X167908349Y-102574962D01*
X167899170Y-102594368D01*
X167888134Y-102612781D01*
X167875346Y-102630024D01*
X167860930Y-102645930D01*
X167845024Y-102660346D01*
X167827781Y-102673134D01*
X167809368Y-102684170D01*
X167789962Y-102693349D01*
X167769750Y-102700581D01*
X167748926Y-102705797D01*
X167727691Y-102708947D01*
X167706250Y-102710000D01*
X167268750Y-102710000D01*
X167247309Y-102708947D01*
X167226074Y-102705797D01*
X167205250Y-102700581D01*
X167185038Y-102693349D01*
X167165632Y-102684170D01*
X167147219Y-102673134D01*
X167129976Y-102660346D01*
X167114070Y-102645930D01*
X167099654Y-102630024D01*
X167086866Y-102612781D01*
X167075830Y-102594368D01*
X167066651Y-102574962D01*
X167059419Y-102554750D01*
X167054203Y-102533926D01*
X167051053Y-102512691D01*
X167050000Y-102491250D01*
X167050000Y-101978750D01*
X167051053Y-101957309D01*
X167054203Y-101936074D01*
X167059419Y-101915250D01*
X167066651Y-101895038D01*
X167075830Y-101875632D01*
X167086866Y-101857219D01*
X167099654Y-101839976D01*
X167114070Y-101824070D01*
X167129976Y-101809654D01*
X167147219Y-101796866D01*
X167165632Y-101785830D01*
X167185038Y-101776651D01*
X167205250Y-101769419D01*
X167226074Y-101764203D01*
X167247309Y-101761053D01*
X167268750Y-101760000D01*
X167706250Y-101760000D01*
X167727691Y-101761053D01*
X167727691Y-101761053D01*
G37*
D11*
X167487500Y-102235000D03*
D10*
G36*
X118387691Y-88096053D02*
G01*
X118408926Y-88099203D01*
X118429750Y-88104419D01*
X118449962Y-88111651D01*
X118469368Y-88120830D01*
X118487781Y-88131866D01*
X118505024Y-88144654D01*
X118520930Y-88159070D01*
X118535346Y-88174976D01*
X118548134Y-88192219D01*
X118559170Y-88210632D01*
X118568349Y-88230038D01*
X118575581Y-88250250D01*
X118580797Y-88271074D01*
X118583947Y-88292309D01*
X118585000Y-88313750D01*
X118585000Y-88751250D01*
X118583947Y-88772691D01*
X118580797Y-88793926D01*
X118575581Y-88814750D01*
X118568349Y-88834962D01*
X118559170Y-88854368D01*
X118548134Y-88872781D01*
X118535346Y-88890024D01*
X118520930Y-88905930D01*
X118505024Y-88920346D01*
X118487781Y-88933134D01*
X118469368Y-88944170D01*
X118449962Y-88953349D01*
X118429750Y-88960581D01*
X118408926Y-88965797D01*
X118387691Y-88968947D01*
X118366250Y-88970000D01*
X117853750Y-88970000D01*
X117832309Y-88968947D01*
X117811074Y-88965797D01*
X117790250Y-88960581D01*
X117770038Y-88953349D01*
X117750632Y-88944170D01*
X117732219Y-88933134D01*
X117714976Y-88920346D01*
X117699070Y-88905930D01*
X117684654Y-88890024D01*
X117671866Y-88872781D01*
X117660830Y-88854368D01*
X117651651Y-88834962D01*
X117644419Y-88814750D01*
X117639203Y-88793926D01*
X117636053Y-88772691D01*
X117635000Y-88751250D01*
X117635000Y-88313750D01*
X117636053Y-88292309D01*
X117639203Y-88271074D01*
X117644419Y-88250250D01*
X117651651Y-88230038D01*
X117660830Y-88210632D01*
X117671866Y-88192219D01*
X117684654Y-88174976D01*
X117699070Y-88159070D01*
X117714976Y-88144654D01*
X117732219Y-88131866D01*
X117750632Y-88120830D01*
X117770038Y-88111651D01*
X117790250Y-88104419D01*
X117811074Y-88099203D01*
X117832309Y-88096053D01*
X117853750Y-88095000D01*
X118366250Y-88095000D01*
X118387691Y-88096053D01*
X118387691Y-88096053D01*
G37*
D11*
X118110000Y-88532500D03*
D10*
G36*
X118387691Y-86521053D02*
G01*
X118408926Y-86524203D01*
X118429750Y-86529419D01*
X118449962Y-86536651D01*
X118469368Y-86545830D01*
X118487781Y-86556866D01*
X118505024Y-86569654D01*
X118520930Y-86584070D01*
X118535346Y-86599976D01*
X118548134Y-86617219D01*
X118559170Y-86635632D01*
X118568349Y-86655038D01*
X118575581Y-86675250D01*
X118580797Y-86696074D01*
X118583947Y-86717309D01*
X118585000Y-86738750D01*
X118585000Y-87176250D01*
X118583947Y-87197691D01*
X118580797Y-87218926D01*
X118575581Y-87239750D01*
X118568349Y-87259962D01*
X118559170Y-87279368D01*
X118548134Y-87297781D01*
X118535346Y-87315024D01*
X118520930Y-87330930D01*
X118505024Y-87345346D01*
X118487781Y-87358134D01*
X118469368Y-87369170D01*
X118449962Y-87378349D01*
X118429750Y-87385581D01*
X118408926Y-87390797D01*
X118387691Y-87393947D01*
X118366250Y-87395000D01*
X117853750Y-87395000D01*
X117832309Y-87393947D01*
X117811074Y-87390797D01*
X117790250Y-87385581D01*
X117770038Y-87378349D01*
X117750632Y-87369170D01*
X117732219Y-87358134D01*
X117714976Y-87345346D01*
X117699070Y-87330930D01*
X117684654Y-87315024D01*
X117671866Y-87297781D01*
X117660830Y-87279368D01*
X117651651Y-87259962D01*
X117644419Y-87239750D01*
X117639203Y-87218926D01*
X117636053Y-87197691D01*
X117635000Y-87176250D01*
X117635000Y-86738750D01*
X117636053Y-86717309D01*
X117639203Y-86696074D01*
X117644419Y-86675250D01*
X117651651Y-86655038D01*
X117660830Y-86635632D01*
X117671866Y-86617219D01*
X117684654Y-86599976D01*
X117699070Y-86584070D01*
X117714976Y-86569654D01*
X117732219Y-86556866D01*
X117750632Y-86545830D01*
X117770038Y-86536651D01*
X117790250Y-86529419D01*
X117811074Y-86524203D01*
X117832309Y-86521053D01*
X117853750Y-86520000D01*
X118366250Y-86520000D01*
X118387691Y-86521053D01*
X118387691Y-86521053D01*
G37*
D11*
X118110000Y-86957500D03*
D10*
G36*
X111402691Y-71471053D02*
G01*
X111423926Y-71474203D01*
X111444750Y-71479419D01*
X111464962Y-71486651D01*
X111484368Y-71495830D01*
X111502781Y-71506866D01*
X111520024Y-71519654D01*
X111535930Y-71534070D01*
X111550346Y-71549976D01*
X111563134Y-71567219D01*
X111574170Y-71585632D01*
X111583349Y-71605038D01*
X111590581Y-71625250D01*
X111595797Y-71646074D01*
X111598947Y-71667309D01*
X111600000Y-71688750D01*
X111600000Y-72126250D01*
X111598947Y-72147691D01*
X111595797Y-72168926D01*
X111590581Y-72189750D01*
X111583349Y-72209962D01*
X111574170Y-72229368D01*
X111563134Y-72247781D01*
X111550346Y-72265024D01*
X111535930Y-72280930D01*
X111520024Y-72295346D01*
X111502781Y-72308134D01*
X111484368Y-72319170D01*
X111464962Y-72328349D01*
X111444750Y-72335581D01*
X111423926Y-72340797D01*
X111402691Y-72343947D01*
X111381250Y-72345000D01*
X110868750Y-72345000D01*
X110847309Y-72343947D01*
X110826074Y-72340797D01*
X110805250Y-72335581D01*
X110785038Y-72328349D01*
X110765632Y-72319170D01*
X110747219Y-72308134D01*
X110729976Y-72295346D01*
X110714070Y-72280930D01*
X110699654Y-72265024D01*
X110686866Y-72247781D01*
X110675830Y-72229368D01*
X110666651Y-72209962D01*
X110659419Y-72189750D01*
X110654203Y-72168926D01*
X110651053Y-72147691D01*
X110650000Y-72126250D01*
X110650000Y-71688750D01*
X110651053Y-71667309D01*
X110654203Y-71646074D01*
X110659419Y-71625250D01*
X110666651Y-71605038D01*
X110675830Y-71585632D01*
X110686866Y-71567219D01*
X110699654Y-71549976D01*
X110714070Y-71534070D01*
X110729976Y-71519654D01*
X110747219Y-71506866D01*
X110765632Y-71495830D01*
X110785038Y-71486651D01*
X110805250Y-71479419D01*
X110826074Y-71474203D01*
X110847309Y-71471053D01*
X110868750Y-71470000D01*
X111381250Y-71470000D01*
X111402691Y-71471053D01*
X111402691Y-71471053D01*
G37*
D11*
X111125000Y-71907500D03*
D10*
G36*
X111402691Y-69896053D02*
G01*
X111423926Y-69899203D01*
X111444750Y-69904419D01*
X111464962Y-69911651D01*
X111484368Y-69920830D01*
X111502781Y-69931866D01*
X111520024Y-69944654D01*
X111535930Y-69959070D01*
X111550346Y-69974976D01*
X111563134Y-69992219D01*
X111574170Y-70010632D01*
X111583349Y-70030038D01*
X111590581Y-70050250D01*
X111595797Y-70071074D01*
X111598947Y-70092309D01*
X111600000Y-70113750D01*
X111600000Y-70551250D01*
X111598947Y-70572691D01*
X111595797Y-70593926D01*
X111590581Y-70614750D01*
X111583349Y-70634962D01*
X111574170Y-70654368D01*
X111563134Y-70672781D01*
X111550346Y-70690024D01*
X111535930Y-70705930D01*
X111520024Y-70720346D01*
X111502781Y-70733134D01*
X111484368Y-70744170D01*
X111464962Y-70753349D01*
X111444750Y-70760581D01*
X111423926Y-70765797D01*
X111402691Y-70768947D01*
X111381250Y-70770000D01*
X110868750Y-70770000D01*
X110847309Y-70768947D01*
X110826074Y-70765797D01*
X110805250Y-70760581D01*
X110785038Y-70753349D01*
X110765632Y-70744170D01*
X110747219Y-70733134D01*
X110729976Y-70720346D01*
X110714070Y-70705930D01*
X110699654Y-70690024D01*
X110686866Y-70672781D01*
X110675830Y-70654368D01*
X110666651Y-70634962D01*
X110659419Y-70614750D01*
X110654203Y-70593926D01*
X110651053Y-70572691D01*
X110650000Y-70551250D01*
X110650000Y-70113750D01*
X110651053Y-70092309D01*
X110654203Y-70071074D01*
X110659419Y-70050250D01*
X110666651Y-70030038D01*
X110675830Y-70010632D01*
X110686866Y-69992219D01*
X110699654Y-69974976D01*
X110714070Y-69959070D01*
X110729976Y-69944654D01*
X110747219Y-69931866D01*
X110765632Y-69920830D01*
X110785038Y-69911651D01*
X110805250Y-69904419D01*
X110826074Y-69899203D01*
X110847309Y-69896053D01*
X110868750Y-69895000D01*
X111381250Y-69895000D01*
X111402691Y-69896053D01*
X111402691Y-69896053D01*
G37*
D11*
X111125000Y-70332500D03*
D10*
G36*
X119022691Y-100376053D02*
G01*
X119043926Y-100379203D01*
X119064750Y-100384419D01*
X119084962Y-100391651D01*
X119104368Y-100400830D01*
X119122781Y-100411866D01*
X119140024Y-100424654D01*
X119155930Y-100439070D01*
X119170346Y-100454976D01*
X119183134Y-100472219D01*
X119194170Y-100490632D01*
X119203349Y-100510038D01*
X119210581Y-100530250D01*
X119215797Y-100551074D01*
X119218947Y-100572309D01*
X119220000Y-100593750D01*
X119220000Y-101031250D01*
X119218947Y-101052691D01*
X119215797Y-101073926D01*
X119210581Y-101094750D01*
X119203349Y-101114962D01*
X119194170Y-101134368D01*
X119183134Y-101152781D01*
X119170346Y-101170024D01*
X119155930Y-101185930D01*
X119140024Y-101200346D01*
X119122781Y-101213134D01*
X119104368Y-101224170D01*
X119084962Y-101233349D01*
X119064750Y-101240581D01*
X119043926Y-101245797D01*
X119022691Y-101248947D01*
X119001250Y-101250000D01*
X118488750Y-101250000D01*
X118467309Y-101248947D01*
X118446074Y-101245797D01*
X118425250Y-101240581D01*
X118405038Y-101233349D01*
X118385632Y-101224170D01*
X118367219Y-101213134D01*
X118349976Y-101200346D01*
X118334070Y-101185930D01*
X118319654Y-101170024D01*
X118306866Y-101152781D01*
X118295830Y-101134368D01*
X118286651Y-101114962D01*
X118279419Y-101094750D01*
X118274203Y-101073926D01*
X118271053Y-101052691D01*
X118270000Y-101031250D01*
X118270000Y-100593750D01*
X118271053Y-100572309D01*
X118274203Y-100551074D01*
X118279419Y-100530250D01*
X118286651Y-100510038D01*
X118295830Y-100490632D01*
X118306866Y-100472219D01*
X118319654Y-100454976D01*
X118334070Y-100439070D01*
X118349976Y-100424654D01*
X118367219Y-100411866D01*
X118385632Y-100400830D01*
X118405038Y-100391651D01*
X118425250Y-100384419D01*
X118446074Y-100379203D01*
X118467309Y-100376053D01*
X118488750Y-100375000D01*
X119001250Y-100375000D01*
X119022691Y-100376053D01*
X119022691Y-100376053D01*
G37*
D11*
X118745000Y-100812500D03*
D10*
G36*
X119022691Y-101951053D02*
G01*
X119043926Y-101954203D01*
X119064750Y-101959419D01*
X119084962Y-101966651D01*
X119104368Y-101975830D01*
X119122781Y-101986866D01*
X119140024Y-101999654D01*
X119155930Y-102014070D01*
X119170346Y-102029976D01*
X119183134Y-102047219D01*
X119194170Y-102065632D01*
X119203349Y-102085038D01*
X119210581Y-102105250D01*
X119215797Y-102126074D01*
X119218947Y-102147309D01*
X119220000Y-102168750D01*
X119220000Y-102606250D01*
X119218947Y-102627691D01*
X119215797Y-102648926D01*
X119210581Y-102669750D01*
X119203349Y-102689962D01*
X119194170Y-102709368D01*
X119183134Y-102727781D01*
X119170346Y-102745024D01*
X119155930Y-102760930D01*
X119140024Y-102775346D01*
X119122781Y-102788134D01*
X119104368Y-102799170D01*
X119084962Y-102808349D01*
X119064750Y-102815581D01*
X119043926Y-102820797D01*
X119022691Y-102823947D01*
X119001250Y-102825000D01*
X118488750Y-102825000D01*
X118467309Y-102823947D01*
X118446074Y-102820797D01*
X118425250Y-102815581D01*
X118405038Y-102808349D01*
X118385632Y-102799170D01*
X118367219Y-102788134D01*
X118349976Y-102775346D01*
X118334070Y-102760930D01*
X118319654Y-102745024D01*
X118306866Y-102727781D01*
X118295830Y-102709368D01*
X118286651Y-102689962D01*
X118279419Y-102669750D01*
X118274203Y-102648926D01*
X118271053Y-102627691D01*
X118270000Y-102606250D01*
X118270000Y-102168750D01*
X118271053Y-102147309D01*
X118274203Y-102126074D01*
X118279419Y-102105250D01*
X118286651Y-102085038D01*
X118295830Y-102065632D01*
X118306866Y-102047219D01*
X118319654Y-102029976D01*
X118334070Y-102014070D01*
X118349976Y-101999654D01*
X118367219Y-101986866D01*
X118385632Y-101975830D01*
X118405038Y-101966651D01*
X118425250Y-101959419D01*
X118446074Y-101954203D01*
X118467309Y-101951053D01*
X118488750Y-101950000D01*
X119001250Y-101950000D01*
X119022691Y-101951053D01*
X119022691Y-101951053D01*
G37*
D11*
X118745000Y-102387500D03*
D10*
G36*
X112037691Y-100376053D02*
G01*
X112058926Y-100379203D01*
X112079750Y-100384419D01*
X112099962Y-100391651D01*
X112119368Y-100400830D01*
X112137781Y-100411866D01*
X112155024Y-100424654D01*
X112170930Y-100439070D01*
X112185346Y-100454976D01*
X112198134Y-100472219D01*
X112209170Y-100490632D01*
X112218349Y-100510038D01*
X112225581Y-100530250D01*
X112230797Y-100551074D01*
X112233947Y-100572309D01*
X112235000Y-100593750D01*
X112235000Y-101031250D01*
X112233947Y-101052691D01*
X112230797Y-101073926D01*
X112225581Y-101094750D01*
X112218349Y-101114962D01*
X112209170Y-101134368D01*
X112198134Y-101152781D01*
X112185346Y-101170024D01*
X112170930Y-101185930D01*
X112155024Y-101200346D01*
X112137781Y-101213134D01*
X112119368Y-101224170D01*
X112099962Y-101233349D01*
X112079750Y-101240581D01*
X112058926Y-101245797D01*
X112037691Y-101248947D01*
X112016250Y-101250000D01*
X111503750Y-101250000D01*
X111482309Y-101248947D01*
X111461074Y-101245797D01*
X111440250Y-101240581D01*
X111420038Y-101233349D01*
X111400632Y-101224170D01*
X111382219Y-101213134D01*
X111364976Y-101200346D01*
X111349070Y-101185930D01*
X111334654Y-101170024D01*
X111321866Y-101152781D01*
X111310830Y-101134368D01*
X111301651Y-101114962D01*
X111294419Y-101094750D01*
X111289203Y-101073926D01*
X111286053Y-101052691D01*
X111285000Y-101031250D01*
X111285000Y-100593750D01*
X111286053Y-100572309D01*
X111289203Y-100551074D01*
X111294419Y-100530250D01*
X111301651Y-100510038D01*
X111310830Y-100490632D01*
X111321866Y-100472219D01*
X111334654Y-100454976D01*
X111349070Y-100439070D01*
X111364976Y-100424654D01*
X111382219Y-100411866D01*
X111400632Y-100400830D01*
X111420038Y-100391651D01*
X111440250Y-100384419D01*
X111461074Y-100379203D01*
X111482309Y-100376053D01*
X111503750Y-100375000D01*
X112016250Y-100375000D01*
X112037691Y-100376053D01*
X112037691Y-100376053D01*
G37*
D11*
X111760000Y-100812500D03*
D10*
G36*
X112037691Y-101951053D02*
G01*
X112058926Y-101954203D01*
X112079750Y-101959419D01*
X112099962Y-101966651D01*
X112119368Y-101975830D01*
X112137781Y-101986866D01*
X112155024Y-101999654D01*
X112170930Y-102014070D01*
X112185346Y-102029976D01*
X112198134Y-102047219D01*
X112209170Y-102065632D01*
X112218349Y-102085038D01*
X112225581Y-102105250D01*
X112230797Y-102126074D01*
X112233947Y-102147309D01*
X112235000Y-102168750D01*
X112235000Y-102606250D01*
X112233947Y-102627691D01*
X112230797Y-102648926D01*
X112225581Y-102669750D01*
X112218349Y-102689962D01*
X112209170Y-102709368D01*
X112198134Y-102727781D01*
X112185346Y-102745024D01*
X112170930Y-102760930D01*
X112155024Y-102775346D01*
X112137781Y-102788134D01*
X112119368Y-102799170D01*
X112099962Y-102808349D01*
X112079750Y-102815581D01*
X112058926Y-102820797D01*
X112037691Y-102823947D01*
X112016250Y-102825000D01*
X111503750Y-102825000D01*
X111482309Y-102823947D01*
X111461074Y-102820797D01*
X111440250Y-102815581D01*
X111420038Y-102808349D01*
X111400632Y-102799170D01*
X111382219Y-102788134D01*
X111364976Y-102775346D01*
X111349070Y-102760930D01*
X111334654Y-102745024D01*
X111321866Y-102727781D01*
X111310830Y-102709368D01*
X111301651Y-102689962D01*
X111294419Y-102669750D01*
X111289203Y-102648926D01*
X111286053Y-102627691D01*
X111285000Y-102606250D01*
X111285000Y-102168750D01*
X111286053Y-102147309D01*
X111289203Y-102126074D01*
X111294419Y-102105250D01*
X111301651Y-102085038D01*
X111310830Y-102065632D01*
X111321866Y-102047219D01*
X111334654Y-102029976D01*
X111349070Y-102014070D01*
X111364976Y-101999654D01*
X111382219Y-101986866D01*
X111400632Y-101975830D01*
X111420038Y-101966651D01*
X111440250Y-101959419D01*
X111461074Y-101954203D01*
X111482309Y-101951053D01*
X111503750Y-101950000D01*
X112016250Y-101950000D01*
X112037691Y-101951053D01*
X112037691Y-101951053D01*
G37*
D11*
X111760000Y-102387500D03*
D10*
G36*
X157757691Y-69896053D02*
G01*
X157778926Y-69899203D01*
X157799750Y-69904419D01*
X157819962Y-69911651D01*
X157839368Y-69920830D01*
X157857781Y-69931866D01*
X157875024Y-69944654D01*
X157890930Y-69959070D01*
X157905346Y-69974976D01*
X157918134Y-69992219D01*
X157929170Y-70010632D01*
X157938349Y-70030038D01*
X157945581Y-70050250D01*
X157950797Y-70071074D01*
X157953947Y-70092309D01*
X157955000Y-70113750D01*
X157955000Y-70551250D01*
X157953947Y-70572691D01*
X157950797Y-70593926D01*
X157945581Y-70614750D01*
X157938349Y-70634962D01*
X157929170Y-70654368D01*
X157918134Y-70672781D01*
X157905346Y-70690024D01*
X157890930Y-70705930D01*
X157875024Y-70720346D01*
X157857781Y-70733134D01*
X157839368Y-70744170D01*
X157819962Y-70753349D01*
X157799750Y-70760581D01*
X157778926Y-70765797D01*
X157757691Y-70768947D01*
X157736250Y-70770000D01*
X157223750Y-70770000D01*
X157202309Y-70768947D01*
X157181074Y-70765797D01*
X157160250Y-70760581D01*
X157140038Y-70753349D01*
X157120632Y-70744170D01*
X157102219Y-70733134D01*
X157084976Y-70720346D01*
X157069070Y-70705930D01*
X157054654Y-70690024D01*
X157041866Y-70672781D01*
X157030830Y-70654368D01*
X157021651Y-70634962D01*
X157014419Y-70614750D01*
X157009203Y-70593926D01*
X157006053Y-70572691D01*
X157005000Y-70551250D01*
X157005000Y-70113750D01*
X157006053Y-70092309D01*
X157009203Y-70071074D01*
X157014419Y-70050250D01*
X157021651Y-70030038D01*
X157030830Y-70010632D01*
X157041866Y-69992219D01*
X157054654Y-69974976D01*
X157069070Y-69959070D01*
X157084976Y-69944654D01*
X157102219Y-69931866D01*
X157120632Y-69920830D01*
X157140038Y-69911651D01*
X157160250Y-69904419D01*
X157181074Y-69899203D01*
X157202309Y-69896053D01*
X157223750Y-69895000D01*
X157736250Y-69895000D01*
X157757691Y-69896053D01*
X157757691Y-69896053D01*
G37*
D11*
X157480000Y-70332500D03*
D10*
G36*
X157757691Y-71471053D02*
G01*
X157778926Y-71474203D01*
X157799750Y-71479419D01*
X157819962Y-71486651D01*
X157839368Y-71495830D01*
X157857781Y-71506866D01*
X157875024Y-71519654D01*
X157890930Y-71534070D01*
X157905346Y-71549976D01*
X157918134Y-71567219D01*
X157929170Y-71585632D01*
X157938349Y-71605038D01*
X157945581Y-71625250D01*
X157950797Y-71646074D01*
X157953947Y-71667309D01*
X157955000Y-71688750D01*
X157955000Y-72126250D01*
X157953947Y-72147691D01*
X157950797Y-72168926D01*
X157945581Y-72189750D01*
X157938349Y-72209962D01*
X157929170Y-72229368D01*
X157918134Y-72247781D01*
X157905346Y-72265024D01*
X157890930Y-72280930D01*
X157875024Y-72295346D01*
X157857781Y-72308134D01*
X157839368Y-72319170D01*
X157819962Y-72328349D01*
X157799750Y-72335581D01*
X157778926Y-72340797D01*
X157757691Y-72343947D01*
X157736250Y-72345000D01*
X157223750Y-72345000D01*
X157202309Y-72343947D01*
X157181074Y-72340797D01*
X157160250Y-72335581D01*
X157140038Y-72328349D01*
X157120632Y-72319170D01*
X157102219Y-72308134D01*
X157084976Y-72295346D01*
X157069070Y-72280930D01*
X157054654Y-72265024D01*
X157041866Y-72247781D01*
X157030830Y-72229368D01*
X157021651Y-72209962D01*
X157014419Y-72189750D01*
X157009203Y-72168926D01*
X157006053Y-72147691D01*
X157005000Y-72126250D01*
X157005000Y-71688750D01*
X157006053Y-71667309D01*
X157009203Y-71646074D01*
X157014419Y-71625250D01*
X157021651Y-71605038D01*
X157030830Y-71585632D01*
X157041866Y-71567219D01*
X157054654Y-71549976D01*
X157069070Y-71534070D01*
X157084976Y-71519654D01*
X157102219Y-71506866D01*
X157120632Y-71495830D01*
X157140038Y-71486651D01*
X157160250Y-71479419D01*
X157181074Y-71474203D01*
X157202309Y-71471053D01*
X157223750Y-71470000D01*
X157736250Y-71470000D01*
X157757691Y-71471053D01*
X157757691Y-71471053D01*
G37*
D11*
X157480000Y-71907500D03*
D10*
G36*
X160932691Y-69896053D02*
G01*
X160953926Y-69899203D01*
X160974750Y-69904419D01*
X160994962Y-69911651D01*
X161014368Y-69920830D01*
X161032781Y-69931866D01*
X161050024Y-69944654D01*
X161065930Y-69959070D01*
X161080346Y-69974976D01*
X161093134Y-69992219D01*
X161104170Y-70010632D01*
X161113349Y-70030038D01*
X161120581Y-70050250D01*
X161125797Y-70071074D01*
X161128947Y-70092309D01*
X161130000Y-70113750D01*
X161130000Y-70551250D01*
X161128947Y-70572691D01*
X161125797Y-70593926D01*
X161120581Y-70614750D01*
X161113349Y-70634962D01*
X161104170Y-70654368D01*
X161093134Y-70672781D01*
X161080346Y-70690024D01*
X161065930Y-70705930D01*
X161050024Y-70720346D01*
X161032781Y-70733134D01*
X161014368Y-70744170D01*
X160994962Y-70753349D01*
X160974750Y-70760581D01*
X160953926Y-70765797D01*
X160932691Y-70768947D01*
X160911250Y-70770000D01*
X160398750Y-70770000D01*
X160377309Y-70768947D01*
X160356074Y-70765797D01*
X160335250Y-70760581D01*
X160315038Y-70753349D01*
X160295632Y-70744170D01*
X160277219Y-70733134D01*
X160259976Y-70720346D01*
X160244070Y-70705930D01*
X160229654Y-70690024D01*
X160216866Y-70672781D01*
X160205830Y-70654368D01*
X160196651Y-70634962D01*
X160189419Y-70614750D01*
X160184203Y-70593926D01*
X160181053Y-70572691D01*
X160180000Y-70551250D01*
X160180000Y-70113750D01*
X160181053Y-70092309D01*
X160184203Y-70071074D01*
X160189419Y-70050250D01*
X160196651Y-70030038D01*
X160205830Y-70010632D01*
X160216866Y-69992219D01*
X160229654Y-69974976D01*
X160244070Y-69959070D01*
X160259976Y-69944654D01*
X160277219Y-69931866D01*
X160295632Y-69920830D01*
X160315038Y-69911651D01*
X160335250Y-69904419D01*
X160356074Y-69899203D01*
X160377309Y-69896053D01*
X160398750Y-69895000D01*
X160911250Y-69895000D01*
X160932691Y-69896053D01*
X160932691Y-69896053D01*
G37*
D11*
X160655000Y-70332500D03*
D10*
G36*
X160932691Y-71471053D02*
G01*
X160953926Y-71474203D01*
X160974750Y-71479419D01*
X160994962Y-71486651D01*
X161014368Y-71495830D01*
X161032781Y-71506866D01*
X161050024Y-71519654D01*
X161065930Y-71534070D01*
X161080346Y-71549976D01*
X161093134Y-71567219D01*
X161104170Y-71585632D01*
X161113349Y-71605038D01*
X161120581Y-71625250D01*
X161125797Y-71646074D01*
X161128947Y-71667309D01*
X161130000Y-71688750D01*
X161130000Y-72126250D01*
X161128947Y-72147691D01*
X161125797Y-72168926D01*
X161120581Y-72189750D01*
X161113349Y-72209962D01*
X161104170Y-72229368D01*
X161093134Y-72247781D01*
X161080346Y-72265024D01*
X161065930Y-72280930D01*
X161050024Y-72295346D01*
X161032781Y-72308134D01*
X161014368Y-72319170D01*
X160994962Y-72328349D01*
X160974750Y-72335581D01*
X160953926Y-72340797D01*
X160932691Y-72343947D01*
X160911250Y-72345000D01*
X160398750Y-72345000D01*
X160377309Y-72343947D01*
X160356074Y-72340797D01*
X160335250Y-72335581D01*
X160315038Y-72328349D01*
X160295632Y-72319170D01*
X160277219Y-72308134D01*
X160259976Y-72295346D01*
X160244070Y-72280930D01*
X160229654Y-72265024D01*
X160216866Y-72247781D01*
X160205830Y-72229368D01*
X160196651Y-72209962D01*
X160189419Y-72189750D01*
X160184203Y-72168926D01*
X160181053Y-72147691D01*
X160180000Y-72126250D01*
X160180000Y-71688750D01*
X160181053Y-71667309D01*
X160184203Y-71646074D01*
X160189419Y-71625250D01*
X160196651Y-71605038D01*
X160205830Y-71585632D01*
X160216866Y-71567219D01*
X160229654Y-71549976D01*
X160244070Y-71534070D01*
X160259976Y-71519654D01*
X160277219Y-71506866D01*
X160295632Y-71495830D01*
X160315038Y-71486651D01*
X160335250Y-71479419D01*
X160356074Y-71474203D01*
X160377309Y-71471053D01*
X160398750Y-71470000D01*
X160911250Y-71470000D01*
X160932691Y-71471053D01*
X160932691Y-71471053D01*
G37*
D11*
X160655000Y-71907500D03*
D10*
G36*
X120927691Y-87676053D02*
G01*
X120948926Y-87679203D01*
X120969750Y-87684419D01*
X120989962Y-87691651D01*
X121009368Y-87700830D01*
X121027781Y-87711866D01*
X121045024Y-87724654D01*
X121060930Y-87739070D01*
X121075346Y-87754976D01*
X121088134Y-87772219D01*
X121099170Y-87790632D01*
X121108349Y-87810038D01*
X121115581Y-87830250D01*
X121120797Y-87851074D01*
X121123947Y-87872309D01*
X121125000Y-87893750D01*
X121125000Y-88331250D01*
X121123947Y-88352691D01*
X121120797Y-88373926D01*
X121115581Y-88394750D01*
X121108349Y-88414962D01*
X121099170Y-88434368D01*
X121088134Y-88452781D01*
X121075346Y-88470024D01*
X121060930Y-88485930D01*
X121045024Y-88500346D01*
X121027781Y-88513134D01*
X121009368Y-88524170D01*
X120989962Y-88533349D01*
X120969750Y-88540581D01*
X120948926Y-88545797D01*
X120927691Y-88548947D01*
X120906250Y-88550000D01*
X120393750Y-88550000D01*
X120372309Y-88548947D01*
X120351074Y-88545797D01*
X120330250Y-88540581D01*
X120310038Y-88533349D01*
X120290632Y-88524170D01*
X120272219Y-88513134D01*
X120254976Y-88500346D01*
X120239070Y-88485930D01*
X120224654Y-88470024D01*
X120211866Y-88452781D01*
X120200830Y-88434368D01*
X120191651Y-88414962D01*
X120184419Y-88394750D01*
X120179203Y-88373926D01*
X120176053Y-88352691D01*
X120175000Y-88331250D01*
X120175000Y-87893750D01*
X120176053Y-87872309D01*
X120179203Y-87851074D01*
X120184419Y-87830250D01*
X120191651Y-87810038D01*
X120200830Y-87790632D01*
X120211866Y-87772219D01*
X120224654Y-87754976D01*
X120239070Y-87739070D01*
X120254976Y-87724654D01*
X120272219Y-87711866D01*
X120290632Y-87700830D01*
X120310038Y-87691651D01*
X120330250Y-87684419D01*
X120351074Y-87679203D01*
X120372309Y-87676053D01*
X120393750Y-87675000D01*
X120906250Y-87675000D01*
X120927691Y-87676053D01*
X120927691Y-87676053D01*
G37*
D11*
X120650000Y-88112500D03*
D10*
G36*
X120927691Y-89251053D02*
G01*
X120948926Y-89254203D01*
X120969750Y-89259419D01*
X120989962Y-89266651D01*
X121009368Y-89275830D01*
X121027781Y-89286866D01*
X121045024Y-89299654D01*
X121060930Y-89314070D01*
X121075346Y-89329976D01*
X121088134Y-89347219D01*
X121099170Y-89365632D01*
X121108349Y-89385038D01*
X121115581Y-89405250D01*
X121120797Y-89426074D01*
X121123947Y-89447309D01*
X121125000Y-89468750D01*
X121125000Y-89906250D01*
X121123947Y-89927691D01*
X121120797Y-89948926D01*
X121115581Y-89969750D01*
X121108349Y-89989962D01*
X121099170Y-90009368D01*
X121088134Y-90027781D01*
X121075346Y-90045024D01*
X121060930Y-90060930D01*
X121045024Y-90075346D01*
X121027781Y-90088134D01*
X121009368Y-90099170D01*
X120989962Y-90108349D01*
X120969750Y-90115581D01*
X120948926Y-90120797D01*
X120927691Y-90123947D01*
X120906250Y-90125000D01*
X120393750Y-90125000D01*
X120372309Y-90123947D01*
X120351074Y-90120797D01*
X120330250Y-90115581D01*
X120310038Y-90108349D01*
X120290632Y-90099170D01*
X120272219Y-90088134D01*
X120254976Y-90075346D01*
X120239070Y-90060930D01*
X120224654Y-90045024D01*
X120211866Y-90027781D01*
X120200830Y-90009368D01*
X120191651Y-89989962D01*
X120184419Y-89969750D01*
X120179203Y-89948926D01*
X120176053Y-89927691D01*
X120175000Y-89906250D01*
X120175000Y-89468750D01*
X120176053Y-89447309D01*
X120179203Y-89426074D01*
X120184419Y-89405250D01*
X120191651Y-89385038D01*
X120200830Y-89365632D01*
X120211866Y-89347219D01*
X120224654Y-89329976D01*
X120239070Y-89314070D01*
X120254976Y-89299654D01*
X120272219Y-89286866D01*
X120290632Y-89275830D01*
X120310038Y-89266651D01*
X120330250Y-89259419D01*
X120351074Y-89254203D01*
X120372309Y-89251053D01*
X120393750Y-89250000D01*
X120906250Y-89250000D01*
X120927691Y-89251053D01*
X120927691Y-89251053D01*
G37*
D11*
X120650000Y-89687500D03*
D10*
G36*
X153312691Y-71471053D02*
G01*
X153333926Y-71474203D01*
X153354750Y-71479419D01*
X153374962Y-71486651D01*
X153394368Y-71495830D01*
X153412781Y-71506866D01*
X153430024Y-71519654D01*
X153445930Y-71534070D01*
X153460346Y-71549976D01*
X153473134Y-71567219D01*
X153484170Y-71585632D01*
X153493349Y-71605038D01*
X153500581Y-71625250D01*
X153505797Y-71646074D01*
X153508947Y-71667309D01*
X153510000Y-71688750D01*
X153510000Y-72126250D01*
X153508947Y-72147691D01*
X153505797Y-72168926D01*
X153500581Y-72189750D01*
X153493349Y-72209962D01*
X153484170Y-72229368D01*
X153473134Y-72247781D01*
X153460346Y-72265024D01*
X153445930Y-72280930D01*
X153430024Y-72295346D01*
X153412781Y-72308134D01*
X153394368Y-72319170D01*
X153374962Y-72328349D01*
X153354750Y-72335581D01*
X153333926Y-72340797D01*
X153312691Y-72343947D01*
X153291250Y-72345000D01*
X152778750Y-72345000D01*
X152757309Y-72343947D01*
X152736074Y-72340797D01*
X152715250Y-72335581D01*
X152695038Y-72328349D01*
X152675632Y-72319170D01*
X152657219Y-72308134D01*
X152639976Y-72295346D01*
X152624070Y-72280930D01*
X152609654Y-72265024D01*
X152596866Y-72247781D01*
X152585830Y-72229368D01*
X152576651Y-72209962D01*
X152569419Y-72189750D01*
X152564203Y-72168926D01*
X152561053Y-72147691D01*
X152560000Y-72126250D01*
X152560000Y-71688750D01*
X152561053Y-71667309D01*
X152564203Y-71646074D01*
X152569419Y-71625250D01*
X152576651Y-71605038D01*
X152585830Y-71585632D01*
X152596866Y-71567219D01*
X152609654Y-71549976D01*
X152624070Y-71534070D01*
X152639976Y-71519654D01*
X152657219Y-71506866D01*
X152675632Y-71495830D01*
X152695038Y-71486651D01*
X152715250Y-71479419D01*
X152736074Y-71474203D01*
X152757309Y-71471053D01*
X152778750Y-71470000D01*
X153291250Y-71470000D01*
X153312691Y-71471053D01*
X153312691Y-71471053D01*
G37*
D11*
X153035000Y-71907500D03*
D10*
G36*
X153312691Y-69896053D02*
G01*
X153333926Y-69899203D01*
X153354750Y-69904419D01*
X153374962Y-69911651D01*
X153394368Y-69920830D01*
X153412781Y-69931866D01*
X153430024Y-69944654D01*
X153445930Y-69959070D01*
X153460346Y-69974976D01*
X153473134Y-69992219D01*
X153484170Y-70010632D01*
X153493349Y-70030038D01*
X153500581Y-70050250D01*
X153505797Y-70071074D01*
X153508947Y-70092309D01*
X153510000Y-70113750D01*
X153510000Y-70551250D01*
X153508947Y-70572691D01*
X153505797Y-70593926D01*
X153500581Y-70614750D01*
X153493349Y-70634962D01*
X153484170Y-70654368D01*
X153473134Y-70672781D01*
X153460346Y-70690024D01*
X153445930Y-70705930D01*
X153430024Y-70720346D01*
X153412781Y-70733134D01*
X153394368Y-70744170D01*
X153374962Y-70753349D01*
X153354750Y-70760581D01*
X153333926Y-70765797D01*
X153312691Y-70768947D01*
X153291250Y-70770000D01*
X152778750Y-70770000D01*
X152757309Y-70768947D01*
X152736074Y-70765797D01*
X152715250Y-70760581D01*
X152695038Y-70753349D01*
X152675632Y-70744170D01*
X152657219Y-70733134D01*
X152639976Y-70720346D01*
X152624070Y-70705930D01*
X152609654Y-70690024D01*
X152596866Y-70672781D01*
X152585830Y-70654368D01*
X152576651Y-70634962D01*
X152569419Y-70614750D01*
X152564203Y-70593926D01*
X152561053Y-70572691D01*
X152560000Y-70551250D01*
X152560000Y-70113750D01*
X152561053Y-70092309D01*
X152564203Y-70071074D01*
X152569419Y-70050250D01*
X152576651Y-70030038D01*
X152585830Y-70010632D01*
X152596866Y-69992219D01*
X152609654Y-69974976D01*
X152624070Y-69959070D01*
X152639976Y-69944654D01*
X152657219Y-69931866D01*
X152675632Y-69920830D01*
X152695038Y-69911651D01*
X152715250Y-69904419D01*
X152736074Y-69899203D01*
X152757309Y-69896053D01*
X152778750Y-69895000D01*
X153291250Y-69895000D01*
X153312691Y-69896053D01*
X153312691Y-69896053D01*
G37*
D11*
X153035000Y-70332500D03*
D10*
G36*
X134897691Y-71471053D02*
G01*
X134918926Y-71474203D01*
X134939750Y-71479419D01*
X134959962Y-71486651D01*
X134979368Y-71495830D01*
X134997781Y-71506866D01*
X135015024Y-71519654D01*
X135030930Y-71534070D01*
X135045346Y-71549976D01*
X135058134Y-71567219D01*
X135069170Y-71585632D01*
X135078349Y-71605038D01*
X135085581Y-71625250D01*
X135090797Y-71646074D01*
X135093947Y-71667309D01*
X135095000Y-71688750D01*
X135095000Y-72126250D01*
X135093947Y-72147691D01*
X135090797Y-72168926D01*
X135085581Y-72189750D01*
X135078349Y-72209962D01*
X135069170Y-72229368D01*
X135058134Y-72247781D01*
X135045346Y-72265024D01*
X135030930Y-72280930D01*
X135015024Y-72295346D01*
X134997781Y-72308134D01*
X134979368Y-72319170D01*
X134959962Y-72328349D01*
X134939750Y-72335581D01*
X134918926Y-72340797D01*
X134897691Y-72343947D01*
X134876250Y-72345000D01*
X134363750Y-72345000D01*
X134342309Y-72343947D01*
X134321074Y-72340797D01*
X134300250Y-72335581D01*
X134280038Y-72328349D01*
X134260632Y-72319170D01*
X134242219Y-72308134D01*
X134224976Y-72295346D01*
X134209070Y-72280930D01*
X134194654Y-72265024D01*
X134181866Y-72247781D01*
X134170830Y-72229368D01*
X134161651Y-72209962D01*
X134154419Y-72189750D01*
X134149203Y-72168926D01*
X134146053Y-72147691D01*
X134145000Y-72126250D01*
X134145000Y-71688750D01*
X134146053Y-71667309D01*
X134149203Y-71646074D01*
X134154419Y-71625250D01*
X134161651Y-71605038D01*
X134170830Y-71585632D01*
X134181866Y-71567219D01*
X134194654Y-71549976D01*
X134209070Y-71534070D01*
X134224976Y-71519654D01*
X134242219Y-71506866D01*
X134260632Y-71495830D01*
X134280038Y-71486651D01*
X134300250Y-71479419D01*
X134321074Y-71474203D01*
X134342309Y-71471053D01*
X134363750Y-71470000D01*
X134876250Y-71470000D01*
X134897691Y-71471053D01*
X134897691Y-71471053D01*
G37*
D11*
X134620000Y-71907500D03*
D10*
G36*
X134897691Y-69896053D02*
G01*
X134918926Y-69899203D01*
X134939750Y-69904419D01*
X134959962Y-69911651D01*
X134979368Y-69920830D01*
X134997781Y-69931866D01*
X135015024Y-69944654D01*
X135030930Y-69959070D01*
X135045346Y-69974976D01*
X135058134Y-69992219D01*
X135069170Y-70010632D01*
X135078349Y-70030038D01*
X135085581Y-70050250D01*
X135090797Y-70071074D01*
X135093947Y-70092309D01*
X135095000Y-70113750D01*
X135095000Y-70551250D01*
X135093947Y-70572691D01*
X135090797Y-70593926D01*
X135085581Y-70614750D01*
X135078349Y-70634962D01*
X135069170Y-70654368D01*
X135058134Y-70672781D01*
X135045346Y-70690024D01*
X135030930Y-70705930D01*
X135015024Y-70720346D01*
X134997781Y-70733134D01*
X134979368Y-70744170D01*
X134959962Y-70753349D01*
X134939750Y-70760581D01*
X134918926Y-70765797D01*
X134897691Y-70768947D01*
X134876250Y-70770000D01*
X134363750Y-70770000D01*
X134342309Y-70768947D01*
X134321074Y-70765797D01*
X134300250Y-70760581D01*
X134280038Y-70753349D01*
X134260632Y-70744170D01*
X134242219Y-70733134D01*
X134224976Y-70720346D01*
X134209070Y-70705930D01*
X134194654Y-70690024D01*
X134181866Y-70672781D01*
X134170830Y-70654368D01*
X134161651Y-70634962D01*
X134154419Y-70614750D01*
X134149203Y-70593926D01*
X134146053Y-70572691D01*
X134145000Y-70551250D01*
X134145000Y-70113750D01*
X134146053Y-70092309D01*
X134149203Y-70071074D01*
X134154419Y-70050250D01*
X134161651Y-70030038D01*
X134170830Y-70010632D01*
X134181866Y-69992219D01*
X134194654Y-69974976D01*
X134209070Y-69959070D01*
X134224976Y-69944654D01*
X134242219Y-69931866D01*
X134260632Y-69920830D01*
X134280038Y-69911651D01*
X134300250Y-69904419D01*
X134321074Y-69899203D01*
X134342309Y-69896053D01*
X134363750Y-69895000D01*
X134876250Y-69895000D01*
X134897691Y-69896053D01*
X134897691Y-69896053D01*
G37*
D11*
X134620000Y-70332500D03*
D10*
G36*
X128547691Y-71471053D02*
G01*
X128568926Y-71474203D01*
X128589750Y-71479419D01*
X128609962Y-71486651D01*
X128629368Y-71495830D01*
X128647781Y-71506866D01*
X128665024Y-71519654D01*
X128680930Y-71534070D01*
X128695346Y-71549976D01*
X128708134Y-71567219D01*
X128719170Y-71585632D01*
X128728349Y-71605038D01*
X128735581Y-71625250D01*
X128740797Y-71646074D01*
X128743947Y-71667309D01*
X128745000Y-71688750D01*
X128745000Y-72126250D01*
X128743947Y-72147691D01*
X128740797Y-72168926D01*
X128735581Y-72189750D01*
X128728349Y-72209962D01*
X128719170Y-72229368D01*
X128708134Y-72247781D01*
X128695346Y-72265024D01*
X128680930Y-72280930D01*
X128665024Y-72295346D01*
X128647781Y-72308134D01*
X128629368Y-72319170D01*
X128609962Y-72328349D01*
X128589750Y-72335581D01*
X128568926Y-72340797D01*
X128547691Y-72343947D01*
X128526250Y-72345000D01*
X128013750Y-72345000D01*
X127992309Y-72343947D01*
X127971074Y-72340797D01*
X127950250Y-72335581D01*
X127930038Y-72328349D01*
X127910632Y-72319170D01*
X127892219Y-72308134D01*
X127874976Y-72295346D01*
X127859070Y-72280930D01*
X127844654Y-72265024D01*
X127831866Y-72247781D01*
X127820830Y-72229368D01*
X127811651Y-72209962D01*
X127804419Y-72189750D01*
X127799203Y-72168926D01*
X127796053Y-72147691D01*
X127795000Y-72126250D01*
X127795000Y-71688750D01*
X127796053Y-71667309D01*
X127799203Y-71646074D01*
X127804419Y-71625250D01*
X127811651Y-71605038D01*
X127820830Y-71585632D01*
X127831866Y-71567219D01*
X127844654Y-71549976D01*
X127859070Y-71534070D01*
X127874976Y-71519654D01*
X127892219Y-71506866D01*
X127910632Y-71495830D01*
X127930038Y-71486651D01*
X127950250Y-71479419D01*
X127971074Y-71474203D01*
X127992309Y-71471053D01*
X128013750Y-71470000D01*
X128526250Y-71470000D01*
X128547691Y-71471053D01*
X128547691Y-71471053D01*
G37*
D11*
X128270000Y-71907500D03*
D10*
G36*
X128547691Y-69896053D02*
G01*
X128568926Y-69899203D01*
X128589750Y-69904419D01*
X128609962Y-69911651D01*
X128629368Y-69920830D01*
X128647781Y-69931866D01*
X128665024Y-69944654D01*
X128680930Y-69959070D01*
X128695346Y-69974976D01*
X128708134Y-69992219D01*
X128719170Y-70010632D01*
X128728349Y-70030038D01*
X128735581Y-70050250D01*
X128740797Y-70071074D01*
X128743947Y-70092309D01*
X128745000Y-70113750D01*
X128745000Y-70551250D01*
X128743947Y-70572691D01*
X128740797Y-70593926D01*
X128735581Y-70614750D01*
X128728349Y-70634962D01*
X128719170Y-70654368D01*
X128708134Y-70672781D01*
X128695346Y-70690024D01*
X128680930Y-70705930D01*
X128665024Y-70720346D01*
X128647781Y-70733134D01*
X128629368Y-70744170D01*
X128609962Y-70753349D01*
X128589750Y-70760581D01*
X128568926Y-70765797D01*
X128547691Y-70768947D01*
X128526250Y-70770000D01*
X128013750Y-70770000D01*
X127992309Y-70768947D01*
X127971074Y-70765797D01*
X127950250Y-70760581D01*
X127930038Y-70753349D01*
X127910632Y-70744170D01*
X127892219Y-70733134D01*
X127874976Y-70720346D01*
X127859070Y-70705930D01*
X127844654Y-70690024D01*
X127831866Y-70672781D01*
X127820830Y-70654368D01*
X127811651Y-70634962D01*
X127804419Y-70614750D01*
X127799203Y-70593926D01*
X127796053Y-70572691D01*
X127795000Y-70551250D01*
X127795000Y-70113750D01*
X127796053Y-70092309D01*
X127799203Y-70071074D01*
X127804419Y-70050250D01*
X127811651Y-70030038D01*
X127820830Y-70010632D01*
X127831866Y-69992219D01*
X127844654Y-69974976D01*
X127859070Y-69959070D01*
X127874976Y-69944654D01*
X127892219Y-69931866D01*
X127910632Y-69920830D01*
X127930038Y-69911651D01*
X127950250Y-69904419D01*
X127971074Y-69899203D01*
X127992309Y-69896053D01*
X128013750Y-69895000D01*
X128526250Y-69895000D01*
X128547691Y-69896053D01*
X128547691Y-69896053D01*
G37*
D11*
X128270000Y-70332500D03*
D10*
G36*
X131722691Y-71471053D02*
G01*
X131743926Y-71474203D01*
X131764750Y-71479419D01*
X131784962Y-71486651D01*
X131804368Y-71495830D01*
X131822781Y-71506866D01*
X131840024Y-71519654D01*
X131855930Y-71534070D01*
X131870346Y-71549976D01*
X131883134Y-71567219D01*
X131894170Y-71585632D01*
X131903349Y-71605038D01*
X131910581Y-71625250D01*
X131915797Y-71646074D01*
X131918947Y-71667309D01*
X131920000Y-71688750D01*
X131920000Y-72126250D01*
X131918947Y-72147691D01*
X131915797Y-72168926D01*
X131910581Y-72189750D01*
X131903349Y-72209962D01*
X131894170Y-72229368D01*
X131883134Y-72247781D01*
X131870346Y-72265024D01*
X131855930Y-72280930D01*
X131840024Y-72295346D01*
X131822781Y-72308134D01*
X131804368Y-72319170D01*
X131784962Y-72328349D01*
X131764750Y-72335581D01*
X131743926Y-72340797D01*
X131722691Y-72343947D01*
X131701250Y-72345000D01*
X131188750Y-72345000D01*
X131167309Y-72343947D01*
X131146074Y-72340797D01*
X131125250Y-72335581D01*
X131105038Y-72328349D01*
X131085632Y-72319170D01*
X131067219Y-72308134D01*
X131049976Y-72295346D01*
X131034070Y-72280930D01*
X131019654Y-72265024D01*
X131006866Y-72247781D01*
X130995830Y-72229368D01*
X130986651Y-72209962D01*
X130979419Y-72189750D01*
X130974203Y-72168926D01*
X130971053Y-72147691D01*
X130970000Y-72126250D01*
X130970000Y-71688750D01*
X130971053Y-71667309D01*
X130974203Y-71646074D01*
X130979419Y-71625250D01*
X130986651Y-71605038D01*
X130995830Y-71585632D01*
X131006866Y-71567219D01*
X131019654Y-71549976D01*
X131034070Y-71534070D01*
X131049976Y-71519654D01*
X131067219Y-71506866D01*
X131085632Y-71495830D01*
X131105038Y-71486651D01*
X131125250Y-71479419D01*
X131146074Y-71474203D01*
X131167309Y-71471053D01*
X131188750Y-71470000D01*
X131701250Y-71470000D01*
X131722691Y-71471053D01*
X131722691Y-71471053D01*
G37*
D11*
X131445000Y-71907500D03*
D10*
G36*
X131722691Y-69896053D02*
G01*
X131743926Y-69899203D01*
X131764750Y-69904419D01*
X131784962Y-69911651D01*
X131804368Y-69920830D01*
X131822781Y-69931866D01*
X131840024Y-69944654D01*
X131855930Y-69959070D01*
X131870346Y-69974976D01*
X131883134Y-69992219D01*
X131894170Y-70010632D01*
X131903349Y-70030038D01*
X131910581Y-70050250D01*
X131915797Y-70071074D01*
X131918947Y-70092309D01*
X131920000Y-70113750D01*
X131920000Y-70551250D01*
X131918947Y-70572691D01*
X131915797Y-70593926D01*
X131910581Y-70614750D01*
X131903349Y-70634962D01*
X131894170Y-70654368D01*
X131883134Y-70672781D01*
X131870346Y-70690024D01*
X131855930Y-70705930D01*
X131840024Y-70720346D01*
X131822781Y-70733134D01*
X131804368Y-70744170D01*
X131784962Y-70753349D01*
X131764750Y-70760581D01*
X131743926Y-70765797D01*
X131722691Y-70768947D01*
X131701250Y-70770000D01*
X131188750Y-70770000D01*
X131167309Y-70768947D01*
X131146074Y-70765797D01*
X131125250Y-70760581D01*
X131105038Y-70753349D01*
X131085632Y-70744170D01*
X131067219Y-70733134D01*
X131049976Y-70720346D01*
X131034070Y-70705930D01*
X131019654Y-70690024D01*
X131006866Y-70672781D01*
X130995830Y-70654368D01*
X130986651Y-70634962D01*
X130979419Y-70614750D01*
X130974203Y-70593926D01*
X130971053Y-70572691D01*
X130970000Y-70551250D01*
X130970000Y-70113750D01*
X130971053Y-70092309D01*
X130974203Y-70071074D01*
X130979419Y-70050250D01*
X130986651Y-70030038D01*
X130995830Y-70010632D01*
X131006866Y-69992219D01*
X131019654Y-69974976D01*
X131034070Y-69959070D01*
X131049976Y-69944654D01*
X131067219Y-69931866D01*
X131085632Y-69920830D01*
X131105038Y-69911651D01*
X131125250Y-69904419D01*
X131146074Y-69899203D01*
X131167309Y-69896053D01*
X131188750Y-69895000D01*
X131701250Y-69895000D01*
X131722691Y-69896053D01*
X131722691Y-69896053D01*
G37*
D11*
X131445000Y-70332500D03*
D10*
G36*
X124737691Y-101951053D02*
G01*
X124758926Y-101954203D01*
X124779750Y-101959419D01*
X124799962Y-101966651D01*
X124819368Y-101975830D01*
X124837781Y-101986866D01*
X124855024Y-101999654D01*
X124870930Y-102014070D01*
X124885346Y-102029976D01*
X124898134Y-102047219D01*
X124909170Y-102065632D01*
X124918349Y-102085038D01*
X124925581Y-102105250D01*
X124930797Y-102126074D01*
X124933947Y-102147309D01*
X124935000Y-102168750D01*
X124935000Y-102606250D01*
X124933947Y-102627691D01*
X124930797Y-102648926D01*
X124925581Y-102669750D01*
X124918349Y-102689962D01*
X124909170Y-102709368D01*
X124898134Y-102727781D01*
X124885346Y-102745024D01*
X124870930Y-102760930D01*
X124855024Y-102775346D01*
X124837781Y-102788134D01*
X124819368Y-102799170D01*
X124799962Y-102808349D01*
X124779750Y-102815581D01*
X124758926Y-102820797D01*
X124737691Y-102823947D01*
X124716250Y-102825000D01*
X124203750Y-102825000D01*
X124182309Y-102823947D01*
X124161074Y-102820797D01*
X124140250Y-102815581D01*
X124120038Y-102808349D01*
X124100632Y-102799170D01*
X124082219Y-102788134D01*
X124064976Y-102775346D01*
X124049070Y-102760930D01*
X124034654Y-102745024D01*
X124021866Y-102727781D01*
X124010830Y-102709368D01*
X124001651Y-102689962D01*
X123994419Y-102669750D01*
X123989203Y-102648926D01*
X123986053Y-102627691D01*
X123985000Y-102606250D01*
X123985000Y-102168750D01*
X123986053Y-102147309D01*
X123989203Y-102126074D01*
X123994419Y-102105250D01*
X124001651Y-102085038D01*
X124010830Y-102065632D01*
X124021866Y-102047219D01*
X124034654Y-102029976D01*
X124049070Y-102014070D01*
X124064976Y-101999654D01*
X124082219Y-101986866D01*
X124100632Y-101975830D01*
X124120038Y-101966651D01*
X124140250Y-101959419D01*
X124161074Y-101954203D01*
X124182309Y-101951053D01*
X124203750Y-101950000D01*
X124716250Y-101950000D01*
X124737691Y-101951053D01*
X124737691Y-101951053D01*
G37*
D11*
X124460000Y-102387500D03*
D10*
G36*
X124737691Y-100376053D02*
G01*
X124758926Y-100379203D01*
X124779750Y-100384419D01*
X124799962Y-100391651D01*
X124819368Y-100400830D01*
X124837781Y-100411866D01*
X124855024Y-100424654D01*
X124870930Y-100439070D01*
X124885346Y-100454976D01*
X124898134Y-100472219D01*
X124909170Y-100490632D01*
X124918349Y-100510038D01*
X124925581Y-100530250D01*
X124930797Y-100551074D01*
X124933947Y-100572309D01*
X124935000Y-100593750D01*
X124935000Y-101031250D01*
X124933947Y-101052691D01*
X124930797Y-101073926D01*
X124925581Y-101094750D01*
X124918349Y-101114962D01*
X124909170Y-101134368D01*
X124898134Y-101152781D01*
X124885346Y-101170024D01*
X124870930Y-101185930D01*
X124855024Y-101200346D01*
X124837781Y-101213134D01*
X124819368Y-101224170D01*
X124799962Y-101233349D01*
X124779750Y-101240581D01*
X124758926Y-101245797D01*
X124737691Y-101248947D01*
X124716250Y-101250000D01*
X124203750Y-101250000D01*
X124182309Y-101248947D01*
X124161074Y-101245797D01*
X124140250Y-101240581D01*
X124120038Y-101233349D01*
X124100632Y-101224170D01*
X124082219Y-101213134D01*
X124064976Y-101200346D01*
X124049070Y-101185930D01*
X124034654Y-101170024D01*
X124021866Y-101152781D01*
X124010830Y-101134368D01*
X124001651Y-101114962D01*
X123994419Y-101094750D01*
X123989203Y-101073926D01*
X123986053Y-101052691D01*
X123985000Y-101031250D01*
X123985000Y-100593750D01*
X123986053Y-100572309D01*
X123989203Y-100551074D01*
X123994419Y-100530250D01*
X124001651Y-100510038D01*
X124010830Y-100490632D01*
X124021866Y-100472219D01*
X124034654Y-100454976D01*
X124049070Y-100439070D01*
X124064976Y-100424654D01*
X124082219Y-100411866D01*
X124100632Y-100400830D01*
X124120038Y-100391651D01*
X124140250Y-100384419D01*
X124161074Y-100379203D01*
X124182309Y-100376053D01*
X124203750Y-100375000D01*
X124716250Y-100375000D01*
X124737691Y-100376053D01*
X124737691Y-100376053D01*
G37*
D11*
X124460000Y-100812500D03*
D10*
G36*
X133777691Y-100350553D02*
G01*
X133798926Y-100353703D01*
X133819750Y-100358919D01*
X133839962Y-100366151D01*
X133859368Y-100375330D01*
X133877781Y-100386366D01*
X133895024Y-100399154D01*
X133910930Y-100413570D01*
X133925346Y-100429476D01*
X133938134Y-100446719D01*
X133949170Y-100465132D01*
X133958349Y-100484538D01*
X133965581Y-100504750D01*
X133970797Y-100525574D01*
X133973947Y-100546809D01*
X133975000Y-100568250D01*
X133975000Y-101005750D01*
X133973947Y-101027191D01*
X133970797Y-101048426D01*
X133965581Y-101069250D01*
X133958349Y-101089462D01*
X133949170Y-101108868D01*
X133938134Y-101127281D01*
X133925346Y-101144524D01*
X133910930Y-101160430D01*
X133895024Y-101174846D01*
X133877781Y-101187634D01*
X133859368Y-101198670D01*
X133839962Y-101207849D01*
X133819750Y-101215081D01*
X133798926Y-101220297D01*
X133777691Y-101223447D01*
X133756250Y-101224500D01*
X133243750Y-101224500D01*
X133222309Y-101223447D01*
X133201074Y-101220297D01*
X133180250Y-101215081D01*
X133160038Y-101207849D01*
X133140632Y-101198670D01*
X133122219Y-101187634D01*
X133104976Y-101174846D01*
X133089070Y-101160430D01*
X133074654Y-101144524D01*
X133061866Y-101127281D01*
X133050830Y-101108868D01*
X133041651Y-101089462D01*
X133034419Y-101069250D01*
X133029203Y-101048426D01*
X133026053Y-101027191D01*
X133025000Y-101005750D01*
X133025000Y-100568250D01*
X133026053Y-100546809D01*
X133029203Y-100525574D01*
X133034419Y-100504750D01*
X133041651Y-100484538D01*
X133050830Y-100465132D01*
X133061866Y-100446719D01*
X133074654Y-100429476D01*
X133089070Y-100413570D01*
X133104976Y-100399154D01*
X133122219Y-100386366D01*
X133140632Y-100375330D01*
X133160038Y-100366151D01*
X133180250Y-100358919D01*
X133201074Y-100353703D01*
X133222309Y-100350553D01*
X133243750Y-100349500D01*
X133756250Y-100349500D01*
X133777691Y-100350553D01*
X133777691Y-100350553D01*
G37*
D11*
X133500000Y-100787000D03*
D10*
G36*
X133777691Y-101925553D02*
G01*
X133798926Y-101928703D01*
X133819750Y-101933919D01*
X133839962Y-101941151D01*
X133859368Y-101950330D01*
X133877781Y-101961366D01*
X133895024Y-101974154D01*
X133910930Y-101988570D01*
X133925346Y-102004476D01*
X133938134Y-102021719D01*
X133949170Y-102040132D01*
X133958349Y-102059538D01*
X133965581Y-102079750D01*
X133970797Y-102100574D01*
X133973947Y-102121809D01*
X133975000Y-102143250D01*
X133975000Y-102580750D01*
X133973947Y-102602191D01*
X133970797Y-102623426D01*
X133965581Y-102644250D01*
X133958349Y-102664462D01*
X133949170Y-102683868D01*
X133938134Y-102702281D01*
X133925346Y-102719524D01*
X133910930Y-102735430D01*
X133895024Y-102749846D01*
X133877781Y-102762634D01*
X133859368Y-102773670D01*
X133839962Y-102782849D01*
X133819750Y-102790081D01*
X133798926Y-102795297D01*
X133777691Y-102798447D01*
X133756250Y-102799500D01*
X133243750Y-102799500D01*
X133222309Y-102798447D01*
X133201074Y-102795297D01*
X133180250Y-102790081D01*
X133160038Y-102782849D01*
X133140632Y-102773670D01*
X133122219Y-102762634D01*
X133104976Y-102749846D01*
X133089070Y-102735430D01*
X133074654Y-102719524D01*
X133061866Y-102702281D01*
X133050830Y-102683868D01*
X133041651Y-102664462D01*
X133034419Y-102644250D01*
X133029203Y-102623426D01*
X133026053Y-102602191D01*
X133025000Y-102580750D01*
X133025000Y-102143250D01*
X133026053Y-102121809D01*
X133029203Y-102100574D01*
X133034419Y-102079750D01*
X133041651Y-102059538D01*
X133050830Y-102040132D01*
X133061866Y-102021719D01*
X133074654Y-102004476D01*
X133089070Y-101988570D01*
X133104976Y-101974154D01*
X133122219Y-101961366D01*
X133140632Y-101950330D01*
X133160038Y-101941151D01*
X133180250Y-101933919D01*
X133201074Y-101928703D01*
X133222309Y-101925553D01*
X133243750Y-101924500D01*
X133756250Y-101924500D01*
X133777691Y-101925553D01*
X133777691Y-101925553D01*
G37*
D11*
X133500000Y-102362000D03*
D10*
G36*
X129277691Y-100350553D02*
G01*
X129298926Y-100353703D01*
X129319750Y-100358919D01*
X129339962Y-100366151D01*
X129359368Y-100375330D01*
X129377781Y-100386366D01*
X129395024Y-100399154D01*
X129410930Y-100413570D01*
X129425346Y-100429476D01*
X129438134Y-100446719D01*
X129449170Y-100465132D01*
X129458349Y-100484538D01*
X129465581Y-100504750D01*
X129470797Y-100525574D01*
X129473947Y-100546809D01*
X129475000Y-100568250D01*
X129475000Y-101005750D01*
X129473947Y-101027191D01*
X129470797Y-101048426D01*
X129465581Y-101069250D01*
X129458349Y-101089462D01*
X129449170Y-101108868D01*
X129438134Y-101127281D01*
X129425346Y-101144524D01*
X129410930Y-101160430D01*
X129395024Y-101174846D01*
X129377781Y-101187634D01*
X129359368Y-101198670D01*
X129339962Y-101207849D01*
X129319750Y-101215081D01*
X129298926Y-101220297D01*
X129277691Y-101223447D01*
X129256250Y-101224500D01*
X128743750Y-101224500D01*
X128722309Y-101223447D01*
X128701074Y-101220297D01*
X128680250Y-101215081D01*
X128660038Y-101207849D01*
X128640632Y-101198670D01*
X128622219Y-101187634D01*
X128604976Y-101174846D01*
X128589070Y-101160430D01*
X128574654Y-101144524D01*
X128561866Y-101127281D01*
X128550830Y-101108868D01*
X128541651Y-101089462D01*
X128534419Y-101069250D01*
X128529203Y-101048426D01*
X128526053Y-101027191D01*
X128525000Y-101005750D01*
X128525000Y-100568250D01*
X128526053Y-100546809D01*
X128529203Y-100525574D01*
X128534419Y-100504750D01*
X128541651Y-100484538D01*
X128550830Y-100465132D01*
X128561866Y-100446719D01*
X128574654Y-100429476D01*
X128589070Y-100413570D01*
X128604976Y-100399154D01*
X128622219Y-100386366D01*
X128640632Y-100375330D01*
X128660038Y-100366151D01*
X128680250Y-100358919D01*
X128701074Y-100353703D01*
X128722309Y-100350553D01*
X128743750Y-100349500D01*
X129256250Y-100349500D01*
X129277691Y-100350553D01*
X129277691Y-100350553D01*
G37*
D11*
X129000000Y-100787000D03*
D10*
G36*
X129277691Y-101925553D02*
G01*
X129298926Y-101928703D01*
X129319750Y-101933919D01*
X129339962Y-101941151D01*
X129359368Y-101950330D01*
X129377781Y-101961366D01*
X129395024Y-101974154D01*
X129410930Y-101988570D01*
X129425346Y-102004476D01*
X129438134Y-102021719D01*
X129449170Y-102040132D01*
X129458349Y-102059538D01*
X129465581Y-102079750D01*
X129470797Y-102100574D01*
X129473947Y-102121809D01*
X129475000Y-102143250D01*
X129475000Y-102580750D01*
X129473947Y-102602191D01*
X129470797Y-102623426D01*
X129465581Y-102644250D01*
X129458349Y-102664462D01*
X129449170Y-102683868D01*
X129438134Y-102702281D01*
X129425346Y-102719524D01*
X129410930Y-102735430D01*
X129395024Y-102749846D01*
X129377781Y-102762634D01*
X129359368Y-102773670D01*
X129339962Y-102782849D01*
X129319750Y-102790081D01*
X129298926Y-102795297D01*
X129277691Y-102798447D01*
X129256250Y-102799500D01*
X128743750Y-102799500D01*
X128722309Y-102798447D01*
X128701074Y-102795297D01*
X128680250Y-102790081D01*
X128660038Y-102782849D01*
X128640632Y-102773670D01*
X128622219Y-102762634D01*
X128604976Y-102749846D01*
X128589070Y-102735430D01*
X128574654Y-102719524D01*
X128561866Y-102702281D01*
X128550830Y-102683868D01*
X128541651Y-102664462D01*
X128534419Y-102644250D01*
X128529203Y-102623426D01*
X128526053Y-102602191D01*
X128525000Y-102580750D01*
X128525000Y-102143250D01*
X128526053Y-102121809D01*
X128529203Y-102100574D01*
X128534419Y-102079750D01*
X128541651Y-102059538D01*
X128550830Y-102040132D01*
X128561866Y-102021719D01*
X128574654Y-102004476D01*
X128589070Y-101988570D01*
X128604976Y-101974154D01*
X128622219Y-101961366D01*
X128640632Y-101950330D01*
X128660038Y-101941151D01*
X128680250Y-101933919D01*
X128701074Y-101928703D01*
X128722309Y-101925553D01*
X128743750Y-101924500D01*
X129256250Y-101924500D01*
X129277691Y-101925553D01*
X129277691Y-101925553D01*
G37*
D11*
X129000000Y-102362000D03*
D10*
G36*
X148232691Y-89251053D02*
G01*
X148253926Y-89254203D01*
X148274750Y-89259419D01*
X148294962Y-89266651D01*
X148314368Y-89275830D01*
X148332781Y-89286866D01*
X148350024Y-89299654D01*
X148365930Y-89314070D01*
X148380346Y-89329976D01*
X148393134Y-89347219D01*
X148404170Y-89365632D01*
X148413349Y-89385038D01*
X148420581Y-89405250D01*
X148425797Y-89426074D01*
X148428947Y-89447309D01*
X148430000Y-89468750D01*
X148430000Y-89906250D01*
X148428947Y-89927691D01*
X148425797Y-89948926D01*
X148420581Y-89969750D01*
X148413349Y-89989962D01*
X148404170Y-90009368D01*
X148393134Y-90027781D01*
X148380346Y-90045024D01*
X148365930Y-90060930D01*
X148350024Y-90075346D01*
X148332781Y-90088134D01*
X148314368Y-90099170D01*
X148294962Y-90108349D01*
X148274750Y-90115581D01*
X148253926Y-90120797D01*
X148232691Y-90123947D01*
X148211250Y-90125000D01*
X147698750Y-90125000D01*
X147677309Y-90123947D01*
X147656074Y-90120797D01*
X147635250Y-90115581D01*
X147615038Y-90108349D01*
X147595632Y-90099170D01*
X147577219Y-90088134D01*
X147559976Y-90075346D01*
X147544070Y-90060930D01*
X147529654Y-90045024D01*
X147516866Y-90027781D01*
X147505830Y-90009368D01*
X147496651Y-89989962D01*
X147489419Y-89969750D01*
X147484203Y-89948926D01*
X147481053Y-89927691D01*
X147480000Y-89906250D01*
X147480000Y-89468750D01*
X147481053Y-89447309D01*
X147484203Y-89426074D01*
X147489419Y-89405250D01*
X147496651Y-89385038D01*
X147505830Y-89365632D01*
X147516866Y-89347219D01*
X147529654Y-89329976D01*
X147544070Y-89314070D01*
X147559976Y-89299654D01*
X147577219Y-89286866D01*
X147595632Y-89275830D01*
X147615038Y-89266651D01*
X147635250Y-89259419D01*
X147656074Y-89254203D01*
X147677309Y-89251053D01*
X147698750Y-89250000D01*
X148211250Y-89250000D01*
X148232691Y-89251053D01*
X148232691Y-89251053D01*
G37*
D11*
X147955000Y-89687500D03*
D10*
G36*
X148232691Y-87676053D02*
G01*
X148253926Y-87679203D01*
X148274750Y-87684419D01*
X148294962Y-87691651D01*
X148314368Y-87700830D01*
X148332781Y-87711866D01*
X148350024Y-87724654D01*
X148365930Y-87739070D01*
X148380346Y-87754976D01*
X148393134Y-87772219D01*
X148404170Y-87790632D01*
X148413349Y-87810038D01*
X148420581Y-87830250D01*
X148425797Y-87851074D01*
X148428947Y-87872309D01*
X148430000Y-87893750D01*
X148430000Y-88331250D01*
X148428947Y-88352691D01*
X148425797Y-88373926D01*
X148420581Y-88394750D01*
X148413349Y-88414962D01*
X148404170Y-88434368D01*
X148393134Y-88452781D01*
X148380346Y-88470024D01*
X148365930Y-88485930D01*
X148350024Y-88500346D01*
X148332781Y-88513134D01*
X148314368Y-88524170D01*
X148294962Y-88533349D01*
X148274750Y-88540581D01*
X148253926Y-88545797D01*
X148232691Y-88548947D01*
X148211250Y-88550000D01*
X147698750Y-88550000D01*
X147677309Y-88548947D01*
X147656074Y-88545797D01*
X147635250Y-88540581D01*
X147615038Y-88533349D01*
X147595632Y-88524170D01*
X147577219Y-88513134D01*
X147559976Y-88500346D01*
X147544070Y-88485930D01*
X147529654Y-88470024D01*
X147516866Y-88452781D01*
X147505830Y-88434368D01*
X147496651Y-88414962D01*
X147489419Y-88394750D01*
X147484203Y-88373926D01*
X147481053Y-88352691D01*
X147480000Y-88331250D01*
X147480000Y-87893750D01*
X147481053Y-87872309D01*
X147484203Y-87851074D01*
X147489419Y-87830250D01*
X147496651Y-87810038D01*
X147505830Y-87790632D01*
X147516866Y-87772219D01*
X147529654Y-87754976D01*
X147544070Y-87739070D01*
X147559976Y-87724654D01*
X147577219Y-87711866D01*
X147595632Y-87700830D01*
X147615038Y-87691651D01*
X147635250Y-87684419D01*
X147656074Y-87679203D01*
X147677309Y-87676053D01*
X147698750Y-87675000D01*
X148211250Y-87675000D01*
X148232691Y-87676053D01*
X148232691Y-87676053D01*
G37*
D11*
X147955000Y-88112500D03*
D10*
G36*
X155332691Y-92236053D02*
G01*
X155353926Y-92239203D01*
X155374750Y-92244419D01*
X155394962Y-92251651D01*
X155414368Y-92260830D01*
X155432781Y-92271866D01*
X155450024Y-92284654D01*
X155465930Y-92299070D01*
X155480346Y-92314976D01*
X155493134Y-92332219D01*
X155504170Y-92350632D01*
X155513349Y-92370038D01*
X155520581Y-92390250D01*
X155525797Y-92411074D01*
X155528947Y-92432309D01*
X155530000Y-92453750D01*
X155530000Y-92966250D01*
X155528947Y-92987691D01*
X155525797Y-93008926D01*
X155520581Y-93029750D01*
X155513349Y-93049962D01*
X155504170Y-93069368D01*
X155493134Y-93087781D01*
X155480346Y-93105024D01*
X155465930Y-93120930D01*
X155450024Y-93135346D01*
X155432781Y-93148134D01*
X155414368Y-93159170D01*
X155394962Y-93168349D01*
X155374750Y-93175581D01*
X155353926Y-93180797D01*
X155332691Y-93183947D01*
X155311250Y-93185000D01*
X154873750Y-93185000D01*
X154852309Y-93183947D01*
X154831074Y-93180797D01*
X154810250Y-93175581D01*
X154790038Y-93168349D01*
X154770632Y-93159170D01*
X154752219Y-93148134D01*
X154734976Y-93135346D01*
X154719070Y-93120930D01*
X154704654Y-93105024D01*
X154691866Y-93087781D01*
X154680830Y-93069368D01*
X154671651Y-93049962D01*
X154664419Y-93029750D01*
X154659203Y-93008926D01*
X154656053Y-92987691D01*
X154655000Y-92966250D01*
X154655000Y-92453750D01*
X154656053Y-92432309D01*
X154659203Y-92411074D01*
X154664419Y-92390250D01*
X154671651Y-92370038D01*
X154680830Y-92350632D01*
X154691866Y-92332219D01*
X154704654Y-92314976D01*
X154719070Y-92299070D01*
X154734976Y-92284654D01*
X154752219Y-92271866D01*
X154770632Y-92260830D01*
X154790038Y-92251651D01*
X154810250Y-92244419D01*
X154831074Y-92239203D01*
X154852309Y-92236053D01*
X154873750Y-92235000D01*
X155311250Y-92235000D01*
X155332691Y-92236053D01*
X155332691Y-92236053D01*
G37*
D11*
X155092500Y-92710000D03*
D10*
G36*
X153757691Y-92236053D02*
G01*
X153778926Y-92239203D01*
X153799750Y-92244419D01*
X153819962Y-92251651D01*
X153839368Y-92260830D01*
X153857781Y-92271866D01*
X153875024Y-92284654D01*
X153890930Y-92299070D01*
X153905346Y-92314976D01*
X153918134Y-92332219D01*
X153929170Y-92350632D01*
X153938349Y-92370038D01*
X153945581Y-92390250D01*
X153950797Y-92411074D01*
X153953947Y-92432309D01*
X153955000Y-92453750D01*
X153955000Y-92966250D01*
X153953947Y-92987691D01*
X153950797Y-93008926D01*
X153945581Y-93029750D01*
X153938349Y-93049962D01*
X153929170Y-93069368D01*
X153918134Y-93087781D01*
X153905346Y-93105024D01*
X153890930Y-93120930D01*
X153875024Y-93135346D01*
X153857781Y-93148134D01*
X153839368Y-93159170D01*
X153819962Y-93168349D01*
X153799750Y-93175581D01*
X153778926Y-93180797D01*
X153757691Y-93183947D01*
X153736250Y-93185000D01*
X153298750Y-93185000D01*
X153277309Y-93183947D01*
X153256074Y-93180797D01*
X153235250Y-93175581D01*
X153215038Y-93168349D01*
X153195632Y-93159170D01*
X153177219Y-93148134D01*
X153159976Y-93135346D01*
X153144070Y-93120930D01*
X153129654Y-93105024D01*
X153116866Y-93087781D01*
X153105830Y-93069368D01*
X153096651Y-93049962D01*
X153089419Y-93029750D01*
X153084203Y-93008926D01*
X153081053Y-92987691D01*
X153080000Y-92966250D01*
X153080000Y-92453750D01*
X153081053Y-92432309D01*
X153084203Y-92411074D01*
X153089419Y-92390250D01*
X153096651Y-92370038D01*
X153105830Y-92350632D01*
X153116866Y-92332219D01*
X153129654Y-92314976D01*
X153144070Y-92299070D01*
X153159976Y-92284654D01*
X153177219Y-92271866D01*
X153195632Y-92260830D01*
X153215038Y-92251651D01*
X153235250Y-92244419D01*
X153256074Y-92239203D01*
X153277309Y-92236053D01*
X153298750Y-92235000D01*
X153736250Y-92235000D01*
X153757691Y-92236053D01*
X153757691Y-92236053D01*
G37*
D11*
X153517500Y-92710000D03*
D10*
G36*
X155332691Y-97316053D02*
G01*
X155353926Y-97319203D01*
X155374750Y-97324419D01*
X155394962Y-97331651D01*
X155414368Y-97340830D01*
X155432781Y-97351866D01*
X155450024Y-97364654D01*
X155465930Y-97379070D01*
X155480346Y-97394976D01*
X155493134Y-97412219D01*
X155504170Y-97430632D01*
X155513349Y-97450038D01*
X155520581Y-97470250D01*
X155525797Y-97491074D01*
X155528947Y-97512309D01*
X155530000Y-97533750D01*
X155530000Y-98046250D01*
X155528947Y-98067691D01*
X155525797Y-98088926D01*
X155520581Y-98109750D01*
X155513349Y-98129962D01*
X155504170Y-98149368D01*
X155493134Y-98167781D01*
X155480346Y-98185024D01*
X155465930Y-98200930D01*
X155450024Y-98215346D01*
X155432781Y-98228134D01*
X155414368Y-98239170D01*
X155394962Y-98248349D01*
X155374750Y-98255581D01*
X155353926Y-98260797D01*
X155332691Y-98263947D01*
X155311250Y-98265000D01*
X154873750Y-98265000D01*
X154852309Y-98263947D01*
X154831074Y-98260797D01*
X154810250Y-98255581D01*
X154790038Y-98248349D01*
X154770632Y-98239170D01*
X154752219Y-98228134D01*
X154734976Y-98215346D01*
X154719070Y-98200930D01*
X154704654Y-98185024D01*
X154691866Y-98167781D01*
X154680830Y-98149368D01*
X154671651Y-98129962D01*
X154664419Y-98109750D01*
X154659203Y-98088926D01*
X154656053Y-98067691D01*
X154655000Y-98046250D01*
X154655000Y-97533750D01*
X154656053Y-97512309D01*
X154659203Y-97491074D01*
X154664419Y-97470250D01*
X154671651Y-97450038D01*
X154680830Y-97430632D01*
X154691866Y-97412219D01*
X154704654Y-97394976D01*
X154719070Y-97379070D01*
X154734976Y-97364654D01*
X154752219Y-97351866D01*
X154770632Y-97340830D01*
X154790038Y-97331651D01*
X154810250Y-97324419D01*
X154831074Y-97319203D01*
X154852309Y-97316053D01*
X154873750Y-97315000D01*
X155311250Y-97315000D01*
X155332691Y-97316053D01*
X155332691Y-97316053D01*
G37*
D11*
X155092500Y-97790000D03*
D10*
G36*
X153757691Y-97316053D02*
G01*
X153778926Y-97319203D01*
X153799750Y-97324419D01*
X153819962Y-97331651D01*
X153839368Y-97340830D01*
X153857781Y-97351866D01*
X153875024Y-97364654D01*
X153890930Y-97379070D01*
X153905346Y-97394976D01*
X153918134Y-97412219D01*
X153929170Y-97430632D01*
X153938349Y-97450038D01*
X153945581Y-97470250D01*
X153950797Y-97491074D01*
X153953947Y-97512309D01*
X153955000Y-97533750D01*
X153955000Y-98046250D01*
X153953947Y-98067691D01*
X153950797Y-98088926D01*
X153945581Y-98109750D01*
X153938349Y-98129962D01*
X153929170Y-98149368D01*
X153918134Y-98167781D01*
X153905346Y-98185024D01*
X153890930Y-98200930D01*
X153875024Y-98215346D01*
X153857781Y-98228134D01*
X153839368Y-98239170D01*
X153819962Y-98248349D01*
X153799750Y-98255581D01*
X153778926Y-98260797D01*
X153757691Y-98263947D01*
X153736250Y-98265000D01*
X153298750Y-98265000D01*
X153277309Y-98263947D01*
X153256074Y-98260797D01*
X153235250Y-98255581D01*
X153215038Y-98248349D01*
X153195632Y-98239170D01*
X153177219Y-98228134D01*
X153159976Y-98215346D01*
X153144070Y-98200930D01*
X153129654Y-98185024D01*
X153116866Y-98167781D01*
X153105830Y-98149368D01*
X153096651Y-98129962D01*
X153089419Y-98109750D01*
X153084203Y-98088926D01*
X153081053Y-98067691D01*
X153080000Y-98046250D01*
X153080000Y-97533750D01*
X153081053Y-97512309D01*
X153084203Y-97491074D01*
X153089419Y-97470250D01*
X153096651Y-97450038D01*
X153105830Y-97430632D01*
X153116866Y-97412219D01*
X153129654Y-97394976D01*
X153144070Y-97379070D01*
X153159976Y-97364654D01*
X153177219Y-97351866D01*
X153195632Y-97340830D01*
X153215038Y-97331651D01*
X153235250Y-97324419D01*
X153256074Y-97319203D01*
X153277309Y-97316053D01*
X153298750Y-97315000D01*
X153736250Y-97315000D01*
X153757691Y-97316053D01*
X153757691Y-97316053D01*
G37*
D11*
X153517500Y-97790000D03*
D10*
G36*
X136702691Y-80776053D02*
G01*
X136723926Y-80779203D01*
X136744750Y-80784419D01*
X136764962Y-80791651D01*
X136784368Y-80800830D01*
X136802781Y-80811866D01*
X136820024Y-80824654D01*
X136835930Y-80839070D01*
X136850346Y-80854976D01*
X136863134Y-80872219D01*
X136874170Y-80890632D01*
X136883349Y-80910038D01*
X136890581Y-80930250D01*
X136895797Y-80951074D01*
X136898947Y-80972309D01*
X136900000Y-80993750D01*
X136900000Y-81506250D01*
X136898947Y-81527691D01*
X136895797Y-81548926D01*
X136890581Y-81569750D01*
X136883349Y-81589962D01*
X136874170Y-81609368D01*
X136863134Y-81627781D01*
X136850346Y-81645024D01*
X136835930Y-81660930D01*
X136820024Y-81675346D01*
X136802781Y-81688134D01*
X136784368Y-81699170D01*
X136764962Y-81708349D01*
X136744750Y-81715581D01*
X136723926Y-81720797D01*
X136702691Y-81723947D01*
X136681250Y-81725000D01*
X136243750Y-81725000D01*
X136222309Y-81723947D01*
X136201074Y-81720797D01*
X136180250Y-81715581D01*
X136160038Y-81708349D01*
X136140632Y-81699170D01*
X136122219Y-81688134D01*
X136104976Y-81675346D01*
X136089070Y-81660930D01*
X136074654Y-81645024D01*
X136061866Y-81627781D01*
X136050830Y-81609368D01*
X136041651Y-81589962D01*
X136034419Y-81569750D01*
X136029203Y-81548926D01*
X136026053Y-81527691D01*
X136025000Y-81506250D01*
X136025000Y-80993750D01*
X136026053Y-80972309D01*
X136029203Y-80951074D01*
X136034419Y-80930250D01*
X136041651Y-80910038D01*
X136050830Y-80890632D01*
X136061866Y-80872219D01*
X136074654Y-80854976D01*
X136089070Y-80839070D01*
X136104976Y-80824654D01*
X136122219Y-80811866D01*
X136140632Y-80800830D01*
X136160038Y-80791651D01*
X136180250Y-80784419D01*
X136201074Y-80779203D01*
X136222309Y-80776053D01*
X136243750Y-80775000D01*
X136681250Y-80775000D01*
X136702691Y-80776053D01*
X136702691Y-80776053D01*
G37*
D11*
X136462500Y-81250000D03*
D10*
G36*
X138277691Y-80776053D02*
G01*
X138298926Y-80779203D01*
X138319750Y-80784419D01*
X138339962Y-80791651D01*
X138359368Y-80800830D01*
X138377781Y-80811866D01*
X138395024Y-80824654D01*
X138410930Y-80839070D01*
X138425346Y-80854976D01*
X138438134Y-80872219D01*
X138449170Y-80890632D01*
X138458349Y-80910038D01*
X138465581Y-80930250D01*
X138470797Y-80951074D01*
X138473947Y-80972309D01*
X138475000Y-80993750D01*
X138475000Y-81506250D01*
X138473947Y-81527691D01*
X138470797Y-81548926D01*
X138465581Y-81569750D01*
X138458349Y-81589962D01*
X138449170Y-81609368D01*
X138438134Y-81627781D01*
X138425346Y-81645024D01*
X138410930Y-81660930D01*
X138395024Y-81675346D01*
X138377781Y-81688134D01*
X138359368Y-81699170D01*
X138339962Y-81708349D01*
X138319750Y-81715581D01*
X138298926Y-81720797D01*
X138277691Y-81723947D01*
X138256250Y-81725000D01*
X137818750Y-81725000D01*
X137797309Y-81723947D01*
X137776074Y-81720797D01*
X137755250Y-81715581D01*
X137735038Y-81708349D01*
X137715632Y-81699170D01*
X137697219Y-81688134D01*
X137679976Y-81675346D01*
X137664070Y-81660930D01*
X137649654Y-81645024D01*
X137636866Y-81627781D01*
X137625830Y-81609368D01*
X137616651Y-81589962D01*
X137609419Y-81569750D01*
X137604203Y-81548926D01*
X137601053Y-81527691D01*
X137600000Y-81506250D01*
X137600000Y-80993750D01*
X137601053Y-80972309D01*
X137604203Y-80951074D01*
X137609419Y-80930250D01*
X137616651Y-80910038D01*
X137625830Y-80890632D01*
X137636866Y-80872219D01*
X137649654Y-80854976D01*
X137664070Y-80839070D01*
X137679976Y-80824654D01*
X137697219Y-80811866D01*
X137715632Y-80800830D01*
X137735038Y-80791651D01*
X137755250Y-80784419D01*
X137776074Y-80779203D01*
X137797309Y-80776053D01*
X137818750Y-80775000D01*
X138256250Y-80775000D01*
X138277691Y-80776053D01*
X138277691Y-80776053D01*
G37*
D11*
X138037500Y-81250000D03*
D10*
G36*
X136702691Y-79026053D02*
G01*
X136723926Y-79029203D01*
X136744750Y-79034419D01*
X136764962Y-79041651D01*
X136784368Y-79050830D01*
X136802781Y-79061866D01*
X136820024Y-79074654D01*
X136835930Y-79089070D01*
X136850346Y-79104976D01*
X136863134Y-79122219D01*
X136874170Y-79140632D01*
X136883349Y-79160038D01*
X136890581Y-79180250D01*
X136895797Y-79201074D01*
X136898947Y-79222309D01*
X136900000Y-79243750D01*
X136900000Y-79756250D01*
X136898947Y-79777691D01*
X136895797Y-79798926D01*
X136890581Y-79819750D01*
X136883349Y-79839962D01*
X136874170Y-79859368D01*
X136863134Y-79877781D01*
X136850346Y-79895024D01*
X136835930Y-79910930D01*
X136820024Y-79925346D01*
X136802781Y-79938134D01*
X136784368Y-79949170D01*
X136764962Y-79958349D01*
X136744750Y-79965581D01*
X136723926Y-79970797D01*
X136702691Y-79973947D01*
X136681250Y-79975000D01*
X136243750Y-79975000D01*
X136222309Y-79973947D01*
X136201074Y-79970797D01*
X136180250Y-79965581D01*
X136160038Y-79958349D01*
X136140632Y-79949170D01*
X136122219Y-79938134D01*
X136104976Y-79925346D01*
X136089070Y-79910930D01*
X136074654Y-79895024D01*
X136061866Y-79877781D01*
X136050830Y-79859368D01*
X136041651Y-79839962D01*
X136034419Y-79819750D01*
X136029203Y-79798926D01*
X136026053Y-79777691D01*
X136025000Y-79756250D01*
X136025000Y-79243750D01*
X136026053Y-79222309D01*
X136029203Y-79201074D01*
X136034419Y-79180250D01*
X136041651Y-79160038D01*
X136050830Y-79140632D01*
X136061866Y-79122219D01*
X136074654Y-79104976D01*
X136089070Y-79089070D01*
X136104976Y-79074654D01*
X136122219Y-79061866D01*
X136140632Y-79050830D01*
X136160038Y-79041651D01*
X136180250Y-79034419D01*
X136201074Y-79029203D01*
X136222309Y-79026053D01*
X136243750Y-79025000D01*
X136681250Y-79025000D01*
X136702691Y-79026053D01*
X136702691Y-79026053D01*
G37*
D11*
X136462500Y-79500000D03*
D10*
G36*
X138277691Y-79026053D02*
G01*
X138298926Y-79029203D01*
X138319750Y-79034419D01*
X138339962Y-79041651D01*
X138359368Y-79050830D01*
X138377781Y-79061866D01*
X138395024Y-79074654D01*
X138410930Y-79089070D01*
X138425346Y-79104976D01*
X138438134Y-79122219D01*
X138449170Y-79140632D01*
X138458349Y-79160038D01*
X138465581Y-79180250D01*
X138470797Y-79201074D01*
X138473947Y-79222309D01*
X138475000Y-79243750D01*
X138475000Y-79756250D01*
X138473947Y-79777691D01*
X138470797Y-79798926D01*
X138465581Y-79819750D01*
X138458349Y-79839962D01*
X138449170Y-79859368D01*
X138438134Y-79877781D01*
X138425346Y-79895024D01*
X138410930Y-79910930D01*
X138395024Y-79925346D01*
X138377781Y-79938134D01*
X138359368Y-79949170D01*
X138339962Y-79958349D01*
X138319750Y-79965581D01*
X138298926Y-79970797D01*
X138277691Y-79973947D01*
X138256250Y-79975000D01*
X137818750Y-79975000D01*
X137797309Y-79973947D01*
X137776074Y-79970797D01*
X137755250Y-79965581D01*
X137735038Y-79958349D01*
X137715632Y-79949170D01*
X137697219Y-79938134D01*
X137679976Y-79925346D01*
X137664070Y-79910930D01*
X137649654Y-79895024D01*
X137636866Y-79877781D01*
X137625830Y-79859368D01*
X137616651Y-79839962D01*
X137609419Y-79819750D01*
X137604203Y-79798926D01*
X137601053Y-79777691D01*
X137600000Y-79756250D01*
X137600000Y-79243750D01*
X137601053Y-79222309D01*
X137604203Y-79201074D01*
X137609419Y-79180250D01*
X137616651Y-79160038D01*
X137625830Y-79140632D01*
X137636866Y-79122219D01*
X137649654Y-79104976D01*
X137664070Y-79089070D01*
X137679976Y-79074654D01*
X137697219Y-79061866D01*
X137715632Y-79050830D01*
X137735038Y-79041651D01*
X137755250Y-79034419D01*
X137776074Y-79029203D01*
X137797309Y-79026053D01*
X137818750Y-79025000D01*
X138256250Y-79025000D01*
X138277691Y-79026053D01*
X138277691Y-79026053D01*
G37*
D11*
X138037500Y-79500000D03*
D10*
G36*
X122959691Y-89251053D02*
G01*
X122980926Y-89254203D01*
X123001750Y-89259419D01*
X123021962Y-89266651D01*
X123041368Y-89275830D01*
X123059781Y-89286866D01*
X123077024Y-89299654D01*
X123092930Y-89314070D01*
X123107346Y-89329976D01*
X123120134Y-89347219D01*
X123131170Y-89365632D01*
X123140349Y-89385038D01*
X123147581Y-89405250D01*
X123152797Y-89426074D01*
X123155947Y-89447309D01*
X123157000Y-89468750D01*
X123157000Y-89906250D01*
X123155947Y-89927691D01*
X123152797Y-89948926D01*
X123147581Y-89969750D01*
X123140349Y-89989962D01*
X123131170Y-90009368D01*
X123120134Y-90027781D01*
X123107346Y-90045024D01*
X123092930Y-90060930D01*
X123077024Y-90075346D01*
X123059781Y-90088134D01*
X123041368Y-90099170D01*
X123021962Y-90108349D01*
X123001750Y-90115581D01*
X122980926Y-90120797D01*
X122959691Y-90123947D01*
X122938250Y-90125000D01*
X122425750Y-90125000D01*
X122404309Y-90123947D01*
X122383074Y-90120797D01*
X122362250Y-90115581D01*
X122342038Y-90108349D01*
X122322632Y-90099170D01*
X122304219Y-90088134D01*
X122286976Y-90075346D01*
X122271070Y-90060930D01*
X122256654Y-90045024D01*
X122243866Y-90027781D01*
X122232830Y-90009368D01*
X122223651Y-89989962D01*
X122216419Y-89969750D01*
X122211203Y-89948926D01*
X122208053Y-89927691D01*
X122207000Y-89906250D01*
X122207000Y-89468750D01*
X122208053Y-89447309D01*
X122211203Y-89426074D01*
X122216419Y-89405250D01*
X122223651Y-89385038D01*
X122232830Y-89365632D01*
X122243866Y-89347219D01*
X122256654Y-89329976D01*
X122271070Y-89314070D01*
X122286976Y-89299654D01*
X122304219Y-89286866D01*
X122322632Y-89275830D01*
X122342038Y-89266651D01*
X122362250Y-89259419D01*
X122383074Y-89254203D01*
X122404309Y-89251053D01*
X122425750Y-89250000D01*
X122938250Y-89250000D01*
X122959691Y-89251053D01*
X122959691Y-89251053D01*
G37*
D11*
X122682000Y-89687500D03*
D10*
G36*
X122959691Y-87676053D02*
G01*
X122980926Y-87679203D01*
X123001750Y-87684419D01*
X123021962Y-87691651D01*
X123041368Y-87700830D01*
X123059781Y-87711866D01*
X123077024Y-87724654D01*
X123092930Y-87739070D01*
X123107346Y-87754976D01*
X123120134Y-87772219D01*
X123131170Y-87790632D01*
X123140349Y-87810038D01*
X123147581Y-87830250D01*
X123152797Y-87851074D01*
X123155947Y-87872309D01*
X123157000Y-87893750D01*
X123157000Y-88331250D01*
X123155947Y-88352691D01*
X123152797Y-88373926D01*
X123147581Y-88394750D01*
X123140349Y-88414962D01*
X123131170Y-88434368D01*
X123120134Y-88452781D01*
X123107346Y-88470024D01*
X123092930Y-88485930D01*
X123077024Y-88500346D01*
X123059781Y-88513134D01*
X123041368Y-88524170D01*
X123021962Y-88533349D01*
X123001750Y-88540581D01*
X122980926Y-88545797D01*
X122959691Y-88548947D01*
X122938250Y-88550000D01*
X122425750Y-88550000D01*
X122404309Y-88548947D01*
X122383074Y-88545797D01*
X122362250Y-88540581D01*
X122342038Y-88533349D01*
X122322632Y-88524170D01*
X122304219Y-88513134D01*
X122286976Y-88500346D01*
X122271070Y-88485930D01*
X122256654Y-88470024D01*
X122243866Y-88452781D01*
X122232830Y-88434368D01*
X122223651Y-88414962D01*
X122216419Y-88394750D01*
X122211203Y-88373926D01*
X122208053Y-88352691D01*
X122207000Y-88331250D01*
X122207000Y-87893750D01*
X122208053Y-87872309D01*
X122211203Y-87851074D01*
X122216419Y-87830250D01*
X122223651Y-87810038D01*
X122232830Y-87790632D01*
X122243866Y-87772219D01*
X122256654Y-87754976D01*
X122271070Y-87739070D01*
X122286976Y-87724654D01*
X122304219Y-87711866D01*
X122322632Y-87700830D01*
X122342038Y-87691651D01*
X122362250Y-87684419D01*
X122383074Y-87679203D01*
X122404309Y-87676053D01*
X122425750Y-87675000D01*
X122938250Y-87675000D01*
X122959691Y-87676053D01*
X122959691Y-87676053D01*
G37*
D11*
X122682000Y-88112500D03*
D10*
G36*
X150137691Y-83866053D02*
G01*
X150158926Y-83869203D01*
X150179750Y-83874419D01*
X150199962Y-83881651D01*
X150219368Y-83890830D01*
X150237781Y-83901866D01*
X150255024Y-83914654D01*
X150270930Y-83929070D01*
X150285346Y-83944976D01*
X150298134Y-83962219D01*
X150309170Y-83980632D01*
X150318349Y-84000038D01*
X150325581Y-84020250D01*
X150330797Y-84041074D01*
X150333947Y-84062309D01*
X150335000Y-84083750D01*
X150335000Y-84521250D01*
X150333947Y-84542691D01*
X150330797Y-84563926D01*
X150325581Y-84584750D01*
X150318349Y-84604962D01*
X150309170Y-84624368D01*
X150298134Y-84642781D01*
X150285346Y-84660024D01*
X150270930Y-84675930D01*
X150255024Y-84690346D01*
X150237781Y-84703134D01*
X150219368Y-84714170D01*
X150199962Y-84723349D01*
X150179750Y-84730581D01*
X150158926Y-84735797D01*
X150137691Y-84738947D01*
X150116250Y-84740000D01*
X149603750Y-84740000D01*
X149582309Y-84738947D01*
X149561074Y-84735797D01*
X149540250Y-84730581D01*
X149520038Y-84723349D01*
X149500632Y-84714170D01*
X149482219Y-84703134D01*
X149464976Y-84690346D01*
X149449070Y-84675930D01*
X149434654Y-84660024D01*
X149421866Y-84642781D01*
X149410830Y-84624368D01*
X149401651Y-84604962D01*
X149394419Y-84584750D01*
X149389203Y-84563926D01*
X149386053Y-84542691D01*
X149385000Y-84521250D01*
X149385000Y-84083750D01*
X149386053Y-84062309D01*
X149389203Y-84041074D01*
X149394419Y-84020250D01*
X149401651Y-84000038D01*
X149410830Y-83980632D01*
X149421866Y-83962219D01*
X149434654Y-83944976D01*
X149449070Y-83929070D01*
X149464976Y-83914654D01*
X149482219Y-83901866D01*
X149500632Y-83890830D01*
X149520038Y-83881651D01*
X149540250Y-83874419D01*
X149561074Y-83869203D01*
X149582309Y-83866053D01*
X149603750Y-83865000D01*
X150116250Y-83865000D01*
X150137691Y-83866053D01*
X150137691Y-83866053D01*
G37*
D11*
X149860000Y-84302500D03*
D10*
G36*
X150137691Y-85441053D02*
G01*
X150158926Y-85444203D01*
X150179750Y-85449419D01*
X150199962Y-85456651D01*
X150219368Y-85465830D01*
X150237781Y-85476866D01*
X150255024Y-85489654D01*
X150270930Y-85504070D01*
X150285346Y-85519976D01*
X150298134Y-85537219D01*
X150309170Y-85555632D01*
X150318349Y-85575038D01*
X150325581Y-85595250D01*
X150330797Y-85616074D01*
X150333947Y-85637309D01*
X150335000Y-85658750D01*
X150335000Y-86096250D01*
X150333947Y-86117691D01*
X150330797Y-86138926D01*
X150325581Y-86159750D01*
X150318349Y-86179962D01*
X150309170Y-86199368D01*
X150298134Y-86217781D01*
X150285346Y-86235024D01*
X150270930Y-86250930D01*
X150255024Y-86265346D01*
X150237781Y-86278134D01*
X150219368Y-86289170D01*
X150199962Y-86298349D01*
X150179750Y-86305581D01*
X150158926Y-86310797D01*
X150137691Y-86313947D01*
X150116250Y-86315000D01*
X149603750Y-86315000D01*
X149582309Y-86313947D01*
X149561074Y-86310797D01*
X149540250Y-86305581D01*
X149520038Y-86298349D01*
X149500632Y-86289170D01*
X149482219Y-86278134D01*
X149464976Y-86265346D01*
X149449070Y-86250930D01*
X149434654Y-86235024D01*
X149421866Y-86217781D01*
X149410830Y-86199368D01*
X149401651Y-86179962D01*
X149394419Y-86159750D01*
X149389203Y-86138926D01*
X149386053Y-86117691D01*
X149385000Y-86096250D01*
X149385000Y-85658750D01*
X149386053Y-85637309D01*
X149389203Y-85616074D01*
X149394419Y-85595250D01*
X149401651Y-85575038D01*
X149410830Y-85555632D01*
X149421866Y-85537219D01*
X149434654Y-85519976D01*
X149449070Y-85504070D01*
X149464976Y-85489654D01*
X149482219Y-85476866D01*
X149500632Y-85465830D01*
X149520038Y-85456651D01*
X149540250Y-85449419D01*
X149561074Y-85444203D01*
X149582309Y-85441053D01*
X149603750Y-85440000D01*
X150116250Y-85440000D01*
X150137691Y-85441053D01*
X150137691Y-85441053D01*
G37*
D11*
X149860000Y-85877500D03*
D10*
G36*
X154582691Y-83866053D02*
G01*
X154603926Y-83869203D01*
X154624750Y-83874419D01*
X154644962Y-83881651D01*
X154664368Y-83890830D01*
X154682781Y-83901866D01*
X154700024Y-83914654D01*
X154715930Y-83929070D01*
X154730346Y-83944976D01*
X154743134Y-83962219D01*
X154754170Y-83980632D01*
X154763349Y-84000038D01*
X154770581Y-84020250D01*
X154775797Y-84041074D01*
X154778947Y-84062309D01*
X154780000Y-84083750D01*
X154780000Y-84521250D01*
X154778947Y-84542691D01*
X154775797Y-84563926D01*
X154770581Y-84584750D01*
X154763349Y-84604962D01*
X154754170Y-84624368D01*
X154743134Y-84642781D01*
X154730346Y-84660024D01*
X154715930Y-84675930D01*
X154700024Y-84690346D01*
X154682781Y-84703134D01*
X154664368Y-84714170D01*
X154644962Y-84723349D01*
X154624750Y-84730581D01*
X154603926Y-84735797D01*
X154582691Y-84738947D01*
X154561250Y-84740000D01*
X154048750Y-84740000D01*
X154027309Y-84738947D01*
X154006074Y-84735797D01*
X153985250Y-84730581D01*
X153965038Y-84723349D01*
X153945632Y-84714170D01*
X153927219Y-84703134D01*
X153909976Y-84690346D01*
X153894070Y-84675930D01*
X153879654Y-84660024D01*
X153866866Y-84642781D01*
X153855830Y-84624368D01*
X153846651Y-84604962D01*
X153839419Y-84584750D01*
X153834203Y-84563926D01*
X153831053Y-84542691D01*
X153830000Y-84521250D01*
X153830000Y-84083750D01*
X153831053Y-84062309D01*
X153834203Y-84041074D01*
X153839419Y-84020250D01*
X153846651Y-84000038D01*
X153855830Y-83980632D01*
X153866866Y-83962219D01*
X153879654Y-83944976D01*
X153894070Y-83929070D01*
X153909976Y-83914654D01*
X153927219Y-83901866D01*
X153945632Y-83890830D01*
X153965038Y-83881651D01*
X153985250Y-83874419D01*
X154006074Y-83869203D01*
X154027309Y-83866053D01*
X154048750Y-83865000D01*
X154561250Y-83865000D01*
X154582691Y-83866053D01*
X154582691Y-83866053D01*
G37*
D11*
X154305000Y-84302500D03*
D10*
G36*
X154582691Y-85441053D02*
G01*
X154603926Y-85444203D01*
X154624750Y-85449419D01*
X154644962Y-85456651D01*
X154664368Y-85465830D01*
X154682781Y-85476866D01*
X154700024Y-85489654D01*
X154715930Y-85504070D01*
X154730346Y-85519976D01*
X154743134Y-85537219D01*
X154754170Y-85555632D01*
X154763349Y-85575038D01*
X154770581Y-85595250D01*
X154775797Y-85616074D01*
X154778947Y-85637309D01*
X154780000Y-85658750D01*
X154780000Y-86096250D01*
X154778947Y-86117691D01*
X154775797Y-86138926D01*
X154770581Y-86159750D01*
X154763349Y-86179962D01*
X154754170Y-86199368D01*
X154743134Y-86217781D01*
X154730346Y-86235024D01*
X154715930Y-86250930D01*
X154700024Y-86265346D01*
X154682781Y-86278134D01*
X154664368Y-86289170D01*
X154644962Y-86298349D01*
X154624750Y-86305581D01*
X154603926Y-86310797D01*
X154582691Y-86313947D01*
X154561250Y-86315000D01*
X154048750Y-86315000D01*
X154027309Y-86313947D01*
X154006074Y-86310797D01*
X153985250Y-86305581D01*
X153965038Y-86298349D01*
X153945632Y-86289170D01*
X153927219Y-86278134D01*
X153909976Y-86265346D01*
X153894070Y-86250930D01*
X153879654Y-86235024D01*
X153866866Y-86217781D01*
X153855830Y-86199368D01*
X153846651Y-86179962D01*
X153839419Y-86159750D01*
X153834203Y-86138926D01*
X153831053Y-86117691D01*
X153830000Y-86096250D01*
X153830000Y-85658750D01*
X153831053Y-85637309D01*
X153834203Y-85616074D01*
X153839419Y-85595250D01*
X153846651Y-85575038D01*
X153855830Y-85555632D01*
X153866866Y-85537219D01*
X153879654Y-85519976D01*
X153894070Y-85504070D01*
X153909976Y-85489654D01*
X153927219Y-85476866D01*
X153945632Y-85465830D01*
X153965038Y-85456651D01*
X153985250Y-85449419D01*
X154006074Y-85444203D01*
X154027309Y-85441053D01*
X154048750Y-85440000D01*
X154561250Y-85440000D01*
X154582691Y-85441053D01*
X154582691Y-85441053D01*
G37*
D11*
X154305000Y-85877500D03*
D10*
G36*
X152677691Y-83866053D02*
G01*
X152698926Y-83869203D01*
X152719750Y-83874419D01*
X152739962Y-83881651D01*
X152759368Y-83890830D01*
X152777781Y-83901866D01*
X152795024Y-83914654D01*
X152810930Y-83929070D01*
X152825346Y-83944976D01*
X152838134Y-83962219D01*
X152849170Y-83980632D01*
X152858349Y-84000038D01*
X152865581Y-84020250D01*
X152870797Y-84041074D01*
X152873947Y-84062309D01*
X152875000Y-84083750D01*
X152875000Y-84521250D01*
X152873947Y-84542691D01*
X152870797Y-84563926D01*
X152865581Y-84584750D01*
X152858349Y-84604962D01*
X152849170Y-84624368D01*
X152838134Y-84642781D01*
X152825346Y-84660024D01*
X152810930Y-84675930D01*
X152795024Y-84690346D01*
X152777781Y-84703134D01*
X152759368Y-84714170D01*
X152739962Y-84723349D01*
X152719750Y-84730581D01*
X152698926Y-84735797D01*
X152677691Y-84738947D01*
X152656250Y-84740000D01*
X152143750Y-84740000D01*
X152122309Y-84738947D01*
X152101074Y-84735797D01*
X152080250Y-84730581D01*
X152060038Y-84723349D01*
X152040632Y-84714170D01*
X152022219Y-84703134D01*
X152004976Y-84690346D01*
X151989070Y-84675930D01*
X151974654Y-84660024D01*
X151961866Y-84642781D01*
X151950830Y-84624368D01*
X151941651Y-84604962D01*
X151934419Y-84584750D01*
X151929203Y-84563926D01*
X151926053Y-84542691D01*
X151925000Y-84521250D01*
X151925000Y-84083750D01*
X151926053Y-84062309D01*
X151929203Y-84041074D01*
X151934419Y-84020250D01*
X151941651Y-84000038D01*
X151950830Y-83980632D01*
X151961866Y-83962219D01*
X151974654Y-83944976D01*
X151989070Y-83929070D01*
X152004976Y-83914654D01*
X152022219Y-83901866D01*
X152040632Y-83890830D01*
X152060038Y-83881651D01*
X152080250Y-83874419D01*
X152101074Y-83869203D01*
X152122309Y-83866053D01*
X152143750Y-83865000D01*
X152656250Y-83865000D01*
X152677691Y-83866053D01*
X152677691Y-83866053D01*
G37*
D11*
X152400000Y-84302500D03*
D10*
G36*
X152677691Y-85441053D02*
G01*
X152698926Y-85444203D01*
X152719750Y-85449419D01*
X152739962Y-85456651D01*
X152759368Y-85465830D01*
X152777781Y-85476866D01*
X152795024Y-85489654D01*
X152810930Y-85504070D01*
X152825346Y-85519976D01*
X152838134Y-85537219D01*
X152849170Y-85555632D01*
X152858349Y-85575038D01*
X152865581Y-85595250D01*
X152870797Y-85616074D01*
X152873947Y-85637309D01*
X152875000Y-85658750D01*
X152875000Y-86096250D01*
X152873947Y-86117691D01*
X152870797Y-86138926D01*
X152865581Y-86159750D01*
X152858349Y-86179962D01*
X152849170Y-86199368D01*
X152838134Y-86217781D01*
X152825346Y-86235024D01*
X152810930Y-86250930D01*
X152795024Y-86265346D01*
X152777781Y-86278134D01*
X152759368Y-86289170D01*
X152739962Y-86298349D01*
X152719750Y-86305581D01*
X152698926Y-86310797D01*
X152677691Y-86313947D01*
X152656250Y-86315000D01*
X152143750Y-86315000D01*
X152122309Y-86313947D01*
X152101074Y-86310797D01*
X152080250Y-86305581D01*
X152060038Y-86298349D01*
X152040632Y-86289170D01*
X152022219Y-86278134D01*
X152004976Y-86265346D01*
X151989070Y-86250930D01*
X151974654Y-86235024D01*
X151961866Y-86217781D01*
X151950830Y-86199368D01*
X151941651Y-86179962D01*
X151934419Y-86159750D01*
X151929203Y-86138926D01*
X151926053Y-86117691D01*
X151925000Y-86096250D01*
X151925000Y-85658750D01*
X151926053Y-85637309D01*
X151929203Y-85616074D01*
X151934419Y-85595250D01*
X151941651Y-85575038D01*
X151950830Y-85555632D01*
X151961866Y-85537219D01*
X151974654Y-85519976D01*
X151989070Y-85504070D01*
X152004976Y-85489654D01*
X152022219Y-85476866D01*
X152040632Y-85465830D01*
X152060038Y-85456651D01*
X152080250Y-85449419D01*
X152101074Y-85444203D01*
X152122309Y-85441053D01*
X152143750Y-85440000D01*
X152656250Y-85440000D01*
X152677691Y-85441053D01*
X152677691Y-85441053D01*
G37*
D11*
X152400000Y-85877500D03*
D10*
G36*
X114577691Y-69896053D02*
G01*
X114598926Y-69899203D01*
X114619750Y-69904419D01*
X114639962Y-69911651D01*
X114659368Y-69920830D01*
X114677781Y-69931866D01*
X114695024Y-69944654D01*
X114710930Y-69959070D01*
X114725346Y-69974976D01*
X114738134Y-69992219D01*
X114749170Y-70010632D01*
X114758349Y-70030038D01*
X114765581Y-70050250D01*
X114770797Y-70071074D01*
X114773947Y-70092309D01*
X114775000Y-70113750D01*
X114775000Y-70551250D01*
X114773947Y-70572691D01*
X114770797Y-70593926D01*
X114765581Y-70614750D01*
X114758349Y-70634962D01*
X114749170Y-70654368D01*
X114738134Y-70672781D01*
X114725346Y-70690024D01*
X114710930Y-70705930D01*
X114695024Y-70720346D01*
X114677781Y-70733134D01*
X114659368Y-70744170D01*
X114639962Y-70753349D01*
X114619750Y-70760581D01*
X114598926Y-70765797D01*
X114577691Y-70768947D01*
X114556250Y-70770000D01*
X114043750Y-70770000D01*
X114022309Y-70768947D01*
X114001074Y-70765797D01*
X113980250Y-70760581D01*
X113960038Y-70753349D01*
X113940632Y-70744170D01*
X113922219Y-70733134D01*
X113904976Y-70720346D01*
X113889070Y-70705930D01*
X113874654Y-70690024D01*
X113861866Y-70672781D01*
X113850830Y-70654368D01*
X113841651Y-70634962D01*
X113834419Y-70614750D01*
X113829203Y-70593926D01*
X113826053Y-70572691D01*
X113825000Y-70551250D01*
X113825000Y-70113750D01*
X113826053Y-70092309D01*
X113829203Y-70071074D01*
X113834419Y-70050250D01*
X113841651Y-70030038D01*
X113850830Y-70010632D01*
X113861866Y-69992219D01*
X113874654Y-69974976D01*
X113889070Y-69959070D01*
X113904976Y-69944654D01*
X113922219Y-69931866D01*
X113940632Y-69920830D01*
X113960038Y-69911651D01*
X113980250Y-69904419D01*
X114001074Y-69899203D01*
X114022309Y-69896053D01*
X114043750Y-69895000D01*
X114556250Y-69895000D01*
X114577691Y-69896053D01*
X114577691Y-69896053D01*
G37*
D11*
X114300000Y-70332500D03*
D10*
G36*
X114577691Y-71471053D02*
G01*
X114598926Y-71474203D01*
X114619750Y-71479419D01*
X114639962Y-71486651D01*
X114659368Y-71495830D01*
X114677781Y-71506866D01*
X114695024Y-71519654D01*
X114710930Y-71534070D01*
X114725346Y-71549976D01*
X114738134Y-71567219D01*
X114749170Y-71585632D01*
X114758349Y-71605038D01*
X114765581Y-71625250D01*
X114770797Y-71646074D01*
X114773947Y-71667309D01*
X114775000Y-71688750D01*
X114775000Y-72126250D01*
X114773947Y-72147691D01*
X114770797Y-72168926D01*
X114765581Y-72189750D01*
X114758349Y-72209962D01*
X114749170Y-72229368D01*
X114738134Y-72247781D01*
X114725346Y-72265024D01*
X114710930Y-72280930D01*
X114695024Y-72295346D01*
X114677781Y-72308134D01*
X114659368Y-72319170D01*
X114639962Y-72328349D01*
X114619750Y-72335581D01*
X114598926Y-72340797D01*
X114577691Y-72343947D01*
X114556250Y-72345000D01*
X114043750Y-72345000D01*
X114022309Y-72343947D01*
X114001074Y-72340797D01*
X113980250Y-72335581D01*
X113960038Y-72328349D01*
X113940632Y-72319170D01*
X113922219Y-72308134D01*
X113904976Y-72295346D01*
X113889070Y-72280930D01*
X113874654Y-72265024D01*
X113861866Y-72247781D01*
X113850830Y-72229368D01*
X113841651Y-72209962D01*
X113834419Y-72189750D01*
X113829203Y-72168926D01*
X113826053Y-72147691D01*
X113825000Y-72126250D01*
X113825000Y-71688750D01*
X113826053Y-71667309D01*
X113829203Y-71646074D01*
X113834419Y-71625250D01*
X113841651Y-71605038D01*
X113850830Y-71585632D01*
X113861866Y-71567219D01*
X113874654Y-71549976D01*
X113889070Y-71534070D01*
X113904976Y-71519654D01*
X113922219Y-71506866D01*
X113940632Y-71495830D01*
X113960038Y-71486651D01*
X113980250Y-71479419D01*
X114001074Y-71474203D01*
X114022309Y-71471053D01*
X114043750Y-71470000D01*
X114556250Y-71470000D01*
X114577691Y-71471053D01*
X114577691Y-71471053D01*
G37*
D11*
X114300000Y-71907500D03*
D10*
G36*
X139342691Y-71471053D02*
G01*
X139363926Y-71474203D01*
X139384750Y-71479419D01*
X139404962Y-71486651D01*
X139424368Y-71495830D01*
X139442781Y-71506866D01*
X139460024Y-71519654D01*
X139475930Y-71534070D01*
X139490346Y-71549976D01*
X139503134Y-71567219D01*
X139514170Y-71585632D01*
X139523349Y-71605038D01*
X139530581Y-71625250D01*
X139535797Y-71646074D01*
X139538947Y-71667309D01*
X139540000Y-71688750D01*
X139540000Y-72126250D01*
X139538947Y-72147691D01*
X139535797Y-72168926D01*
X139530581Y-72189750D01*
X139523349Y-72209962D01*
X139514170Y-72229368D01*
X139503134Y-72247781D01*
X139490346Y-72265024D01*
X139475930Y-72280930D01*
X139460024Y-72295346D01*
X139442781Y-72308134D01*
X139424368Y-72319170D01*
X139404962Y-72328349D01*
X139384750Y-72335581D01*
X139363926Y-72340797D01*
X139342691Y-72343947D01*
X139321250Y-72345000D01*
X138808750Y-72345000D01*
X138787309Y-72343947D01*
X138766074Y-72340797D01*
X138745250Y-72335581D01*
X138725038Y-72328349D01*
X138705632Y-72319170D01*
X138687219Y-72308134D01*
X138669976Y-72295346D01*
X138654070Y-72280930D01*
X138639654Y-72265024D01*
X138626866Y-72247781D01*
X138615830Y-72229368D01*
X138606651Y-72209962D01*
X138599419Y-72189750D01*
X138594203Y-72168926D01*
X138591053Y-72147691D01*
X138590000Y-72126250D01*
X138590000Y-71688750D01*
X138591053Y-71667309D01*
X138594203Y-71646074D01*
X138599419Y-71625250D01*
X138606651Y-71605038D01*
X138615830Y-71585632D01*
X138626866Y-71567219D01*
X138639654Y-71549976D01*
X138654070Y-71534070D01*
X138669976Y-71519654D01*
X138687219Y-71506866D01*
X138705632Y-71495830D01*
X138725038Y-71486651D01*
X138745250Y-71479419D01*
X138766074Y-71474203D01*
X138787309Y-71471053D01*
X138808750Y-71470000D01*
X139321250Y-71470000D01*
X139342691Y-71471053D01*
X139342691Y-71471053D01*
G37*
D11*
X139065000Y-71907500D03*
D10*
G36*
X139342691Y-69896053D02*
G01*
X139363926Y-69899203D01*
X139384750Y-69904419D01*
X139404962Y-69911651D01*
X139424368Y-69920830D01*
X139442781Y-69931866D01*
X139460024Y-69944654D01*
X139475930Y-69959070D01*
X139490346Y-69974976D01*
X139503134Y-69992219D01*
X139514170Y-70010632D01*
X139523349Y-70030038D01*
X139530581Y-70050250D01*
X139535797Y-70071074D01*
X139538947Y-70092309D01*
X139540000Y-70113750D01*
X139540000Y-70551250D01*
X139538947Y-70572691D01*
X139535797Y-70593926D01*
X139530581Y-70614750D01*
X139523349Y-70634962D01*
X139514170Y-70654368D01*
X139503134Y-70672781D01*
X139490346Y-70690024D01*
X139475930Y-70705930D01*
X139460024Y-70720346D01*
X139442781Y-70733134D01*
X139424368Y-70744170D01*
X139404962Y-70753349D01*
X139384750Y-70760581D01*
X139363926Y-70765797D01*
X139342691Y-70768947D01*
X139321250Y-70770000D01*
X138808750Y-70770000D01*
X138787309Y-70768947D01*
X138766074Y-70765797D01*
X138745250Y-70760581D01*
X138725038Y-70753349D01*
X138705632Y-70744170D01*
X138687219Y-70733134D01*
X138669976Y-70720346D01*
X138654070Y-70705930D01*
X138639654Y-70690024D01*
X138626866Y-70672781D01*
X138615830Y-70654368D01*
X138606651Y-70634962D01*
X138599419Y-70614750D01*
X138594203Y-70593926D01*
X138591053Y-70572691D01*
X138590000Y-70551250D01*
X138590000Y-70113750D01*
X138591053Y-70092309D01*
X138594203Y-70071074D01*
X138599419Y-70050250D01*
X138606651Y-70030038D01*
X138615830Y-70010632D01*
X138626866Y-69992219D01*
X138639654Y-69974976D01*
X138654070Y-69959070D01*
X138669976Y-69944654D01*
X138687219Y-69931866D01*
X138705632Y-69920830D01*
X138725038Y-69911651D01*
X138745250Y-69904419D01*
X138766074Y-69899203D01*
X138787309Y-69896053D01*
X138808750Y-69895000D01*
X139321250Y-69895000D01*
X139342691Y-69896053D01*
X139342691Y-69896053D01*
G37*
D11*
X139065000Y-70332500D03*
D10*
G36*
X117752691Y-69896053D02*
G01*
X117773926Y-69899203D01*
X117794750Y-69904419D01*
X117814962Y-69911651D01*
X117834368Y-69920830D01*
X117852781Y-69931866D01*
X117870024Y-69944654D01*
X117885930Y-69959070D01*
X117900346Y-69974976D01*
X117913134Y-69992219D01*
X117924170Y-70010632D01*
X117933349Y-70030038D01*
X117940581Y-70050250D01*
X117945797Y-70071074D01*
X117948947Y-70092309D01*
X117950000Y-70113750D01*
X117950000Y-70551250D01*
X117948947Y-70572691D01*
X117945797Y-70593926D01*
X117940581Y-70614750D01*
X117933349Y-70634962D01*
X117924170Y-70654368D01*
X117913134Y-70672781D01*
X117900346Y-70690024D01*
X117885930Y-70705930D01*
X117870024Y-70720346D01*
X117852781Y-70733134D01*
X117834368Y-70744170D01*
X117814962Y-70753349D01*
X117794750Y-70760581D01*
X117773926Y-70765797D01*
X117752691Y-70768947D01*
X117731250Y-70770000D01*
X117218750Y-70770000D01*
X117197309Y-70768947D01*
X117176074Y-70765797D01*
X117155250Y-70760581D01*
X117135038Y-70753349D01*
X117115632Y-70744170D01*
X117097219Y-70733134D01*
X117079976Y-70720346D01*
X117064070Y-70705930D01*
X117049654Y-70690024D01*
X117036866Y-70672781D01*
X117025830Y-70654368D01*
X117016651Y-70634962D01*
X117009419Y-70614750D01*
X117004203Y-70593926D01*
X117001053Y-70572691D01*
X117000000Y-70551250D01*
X117000000Y-70113750D01*
X117001053Y-70092309D01*
X117004203Y-70071074D01*
X117009419Y-70050250D01*
X117016651Y-70030038D01*
X117025830Y-70010632D01*
X117036866Y-69992219D01*
X117049654Y-69974976D01*
X117064070Y-69959070D01*
X117079976Y-69944654D01*
X117097219Y-69931866D01*
X117115632Y-69920830D01*
X117135038Y-69911651D01*
X117155250Y-69904419D01*
X117176074Y-69899203D01*
X117197309Y-69896053D01*
X117218750Y-69895000D01*
X117731250Y-69895000D01*
X117752691Y-69896053D01*
X117752691Y-69896053D01*
G37*
D11*
X117475000Y-70332500D03*
D10*
G36*
X117752691Y-71471053D02*
G01*
X117773926Y-71474203D01*
X117794750Y-71479419D01*
X117814962Y-71486651D01*
X117834368Y-71495830D01*
X117852781Y-71506866D01*
X117870024Y-71519654D01*
X117885930Y-71534070D01*
X117900346Y-71549976D01*
X117913134Y-71567219D01*
X117924170Y-71585632D01*
X117933349Y-71605038D01*
X117940581Y-71625250D01*
X117945797Y-71646074D01*
X117948947Y-71667309D01*
X117950000Y-71688750D01*
X117950000Y-72126250D01*
X117948947Y-72147691D01*
X117945797Y-72168926D01*
X117940581Y-72189750D01*
X117933349Y-72209962D01*
X117924170Y-72229368D01*
X117913134Y-72247781D01*
X117900346Y-72265024D01*
X117885930Y-72280930D01*
X117870024Y-72295346D01*
X117852781Y-72308134D01*
X117834368Y-72319170D01*
X117814962Y-72328349D01*
X117794750Y-72335581D01*
X117773926Y-72340797D01*
X117752691Y-72343947D01*
X117731250Y-72345000D01*
X117218750Y-72345000D01*
X117197309Y-72343947D01*
X117176074Y-72340797D01*
X117155250Y-72335581D01*
X117135038Y-72328349D01*
X117115632Y-72319170D01*
X117097219Y-72308134D01*
X117079976Y-72295346D01*
X117064070Y-72280930D01*
X117049654Y-72265024D01*
X117036866Y-72247781D01*
X117025830Y-72229368D01*
X117016651Y-72209962D01*
X117009419Y-72189750D01*
X117004203Y-72168926D01*
X117001053Y-72147691D01*
X117000000Y-72126250D01*
X117000000Y-71688750D01*
X117001053Y-71667309D01*
X117004203Y-71646074D01*
X117009419Y-71625250D01*
X117016651Y-71605038D01*
X117025830Y-71585632D01*
X117036866Y-71567219D01*
X117049654Y-71549976D01*
X117064070Y-71534070D01*
X117079976Y-71519654D01*
X117097219Y-71506866D01*
X117115632Y-71495830D01*
X117135038Y-71486651D01*
X117155250Y-71479419D01*
X117176074Y-71474203D01*
X117197309Y-71471053D01*
X117218750Y-71470000D01*
X117731250Y-71470000D01*
X117752691Y-71471053D01*
X117752691Y-71471053D01*
G37*
D11*
X117475000Y-71907500D03*
D10*
G36*
X126277691Y-71471053D02*
G01*
X126298926Y-71474203D01*
X126319750Y-71479419D01*
X126339962Y-71486651D01*
X126359368Y-71495830D01*
X126377781Y-71506866D01*
X126395024Y-71519654D01*
X126410930Y-71534070D01*
X126425346Y-71549976D01*
X126438134Y-71567219D01*
X126449170Y-71585632D01*
X126458349Y-71605038D01*
X126465581Y-71625250D01*
X126470797Y-71646074D01*
X126473947Y-71667309D01*
X126475000Y-71688750D01*
X126475000Y-72126250D01*
X126473947Y-72147691D01*
X126470797Y-72168926D01*
X126465581Y-72189750D01*
X126458349Y-72209962D01*
X126449170Y-72229368D01*
X126438134Y-72247781D01*
X126425346Y-72265024D01*
X126410930Y-72280930D01*
X126395024Y-72295346D01*
X126377781Y-72308134D01*
X126359368Y-72319170D01*
X126339962Y-72328349D01*
X126319750Y-72335581D01*
X126298926Y-72340797D01*
X126277691Y-72343947D01*
X126256250Y-72345000D01*
X125743750Y-72345000D01*
X125722309Y-72343947D01*
X125701074Y-72340797D01*
X125680250Y-72335581D01*
X125660038Y-72328349D01*
X125640632Y-72319170D01*
X125622219Y-72308134D01*
X125604976Y-72295346D01*
X125589070Y-72280930D01*
X125574654Y-72265024D01*
X125561866Y-72247781D01*
X125550830Y-72229368D01*
X125541651Y-72209962D01*
X125534419Y-72189750D01*
X125529203Y-72168926D01*
X125526053Y-72147691D01*
X125525000Y-72126250D01*
X125525000Y-71688750D01*
X125526053Y-71667309D01*
X125529203Y-71646074D01*
X125534419Y-71625250D01*
X125541651Y-71605038D01*
X125550830Y-71585632D01*
X125561866Y-71567219D01*
X125574654Y-71549976D01*
X125589070Y-71534070D01*
X125604976Y-71519654D01*
X125622219Y-71506866D01*
X125640632Y-71495830D01*
X125660038Y-71486651D01*
X125680250Y-71479419D01*
X125701074Y-71474203D01*
X125722309Y-71471053D01*
X125743750Y-71470000D01*
X126256250Y-71470000D01*
X126277691Y-71471053D01*
X126277691Y-71471053D01*
G37*
D11*
X126000000Y-71907500D03*
D10*
G36*
X126277691Y-69896053D02*
G01*
X126298926Y-69899203D01*
X126319750Y-69904419D01*
X126339962Y-69911651D01*
X126359368Y-69920830D01*
X126377781Y-69931866D01*
X126395024Y-69944654D01*
X126410930Y-69959070D01*
X126425346Y-69974976D01*
X126438134Y-69992219D01*
X126449170Y-70010632D01*
X126458349Y-70030038D01*
X126465581Y-70050250D01*
X126470797Y-70071074D01*
X126473947Y-70092309D01*
X126475000Y-70113750D01*
X126475000Y-70551250D01*
X126473947Y-70572691D01*
X126470797Y-70593926D01*
X126465581Y-70614750D01*
X126458349Y-70634962D01*
X126449170Y-70654368D01*
X126438134Y-70672781D01*
X126425346Y-70690024D01*
X126410930Y-70705930D01*
X126395024Y-70720346D01*
X126377781Y-70733134D01*
X126359368Y-70744170D01*
X126339962Y-70753349D01*
X126319750Y-70760581D01*
X126298926Y-70765797D01*
X126277691Y-70768947D01*
X126256250Y-70770000D01*
X125743750Y-70770000D01*
X125722309Y-70768947D01*
X125701074Y-70765797D01*
X125680250Y-70760581D01*
X125660038Y-70753349D01*
X125640632Y-70744170D01*
X125622219Y-70733134D01*
X125604976Y-70720346D01*
X125589070Y-70705930D01*
X125574654Y-70690024D01*
X125561866Y-70672781D01*
X125550830Y-70654368D01*
X125541651Y-70634962D01*
X125534419Y-70614750D01*
X125529203Y-70593926D01*
X125526053Y-70572691D01*
X125525000Y-70551250D01*
X125525000Y-70113750D01*
X125526053Y-70092309D01*
X125529203Y-70071074D01*
X125534419Y-70050250D01*
X125541651Y-70030038D01*
X125550830Y-70010632D01*
X125561866Y-69992219D01*
X125574654Y-69974976D01*
X125589070Y-69959070D01*
X125604976Y-69944654D01*
X125622219Y-69931866D01*
X125640632Y-69920830D01*
X125660038Y-69911651D01*
X125680250Y-69904419D01*
X125701074Y-69899203D01*
X125722309Y-69896053D01*
X125743750Y-69895000D01*
X126256250Y-69895000D01*
X126277691Y-69896053D01*
X126277691Y-69896053D01*
G37*
D11*
X126000000Y-70332500D03*
D10*
G36*
X123467691Y-71471053D02*
G01*
X123488926Y-71474203D01*
X123509750Y-71479419D01*
X123529962Y-71486651D01*
X123549368Y-71495830D01*
X123567781Y-71506866D01*
X123585024Y-71519654D01*
X123600930Y-71534070D01*
X123615346Y-71549976D01*
X123628134Y-71567219D01*
X123639170Y-71585632D01*
X123648349Y-71605038D01*
X123655581Y-71625250D01*
X123660797Y-71646074D01*
X123663947Y-71667309D01*
X123665000Y-71688750D01*
X123665000Y-72126250D01*
X123663947Y-72147691D01*
X123660797Y-72168926D01*
X123655581Y-72189750D01*
X123648349Y-72209962D01*
X123639170Y-72229368D01*
X123628134Y-72247781D01*
X123615346Y-72265024D01*
X123600930Y-72280930D01*
X123585024Y-72295346D01*
X123567781Y-72308134D01*
X123549368Y-72319170D01*
X123529962Y-72328349D01*
X123509750Y-72335581D01*
X123488926Y-72340797D01*
X123467691Y-72343947D01*
X123446250Y-72345000D01*
X122933750Y-72345000D01*
X122912309Y-72343947D01*
X122891074Y-72340797D01*
X122870250Y-72335581D01*
X122850038Y-72328349D01*
X122830632Y-72319170D01*
X122812219Y-72308134D01*
X122794976Y-72295346D01*
X122779070Y-72280930D01*
X122764654Y-72265024D01*
X122751866Y-72247781D01*
X122740830Y-72229368D01*
X122731651Y-72209962D01*
X122724419Y-72189750D01*
X122719203Y-72168926D01*
X122716053Y-72147691D01*
X122715000Y-72126250D01*
X122715000Y-71688750D01*
X122716053Y-71667309D01*
X122719203Y-71646074D01*
X122724419Y-71625250D01*
X122731651Y-71605038D01*
X122740830Y-71585632D01*
X122751866Y-71567219D01*
X122764654Y-71549976D01*
X122779070Y-71534070D01*
X122794976Y-71519654D01*
X122812219Y-71506866D01*
X122830632Y-71495830D01*
X122850038Y-71486651D01*
X122870250Y-71479419D01*
X122891074Y-71474203D01*
X122912309Y-71471053D01*
X122933750Y-71470000D01*
X123446250Y-71470000D01*
X123467691Y-71471053D01*
X123467691Y-71471053D01*
G37*
D11*
X123190000Y-71907500D03*
D10*
G36*
X123467691Y-69896053D02*
G01*
X123488926Y-69899203D01*
X123509750Y-69904419D01*
X123529962Y-69911651D01*
X123549368Y-69920830D01*
X123567781Y-69931866D01*
X123585024Y-69944654D01*
X123600930Y-69959070D01*
X123615346Y-69974976D01*
X123628134Y-69992219D01*
X123639170Y-70010632D01*
X123648349Y-70030038D01*
X123655581Y-70050250D01*
X123660797Y-70071074D01*
X123663947Y-70092309D01*
X123665000Y-70113750D01*
X123665000Y-70551250D01*
X123663947Y-70572691D01*
X123660797Y-70593926D01*
X123655581Y-70614750D01*
X123648349Y-70634962D01*
X123639170Y-70654368D01*
X123628134Y-70672781D01*
X123615346Y-70690024D01*
X123600930Y-70705930D01*
X123585024Y-70720346D01*
X123567781Y-70733134D01*
X123549368Y-70744170D01*
X123529962Y-70753349D01*
X123509750Y-70760581D01*
X123488926Y-70765797D01*
X123467691Y-70768947D01*
X123446250Y-70770000D01*
X122933750Y-70770000D01*
X122912309Y-70768947D01*
X122891074Y-70765797D01*
X122870250Y-70760581D01*
X122850038Y-70753349D01*
X122830632Y-70744170D01*
X122812219Y-70733134D01*
X122794976Y-70720346D01*
X122779070Y-70705930D01*
X122764654Y-70690024D01*
X122751866Y-70672781D01*
X122740830Y-70654368D01*
X122731651Y-70634962D01*
X122724419Y-70614750D01*
X122719203Y-70593926D01*
X122716053Y-70572691D01*
X122715000Y-70551250D01*
X122715000Y-70113750D01*
X122716053Y-70092309D01*
X122719203Y-70071074D01*
X122724419Y-70050250D01*
X122731651Y-70030038D01*
X122740830Y-70010632D01*
X122751866Y-69992219D01*
X122764654Y-69974976D01*
X122779070Y-69959070D01*
X122794976Y-69944654D01*
X122812219Y-69931866D01*
X122830632Y-69920830D01*
X122850038Y-69911651D01*
X122870250Y-69904419D01*
X122891074Y-69899203D01*
X122912309Y-69896053D01*
X122933750Y-69895000D01*
X123446250Y-69895000D01*
X123467691Y-69896053D01*
X123467691Y-69896053D01*
G37*
D11*
X123190000Y-70332500D03*
D10*
G36*
X120927691Y-71471053D02*
G01*
X120948926Y-71474203D01*
X120969750Y-71479419D01*
X120989962Y-71486651D01*
X121009368Y-71495830D01*
X121027781Y-71506866D01*
X121045024Y-71519654D01*
X121060930Y-71534070D01*
X121075346Y-71549976D01*
X121088134Y-71567219D01*
X121099170Y-71585632D01*
X121108349Y-71605038D01*
X121115581Y-71625250D01*
X121120797Y-71646074D01*
X121123947Y-71667309D01*
X121125000Y-71688750D01*
X121125000Y-72126250D01*
X121123947Y-72147691D01*
X121120797Y-72168926D01*
X121115581Y-72189750D01*
X121108349Y-72209962D01*
X121099170Y-72229368D01*
X121088134Y-72247781D01*
X121075346Y-72265024D01*
X121060930Y-72280930D01*
X121045024Y-72295346D01*
X121027781Y-72308134D01*
X121009368Y-72319170D01*
X120989962Y-72328349D01*
X120969750Y-72335581D01*
X120948926Y-72340797D01*
X120927691Y-72343947D01*
X120906250Y-72345000D01*
X120393750Y-72345000D01*
X120372309Y-72343947D01*
X120351074Y-72340797D01*
X120330250Y-72335581D01*
X120310038Y-72328349D01*
X120290632Y-72319170D01*
X120272219Y-72308134D01*
X120254976Y-72295346D01*
X120239070Y-72280930D01*
X120224654Y-72265024D01*
X120211866Y-72247781D01*
X120200830Y-72229368D01*
X120191651Y-72209962D01*
X120184419Y-72189750D01*
X120179203Y-72168926D01*
X120176053Y-72147691D01*
X120175000Y-72126250D01*
X120175000Y-71688750D01*
X120176053Y-71667309D01*
X120179203Y-71646074D01*
X120184419Y-71625250D01*
X120191651Y-71605038D01*
X120200830Y-71585632D01*
X120211866Y-71567219D01*
X120224654Y-71549976D01*
X120239070Y-71534070D01*
X120254976Y-71519654D01*
X120272219Y-71506866D01*
X120290632Y-71495830D01*
X120310038Y-71486651D01*
X120330250Y-71479419D01*
X120351074Y-71474203D01*
X120372309Y-71471053D01*
X120393750Y-71470000D01*
X120906250Y-71470000D01*
X120927691Y-71471053D01*
X120927691Y-71471053D01*
G37*
D11*
X120650000Y-71907500D03*
D10*
G36*
X120927691Y-69896053D02*
G01*
X120948926Y-69899203D01*
X120969750Y-69904419D01*
X120989962Y-69911651D01*
X121009368Y-69920830D01*
X121027781Y-69931866D01*
X121045024Y-69944654D01*
X121060930Y-69959070D01*
X121075346Y-69974976D01*
X121088134Y-69992219D01*
X121099170Y-70010632D01*
X121108349Y-70030038D01*
X121115581Y-70050250D01*
X121120797Y-70071074D01*
X121123947Y-70092309D01*
X121125000Y-70113750D01*
X121125000Y-70551250D01*
X121123947Y-70572691D01*
X121120797Y-70593926D01*
X121115581Y-70614750D01*
X121108349Y-70634962D01*
X121099170Y-70654368D01*
X121088134Y-70672781D01*
X121075346Y-70690024D01*
X121060930Y-70705930D01*
X121045024Y-70720346D01*
X121027781Y-70733134D01*
X121009368Y-70744170D01*
X120989962Y-70753349D01*
X120969750Y-70760581D01*
X120948926Y-70765797D01*
X120927691Y-70768947D01*
X120906250Y-70770000D01*
X120393750Y-70770000D01*
X120372309Y-70768947D01*
X120351074Y-70765797D01*
X120330250Y-70760581D01*
X120310038Y-70753349D01*
X120290632Y-70744170D01*
X120272219Y-70733134D01*
X120254976Y-70720346D01*
X120239070Y-70705930D01*
X120224654Y-70690024D01*
X120211866Y-70672781D01*
X120200830Y-70654368D01*
X120191651Y-70634962D01*
X120184419Y-70614750D01*
X120179203Y-70593926D01*
X120176053Y-70572691D01*
X120175000Y-70551250D01*
X120175000Y-70113750D01*
X120176053Y-70092309D01*
X120179203Y-70071074D01*
X120184419Y-70050250D01*
X120191651Y-70030038D01*
X120200830Y-70010632D01*
X120211866Y-69992219D01*
X120224654Y-69974976D01*
X120239070Y-69959070D01*
X120254976Y-69944654D01*
X120272219Y-69931866D01*
X120290632Y-69920830D01*
X120310038Y-69911651D01*
X120330250Y-69904419D01*
X120351074Y-69899203D01*
X120372309Y-69896053D01*
X120393750Y-69895000D01*
X120906250Y-69895000D01*
X120927691Y-69896053D01*
X120927691Y-69896053D01*
G37*
D11*
X120650000Y-70332500D03*
D10*
G36*
X136702691Y-77504053D02*
G01*
X136723926Y-77507203D01*
X136744750Y-77512419D01*
X136764962Y-77519651D01*
X136784368Y-77528830D01*
X136802781Y-77539866D01*
X136820024Y-77552654D01*
X136835930Y-77567070D01*
X136850346Y-77582976D01*
X136863134Y-77600219D01*
X136874170Y-77618632D01*
X136883349Y-77638038D01*
X136890581Y-77658250D01*
X136895797Y-77679074D01*
X136898947Y-77700309D01*
X136900000Y-77721750D01*
X136900000Y-78234250D01*
X136898947Y-78255691D01*
X136895797Y-78276926D01*
X136890581Y-78297750D01*
X136883349Y-78317962D01*
X136874170Y-78337368D01*
X136863134Y-78355781D01*
X136850346Y-78373024D01*
X136835930Y-78388930D01*
X136820024Y-78403346D01*
X136802781Y-78416134D01*
X136784368Y-78427170D01*
X136764962Y-78436349D01*
X136744750Y-78443581D01*
X136723926Y-78448797D01*
X136702691Y-78451947D01*
X136681250Y-78453000D01*
X136243750Y-78453000D01*
X136222309Y-78451947D01*
X136201074Y-78448797D01*
X136180250Y-78443581D01*
X136160038Y-78436349D01*
X136140632Y-78427170D01*
X136122219Y-78416134D01*
X136104976Y-78403346D01*
X136089070Y-78388930D01*
X136074654Y-78373024D01*
X136061866Y-78355781D01*
X136050830Y-78337368D01*
X136041651Y-78317962D01*
X136034419Y-78297750D01*
X136029203Y-78276926D01*
X136026053Y-78255691D01*
X136025000Y-78234250D01*
X136025000Y-77721750D01*
X136026053Y-77700309D01*
X136029203Y-77679074D01*
X136034419Y-77658250D01*
X136041651Y-77638038D01*
X136050830Y-77618632D01*
X136061866Y-77600219D01*
X136074654Y-77582976D01*
X136089070Y-77567070D01*
X136104976Y-77552654D01*
X136122219Y-77539866D01*
X136140632Y-77528830D01*
X136160038Y-77519651D01*
X136180250Y-77512419D01*
X136201074Y-77507203D01*
X136222309Y-77504053D01*
X136243750Y-77503000D01*
X136681250Y-77503000D01*
X136702691Y-77504053D01*
X136702691Y-77504053D01*
G37*
D11*
X136462500Y-77978000D03*
D10*
G36*
X138277691Y-77504053D02*
G01*
X138298926Y-77507203D01*
X138319750Y-77512419D01*
X138339962Y-77519651D01*
X138359368Y-77528830D01*
X138377781Y-77539866D01*
X138395024Y-77552654D01*
X138410930Y-77567070D01*
X138425346Y-77582976D01*
X138438134Y-77600219D01*
X138449170Y-77618632D01*
X138458349Y-77638038D01*
X138465581Y-77658250D01*
X138470797Y-77679074D01*
X138473947Y-77700309D01*
X138475000Y-77721750D01*
X138475000Y-78234250D01*
X138473947Y-78255691D01*
X138470797Y-78276926D01*
X138465581Y-78297750D01*
X138458349Y-78317962D01*
X138449170Y-78337368D01*
X138438134Y-78355781D01*
X138425346Y-78373024D01*
X138410930Y-78388930D01*
X138395024Y-78403346D01*
X138377781Y-78416134D01*
X138359368Y-78427170D01*
X138339962Y-78436349D01*
X138319750Y-78443581D01*
X138298926Y-78448797D01*
X138277691Y-78451947D01*
X138256250Y-78453000D01*
X137818750Y-78453000D01*
X137797309Y-78451947D01*
X137776074Y-78448797D01*
X137755250Y-78443581D01*
X137735038Y-78436349D01*
X137715632Y-78427170D01*
X137697219Y-78416134D01*
X137679976Y-78403346D01*
X137664070Y-78388930D01*
X137649654Y-78373024D01*
X137636866Y-78355781D01*
X137625830Y-78337368D01*
X137616651Y-78317962D01*
X137609419Y-78297750D01*
X137604203Y-78276926D01*
X137601053Y-78255691D01*
X137600000Y-78234250D01*
X137600000Y-77721750D01*
X137601053Y-77700309D01*
X137604203Y-77679074D01*
X137609419Y-77658250D01*
X137616651Y-77638038D01*
X137625830Y-77618632D01*
X137636866Y-77600219D01*
X137649654Y-77582976D01*
X137664070Y-77567070D01*
X137679976Y-77552654D01*
X137697219Y-77539866D01*
X137715632Y-77528830D01*
X137735038Y-77519651D01*
X137755250Y-77512419D01*
X137776074Y-77507203D01*
X137797309Y-77504053D01*
X137818750Y-77503000D01*
X138256250Y-77503000D01*
X138277691Y-77504053D01*
X138277691Y-77504053D01*
G37*
D11*
X138037500Y-77978000D03*
D18*
X163120000Y-86590000D03*
X163120000Y-85090000D03*
X163120000Y-83590000D03*
D19*
X167080000Y-85090000D03*
D20*
X164730000Y-85090000D03*
D10*
G36*
X164355000Y-84590000D02*
G01*
X165105000Y-84090000D01*
X165105000Y-86090000D01*
X164355000Y-85590000D01*
X164355000Y-84590000D01*
X164355000Y-84590000D01*
G37*
D21*
X145415000Y-92550000D03*
X146685000Y-92550000D03*
X147955000Y-92550000D03*
X149225000Y-92550000D03*
X149225000Y-97950000D03*
X147955000Y-97950000D03*
X146685000Y-97950000D03*
X145415000Y-97950000D03*
D17*
X152080000Y-89900000D03*
X150180000Y-89900000D03*
X151130000Y-87900000D03*
D22*
X147710000Y-102235000D03*
X152010000Y-102235000D03*
D10*
G36*
X153757691Y-94776053D02*
G01*
X153778926Y-94779203D01*
X153799750Y-94784419D01*
X153819962Y-94791651D01*
X153839368Y-94800830D01*
X153857781Y-94811866D01*
X153875024Y-94824654D01*
X153890930Y-94839070D01*
X153905346Y-94854976D01*
X153918134Y-94872219D01*
X153929170Y-94890632D01*
X153938349Y-94910038D01*
X153945581Y-94930250D01*
X153950797Y-94951074D01*
X153953947Y-94972309D01*
X153955000Y-94993750D01*
X153955000Y-95506250D01*
X153953947Y-95527691D01*
X153950797Y-95548926D01*
X153945581Y-95569750D01*
X153938349Y-95589962D01*
X153929170Y-95609368D01*
X153918134Y-95627781D01*
X153905346Y-95645024D01*
X153890930Y-95660930D01*
X153875024Y-95675346D01*
X153857781Y-95688134D01*
X153839368Y-95699170D01*
X153819962Y-95708349D01*
X153799750Y-95715581D01*
X153778926Y-95720797D01*
X153757691Y-95723947D01*
X153736250Y-95725000D01*
X153298750Y-95725000D01*
X153277309Y-95723947D01*
X153256074Y-95720797D01*
X153235250Y-95715581D01*
X153215038Y-95708349D01*
X153195632Y-95699170D01*
X153177219Y-95688134D01*
X153159976Y-95675346D01*
X153144070Y-95660930D01*
X153129654Y-95645024D01*
X153116866Y-95627781D01*
X153105830Y-95609368D01*
X153096651Y-95589962D01*
X153089419Y-95569750D01*
X153084203Y-95548926D01*
X153081053Y-95527691D01*
X153080000Y-95506250D01*
X153080000Y-94993750D01*
X153081053Y-94972309D01*
X153084203Y-94951074D01*
X153089419Y-94930250D01*
X153096651Y-94910038D01*
X153105830Y-94890632D01*
X153116866Y-94872219D01*
X153129654Y-94854976D01*
X153144070Y-94839070D01*
X153159976Y-94824654D01*
X153177219Y-94811866D01*
X153195632Y-94800830D01*
X153215038Y-94791651D01*
X153235250Y-94784419D01*
X153256074Y-94779203D01*
X153277309Y-94776053D01*
X153298750Y-94775000D01*
X153736250Y-94775000D01*
X153757691Y-94776053D01*
X153757691Y-94776053D01*
G37*
D11*
X153517500Y-95250000D03*
D10*
G36*
X155332691Y-94776053D02*
G01*
X155353926Y-94779203D01*
X155374750Y-94784419D01*
X155394962Y-94791651D01*
X155414368Y-94800830D01*
X155432781Y-94811866D01*
X155450024Y-94824654D01*
X155465930Y-94839070D01*
X155480346Y-94854976D01*
X155493134Y-94872219D01*
X155504170Y-94890632D01*
X155513349Y-94910038D01*
X155520581Y-94930250D01*
X155525797Y-94951074D01*
X155528947Y-94972309D01*
X155530000Y-94993750D01*
X155530000Y-95506250D01*
X155528947Y-95527691D01*
X155525797Y-95548926D01*
X155520581Y-95569750D01*
X155513349Y-95589962D01*
X155504170Y-95609368D01*
X155493134Y-95627781D01*
X155480346Y-95645024D01*
X155465930Y-95660930D01*
X155450024Y-95675346D01*
X155432781Y-95688134D01*
X155414368Y-95699170D01*
X155394962Y-95708349D01*
X155374750Y-95715581D01*
X155353926Y-95720797D01*
X155332691Y-95723947D01*
X155311250Y-95725000D01*
X154873750Y-95725000D01*
X154852309Y-95723947D01*
X154831074Y-95720797D01*
X154810250Y-95715581D01*
X154790038Y-95708349D01*
X154770632Y-95699170D01*
X154752219Y-95688134D01*
X154734976Y-95675346D01*
X154719070Y-95660930D01*
X154704654Y-95645024D01*
X154691866Y-95627781D01*
X154680830Y-95609368D01*
X154671651Y-95589962D01*
X154664419Y-95569750D01*
X154659203Y-95548926D01*
X154656053Y-95527691D01*
X154655000Y-95506250D01*
X154655000Y-94993750D01*
X154656053Y-94972309D01*
X154659203Y-94951074D01*
X154664419Y-94930250D01*
X154671651Y-94910038D01*
X154680830Y-94890632D01*
X154691866Y-94872219D01*
X154704654Y-94854976D01*
X154719070Y-94839070D01*
X154734976Y-94824654D01*
X154752219Y-94811866D01*
X154770632Y-94800830D01*
X154790038Y-94791651D01*
X154810250Y-94784419D01*
X154831074Y-94779203D01*
X154852309Y-94776053D01*
X154873750Y-94775000D01*
X155311250Y-94775000D01*
X155332691Y-94776053D01*
X155332691Y-94776053D01*
G37*
D11*
X155092500Y-95250000D03*
D23*
X133155000Y-81020000D03*
X133155000Y-81820000D03*
X133155000Y-82620000D03*
X133155000Y-83420000D03*
X133155000Y-84220000D03*
X133155000Y-85020000D03*
X133155000Y-85820000D03*
X133155000Y-86620000D03*
D24*
X131705000Y-88070000D03*
X130905000Y-88070000D03*
X130105000Y-88070000D03*
X129305000Y-88070000D03*
X128505000Y-88070000D03*
X127705000Y-88070000D03*
X126905000Y-88070000D03*
X126105000Y-88070000D03*
D23*
X124655000Y-86620000D03*
X124655000Y-85820000D03*
X124655000Y-85020000D03*
X124655000Y-84220000D03*
X124655000Y-83420000D03*
X124655000Y-82620000D03*
X124655000Y-81820000D03*
X124655000Y-81020000D03*
D24*
X126105000Y-79570000D03*
X126905000Y-79570000D03*
X127705000Y-79570000D03*
X128505000Y-79570000D03*
X129305000Y-79570000D03*
X130105000Y-79570000D03*
X130905000Y-79570000D03*
X131705000Y-79570000D03*
M02*
