G04 #@! TF.GenerationSoftware,KiCad,Pcbnew,(5.1.0)-1*
G04 #@! TF.CreationDate,2019-03-23T10:05:58-04:00*
G04 #@! TF.ProjectId,doorbot,646f6f72-626f-4742-9e6b-696361645f70,rev?*
G04 #@! TF.SameCoordinates,Original*
G04 #@! TF.FileFunction,Legend,Top*
G04 #@! TF.FilePolarity,Positive*
%FSLAX46Y46*%
G04 Gerber Fmt 4.6, Leading zero omitted, Abs format (unit mm)*
G04 Created by KiCad (PCBNEW (5.1.0)-1) date 2019-03-23 10:05:58*
%MOMM*%
%LPD*%
G04 APERTURE LIST*
%ADD10C,0.200000*%
%ADD11C,0.150000*%
%ADD12C,0.300000*%
%ADD13C,0.320000*%
%ADD14C,0.120000*%
%ADD15C,0.010000*%
G04 APERTURE END LIST*
D10*
X161290000Y-109220000D02*
X161290000Y-99060000D01*
X116078000Y-109220000D02*
X116078000Y-99060000D01*
X112949278Y-86438571D02*
X112949278Y-85867142D01*
X113292135Y-86552857D02*
X112092135Y-86152857D01*
X113292135Y-85752857D01*
X112092135Y-85524285D02*
X112092135Y-84838571D01*
X113292135Y-85181428D02*
X112092135Y-85181428D01*
X113292135Y-84438571D02*
X112092135Y-84438571D01*
X112949278Y-84038571D01*
X112092135Y-83638571D01*
X113292135Y-83638571D01*
X112663563Y-83067142D02*
X112663563Y-82667142D01*
X113292135Y-82495714D02*
X113292135Y-83067142D01*
X112092135Y-83067142D01*
X112092135Y-82495714D01*
X112149278Y-81352857D02*
X112092135Y-81467142D01*
X112092135Y-81638571D01*
X112149278Y-81810000D01*
X112263563Y-81924285D01*
X112377849Y-81981428D01*
X112606420Y-82038571D01*
X112777849Y-82038571D01*
X113006420Y-81981428D01*
X113120706Y-81924285D01*
X113234992Y-81810000D01*
X113292135Y-81638571D01*
X113292135Y-81524285D01*
X113234992Y-81352857D01*
X113177849Y-81295714D01*
X112777849Y-81295714D01*
X112777849Y-81524285D01*
X112949278Y-80838571D02*
X112949278Y-80267142D01*
X113292135Y-80952857D02*
X112092135Y-80552857D01*
X113292135Y-80152857D01*
X112149278Y-78210000D02*
X112092135Y-78324285D01*
X112092135Y-78495714D01*
X112149278Y-78667142D01*
X112263563Y-78781428D01*
X112377849Y-78838571D01*
X112606420Y-78895714D01*
X112777849Y-78895714D01*
X113006420Y-78838571D01*
X113120706Y-78781428D01*
X113234992Y-78667142D01*
X113292135Y-78495714D01*
X113292135Y-78381428D01*
X113234992Y-78210000D01*
X113177849Y-78152857D01*
X112777849Y-78152857D01*
X112777849Y-78381428D01*
X113292135Y-76952857D02*
X112720706Y-77352857D01*
X113292135Y-77638571D02*
X112092135Y-77638571D01*
X112092135Y-77181428D01*
X112149278Y-77067142D01*
X112206420Y-77010000D01*
X112320706Y-76952857D01*
X112492135Y-76952857D01*
X112606420Y-77010000D01*
X112663563Y-77067142D01*
X112720706Y-77181428D01*
X112720706Y-77638571D01*
X112092135Y-76210000D02*
X112092135Y-75981428D01*
X112149278Y-75867142D01*
X112263563Y-75752857D01*
X112492135Y-75695714D01*
X112892135Y-75695714D01*
X113120706Y-75752857D01*
X113234992Y-75867142D01*
X113292135Y-75981428D01*
X113292135Y-76210000D01*
X113234992Y-76324285D01*
X113120706Y-76438571D01*
X112892135Y-76495714D01*
X112492135Y-76495714D01*
X112263563Y-76438571D01*
X112149278Y-76324285D01*
X112092135Y-76210000D01*
X112092135Y-75352857D02*
X113292135Y-74952857D01*
X112092135Y-74552857D01*
X112663563Y-74152857D02*
X112663563Y-73752857D01*
X113292135Y-73581428D02*
X113292135Y-74152857D01*
X112092135Y-74152857D01*
X112092135Y-73581428D01*
X113292135Y-105659116D02*
X112092135Y-105659116D01*
X112092135Y-105201973D01*
X112149278Y-105087687D01*
X112206420Y-105030544D01*
X112320706Y-104973401D01*
X112492135Y-104973401D01*
X112606420Y-105030544D01*
X112663563Y-105087687D01*
X112720706Y-105201973D01*
X112720706Y-105659116D01*
X113292135Y-104459116D02*
X112092135Y-104459116D01*
X112149278Y-102344830D02*
X112092135Y-102459116D01*
X112092135Y-102630544D01*
X112149278Y-102801973D01*
X112263563Y-102916259D01*
X112377849Y-102973401D01*
X112606420Y-103030544D01*
X112777849Y-103030544D01*
X113006420Y-102973401D01*
X113120706Y-102916259D01*
X113234992Y-102801973D01*
X113292135Y-102630544D01*
X113292135Y-102516259D01*
X113234992Y-102344830D01*
X113177849Y-102287687D01*
X112777849Y-102287687D01*
X112777849Y-102516259D01*
X113292135Y-101087687D02*
X112720706Y-101487687D01*
X113292135Y-101773401D02*
X112092135Y-101773401D01*
X112092135Y-101316259D01*
X112149278Y-101201973D01*
X112206420Y-101144830D01*
X112320706Y-101087687D01*
X112492135Y-101087687D01*
X112606420Y-101144830D01*
X112663563Y-101201973D01*
X112720706Y-101316259D01*
X112720706Y-101773401D01*
X112092135Y-100344830D02*
X112092135Y-100116259D01*
X112149278Y-100001973D01*
X112263563Y-99887687D01*
X112492135Y-99830544D01*
X112892135Y-99830544D01*
X113120706Y-99887687D01*
X113234992Y-100001973D01*
X113292135Y-100116259D01*
X113292135Y-100344830D01*
X113234992Y-100459116D01*
X113120706Y-100573401D01*
X112892135Y-100630544D01*
X112492135Y-100630544D01*
X112263563Y-100573401D01*
X112149278Y-100459116D01*
X112092135Y-100344830D01*
X112092135Y-99487687D02*
X113292135Y-99087687D01*
X112092135Y-98687687D01*
X112663563Y-98287687D02*
X112663563Y-97887687D01*
X113292135Y-97716259D02*
X113292135Y-98287687D01*
X112092135Y-98287687D01*
X112092135Y-97716259D01*
D11*
X149225000Y-94615000D02*
X149225000Y-88900000D01*
X157480000Y-94615000D02*
X149225000Y-94615000D01*
X157480000Y-88900000D02*
X157480000Y-94615000D01*
X149225000Y-88900000D02*
X157480000Y-88900000D01*
D10*
X153670000Y-109220000D02*
X153670000Y-99060000D01*
X146050000Y-109220000D02*
X146050000Y-99060000D01*
X123190000Y-109220000D02*
X123190000Y-99060000D01*
X116205000Y-103505000D02*
X161290000Y-103505000D01*
X155638809Y-105227380D02*
X155638809Y-104227380D01*
X156019761Y-104227380D01*
X156115000Y-104275000D01*
X156162619Y-104322619D01*
X156210238Y-104417857D01*
X156210238Y-104560714D01*
X156162619Y-104655952D01*
X156115000Y-104703571D01*
X156019761Y-104751190D01*
X155638809Y-104751190D01*
X156543571Y-104227380D02*
X156781666Y-105227380D01*
X156972142Y-104513095D01*
X157162619Y-105227380D01*
X157400714Y-104227380D01*
X158353095Y-105227380D02*
X158019761Y-104751190D01*
X157781666Y-105227380D02*
X157781666Y-104227380D01*
X158162619Y-104227380D01*
X158257857Y-104275000D01*
X158305476Y-104322619D01*
X158353095Y-104417857D01*
X158353095Y-104560714D01*
X158305476Y-104655952D01*
X158257857Y-104703571D01*
X158162619Y-104751190D01*
X157781666Y-104751190D01*
X159543571Y-105227380D02*
X159543571Y-104227380D01*
X160019761Y-105227380D02*
X160019761Y-104227380D01*
X160591190Y-105227380D01*
X160591190Y-104227380D01*
X146407619Y-105179761D02*
X146550476Y-105227380D01*
X146788571Y-105227380D01*
X146883809Y-105179761D01*
X146931428Y-105132142D01*
X146979047Y-105036904D01*
X146979047Y-104941666D01*
X146931428Y-104846428D01*
X146883809Y-104798809D01*
X146788571Y-104751190D01*
X146598095Y-104703571D01*
X146502857Y-104655952D01*
X146455238Y-104608333D01*
X146407619Y-104513095D01*
X146407619Y-104417857D01*
X146455238Y-104322619D01*
X146502857Y-104275000D01*
X146598095Y-104227380D01*
X146836190Y-104227380D01*
X146979047Y-104275000D01*
X147598095Y-104227380D02*
X147788571Y-104227380D01*
X147883809Y-104275000D01*
X147979047Y-104370238D01*
X148026666Y-104560714D01*
X148026666Y-104894047D01*
X147979047Y-105084523D01*
X147883809Y-105179761D01*
X147788571Y-105227380D01*
X147598095Y-105227380D01*
X147502857Y-105179761D01*
X147407619Y-105084523D01*
X147360000Y-104894047D01*
X147360000Y-104560714D01*
X147407619Y-104370238D01*
X147502857Y-104275000D01*
X147598095Y-104227380D01*
X148931428Y-105227380D02*
X148455238Y-105227380D01*
X148455238Y-104227380D01*
X149264761Y-104703571D02*
X149598095Y-104703571D01*
X149740952Y-105227380D02*
X149264761Y-105227380D01*
X149264761Y-104227380D01*
X149740952Y-104227380D01*
X150169523Y-105227380D02*
X150169523Y-104227380D01*
X150740952Y-105227380D01*
X150740952Y-104227380D01*
X151407619Y-104227380D02*
X151598095Y-104227380D01*
X151693333Y-104275000D01*
X151788571Y-104370238D01*
X151836190Y-104560714D01*
X151836190Y-104894047D01*
X151788571Y-105084523D01*
X151693333Y-105179761D01*
X151598095Y-105227380D01*
X151407619Y-105227380D01*
X151312380Y-105179761D01*
X151217142Y-105084523D01*
X151169523Y-104894047D01*
X151169523Y-104560714D01*
X151217142Y-104370238D01*
X151312380Y-104275000D01*
X151407619Y-104227380D01*
X152264761Y-105227380D02*
X152264761Y-104227380D01*
X152740952Y-105227380D02*
X152740952Y-104227380D01*
X152979047Y-104227380D01*
X153121904Y-104275000D01*
X153217142Y-104370238D01*
X153264761Y-104465476D01*
X153312380Y-104655952D01*
X153312380Y-104798809D01*
X153264761Y-104989285D01*
X153217142Y-105084523D01*
X153121904Y-105179761D01*
X152979047Y-105227380D01*
X152740952Y-105227380D01*
X116380000Y-104941666D02*
X116856190Y-104941666D01*
X116284761Y-105227380D02*
X116618095Y-104227380D01*
X116951428Y-105227380D01*
X117760952Y-105227380D02*
X117284761Y-105227380D01*
X117284761Y-104227380D01*
X118665714Y-105227380D02*
X118332380Y-104751190D01*
X118094285Y-105227380D02*
X118094285Y-104227380D01*
X118475238Y-104227380D01*
X118570476Y-104275000D01*
X118618095Y-104322619D01*
X118665714Y-104417857D01*
X118665714Y-104560714D01*
X118618095Y-104655952D01*
X118570476Y-104703571D01*
X118475238Y-104751190D01*
X118094285Y-104751190D01*
X119094285Y-105227380D02*
X119094285Y-104227380D01*
X119427619Y-104941666D01*
X119760952Y-104227380D01*
X119760952Y-105227380D01*
X120237142Y-105132142D02*
X120284761Y-105179761D01*
X120237142Y-105227380D01*
X120189523Y-105179761D01*
X120237142Y-105132142D01*
X120237142Y-105227380D01*
X120665714Y-105179761D02*
X120808571Y-105227380D01*
X121046666Y-105227380D01*
X121141904Y-105179761D01*
X121189523Y-105132142D01*
X121237142Y-105036904D01*
X121237142Y-104941666D01*
X121189523Y-104846428D01*
X121141904Y-104798809D01*
X121046666Y-104751190D01*
X120856190Y-104703571D01*
X120760952Y-104655952D01*
X120713333Y-104608333D01*
X120665714Y-104513095D01*
X120665714Y-104417857D01*
X120713333Y-104322619D01*
X120760952Y-104275000D01*
X120856190Y-104227380D01*
X121094285Y-104227380D01*
X121237142Y-104275000D01*
X121570476Y-104227380D02*
X121808571Y-105227380D01*
X121999047Y-104513095D01*
X122189523Y-105227380D01*
X122427619Y-104227380D01*
X129500952Y-104227380D02*
X129739047Y-105227380D01*
X129929523Y-104513095D01*
X130120000Y-105227380D01*
X130358095Y-104227380D01*
X130739047Y-105227380D02*
X130739047Y-104227380D01*
X131215238Y-104703571D02*
X131548571Y-104703571D01*
X131691428Y-105227380D02*
X131215238Y-105227380D01*
X131215238Y-104227380D01*
X131691428Y-104227380D01*
X132643809Y-104275000D02*
X132548571Y-104227380D01*
X132405714Y-104227380D01*
X132262857Y-104275000D01*
X132167619Y-104370238D01*
X132120000Y-104465476D01*
X132072380Y-104655952D01*
X132072380Y-104798809D01*
X132120000Y-104989285D01*
X132167619Y-105084523D01*
X132262857Y-105179761D01*
X132405714Y-105227380D01*
X132500952Y-105227380D01*
X132643809Y-105179761D01*
X132691428Y-105132142D01*
X132691428Y-104798809D01*
X132500952Y-104798809D01*
X133072380Y-104941666D02*
X133548571Y-104941666D01*
X132977142Y-105227380D02*
X133310476Y-104227380D01*
X133643809Y-105227380D01*
X133977142Y-105227380D02*
X133977142Y-104227380D01*
X134548571Y-105227380D01*
X134548571Y-104227380D01*
X135024761Y-105227380D02*
X135024761Y-104227380D01*
X135262857Y-104227380D01*
X135405714Y-104275000D01*
X135500952Y-104370238D01*
X135548571Y-104465476D01*
X135596190Y-104655952D01*
X135596190Y-104798809D01*
X135548571Y-104989285D01*
X135500952Y-105084523D01*
X135405714Y-105179761D01*
X135262857Y-105227380D01*
X135024761Y-105227380D01*
X137358095Y-105227380D02*
X137024761Y-104751190D01*
X136786666Y-105227380D02*
X136786666Y-104227380D01*
X137167619Y-104227380D01*
X137262857Y-104275000D01*
X137310476Y-104322619D01*
X137358095Y-104417857D01*
X137358095Y-104560714D01*
X137310476Y-104655952D01*
X137262857Y-104703571D01*
X137167619Y-104751190D01*
X136786666Y-104751190D01*
X138120000Y-104703571D02*
X137786666Y-104703571D01*
X137786666Y-105227380D02*
X137786666Y-104227380D01*
X138262857Y-104227380D01*
X138643809Y-105227380D02*
X138643809Y-104227380D01*
X139120000Y-105227380D02*
X139120000Y-104227380D01*
X139358095Y-104227380D01*
X139500952Y-104275000D01*
X139596190Y-104370238D01*
X139643809Y-104465476D01*
X139691428Y-104655952D01*
X139691428Y-104798809D01*
X139643809Y-104989285D01*
X139596190Y-105084523D01*
X139500952Y-105179761D01*
X139358095Y-105227380D01*
X139120000Y-105227380D01*
D12*
X129447857Y-102137285D02*
X129447857Y-102708714D01*
X128247857Y-102708714D01*
X128819285Y-101737285D02*
X128819285Y-101337285D01*
X129447857Y-101165857D02*
X129447857Y-101737285D01*
X128247857Y-101737285D01*
X128247857Y-101165857D01*
X129447857Y-100651571D02*
X128247857Y-100651571D01*
X128247857Y-100365857D01*
X128305000Y-100194428D01*
X128419285Y-100080142D01*
X128533571Y-100022999D01*
X128762142Y-99965857D01*
X128933571Y-99965857D01*
X129162142Y-100022999D01*
X129276428Y-100080142D01*
X129390714Y-100194428D01*
X129447857Y-100365857D01*
X129447857Y-100651571D01*
X125009285Y-102715857D02*
X125066428Y-102544428D01*
X125123571Y-102487285D01*
X125237857Y-102430142D01*
X125409285Y-102430142D01*
X125523571Y-102487285D01*
X125580714Y-102544428D01*
X125637857Y-102658714D01*
X125637857Y-103115857D01*
X124437857Y-103115857D01*
X124437857Y-102715857D01*
X124495000Y-102601571D01*
X124552142Y-102544428D01*
X124666428Y-102487285D01*
X124780714Y-102487285D01*
X124895000Y-102544428D01*
X124952142Y-102601571D01*
X125009285Y-102715857D01*
X125009285Y-103115857D01*
X125009285Y-101915857D02*
X125009285Y-101515857D01*
X125637857Y-101344428D02*
X125637857Y-101915857D01*
X124437857Y-101915857D01*
X124437857Y-101344428D01*
X125009285Y-100830142D02*
X125009285Y-100430142D01*
X125637857Y-100258714D02*
X125637857Y-100830142D01*
X124437857Y-100830142D01*
X124437857Y-100258714D01*
X125637857Y-99744428D02*
X124437857Y-99744428D01*
X124437857Y-99287285D01*
X124495000Y-99172999D01*
X124552142Y-99115857D01*
X124666428Y-99058714D01*
X124837857Y-99058714D01*
X124952142Y-99115857D01*
X125009285Y-99172999D01*
X125066428Y-99287285D01*
X125066428Y-99744428D01*
D13*
X117940000Y-80166666D02*
X117356666Y-79333333D01*
X116940000Y-80166666D02*
X116940000Y-78416666D01*
X117606666Y-78416666D01*
X117773333Y-78500000D01*
X117856666Y-78583333D01*
X117940000Y-78750000D01*
X117940000Y-79000000D01*
X117856666Y-79166666D01*
X117773333Y-79250000D01*
X117606666Y-79333333D01*
X116940000Y-79333333D01*
X119273333Y-79250000D02*
X118690000Y-79250000D01*
X118690000Y-80166666D02*
X118690000Y-78416666D01*
X119523333Y-78416666D01*
X120190000Y-80166666D02*
X120190000Y-78416666D01*
X121023333Y-80166666D02*
X121023333Y-78416666D01*
X121440000Y-78416666D01*
X121690000Y-78500000D01*
X121856666Y-78666666D01*
X121940000Y-78833333D01*
X122023333Y-79166666D01*
X122023333Y-79416666D01*
X121940000Y-79750000D01*
X121856666Y-79916666D01*
X121690000Y-80083333D01*
X121440000Y-80166666D01*
X121023333Y-80166666D01*
X124023333Y-79666666D02*
X124856666Y-79666666D01*
X123856666Y-80166666D02*
X124440000Y-78416666D01*
X125023333Y-80166666D01*
X126440000Y-80166666D02*
X125606666Y-80166666D01*
X125606666Y-78416666D01*
X127856666Y-80166666D02*
X127023333Y-80166666D01*
X127023333Y-78416666D01*
X129523333Y-78416666D02*
X130523333Y-78416666D01*
X130023333Y-80166666D02*
X130023333Y-78416666D01*
X131106666Y-80166666D02*
X131106666Y-78416666D01*
X131106666Y-79250000D02*
X132106666Y-79250000D01*
X132106666Y-80166666D02*
X132106666Y-78416666D01*
X132940000Y-79250000D02*
X133523333Y-79250000D01*
X133773333Y-80166666D02*
X132940000Y-80166666D01*
X132940000Y-78416666D01*
X133773333Y-78416666D01*
X135606666Y-78416666D02*
X136606666Y-78416666D01*
X136106666Y-80166666D02*
X136106666Y-78416666D01*
X137190000Y-80166666D02*
X137190000Y-78416666D01*
X137190000Y-79250000D02*
X138190000Y-79250000D01*
X138190000Y-80166666D02*
X138190000Y-78416666D01*
X139023333Y-80166666D02*
X139023333Y-78416666D01*
X139856666Y-80166666D02*
X139856666Y-78416666D01*
X140856666Y-80166666D01*
X140856666Y-78416666D01*
X142606666Y-78500000D02*
X142440000Y-78416666D01*
X142190000Y-78416666D01*
X141940000Y-78500000D01*
X141773333Y-78666666D01*
X141690000Y-78833333D01*
X141606666Y-79166666D01*
X141606666Y-79416666D01*
X141690000Y-79750000D01*
X141773333Y-79916666D01*
X141940000Y-80083333D01*
X142190000Y-80166666D01*
X142356666Y-80166666D01*
X142606666Y-80083333D01*
X142690000Y-80000000D01*
X142690000Y-79416666D01*
X142356666Y-79416666D01*
X143356666Y-80083333D02*
X143606666Y-80166666D01*
X144023333Y-80166666D01*
X144190000Y-80083333D01*
X144273333Y-80000000D01*
X144356666Y-79833333D01*
X144356666Y-79666666D01*
X144273333Y-79500000D01*
X144190000Y-79416666D01*
X144023333Y-79333333D01*
X143690000Y-79250000D01*
X143523333Y-79166666D01*
X143440000Y-79083333D01*
X143356666Y-78916666D01*
X143356666Y-78750000D01*
X143440000Y-78583333D01*
X143523333Y-78500000D01*
X143690000Y-78416666D01*
X144106666Y-78416666D01*
X144356666Y-78500000D01*
X146440000Y-79500000D02*
X147773333Y-79500000D01*
X149940000Y-80166666D02*
X149940000Y-78416666D01*
X150356666Y-78416666D01*
X150606666Y-78500000D01*
X150773333Y-78666666D01*
X150856666Y-78833333D01*
X150940000Y-79166666D01*
X150940000Y-79416666D01*
X150856666Y-79750000D01*
X150773333Y-79916666D01*
X150606666Y-80083333D01*
X150356666Y-80166666D01*
X149940000Y-80166666D01*
X152023333Y-78416666D02*
X152356666Y-78416666D01*
X152523333Y-78500000D01*
X152690000Y-78666666D01*
X152773333Y-79000000D01*
X152773333Y-79583333D01*
X152690000Y-79916666D01*
X152523333Y-80083333D01*
X152356666Y-80166666D01*
X152023333Y-80166666D01*
X151856666Y-80083333D01*
X151690000Y-79916666D01*
X151606666Y-79583333D01*
X151606666Y-79000000D01*
X151690000Y-78666666D01*
X151856666Y-78500000D01*
X152023333Y-78416666D01*
X153856666Y-78416666D02*
X154190000Y-78416666D01*
X154356666Y-78500000D01*
X154523333Y-78666666D01*
X154606666Y-79000000D01*
X154606666Y-79583333D01*
X154523333Y-79916666D01*
X154356666Y-80083333D01*
X154190000Y-80166666D01*
X153856666Y-80166666D01*
X153690000Y-80083333D01*
X153523333Y-79916666D01*
X153440000Y-79583333D01*
X153440000Y-79000000D01*
X153523333Y-78666666D01*
X153690000Y-78500000D01*
X153856666Y-78416666D01*
X156356666Y-80166666D02*
X155773333Y-79333333D01*
X155356666Y-80166666D02*
X155356666Y-78416666D01*
X156023333Y-78416666D01*
X156190000Y-78500000D01*
X156273333Y-78583333D01*
X156356666Y-78750000D01*
X156356666Y-79000000D01*
X156273333Y-79166666D01*
X156190000Y-79250000D01*
X156023333Y-79333333D01*
X155356666Y-79333333D01*
X157690000Y-79250000D02*
X157940000Y-79333333D01*
X158023333Y-79416666D01*
X158106666Y-79583333D01*
X158106666Y-79833333D01*
X158023333Y-80000000D01*
X157940000Y-80083333D01*
X157773333Y-80166666D01*
X157106666Y-80166666D01*
X157106666Y-78416666D01*
X157690000Y-78416666D01*
X157856666Y-78500000D01*
X157940000Y-78583333D01*
X158023333Y-78750000D01*
X158023333Y-78916666D01*
X157940000Y-79083333D01*
X157856666Y-79166666D01*
X157690000Y-79250000D01*
X157106666Y-79250000D01*
X159190000Y-78416666D02*
X159523333Y-78416666D01*
X159690000Y-78500000D01*
X159856666Y-78666666D01*
X159940000Y-79000000D01*
X159940000Y-79583333D01*
X159856666Y-79916666D01*
X159690000Y-80083333D01*
X159523333Y-80166666D01*
X159190000Y-80166666D01*
X159023333Y-80083333D01*
X158856666Y-79916666D01*
X158773333Y-79583333D01*
X158773333Y-79000000D01*
X158856666Y-78666666D01*
X159023333Y-78500000D01*
X159190000Y-78416666D01*
X160440000Y-78416666D02*
X161440000Y-78416666D01*
X160940000Y-80166666D02*
X160940000Y-78416666D01*
D11*
X165735000Y-100965000D02*
X165735000Y-101600000D01*
X157480000Y-91440000D02*
X165735000Y-100965000D01*
X150165354Y-90661855D02*
X150165354Y-89661855D01*
X150403449Y-89661855D01*
X150546306Y-89709475D01*
X150641544Y-89804713D01*
X150689163Y-89899951D01*
X150736782Y-90090427D01*
X150736782Y-90233284D01*
X150689163Y-90423760D01*
X150641544Y-90518998D01*
X150546306Y-90614236D01*
X150403449Y-90661855D01*
X150165354Y-90661855D01*
X151165354Y-90661855D02*
X151165354Y-89661855D01*
X151736782Y-90661855D01*
X151736782Y-89661855D01*
X152212973Y-90661855D02*
X152212973Y-89661855D01*
X152593925Y-89661855D01*
X152689163Y-89709475D01*
X152736782Y-89757094D01*
X152784402Y-89852332D01*
X152784402Y-89995189D01*
X152736782Y-90090427D01*
X152689163Y-90138046D01*
X152593925Y-90185665D01*
X152212973Y-90185665D01*
X154546306Y-90661855D02*
X154212973Y-90185665D01*
X153974878Y-90661855D02*
X153974878Y-89661855D01*
X154355830Y-89661855D01*
X154451068Y-89709475D01*
X154498687Y-89757094D01*
X154546306Y-89852332D01*
X154546306Y-89995189D01*
X154498687Y-90090427D01*
X154451068Y-90138046D01*
X154355830Y-90185665D01*
X153974878Y-90185665D01*
X154927259Y-89757094D02*
X154974878Y-89709475D01*
X155070116Y-89661855D01*
X155308211Y-89661855D01*
X155403449Y-89709475D01*
X155451068Y-89757094D01*
X155498687Y-89852332D01*
X155498687Y-89947570D01*
X155451068Y-90090427D01*
X154879640Y-90661855D01*
X155498687Y-90661855D01*
X156355830Y-89995189D02*
X156355830Y-90661855D01*
X156117735Y-89614236D02*
X155879640Y-90328522D01*
X156498687Y-90328522D01*
X150070116Y-92311855D02*
X150070116Y-91311855D01*
X150879640Y-91788046D02*
X150546306Y-91788046D01*
X150546306Y-92311855D02*
X150546306Y-91311855D01*
X151022497Y-91311855D01*
X152498687Y-91788046D02*
X152641544Y-91835665D01*
X152689163Y-91883284D01*
X152736782Y-91978522D01*
X152736782Y-92121379D01*
X152689163Y-92216617D01*
X152641544Y-92264236D01*
X152546306Y-92311855D01*
X152165354Y-92311855D01*
X152165354Y-91311855D01*
X152498687Y-91311855D01*
X152593925Y-91359475D01*
X152641544Y-91407094D01*
X152689163Y-91502332D01*
X152689163Y-91597570D01*
X152641544Y-91692808D01*
X152593925Y-91740427D01*
X152498687Y-91788046D01*
X152165354Y-91788046D01*
X153355830Y-91311855D02*
X153546306Y-91311855D01*
X153641544Y-91359475D01*
X153736782Y-91454713D01*
X153784402Y-91645189D01*
X153784402Y-91978522D01*
X153736782Y-92168998D01*
X153641544Y-92264236D01*
X153546306Y-92311855D01*
X153355830Y-92311855D01*
X153260592Y-92264236D01*
X153165354Y-92168998D01*
X153117735Y-91978522D01*
X153117735Y-91645189D01*
X153165354Y-91454713D01*
X153260592Y-91359475D01*
X153355830Y-91311855D01*
X154403449Y-91311855D02*
X154593925Y-91311855D01*
X154689163Y-91359475D01*
X154784402Y-91454713D01*
X154832021Y-91645189D01*
X154832021Y-91978522D01*
X154784402Y-92168998D01*
X154689163Y-92264236D01*
X154593925Y-92311855D01*
X154403449Y-92311855D01*
X154308211Y-92264236D01*
X154212973Y-92168998D01*
X154165354Y-91978522D01*
X154165354Y-91645189D01*
X154212973Y-91454713D01*
X154308211Y-91359475D01*
X154403449Y-91311855D01*
X155212973Y-92264236D02*
X155355830Y-92311855D01*
X155593925Y-92311855D01*
X155689163Y-92264236D01*
X155736782Y-92216617D01*
X155784402Y-92121379D01*
X155784402Y-92026141D01*
X155736782Y-91930903D01*
X155689163Y-91883284D01*
X155593925Y-91835665D01*
X155403449Y-91788046D01*
X155308211Y-91740427D01*
X155260592Y-91692808D01*
X155212973Y-91597570D01*
X155212973Y-91502332D01*
X155260592Y-91407094D01*
X155308211Y-91359475D01*
X155403449Y-91311855D01*
X155641544Y-91311855D01*
X155784402Y-91359475D01*
X156070116Y-91311855D02*
X156641544Y-91311855D01*
X156355830Y-92311855D02*
X156355830Y-91311855D01*
X150236782Y-93961855D02*
X150236782Y-92961855D01*
X150617735Y-92961855D01*
X150712973Y-93009475D01*
X150760592Y-93057094D01*
X150808211Y-93152332D01*
X150808211Y-93295189D01*
X150760592Y-93390427D01*
X150712973Y-93438046D01*
X150617735Y-93485665D01*
X150236782Y-93485665D01*
X151808211Y-93961855D02*
X151474878Y-93485665D01*
X151236782Y-93961855D02*
X151236782Y-92961855D01*
X151617735Y-92961855D01*
X151712973Y-93009475D01*
X151760592Y-93057094D01*
X151808211Y-93152332D01*
X151808211Y-93295189D01*
X151760592Y-93390427D01*
X151712973Y-93438046D01*
X151617735Y-93485665D01*
X151236782Y-93485665D01*
X152236782Y-93438046D02*
X152570116Y-93438046D01*
X152712973Y-93961855D02*
X152236782Y-93961855D01*
X152236782Y-92961855D01*
X152712973Y-92961855D01*
X153093925Y-93914236D02*
X153236782Y-93961855D01*
X153474878Y-93961855D01*
X153570116Y-93914236D01*
X153617735Y-93866617D01*
X153665354Y-93771379D01*
X153665354Y-93676141D01*
X153617735Y-93580903D01*
X153570116Y-93533284D01*
X153474878Y-93485665D01*
X153284402Y-93438046D01*
X153189163Y-93390427D01*
X153141544Y-93342808D01*
X153093925Y-93247570D01*
X153093925Y-93152332D01*
X153141544Y-93057094D01*
X153189163Y-93009475D01*
X153284402Y-92961855D01*
X153522497Y-92961855D01*
X153665354Y-93009475D01*
X154093925Y-93438046D02*
X154427259Y-93438046D01*
X154570116Y-93961855D02*
X154093925Y-93961855D01*
X154093925Y-92961855D01*
X154570116Y-92961855D01*
X154998687Y-93961855D02*
X154998687Y-92961855D01*
X155570116Y-93961855D01*
X155570116Y-92961855D01*
X155903449Y-92961855D02*
X156474878Y-92961855D01*
X156189163Y-93961855D02*
X156189163Y-92961855D01*
X118579619Y-92654380D02*
X118579619Y-91654380D01*
X119055809Y-92654380D02*
X119055809Y-91654380D01*
X119627238Y-92654380D01*
X119627238Y-91654380D01*
X120055809Y-92606761D02*
X120198666Y-92654380D01*
X120436761Y-92654380D01*
X120532000Y-92606761D01*
X120579619Y-92559142D01*
X120627238Y-92463904D01*
X120627238Y-92368666D01*
X120579619Y-92273428D01*
X120532000Y-92225809D01*
X120436761Y-92178190D01*
X120246285Y-92130571D01*
X120151047Y-92082952D01*
X120103428Y-92035333D01*
X120055809Y-91940095D01*
X120055809Y-91844857D01*
X120103428Y-91749619D01*
X120151047Y-91702000D01*
X120246285Y-91654380D01*
X120484380Y-91654380D01*
X120627238Y-91702000D01*
X120912952Y-91654380D02*
X121484380Y-91654380D01*
X121198666Y-92654380D02*
X121198666Y-91654380D01*
X121770095Y-92368666D02*
X122246285Y-92368666D01*
X121674857Y-92654380D02*
X122008190Y-91654380D01*
X122341523Y-92654380D01*
X123151047Y-92654380D02*
X122674857Y-92654380D01*
X122674857Y-91654380D01*
X123960571Y-92654380D02*
X123484380Y-92654380D01*
X123484380Y-91654380D01*
X124912952Y-91987714D02*
X125293904Y-91987714D01*
X125055809Y-92654380D02*
X125055809Y-91797238D01*
X125103428Y-91702000D01*
X125198666Y-91654380D01*
X125293904Y-91654380D01*
X125770095Y-92654380D02*
X125674857Y-92606761D01*
X125627238Y-92559142D01*
X125579619Y-92463904D01*
X125579619Y-92178190D01*
X125627238Y-92082952D01*
X125674857Y-92035333D01*
X125770095Y-91987714D01*
X125912952Y-91987714D01*
X126008190Y-92035333D01*
X126055809Y-92082952D01*
X126103428Y-92178190D01*
X126103428Y-92463904D01*
X126055809Y-92559142D01*
X126008190Y-92606761D01*
X125912952Y-92654380D01*
X125770095Y-92654380D01*
X126532000Y-92654380D02*
X126532000Y-91987714D01*
X126532000Y-92178190D02*
X126579619Y-92082952D01*
X126627238Y-92035333D01*
X126722476Y-91987714D01*
X126817714Y-91987714D01*
X127912952Y-91987714D02*
X128674857Y-92273428D01*
X127912952Y-92559142D01*
X129674857Y-92654380D02*
X129103428Y-92654380D01*
X129389142Y-92654380D02*
X129389142Y-91654380D01*
X129293904Y-91797238D01*
X129198666Y-91892476D01*
X129103428Y-91940095D01*
X130055809Y-91749619D02*
X130103428Y-91702000D01*
X130198666Y-91654380D01*
X130436761Y-91654380D01*
X130532000Y-91702000D01*
X130579619Y-91749619D01*
X130627238Y-91844857D01*
X130627238Y-91940095D01*
X130579619Y-92082952D01*
X130008190Y-92654380D01*
X130627238Y-92654380D01*
X130912952Y-91654380D02*
X131246285Y-92654380D01*
X131579619Y-91654380D01*
X132627238Y-92606761D02*
X132770095Y-92654380D01*
X133008190Y-92654380D01*
X133103428Y-92606761D01*
X133151047Y-92559142D01*
X133198666Y-92463904D01*
X133198666Y-92368666D01*
X133151047Y-92273428D01*
X133103428Y-92225809D01*
X133008190Y-92178190D01*
X132817714Y-92130571D01*
X132722476Y-92082952D01*
X132674857Y-92035333D01*
X132627238Y-91940095D01*
X132627238Y-91844857D01*
X132674857Y-91749619D01*
X132722476Y-91702000D01*
X132817714Y-91654380D01*
X133055809Y-91654380D01*
X133198666Y-91702000D01*
X133817714Y-91654380D02*
X134008190Y-91654380D01*
X134103428Y-91702000D01*
X134198666Y-91797238D01*
X134246285Y-91987714D01*
X134246285Y-92321047D01*
X134198666Y-92511523D01*
X134103428Y-92606761D01*
X134008190Y-92654380D01*
X133817714Y-92654380D01*
X133722476Y-92606761D01*
X133627238Y-92511523D01*
X133579619Y-92321047D01*
X133579619Y-91987714D01*
X133627238Y-91797238D01*
X133722476Y-91702000D01*
X133817714Y-91654380D01*
X135151047Y-92654380D02*
X134674857Y-92654380D01*
X134674857Y-91654380D01*
X135484380Y-92130571D02*
X135817714Y-92130571D01*
X135960571Y-92654380D02*
X135484380Y-92654380D01*
X135484380Y-91654380D01*
X135960571Y-91654380D01*
X136389142Y-92654380D02*
X136389142Y-91654380D01*
X136960571Y-92654380D01*
X136960571Y-91654380D01*
X137627238Y-91654380D02*
X137817714Y-91654380D01*
X137912952Y-91702000D01*
X138008190Y-91797238D01*
X138055809Y-91987714D01*
X138055809Y-92321047D01*
X138008190Y-92511523D01*
X137912952Y-92606761D01*
X137817714Y-92654380D01*
X137627238Y-92654380D01*
X137532000Y-92606761D01*
X137436761Y-92511523D01*
X137389142Y-92321047D01*
X137389142Y-91987714D01*
X137436761Y-91797238D01*
X137532000Y-91702000D01*
X137627238Y-91654380D01*
X138484380Y-92654380D02*
X138484380Y-91654380D01*
X138960571Y-92654380D02*
X138960571Y-91654380D01*
X139198666Y-91654380D01*
X139341523Y-91702000D01*
X139436761Y-91797238D01*
X139484380Y-91892476D01*
X139532000Y-92082952D01*
X139532000Y-92225809D01*
X139484380Y-92416285D01*
X139436761Y-92511523D01*
X139341523Y-92606761D01*
X139198666Y-92654380D01*
X138960571Y-92654380D01*
X125936761Y-87590380D02*
X126127238Y-87590380D01*
X126222476Y-87638000D01*
X126317714Y-87733238D01*
X126365333Y-87923714D01*
X126365333Y-88257047D01*
X126317714Y-88447523D01*
X126222476Y-88542761D01*
X126127238Y-88590380D01*
X125936761Y-88590380D01*
X125841523Y-88542761D01*
X125746285Y-88447523D01*
X125698666Y-88257047D01*
X125698666Y-87923714D01*
X125746285Y-87733238D01*
X125841523Y-87638000D01*
X125936761Y-87590380D01*
X126793904Y-88590380D02*
X126793904Y-87590380D01*
X127174857Y-87590380D01*
X127270095Y-87638000D01*
X127317714Y-87685619D01*
X127365333Y-87780857D01*
X127365333Y-87923714D01*
X127317714Y-88018952D01*
X127270095Y-88066571D01*
X127174857Y-88114190D01*
X126793904Y-88114190D01*
X127651047Y-87590380D02*
X128222476Y-87590380D01*
X127936761Y-88590380D02*
X127936761Y-87590380D01*
X128555809Y-88590380D02*
X128555809Y-87590380D01*
X129222476Y-87590380D02*
X129412952Y-87590380D01*
X129508190Y-87638000D01*
X129603428Y-87733238D01*
X129651047Y-87923714D01*
X129651047Y-88257047D01*
X129603428Y-88447523D01*
X129508190Y-88542761D01*
X129412952Y-88590380D01*
X129222476Y-88590380D01*
X129127238Y-88542761D01*
X129032000Y-88447523D01*
X128984380Y-88257047D01*
X128984380Y-87923714D01*
X129032000Y-87733238D01*
X129127238Y-87638000D01*
X129222476Y-87590380D01*
X130079619Y-88590380D02*
X130079619Y-87590380D01*
X130651047Y-88590380D01*
X130651047Y-87590380D01*
X131079619Y-88304666D02*
X131555809Y-88304666D01*
X130984380Y-88590380D02*
X131317714Y-87590380D01*
X131651047Y-88590380D01*
X132460571Y-88590380D02*
X131984380Y-88590380D01*
X131984380Y-87590380D01*
D12*
X148040714Y-101922856D02*
X148212142Y-101979999D01*
X148269285Y-102037142D01*
X148326428Y-102151428D01*
X148326428Y-102322856D01*
X148269285Y-102437142D01*
X148212142Y-102494285D01*
X148097857Y-102551428D01*
X147640714Y-102551428D01*
X147640714Y-101351428D01*
X148040714Y-101351428D01*
X148155000Y-101408571D01*
X148212142Y-101465713D01*
X148269285Y-101579999D01*
X148269285Y-101694285D01*
X148212142Y-101808571D01*
X148155000Y-101865713D01*
X148040714Y-101922856D01*
X147640714Y-101922856D01*
X117560714Y-101922856D02*
X117732142Y-101979999D01*
X117789285Y-102037142D01*
X117846428Y-102151428D01*
X117846428Y-102322856D01*
X117789285Y-102437142D01*
X117732142Y-102494285D01*
X117617857Y-102551428D01*
X117160714Y-102551428D01*
X117160714Y-101351428D01*
X117560714Y-101351428D01*
X117675000Y-101408571D01*
X117732142Y-101465713D01*
X117789285Y-101579999D01*
X117789285Y-101694285D01*
X117732142Y-101808571D01*
X117675000Y-101865713D01*
X117560714Y-101922856D01*
X117160714Y-101922856D01*
X120999285Y-102208571D02*
X121570714Y-102208571D01*
X120885000Y-102551428D02*
X121285000Y-101351428D01*
X121685000Y-102551428D01*
X131829285Y-102777857D02*
X131829285Y-101577857D01*
X132115000Y-101577857D01*
X132286428Y-101635000D01*
X132400714Y-101749285D01*
X132457857Y-101863571D01*
X132515000Y-102092142D01*
X132515000Y-102263571D01*
X132457857Y-102492142D01*
X132400714Y-102606428D01*
X132286428Y-102720714D01*
X132115000Y-102777857D01*
X131829285Y-102777857D01*
X133257857Y-101577857D02*
X133372142Y-101577857D01*
X133486428Y-101635000D01*
X133543571Y-101692142D01*
X133600714Y-101806428D01*
X133657857Y-102035000D01*
X133657857Y-102320714D01*
X133600714Y-102549285D01*
X133543571Y-102663571D01*
X133486428Y-102720714D01*
X133372142Y-102777857D01*
X133257857Y-102777857D01*
X133143571Y-102720714D01*
X133086428Y-102663571D01*
X133029285Y-102549285D01*
X132972142Y-102320714D01*
X132972142Y-102035000D01*
X133029285Y-101806428D01*
X133086428Y-101692142D01*
X133143571Y-101635000D01*
X133257857Y-101577857D01*
X135639285Y-102777857D02*
X135639285Y-101577857D01*
X135925000Y-101577857D01*
X136096428Y-101635000D01*
X136210714Y-101749285D01*
X136267857Y-101863571D01*
X136325000Y-102092142D01*
X136325000Y-102263571D01*
X136267857Y-102492142D01*
X136210714Y-102606428D01*
X136096428Y-102720714D01*
X135925000Y-102777857D01*
X135639285Y-102777857D01*
X137467857Y-102777857D02*
X136782142Y-102777857D01*
X137125000Y-102777857D02*
X137125000Y-101577857D01*
X137010714Y-101749285D01*
X136896428Y-101863571D01*
X136782142Y-101920714D01*
X140877857Y-102073000D02*
X140877857Y-102758714D01*
X140877857Y-102415857D02*
X139677857Y-102415857D01*
X139849285Y-102530143D01*
X139963571Y-102644428D01*
X140020714Y-102758714D01*
X139792142Y-101615857D02*
X139735000Y-101558714D01*
X139677857Y-101444428D01*
X139677857Y-101158714D01*
X139735000Y-101044428D01*
X139792142Y-100987285D01*
X139906428Y-100930143D01*
X140020714Y-100930143D01*
X140192142Y-100987285D01*
X140877857Y-101673000D01*
X140877857Y-100930143D01*
X139677857Y-100587285D02*
X140877857Y-100187285D01*
X139677857Y-99787285D01*
X143545000Y-102030142D02*
X143487857Y-102144428D01*
X143487857Y-102315857D01*
X143545000Y-102487285D01*
X143659285Y-102601571D01*
X143773571Y-102658714D01*
X144002142Y-102715857D01*
X144173571Y-102715857D01*
X144402142Y-102658714D01*
X144516428Y-102601571D01*
X144630714Y-102487285D01*
X144687857Y-102315857D01*
X144687857Y-102201571D01*
X144630714Y-102030142D01*
X144573571Y-101972999D01*
X144173571Y-101972999D01*
X144173571Y-102201571D01*
X144687857Y-101458714D02*
X143487857Y-101458714D01*
X144687857Y-100772999D01*
X143487857Y-100772999D01*
X144687857Y-100201571D02*
X143487857Y-100201571D01*
X143487857Y-99915857D01*
X143545000Y-99744428D01*
X143659285Y-99630142D01*
X143773571Y-99572999D01*
X144002142Y-99515857D01*
X144173571Y-99515857D01*
X144402142Y-99572999D01*
X144516428Y-99630142D01*
X144630714Y-99744428D01*
X144687857Y-99915857D01*
X144687857Y-100201571D01*
X151479285Y-102208571D02*
X152050714Y-102208571D01*
X151365000Y-102551428D02*
X151765000Y-101351428D01*
X152165000Y-102551428D01*
X154825000Y-101258571D02*
X154753571Y-101401428D01*
X154753571Y-101615714D01*
X154825000Y-101829999D01*
X154967857Y-101972856D01*
X155110714Y-102044285D01*
X155396428Y-102115714D01*
X155610714Y-102115714D01*
X155896428Y-102044285D01*
X156039285Y-101972856D01*
X156182142Y-101829999D01*
X156253571Y-101615714D01*
X156253571Y-101472856D01*
X156182142Y-101258571D01*
X156110714Y-101187142D01*
X155610714Y-101187142D01*
X155610714Y-101472856D01*
X156253571Y-100544285D02*
X154753571Y-100544285D01*
X156253571Y-99687142D01*
X154753571Y-99687142D01*
X156253571Y-98972856D02*
X154753571Y-98972856D01*
X154753571Y-98615714D01*
X154825000Y-98401428D01*
X154967857Y-98258571D01*
X155110714Y-98187142D01*
X155396428Y-98115714D01*
X155610714Y-98115714D01*
X155896428Y-98187142D01*
X156039285Y-98258571D01*
X156182142Y-98401428D01*
X156253571Y-98615714D01*
X156253571Y-98972856D01*
X159492142Y-102972857D02*
X159492142Y-101830000D01*
X160063571Y-102401428D02*
X158920714Y-102401428D01*
X160063571Y-100330000D02*
X160063571Y-101187142D01*
X160063571Y-100758571D02*
X158563571Y-100758571D01*
X158777857Y-100901428D01*
X158920714Y-101044285D01*
X158992142Y-101187142D01*
X158706428Y-99758571D02*
X158635000Y-99687142D01*
X158563571Y-99544285D01*
X158563571Y-99187142D01*
X158635000Y-99044285D01*
X158706428Y-98972857D01*
X158849285Y-98901428D01*
X158992142Y-98901428D01*
X159206428Y-98972857D01*
X160063571Y-99830000D01*
X160063571Y-98901428D01*
X158563571Y-98472857D02*
X160063571Y-97972857D01*
X158563571Y-97472857D01*
D14*
X168175000Y-97400000D02*
X168175000Y-99860000D01*
X169645000Y-97400000D02*
X168175000Y-97400000D01*
X169645000Y-99860000D02*
X169645000Y-97400000D01*
X111515000Y-72290000D02*
X109055000Y-72290000D01*
X111515000Y-73760000D02*
X111515000Y-72290000D01*
X109055000Y-73760000D02*
X111515000Y-73760000D01*
X111515000Y-85625000D02*
X109055000Y-85625000D01*
X111515000Y-87095000D02*
X111515000Y-85625000D01*
X109055000Y-87095000D02*
X111515000Y-87095000D01*
X166337064Y-105135000D02*
X165132936Y-105135000D01*
X166337064Y-106955000D02*
X165132936Y-106955000D01*
X165897779Y-101725000D02*
X165572221Y-101725000D01*
X165897779Y-102745000D02*
X165572221Y-102745000D01*
D15*
G36*
X137753248Y-77112216D02*
G01*
X137721281Y-77227205D01*
X137582757Y-77402191D01*
X137546582Y-77439297D01*
X137284011Y-77614000D01*
X136999622Y-77650880D01*
X136718536Y-77548958D01*
X136619761Y-77475320D01*
X136496363Y-77352989D01*
X136484211Y-77285984D01*
X136525000Y-77262816D01*
X136654149Y-77232103D01*
X136875797Y-77189825D01*
X137139934Y-77144336D01*
X137396556Y-77103991D01*
X137595655Y-77077144D01*
X137673944Y-77070857D01*
X137753248Y-77112216D01*
X137753248Y-77112216D01*
G37*
X137753248Y-77112216D02*
X137721281Y-77227205D01*
X137582757Y-77402191D01*
X137546582Y-77439297D01*
X137284011Y-77614000D01*
X136999622Y-77650880D01*
X136718536Y-77548958D01*
X136619761Y-77475320D01*
X136496363Y-77352989D01*
X136484211Y-77285984D01*
X136525000Y-77262816D01*
X136654149Y-77232103D01*
X136875797Y-77189825D01*
X137139934Y-77144336D01*
X137396556Y-77103991D01*
X137595655Y-77077144D01*
X137673944Y-77070857D01*
X137753248Y-77112216D01*
G36*
X116258546Y-71490721D02*
G01*
X116424105Y-71526294D01*
X116559541Y-71606157D01*
X116675192Y-71744908D01*
X116781394Y-71957146D01*
X116888483Y-72257469D01*
X117006795Y-72660475D01*
X117146668Y-73180763D01*
X117239364Y-73532970D01*
X117365823Y-74008350D01*
X117481630Y-74433477D01*
X117581392Y-74789365D01*
X117659712Y-75057027D01*
X117711195Y-75217476D01*
X117729000Y-75256033D01*
X117756640Y-75188793D01*
X117815154Y-75000020D01*
X117899151Y-74708719D01*
X118003237Y-74333896D01*
X118122023Y-73894555D01*
X118217949Y-73532491D01*
X118374447Y-72939321D01*
X118503604Y-72471722D01*
X118615727Y-72115094D01*
X118721123Y-71854832D01*
X118830098Y-71676335D01*
X118952959Y-71564999D01*
X119100013Y-71506222D01*
X119281566Y-71485401D01*
X119507926Y-71487934D01*
X119656701Y-71494051D01*
X119880095Y-71500653D01*
X120063422Y-71508649D01*
X120210621Y-71531180D01*
X120325628Y-71581384D01*
X120412380Y-71672400D01*
X120474816Y-71817367D01*
X120516874Y-72029424D01*
X120542490Y-72321709D01*
X120555602Y-72707363D01*
X120560148Y-73199523D01*
X120560065Y-73811329D01*
X120559285Y-74505819D01*
X120559013Y-75205121D01*
X120557706Y-75773740D01*
X120554630Y-76226137D01*
X120549049Y-76576773D01*
X120540228Y-76840107D01*
X120527433Y-77030600D01*
X120509928Y-77162712D01*
X120486978Y-77250904D01*
X120457848Y-77309635D01*
X120421803Y-77353367D01*
X120414143Y-77361143D01*
X120211648Y-77474062D01*
X119948980Y-77505558D01*
X119728633Y-77461462D01*
X119644308Y-77417535D01*
X119577225Y-77346938D01*
X119524987Y-77233533D01*
X119485201Y-77061180D01*
X119455470Y-76813737D01*
X119433399Y-76475067D01*
X119416594Y-76029028D01*
X119402658Y-75459481D01*
X119398143Y-75234539D01*
X119361857Y-73361934D01*
X118890142Y-75229925D01*
X118729912Y-75857569D01*
X118595971Y-76358226D01*
X118481252Y-76746168D01*
X118378687Y-77035666D01*
X118281210Y-77240993D01*
X118181753Y-77376418D01*
X118073249Y-77456215D01*
X117948630Y-77494653D01*
X117800830Y-77506006D01*
X117762881Y-77506286D01*
X117589970Y-77501136D01*
X117446836Y-77476116D01*
X117325844Y-77416871D01*
X117219355Y-77309047D01*
X117119733Y-77138290D01*
X117019340Y-76890245D01*
X116910540Y-76550558D01*
X116785696Y-76104874D01*
X116637170Y-75538838D01*
X116563253Y-75251484D01*
X116071189Y-73333429D01*
X116065118Y-75075143D01*
X116059806Y-75722769D01*
X116047627Y-76240318D01*
X116026714Y-76642768D01*
X115995199Y-76945099D01*
X115951215Y-77162289D01*
X115892895Y-77309319D01*
X115818370Y-77401167D01*
X115771167Y-77432860D01*
X115528561Y-77500875D01*
X115270617Y-77481320D01*
X115063981Y-77380332D01*
X115049088Y-77366374D01*
X114989159Y-77293660D01*
X114940485Y-77197814D01*
X114902119Y-77064666D01*
X114873118Y-76880050D01*
X114852538Y-76629797D01*
X114839433Y-76299738D01*
X114832860Y-75875706D01*
X114831873Y-75343532D01*
X114835529Y-74689048D01*
X114839629Y-74224343D01*
X114846062Y-73575097D01*
X114852325Y-73055310D01*
X114859579Y-72649308D01*
X114868985Y-72341414D01*
X114881703Y-72115951D01*
X114898895Y-71957244D01*
X114921720Y-71849616D01*
X114951340Y-71777391D01*
X114988916Y-71724892D01*
X115027702Y-71684343D01*
X115133973Y-71599120D01*
X115269858Y-71545376D01*
X115473420Y-71513678D01*
X115782722Y-71494597D01*
X115795719Y-71494051D01*
X116052530Y-71484840D01*
X116258546Y-71490721D01*
X116258546Y-71490721D01*
G37*
X116258546Y-71490721D02*
X116424105Y-71526294D01*
X116559541Y-71606157D01*
X116675192Y-71744908D01*
X116781394Y-71957146D01*
X116888483Y-72257469D01*
X117006795Y-72660475D01*
X117146668Y-73180763D01*
X117239364Y-73532970D01*
X117365823Y-74008350D01*
X117481630Y-74433477D01*
X117581392Y-74789365D01*
X117659712Y-75057027D01*
X117711195Y-75217476D01*
X117729000Y-75256033D01*
X117756640Y-75188793D01*
X117815154Y-75000020D01*
X117899151Y-74708719D01*
X118003237Y-74333896D01*
X118122023Y-73894555D01*
X118217949Y-73532491D01*
X118374447Y-72939321D01*
X118503604Y-72471722D01*
X118615727Y-72115094D01*
X118721123Y-71854832D01*
X118830098Y-71676335D01*
X118952959Y-71564999D01*
X119100013Y-71506222D01*
X119281566Y-71485401D01*
X119507926Y-71487934D01*
X119656701Y-71494051D01*
X119880095Y-71500653D01*
X120063422Y-71508649D01*
X120210621Y-71531180D01*
X120325628Y-71581384D01*
X120412380Y-71672400D01*
X120474816Y-71817367D01*
X120516874Y-72029424D01*
X120542490Y-72321709D01*
X120555602Y-72707363D01*
X120560148Y-73199523D01*
X120560065Y-73811329D01*
X120559285Y-74505819D01*
X120559013Y-75205121D01*
X120557706Y-75773740D01*
X120554630Y-76226137D01*
X120549049Y-76576773D01*
X120540228Y-76840107D01*
X120527433Y-77030600D01*
X120509928Y-77162712D01*
X120486978Y-77250904D01*
X120457848Y-77309635D01*
X120421803Y-77353367D01*
X120414143Y-77361143D01*
X120211648Y-77474062D01*
X119948980Y-77505558D01*
X119728633Y-77461462D01*
X119644308Y-77417535D01*
X119577225Y-77346938D01*
X119524987Y-77233533D01*
X119485201Y-77061180D01*
X119455470Y-76813737D01*
X119433399Y-76475067D01*
X119416594Y-76029028D01*
X119402658Y-75459481D01*
X119398143Y-75234539D01*
X119361857Y-73361934D01*
X118890142Y-75229925D01*
X118729912Y-75857569D01*
X118595971Y-76358226D01*
X118481252Y-76746168D01*
X118378687Y-77035666D01*
X118281210Y-77240993D01*
X118181753Y-77376418D01*
X118073249Y-77456215D01*
X117948630Y-77494653D01*
X117800830Y-77506006D01*
X117762881Y-77506286D01*
X117589970Y-77501136D01*
X117446836Y-77476116D01*
X117325844Y-77416871D01*
X117219355Y-77309047D01*
X117119733Y-77138290D01*
X117019340Y-76890245D01*
X116910540Y-76550558D01*
X116785696Y-76104874D01*
X116637170Y-75538838D01*
X116563253Y-75251484D01*
X116071189Y-73333429D01*
X116065118Y-75075143D01*
X116059806Y-75722769D01*
X116047627Y-76240318D01*
X116026714Y-76642768D01*
X115995199Y-76945099D01*
X115951215Y-77162289D01*
X115892895Y-77309319D01*
X115818370Y-77401167D01*
X115771167Y-77432860D01*
X115528561Y-77500875D01*
X115270617Y-77481320D01*
X115063981Y-77380332D01*
X115049088Y-77366374D01*
X114989159Y-77293660D01*
X114940485Y-77197814D01*
X114902119Y-77064666D01*
X114873118Y-76880050D01*
X114852538Y-76629797D01*
X114839433Y-76299738D01*
X114832860Y-75875706D01*
X114831873Y-75343532D01*
X114835529Y-74689048D01*
X114839629Y-74224343D01*
X114846062Y-73575097D01*
X114852325Y-73055310D01*
X114859579Y-72649308D01*
X114868985Y-72341414D01*
X114881703Y-72115951D01*
X114898895Y-71957244D01*
X114921720Y-71849616D01*
X114951340Y-71777391D01*
X114988916Y-71724892D01*
X115027702Y-71684343D01*
X115133973Y-71599120D01*
X115269858Y-71545376D01*
X115473420Y-71513678D01*
X115782722Y-71494597D01*
X115795719Y-71494051D01*
X116052530Y-71484840D01*
X116258546Y-71490721D01*
G36*
X124465513Y-73104879D02*
G01*
X124862654Y-73269882D01*
X125057437Y-73413480D01*
X125214438Y-73579571D01*
X125330155Y-73769481D01*
X125410287Y-74007284D01*
X125460530Y-74317054D01*
X125486582Y-74722864D01*
X125494141Y-75248787D01*
X125494143Y-75258653D01*
X125505426Y-75819426D01*
X125540818Y-76263206D01*
X125602625Y-76616497D01*
X125617618Y-76675851D01*
X125741093Y-77139239D01*
X125568682Y-77322762D01*
X125339298Y-77485322D01*
X125096418Y-77505209D01*
X124847916Y-77383311D01*
X124682167Y-77222729D01*
X124534889Y-77059489D01*
X124439696Y-76992980D01*
X124358571Y-77006142D01*
X124295512Y-77049236D01*
X124147968Y-77143197D01*
X123928733Y-77262624D01*
X123788714Y-77332084D01*
X123458353Y-77441060D01*
X123066808Y-77498512D01*
X122669729Y-77501954D01*
X122322771Y-77448899D01*
X122192142Y-77403426D01*
X121855500Y-77183050D01*
X121610979Y-76880420D01*
X121469424Y-76525660D01*
X121447353Y-76225949D01*
X122590485Y-76225949D01*
X122692724Y-76443486D01*
X122769415Y-76529870D01*
X122996279Y-76663652D01*
X123292978Y-76712886D01*
X123610245Y-76675972D01*
X123875905Y-76565795D01*
X124067808Y-76407286D01*
X124215288Y-76216808D01*
X124220619Y-76206813D01*
X124283340Y-76029516D01*
X124321311Y-75815012D01*
X124331965Y-75608686D01*
X124312734Y-75455927D01*
X124266158Y-75401714D01*
X124169651Y-75417227D01*
X123967824Y-75458736D01*
X123696572Y-75518703D01*
X123558587Y-75550358D01*
X123115916Y-75682733D01*
X122805037Y-75841903D01*
X122628908Y-76024198D01*
X122590485Y-76225949D01*
X121447353Y-76225949D01*
X121441678Y-76148891D01*
X121538585Y-75780234D01*
X121579152Y-75700634D01*
X121708514Y-75507318D01*
X121869416Y-75351349D01*
X122084997Y-75221201D01*
X122378395Y-75105348D01*
X122772748Y-74992263D01*
X123208974Y-74888728D01*
X123575621Y-74805097D01*
X123891179Y-74730502D01*
X124128748Y-74671502D01*
X124261430Y-74634654D01*
X124278571Y-74627938D01*
X124331834Y-74520295D01*
X124314743Y-74343255D01*
X124236256Y-74148977D01*
X124182590Y-74068930D01*
X124078693Y-73959634D01*
X123955660Y-73901989D01*
X123765171Y-73880179D01*
X123598414Y-73877714D01*
X123213261Y-73908886D01*
X122923583Y-74014884D01*
X122690991Y-74214434D01*
X122566756Y-74380966D01*
X122426173Y-74566795D01*
X122297475Y-74654085D01*
X122131543Y-74675999D01*
X122129789Y-74676000D01*
X121880591Y-74619681D01*
X121716794Y-74468830D01*
X121644692Y-74250603D01*
X121670577Y-73992157D01*
X121800743Y-73720649D01*
X121883714Y-73614135D01*
X122190459Y-73344680D01*
X122571889Y-73160886D01*
X123050188Y-73053827D01*
X123347341Y-73025345D01*
X123962957Y-73023945D01*
X124465513Y-73104879D01*
X124465513Y-73104879D01*
G37*
X124465513Y-73104879D02*
X124862654Y-73269882D01*
X125057437Y-73413480D01*
X125214438Y-73579571D01*
X125330155Y-73769481D01*
X125410287Y-74007284D01*
X125460530Y-74317054D01*
X125486582Y-74722864D01*
X125494141Y-75248787D01*
X125494143Y-75258653D01*
X125505426Y-75819426D01*
X125540818Y-76263206D01*
X125602625Y-76616497D01*
X125617618Y-76675851D01*
X125741093Y-77139239D01*
X125568682Y-77322762D01*
X125339298Y-77485322D01*
X125096418Y-77505209D01*
X124847916Y-77383311D01*
X124682167Y-77222729D01*
X124534889Y-77059489D01*
X124439696Y-76992980D01*
X124358571Y-77006142D01*
X124295512Y-77049236D01*
X124147968Y-77143197D01*
X123928733Y-77262624D01*
X123788714Y-77332084D01*
X123458353Y-77441060D01*
X123066808Y-77498512D01*
X122669729Y-77501954D01*
X122322771Y-77448899D01*
X122192142Y-77403426D01*
X121855500Y-77183050D01*
X121610979Y-76880420D01*
X121469424Y-76525660D01*
X121447353Y-76225949D01*
X122590485Y-76225949D01*
X122692724Y-76443486D01*
X122769415Y-76529870D01*
X122996279Y-76663652D01*
X123292978Y-76712886D01*
X123610245Y-76675972D01*
X123875905Y-76565795D01*
X124067808Y-76407286D01*
X124215288Y-76216808D01*
X124220619Y-76206813D01*
X124283340Y-76029516D01*
X124321311Y-75815012D01*
X124331965Y-75608686D01*
X124312734Y-75455927D01*
X124266158Y-75401714D01*
X124169651Y-75417227D01*
X123967824Y-75458736D01*
X123696572Y-75518703D01*
X123558587Y-75550358D01*
X123115916Y-75682733D01*
X122805037Y-75841903D01*
X122628908Y-76024198D01*
X122590485Y-76225949D01*
X121447353Y-76225949D01*
X121441678Y-76148891D01*
X121538585Y-75780234D01*
X121579152Y-75700634D01*
X121708514Y-75507318D01*
X121869416Y-75351349D01*
X122084997Y-75221201D01*
X122378395Y-75105348D01*
X122772748Y-74992263D01*
X123208974Y-74888728D01*
X123575621Y-74805097D01*
X123891179Y-74730502D01*
X124128748Y-74671502D01*
X124261430Y-74634654D01*
X124278571Y-74627938D01*
X124331834Y-74520295D01*
X124314743Y-74343255D01*
X124236256Y-74148977D01*
X124182590Y-74068930D01*
X124078693Y-73959634D01*
X123955660Y-73901989D01*
X123765171Y-73880179D01*
X123598414Y-73877714D01*
X123213261Y-73908886D01*
X122923583Y-74014884D01*
X122690991Y-74214434D01*
X122566756Y-74380966D01*
X122426173Y-74566795D01*
X122297475Y-74654085D01*
X122131543Y-74675999D01*
X122129789Y-74676000D01*
X121880591Y-74619681D01*
X121716794Y-74468830D01*
X121644692Y-74250603D01*
X121670577Y-73992157D01*
X121800743Y-73720649D01*
X121883714Y-73614135D01*
X122190459Y-73344680D01*
X122571889Y-73160886D01*
X123050188Y-73053827D01*
X123347341Y-73025345D01*
X123962957Y-73023945D01*
X124465513Y-73104879D01*
G36*
X127503286Y-71484728D02*
G01*
X127598714Y-71555429D01*
X127647567Y-71612776D01*
X127684062Y-71687079D01*
X127709990Y-71798610D01*
X127727138Y-71967645D01*
X127737295Y-72214457D01*
X127742251Y-72559319D01*
X127743792Y-73022505D01*
X127743857Y-73200545D01*
X127743857Y-74700518D01*
X128560285Y-73852268D01*
X128909762Y-73496492D01*
X129181720Y-73242380D01*
X129393445Y-73081696D01*
X129562225Y-73006202D01*
X129705345Y-73007661D01*
X129840091Y-73077835D01*
X129960584Y-73184987D01*
X130084127Y-73337403D01*
X130126076Y-73486155D01*
X130079052Y-73654134D01*
X129935675Y-73864232D01*
X129688564Y-74139341D01*
X129634971Y-74194982D01*
X129131228Y-74714494D01*
X129778635Y-75729390D01*
X130050513Y-76165290D01*
X130243683Y-76503499D01*
X130364717Y-76763775D01*
X130420187Y-76965875D01*
X130416664Y-77129555D01*
X130360719Y-77274572D01*
X130316027Y-77344995D01*
X130175137Y-77466379D01*
X129956232Y-77506016D01*
X129929535Y-77506286D01*
X129780049Y-77494917D01*
X129650515Y-77448859D01*
X129523508Y-77350183D01*
X129381603Y-77180962D01*
X129207375Y-76923268D01*
X128983401Y-76559174D01*
X128942047Y-76490286D01*
X128762409Y-76191414D01*
X128600128Y-75923185D01*
X128475892Y-75719695D01*
X128419817Y-75629586D01*
X128310618Y-75458315D01*
X128027237Y-75735029D01*
X127743857Y-76011742D01*
X127743857Y-76601221D01*
X127739248Y-76903524D01*
X127719673Y-77099179D01*
X127676512Y-77226544D01*
X127601143Y-77323975D01*
X127575894Y-77348493D01*
X127348743Y-77482783D01*
X127099020Y-77510502D01*
X126873038Y-77433799D01*
X126747673Y-77310078D01*
X126711604Y-77242994D01*
X126682504Y-77152724D01*
X126659414Y-77023345D01*
X126641376Y-76838935D01*
X126627431Y-76583570D01*
X126616621Y-76241329D01*
X126607988Y-75796287D01*
X126600573Y-75232524D01*
X126595886Y-74788221D01*
X126589712Y-74033344D01*
X126588182Y-73409878D01*
X126592188Y-72904141D01*
X126602618Y-72502450D01*
X126620361Y-72191122D01*
X126646307Y-71956473D01*
X126681345Y-71784822D01*
X126726364Y-71662486D01*
X126782254Y-71575781D01*
X126806396Y-71549461D01*
X127011297Y-71436086D01*
X127264720Y-71414667D01*
X127503286Y-71484728D01*
X127503286Y-71484728D01*
G37*
X127503286Y-71484728D02*
X127598714Y-71555429D01*
X127647567Y-71612776D01*
X127684062Y-71687079D01*
X127709990Y-71798610D01*
X127727138Y-71967645D01*
X127737295Y-72214457D01*
X127742251Y-72559319D01*
X127743792Y-73022505D01*
X127743857Y-73200545D01*
X127743857Y-74700518D01*
X128560285Y-73852268D01*
X128909762Y-73496492D01*
X129181720Y-73242380D01*
X129393445Y-73081696D01*
X129562225Y-73006202D01*
X129705345Y-73007661D01*
X129840091Y-73077835D01*
X129960584Y-73184987D01*
X130084127Y-73337403D01*
X130126076Y-73486155D01*
X130079052Y-73654134D01*
X129935675Y-73864232D01*
X129688564Y-74139341D01*
X129634971Y-74194982D01*
X129131228Y-74714494D01*
X129778635Y-75729390D01*
X130050513Y-76165290D01*
X130243683Y-76503499D01*
X130364717Y-76763775D01*
X130420187Y-76965875D01*
X130416664Y-77129555D01*
X130360719Y-77274572D01*
X130316027Y-77344995D01*
X130175137Y-77466379D01*
X129956232Y-77506016D01*
X129929535Y-77506286D01*
X129780049Y-77494917D01*
X129650515Y-77448859D01*
X129523508Y-77350183D01*
X129381603Y-77180962D01*
X129207375Y-76923268D01*
X128983401Y-76559174D01*
X128942047Y-76490286D01*
X128762409Y-76191414D01*
X128600128Y-75923185D01*
X128475892Y-75719695D01*
X128419817Y-75629586D01*
X128310618Y-75458315D01*
X128027237Y-75735029D01*
X127743857Y-76011742D01*
X127743857Y-76601221D01*
X127739248Y-76903524D01*
X127719673Y-77099179D01*
X127676512Y-77226544D01*
X127601143Y-77323975D01*
X127575894Y-77348493D01*
X127348743Y-77482783D01*
X127099020Y-77510502D01*
X126873038Y-77433799D01*
X126747673Y-77310078D01*
X126711604Y-77242994D01*
X126682504Y-77152724D01*
X126659414Y-77023345D01*
X126641376Y-76838935D01*
X126627431Y-76583570D01*
X126616621Y-76241329D01*
X126607988Y-75796287D01*
X126600573Y-75232524D01*
X126595886Y-74788221D01*
X126589712Y-74033344D01*
X126588182Y-73409878D01*
X126592188Y-72904141D01*
X126602618Y-72502450D01*
X126620361Y-72191122D01*
X126646307Y-71956473D01*
X126681345Y-71784822D01*
X126726364Y-71662486D01*
X126782254Y-71575781D01*
X126806396Y-71549461D01*
X127011297Y-71436086D01*
X127264720Y-71414667D01*
X127503286Y-71484728D01*
G36*
X133255200Y-73039599D02*
G01*
X133768325Y-73176077D01*
X134214255Y-73439487D01*
X134328107Y-73536650D01*
X134654569Y-73904362D01*
X134849080Y-74297813D01*
X134924804Y-74745531D01*
X134926834Y-74834019D01*
X134918810Y-75082144D01*
X134880975Y-75236177D01*
X134796310Y-75346600D01*
X134737213Y-75396447D01*
X134659732Y-75450001D01*
X134568618Y-75489124D01*
X134441245Y-75516061D01*
X134254991Y-75533056D01*
X133987230Y-75542355D01*
X133615338Y-75546199D01*
X133220927Y-75546857D01*
X131895857Y-75546857D01*
X131962143Y-75841878D01*
X132104098Y-76235078D01*
X132327825Y-76508854D01*
X132635903Y-76665417D01*
X132972571Y-76708000D01*
X133377949Y-76642722D01*
X133751550Y-76442810D01*
X133987716Y-76233484D01*
X134206204Y-76051956D01*
X134412518Y-75984115D01*
X134456436Y-75982286D01*
X134687148Y-76022369D01*
X134814832Y-76154214D01*
X134855791Y-76395216D01*
X134855857Y-76408383D01*
X134832575Y-76581451D01*
X134745533Y-76741919D01*
X134568941Y-76934965D01*
X134538357Y-76964527D01*
X134284124Y-77167464D01*
X134001404Y-77333470D01*
X133872286Y-77387516D01*
X133494250Y-77471486D01*
X133045909Y-77503642D01*
X132585964Y-77484847D01*
X132173113Y-77415968D01*
X131994503Y-77359856D01*
X131565441Y-77118027D01*
X131200122Y-76764049D01*
X130928264Y-76326871D01*
X130923611Y-76316651D01*
X130814228Y-75961405D01*
X130756308Y-75527712D01*
X130750197Y-75067462D01*
X130784339Y-74744968D01*
X131953000Y-74744968D01*
X131960283Y-74805625D01*
X131997566Y-74847077D01*
X132087996Y-74872967D01*
X132254721Y-74886941D01*
X132520890Y-74892641D01*
X132897811Y-74893714D01*
X133842622Y-74893714D01*
X133794769Y-74694143D01*
X133658261Y-74311225D01*
X133457224Y-74053785D01*
X133181644Y-73912787D01*
X132890068Y-73877714D01*
X132560907Y-73939936D01*
X132275886Y-74107867D01*
X132065367Y-74353406D01*
X131959713Y-74648453D01*
X131953000Y-74744968D01*
X130784339Y-74744968D01*
X130796242Y-74632546D01*
X130894793Y-74274854D01*
X130909711Y-74240572D01*
X131195859Y-73765390D01*
X131566475Y-73407753D01*
X132023676Y-73166205D01*
X132569576Y-73039292D01*
X132671454Y-73029004D01*
X133255200Y-73039599D01*
X133255200Y-73039599D01*
G37*
X133255200Y-73039599D02*
X133768325Y-73176077D01*
X134214255Y-73439487D01*
X134328107Y-73536650D01*
X134654569Y-73904362D01*
X134849080Y-74297813D01*
X134924804Y-74745531D01*
X134926834Y-74834019D01*
X134918810Y-75082144D01*
X134880975Y-75236177D01*
X134796310Y-75346600D01*
X134737213Y-75396447D01*
X134659732Y-75450001D01*
X134568618Y-75489124D01*
X134441245Y-75516061D01*
X134254991Y-75533056D01*
X133987230Y-75542355D01*
X133615338Y-75546199D01*
X133220927Y-75546857D01*
X131895857Y-75546857D01*
X131962143Y-75841878D01*
X132104098Y-76235078D01*
X132327825Y-76508854D01*
X132635903Y-76665417D01*
X132972571Y-76708000D01*
X133377949Y-76642722D01*
X133751550Y-76442810D01*
X133987716Y-76233484D01*
X134206204Y-76051956D01*
X134412518Y-75984115D01*
X134456436Y-75982286D01*
X134687148Y-76022369D01*
X134814832Y-76154214D01*
X134855791Y-76395216D01*
X134855857Y-76408383D01*
X134832575Y-76581451D01*
X134745533Y-76741919D01*
X134568941Y-76934965D01*
X134538357Y-76964527D01*
X134284124Y-77167464D01*
X134001404Y-77333470D01*
X133872286Y-77387516D01*
X133494250Y-77471486D01*
X133045909Y-77503642D01*
X132585964Y-77484847D01*
X132173113Y-77415968D01*
X131994503Y-77359856D01*
X131565441Y-77118027D01*
X131200122Y-76764049D01*
X130928264Y-76326871D01*
X130923611Y-76316651D01*
X130814228Y-75961405D01*
X130756308Y-75527712D01*
X130750197Y-75067462D01*
X130784339Y-74744968D01*
X131953000Y-74744968D01*
X131960283Y-74805625D01*
X131997566Y-74847077D01*
X132087996Y-74872967D01*
X132254721Y-74886941D01*
X132520890Y-74892641D01*
X132897811Y-74893714D01*
X133842622Y-74893714D01*
X133794769Y-74694143D01*
X133658261Y-74311225D01*
X133457224Y-74053785D01*
X133181644Y-73912787D01*
X132890068Y-73877714D01*
X132560907Y-73939936D01*
X132275886Y-74107867D01*
X132065367Y-74353406D01*
X131959713Y-74648453D01*
X131953000Y-74744968D01*
X130784339Y-74744968D01*
X130796242Y-74632546D01*
X130894793Y-74274854D01*
X130909711Y-74240572D01*
X131195859Y-73765390D01*
X131566475Y-73407753D01*
X132023676Y-73166205D01*
X132569576Y-73039292D01*
X132671454Y-73029004D01*
X133255200Y-73039599D01*
G36*
X140909671Y-71592670D02*
G01*
X141081847Y-71714633D01*
X141187549Y-71936673D01*
X141236227Y-72274146D01*
X141242142Y-72498780D01*
X141242142Y-73059700D01*
X141579535Y-73105945D01*
X141866817Y-73166648D01*
X142034157Y-73263604D01*
X142105652Y-73415176D01*
X142113000Y-73512496D01*
X142051664Y-73740654D01*
X141874684Y-73888968D01*
X141592597Y-73949318D01*
X141544857Y-73950286D01*
X141242142Y-73950286D01*
X141242142Y-75178816D01*
X141243952Y-75677321D01*
X141254439Y-76048296D01*
X141281192Y-76309347D01*
X141331799Y-76478084D01*
X141413848Y-76572114D01*
X141534928Y-76609046D01*
X141702627Y-76606488D01*
X141850626Y-76590769D01*
X142099483Y-76573647D01*
X142254553Y-76600270D01*
X142353420Y-76668502D01*
X142463292Y-76865975D01*
X142438804Y-77085071D01*
X142288677Y-77294064D01*
X142178519Y-77381788D01*
X142050487Y-77436755D01*
X141866246Y-77468110D01*
X141587461Y-77484999D01*
X141472248Y-77488835D01*
X141035103Y-77484991D01*
X140727111Y-77442471D01*
X140611839Y-77403599D01*
X140458232Y-77321370D01*
X140339517Y-77217590D01*
X140250862Y-77073416D01*
X140187432Y-76870004D01*
X140144395Y-76588510D01*
X140116916Y-76210090D01*
X140100161Y-75715899D01*
X140093695Y-75383571D01*
X140070105Y-73950286D01*
X139859511Y-73950286D01*
X139649486Y-73892798D01*
X139524561Y-73760495D01*
X139444709Y-73609090D01*
X139454822Y-73484901D01*
X139504972Y-73384049D01*
X139660478Y-73223423D01*
X139845369Y-73136337D01*
X140081000Y-73075279D01*
X140081000Y-72506569D01*
X140103355Y-72101886D01*
X140176767Y-71820679D01*
X140310755Y-71647354D01*
X140514839Y-71566314D01*
X140661571Y-71555429D01*
X140909671Y-71592670D01*
X140909671Y-71592670D01*
G37*
X140909671Y-71592670D02*
X141081847Y-71714633D01*
X141187549Y-71936673D01*
X141236227Y-72274146D01*
X141242142Y-72498780D01*
X141242142Y-73059700D01*
X141579535Y-73105945D01*
X141866817Y-73166648D01*
X142034157Y-73263604D01*
X142105652Y-73415176D01*
X142113000Y-73512496D01*
X142051664Y-73740654D01*
X141874684Y-73888968D01*
X141592597Y-73949318D01*
X141544857Y-73950286D01*
X141242142Y-73950286D01*
X141242142Y-75178816D01*
X141243952Y-75677321D01*
X141254439Y-76048296D01*
X141281192Y-76309347D01*
X141331799Y-76478084D01*
X141413848Y-76572114D01*
X141534928Y-76609046D01*
X141702627Y-76606488D01*
X141850626Y-76590769D01*
X142099483Y-76573647D01*
X142254553Y-76600270D01*
X142353420Y-76668502D01*
X142463292Y-76865975D01*
X142438804Y-77085071D01*
X142288677Y-77294064D01*
X142178519Y-77381788D01*
X142050487Y-77436755D01*
X141866246Y-77468110D01*
X141587461Y-77484999D01*
X141472248Y-77488835D01*
X141035103Y-77484991D01*
X140727111Y-77442471D01*
X140611839Y-77403599D01*
X140458232Y-77321370D01*
X140339517Y-77217590D01*
X140250862Y-77073416D01*
X140187432Y-76870004D01*
X140144395Y-76588510D01*
X140116916Y-76210090D01*
X140100161Y-75715899D01*
X140093695Y-75383571D01*
X140070105Y-73950286D01*
X139859511Y-73950286D01*
X139649486Y-73892798D01*
X139524561Y-73760495D01*
X139444709Y-73609090D01*
X139454822Y-73484901D01*
X139504972Y-73384049D01*
X139660478Y-73223423D01*
X139845369Y-73136337D01*
X140081000Y-73075279D01*
X140081000Y-72506569D01*
X140103355Y-72101886D01*
X140176767Y-71820679D01*
X140310755Y-71647354D01*
X140514839Y-71566314D01*
X140661571Y-71555429D01*
X140909671Y-71592670D01*
G36*
X152180052Y-73032337D02*
G01*
X152627556Y-73120272D01*
X153011516Y-73275961D01*
X153301095Y-73500033D01*
X153319088Y-73520726D01*
X153449326Y-73727571D01*
X153544527Y-74006525D01*
X153607965Y-74375913D01*
X153642916Y-74854055D01*
X153652718Y-75387144D01*
X153661686Y-75821231D01*
X153685760Y-76215248D01*
X153721930Y-76529725D01*
X153750855Y-76674121D01*
X153805944Y-77011520D01*
X153761869Y-77253459D01*
X153615807Y-77413038D01*
X153588150Y-77428970D01*
X153341508Y-77505841D01*
X153109694Y-77453192D01*
X152871668Y-77265289D01*
X152832255Y-77223014D01*
X152576336Y-76939741D01*
X152313965Y-77118027D01*
X152063333Y-77263513D01*
X151791032Y-77387644D01*
X151754030Y-77401299D01*
X151455285Y-77469938D01*
X151099067Y-77498807D01*
X150742944Y-77487821D01*
X150444484Y-77436890D01*
X150349857Y-77403426D01*
X150027319Y-77191362D01*
X149784067Y-76896338D01*
X149633234Y-76550978D01*
X149587954Y-76187908D01*
X149605242Y-76105912D01*
X150758344Y-76105912D01*
X150777217Y-76357935D01*
X150894143Y-76562857D01*
X151088788Y-76668947D01*
X151363585Y-76711751D01*
X151668107Y-76691351D01*
X151951926Y-76607829D01*
X152041510Y-76560997D01*
X152282941Y-76332515D01*
X152437692Y-76008980D01*
X152490714Y-75631840D01*
X152490714Y-75349305D01*
X151717201Y-75546540D01*
X151312817Y-75660552D01*
X151024340Y-75765774D01*
X150864246Y-75857474D01*
X150846343Y-75876901D01*
X150758344Y-76105912D01*
X149605242Y-76105912D01*
X149661361Y-75839754D01*
X149693007Y-75771740D01*
X149922436Y-75455446D01*
X150249607Y-75218204D01*
X150690097Y-75049873D01*
X150868269Y-75006574D01*
X151231887Y-74926443D01*
X151625593Y-74836963D01*
X151946428Y-74761712D01*
X152208771Y-74696181D01*
X152359645Y-74642661D01*
X152428761Y-74579465D01*
X152445827Y-74484907D01*
X152443208Y-74399078D01*
X152400856Y-74156940D01*
X152286666Y-73998964D01*
X152079523Y-73910957D01*
X151758307Y-73878729D01*
X151667385Y-73877714D01*
X151156837Y-73877714D01*
X150788320Y-74276857D01*
X150516682Y-74534408D01*
X150290925Y-74662672D01*
X150098902Y-74665401D01*
X149928463Y-74546347D01*
X149925676Y-74543286D01*
X149810843Y-74316100D01*
X149816939Y-74044268D01*
X149939670Y-73756528D01*
X150068608Y-73586982D01*
X150371300Y-73345572D01*
X150764626Y-73168774D01*
X151217751Y-73057217D01*
X151699838Y-73011528D01*
X152180052Y-73032337D01*
X152180052Y-73032337D01*
G37*
X152180052Y-73032337D02*
X152627556Y-73120272D01*
X153011516Y-73275961D01*
X153301095Y-73500033D01*
X153319088Y-73520726D01*
X153449326Y-73727571D01*
X153544527Y-74006525D01*
X153607965Y-74375913D01*
X153642916Y-74854055D01*
X153652718Y-75387144D01*
X153661686Y-75821231D01*
X153685760Y-76215248D01*
X153721930Y-76529725D01*
X153750855Y-76674121D01*
X153805944Y-77011520D01*
X153761869Y-77253459D01*
X153615807Y-77413038D01*
X153588150Y-77428970D01*
X153341508Y-77505841D01*
X153109694Y-77453192D01*
X152871668Y-77265289D01*
X152832255Y-77223014D01*
X152576336Y-76939741D01*
X152313965Y-77118027D01*
X152063333Y-77263513D01*
X151791032Y-77387644D01*
X151754030Y-77401299D01*
X151455285Y-77469938D01*
X151099067Y-77498807D01*
X150742944Y-77487821D01*
X150444484Y-77436890D01*
X150349857Y-77403426D01*
X150027319Y-77191362D01*
X149784067Y-76896338D01*
X149633234Y-76550978D01*
X149587954Y-76187908D01*
X149605242Y-76105912D01*
X150758344Y-76105912D01*
X150777217Y-76357935D01*
X150894143Y-76562857D01*
X151088788Y-76668947D01*
X151363585Y-76711751D01*
X151668107Y-76691351D01*
X151951926Y-76607829D01*
X152041510Y-76560997D01*
X152282941Y-76332515D01*
X152437692Y-76008980D01*
X152490714Y-75631840D01*
X152490714Y-75349305D01*
X151717201Y-75546540D01*
X151312817Y-75660552D01*
X151024340Y-75765774D01*
X150864246Y-75857474D01*
X150846343Y-75876901D01*
X150758344Y-76105912D01*
X149605242Y-76105912D01*
X149661361Y-75839754D01*
X149693007Y-75771740D01*
X149922436Y-75455446D01*
X150249607Y-75218204D01*
X150690097Y-75049873D01*
X150868269Y-75006574D01*
X151231887Y-74926443D01*
X151625593Y-74836963D01*
X151946428Y-74761712D01*
X152208771Y-74696181D01*
X152359645Y-74642661D01*
X152428761Y-74579465D01*
X152445827Y-74484907D01*
X152443208Y-74399078D01*
X152400856Y-74156940D01*
X152286666Y-73998964D01*
X152079523Y-73910957D01*
X151758307Y-73878729D01*
X151667385Y-73877714D01*
X151156837Y-73877714D01*
X150788320Y-74276857D01*
X150516682Y-74534408D01*
X150290925Y-74662672D01*
X150098902Y-74665401D01*
X149928463Y-74546347D01*
X149925676Y-74543286D01*
X149810843Y-74316100D01*
X149816939Y-74044268D01*
X149939670Y-73756528D01*
X150068608Y-73586982D01*
X150371300Y-73345572D01*
X150764626Y-73168774D01*
X151217751Y-73057217D01*
X151699838Y-73011528D01*
X152180052Y-73032337D01*
G36*
X155376611Y-71469185D02*
G01*
X155521109Y-71629588D01*
X155616570Y-71901336D01*
X155668851Y-72294709D01*
X155683857Y-72787267D01*
X155683857Y-73588339D01*
X155975483Y-73377086D01*
X156413579Y-73140469D01*
X156871800Y-73035500D01*
X157328881Y-73054714D01*
X157763561Y-73190642D01*
X158154574Y-73435818D01*
X158480657Y-73782774D01*
X158720546Y-74224043D01*
X158767529Y-74357589D01*
X158850890Y-74775309D01*
X158872236Y-75257570D01*
X158834333Y-75747637D01*
X158739950Y-76188776D01*
X158668829Y-76381429D01*
X158394748Y-76846772D01*
X158044797Y-77191037D01*
X157624123Y-77410670D01*
X157137875Y-77502114D01*
X157042240Y-77504692D01*
X156539831Y-77446771D01*
X156116584Y-77270127D01*
X155884146Y-77090404D01*
X155685293Y-76899935D01*
X155604370Y-77132071D01*
X155510160Y-77314128D01*
X155394378Y-77433212D01*
X155390709Y-77435246D01*
X155142866Y-77503558D01*
X154890086Y-77472861D01*
X154697247Y-77353623D01*
X154660754Y-77305874D01*
X154631067Y-77241501D01*
X154607326Y-77145695D01*
X154588671Y-77003646D01*
X154574243Y-76800545D01*
X154563182Y-76521583D01*
X154554628Y-76151950D01*
X154547721Y-75676837D01*
X154543891Y-75304165D01*
X155712693Y-75304165D01*
X155763855Y-75710989D01*
X155896386Y-76060675D01*
X156096276Y-76338322D01*
X156349515Y-76529027D01*
X156642093Y-76617889D01*
X156960000Y-76590005D01*
X157257900Y-76451660D01*
X157463259Y-76237861D01*
X157611669Y-75924845D01*
X157697750Y-75549069D01*
X157716118Y-75146989D01*
X157661392Y-74755063D01*
X157552571Y-74455520D01*
X157336015Y-74152494D01*
X157069829Y-73969949D01*
X156777092Y-73902751D01*
X156480886Y-73945762D01*
X156204288Y-74093848D01*
X155970379Y-74341872D01*
X155802238Y-74684698D01*
X155756910Y-74855106D01*
X155712693Y-75304165D01*
X154543891Y-75304165D01*
X154541601Y-75081434D01*
X154537462Y-74601703D01*
X154532271Y-73853022D01*
X154531334Y-73236184D01*
X154536245Y-72737917D01*
X154548599Y-72344945D01*
X154569991Y-72043994D01*
X154602015Y-71821790D01*
X154646264Y-71665058D01*
X154704335Y-71560525D01*
X154777820Y-71494916D01*
X154868316Y-71454957D01*
X154917075Y-71441287D01*
X155177219Y-71409845D01*
X155376611Y-71469185D01*
X155376611Y-71469185D01*
G37*
X155376611Y-71469185D02*
X155521109Y-71629588D01*
X155616570Y-71901336D01*
X155668851Y-72294709D01*
X155683857Y-72787267D01*
X155683857Y-73588339D01*
X155975483Y-73377086D01*
X156413579Y-73140469D01*
X156871800Y-73035500D01*
X157328881Y-73054714D01*
X157763561Y-73190642D01*
X158154574Y-73435818D01*
X158480657Y-73782774D01*
X158720546Y-74224043D01*
X158767529Y-74357589D01*
X158850890Y-74775309D01*
X158872236Y-75257570D01*
X158834333Y-75747637D01*
X158739950Y-76188776D01*
X158668829Y-76381429D01*
X158394748Y-76846772D01*
X158044797Y-77191037D01*
X157624123Y-77410670D01*
X157137875Y-77502114D01*
X157042240Y-77504692D01*
X156539831Y-77446771D01*
X156116584Y-77270127D01*
X155884146Y-77090404D01*
X155685293Y-76899935D01*
X155604370Y-77132071D01*
X155510160Y-77314128D01*
X155394378Y-77433212D01*
X155390709Y-77435246D01*
X155142866Y-77503558D01*
X154890086Y-77472861D01*
X154697247Y-77353623D01*
X154660754Y-77305874D01*
X154631067Y-77241501D01*
X154607326Y-77145695D01*
X154588671Y-77003646D01*
X154574243Y-76800545D01*
X154563182Y-76521583D01*
X154554628Y-76151950D01*
X154547721Y-75676837D01*
X154543891Y-75304165D01*
X155712693Y-75304165D01*
X155763855Y-75710989D01*
X155896386Y-76060675D01*
X156096276Y-76338322D01*
X156349515Y-76529027D01*
X156642093Y-76617889D01*
X156960000Y-76590005D01*
X157257900Y-76451660D01*
X157463259Y-76237861D01*
X157611669Y-75924845D01*
X157697750Y-75549069D01*
X157716118Y-75146989D01*
X157661392Y-74755063D01*
X157552571Y-74455520D01*
X157336015Y-74152494D01*
X157069829Y-73969949D01*
X156777092Y-73902751D01*
X156480886Y-73945762D01*
X156204288Y-74093848D01*
X155970379Y-74341872D01*
X155802238Y-74684698D01*
X155756910Y-74855106D01*
X155712693Y-75304165D01*
X154543891Y-75304165D01*
X154541601Y-75081434D01*
X154537462Y-74601703D01*
X154532271Y-73853022D01*
X154531334Y-73236184D01*
X154536245Y-72737917D01*
X154548599Y-72344945D01*
X154569991Y-72043994D01*
X154602015Y-71821790D01*
X154646264Y-71665058D01*
X154704335Y-71560525D01*
X154777820Y-71494916D01*
X154868316Y-71454957D01*
X154917075Y-71441287D01*
X155177219Y-71409845D01*
X155376611Y-71469185D01*
G36*
X161646468Y-73045284D02*
G01*
X162096654Y-73142589D01*
X162494891Y-73308745D01*
X162810481Y-73537896D01*
X162967450Y-73735464D01*
X163069860Y-73967911D01*
X163054790Y-74155111D01*
X162917835Y-74342813D01*
X162908013Y-74352727D01*
X162741929Y-74482253D01*
X162577808Y-74515333D01*
X162389194Y-74446379D01*
X162149630Y-74269799D01*
X162033857Y-74168000D01*
X161814629Y-73977793D01*
X161652489Y-73868583D01*
X161502230Y-73818401D01*
X161318644Y-73805274D01*
X161287236Y-73805143D01*
X160964401Y-73844562D01*
X160738994Y-73956151D01*
X160627663Y-74129910D01*
X160618714Y-74206728D01*
X160649936Y-74344050D01*
X160756059Y-74459864D01*
X160955766Y-74564909D01*
X161267739Y-74669923D01*
X161562142Y-74748968D01*
X162044670Y-74882579D01*
X162411910Y-75014792D01*
X162692970Y-75158907D01*
X162916960Y-75328221D01*
X162994557Y-75403363D01*
X163200691Y-75707878D01*
X163283594Y-76047862D01*
X163252234Y-76398868D01*
X163115580Y-76736447D01*
X162882599Y-77036152D01*
X162562260Y-77273535D01*
X162262819Y-77398141D01*
X161941375Y-77461823D01*
X161548584Y-77493580D01*
X161136591Y-77493585D01*
X160757543Y-77462010D01*
X160463586Y-77399028D01*
X160443870Y-77392112D01*
X160085363Y-77214626D01*
X159792434Y-76980194D01*
X159584894Y-76713014D01*
X159482559Y-76437282D01*
X159489729Y-76226897D01*
X159601197Y-76034379D01*
X159793146Y-75898787D01*
X160009362Y-75855662D01*
X160063432Y-75864184D01*
X160205607Y-75948908D01*
X160364939Y-76112676D01*
X160426681Y-76196993D01*
X160658266Y-76484813D01*
X160910698Y-76653365D01*
X161226359Y-76726918D01*
X161365973Y-76734874D01*
X161725947Y-76704165D01*
X161980099Y-76595719D01*
X162118845Y-76415242D01*
X162142714Y-76272571D01*
X162115825Y-76120606D01*
X162022392Y-75993762D01*
X161843260Y-75879875D01*
X161559280Y-75766779D01*
X161151297Y-75642309D01*
X161149782Y-75641882D01*
X160684296Y-75498569D01*
X160331625Y-75358192D01*
X160060604Y-75205374D01*
X159840063Y-75024739D01*
X159784142Y-74968167D01*
X159655965Y-74813387D01*
X159590609Y-74659251D01*
X159568003Y-74446087D01*
X159566428Y-74320871D01*
X159623644Y-73918439D01*
X159799998Y-73591477D01*
X160102551Y-73329309D01*
X160291206Y-73225025D01*
X160713046Y-73080647D01*
X161175033Y-73022685D01*
X161646468Y-73045284D01*
X161646468Y-73045284D01*
G37*
X161646468Y-73045284D02*
X162096654Y-73142589D01*
X162494891Y-73308745D01*
X162810481Y-73537896D01*
X162967450Y-73735464D01*
X163069860Y-73967911D01*
X163054790Y-74155111D01*
X162917835Y-74342813D01*
X162908013Y-74352727D01*
X162741929Y-74482253D01*
X162577808Y-74515333D01*
X162389194Y-74446379D01*
X162149630Y-74269799D01*
X162033857Y-74168000D01*
X161814629Y-73977793D01*
X161652489Y-73868583D01*
X161502230Y-73818401D01*
X161318644Y-73805274D01*
X161287236Y-73805143D01*
X160964401Y-73844562D01*
X160738994Y-73956151D01*
X160627663Y-74129910D01*
X160618714Y-74206728D01*
X160649936Y-74344050D01*
X160756059Y-74459864D01*
X160955766Y-74564909D01*
X161267739Y-74669923D01*
X161562142Y-74748968D01*
X162044670Y-74882579D01*
X162411910Y-75014792D01*
X162692970Y-75158907D01*
X162916960Y-75328221D01*
X162994557Y-75403363D01*
X163200691Y-75707878D01*
X163283594Y-76047862D01*
X163252234Y-76398868D01*
X163115580Y-76736447D01*
X162882599Y-77036152D01*
X162562260Y-77273535D01*
X162262819Y-77398141D01*
X161941375Y-77461823D01*
X161548584Y-77493580D01*
X161136591Y-77493585D01*
X160757543Y-77462010D01*
X160463586Y-77399028D01*
X160443870Y-77392112D01*
X160085363Y-77214626D01*
X159792434Y-76980194D01*
X159584894Y-76713014D01*
X159482559Y-76437282D01*
X159489729Y-76226897D01*
X159601197Y-76034379D01*
X159793146Y-75898787D01*
X160009362Y-75855662D01*
X160063432Y-75864184D01*
X160205607Y-75948908D01*
X160364939Y-76112676D01*
X160426681Y-76196993D01*
X160658266Y-76484813D01*
X160910698Y-76653365D01*
X161226359Y-76726918D01*
X161365973Y-76734874D01*
X161725947Y-76704165D01*
X161980099Y-76595719D01*
X162118845Y-76415242D01*
X162142714Y-76272571D01*
X162115825Y-76120606D01*
X162022392Y-75993762D01*
X161843260Y-75879875D01*
X161559280Y-75766779D01*
X161151297Y-75642309D01*
X161149782Y-75641882D01*
X160684296Y-75498569D01*
X160331625Y-75358192D01*
X160060604Y-75205374D01*
X159840063Y-75024739D01*
X159784142Y-74968167D01*
X159655965Y-74813387D01*
X159590609Y-74659251D01*
X159568003Y-74446087D01*
X159566428Y-74320871D01*
X159623644Y-73918439D01*
X159799998Y-73591477D01*
X160102551Y-73329309D01*
X160291206Y-73225025D01*
X160713046Y-73080647D01*
X161175033Y-73022685D01*
X161646468Y-73045284D01*
G36*
X145879250Y-71521241D02*
G01*
X145964778Y-71597461D01*
X146140714Y-71784637D01*
X146161749Y-74101176D01*
X146182783Y-76417714D01*
X147522463Y-76417714D01*
X147997699Y-76418738D01*
X148349492Y-76423221D01*
X148599535Y-76433286D01*
X148769520Y-76451051D01*
X148881142Y-76478639D01*
X148956092Y-76518169D01*
X149007285Y-76562857D01*
X149134884Y-76780264D01*
X149136425Y-77019299D01*
X149014788Y-77234942D01*
X148961213Y-77283304D01*
X148892868Y-77331441D01*
X148813254Y-77367979D01*
X148702858Y-77394439D01*
X148542165Y-77412344D01*
X148311660Y-77423217D01*
X147991831Y-77428581D01*
X147563162Y-77429958D01*
X147092498Y-77429114D01*
X146605003Y-77425106D01*
X146159275Y-77416393D01*
X145778147Y-77403829D01*
X145484454Y-77388265D01*
X145301029Y-77370552D01*
X145256458Y-77360636D01*
X145094694Y-77247666D01*
X145020601Y-77152293D01*
X144997176Y-77032660D01*
X144977862Y-76770766D01*
X144962737Y-76369435D01*
X144951880Y-75831495D01*
X144945371Y-75159770D01*
X144943285Y-74387187D01*
X144943285Y-71766546D01*
X145121415Y-71588416D01*
X145362692Y-71436852D01*
X145628139Y-71414598D01*
X145879250Y-71521241D01*
X145879250Y-71521241D01*
G37*
X145879250Y-71521241D02*
X145964778Y-71597461D01*
X146140714Y-71784637D01*
X146161749Y-74101176D01*
X146182783Y-76417714D01*
X147522463Y-76417714D01*
X147997699Y-76418738D01*
X148349492Y-76423221D01*
X148599535Y-76433286D01*
X148769520Y-76451051D01*
X148881142Y-76478639D01*
X148956092Y-76518169D01*
X149007285Y-76562857D01*
X149134884Y-76780264D01*
X149136425Y-77019299D01*
X149014788Y-77234942D01*
X148961213Y-77283304D01*
X148892868Y-77331441D01*
X148813254Y-77367979D01*
X148702858Y-77394439D01*
X148542165Y-77412344D01*
X148311660Y-77423217D01*
X147991831Y-77428581D01*
X147563162Y-77429958D01*
X147092498Y-77429114D01*
X146605003Y-77425106D01*
X146159275Y-77416393D01*
X145778147Y-77403829D01*
X145484454Y-77388265D01*
X145301029Y-77370552D01*
X145256458Y-77360636D01*
X145094694Y-77247666D01*
X145020601Y-77152293D01*
X144997176Y-77032660D01*
X144977862Y-76770766D01*
X144962737Y-76369435D01*
X144951880Y-75831495D01*
X144945371Y-75159770D01*
X144943285Y-74387187D01*
X144943285Y-71766546D01*
X145121415Y-71588416D01*
X145362692Y-71436852D01*
X145628139Y-71414598D01*
X145879250Y-71521241D01*
G36*
X137909215Y-76547796D02*
G01*
X137987633Y-76579663D01*
X138011605Y-76640993D01*
X138012714Y-76671714D01*
X137988360Y-76760508D01*
X137893636Y-76819068D01*
X137696052Y-76864127D01*
X137613571Y-76877255D01*
X137317081Y-76925215D01*
X136968450Y-76985962D01*
X136729913Y-77029983D01*
X136469839Y-77068615D01*
X136260363Y-77079900D01*
X136149342Y-77062365D01*
X136089189Y-76967978D01*
X136150294Y-76856148D01*
X136313378Y-76745701D01*
X136559162Y-76655465D01*
X136568488Y-76653042D01*
X136828159Y-76603779D01*
X137158748Y-76564325D01*
X137468428Y-76544185D01*
X137746198Y-76538325D01*
X137909215Y-76547796D01*
X137909215Y-76547796D01*
G37*
X137909215Y-76547796D02*
X137987633Y-76579663D01*
X138011605Y-76640993D01*
X138012714Y-76671714D01*
X137988360Y-76760508D01*
X137893636Y-76819068D01*
X137696052Y-76864127D01*
X137613571Y-76877255D01*
X137317081Y-76925215D01*
X136968450Y-76985962D01*
X136729913Y-77029983D01*
X136469839Y-77068615D01*
X136260363Y-77079900D01*
X136149342Y-77062365D01*
X136089189Y-76967978D01*
X136150294Y-76856148D01*
X136313378Y-76745701D01*
X136559162Y-76655465D01*
X136568488Y-76653042D01*
X136828159Y-76603779D01*
X137158748Y-76564325D01*
X137468428Y-76544185D01*
X137746198Y-76538325D01*
X137909215Y-76547796D01*
G36*
X137944955Y-75935317D02*
G01*
X138058354Y-75981915D01*
X138105916Y-76062364D01*
X138106814Y-76066800D01*
X138108523Y-76132098D01*
X138071541Y-76183337D01*
X137975226Y-76226778D01*
X137798938Y-76268678D01*
X137522036Y-76315297D01*
X137123880Y-76372894D01*
X137074796Y-76379751D01*
X136686974Y-76433260D01*
X136418601Y-76467143D01*
X136245402Y-76482019D01*
X136143099Y-76478506D01*
X136087418Y-76457222D01*
X136054084Y-76418785D01*
X136046022Y-76405961D01*
X136042787Y-76289222D01*
X136176912Y-76182178D01*
X136440753Y-76088146D01*
X136826666Y-76010443D01*
X137018301Y-75984086D01*
X137444071Y-75937857D01*
X137746575Y-75921116D01*
X137944955Y-75935317D01*
X137944955Y-75935317D01*
G37*
X137944955Y-75935317D02*
X138058354Y-75981915D01*
X138105916Y-76062364D01*
X138106814Y-76066800D01*
X138108523Y-76132098D01*
X138071541Y-76183337D01*
X137975226Y-76226778D01*
X137798938Y-76268678D01*
X137522036Y-76315297D01*
X137123880Y-76372894D01*
X137074796Y-76379751D01*
X136686974Y-76433260D01*
X136418601Y-76467143D01*
X136245402Y-76482019D01*
X136143099Y-76478506D01*
X136087418Y-76457222D01*
X136054084Y-76418785D01*
X136046022Y-76405961D01*
X136042787Y-76289222D01*
X136176912Y-76182178D01*
X136440753Y-76088146D01*
X136826666Y-76010443D01*
X137018301Y-75984086D01*
X137444071Y-75937857D01*
X137746575Y-75921116D01*
X137944955Y-75935317D01*
G36*
X137632078Y-70192722D02*
G01*
X138078475Y-70356058D01*
X138469245Y-70640951D01*
X138607251Y-70782157D01*
X138931724Y-71239647D01*
X139119810Y-71732580D01*
X139170755Y-72244720D01*
X139083802Y-72759828D01*
X138858195Y-73261667D01*
X138731546Y-73451530D01*
X138370386Y-74037626D01*
X138123427Y-74646563D01*
X138004240Y-75238429D01*
X137955586Y-75764571D01*
X136162143Y-75764571D01*
X136162143Y-75380676D01*
X136093142Y-74761160D01*
X135891255Y-74130902D01*
X135632768Y-73625310D01*
X135363502Y-73145255D01*
X135187535Y-72740964D01*
X135098334Y-72382842D01*
X135089368Y-72041296D01*
X135154103Y-71686730D01*
X135182816Y-71586743D01*
X135401457Y-71103285D01*
X135731092Y-70687135D01*
X136146067Y-70370291D01*
X136167906Y-70358011D01*
X136404598Y-70239213D01*
X136614345Y-70173052D01*
X136859411Y-70145083D01*
X137105571Y-70140480D01*
X137632078Y-70192722D01*
X137632078Y-70192722D01*
G37*
X137632078Y-70192722D02*
X138078475Y-70356058D01*
X138469245Y-70640951D01*
X138607251Y-70782157D01*
X138931724Y-71239647D01*
X139119810Y-71732580D01*
X139170755Y-72244720D01*
X139083802Y-72759828D01*
X138858195Y-73261667D01*
X138731546Y-73451530D01*
X138370386Y-74037626D01*
X138123427Y-74646563D01*
X138004240Y-75238429D01*
X137955586Y-75764571D01*
X136162143Y-75764571D01*
X136162143Y-75380676D01*
X136093142Y-74761160D01*
X135891255Y-74130902D01*
X135632768Y-73625310D01*
X135363502Y-73145255D01*
X135187535Y-72740964D01*
X135098334Y-72382842D01*
X135089368Y-72041296D01*
X135154103Y-71686730D01*
X135182816Y-71586743D01*
X135401457Y-71103285D01*
X135731092Y-70687135D01*
X136146067Y-70370291D01*
X136167906Y-70358011D01*
X136404598Y-70239213D01*
X136614345Y-70173052D01*
X136859411Y-70145083D01*
X137105571Y-70140480D01*
X137632078Y-70192722D01*
D14*
X163944154Y-68823994D02*
X163944154Y-63623994D01*
X115624154Y-68823994D02*
X163944154Y-68823994D01*
X113024154Y-63623994D02*
X163944154Y-63623994D01*
X115624154Y-68823994D02*
X115624154Y-66223994D01*
X115624154Y-66223994D02*
X113024154Y-66223994D01*
X113024154Y-66223994D02*
X113024154Y-63623994D01*
X114354154Y-68823994D02*
X113024154Y-68823994D01*
X113024154Y-68823994D02*
X113024154Y-67493994D01*
X164884154Y-74963994D02*
X170084154Y-74963994D01*
X164884154Y-72363994D02*
X164884154Y-74963994D01*
X170084154Y-69763994D02*
X170084154Y-74963994D01*
X164884154Y-72363994D02*
X167484154Y-72363994D01*
X167484154Y-72363994D02*
X167484154Y-69763994D01*
X167484154Y-69763994D02*
X170084154Y-69763994D01*
X164884154Y-71093994D02*
X164884154Y-69763994D01*
X164884154Y-69763994D02*
X166214154Y-69763994D01*
X113665000Y-98780000D02*
X144865000Y-98780000D01*
X144865000Y-81280000D02*
X144865000Y-98780000D01*
X113665000Y-81280000D02*
X113665000Y-98780000D01*
X113665000Y-81280000D02*
X144865000Y-81280000D01*
X105920000Y-81835000D02*
X105920000Y-82435000D01*
X105920000Y-77235000D02*
X105920000Y-77835000D01*
X111770000Y-74335000D02*
X111770000Y-85385000D01*
X105920000Y-74335000D02*
X111770000Y-74335000D01*
X105920000Y-78085000D02*
X105920000Y-81585000D01*
X105920000Y-85385000D02*
X111770000Y-85385000D01*
X105920000Y-74335000D02*
X105920000Y-76985000D01*
X105920000Y-82735000D02*
X105920000Y-85385000D01*
X105920000Y-102155000D02*
X105920000Y-102755000D01*
X105920000Y-97555000D02*
X105920000Y-98155000D01*
X111770000Y-94655000D02*
X111770000Y-105705000D01*
X105920000Y-94655000D02*
X111770000Y-94655000D01*
X105920000Y-98405000D02*
X105920000Y-101905000D01*
X105920000Y-105705000D02*
X111770000Y-105705000D01*
X105920000Y-94655000D02*
X105920000Y-97305000D01*
X105920000Y-103055000D02*
X105920000Y-105705000D01*
D11*
X169616380Y-96369047D02*
X169616380Y-96845238D01*
X168616380Y-96845238D01*
X169092571Y-96035714D02*
X169092571Y-95702380D01*
X169616380Y-95559523D02*
X169616380Y-96035714D01*
X168616380Y-96035714D01*
X168616380Y-95559523D01*
X169616380Y-95130952D02*
X168616380Y-95130952D01*
X168616380Y-94892857D01*
X168664000Y-94750000D01*
X168759238Y-94654761D01*
X168854476Y-94607142D01*
X169044952Y-94559523D01*
X169187809Y-94559523D01*
X169378285Y-94607142D01*
X169473523Y-94654761D01*
X169568761Y-94750000D01*
X169616380Y-94892857D01*
X169616380Y-95130952D01*
X168616380Y-94226190D02*
X168616380Y-93607142D01*
X168997333Y-93940476D01*
X168997333Y-93797619D01*
X169044952Y-93702380D01*
X169092571Y-93654761D01*
X169187809Y-93607142D01*
X169425904Y-93607142D01*
X169521142Y-93654761D01*
X169568761Y-93702380D01*
X169616380Y-93797619D01*
X169616380Y-94083333D01*
X169568761Y-94178571D01*
X169521142Y-94226190D01*
X109878952Y-72080380D02*
X109402761Y-72080380D01*
X109402761Y-71080380D01*
X110212285Y-71556571D02*
X110545619Y-71556571D01*
X110688476Y-72080380D02*
X110212285Y-72080380D01*
X110212285Y-71080380D01*
X110688476Y-71080380D01*
X111117047Y-72080380D02*
X111117047Y-71080380D01*
X111355142Y-71080380D01*
X111498000Y-71128000D01*
X111593238Y-71223238D01*
X111640857Y-71318476D01*
X111688476Y-71508952D01*
X111688476Y-71651809D01*
X111640857Y-71842285D01*
X111593238Y-71937523D01*
X111498000Y-72032761D01*
X111355142Y-72080380D01*
X111117047Y-72080380D01*
X112069428Y-71175619D02*
X112117047Y-71128000D01*
X112212285Y-71080380D01*
X112450380Y-71080380D01*
X112545619Y-71128000D01*
X112593238Y-71175619D01*
X112640857Y-71270857D01*
X112640857Y-71366095D01*
X112593238Y-71508952D01*
X112021809Y-72080380D01*
X112640857Y-72080380D01*
X110894952Y-88242380D02*
X110418761Y-88242380D01*
X110418761Y-87242380D01*
X111228285Y-87718571D02*
X111561619Y-87718571D01*
X111704476Y-88242380D02*
X111228285Y-88242380D01*
X111228285Y-87242380D01*
X111704476Y-87242380D01*
X112133047Y-88242380D02*
X112133047Y-87242380D01*
X112371142Y-87242380D01*
X112514000Y-87290000D01*
X112609238Y-87385238D01*
X112656857Y-87480476D01*
X112704476Y-87670952D01*
X112704476Y-87813809D01*
X112656857Y-88004285D01*
X112609238Y-88099523D01*
X112514000Y-88194761D01*
X112371142Y-88242380D01*
X112133047Y-88242380D01*
X113656857Y-88242380D02*
X113085428Y-88242380D01*
X113371142Y-88242380D02*
X113371142Y-87242380D01*
X113275904Y-87385238D01*
X113180666Y-87480476D01*
X113085428Y-87528095D01*
X165401666Y-107793571D02*
X165068333Y-107793571D01*
X165068333Y-108317380D02*
X165068333Y-107317380D01*
X165544523Y-107317380D01*
X166449285Y-108317380D02*
X165877857Y-108317380D01*
X166163571Y-108317380D02*
X166163571Y-107317380D01*
X166068333Y-107460238D01*
X165973095Y-107555476D01*
X165877857Y-107603095D01*
X165092142Y-104117380D02*
X164758809Y-103641190D01*
X164520714Y-104117380D02*
X164520714Y-103117380D01*
X164901666Y-103117380D01*
X164996904Y-103165000D01*
X165044523Y-103212619D01*
X165092142Y-103307857D01*
X165092142Y-103450714D01*
X165044523Y-103545952D01*
X164996904Y-103593571D01*
X164901666Y-103641190D01*
X164520714Y-103641190D01*
X165473095Y-103212619D02*
X165520714Y-103165000D01*
X165615952Y-103117380D01*
X165854047Y-103117380D01*
X165949285Y-103165000D01*
X165996904Y-103212619D01*
X166044523Y-103307857D01*
X166044523Y-103403095D01*
X165996904Y-103545952D01*
X165425476Y-104117380D01*
X166044523Y-104117380D01*
X166901666Y-103450714D02*
X166901666Y-104117380D01*
X166663571Y-103069761D02*
X166425476Y-103784047D01*
X167044523Y-103784047D01*
X113331666Y-69302380D02*
X113331666Y-70016666D01*
X113284047Y-70159523D01*
X113188809Y-70254761D01*
X113045952Y-70302380D01*
X112950714Y-70302380D01*
X114331666Y-70302380D02*
X113760238Y-70302380D01*
X114045952Y-70302380D02*
X114045952Y-69302380D01*
X113950714Y-69445238D01*
X113855476Y-69540476D01*
X113760238Y-69588095D01*
X167306666Y-75652380D02*
X167306666Y-76366666D01*
X167259047Y-76509523D01*
X167163809Y-76604761D01*
X167020952Y-76652380D01*
X166925714Y-76652380D01*
X167687619Y-75652380D02*
X168306666Y-75652380D01*
X167973333Y-76033333D01*
X168116190Y-76033333D01*
X168211428Y-76080952D01*
X168259047Y-76128571D01*
X168306666Y-76223809D01*
X168306666Y-76461904D01*
X168259047Y-76557142D01*
X168211428Y-76604761D01*
X168116190Y-76652380D01*
X167830476Y-76652380D01*
X167735238Y-76604761D01*
X167687619Y-76557142D01*
X127706666Y-98242380D02*
X127706666Y-97242380D01*
X128040000Y-97956666D01*
X128373333Y-97242380D01*
X128373333Y-98242380D01*
X129040000Y-97242380D02*
X129230476Y-97242380D01*
X129325714Y-97290000D01*
X129420952Y-97385238D01*
X129468571Y-97575714D01*
X129468571Y-97909047D01*
X129420952Y-98099523D01*
X129325714Y-98194761D01*
X129230476Y-98242380D01*
X129040000Y-98242380D01*
X128944761Y-98194761D01*
X128849523Y-98099523D01*
X128801904Y-97909047D01*
X128801904Y-97575714D01*
X128849523Y-97385238D01*
X128944761Y-97290000D01*
X129040000Y-97242380D01*
X129897142Y-98242380D02*
X129897142Y-97242380D01*
X130135238Y-97242380D01*
X130278095Y-97290000D01*
X130373333Y-97385238D01*
X130420952Y-97480476D01*
X130468571Y-97670952D01*
X130468571Y-97813809D01*
X130420952Y-98004285D01*
X130373333Y-98099523D01*
X130278095Y-98194761D01*
X130135238Y-98242380D01*
X129897142Y-98242380D01*
X131420952Y-98242380D02*
X130849523Y-98242380D01*
X131135238Y-98242380D02*
X131135238Y-97242380D01*
X131040000Y-97385238D01*
X130944761Y-97480476D01*
X130849523Y-97528095D01*
X119095476Y-90622380D02*
X119095476Y-89622380D01*
X119333571Y-89622380D01*
X119476428Y-89670000D01*
X119571666Y-89765238D01*
X119619285Y-89860476D01*
X119666904Y-90050952D01*
X119666904Y-90193809D01*
X119619285Y-90384285D01*
X119571666Y-90479523D01*
X119476428Y-90574761D01*
X119333571Y-90622380D01*
X119095476Y-90622380D01*
X120666904Y-90527142D02*
X120619285Y-90574761D01*
X120476428Y-90622380D01*
X120381190Y-90622380D01*
X120238333Y-90574761D01*
X120143095Y-90479523D01*
X120095476Y-90384285D01*
X120047857Y-90193809D01*
X120047857Y-90050952D01*
X120095476Y-89860476D01*
X120143095Y-89765238D01*
X120238333Y-89670000D01*
X120381190Y-89622380D01*
X120476428Y-89622380D01*
X120619285Y-89670000D01*
X120666904Y-89717619D01*
X121095476Y-90241428D02*
X121857380Y-90241428D01*
X122333571Y-90622380D02*
X122333571Y-89622380D01*
X122571666Y-89622380D01*
X122714523Y-89670000D01*
X122809761Y-89765238D01*
X122857380Y-89860476D01*
X122905000Y-90050952D01*
X122905000Y-90193809D01*
X122857380Y-90384285D01*
X122809761Y-90479523D01*
X122714523Y-90574761D01*
X122571666Y-90622380D01*
X122333571Y-90622380D01*
X123905000Y-90527142D02*
X123857380Y-90574761D01*
X123714523Y-90622380D01*
X123619285Y-90622380D01*
X123476428Y-90574761D01*
X123381190Y-90479523D01*
X123333571Y-90384285D01*
X123285952Y-90193809D01*
X123285952Y-90050952D01*
X123333571Y-89860476D01*
X123381190Y-89765238D01*
X123476428Y-89670000D01*
X123619285Y-89622380D01*
X123714523Y-89622380D01*
X123857380Y-89670000D01*
X123905000Y-89717619D01*
X125428809Y-90098571D02*
X125571666Y-90146190D01*
X125619285Y-90193809D01*
X125666904Y-90289047D01*
X125666904Y-90431904D01*
X125619285Y-90527142D01*
X125571666Y-90574761D01*
X125476428Y-90622380D01*
X125095476Y-90622380D01*
X125095476Y-89622380D01*
X125428809Y-89622380D01*
X125524047Y-89670000D01*
X125571666Y-89717619D01*
X125619285Y-89812857D01*
X125619285Y-89908095D01*
X125571666Y-90003333D01*
X125524047Y-90050952D01*
X125428809Y-90098571D01*
X125095476Y-90098571D01*
X126285952Y-89622380D02*
X126476428Y-89622380D01*
X126571666Y-89670000D01*
X126666904Y-89765238D01*
X126714523Y-89955714D01*
X126714523Y-90289047D01*
X126666904Y-90479523D01*
X126571666Y-90574761D01*
X126476428Y-90622380D01*
X126285952Y-90622380D01*
X126190714Y-90574761D01*
X126095476Y-90479523D01*
X126047857Y-90289047D01*
X126047857Y-89955714D01*
X126095476Y-89765238D01*
X126190714Y-89670000D01*
X126285952Y-89622380D01*
X127333571Y-89622380D02*
X127524047Y-89622380D01*
X127619285Y-89670000D01*
X127714523Y-89765238D01*
X127762142Y-89955714D01*
X127762142Y-90289047D01*
X127714523Y-90479523D01*
X127619285Y-90574761D01*
X127524047Y-90622380D01*
X127333571Y-90622380D01*
X127238333Y-90574761D01*
X127143095Y-90479523D01*
X127095476Y-90289047D01*
X127095476Y-89955714D01*
X127143095Y-89765238D01*
X127238333Y-89670000D01*
X127333571Y-89622380D01*
X128143095Y-90574761D02*
X128285952Y-90622380D01*
X128524047Y-90622380D01*
X128619285Y-90574761D01*
X128666904Y-90527142D01*
X128714523Y-90431904D01*
X128714523Y-90336666D01*
X128666904Y-90241428D01*
X128619285Y-90193809D01*
X128524047Y-90146190D01*
X128333571Y-90098571D01*
X128238333Y-90050952D01*
X128190714Y-90003333D01*
X128143095Y-89908095D01*
X128143095Y-89812857D01*
X128190714Y-89717619D01*
X128238333Y-89670000D01*
X128333571Y-89622380D01*
X128571666Y-89622380D01*
X128714523Y-89670000D01*
X129000238Y-89622380D02*
X129571666Y-89622380D01*
X129285952Y-90622380D02*
X129285952Y-89622380D01*
X131238333Y-90527142D02*
X131190714Y-90574761D01*
X131047857Y-90622380D01*
X130952619Y-90622380D01*
X130809761Y-90574761D01*
X130714523Y-90479523D01*
X130666904Y-90384285D01*
X130619285Y-90193809D01*
X130619285Y-90050952D01*
X130666904Y-89860476D01*
X130714523Y-89765238D01*
X130809761Y-89670000D01*
X130952619Y-89622380D01*
X131047857Y-89622380D01*
X131190714Y-89670000D01*
X131238333Y-89717619D01*
X131857380Y-89622380D02*
X132047857Y-89622380D01*
X132143095Y-89670000D01*
X132238333Y-89765238D01*
X132285952Y-89955714D01*
X132285952Y-90289047D01*
X132238333Y-90479523D01*
X132143095Y-90574761D01*
X132047857Y-90622380D01*
X131857380Y-90622380D01*
X131762142Y-90574761D01*
X131666904Y-90479523D01*
X131619285Y-90289047D01*
X131619285Y-89955714D01*
X131666904Y-89765238D01*
X131762142Y-89670000D01*
X131857380Y-89622380D01*
X132714523Y-90622380D02*
X132714523Y-89622380D01*
X133285952Y-90622380D01*
X133285952Y-89622380D01*
X133619285Y-89622380D02*
X133952619Y-90622380D01*
X134285952Y-89622380D01*
X134619285Y-90098571D02*
X134952619Y-90098571D01*
X135095476Y-90622380D02*
X134619285Y-90622380D01*
X134619285Y-89622380D01*
X135095476Y-89622380D01*
X136095476Y-90622380D02*
X135762142Y-90146190D01*
X135524047Y-90622380D02*
X135524047Y-89622380D01*
X135905000Y-89622380D01*
X136000238Y-89670000D01*
X136047857Y-89717619D01*
X136095476Y-89812857D01*
X136095476Y-89955714D01*
X136047857Y-90050952D01*
X136000238Y-90098571D01*
X135905000Y-90146190D01*
X135524047Y-90146190D01*
X136381190Y-89622380D02*
X136952619Y-89622380D01*
X136666904Y-90622380D02*
X136666904Y-89622380D01*
X137285952Y-90098571D02*
X137619285Y-90098571D01*
X137762142Y-90622380D02*
X137285952Y-90622380D01*
X137285952Y-89622380D01*
X137762142Y-89622380D01*
X138762142Y-90622380D02*
X138428809Y-90146190D01*
X138190714Y-90622380D02*
X138190714Y-89622380D01*
X138571666Y-89622380D01*
X138666904Y-89670000D01*
X138714523Y-89717619D01*
X138762142Y-89812857D01*
X138762142Y-89955714D01*
X138714523Y-90050952D01*
X138666904Y-90098571D01*
X138571666Y-90146190D01*
X138190714Y-90146190D01*
X135414047Y-94702380D02*
X135747380Y-95702380D01*
X136080714Y-94702380D01*
X136604523Y-94702380D02*
X136795000Y-94702380D01*
X136890238Y-94750000D01*
X136985476Y-94845238D01*
X137033095Y-95035714D01*
X137033095Y-95369047D01*
X136985476Y-95559523D01*
X136890238Y-95654761D01*
X136795000Y-95702380D01*
X136604523Y-95702380D01*
X136509285Y-95654761D01*
X136414047Y-95559523D01*
X136366428Y-95369047D01*
X136366428Y-95035714D01*
X136414047Y-94845238D01*
X136509285Y-94750000D01*
X136604523Y-94702380D01*
X137461666Y-94702380D02*
X137461666Y-95511904D01*
X137509285Y-95607142D01*
X137556904Y-95654761D01*
X137652142Y-95702380D01*
X137842619Y-95702380D01*
X137937857Y-95654761D01*
X137985476Y-95607142D01*
X138033095Y-95511904D01*
X138033095Y-94702380D01*
X138366428Y-94702380D02*
X138937857Y-94702380D01*
X138652142Y-95702380D02*
X138652142Y-94702380D01*
X139271190Y-95321428D02*
X140033095Y-95321428D01*
X135414047Y-83272380D02*
X135747380Y-84272380D01*
X136080714Y-83272380D01*
X136604523Y-83272380D02*
X136795000Y-83272380D01*
X136890238Y-83320000D01*
X136985476Y-83415238D01*
X137033095Y-83605714D01*
X137033095Y-83939047D01*
X136985476Y-84129523D01*
X136890238Y-84224761D01*
X136795000Y-84272380D01*
X136604523Y-84272380D01*
X136509285Y-84224761D01*
X136414047Y-84129523D01*
X136366428Y-83939047D01*
X136366428Y-83605714D01*
X136414047Y-83415238D01*
X136509285Y-83320000D01*
X136604523Y-83272380D01*
X137461666Y-83272380D02*
X137461666Y-84081904D01*
X137509285Y-84177142D01*
X137556904Y-84224761D01*
X137652142Y-84272380D01*
X137842619Y-84272380D01*
X137937857Y-84224761D01*
X137985476Y-84177142D01*
X138033095Y-84081904D01*
X138033095Y-83272380D01*
X138366428Y-83272380D02*
X138937857Y-83272380D01*
X138652142Y-84272380D02*
X138652142Y-83272380D01*
X139271190Y-83891428D02*
X140033095Y-83891428D01*
X139652142Y-84272380D02*
X139652142Y-83510476D01*
X118300714Y-94702380D02*
X118634047Y-95702380D01*
X118967380Y-94702380D01*
X119300714Y-95702380D02*
X119300714Y-94702380D01*
X119776904Y-95702380D02*
X119776904Y-94702380D01*
X120348333Y-95702380D01*
X120348333Y-94702380D01*
X120824523Y-95321428D02*
X121586428Y-95321428D01*
X118300714Y-83272380D02*
X118634047Y-84272380D01*
X118967380Y-83272380D01*
X119300714Y-84272380D02*
X119300714Y-83272380D01*
X119776904Y-84272380D02*
X119776904Y-83272380D01*
X120348333Y-84272380D01*
X120348333Y-83272380D01*
X120824523Y-83891428D02*
X121586428Y-83891428D01*
X121205476Y-84272380D02*
X121205476Y-83510476D01*
X106981666Y-73112380D02*
X106981666Y-73826666D01*
X106934047Y-73969523D01*
X106838809Y-74064761D01*
X106695952Y-74112380D01*
X106600714Y-74112380D01*
X107886428Y-73445714D02*
X107886428Y-74112380D01*
X107648333Y-73064761D02*
X107410238Y-73779047D01*
X108029285Y-73779047D01*
D14*
X107873571Y-77588571D02*
X107016428Y-77588571D01*
X107445000Y-77588571D02*
X107445000Y-76088571D01*
X107302142Y-76302857D01*
X107159285Y-76445714D01*
X107016428Y-76517142D01*
D11*
X106981666Y-93432380D02*
X106981666Y-94146666D01*
X106934047Y-94289523D01*
X106838809Y-94384761D01*
X106695952Y-94432380D01*
X106600714Y-94432380D01*
X107934047Y-93432380D02*
X107457857Y-93432380D01*
X107410238Y-93908571D01*
X107457857Y-93860952D01*
X107553095Y-93813333D01*
X107791190Y-93813333D01*
X107886428Y-93860952D01*
X107934047Y-93908571D01*
X107981666Y-94003809D01*
X107981666Y-94241904D01*
X107934047Y-94337142D01*
X107886428Y-94384761D01*
X107791190Y-94432380D01*
X107553095Y-94432380D01*
X107457857Y-94384761D01*
X107410238Y-94337142D01*
D14*
X107873571Y-97908571D02*
X107016428Y-97908571D01*
X107445000Y-97908571D02*
X107445000Y-96408571D01*
X107302142Y-96622857D01*
X107159285Y-96765714D01*
X107016428Y-96837142D01*
M02*
