%
M48
M72
T01C0.0118
T02C0.0157
T03C0.0236
T04C0.0276
T05C0.0315
T06C0.0320
T07C0.0394
T08C0.0400
T09C0.0472
T10C0.0480
T11C0.1083
T12C0.1250
T13C0.1299
%
T01
X1277Y3305
X1477Y3305
X1677Y3305
X1877Y3305
X2077Y3305
X1877Y7905
X2077Y8605
X9777Y17205
X9777Y20605
X8277Y22005
X5777Y24305
X3850Y26699
X2677Y21805
X4277Y21105
X16477Y21605
X20681Y20305
X21677Y20805
X22677Y20305
X24677Y21005
X27477Y19805
X27777Y20105
X28000Y20470
X27577Y19105
X27577Y18505
X27477Y17305
X27877Y16905
X25577Y18005
X31177Y19105
X31677Y18505
X32877Y21005
X32377Y22405
X32377Y22905
X36477Y25005
X38477Y25405
X39277Y25405
X39977Y25405
X39677Y26605
X36577Y28205
X35277Y29005
X34977Y28605
X35977Y29405
X35277Y30605
X35477Y27405
X27977Y24405
X23777Y30005
X24777Y33305
X24977Y33305
X25177Y33305
X25377Y33305
X25577Y33305
X37977Y18805
X34665Y15667
X35177Y15005
X34577Y13905
X35477Y13705
X36358Y12872
X35477Y12205
X36358Y11376
X35477Y10705
X34877Y10205
X36358Y9880
X36358Y8144
X38011Y12478
X38996Y15155
X36777Y15105
X33177Y14962
X32877Y15405
X32477Y14005
X31909Y13220
X25577Y3305
X25377Y3305
X25177Y3305
X24977Y3305
X24777Y3305
X48277Y3305
X48477Y3305
X48677Y3305
X48877Y3305
X49077Y3305
X49077Y33305
X48877Y33305
X48677Y33305
X48477Y33305
X48277Y33305
X2077Y33305
X1877Y33305
X1677Y33305
X1477Y33305
X1277Y33305
T02
X4077Y29405
X3202Y21315
X3207Y18275
X2777Y12205
X6877Y5305
X16977Y18005
X17977Y19805
X26977Y19505
X28877Y21105
X29177Y16105
X38177Y13905
X38147Y13155
X38147Y11955
X38147Y10955
X32877Y9505
T03
X33177Y4205
X26577Y17405
X24177Y19665
X25277Y20905
X19077Y21405
X19677Y28505
X26877Y30605
X29777Y28505
X32477Y29005
X32377Y26505
X3277Y24705
T04
X4377Y11499
X4377Y10711
T05
X777Y11105
X1377Y14805
X35996Y16805
X36783Y16805
X37570Y16805
X38358Y16805
X41196Y16805
X41983Y16805
X42770Y16805
X43558Y16805
X43558Y23105
X42770Y23105
X41983Y23105
X41196Y23105
X38358Y23105
X37570Y23105
X36783Y23105
X35996Y23105
T06
X29177Y29555
X28177Y29555
X28177Y7055
X29177Y7055
T07
X33927Y9305
X30927Y11305
X33927Y14305
X30927Y16305
X33927Y19305
X30927Y21305
X33927Y24305
X30927Y26305
X25677Y23805
X24677Y23805
X23677Y23805
X22677Y23805
X21677Y23805
X20677Y23805
X19677Y23805
X18677Y23805
X17677Y23805
X16677Y23805
X15677Y23805
X14677Y23805
X13677Y23805
X12677Y23805
X11677Y23805
X10677Y23805
X9677Y23805
X8677Y23805
X7677Y23805
X6677Y23805
X6677Y22805
X7677Y22805
X8677Y22805
X9677Y22805
X10677Y22805
X11677Y22805
X12677Y22805
X13677Y22805
X14677Y22805
X15677Y22805
X16677Y22805
X17677Y22805
X18677Y22805
X19677Y22805
X20677Y22805
X21677Y22805
X22677Y22805
X23677Y22805
X24677Y22805
X25677Y22805
T08
X25598Y27695
X24598Y27695
X23598Y27695
X22598Y27695
X21598Y27695
X20598Y27695
X19598Y27695
X18598Y27695
X17598Y27695
X16598Y27695
X15598Y27695
X14598Y27695
X13598Y27695
X12598Y27695
X21077Y31705
X22077Y31705
X23077Y31705
X24077Y31705
X26598Y27695
X27598Y27695
X2577Y31605
X1577Y31605
T09
X36477Y20455
X37477Y20455
X38477Y20455
X39477Y20455
X40477Y20455
X41477Y20455
X42477Y20455
X43477Y20455
X43477Y19455
X42477Y19455
X41477Y19455
X40477Y19455
X39477Y19455
X38477Y19455
X37477Y19455
X36477Y19455
X47527Y21055
X47527Y22555
X47527Y24055
X47527Y25555
X47527Y27055
X47527Y28555
X47527Y30055
X47527Y31555
X47527Y15555
X47527Y14055
X47527Y12555
X47527Y11055
X47527Y9555
X47527Y8055
X47527Y6555
X47527Y5055
X4827Y5655
X3327Y5655
T10
X31927Y10305
X33927Y12305
X31927Y15305
X33927Y17305
X31927Y20305
X33927Y22305
X31927Y25305
X33927Y27305
T11
X27594Y23305
X27594Y14250
X4759Y14250
X4759Y23305
T12
X7577Y28305
X7577Y8305
X38827Y8305
X47777Y18305
X38827Y28305
T13
X27972Y26612
X12224Y26612
X12224Y10470
M30
