%TF.GenerationSoftware,KiCad,Pcbnew,(5.1.8)-1*%
%TF.CreationDate,2021-01-16T15:49:20-05:00*%
%TF.ProjectId,uratt_fp,75726174-745f-4667-902e-6b696361645f,rev?*%
%TF.SameCoordinates,Original*%
%TF.FileFunction,Profile,NP*%
%FSLAX46Y46*%
G04 Gerber Fmt 4.6, Leading zero omitted, Abs format (unit mm)*
G04 Created by KiCad (PCBNEW (5.1.8)-1) date 2021-01-16 15:49:20*
%MOMM*%
%LPD*%
G01*
G04 APERTURE LIST*
%TA.AperFunction,Profile*%
%ADD10C,0.100000*%
%TD*%
G04 APERTURE END LIST*
D10*
X46146000Y-124380000D02*
X60146000Y-124380000D01*
X87146000Y-124380000D02*
X87146000Y-118380000D01*
X37146000Y-124380000D02*
X42146000Y-124380000D01*
X64146000Y-124380000D02*
X78146000Y-124380000D01*
X37146000Y-118380000D02*
X87146000Y-118380000D01*
X82146000Y-124380000D02*
X87146000Y-124380000D01*
X37146000Y-124380000D02*
X37146000Y-118380000D01*
X60146000Y-124380000D02*
G75*
G02*
X60146000Y-126380000I0J-1000000D01*
G01*
X46146000Y-126380000D02*
X60146000Y-126380000D01*
X42146000Y-124380000D02*
G75*
G02*
X42146000Y-126380000I0J-1000000D01*
G01*
X37146000Y-126380000D02*
X42146000Y-126380000D01*
X78146000Y-124380000D02*
G75*
G02*
X78146000Y-126380000I0J-1000000D01*
G01*
X46146000Y-126380000D02*
G75*
G02*
X46146000Y-124380000I0J1000000D01*
G01*
X64146000Y-126380000D02*
X78146000Y-126380000D01*
X82146000Y-126380000D02*
G75*
G02*
X82146000Y-124380000I0J1000000D01*
G01*
X64146000Y-126380000D02*
G75*
G02*
X64146000Y-124380000I0J1000000D01*
G01*
X82146000Y-126380000D02*
X87146000Y-126380000D01*
X46146000Y-152380000D02*
G75*
G02*
X46146000Y-150380000I0J1000000D01*
G01*
X42146000Y-150380000D02*
G75*
G02*
X42146000Y-152380000I0J-1000000D01*
G01*
X64146000Y-152380000D02*
G75*
G02*
X64146000Y-150380000I0J1000000D01*
G01*
X60146000Y-150380000D02*
G75*
G02*
X60146000Y-152380000I0J-1000000D01*
G01*
X78146000Y-150380000D02*
G75*
G02*
X78146000Y-152380000I0J-1000000D01*
G01*
X82146000Y-152380000D02*
G75*
G02*
X82146000Y-150380000I0J1000000D01*
G01*
X78146000Y-150380000D02*
X64146000Y-150380000D01*
X87146000Y-150380000D02*
X82146000Y-150380000D01*
X60146000Y-150380000D02*
X46146000Y-150380000D01*
X42146000Y-150380000D02*
X37146000Y-150380000D01*
X87146000Y-152380000D02*
X87146000Y-158380000D01*
X37146000Y-152380000D02*
X37146000Y-158380000D01*
X87146000Y-158380000D02*
X37146000Y-158380000D01*
X87146000Y-152380000D02*
X82146000Y-152380000D01*
X78146000Y-152380000D02*
X64146000Y-152380000D01*
X60146000Y-152380000D02*
X46146000Y-152380000D01*
X42146000Y-152380000D02*
X37146000Y-152380000D01*
X44146000Y-132430000D02*
G75*
G03*
X43146000Y-131430000I-1000000J0D01*
G01*
X43146000Y-145330000D02*
G75*
G03*
X44146000Y-144330000I0J1000000D01*
G01*
X87146000Y-150380000D02*
X87146000Y-126380000D01*
X37146000Y-145330000D02*
X37145999Y-150380000D01*
X43146000Y-145330000D02*
X37146000Y-145330000D01*
X44146000Y-132430000D02*
X44146000Y-144330000D01*
X37146000Y-131430000D02*
X43146000Y-131430000D01*
X37146000Y-126380000D02*
X37146000Y-131430000D01*
M02*
