%TF.GenerationSoftware,KiCad,Pcbnew,(5.1.8)-1*%
%TF.CreationDate,2021-01-16T15:49:20-05:00*%
%TF.ProjectId,uratt_fp,75726174-745f-4667-902e-6b696361645f,rev?*%
%TF.SameCoordinates,Original*%
%TF.FileFunction,Copper,L2,Bot*%
%TF.FilePolarity,Positive*%
%FSLAX46Y46*%
G04 Gerber Fmt 4.6, Leading zero omitted, Abs format (unit mm)*
G04 Created by KiCad (PCBNEW (5.1.8)-1) date 2021-01-16 15:49:20*
%MOMM*%
%LPD*%
G01*
G04 APERTURE LIST*
%TA.AperFunction,SMDPad,CuDef*%
%ADD10R,2.900000X1.400000*%
%TD*%
%TA.AperFunction,SMDPad,CuDef*%
%ADD11R,1.600000X0.400000*%
%TD*%
%TA.AperFunction,ComponentPad*%
%ADD12C,1.508000*%
%TD*%
%TA.AperFunction,SMDPad,CuDef*%
%ADD13C,1.500000*%
%TD*%
%TA.AperFunction,SMDPad,CuDef*%
%ADD14R,3.000000X0.500000*%
%TD*%
%TA.AperFunction,ComponentPad*%
%ADD15C,1.100000*%
%TD*%
%TA.AperFunction,SMDPad,CuDef*%
%ADD16R,0.800000X0.900000*%
%TD*%
%TA.AperFunction,SMDPad,CuDef*%
%ADD17R,0.900000X0.800000*%
%TD*%
%TA.AperFunction,ViaPad*%
%ADD18C,0.500000*%
%TD*%
%TA.AperFunction,Conductor*%
%ADD19C,0.400000*%
%TD*%
%TA.AperFunction,Conductor*%
%ADD20C,0.250000*%
%TD*%
%TA.AperFunction,Conductor*%
%ADD21C,0.200000*%
%TD*%
%TA.AperFunction,Conductor*%
%ADD22C,0.254000*%
%TD*%
%TA.AperFunction,Conductor*%
%ADD23C,0.100000*%
%TD*%
G04 APERTURE END LIST*
D10*
%TO.P,J101,S1*%
%TO.N,N/C*%
X67250000Y-128152000D03*
%TO.P,J101,S2*%
X67250000Y-137052000D03*
D11*
%TO.P,J101,1*%
%TO.N,/R_LCD_3.3V*%
X68450000Y-129852000D03*
%TO.P,J101,2*%
X66050000Y-130352000D03*
%TO.P,J101,3*%
%TO.N,/R_LCD_BL*%
X68450000Y-130852000D03*
%TO.P,J101,4*%
%TO.N,/R_LCD_CS*%
X66050000Y-131352000D03*
%TO.P,J101,5*%
%TO.N,/R_LCD_RESET*%
X68450000Y-131852000D03*
%TO.P,J101,6*%
%TO.N,/R_LCD_DC*%
X66050000Y-132352000D03*
%TO.P,J101,7*%
%TO.N,/R_LCD_CLK*%
X68450000Y-132852000D03*
%TO.P,J101,8*%
%TO.N,/R_LCD_MOSI*%
X66050000Y-133352000D03*
%TO.P,J101,9*%
%TO.N,/R_BEEPER*%
X68450000Y-133852000D03*
%TO.P,J101,10*%
%TO.N,/R_BTN*%
X66050000Y-134352000D03*
%TO.P,J101,11*%
%TO.N,GND1*%
X68450000Y-134852000D03*
%TO.P,J101,12*%
X66050000Y-135352000D03*
%TD*%
D12*
%TO.P,LS101,1*%
%TO.N,Net-(BZ101-Pad1)*%
X74950000Y-137500000D03*
%TO.P,LS101,2*%
%TO.N,Net-(BZ101-Pad2)*%
X82550000Y-137500000D03*
%TD*%
%TO.P,C104,2*%
%TO.N,GND1*%
%TA.AperFunction,SMDPad,CuDef*%
G36*
G01*
X59550000Y-128950000D02*
X59550000Y-130050000D01*
G75*
G02*
X59300000Y-130300000I-250000J0D01*
G01*
X56800000Y-130300000D01*
G75*
G02*
X56550000Y-130050000I0J250000D01*
G01*
X56550000Y-128950000D01*
G75*
G02*
X56800000Y-128700000I250000J0D01*
G01*
X59300000Y-128700000D01*
G75*
G02*
X59550000Y-128950000I0J-250000D01*
G01*
G37*
%TD.AperFunction*%
%TO.P,C104,1*%
%TO.N,/R_LCD_3.3V*%
%TA.AperFunction,SMDPad,CuDef*%
G36*
G01*
X63950000Y-128950000D02*
X63950000Y-130050000D01*
G75*
G02*
X63700000Y-130300000I-250000J0D01*
G01*
X61200000Y-130300000D01*
G75*
G02*
X60950000Y-130050000I0J250000D01*
G01*
X60950000Y-128950000D01*
G75*
G02*
X61200000Y-128700000I250000J0D01*
G01*
X63700000Y-128700000D01*
G75*
G02*
X63950000Y-128950000I0J-250000D01*
G01*
G37*
%TD.AperFunction*%
%TD*%
D13*
%TO.P,FID8,*%
%TO.N,*%
X84250000Y-122250000D03*
%TD*%
%TO.P,FID7,*%
%TO.N,*%
X40250000Y-122250000D03*
%TD*%
%TO.P,FID4,*%
%TO.N,*%
X84250000Y-154500000D03*
%TD*%
%TO.P,FID3,*%
%TO.N,*%
X40250000Y-154500000D03*
%TD*%
D14*
%TO.P,LCD101,13*%
%TO.N,GND1*%
X54737000Y-134192000D03*
%TO.P,LCD101,12*%
%TO.N,Net-(LCD101-Pad12)*%
X54737000Y-134892000D03*
%TO.P,LCD101,11*%
%TO.N,GND1*%
X54737000Y-135592000D03*
%TO.P,LCD101,10*%
%TO.N,/R_LCD_3.3V*%
X54737000Y-136292000D03*
%TO.P,LCD101,9*%
%TO.N,Net-(LCD101-Pad9)*%
X54737000Y-136992000D03*
%TO.P,LCD101,8*%
%TO.N,GND1*%
X54737000Y-137692000D03*
%TO.P,LCD101,7*%
%TO.N,Net-(LCD101-Pad7)*%
X54737000Y-138392000D03*
%TO.P,LCD101,6*%
%TO.N,Net-(LCD101-Pad6)*%
X54737000Y-139092000D03*
%TO.P,LCD101,5*%
%TO.N,Net-(LCD101-Pad5)*%
X54737000Y-139792000D03*
%TO.P,LCD101,4*%
%TO.N,Net-(LCD101-Pad4)*%
X54737000Y-140492000D03*
%TO.P,LCD101,3*%
%TO.N,Net-(LCD101-Pad3)*%
X54737000Y-141192000D03*
%TO.P,LCD101,2*%
%TO.N,Net-(LCD101-Pad2)*%
X54737000Y-141892000D03*
%TO.P,LCD101,1*%
%TO.N,Net-(LCD101-Pad1)*%
X54737000Y-142592000D03*
D15*
%TO.P,LCD101,*%
%TO.N,*%
X51464000Y-143603000D03*
X51464000Y-133203000D03*
%TD*%
%TO.P,R113,2*%
%TO.N,Net-(BZ101-Pad1)*%
%TA.AperFunction,SMDPad,CuDef*%
G36*
G01*
X67925000Y-139775000D02*
X67925000Y-139225000D01*
G75*
G02*
X68125000Y-139025000I200000J0D01*
G01*
X68525000Y-139025000D01*
G75*
G02*
X68725000Y-139225000I0J-200000D01*
G01*
X68725000Y-139775000D01*
G75*
G02*
X68525000Y-139975000I-200000J0D01*
G01*
X68125000Y-139975000D01*
G75*
G02*
X67925000Y-139775000I0J200000D01*
G01*
G37*
%TD.AperFunction*%
%TO.P,R113,1*%
%TO.N,/R_LCD_3.3V*%
%TA.AperFunction,SMDPad,CuDef*%
G36*
G01*
X66275000Y-139775000D02*
X66275000Y-139225000D01*
G75*
G02*
X66475000Y-139025000I200000J0D01*
G01*
X66875000Y-139025000D01*
G75*
G02*
X67075000Y-139225000I0J-200000D01*
G01*
X67075000Y-139775000D01*
G75*
G02*
X66875000Y-139975000I-200000J0D01*
G01*
X66475000Y-139975000D01*
G75*
G02*
X66275000Y-139775000I0J200000D01*
G01*
G37*
%TD.AperFunction*%
%TD*%
%TO.P,R112,2*%
%TO.N,/R_BEEPER*%
%TA.AperFunction,SMDPad,CuDef*%
G36*
G01*
X66825000Y-145975000D02*
X66825000Y-146525000D01*
G75*
G02*
X66625000Y-146725000I-200000J0D01*
G01*
X66225000Y-146725000D01*
G75*
G02*
X66025000Y-146525000I0J200000D01*
G01*
X66025000Y-145975000D01*
G75*
G02*
X66225000Y-145775000I200000J0D01*
G01*
X66625000Y-145775000D01*
G75*
G02*
X66825000Y-145975000I0J-200000D01*
G01*
G37*
%TD.AperFunction*%
%TO.P,R112,1*%
%TO.N,Net-(Q102-Pad1)*%
%TA.AperFunction,SMDPad,CuDef*%
G36*
G01*
X68475000Y-145975000D02*
X68475000Y-146525000D01*
G75*
G02*
X68275000Y-146725000I-200000J0D01*
G01*
X67875000Y-146725000D01*
G75*
G02*
X67675000Y-146525000I0J200000D01*
G01*
X67675000Y-145975000D01*
G75*
G02*
X67875000Y-145775000I200000J0D01*
G01*
X68275000Y-145775000D01*
G75*
G02*
X68475000Y-145975000I0J-200000D01*
G01*
G37*
%TD.AperFunction*%
%TD*%
%TO.P,R111,2*%
%TO.N,Net-(BZ101-Pad2)*%
%TA.AperFunction,SMDPad,CuDef*%
G36*
G01*
X67925000Y-141275000D02*
X67925000Y-140725000D01*
G75*
G02*
X68125000Y-140525000I200000J0D01*
G01*
X68525000Y-140525000D01*
G75*
G02*
X68725000Y-140725000I0J-200000D01*
G01*
X68725000Y-141275000D01*
G75*
G02*
X68525000Y-141475000I-200000J0D01*
G01*
X68125000Y-141475000D01*
G75*
G02*
X67925000Y-141275000I0J200000D01*
G01*
G37*
%TD.AperFunction*%
%TO.P,R111,1*%
%TO.N,Net-(BZ101-Pad1)*%
%TA.AperFunction,SMDPad,CuDef*%
G36*
G01*
X66275000Y-141275000D02*
X66275000Y-140725000D01*
G75*
G02*
X66475000Y-140525000I200000J0D01*
G01*
X66875000Y-140525000D01*
G75*
G02*
X67075000Y-140725000I0J-200000D01*
G01*
X67075000Y-141275000D01*
G75*
G02*
X66875000Y-141475000I-200000J0D01*
G01*
X66475000Y-141475000D01*
G75*
G02*
X66275000Y-141275000I0J200000D01*
G01*
G37*
%TD.AperFunction*%
%TD*%
%TO.P,R110,2*%
%TO.N,Net-(LCD101-Pad12)*%
%TA.AperFunction,SMDPad,CuDef*%
G36*
G01*
X54925000Y-131275000D02*
X54925000Y-130725000D01*
G75*
G02*
X55125000Y-130525000I200000J0D01*
G01*
X55525000Y-130525000D01*
G75*
G02*
X55725000Y-130725000I0J-200000D01*
G01*
X55725000Y-131275000D01*
G75*
G02*
X55525000Y-131475000I-200000J0D01*
G01*
X55125000Y-131475000D01*
G75*
G02*
X54925000Y-131275000I0J200000D01*
G01*
G37*
%TD.AperFunction*%
%TO.P,R110,1*%
%TO.N,Net-(Q101-Pad2)*%
%TA.AperFunction,SMDPad,CuDef*%
G36*
G01*
X53275000Y-131275000D02*
X53275000Y-130725000D01*
G75*
G02*
X53475000Y-130525000I200000J0D01*
G01*
X53875000Y-130525000D01*
G75*
G02*
X54075000Y-130725000I0J-200000D01*
G01*
X54075000Y-131275000D01*
G75*
G02*
X53875000Y-131475000I-200000J0D01*
G01*
X53475000Y-131475000D01*
G75*
G02*
X53275000Y-131275000I0J200000D01*
G01*
G37*
%TD.AperFunction*%
%TD*%
%TO.P,R109,2*%
%TO.N,/R_LCD_MOSI*%
%TA.AperFunction,SMDPad,CuDef*%
G36*
G01*
X60425000Y-146025000D02*
X60425000Y-145475000D01*
G75*
G02*
X60625000Y-145275000I200000J0D01*
G01*
X61025000Y-145275000D01*
G75*
G02*
X61225000Y-145475000I0J-200000D01*
G01*
X61225000Y-146025000D01*
G75*
G02*
X61025000Y-146225000I-200000J0D01*
G01*
X60625000Y-146225000D01*
G75*
G02*
X60425000Y-146025000I0J200000D01*
G01*
G37*
%TD.AperFunction*%
%TO.P,R109,1*%
%TO.N,Net-(LCD101-Pad3)*%
%TA.AperFunction,SMDPad,CuDef*%
G36*
G01*
X58775000Y-146025000D02*
X58775000Y-145475000D01*
G75*
G02*
X58975000Y-145275000I200000J0D01*
G01*
X59375000Y-145275000D01*
G75*
G02*
X59575000Y-145475000I0J-200000D01*
G01*
X59575000Y-146025000D01*
G75*
G02*
X59375000Y-146225000I-200000J0D01*
G01*
X58975000Y-146225000D01*
G75*
G02*
X58775000Y-146025000I0J200000D01*
G01*
G37*
%TD.AperFunction*%
%TD*%
%TO.P,R108,2*%
%TO.N,/R_LCD_DC*%
%TA.AperFunction,SMDPad,CuDef*%
G36*
G01*
X60425000Y-142525000D02*
X60425000Y-141975000D01*
G75*
G02*
X60625000Y-141775000I200000J0D01*
G01*
X61025000Y-141775000D01*
G75*
G02*
X61225000Y-141975000I0J-200000D01*
G01*
X61225000Y-142525000D01*
G75*
G02*
X61025000Y-142725000I-200000J0D01*
G01*
X60625000Y-142725000D01*
G75*
G02*
X60425000Y-142525000I0J200000D01*
G01*
G37*
%TD.AperFunction*%
%TO.P,R108,1*%
%TO.N,Net-(LCD101-Pad5)*%
%TA.AperFunction,SMDPad,CuDef*%
G36*
G01*
X58775000Y-142525000D02*
X58775000Y-141975000D01*
G75*
G02*
X58975000Y-141775000I200000J0D01*
G01*
X59375000Y-141775000D01*
G75*
G02*
X59575000Y-141975000I0J-200000D01*
G01*
X59575000Y-142525000D01*
G75*
G02*
X59375000Y-142725000I-200000J0D01*
G01*
X58975000Y-142725000D01*
G75*
G02*
X58775000Y-142525000I0J200000D01*
G01*
G37*
%TD.AperFunction*%
%TD*%
%TO.P,R107,2*%
%TO.N,/R_LCD_CS*%
%TA.AperFunction,SMDPad,CuDef*%
G36*
G01*
X60425000Y-139525000D02*
X60425000Y-138975000D01*
G75*
G02*
X60625000Y-138775000I200000J0D01*
G01*
X61025000Y-138775000D01*
G75*
G02*
X61225000Y-138975000I0J-200000D01*
G01*
X61225000Y-139525000D01*
G75*
G02*
X61025000Y-139725000I-200000J0D01*
G01*
X60625000Y-139725000D01*
G75*
G02*
X60425000Y-139525000I0J200000D01*
G01*
G37*
%TD.AperFunction*%
%TO.P,R107,1*%
%TO.N,Net-(LCD101-Pad7)*%
%TA.AperFunction,SMDPad,CuDef*%
G36*
G01*
X58775000Y-139525000D02*
X58775000Y-138975000D01*
G75*
G02*
X58975000Y-138775000I200000J0D01*
G01*
X59375000Y-138775000D01*
G75*
G02*
X59575000Y-138975000I0J-200000D01*
G01*
X59575000Y-139525000D01*
G75*
G02*
X59375000Y-139725000I-200000J0D01*
G01*
X58975000Y-139725000D01*
G75*
G02*
X58775000Y-139525000I0J200000D01*
G01*
G37*
%TD.AperFunction*%
%TD*%
%TO.P,R106,2*%
%TO.N,/R_LCD_CLK*%
%TA.AperFunction,SMDPad,CuDef*%
G36*
G01*
X60425000Y-144275000D02*
X60425000Y-143725000D01*
G75*
G02*
X60625000Y-143525000I200000J0D01*
G01*
X61025000Y-143525000D01*
G75*
G02*
X61225000Y-143725000I0J-200000D01*
G01*
X61225000Y-144275000D01*
G75*
G02*
X61025000Y-144475000I-200000J0D01*
G01*
X60625000Y-144475000D01*
G75*
G02*
X60425000Y-144275000I0J200000D01*
G01*
G37*
%TD.AperFunction*%
%TO.P,R106,1*%
%TO.N,Net-(LCD101-Pad4)*%
%TA.AperFunction,SMDPad,CuDef*%
G36*
G01*
X58775000Y-144275000D02*
X58775000Y-143725000D01*
G75*
G02*
X58975000Y-143525000I200000J0D01*
G01*
X59375000Y-143525000D01*
G75*
G02*
X59575000Y-143725000I0J-200000D01*
G01*
X59575000Y-144275000D01*
G75*
G02*
X59375000Y-144475000I-200000J0D01*
G01*
X58975000Y-144475000D01*
G75*
G02*
X58775000Y-144275000I0J200000D01*
G01*
G37*
%TD.AperFunction*%
%TD*%
%TO.P,R105,2*%
%TO.N,/R_LCD_RESET*%
%TA.AperFunction,SMDPad,CuDef*%
G36*
G01*
X60425000Y-141025000D02*
X60425000Y-140475000D01*
G75*
G02*
X60625000Y-140275000I200000J0D01*
G01*
X61025000Y-140275000D01*
G75*
G02*
X61225000Y-140475000I0J-200000D01*
G01*
X61225000Y-141025000D01*
G75*
G02*
X61025000Y-141225000I-200000J0D01*
G01*
X60625000Y-141225000D01*
G75*
G02*
X60425000Y-141025000I0J200000D01*
G01*
G37*
%TD.AperFunction*%
%TO.P,R105,1*%
%TO.N,Net-(LCD101-Pad6)*%
%TA.AperFunction,SMDPad,CuDef*%
G36*
G01*
X58775000Y-141025000D02*
X58775000Y-140475000D01*
G75*
G02*
X58975000Y-140275000I200000J0D01*
G01*
X59375000Y-140275000D01*
G75*
G02*
X59575000Y-140475000I0J-200000D01*
G01*
X59575000Y-141025000D01*
G75*
G02*
X59375000Y-141225000I-200000J0D01*
G01*
X58975000Y-141225000D01*
G75*
G02*
X58775000Y-141025000I0J200000D01*
G01*
G37*
%TD.AperFunction*%
%TD*%
%TO.P,R104,2*%
%TO.N,Net-(Q101-Pad1)*%
%TA.AperFunction,SMDPad,CuDef*%
G36*
G01*
X54075000Y-127725000D02*
X54075000Y-128275000D01*
G75*
G02*
X53875000Y-128475000I-200000J0D01*
G01*
X53475000Y-128475000D01*
G75*
G02*
X53275000Y-128275000I0J200000D01*
G01*
X53275000Y-127725000D01*
G75*
G02*
X53475000Y-127525000I200000J0D01*
G01*
X53875000Y-127525000D01*
G75*
G02*
X54075000Y-127725000I0J-200000D01*
G01*
G37*
%TD.AperFunction*%
%TO.P,R104,1*%
%TO.N,/R_LCD_3.3V*%
%TA.AperFunction,SMDPad,CuDef*%
G36*
G01*
X55725000Y-127725000D02*
X55725000Y-128275000D01*
G75*
G02*
X55525000Y-128475000I-200000J0D01*
G01*
X55125000Y-128475000D01*
G75*
G02*
X54925000Y-128275000I0J200000D01*
G01*
X54925000Y-127725000D01*
G75*
G02*
X55125000Y-127525000I200000J0D01*
G01*
X55525000Y-127525000D01*
G75*
G02*
X55725000Y-127725000I0J-200000D01*
G01*
G37*
%TD.AperFunction*%
%TD*%
%TO.P,R103,2*%
%TO.N,/R_LCD_BL*%
%TA.AperFunction,SMDPad,CuDef*%
G36*
G01*
X54925000Y-129775000D02*
X54925000Y-129225000D01*
G75*
G02*
X55125000Y-129025000I200000J0D01*
G01*
X55525000Y-129025000D01*
G75*
G02*
X55725000Y-129225000I0J-200000D01*
G01*
X55725000Y-129775000D01*
G75*
G02*
X55525000Y-129975000I-200000J0D01*
G01*
X55125000Y-129975000D01*
G75*
G02*
X54925000Y-129775000I0J200000D01*
G01*
G37*
%TD.AperFunction*%
%TO.P,R103,1*%
%TO.N,Net-(Q101-Pad1)*%
%TA.AperFunction,SMDPad,CuDef*%
G36*
G01*
X53275000Y-129775000D02*
X53275000Y-129225000D01*
G75*
G02*
X53475000Y-129025000I200000J0D01*
G01*
X53875000Y-129025000D01*
G75*
G02*
X54075000Y-129225000I0J-200000D01*
G01*
X54075000Y-129775000D01*
G75*
G02*
X53875000Y-129975000I-200000J0D01*
G01*
X53475000Y-129975000D01*
G75*
G02*
X53275000Y-129775000I0J200000D01*
G01*
G37*
%TD.AperFunction*%
%TD*%
%TO.P,R102,2*%
%TO.N,/R_BTN*%
%TA.AperFunction,SMDPad,CuDef*%
G36*
G01*
X75825000Y-146975000D02*
X75825000Y-147525000D01*
G75*
G02*
X75625000Y-147725000I-200000J0D01*
G01*
X75225000Y-147725000D01*
G75*
G02*
X75025000Y-147525000I0J200000D01*
G01*
X75025000Y-146975000D01*
G75*
G02*
X75225000Y-146775000I200000J0D01*
G01*
X75625000Y-146775000D01*
G75*
G02*
X75825000Y-146975000I0J-200000D01*
G01*
G37*
%TD.AperFunction*%
%TO.P,R102,1*%
%TO.N,/R_LCD_3.3V*%
%TA.AperFunction,SMDPad,CuDef*%
G36*
G01*
X77475000Y-146975000D02*
X77475000Y-147525000D01*
G75*
G02*
X77275000Y-147725000I-200000J0D01*
G01*
X76875000Y-147725000D01*
G75*
G02*
X76675000Y-147525000I0J200000D01*
G01*
X76675000Y-146975000D01*
G75*
G02*
X76875000Y-146775000I200000J0D01*
G01*
X77275000Y-146775000D01*
G75*
G02*
X77475000Y-146975000I0J-200000D01*
G01*
G37*
%TD.AperFunction*%
%TD*%
%TO.P,R101,2*%
%TO.N,Net-(C101-Pad1)*%
%TA.AperFunction,SMDPad,CuDef*%
G36*
G01*
X76675000Y-149275000D02*
X76675000Y-148725000D01*
G75*
G02*
X76875000Y-148525000I200000J0D01*
G01*
X77275000Y-148525000D01*
G75*
G02*
X77475000Y-148725000I0J-200000D01*
G01*
X77475000Y-149275000D01*
G75*
G02*
X77275000Y-149475000I-200000J0D01*
G01*
X76875000Y-149475000D01*
G75*
G02*
X76675000Y-149275000I0J200000D01*
G01*
G37*
%TD.AperFunction*%
%TO.P,R101,1*%
%TO.N,/R_BTN*%
%TA.AperFunction,SMDPad,CuDef*%
G36*
G01*
X75025000Y-149275000D02*
X75025000Y-148725000D01*
G75*
G02*
X75225000Y-148525000I200000J0D01*
G01*
X75625000Y-148525000D01*
G75*
G02*
X75825000Y-148725000I0J-200000D01*
G01*
X75825000Y-149275000D01*
G75*
G02*
X75625000Y-149475000I-200000J0D01*
G01*
X75225000Y-149475000D01*
G75*
G02*
X75025000Y-149275000I0J200000D01*
G01*
G37*
%TD.AperFunction*%
%TD*%
D16*
%TO.P,Q102,3*%
%TO.N,Net-(BZ101-Pad2)*%
X67500000Y-142500000D03*
%TO.P,Q102,2*%
%TO.N,GND1*%
X66550000Y-144500000D03*
%TO.P,Q102,1*%
%TO.N,Net-(Q102-Pad1)*%
X68450000Y-144500000D03*
%TD*%
D17*
%TO.P,Q101,3*%
%TO.N,/R_LCD_3.3V*%
X47500000Y-129750000D03*
%TO.P,Q101,2*%
%TO.N,Net-(Q101-Pad2)*%
X45500000Y-128800000D03*
%TO.P,Q101,1*%
%TO.N,Net-(Q101-Pad1)*%
X45500000Y-130700000D03*
%TD*%
%TO.P,C103,2*%
%TO.N,GND1*%
%TA.AperFunction,SMDPad,CuDef*%
G36*
G01*
X59750000Y-135175000D02*
X59250000Y-135175000D01*
G75*
G02*
X59025000Y-134950000I0J225000D01*
G01*
X59025000Y-134500000D01*
G75*
G02*
X59250000Y-134275000I225000J0D01*
G01*
X59750000Y-134275000D01*
G75*
G02*
X59975000Y-134500000I0J-225000D01*
G01*
X59975000Y-134950000D01*
G75*
G02*
X59750000Y-135175000I-225000J0D01*
G01*
G37*
%TD.AperFunction*%
%TO.P,C103,1*%
%TO.N,/R_LCD_3.3V*%
%TA.AperFunction,SMDPad,CuDef*%
G36*
G01*
X59750000Y-136725000D02*
X59250000Y-136725000D01*
G75*
G02*
X59025000Y-136500000I0J225000D01*
G01*
X59025000Y-136050000D01*
G75*
G02*
X59250000Y-135825000I225000J0D01*
G01*
X59750000Y-135825000D01*
G75*
G02*
X59975000Y-136050000I0J-225000D01*
G01*
X59975000Y-136500000D01*
G75*
G02*
X59750000Y-136725000I-225000J0D01*
G01*
G37*
%TD.AperFunction*%
%TD*%
%TO.P,C102,2*%
%TO.N,GND1*%
%TA.AperFunction,SMDPad,CuDef*%
G36*
G01*
X58000000Y-135175000D02*
X57500000Y-135175000D01*
G75*
G02*
X57275000Y-134950000I0J225000D01*
G01*
X57275000Y-134500000D01*
G75*
G02*
X57500000Y-134275000I225000J0D01*
G01*
X58000000Y-134275000D01*
G75*
G02*
X58225000Y-134500000I0J-225000D01*
G01*
X58225000Y-134950000D01*
G75*
G02*
X58000000Y-135175000I-225000J0D01*
G01*
G37*
%TD.AperFunction*%
%TO.P,C102,1*%
%TO.N,/R_LCD_3.3V*%
%TA.AperFunction,SMDPad,CuDef*%
G36*
G01*
X58000000Y-136725000D02*
X57500000Y-136725000D01*
G75*
G02*
X57275000Y-136500000I0J225000D01*
G01*
X57275000Y-136050000D01*
G75*
G02*
X57500000Y-135825000I225000J0D01*
G01*
X58000000Y-135825000D01*
G75*
G02*
X58225000Y-136050000I0J-225000D01*
G01*
X58225000Y-136500000D01*
G75*
G02*
X58000000Y-136725000I-225000J0D01*
G01*
G37*
%TD.AperFunction*%
%TD*%
%TO.P,C101,2*%
%TO.N,GND1*%
%TA.AperFunction,SMDPad,CuDef*%
G36*
G01*
X68675000Y-147750000D02*
X68675000Y-148250000D01*
G75*
G02*
X68450000Y-148475000I-225000J0D01*
G01*
X68000000Y-148475000D01*
G75*
G02*
X67775000Y-148250000I0J225000D01*
G01*
X67775000Y-147750000D01*
G75*
G02*
X68000000Y-147525000I225000J0D01*
G01*
X68450000Y-147525000D01*
G75*
G02*
X68675000Y-147750000I0J-225000D01*
G01*
G37*
%TD.AperFunction*%
%TO.P,C101,1*%
%TO.N,Net-(C101-Pad1)*%
%TA.AperFunction,SMDPad,CuDef*%
G36*
G01*
X70225000Y-147750000D02*
X70225000Y-148250000D01*
G75*
G02*
X70000000Y-148475000I-225000J0D01*
G01*
X69550000Y-148475000D01*
G75*
G02*
X69325000Y-148250000I0J225000D01*
G01*
X69325000Y-147750000D01*
G75*
G02*
X69550000Y-147525000I225000J0D01*
G01*
X70000000Y-147525000D01*
G75*
G02*
X70225000Y-147750000I0J-225000D01*
G01*
G37*
%TD.AperFunction*%
%TD*%
D18*
%TO.N,GND1*%
X81000000Y-142750000D03*
X79500000Y-142750000D03*
X74500000Y-142750000D03*
X62000000Y-127250000D03*
X60500000Y-127250000D03*
X59750000Y-127250000D03*
X58250000Y-127250000D03*
X59000000Y-127250000D03*
X61250000Y-127250000D03*
X51500000Y-141250000D03*
X51500000Y-139000000D03*
X51500000Y-137500000D03*
X51500000Y-136750000D03*
X51500000Y-140500000D03*
X51500000Y-139750000D03*
X51500000Y-138250000D03*
X57750000Y-134000000D03*
X59500000Y-134000000D03*
X52750000Y-135750000D03*
X52750000Y-134250000D03*
X52750000Y-137750000D03*
X56750000Y-137750000D03*
X56750000Y-135625000D03*
X55000000Y-133500000D03*
X80250000Y-139750000D03*
X60000000Y-129500000D03*
X56250000Y-129500000D03*
X64750000Y-135250000D03*
X70709786Y-135945974D03*
X67250000Y-148000000D03*
X65750000Y-144500000D03*
X75250000Y-132250000D03*
X70250000Y-131000000D03*
%TO.N,/R_LCD_3.3V*%
X61025000Y-136275000D03*
X60250000Y-128500000D03*
%TO.N,/R_BTN*%
X71879945Y-147129945D03*
X71000000Y-135250000D03*
%TO.N,/R_LCD_RESET*%
X62000000Y-140750000D03*
X62280000Y-132000000D03*
%TO.N,/R_LCD_CLK*%
X63000000Y-133000000D03*
X62750226Y-140750226D03*
%TO.N,/R_LCD_CS*%
X61750000Y-139250000D03*
X61750000Y-131500000D03*
%TO.N,/R_LCD_DC*%
X62500000Y-142250000D03*
X70500000Y-132500000D03*
%TO.N,/R_LCD_MOSI*%
X70000000Y-133250010D03*
X63500226Y-140000226D03*
%TO.N,/R_BEEPER*%
X70000000Y-146750000D03*
X70802443Y-134267554D03*
%TO.N,Net-(BZ101-Pad2)*%
X75749990Y-134250000D03*
%TO.N,Net-(BZ101-Pad1)*%
X73750000Y-131500000D03*
%TO.N,Net-(C101-Pad1)*%
X72898000Y-144648000D03*
X78440527Y-144687202D03*
%TO.N,Net-(Q101-Pad1)*%
X48500000Y-130370000D03*
X44750000Y-130750000D03*
%TD*%
D19*
%TO.N,GND1*%
X57750000Y-134725000D02*
X57750000Y-134000000D01*
X59500000Y-134725000D02*
X59500000Y-134000000D01*
X52908000Y-135592000D02*
X52750000Y-135750000D01*
X54737000Y-135592000D02*
X52908000Y-135592000D01*
X52808000Y-134192000D02*
X52750000Y-134250000D01*
X54737000Y-134192000D02*
X52808000Y-134192000D01*
X52808000Y-137692000D02*
X52750000Y-137750000D01*
X54737000Y-137692000D02*
X52808000Y-137692000D01*
X56692000Y-137692000D02*
X56750000Y-137750000D01*
X54737000Y-137692000D02*
X56692000Y-137692000D01*
X56717000Y-135592000D02*
X56750000Y-135625000D01*
X54737000Y-135592000D02*
X56717000Y-135592000D01*
X54737000Y-133763000D02*
X55000000Y-133500000D01*
X54737000Y-134192000D02*
X54737000Y-133763000D01*
X58050000Y-129500000D02*
X60000000Y-129500000D01*
X58050000Y-129500000D02*
X56250000Y-129500000D01*
X64852000Y-135352000D02*
X64750000Y-135250000D01*
X66050000Y-135352000D02*
X64852000Y-135352000D01*
X66050000Y-135352000D02*
X66898000Y-135352000D01*
X68450000Y-134852000D02*
X68635757Y-134852000D01*
X68450000Y-134852000D02*
X67648000Y-134852000D01*
X67148000Y-135352000D02*
X66050000Y-135352000D01*
X67648000Y-134852000D02*
X67148000Y-135352000D01*
X68450000Y-134852000D02*
X69602000Y-134852000D01*
X70695974Y-135945974D02*
X70709786Y-135945974D01*
X69602000Y-134852000D02*
X70695974Y-135945974D01*
X68225000Y-148000000D02*
X67250000Y-148000000D01*
X66550000Y-144500000D02*
X65750000Y-144500000D01*
%TO.N,/R_LCD_3.3V*%
X54469990Y-127144990D02*
X50105010Y-127144990D01*
X55325000Y-128000000D02*
X54469990Y-127144990D01*
X50105010Y-127144990D02*
X47500000Y-129750000D01*
X64000000Y-139250000D02*
X61025000Y-136275000D01*
X61025000Y-136275000D02*
X59500000Y-136275000D01*
X57750000Y-136275000D02*
X59500000Y-136275000D01*
X54754000Y-136275000D02*
X54737000Y-136292000D01*
X57750000Y-136275000D02*
X54754000Y-136275000D01*
X55325000Y-128000000D02*
X59750000Y-128000000D01*
X59750000Y-128000000D02*
X60250000Y-128500000D01*
X61250000Y-129500000D02*
X60250000Y-128500000D01*
X62450000Y-129500000D02*
X61250000Y-129500000D01*
X66259181Y-130346990D02*
X66264191Y-130352000D01*
X65096990Y-130346990D02*
X66259181Y-130346990D01*
X64250000Y-129500000D02*
X65096990Y-130346990D01*
X62450000Y-129500000D02*
X64250000Y-129500000D01*
X67250000Y-129852000D02*
X66898000Y-129500000D01*
X66898000Y-129500000D02*
X64250000Y-129500000D01*
X68450000Y-129852000D02*
X67250000Y-129852000D01*
X64250000Y-139500000D02*
X64000000Y-139250000D01*
X66675000Y-139500000D02*
X64250000Y-139500000D01*
X77000000Y-147175000D02*
X77000000Y-130750000D01*
X77075000Y-147250000D02*
X77000000Y-147175000D01*
X68450000Y-129852000D02*
X69898000Y-129852000D01*
X69898000Y-129852000D02*
X70250000Y-129500000D01*
X75750000Y-129500000D02*
X77000000Y-130750000D01*
X70250000Y-129500000D02*
X75750000Y-129500000D01*
D20*
%TO.N,/R_BTN*%
X75425000Y-149000000D02*
X75425000Y-147250000D01*
X75304945Y-147129945D02*
X75425000Y-147250000D01*
X71879945Y-147129945D02*
X75304945Y-147129945D01*
D21*
X67050000Y-134352000D02*
X66050000Y-134352000D01*
X70101999Y-134351999D02*
X67050000Y-134352000D01*
X70101999Y-134351999D02*
X71000000Y-135250000D01*
%TO.N,/R_LCD_BL*%
X56677000Y-130852000D02*
X68450000Y-130852000D01*
X55325000Y-129500000D02*
X56677000Y-130852000D01*
%TO.N,/R_LCD_RESET*%
X60825000Y-140750000D02*
X62000000Y-140750000D01*
X62428000Y-131852000D02*
X62280000Y-132000000D01*
X68450000Y-131852000D02*
X62428000Y-131852000D01*
%TO.N,/R_LCD_CLK*%
X63148000Y-132852000D02*
X63000000Y-133000000D01*
X68450000Y-132852000D02*
X63148000Y-132852000D01*
X63120215Y-141120215D02*
X62750226Y-140750226D01*
X63120215Y-142414187D02*
X63120215Y-141120215D01*
X60825000Y-144000000D02*
X61534402Y-144000000D01*
X61534402Y-144000000D02*
X63120215Y-142414187D01*
%TO.N,/R_LCD_CS*%
X60825000Y-139250000D02*
X61750000Y-139250000D01*
X61898000Y-131352000D02*
X61750000Y-131500000D01*
X66050000Y-131352000D02*
X61898000Y-131352000D01*
%TO.N,/R_LCD_DC*%
X60825000Y-142250000D02*
X62500000Y-142250000D01*
X66050000Y-132352000D02*
X70352000Y-132352000D01*
X70352000Y-132352000D02*
X70500000Y-132500000D01*
%TO.N,/R_LCD_MOSI*%
X66050000Y-133352000D02*
X69898010Y-133352000D01*
X69898010Y-133352000D02*
X70000000Y-133250010D01*
X63500226Y-143074774D02*
X63500226Y-140000226D01*
X60825000Y-145750000D02*
X63500226Y-143074774D01*
D20*
%TO.N,/R_BEEPER*%
X70000000Y-146750000D02*
X69969990Y-146780010D01*
D21*
X70386889Y-133852000D02*
X68450000Y-133852000D01*
X70802443Y-134267554D02*
X70386889Y-133852000D01*
X69744990Y-147005010D02*
X67180010Y-147005010D01*
X67180010Y-147005010D02*
X66425000Y-146250000D01*
X70000000Y-146750000D02*
X69744990Y-147005010D01*
D19*
%TO.N,Net-(BZ101-Pad2)*%
X68325000Y-141000000D02*
X68000000Y-141000000D01*
X67500000Y-141500000D02*
X67500000Y-142500000D01*
X68000000Y-141000000D02*
X67500000Y-141500000D01*
X68325000Y-141000000D02*
X68999990Y-141000000D01*
X68999990Y-141000000D02*
X75749990Y-134250000D01*
%TO.N,Net-(BZ101-Pad1)*%
X68325000Y-139250000D02*
X68175000Y-139250000D01*
X68175000Y-139500000D02*
X66675000Y-141000000D01*
X68325000Y-139500000D02*
X68175000Y-139500000D01*
X73750000Y-134075000D02*
X68325000Y-139500000D01*
X73750000Y-131500000D02*
X73750000Y-134075000D01*
D20*
%TO.N,Net-(C101-Pad1)*%
X69775000Y-148000000D02*
X70225000Y-148000000D01*
X70225000Y-148000000D02*
X72898000Y-145327000D01*
X72898000Y-145327000D02*
X72898000Y-144648000D01*
X78440527Y-147634473D02*
X78440527Y-144687202D01*
X77075000Y-149000000D02*
X78440527Y-147634473D01*
D19*
%TO.N,Net-(LCD101-Pad12)*%
X56637001Y-132312001D02*
X55325000Y-131000000D01*
X56637001Y-134762001D02*
X56637001Y-132312001D01*
X56507002Y-134892000D02*
X56637001Y-134762001D01*
X54737000Y-134892000D02*
X56507002Y-134892000D01*
D21*
%TO.N,Net-(LCD101-Pad7)*%
X57750000Y-139250000D02*
X59175000Y-139250000D01*
X56892000Y-138392000D02*
X54737000Y-138392000D01*
X57750000Y-139250000D02*
X56892000Y-138392000D01*
%TO.N,Net-(LCD101-Pad6)*%
X59175000Y-140750000D02*
X58000000Y-140750000D01*
X56342000Y-139092000D02*
X54737000Y-139092000D01*
X58000000Y-140750000D02*
X56342000Y-139092000D01*
%TO.N,Net-(LCD101-Pad5)*%
X57750000Y-141250998D02*
X56291002Y-139792000D01*
X57750000Y-142000000D02*
X57750000Y-141250998D01*
X58000000Y-142250000D02*
X57750000Y-142000000D01*
X56291002Y-139792000D02*
X54737000Y-139792000D01*
X59175000Y-142250000D02*
X58000000Y-142250000D01*
%TO.N,Net-(LCD101-Pad4)*%
X56291002Y-140492000D02*
X54737000Y-140492000D01*
X57250000Y-141450998D02*
X56291002Y-140492000D01*
X57250000Y-143750000D02*
X57250000Y-141450998D01*
X57500000Y-144000000D02*
X57250000Y-143750000D01*
X59175000Y-144000000D02*
X57500000Y-144000000D01*
%TO.N,Net-(LCD101-Pad3)*%
X56291002Y-141192000D02*
X54737000Y-141192000D01*
X56750000Y-141650998D02*
X56291002Y-141192000D01*
X56750000Y-144500000D02*
X56750000Y-141650998D01*
X58000000Y-145750000D02*
X56750000Y-144500000D01*
X59175000Y-145750000D02*
X58000000Y-145750000D01*
D19*
%TO.N,Net-(Q101-Pad2)*%
X45500000Y-129165998D02*
X45500000Y-128800000D01*
X47334002Y-131000000D02*
X45500000Y-129165998D01*
X53675000Y-131000000D02*
X47334002Y-131000000D01*
%TO.N,Net-(Q101-Pad1)*%
X53675000Y-128000000D02*
X53675000Y-129500000D01*
X49370000Y-129500000D02*
X48500000Y-130370000D01*
X53675000Y-129500000D02*
X49370000Y-129500000D01*
X45450000Y-130750000D02*
X45500000Y-130700000D01*
X44750000Y-130750000D02*
X45450000Y-130750000D01*
D21*
%TO.N,Net-(Q102-Pad1)*%
X68075000Y-146250000D02*
X68075000Y-145675000D01*
X68450000Y-145300000D02*
X68450000Y-144500000D01*
X68075000Y-145675000D02*
X68450000Y-145300000D01*
%TD*%
D22*
%TO.N,GND1*%
X46714561Y-131561427D02*
X46740711Y-131593291D01*
X46867856Y-131697636D01*
X47012915Y-131775172D01*
X47170313Y-131822918D01*
X47292983Y-131835000D01*
X47292984Y-131835000D01*
X47334002Y-131839040D01*
X47375020Y-131835000D01*
X52855635Y-131835000D01*
X52882394Y-131867606D01*
X53009392Y-131971831D01*
X53154284Y-132049278D01*
X53311500Y-132096969D01*
X53475000Y-132113072D01*
X53875000Y-132113072D01*
X54038500Y-132096969D01*
X54195716Y-132049278D01*
X54340608Y-131971831D01*
X54467606Y-131867606D01*
X54500000Y-131828134D01*
X54532394Y-131867606D01*
X54659392Y-131971831D01*
X54804284Y-132049278D01*
X54961500Y-132096969D01*
X55125000Y-132113072D01*
X55257204Y-132113072D01*
X55802002Y-132657870D01*
X55802002Y-133305035D01*
X55022750Y-133307000D01*
X54864000Y-133465750D01*
X54864000Y-134003928D01*
X54610000Y-134003928D01*
X54610000Y-133465750D01*
X54451250Y-133307000D01*
X53242573Y-133303952D01*
X53117989Y-133315125D01*
X52997979Y-133350388D01*
X52887154Y-133408387D01*
X52789773Y-133486891D01*
X52709579Y-133582886D01*
X52649654Y-133692681D01*
X52612299Y-133812057D01*
X52602000Y-133910250D01*
X52760750Y-134069000D01*
X52961947Y-134069000D01*
X52882506Y-134111463D01*
X52785815Y-134190815D01*
X52706463Y-134287506D01*
X52647498Y-134397820D01*
X52634247Y-134441503D01*
X52602000Y-134473750D01*
X52608962Y-134540124D01*
X52598928Y-134642000D01*
X52598928Y-135142000D01*
X52608962Y-135243876D01*
X52602000Y-135310250D01*
X52634247Y-135342497D01*
X52647498Y-135386180D01*
X52706463Y-135496494D01*
X52784842Y-135592000D01*
X52706463Y-135687506D01*
X52647498Y-135797820D01*
X52634247Y-135841503D01*
X52602000Y-135873750D01*
X52608962Y-135940124D01*
X52598928Y-136042000D01*
X52598928Y-136542000D01*
X52608777Y-136642000D01*
X52598928Y-136742000D01*
X52598928Y-137242000D01*
X52608962Y-137343876D01*
X52602000Y-137410250D01*
X52634247Y-137442497D01*
X52647498Y-137486180D01*
X52706463Y-137596494D01*
X52784842Y-137692000D01*
X52706463Y-137787506D01*
X52647498Y-137897820D01*
X52634247Y-137941503D01*
X52602000Y-137973750D01*
X52608962Y-138040124D01*
X52598928Y-138142000D01*
X52598928Y-138642000D01*
X52608777Y-138742000D01*
X52598928Y-138842000D01*
X52598928Y-139342000D01*
X52608777Y-139442000D01*
X52598928Y-139542000D01*
X52598928Y-140042000D01*
X52608777Y-140142000D01*
X52598928Y-140242000D01*
X52598928Y-140742000D01*
X52608777Y-140842000D01*
X52598928Y-140942000D01*
X52598928Y-141442000D01*
X52608777Y-141542000D01*
X52598928Y-141642000D01*
X52598928Y-142142000D01*
X52608777Y-142242000D01*
X52598928Y-142342000D01*
X52598928Y-142842000D01*
X52611188Y-142966482D01*
X52647498Y-143086180D01*
X52706463Y-143196494D01*
X52785815Y-143293185D01*
X52882506Y-143372537D01*
X52992820Y-143431502D01*
X53112518Y-143467812D01*
X53237000Y-143480072D01*
X56015000Y-143480072D01*
X56015000Y-144463895D01*
X56011444Y-144500000D01*
X56025635Y-144644085D01*
X56029009Y-144655208D01*
X56067663Y-144782632D01*
X56135913Y-144910319D01*
X56227762Y-145022237D01*
X56255808Y-145045254D01*
X57454746Y-146244193D01*
X57477762Y-146272238D01*
X57589680Y-146364087D01*
X57717367Y-146432337D01*
X57832846Y-146467367D01*
X57855915Y-146474365D01*
X58000000Y-146488556D01*
X58036105Y-146485000D01*
X58275171Y-146485000D01*
X58278169Y-146490608D01*
X58382394Y-146617606D01*
X58509392Y-146721831D01*
X58654284Y-146799278D01*
X58811500Y-146846969D01*
X58975000Y-146863072D01*
X59375000Y-146863072D01*
X59538500Y-146846969D01*
X59695716Y-146799278D01*
X59840608Y-146721831D01*
X59967606Y-146617606D01*
X60000000Y-146578134D01*
X60032394Y-146617606D01*
X60159392Y-146721831D01*
X60304284Y-146799278D01*
X60461500Y-146846969D01*
X60625000Y-146863072D01*
X61025000Y-146863072D01*
X61188500Y-146846969D01*
X61345716Y-146799278D01*
X61490608Y-146721831D01*
X61617606Y-146617606D01*
X61721831Y-146490608D01*
X61799278Y-146345716D01*
X61846969Y-146188500D01*
X61863072Y-146025000D01*
X61863072Y-145751374D01*
X63564446Y-144050000D01*
X65511928Y-144050000D01*
X65515000Y-144214250D01*
X65673750Y-144373000D01*
X66423000Y-144373000D01*
X66423000Y-143573750D01*
X66264250Y-143415000D01*
X66150000Y-143411928D01*
X66025518Y-143424188D01*
X65905820Y-143460498D01*
X65795506Y-143519463D01*
X65698815Y-143598815D01*
X65619463Y-143695506D01*
X65560498Y-143805820D01*
X65524188Y-143925518D01*
X65511928Y-144050000D01*
X63564446Y-144050000D01*
X63994423Y-143620024D01*
X64022463Y-143597012D01*
X64045476Y-143568971D01*
X64045479Y-143568968D01*
X64070343Y-143538671D01*
X64114313Y-143485094D01*
X64182563Y-143357407D01*
X64224591Y-143218859D01*
X64235226Y-143110879D01*
X64235226Y-143110878D01*
X64238782Y-143074774D01*
X64235226Y-143038669D01*
X64235226Y-140493179D01*
X64284503Y-140419431D01*
X64319475Y-140335000D01*
X65737755Y-140335000D01*
X65700722Y-140404284D01*
X65653031Y-140561500D01*
X65636928Y-140725000D01*
X65636928Y-141275000D01*
X65653031Y-141438500D01*
X65700722Y-141595716D01*
X65778169Y-141740608D01*
X65882394Y-141867606D01*
X66009392Y-141971831D01*
X66154284Y-142049278D01*
X66311500Y-142096969D01*
X66461928Y-142111785D01*
X66461928Y-142950000D01*
X66474188Y-143074482D01*
X66510498Y-143194180D01*
X66569463Y-143304494D01*
X66648815Y-143401185D01*
X66745506Y-143480537D01*
X66761607Y-143489143D01*
X66677000Y-143573750D01*
X66677000Y-144373000D01*
X66697000Y-144373000D01*
X66697000Y-144627000D01*
X66677000Y-144627000D01*
X66677000Y-144647000D01*
X66423000Y-144647000D01*
X66423000Y-144627000D01*
X65673750Y-144627000D01*
X65515000Y-144785750D01*
X65511928Y-144950000D01*
X65524188Y-145074482D01*
X65560498Y-145194180D01*
X65619463Y-145304494D01*
X65662869Y-145357384D01*
X65632394Y-145382394D01*
X65528169Y-145509392D01*
X65450722Y-145654284D01*
X65403031Y-145811500D01*
X65386928Y-145975000D01*
X65386928Y-146525000D01*
X65403031Y-146688500D01*
X65450722Y-146845716D01*
X65528169Y-146990608D01*
X65632394Y-147117606D01*
X65759392Y-147221831D01*
X65904284Y-147299278D01*
X66061500Y-147346969D01*
X66225000Y-147363072D01*
X66498625Y-147363072D01*
X66634756Y-147499203D01*
X66657772Y-147527248D01*
X66769690Y-147619097D01*
X66897377Y-147687347D01*
X67035925Y-147729375D01*
X67143905Y-147740010D01*
X67143914Y-147740010D01*
X67168147Y-147742397D01*
X67298750Y-147873000D01*
X68098000Y-147873000D01*
X68098000Y-147853000D01*
X68352000Y-147853000D01*
X68352000Y-147873000D01*
X68372000Y-147873000D01*
X68372000Y-148127000D01*
X68352000Y-148127000D01*
X68352000Y-148951250D01*
X68510750Y-149110000D01*
X68675000Y-149113072D01*
X68799482Y-149100812D01*
X68919180Y-149064502D01*
X69029494Y-149005537D01*
X69073649Y-148969300D01*
X69219717Y-149047375D01*
X69381623Y-149096488D01*
X69550000Y-149113072D01*
X70000000Y-149113072D01*
X70168377Y-149096488D01*
X70330283Y-149047375D01*
X70479497Y-148967618D01*
X70610284Y-148860284D01*
X70717618Y-148729497D01*
X70797375Y-148580283D01*
X70831276Y-148468525D01*
X71415685Y-147884117D01*
X71460740Y-147914222D01*
X71621800Y-147980935D01*
X71792780Y-148014945D01*
X71967110Y-148014945D01*
X72138090Y-147980935D01*
X72299150Y-147914222D01*
X72335483Y-147889945D01*
X74474363Y-147889945D01*
X74528169Y-147990608D01*
X74632394Y-148117606D01*
X74641404Y-148125000D01*
X74632394Y-148132394D01*
X74528169Y-148259392D01*
X74450722Y-148404284D01*
X74403031Y-148561500D01*
X74386928Y-148725000D01*
X74386928Y-149275000D01*
X74403031Y-149438500D01*
X74450722Y-149595716D01*
X74503791Y-149695000D01*
X64112353Y-149695000D01*
X64078169Y-149698367D01*
X64065193Y-149698367D01*
X64055681Y-149699366D01*
X63861732Y-149721121D01*
X63801024Y-149734025D01*
X63740099Y-149746089D01*
X63730962Y-149748917D01*
X63544932Y-149807930D01*
X63492091Y-149830578D01*
X63412345Y-149750832D01*
X63279679Y-149662188D01*
X63132268Y-149601128D01*
X62975778Y-149570000D01*
X62816222Y-149570000D01*
X62659732Y-149601128D01*
X62521000Y-149658593D01*
X62382268Y-149601128D01*
X62225778Y-149570000D01*
X62066222Y-149570000D01*
X61909732Y-149601128D01*
X61771000Y-149658593D01*
X61632268Y-149601128D01*
X61475778Y-149570000D01*
X61316222Y-149570000D01*
X61159732Y-149601128D01*
X61012321Y-149662188D01*
X60879655Y-149750832D01*
X60799934Y-149830553D01*
X60791261Y-149826978D01*
X60734193Y-149802519D01*
X60725057Y-149799690D01*
X60538220Y-149743281D01*
X60477302Y-149731219D01*
X60416590Y-149718314D01*
X60407078Y-149717314D01*
X60212845Y-149698269D01*
X60212837Y-149698269D01*
X60179647Y-149695000D01*
X46112353Y-149695000D01*
X46078169Y-149698367D01*
X46065193Y-149698367D01*
X46055681Y-149699366D01*
X45861732Y-149721121D01*
X45801024Y-149734025D01*
X45740099Y-149746089D01*
X45730962Y-149748917D01*
X45544932Y-149807930D01*
X45492091Y-149830578D01*
X45412345Y-149750832D01*
X45279679Y-149662188D01*
X45132268Y-149601128D01*
X44975778Y-149570000D01*
X44816222Y-149570000D01*
X44659732Y-149601128D01*
X44521000Y-149658593D01*
X44382268Y-149601128D01*
X44225778Y-149570000D01*
X44066222Y-149570000D01*
X43909732Y-149601128D01*
X43771000Y-149658593D01*
X43632268Y-149601128D01*
X43475778Y-149570000D01*
X43316222Y-149570000D01*
X43159732Y-149601128D01*
X43012321Y-149662188D01*
X42879655Y-149750832D01*
X42799934Y-149830553D01*
X42799000Y-149830168D01*
X42799000Y-148475000D01*
X67136928Y-148475000D01*
X67149188Y-148599482D01*
X67185498Y-148719180D01*
X67244463Y-148829494D01*
X67323815Y-148926185D01*
X67420506Y-149005537D01*
X67530820Y-149064502D01*
X67650518Y-149100812D01*
X67775000Y-149113072D01*
X67939250Y-149110000D01*
X68098000Y-148951250D01*
X68098000Y-148127000D01*
X67298750Y-148127000D01*
X67140000Y-148285750D01*
X67136928Y-148475000D01*
X42799000Y-148475000D01*
X42799000Y-146015000D01*
X43179647Y-146015000D01*
X43208955Y-146012113D01*
X43215066Y-146012156D01*
X43224585Y-146011223D01*
X43418682Y-145990822D01*
X43479496Y-145978339D01*
X43540481Y-145966705D01*
X43549637Y-145963941D01*
X43736075Y-145906229D01*
X43793279Y-145882182D01*
X43850873Y-145858913D01*
X43859317Y-145854423D01*
X44030994Y-145761598D01*
X44082468Y-145726878D01*
X44134418Y-145692883D01*
X44141829Y-145686839D01*
X44292207Y-145562435D01*
X44335973Y-145518362D01*
X44380311Y-145474943D01*
X44386408Y-145467574D01*
X44509758Y-145316332D01*
X44544126Y-145264603D01*
X44579191Y-145213392D01*
X44583739Y-145204981D01*
X44583740Y-145204980D01*
X44583742Y-145204976D01*
X44675366Y-145032657D01*
X44699022Y-144975261D01*
X44723482Y-144918193D01*
X44726310Y-144909056D01*
X44782719Y-144722220D01*
X44794780Y-144661310D01*
X44807686Y-144600591D01*
X44808686Y-144591079D01*
X44827731Y-144396845D01*
X44827731Y-144396837D01*
X44831000Y-144363647D01*
X44831000Y-143486288D01*
X50279000Y-143486288D01*
X50279000Y-143719712D01*
X50324539Y-143948652D01*
X50413866Y-144164308D01*
X50543550Y-144358394D01*
X50708606Y-144523450D01*
X50902692Y-144653134D01*
X51118348Y-144742461D01*
X51347288Y-144788000D01*
X51580712Y-144788000D01*
X51809652Y-144742461D01*
X52025308Y-144653134D01*
X52219394Y-144523450D01*
X52384450Y-144358394D01*
X52514134Y-144164308D01*
X52603461Y-143948652D01*
X52649000Y-143719712D01*
X52649000Y-143486288D01*
X52603461Y-143257348D01*
X52514134Y-143041692D01*
X52384450Y-142847606D01*
X52219394Y-142682550D01*
X52025308Y-142552866D01*
X51809652Y-142463539D01*
X51580712Y-142418000D01*
X51347288Y-142418000D01*
X51118348Y-142463539D01*
X50902692Y-142552866D01*
X50708606Y-142682550D01*
X50543550Y-142847606D01*
X50413866Y-143041692D01*
X50324539Y-143257348D01*
X50279000Y-143486288D01*
X44831000Y-143486288D01*
X44831000Y-133086288D01*
X50279000Y-133086288D01*
X50279000Y-133319712D01*
X50324539Y-133548652D01*
X50413866Y-133764308D01*
X50543550Y-133958394D01*
X50708606Y-134123450D01*
X50902692Y-134253134D01*
X51118348Y-134342461D01*
X51347288Y-134388000D01*
X51580712Y-134388000D01*
X51809652Y-134342461D01*
X52025308Y-134253134D01*
X52219394Y-134123450D01*
X52384450Y-133958394D01*
X52514134Y-133764308D01*
X52603461Y-133548652D01*
X52649000Y-133319712D01*
X52649000Y-133086288D01*
X52603461Y-132857348D01*
X52514134Y-132641692D01*
X52384450Y-132447606D01*
X52219394Y-132282550D01*
X52025308Y-132152866D01*
X51809652Y-132063539D01*
X51580712Y-132018000D01*
X51347288Y-132018000D01*
X51118348Y-132063539D01*
X50902692Y-132152866D01*
X50708606Y-132282550D01*
X50543550Y-132447606D01*
X50413866Y-132641692D01*
X50324539Y-132857348D01*
X50279000Y-133086288D01*
X44831000Y-133086288D01*
X44831000Y-132396353D01*
X44828113Y-132367045D01*
X44828156Y-132360933D01*
X44827223Y-132351415D01*
X44806822Y-132157318D01*
X44794339Y-132096504D01*
X44782705Y-132035519D01*
X44779941Y-132026363D01*
X44722229Y-131839925D01*
X44698170Y-131782692D01*
X44674913Y-131725127D01*
X44670423Y-131716682D01*
X44621850Y-131626848D01*
X44662835Y-131635000D01*
X44703856Y-131635000D01*
X44805820Y-131689502D01*
X44925518Y-131725812D01*
X45050000Y-131738072D01*
X45950000Y-131738072D01*
X46074482Y-131725812D01*
X46194180Y-131689502D01*
X46304494Y-131630537D01*
X46401185Y-131551185D01*
X46480537Y-131454494D01*
X46524807Y-131371673D01*
X46714561Y-131561427D01*
%TA.AperFunction,Conductor*%
D23*
G36*
X46714561Y-131561427D02*
G01*
X46740711Y-131593291D01*
X46867856Y-131697636D01*
X47012915Y-131775172D01*
X47170313Y-131822918D01*
X47292983Y-131835000D01*
X47292984Y-131835000D01*
X47334002Y-131839040D01*
X47375020Y-131835000D01*
X52855635Y-131835000D01*
X52882394Y-131867606D01*
X53009392Y-131971831D01*
X53154284Y-132049278D01*
X53311500Y-132096969D01*
X53475000Y-132113072D01*
X53875000Y-132113072D01*
X54038500Y-132096969D01*
X54195716Y-132049278D01*
X54340608Y-131971831D01*
X54467606Y-131867606D01*
X54500000Y-131828134D01*
X54532394Y-131867606D01*
X54659392Y-131971831D01*
X54804284Y-132049278D01*
X54961500Y-132096969D01*
X55125000Y-132113072D01*
X55257204Y-132113072D01*
X55802002Y-132657870D01*
X55802002Y-133305035D01*
X55022750Y-133307000D01*
X54864000Y-133465750D01*
X54864000Y-134003928D01*
X54610000Y-134003928D01*
X54610000Y-133465750D01*
X54451250Y-133307000D01*
X53242573Y-133303952D01*
X53117989Y-133315125D01*
X52997979Y-133350388D01*
X52887154Y-133408387D01*
X52789773Y-133486891D01*
X52709579Y-133582886D01*
X52649654Y-133692681D01*
X52612299Y-133812057D01*
X52602000Y-133910250D01*
X52760750Y-134069000D01*
X52961947Y-134069000D01*
X52882506Y-134111463D01*
X52785815Y-134190815D01*
X52706463Y-134287506D01*
X52647498Y-134397820D01*
X52634247Y-134441503D01*
X52602000Y-134473750D01*
X52608962Y-134540124D01*
X52598928Y-134642000D01*
X52598928Y-135142000D01*
X52608962Y-135243876D01*
X52602000Y-135310250D01*
X52634247Y-135342497D01*
X52647498Y-135386180D01*
X52706463Y-135496494D01*
X52784842Y-135592000D01*
X52706463Y-135687506D01*
X52647498Y-135797820D01*
X52634247Y-135841503D01*
X52602000Y-135873750D01*
X52608962Y-135940124D01*
X52598928Y-136042000D01*
X52598928Y-136542000D01*
X52608777Y-136642000D01*
X52598928Y-136742000D01*
X52598928Y-137242000D01*
X52608962Y-137343876D01*
X52602000Y-137410250D01*
X52634247Y-137442497D01*
X52647498Y-137486180D01*
X52706463Y-137596494D01*
X52784842Y-137692000D01*
X52706463Y-137787506D01*
X52647498Y-137897820D01*
X52634247Y-137941503D01*
X52602000Y-137973750D01*
X52608962Y-138040124D01*
X52598928Y-138142000D01*
X52598928Y-138642000D01*
X52608777Y-138742000D01*
X52598928Y-138842000D01*
X52598928Y-139342000D01*
X52608777Y-139442000D01*
X52598928Y-139542000D01*
X52598928Y-140042000D01*
X52608777Y-140142000D01*
X52598928Y-140242000D01*
X52598928Y-140742000D01*
X52608777Y-140842000D01*
X52598928Y-140942000D01*
X52598928Y-141442000D01*
X52608777Y-141542000D01*
X52598928Y-141642000D01*
X52598928Y-142142000D01*
X52608777Y-142242000D01*
X52598928Y-142342000D01*
X52598928Y-142842000D01*
X52611188Y-142966482D01*
X52647498Y-143086180D01*
X52706463Y-143196494D01*
X52785815Y-143293185D01*
X52882506Y-143372537D01*
X52992820Y-143431502D01*
X53112518Y-143467812D01*
X53237000Y-143480072D01*
X56015000Y-143480072D01*
X56015000Y-144463895D01*
X56011444Y-144500000D01*
X56025635Y-144644085D01*
X56029009Y-144655208D01*
X56067663Y-144782632D01*
X56135913Y-144910319D01*
X56227762Y-145022237D01*
X56255808Y-145045254D01*
X57454746Y-146244193D01*
X57477762Y-146272238D01*
X57589680Y-146364087D01*
X57717367Y-146432337D01*
X57832846Y-146467367D01*
X57855915Y-146474365D01*
X58000000Y-146488556D01*
X58036105Y-146485000D01*
X58275171Y-146485000D01*
X58278169Y-146490608D01*
X58382394Y-146617606D01*
X58509392Y-146721831D01*
X58654284Y-146799278D01*
X58811500Y-146846969D01*
X58975000Y-146863072D01*
X59375000Y-146863072D01*
X59538500Y-146846969D01*
X59695716Y-146799278D01*
X59840608Y-146721831D01*
X59967606Y-146617606D01*
X60000000Y-146578134D01*
X60032394Y-146617606D01*
X60159392Y-146721831D01*
X60304284Y-146799278D01*
X60461500Y-146846969D01*
X60625000Y-146863072D01*
X61025000Y-146863072D01*
X61188500Y-146846969D01*
X61345716Y-146799278D01*
X61490608Y-146721831D01*
X61617606Y-146617606D01*
X61721831Y-146490608D01*
X61799278Y-146345716D01*
X61846969Y-146188500D01*
X61863072Y-146025000D01*
X61863072Y-145751374D01*
X63564446Y-144050000D01*
X65511928Y-144050000D01*
X65515000Y-144214250D01*
X65673750Y-144373000D01*
X66423000Y-144373000D01*
X66423000Y-143573750D01*
X66264250Y-143415000D01*
X66150000Y-143411928D01*
X66025518Y-143424188D01*
X65905820Y-143460498D01*
X65795506Y-143519463D01*
X65698815Y-143598815D01*
X65619463Y-143695506D01*
X65560498Y-143805820D01*
X65524188Y-143925518D01*
X65511928Y-144050000D01*
X63564446Y-144050000D01*
X63994423Y-143620024D01*
X64022463Y-143597012D01*
X64045476Y-143568971D01*
X64045479Y-143568968D01*
X64070343Y-143538671D01*
X64114313Y-143485094D01*
X64182563Y-143357407D01*
X64224591Y-143218859D01*
X64235226Y-143110879D01*
X64235226Y-143110878D01*
X64238782Y-143074774D01*
X64235226Y-143038669D01*
X64235226Y-140493179D01*
X64284503Y-140419431D01*
X64319475Y-140335000D01*
X65737755Y-140335000D01*
X65700722Y-140404284D01*
X65653031Y-140561500D01*
X65636928Y-140725000D01*
X65636928Y-141275000D01*
X65653031Y-141438500D01*
X65700722Y-141595716D01*
X65778169Y-141740608D01*
X65882394Y-141867606D01*
X66009392Y-141971831D01*
X66154284Y-142049278D01*
X66311500Y-142096969D01*
X66461928Y-142111785D01*
X66461928Y-142950000D01*
X66474188Y-143074482D01*
X66510498Y-143194180D01*
X66569463Y-143304494D01*
X66648815Y-143401185D01*
X66745506Y-143480537D01*
X66761607Y-143489143D01*
X66677000Y-143573750D01*
X66677000Y-144373000D01*
X66697000Y-144373000D01*
X66697000Y-144627000D01*
X66677000Y-144627000D01*
X66677000Y-144647000D01*
X66423000Y-144647000D01*
X66423000Y-144627000D01*
X65673750Y-144627000D01*
X65515000Y-144785750D01*
X65511928Y-144950000D01*
X65524188Y-145074482D01*
X65560498Y-145194180D01*
X65619463Y-145304494D01*
X65662869Y-145357384D01*
X65632394Y-145382394D01*
X65528169Y-145509392D01*
X65450722Y-145654284D01*
X65403031Y-145811500D01*
X65386928Y-145975000D01*
X65386928Y-146525000D01*
X65403031Y-146688500D01*
X65450722Y-146845716D01*
X65528169Y-146990608D01*
X65632394Y-147117606D01*
X65759392Y-147221831D01*
X65904284Y-147299278D01*
X66061500Y-147346969D01*
X66225000Y-147363072D01*
X66498625Y-147363072D01*
X66634756Y-147499203D01*
X66657772Y-147527248D01*
X66769690Y-147619097D01*
X66897377Y-147687347D01*
X67035925Y-147729375D01*
X67143905Y-147740010D01*
X67143914Y-147740010D01*
X67168147Y-147742397D01*
X67298750Y-147873000D01*
X68098000Y-147873000D01*
X68098000Y-147853000D01*
X68352000Y-147853000D01*
X68352000Y-147873000D01*
X68372000Y-147873000D01*
X68372000Y-148127000D01*
X68352000Y-148127000D01*
X68352000Y-148951250D01*
X68510750Y-149110000D01*
X68675000Y-149113072D01*
X68799482Y-149100812D01*
X68919180Y-149064502D01*
X69029494Y-149005537D01*
X69073649Y-148969300D01*
X69219717Y-149047375D01*
X69381623Y-149096488D01*
X69550000Y-149113072D01*
X70000000Y-149113072D01*
X70168377Y-149096488D01*
X70330283Y-149047375D01*
X70479497Y-148967618D01*
X70610284Y-148860284D01*
X70717618Y-148729497D01*
X70797375Y-148580283D01*
X70831276Y-148468525D01*
X71415685Y-147884117D01*
X71460740Y-147914222D01*
X71621800Y-147980935D01*
X71792780Y-148014945D01*
X71967110Y-148014945D01*
X72138090Y-147980935D01*
X72299150Y-147914222D01*
X72335483Y-147889945D01*
X74474363Y-147889945D01*
X74528169Y-147990608D01*
X74632394Y-148117606D01*
X74641404Y-148125000D01*
X74632394Y-148132394D01*
X74528169Y-148259392D01*
X74450722Y-148404284D01*
X74403031Y-148561500D01*
X74386928Y-148725000D01*
X74386928Y-149275000D01*
X74403031Y-149438500D01*
X74450722Y-149595716D01*
X74503791Y-149695000D01*
X64112353Y-149695000D01*
X64078169Y-149698367D01*
X64065193Y-149698367D01*
X64055681Y-149699366D01*
X63861732Y-149721121D01*
X63801024Y-149734025D01*
X63740099Y-149746089D01*
X63730962Y-149748917D01*
X63544932Y-149807930D01*
X63492091Y-149830578D01*
X63412345Y-149750832D01*
X63279679Y-149662188D01*
X63132268Y-149601128D01*
X62975778Y-149570000D01*
X62816222Y-149570000D01*
X62659732Y-149601128D01*
X62521000Y-149658593D01*
X62382268Y-149601128D01*
X62225778Y-149570000D01*
X62066222Y-149570000D01*
X61909732Y-149601128D01*
X61771000Y-149658593D01*
X61632268Y-149601128D01*
X61475778Y-149570000D01*
X61316222Y-149570000D01*
X61159732Y-149601128D01*
X61012321Y-149662188D01*
X60879655Y-149750832D01*
X60799934Y-149830553D01*
X60791261Y-149826978D01*
X60734193Y-149802519D01*
X60725057Y-149799690D01*
X60538220Y-149743281D01*
X60477302Y-149731219D01*
X60416590Y-149718314D01*
X60407078Y-149717314D01*
X60212845Y-149698269D01*
X60212837Y-149698269D01*
X60179647Y-149695000D01*
X46112353Y-149695000D01*
X46078169Y-149698367D01*
X46065193Y-149698367D01*
X46055681Y-149699366D01*
X45861732Y-149721121D01*
X45801024Y-149734025D01*
X45740099Y-149746089D01*
X45730962Y-149748917D01*
X45544932Y-149807930D01*
X45492091Y-149830578D01*
X45412345Y-149750832D01*
X45279679Y-149662188D01*
X45132268Y-149601128D01*
X44975778Y-149570000D01*
X44816222Y-149570000D01*
X44659732Y-149601128D01*
X44521000Y-149658593D01*
X44382268Y-149601128D01*
X44225778Y-149570000D01*
X44066222Y-149570000D01*
X43909732Y-149601128D01*
X43771000Y-149658593D01*
X43632268Y-149601128D01*
X43475778Y-149570000D01*
X43316222Y-149570000D01*
X43159732Y-149601128D01*
X43012321Y-149662188D01*
X42879655Y-149750832D01*
X42799934Y-149830553D01*
X42799000Y-149830168D01*
X42799000Y-148475000D01*
X67136928Y-148475000D01*
X67149188Y-148599482D01*
X67185498Y-148719180D01*
X67244463Y-148829494D01*
X67323815Y-148926185D01*
X67420506Y-149005537D01*
X67530820Y-149064502D01*
X67650518Y-149100812D01*
X67775000Y-149113072D01*
X67939250Y-149110000D01*
X68098000Y-148951250D01*
X68098000Y-148127000D01*
X67298750Y-148127000D01*
X67140000Y-148285750D01*
X67136928Y-148475000D01*
X42799000Y-148475000D01*
X42799000Y-146015000D01*
X43179647Y-146015000D01*
X43208955Y-146012113D01*
X43215066Y-146012156D01*
X43224585Y-146011223D01*
X43418682Y-145990822D01*
X43479496Y-145978339D01*
X43540481Y-145966705D01*
X43549637Y-145963941D01*
X43736075Y-145906229D01*
X43793279Y-145882182D01*
X43850873Y-145858913D01*
X43859317Y-145854423D01*
X44030994Y-145761598D01*
X44082468Y-145726878D01*
X44134418Y-145692883D01*
X44141829Y-145686839D01*
X44292207Y-145562435D01*
X44335973Y-145518362D01*
X44380311Y-145474943D01*
X44386408Y-145467574D01*
X44509758Y-145316332D01*
X44544126Y-145264603D01*
X44579191Y-145213392D01*
X44583739Y-145204981D01*
X44583740Y-145204980D01*
X44583742Y-145204976D01*
X44675366Y-145032657D01*
X44699022Y-144975261D01*
X44723482Y-144918193D01*
X44726310Y-144909056D01*
X44782719Y-144722220D01*
X44794780Y-144661310D01*
X44807686Y-144600591D01*
X44808686Y-144591079D01*
X44827731Y-144396845D01*
X44827731Y-144396837D01*
X44831000Y-144363647D01*
X44831000Y-143486288D01*
X50279000Y-143486288D01*
X50279000Y-143719712D01*
X50324539Y-143948652D01*
X50413866Y-144164308D01*
X50543550Y-144358394D01*
X50708606Y-144523450D01*
X50902692Y-144653134D01*
X51118348Y-144742461D01*
X51347288Y-144788000D01*
X51580712Y-144788000D01*
X51809652Y-144742461D01*
X52025308Y-144653134D01*
X52219394Y-144523450D01*
X52384450Y-144358394D01*
X52514134Y-144164308D01*
X52603461Y-143948652D01*
X52649000Y-143719712D01*
X52649000Y-143486288D01*
X52603461Y-143257348D01*
X52514134Y-143041692D01*
X52384450Y-142847606D01*
X52219394Y-142682550D01*
X52025308Y-142552866D01*
X51809652Y-142463539D01*
X51580712Y-142418000D01*
X51347288Y-142418000D01*
X51118348Y-142463539D01*
X50902692Y-142552866D01*
X50708606Y-142682550D01*
X50543550Y-142847606D01*
X50413866Y-143041692D01*
X50324539Y-143257348D01*
X50279000Y-143486288D01*
X44831000Y-143486288D01*
X44831000Y-133086288D01*
X50279000Y-133086288D01*
X50279000Y-133319712D01*
X50324539Y-133548652D01*
X50413866Y-133764308D01*
X50543550Y-133958394D01*
X50708606Y-134123450D01*
X50902692Y-134253134D01*
X51118348Y-134342461D01*
X51347288Y-134388000D01*
X51580712Y-134388000D01*
X51809652Y-134342461D01*
X52025308Y-134253134D01*
X52219394Y-134123450D01*
X52384450Y-133958394D01*
X52514134Y-133764308D01*
X52603461Y-133548652D01*
X52649000Y-133319712D01*
X52649000Y-133086288D01*
X52603461Y-132857348D01*
X52514134Y-132641692D01*
X52384450Y-132447606D01*
X52219394Y-132282550D01*
X52025308Y-132152866D01*
X51809652Y-132063539D01*
X51580712Y-132018000D01*
X51347288Y-132018000D01*
X51118348Y-132063539D01*
X50902692Y-132152866D01*
X50708606Y-132282550D01*
X50543550Y-132447606D01*
X50413866Y-132641692D01*
X50324539Y-132857348D01*
X50279000Y-133086288D01*
X44831000Y-133086288D01*
X44831000Y-132396353D01*
X44828113Y-132367045D01*
X44828156Y-132360933D01*
X44827223Y-132351415D01*
X44806822Y-132157318D01*
X44794339Y-132096504D01*
X44782705Y-132035519D01*
X44779941Y-132026363D01*
X44722229Y-131839925D01*
X44698170Y-131782692D01*
X44674913Y-131725127D01*
X44670423Y-131716682D01*
X44621850Y-131626848D01*
X44662835Y-131635000D01*
X44703856Y-131635000D01*
X44805820Y-131689502D01*
X44925518Y-131725812D01*
X45050000Y-131738072D01*
X45950000Y-131738072D01*
X46074482Y-131725812D01*
X46194180Y-131689502D01*
X46304494Y-131630537D01*
X46401185Y-131551185D01*
X46480537Y-131454494D01*
X46524807Y-131371673D01*
X46714561Y-131561427D01*
G37*
%TD.AperFunction*%
D22*
X78879655Y-127009168D02*
X79012321Y-127097812D01*
X79159732Y-127158872D01*
X79316222Y-127190000D01*
X79475778Y-127190000D01*
X79632268Y-127158872D01*
X79771000Y-127101407D01*
X79909732Y-127158872D01*
X80066222Y-127190000D01*
X80225778Y-127190000D01*
X80382268Y-127158872D01*
X80521000Y-127101407D01*
X80659732Y-127158872D01*
X80816222Y-127190000D01*
X80975778Y-127190000D01*
X81132268Y-127158872D01*
X81279679Y-127097812D01*
X81412345Y-127009168D01*
X81492065Y-126929448D01*
X81500739Y-126933022D01*
X81557807Y-126957482D01*
X81566944Y-126960310D01*
X81753780Y-127016719D01*
X81814690Y-127028780D01*
X81875409Y-127041686D01*
X81884921Y-127042686D01*
X82079155Y-127061731D01*
X82079163Y-127061731D01*
X82112353Y-127065000D01*
X86461001Y-127065000D01*
X86461000Y-149695000D01*
X82112353Y-149695000D01*
X82078169Y-149698367D01*
X82065193Y-149698367D01*
X82055681Y-149699366D01*
X81861732Y-149721121D01*
X81801024Y-149734025D01*
X81740099Y-149746089D01*
X81730962Y-149748917D01*
X81544932Y-149807930D01*
X81492091Y-149830578D01*
X81412345Y-149750832D01*
X81279679Y-149662188D01*
X81132268Y-149601128D01*
X80975778Y-149570000D01*
X80816222Y-149570000D01*
X80659732Y-149601128D01*
X80521000Y-149658593D01*
X80382268Y-149601128D01*
X80225778Y-149570000D01*
X80066222Y-149570000D01*
X79909732Y-149601128D01*
X79771000Y-149658593D01*
X79632268Y-149601128D01*
X79475778Y-149570000D01*
X79316222Y-149570000D01*
X79159732Y-149601128D01*
X79012321Y-149662188D01*
X78879655Y-149750832D01*
X78799934Y-149830553D01*
X78791261Y-149826978D01*
X78734193Y-149802519D01*
X78725057Y-149799690D01*
X78538220Y-149743281D01*
X78477302Y-149731219D01*
X78416590Y-149718314D01*
X78407078Y-149717314D01*
X78212845Y-149698269D01*
X78212837Y-149698269D01*
X78179647Y-149695000D01*
X77996209Y-149695000D01*
X78049278Y-149595716D01*
X78096969Y-149438500D01*
X78113072Y-149275000D01*
X78113072Y-149036729D01*
X78951531Y-148198271D01*
X78980528Y-148174474D01*
X79075501Y-148058749D01*
X79146073Y-147926720D01*
X79189530Y-147783459D01*
X79196367Y-147714042D01*
X82961000Y-147714042D01*
X82961000Y-148045958D01*
X83025754Y-148371496D01*
X83152772Y-148678147D01*
X83337175Y-148954125D01*
X83571875Y-149188825D01*
X83847853Y-149373228D01*
X84154504Y-149500246D01*
X84480042Y-149565000D01*
X84811958Y-149565000D01*
X85137496Y-149500246D01*
X85444147Y-149373228D01*
X85720125Y-149188825D01*
X85954825Y-148954125D01*
X86139228Y-148678147D01*
X86266246Y-148371496D01*
X86331000Y-148045958D01*
X86331000Y-147714042D01*
X86266246Y-147388504D01*
X86139228Y-147081853D01*
X85954825Y-146805875D01*
X85720125Y-146571175D01*
X85444147Y-146386772D01*
X85137496Y-146259754D01*
X84811958Y-146195000D01*
X84480042Y-146195000D01*
X84154504Y-146259754D01*
X83847853Y-146386772D01*
X83571875Y-146571175D01*
X83337175Y-146805875D01*
X83152772Y-147081853D01*
X83025754Y-147388504D01*
X82961000Y-147714042D01*
X79196367Y-147714042D01*
X79200527Y-147671806D01*
X79200527Y-147671796D01*
X79204203Y-147634473D01*
X79200527Y-147597150D01*
X79200527Y-145142740D01*
X79224804Y-145106407D01*
X79291517Y-144945347D01*
X79325527Y-144774367D01*
X79325527Y-144600037D01*
X79291517Y-144429057D01*
X79224804Y-144267997D01*
X79127951Y-144123047D01*
X79004682Y-143999778D01*
X78859732Y-143902925D01*
X78698672Y-143836212D01*
X78527692Y-143802202D01*
X78353362Y-143802202D01*
X78182382Y-143836212D01*
X78021322Y-143902925D01*
X77876372Y-143999778D01*
X77835000Y-144041150D01*
X77835000Y-137363195D01*
X81161000Y-137363195D01*
X81161000Y-137636805D01*
X81214378Y-137905156D01*
X81319084Y-138157938D01*
X81471093Y-138385436D01*
X81664564Y-138578907D01*
X81892062Y-138730916D01*
X82144844Y-138835622D01*
X82413195Y-138889000D01*
X82686805Y-138889000D01*
X82955156Y-138835622D01*
X83207938Y-138730916D01*
X83435436Y-138578907D01*
X83628907Y-138385436D01*
X83780916Y-138157938D01*
X83885622Y-137905156D01*
X83939000Y-137636805D01*
X83939000Y-137363195D01*
X83885622Y-137094844D01*
X83780916Y-136842062D01*
X83628907Y-136614564D01*
X83435436Y-136421093D01*
X83207938Y-136269084D01*
X82955156Y-136164378D01*
X82686805Y-136111000D01*
X82413195Y-136111000D01*
X82144844Y-136164378D01*
X81892062Y-136269084D01*
X81664564Y-136421093D01*
X81471093Y-136614564D01*
X81319084Y-136842062D01*
X81214378Y-137094844D01*
X81161000Y-137363195D01*
X77835000Y-137363195D01*
X77835000Y-130791018D01*
X77839040Y-130750000D01*
X77822918Y-130586311D01*
X77775172Y-130428913D01*
X77697636Y-130283854D01*
X77619439Y-130188570D01*
X77619437Y-130188568D01*
X77593291Y-130156709D01*
X77561432Y-130130563D01*
X76369445Y-128938578D01*
X76343291Y-128906709D01*
X76216146Y-128802364D01*
X76071087Y-128724828D01*
X76035531Y-128714042D01*
X82961000Y-128714042D01*
X82961000Y-129045958D01*
X83025754Y-129371496D01*
X83152772Y-129678147D01*
X83337175Y-129954125D01*
X83571875Y-130188825D01*
X83847853Y-130373228D01*
X84154504Y-130500246D01*
X84480042Y-130565000D01*
X84811958Y-130565000D01*
X85137496Y-130500246D01*
X85444147Y-130373228D01*
X85720125Y-130188825D01*
X85954825Y-129954125D01*
X86139228Y-129678147D01*
X86266246Y-129371496D01*
X86331000Y-129045958D01*
X86331000Y-128714042D01*
X86266246Y-128388504D01*
X86139228Y-128081853D01*
X85954825Y-127805875D01*
X85720125Y-127571175D01*
X85444147Y-127386772D01*
X85137496Y-127259754D01*
X84811958Y-127195000D01*
X84480042Y-127195000D01*
X84154504Y-127259754D01*
X83847853Y-127386772D01*
X83571875Y-127571175D01*
X83337175Y-127805875D01*
X83152772Y-128081853D01*
X83025754Y-128388504D01*
X82961000Y-128714042D01*
X76035531Y-128714042D01*
X75913689Y-128677082D01*
X75791019Y-128665000D01*
X75791018Y-128665000D01*
X75750000Y-128660960D01*
X75708982Y-128665000D01*
X70291018Y-128665000D01*
X70249999Y-128660960D01*
X70208981Y-128665000D01*
X70086311Y-128677082D01*
X69928913Y-128724828D01*
X69783854Y-128802364D01*
X69656709Y-128906709D01*
X69630554Y-128938579D01*
X69552133Y-129017000D01*
X69313521Y-129017000D01*
X69325812Y-128976482D01*
X69338072Y-128852000D01*
X69338072Y-127452000D01*
X69325812Y-127327518D01*
X69289502Y-127207820D01*
X69230537Y-127097506D01*
X69203860Y-127065000D01*
X78179647Y-127065000D01*
X78213822Y-127061634D01*
X78226806Y-127061634D01*
X78236318Y-127060634D01*
X78430268Y-127038879D01*
X78490976Y-127025975D01*
X78551901Y-127013911D01*
X78561038Y-127011083D01*
X78747068Y-126952070D01*
X78799909Y-126929422D01*
X78879655Y-127009168D01*
%TA.AperFunction,Conductor*%
D23*
G36*
X78879655Y-127009168D02*
G01*
X79012321Y-127097812D01*
X79159732Y-127158872D01*
X79316222Y-127190000D01*
X79475778Y-127190000D01*
X79632268Y-127158872D01*
X79771000Y-127101407D01*
X79909732Y-127158872D01*
X80066222Y-127190000D01*
X80225778Y-127190000D01*
X80382268Y-127158872D01*
X80521000Y-127101407D01*
X80659732Y-127158872D01*
X80816222Y-127190000D01*
X80975778Y-127190000D01*
X81132268Y-127158872D01*
X81279679Y-127097812D01*
X81412345Y-127009168D01*
X81492065Y-126929448D01*
X81500739Y-126933022D01*
X81557807Y-126957482D01*
X81566944Y-126960310D01*
X81753780Y-127016719D01*
X81814690Y-127028780D01*
X81875409Y-127041686D01*
X81884921Y-127042686D01*
X82079155Y-127061731D01*
X82079163Y-127061731D01*
X82112353Y-127065000D01*
X86461001Y-127065000D01*
X86461000Y-149695000D01*
X82112353Y-149695000D01*
X82078169Y-149698367D01*
X82065193Y-149698367D01*
X82055681Y-149699366D01*
X81861732Y-149721121D01*
X81801024Y-149734025D01*
X81740099Y-149746089D01*
X81730962Y-149748917D01*
X81544932Y-149807930D01*
X81492091Y-149830578D01*
X81412345Y-149750832D01*
X81279679Y-149662188D01*
X81132268Y-149601128D01*
X80975778Y-149570000D01*
X80816222Y-149570000D01*
X80659732Y-149601128D01*
X80521000Y-149658593D01*
X80382268Y-149601128D01*
X80225778Y-149570000D01*
X80066222Y-149570000D01*
X79909732Y-149601128D01*
X79771000Y-149658593D01*
X79632268Y-149601128D01*
X79475778Y-149570000D01*
X79316222Y-149570000D01*
X79159732Y-149601128D01*
X79012321Y-149662188D01*
X78879655Y-149750832D01*
X78799934Y-149830553D01*
X78791261Y-149826978D01*
X78734193Y-149802519D01*
X78725057Y-149799690D01*
X78538220Y-149743281D01*
X78477302Y-149731219D01*
X78416590Y-149718314D01*
X78407078Y-149717314D01*
X78212845Y-149698269D01*
X78212837Y-149698269D01*
X78179647Y-149695000D01*
X77996209Y-149695000D01*
X78049278Y-149595716D01*
X78096969Y-149438500D01*
X78113072Y-149275000D01*
X78113072Y-149036729D01*
X78951531Y-148198271D01*
X78980528Y-148174474D01*
X79075501Y-148058749D01*
X79146073Y-147926720D01*
X79189530Y-147783459D01*
X79196367Y-147714042D01*
X82961000Y-147714042D01*
X82961000Y-148045958D01*
X83025754Y-148371496D01*
X83152772Y-148678147D01*
X83337175Y-148954125D01*
X83571875Y-149188825D01*
X83847853Y-149373228D01*
X84154504Y-149500246D01*
X84480042Y-149565000D01*
X84811958Y-149565000D01*
X85137496Y-149500246D01*
X85444147Y-149373228D01*
X85720125Y-149188825D01*
X85954825Y-148954125D01*
X86139228Y-148678147D01*
X86266246Y-148371496D01*
X86331000Y-148045958D01*
X86331000Y-147714042D01*
X86266246Y-147388504D01*
X86139228Y-147081853D01*
X85954825Y-146805875D01*
X85720125Y-146571175D01*
X85444147Y-146386772D01*
X85137496Y-146259754D01*
X84811958Y-146195000D01*
X84480042Y-146195000D01*
X84154504Y-146259754D01*
X83847853Y-146386772D01*
X83571875Y-146571175D01*
X83337175Y-146805875D01*
X83152772Y-147081853D01*
X83025754Y-147388504D01*
X82961000Y-147714042D01*
X79196367Y-147714042D01*
X79200527Y-147671806D01*
X79200527Y-147671796D01*
X79204203Y-147634473D01*
X79200527Y-147597150D01*
X79200527Y-145142740D01*
X79224804Y-145106407D01*
X79291517Y-144945347D01*
X79325527Y-144774367D01*
X79325527Y-144600037D01*
X79291517Y-144429057D01*
X79224804Y-144267997D01*
X79127951Y-144123047D01*
X79004682Y-143999778D01*
X78859732Y-143902925D01*
X78698672Y-143836212D01*
X78527692Y-143802202D01*
X78353362Y-143802202D01*
X78182382Y-143836212D01*
X78021322Y-143902925D01*
X77876372Y-143999778D01*
X77835000Y-144041150D01*
X77835000Y-137363195D01*
X81161000Y-137363195D01*
X81161000Y-137636805D01*
X81214378Y-137905156D01*
X81319084Y-138157938D01*
X81471093Y-138385436D01*
X81664564Y-138578907D01*
X81892062Y-138730916D01*
X82144844Y-138835622D01*
X82413195Y-138889000D01*
X82686805Y-138889000D01*
X82955156Y-138835622D01*
X83207938Y-138730916D01*
X83435436Y-138578907D01*
X83628907Y-138385436D01*
X83780916Y-138157938D01*
X83885622Y-137905156D01*
X83939000Y-137636805D01*
X83939000Y-137363195D01*
X83885622Y-137094844D01*
X83780916Y-136842062D01*
X83628907Y-136614564D01*
X83435436Y-136421093D01*
X83207938Y-136269084D01*
X82955156Y-136164378D01*
X82686805Y-136111000D01*
X82413195Y-136111000D01*
X82144844Y-136164378D01*
X81892062Y-136269084D01*
X81664564Y-136421093D01*
X81471093Y-136614564D01*
X81319084Y-136842062D01*
X81214378Y-137094844D01*
X81161000Y-137363195D01*
X77835000Y-137363195D01*
X77835000Y-130791018D01*
X77839040Y-130750000D01*
X77822918Y-130586311D01*
X77775172Y-130428913D01*
X77697636Y-130283854D01*
X77619439Y-130188570D01*
X77619437Y-130188568D01*
X77593291Y-130156709D01*
X77561432Y-130130563D01*
X76369445Y-128938578D01*
X76343291Y-128906709D01*
X76216146Y-128802364D01*
X76071087Y-128724828D01*
X76035531Y-128714042D01*
X82961000Y-128714042D01*
X82961000Y-129045958D01*
X83025754Y-129371496D01*
X83152772Y-129678147D01*
X83337175Y-129954125D01*
X83571875Y-130188825D01*
X83847853Y-130373228D01*
X84154504Y-130500246D01*
X84480042Y-130565000D01*
X84811958Y-130565000D01*
X85137496Y-130500246D01*
X85444147Y-130373228D01*
X85720125Y-130188825D01*
X85954825Y-129954125D01*
X86139228Y-129678147D01*
X86266246Y-129371496D01*
X86331000Y-129045958D01*
X86331000Y-128714042D01*
X86266246Y-128388504D01*
X86139228Y-128081853D01*
X85954825Y-127805875D01*
X85720125Y-127571175D01*
X85444147Y-127386772D01*
X85137496Y-127259754D01*
X84811958Y-127195000D01*
X84480042Y-127195000D01*
X84154504Y-127259754D01*
X83847853Y-127386772D01*
X83571875Y-127571175D01*
X83337175Y-127805875D01*
X83152772Y-128081853D01*
X83025754Y-128388504D01*
X82961000Y-128714042D01*
X76035531Y-128714042D01*
X75913689Y-128677082D01*
X75791019Y-128665000D01*
X75791018Y-128665000D01*
X75750000Y-128660960D01*
X75708982Y-128665000D01*
X70291018Y-128665000D01*
X70249999Y-128660960D01*
X70208981Y-128665000D01*
X70086311Y-128677082D01*
X69928913Y-128724828D01*
X69783854Y-128802364D01*
X69656709Y-128906709D01*
X69630554Y-128938579D01*
X69552133Y-129017000D01*
X69313521Y-129017000D01*
X69325812Y-128976482D01*
X69338072Y-128852000D01*
X69338072Y-127452000D01*
X69325812Y-127327518D01*
X69289502Y-127207820D01*
X69230537Y-127097506D01*
X69203860Y-127065000D01*
X78179647Y-127065000D01*
X78213822Y-127061634D01*
X78226806Y-127061634D01*
X78236318Y-127060634D01*
X78430268Y-127038879D01*
X78490976Y-127025975D01*
X78551901Y-127013911D01*
X78561038Y-127011083D01*
X78747068Y-126952070D01*
X78799909Y-126929422D01*
X78879655Y-127009168D01*
G37*
%TD.AperFunction*%
D22*
X73561000Y-137636805D02*
X73614378Y-137905156D01*
X73719084Y-138157938D01*
X73871093Y-138385436D01*
X74064564Y-138578907D01*
X74292062Y-138730916D01*
X74544844Y-138835622D01*
X74813195Y-138889000D01*
X75086805Y-138889000D01*
X75355156Y-138835622D01*
X75607938Y-138730916D01*
X75835436Y-138578907D01*
X76028907Y-138385436D01*
X76165001Y-138181757D01*
X76165000Y-146339221D01*
X76090608Y-146278169D01*
X75945716Y-146200722D01*
X75788500Y-146153031D01*
X75625000Y-146136928D01*
X75225000Y-146136928D01*
X75061500Y-146153031D01*
X74904284Y-146200722D01*
X74759392Y-146278169D01*
X74647563Y-146369945D01*
X72929857Y-146369945D01*
X73409004Y-145890798D01*
X73438001Y-145867001D01*
X73532974Y-145751276D01*
X73603546Y-145619247D01*
X73647003Y-145475986D01*
X73658000Y-145364333D01*
X73658000Y-145364323D01*
X73661676Y-145327000D01*
X73658000Y-145289677D01*
X73658000Y-145103538D01*
X73682277Y-145067205D01*
X73748990Y-144906145D01*
X73783000Y-144735165D01*
X73783000Y-144560835D01*
X73748990Y-144389855D01*
X73682277Y-144228795D01*
X73585424Y-144083845D01*
X73462155Y-143960576D01*
X73317205Y-143863723D01*
X73156145Y-143797010D01*
X72985165Y-143763000D01*
X72810835Y-143763000D01*
X72639855Y-143797010D01*
X72478795Y-143863723D01*
X72333845Y-143960576D01*
X72210576Y-144083845D01*
X72113723Y-144228795D01*
X72047010Y-144389855D01*
X72013000Y-144560835D01*
X72013000Y-144735165D01*
X72047010Y-144906145D01*
X72104722Y-145045476D01*
X70794565Y-146355633D01*
X70784277Y-146330795D01*
X70687424Y-146185845D01*
X70564155Y-146062576D01*
X70419205Y-145965723D01*
X70258145Y-145899010D01*
X70087165Y-145865000D01*
X69912835Y-145865000D01*
X69741855Y-145899010D01*
X69580795Y-145965723D01*
X69435845Y-146062576D01*
X69312576Y-146185845D01*
X69256338Y-146270010D01*
X69113072Y-146270010D01*
X69113072Y-145975000D01*
X69096969Y-145811500D01*
X69065484Y-145707707D01*
X69132337Y-145582633D01*
X69155337Y-145506812D01*
X69204494Y-145480537D01*
X69301185Y-145401185D01*
X69380537Y-145304494D01*
X69439502Y-145194180D01*
X69475812Y-145074482D01*
X69488072Y-144950000D01*
X69488072Y-144050000D01*
X69475812Y-143925518D01*
X69439502Y-143805820D01*
X69380537Y-143695506D01*
X69301185Y-143598815D01*
X69204494Y-143519463D01*
X69094180Y-143460498D01*
X68974482Y-143424188D01*
X68850000Y-143411928D01*
X68338095Y-143411928D01*
X68351185Y-143401185D01*
X68430537Y-143304494D01*
X68489502Y-143194180D01*
X68525812Y-143074482D01*
X68538072Y-142950000D01*
X68538072Y-142111785D01*
X68688500Y-142096969D01*
X68845716Y-142049278D01*
X68990608Y-141971831D01*
X69117606Y-141867606D01*
X69153454Y-141823925D01*
X69163679Y-141822918D01*
X69321077Y-141775172D01*
X69466136Y-141697636D01*
X69593281Y-141593291D01*
X69619436Y-141561421D01*
X73561000Y-137619858D01*
X73561000Y-137636805D01*
%TA.AperFunction,Conductor*%
D23*
G36*
X73561000Y-137636805D02*
G01*
X73614378Y-137905156D01*
X73719084Y-138157938D01*
X73871093Y-138385436D01*
X74064564Y-138578907D01*
X74292062Y-138730916D01*
X74544844Y-138835622D01*
X74813195Y-138889000D01*
X75086805Y-138889000D01*
X75355156Y-138835622D01*
X75607938Y-138730916D01*
X75835436Y-138578907D01*
X76028907Y-138385436D01*
X76165001Y-138181757D01*
X76165000Y-146339221D01*
X76090608Y-146278169D01*
X75945716Y-146200722D01*
X75788500Y-146153031D01*
X75625000Y-146136928D01*
X75225000Y-146136928D01*
X75061500Y-146153031D01*
X74904284Y-146200722D01*
X74759392Y-146278169D01*
X74647563Y-146369945D01*
X72929857Y-146369945D01*
X73409004Y-145890798D01*
X73438001Y-145867001D01*
X73532974Y-145751276D01*
X73603546Y-145619247D01*
X73647003Y-145475986D01*
X73658000Y-145364333D01*
X73658000Y-145364323D01*
X73661676Y-145327000D01*
X73658000Y-145289677D01*
X73658000Y-145103538D01*
X73682277Y-145067205D01*
X73748990Y-144906145D01*
X73783000Y-144735165D01*
X73783000Y-144560835D01*
X73748990Y-144389855D01*
X73682277Y-144228795D01*
X73585424Y-144083845D01*
X73462155Y-143960576D01*
X73317205Y-143863723D01*
X73156145Y-143797010D01*
X72985165Y-143763000D01*
X72810835Y-143763000D01*
X72639855Y-143797010D01*
X72478795Y-143863723D01*
X72333845Y-143960576D01*
X72210576Y-144083845D01*
X72113723Y-144228795D01*
X72047010Y-144389855D01*
X72013000Y-144560835D01*
X72013000Y-144735165D01*
X72047010Y-144906145D01*
X72104722Y-145045476D01*
X70794565Y-146355633D01*
X70784277Y-146330795D01*
X70687424Y-146185845D01*
X70564155Y-146062576D01*
X70419205Y-145965723D01*
X70258145Y-145899010D01*
X70087165Y-145865000D01*
X69912835Y-145865000D01*
X69741855Y-145899010D01*
X69580795Y-145965723D01*
X69435845Y-146062576D01*
X69312576Y-146185845D01*
X69256338Y-146270010D01*
X69113072Y-146270010D01*
X69113072Y-145975000D01*
X69096969Y-145811500D01*
X69065484Y-145707707D01*
X69132337Y-145582633D01*
X69155337Y-145506812D01*
X69204494Y-145480537D01*
X69301185Y-145401185D01*
X69380537Y-145304494D01*
X69439502Y-145194180D01*
X69475812Y-145074482D01*
X69488072Y-144950000D01*
X69488072Y-144050000D01*
X69475812Y-143925518D01*
X69439502Y-143805820D01*
X69380537Y-143695506D01*
X69301185Y-143598815D01*
X69204494Y-143519463D01*
X69094180Y-143460498D01*
X68974482Y-143424188D01*
X68850000Y-143411928D01*
X68338095Y-143411928D01*
X68351185Y-143401185D01*
X68430537Y-143304494D01*
X68489502Y-143194180D01*
X68525812Y-143074482D01*
X68538072Y-142950000D01*
X68538072Y-142111785D01*
X68688500Y-142096969D01*
X68845716Y-142049278D01*
X68990608Y-141971831D01*
X69117606Y-141867606D01*
X69153454Y-141823925D01*
X69163679Y-141822918D01*
X69321077Y-141775172D01*
X69466136Y-141697636D01*
X69593281Y-141593291D01*
X69619436Y-141561421D01*
X73561000Y-137619858D01*
X73561000Y-137636805D01*
G37*
%TD.AperFunction*%
D22*
X60865000Y-131587165D02*
X60899010Y-131758145D01*
X60965723Y-131919205D01*
X61062576Y-132064155D01*
X61185845Y-132187424D01*
X61330795Y-132284277D01*
X61462417Y-132338796D01*
X61495723Y-132419205D01*
X61592576Y-132564155D01*
X61715845Y-132687424D01*
X61860795Y-132784277D01*
X62021855Y-132850990D01*
X62123288Y-132871166D01*
X62115000Y-132912835D01*
X62115000Y-133087165D01*
X62149010Y-133258145D01*
X62215723Y-133419205D01*
X62312576Y-133564155D01*
X62435845Y-133687424D01*
X62580795Y-133784277D01*
X62741855Y-133850990D01*
X62912835Y-133885000D01*
X63087165Y-133885000D01*
X63258145Y-133850990D01*
X63419205Y-133784277D01*
X63564155Y-133687424D01*
X63664579Y-133587000D01*
X64615375Y-133587000D01*
X64624188Y-133676482D01*
X64660498Y-133796180D01*
X64690335Y-133852000D01*
X64660498Y-133907820D01*
X64624188Y-134027518D01*
X64611928Y-134152000D01*
X64611928Y-134552000D01*
X64624188Y-134676482D01*
X64660498Y-134796180D01*
X64690305Y-134851944D01*
X64664026Y-134899472D01*
X64626020Y-135018642D01*
X64615000Y-135120250D01*
X64773750Y-135279000D01*
X65923000Y-135279000D01*
X65923000Y-135205000D01*
X66177000Y-135205000D01*
X66177000Y-135279000D01*
X66197000Y-135279000D01*
X66197000Y-135425000D01*
X66177000Y-135425000D01*
X66177000Y-135499000D01*
X65923000Y-135499000D01*
X65923000Y-135425000D01*
X64773750Y-135425000D01*
X64615000Y-135583750D01*
X64626020Y-135685358D01*
X64664026Y-135804528D01*
X64724551Y-135913994D01*
X64805269Y-136009548D01*
X64903078Y-136087519D01*
X65014219Y-136144911D01*
X65134420Y-136179517D01*
X65187396Y-136183976D01*
X65174188Y-136227518D01*
X65161928Y-136352000D01*
X65161928Y-137752000D01*
X65174188Y-137876482D01*
X65210498Y-137996180D01*
X65269463Y-138106494D01*
X65348815Y-138203185D01*
X65445506Y-138282537D01*
X65555820Y-138341502D01*
X65675518Y-138377812D01*
X65800000Y-138390072D01*
X66443078Y-138390072D01*
X66311500Y-138403031D01*
X66154284Y-138450722D01*
X66009392Y-138528169D01*
X65882394Y-138632394D01*
X65855635Y-138665000D01*
X64595868Y-138665000D01*
X61825268Y-135894401D01*
X61809277Y-135855795D01*
X61712424Y-135710845D01*
X61589155Y-135587576D01*
X61444205Y-135490723D01*
X61283145Y-135424010D01*
X61112165Y-135390000D01*
X60937835Y-135390000D01*
X60766855Y-135424010D01*
X60728252Y-135440000D01*
X60553373Y-135440000D01*
X60564502Y-135419180D01*
X60600812Y-135299482D01*
X60613072Y-135175000D01*
X60610000Y-135010750D01*
X60451250Y-134852000D01*
X59627000Y-134852000D01*
X59627000Y-134872000D01*
X59373000Y-134872000D01*
X59373000Y-134852000D01*
X57877000Y-134852000D01*
X57877000Y-134872000D01*
X57623000Y-134872000D01*
X57623000Y-134852000D01*
X57603000Y-134852000D01*
X57603000Y-134598000D01*
X57623000Y-134598000D01*
X57623000Y-133798750D01*
X57877000Y-133798750D01*
X57877000Y-134598000D01*
X59373000Y-134598000D01*
X59373000Y-133798750D01*
X59627000Y-133798750D01*
X59627000Y-134598000D01*
X60451250Y-134598000D01*
X60610000Y-134439250D01*
X60613072Y-134275000D01*
X60600812Y-134150518D01*
X60564502Y-134030820D01*
X60505537Y-133920506D01*
X60426185Y-133823815D01*
X60329494Y-133744463D01*
X60219180Y-133685498D01*
X60099482Y-133649188D01*
X59975000Y-133636928D01*
X59785750Y-133640000D01*
X59627000Y-133798750D01*
X59373000Y-133798750D01*
X59214250Y-133640000D01*
X59025000Y-133636928D01*
X58900518Y-133649188D01*
X58780820Y-133685498D01*
X58670506Y-133744463D01*
X58625000Y-133781809D01*
X58579494Y-133744463D01*
X58469180Y-133685498D01*
X58349482Y-133649188D01*
X58225000Y-133636928D01*
X58035750Y-133640000D01*
X57877000Y-133798750D01*
X57623000Y-133798750D01*
X57472001Y-133647751D01*
X57472001Y-132353019D01*
X57476041Y-132312001D01*
X57463270Y-132182336D01*
X57459919Y-132148312D01*
X57412173Y-131990914D01*
X57334637Y-131845855D01*
X57290676Y-131792288D01*
X57256440Y-131750571D01*
X57256438Y-131750569D01*
X57230292Y-131718710D01*
X57198433Y-131692564D01*
X57092869Y-131587000D01*
X60865000Y-131587000D01*
X60865000Y-131587165D01*
%TA.AperFunction,Conductor*%
D23*
G36*
X60865000Y-131587165D02*
G01*
X60899010Y-131758145D01*
X60965723Y-131919205D01*
X61062576Y-132064155D01*
X61185845Y-132187424D01*
X61330795Y-132284277D01*
X61462417Y-132338796D01*
X61495723Y-132419205D01*
X61592576Y-132564155D01*
X61715845Y-132687424D01*
X61860795Y-132784277D01*
X62021855Y-132850990D01*
X62123288Y-132871166D01*
X62115000Y-132912835D01*
X62115000Y-133087165D01*
X62149010Y-133258145D01*
X62215723Y-133419205D01*
X62312576Y-133564155D01*
X62435845Y-133687424D01*
X62580795Y-133784277D01*
X62741855Y-133850990D01*
X62912835Y-133885000D01*
X63087165Y-133885000D01*
X63258145Y-133850990D01*
X63419205Y-133784277D01*
X63564155Y-133687424D01*
X63664579Y-133587000D01*
X64615375Y-133587000D01*
X64624188Y-133676482D01*
X64660498Y-133796180D01*
X64690335Y-133852000D01*
X64660498Y-133907820D01*
X64624188Y-134027518D01*
X64611928Y-134152000D01*
X64611928Y-134552000D01*
X64624188Y-134676482D01*
X64660498Y-134796180D01*
X64690305Y-134851944D01*
X64664026Y-134899472D01*
X64626020Y-135018642D01*
X64615000Y-135120250D01*
X64773750Y-135279000D01*
X65923000Y-135279000D01*
X65923000Y-135205000D01*
X66177000Y-135205000D01*
X66177000Y-135279000D01*
X66197000Y-135279000D01*
X66197000Y-135425000D01*
X66177000Y-135425000D01*
X66177000Y-135499000D01*
X65923000Y-135499000D01*
X65923000Y-135425000D01*
X64773750Y-135425000D01*
X64615000Y-135583750D01*
X64626020Y-135685358D01*
X64664026Y-135804528D01*
X64724551Y-135913994D01*
X64805269Y-136009548D01*
X64903078Y-136087519D01*
X65014219Y-136144911D01*
X65134420Y-136179517D01*
X65187396Y-136183976D01*
X65174188Y-136227518D01*
X65161928Y-136352000D01*
X65161928Y-137752000D01*
X65174188Y-137876482D01*
X65210498Y-137996180D01*
X65269463Y-138106494D01*
X65348815Y-138203185D01*
X65445506Y-138282537D01*
X65555820Y-138341502D01*
X65675518Y-138377812D01*
X65800000Y-138390072D01*
X66443078Y-138390072D01*
X66311500Y-138403031D01*
X66154284Y-138450722D01*
X66009392Y-138528169D01*
X65882394Y-138632394D01*
X65855635Y-138665000D01*
X64595868Y-138665000D01*
X61825268Y-135894401D01*
X61809277Y-135855795D01*
X61712424Y-135710845D01*
X61589155Y-135587576D01*
X61444205Y-135490723D01*
X61283145Y-135424010D01*
X61112165Y-135390000D01*
X60937835Y-135390000D01*
X60766855Y-135424010D01*
X60728252Y-135440000D01*
X60553373Y-135440000D01*
X60564502Y-135419180D01*
X60600812Y-135299482D01*
X60613072Y-135175000D01*
X60610000Y-135010750D01*
X60451250Y-134852000D01*
X59627000Y-134852000D01*
X59627000Y-134872000D01*
X59373000Y-134872000D01*
X59373000Y-134852000D01*
X57877000Y-134852000D01*
X57877000Y-134872000D01*
X57623000Y-134872000D01*
X57623000Y-134852000D01*
X57603000Y-134852000D01*
X57603000Y-134598000D01*
X57623000Y-134598000D01*
X57623000Y-133798750D01*
X57877000Y-133798750D01*
X57877000Y-134598000D01*
X59373000Y-134598000D01*
X59373000Y-133798750D01*
X59627000Y-133798750D01*
X59627000Y-134598000D01*
X60451250Y-134598000D01*
X60610000Y-134439250D01*
X60613072Y-134275000D01*
X60600812Y-134150518D01*
X60564502Y-134030820D01*
X60505537Y-133920506D01*
X60426185Y-133823815D01*
X60329494Y-133744463D01*
X60219180Y-133685498D01*
X60099482Y-133649188D01*
X59975000Y-133636928D01*
X59785750Y-133640000D01*
X59627000Y-133798750D01*
X59373000Y-133798750D01*
X59214250Y-133640000D01*
X59025000Y-133636928D01*
X58900518Y-133649188D01*
X58780820Y-133685498D01*
X58670506Y-133744463D01*
X58625000Y-133781809D01*
X58579494Y-133744463D01*
X58469180Y-133685498D01*
X58349482Y-133649188D01*
X58225000Y-133636928D01*
X58035750Y-133640000D01*
X57877000Y-133798750D01*
X57623000Y-133798750D01*
X57472001Y-133647751D01*
X57472001Y-132353019D01*
X57476041Y-132312001D01*
X57463270Y-132182336D01*
X57459919Y-132148312D01*
X57412173Y-131990914D01*
X57334637Y-131845855D01*
X57290676Y-131792288D01*
X57256440Y-131750571D01*
X57256438Y-131750569D01*
X57230292Y-131718710D01*
X57198433Y-131692564D01*
X57092869Y-131587000D01*
X60865000Y-131587000D01*
X60865000Y-131587165D01*
G37*
%TD.AperFunction*%
D22*
X76165001Y-131095870D02*
X76165001Y-133463986D01*
X76008135Y-133399010D01*
X75837155Y-133365000D01*
X75662825Y-133365000D01*
X75491845Y-133399010D01*
X75330785Y-133465723D01*
X75185835Y-133562576D01*
X75062566Y-133685845D01*
X74965713Y-133830795D01*
X74949723Y-133869398D01*
X74569646Y-134249475D01*
X74572918Y-134238689D01*
X74585000Y-134116019D01*
X74585000Y-134116018D01*
X74589040Y-134075000D01*
X74585000Y-134033982D01*
X74585000Y-131796748D01*
X74600990Y-131758145D01*
X74635000Y-131587165D01*
X74635000Y-131412835D01*
X74600990Y-131241855D01*
X74534277Y-131080795D01*
X74437424Y-130935845D01*
X74314155Y-130812576D01*
X74169205Y-130715723D01*
X74008145Y-130649010D01*
X73837165Y-130615000D01*
X73662835Y-130615000D01*
X73491855Y-130649010D01*
X73330795Y-130715723D01*
X73185845Y-130812576D01*
X73062576Y-130935845D01*
X72965723Y-131080795D01*
X72899010Y-131241855D01*
X72865000Y-131412835D01*
X72865000Y-131587165D01*
X72899010Y-131758145D01*
X72915000Y-131796749D01*
X72915001Y-133729130D01*
X71792788Y-134851343D01*
X71784277Y-134830795D01*
X71687424Y-134685845D01*
X71616483Y-134614904D01*
X71653433Y-134525699D01*
X71687443Y-134354719D01*
X71687443Y-134180389D01*
X71653433Y-134009409D01*
X71586720Y-133848349D01*
X71489867Y-133703399D01*
X71366598Y-133580130D01*
X71221648Y-133483277D01*
X71060588Y-133416564D01*
X70973595Y-133399260D01*
X70932148Y-133357813D01*
X70909127Y-133329762D01*
X70885000Y-133309961D01*
X70885000Y-133298445D01*
X70919205Y-133284277D01*
X71064155Y-133187424D01*
X71187424Y-133064155D01*
X71284277Y-132919205D01*
X71350990Y-132758145D01*
X71385000Y-132587165D01*
X71385000Y-132412835D01*
X71350990Y-132241855D01*
X71284277Y-132080795D01*
X71187424Y-131935845D01*
X71064155Y-131812576D01*
X70919205Y-131715723D01*
X70758145Y-131649010D01*
X70587165Y-131615000D01*
X70412835Y-131615000D01*
X70397920Y-131617967D01*
X70388105Y-131617000D01*
X70352000Y-131613444D01*
X70315895Y-131617000D01*
X69884625Y-131617000D01*
X69875812Y-131527518D01*
X69839502Y-131407820D01*
X69809665Y-131352000D01*
X69839502Y-131296180D01*
X69875812Y-131176482D01*
X69888072Y-131052000D01*
X69888072Y-130690062D01*
X69898000Y-130691040D01*
X69939018Y-130687000D01*
X69939019Y-130687000D01*
X70061689Y-130674918D01*
X70219087Y-130627172D01*
X70364146Y-130549636D01*
X70491291Y-130445291D01*
X70517446Y-130413421D01*
X70595867Y-130335000D01*
X75404133Y-130335000D01*
X76165001Y-131095870D01*
%TA.AperFunction,Conductor*%
D23*
G36*
X76165001Y-131095870D02*
G01*
X76165001Y-133463986D01*
X76008135Y-133399010D01*
X75837155Y-133365000D01*
X75662825Y-133365000D01*
X75491845Y-133399010D01*
X75330785Y-133465723D01*
X75185835Y-133562576D01*
X75062566Y-133685845D01*
X74965713Y-133830795D01*
X74949723Y-133869398D01*
X74569646Y-134249475D01*
X74572918Y-134238689D01*
X74585000Y-134116019D01*
X74585000Y-134116018D01*
X74589040Y-134075000D01*
X74585000Y-134033982D01*
X74585000Y-131796748D01*
X74600990Y-131758145D01*
X74635000Y-131587165D01*
X74635000Y-131412835D01*
X74600990Y-131241855D01*
X74534277Y-131080795D01*
X74437424Y-130935845D01*
X74314155Y-130812576D01*
X74169205Y-130715723D01*
X74008145Y-130649010D01*
X73837165Y-130615000D01*
X73662835Y-130615000D01*
X73491855Y-130649010D01*
X73330795Y-130715723D01*
X73185845Y-130812576D01*
X73062576Y-130935845D01*
X72965723Y-131080795D01*
X72899010Y-131241855D01*
X72865000Y-131412835D01*
X72865000Y-131587165D01*
X72899010Y-131758145D01*
X72915000Y-131796749D01*
X72915001Y-133729130D01*
X71792788Y-134851343D01*
X71784277Y-134830795D01*
X71687424Y-134685845D01*
X71616483Y-134614904D01*
X71653433Y-134525699D01*
X71687443Y-134354719D01*
X71687443Y-134180389D01*
X71653433Y-134009409D01*
X71586720Y-133848349D01*
X71489867Y-133703399D01*
X71366598Y-133580130D01*
X71221648Y-133483277D01*
X71060588Y-133416564D01*
X70973595Y-133399260D01*
X70932148Y-133357813D01*
X70909127Y-133329762D01*
X70885000Y-133309961D01*
X70885000Y-133298445D01*
X70919205Y-133284277D01*
X71064155Y-133187424D01*
X71187424Y-133064155D01*
X71284277Y-132919205D01*
X71350990Y-132758145D01*
X71385000Y-132587165D01*
X71385000Y-132412835D01*
X71350990Y-132241855D01*
X71284277Y-132080795D01*
X71187424Y-131935845D01*
X71064155Y-131812576D01*
X70919205Y-131715723D01*
X70758145Y-131649010D01*
X70587165Y-131615000D01*
X70412835Y-131615000D01*
X70397920Y-131617967D01*
X70388105Y-131617000D01*
X70352000Y-131613444D01*
X70315895Y-131617000D01*
X69884625Y-131617000D01*
X69875812Y-131527518D01*
X69839502Y-131407820D01*
X69809665Y-131352000D01*
X69839502Y-131296180D01*
X69875812Y-131176482D01*
X69888072Y-131052000D01*
X69888072Y-130690062D01*
X69898000Y-130691040D01*
X69939018Y-130687000D01*
X69939019Y-130687000D01*
X70061689Y-130674918D01*
X70219087Y-130627172D01*
X70364146Y-130549636D01*
X70491291Y-130445291D01*
X70517446Y-130413421D01*
X70595867Y-130335000D01*
X75404133Y-130335000D01*
X76165001Y-131095870D01*
G37*
%TD.AperFunction*%
D22*
X58177000Y-129373000D02*
X58197000Y-129373000D01*
X58197000Y-129627000D01*
X58177000Y-129627000D01*
X58177000Y-129647000D01*
X57923000Y-129647000D01*
X57923000Y-129627000D01*
X57903000Y-129627000D01*
X57903000Y-129373000D01*
X57923000Y-129373000D01*
X57923000Y-129353000D01*
X58177000Y-129353000D01*
X58177000Y-129373000D01*
%TA.AperFunction,Conductor*%
D23*
G36*
X58177000Y-129373000D02*
G01*
X58197000Y-129373000D01*
X58197000Y-129627000D01*
X58177000Y-129627000D01*
X58177000Y-129647000D01*
X57923000Y-129647000D01*
X57923000Y-129627000D01*
X57903000Y-129627000D01*
X57903000Y-129373000D01*
X57923000Y-129373000D01*
X57923000Y-129353000D01*
X58177000Y-129353000D01*
X58177000Y-129373000D01*
G37*
%TD.AperFunction*%
D22*
X60879655Y-127009168D02*
X61012321Y-127097812D01*
X61159732Y-127158872D01*
X61316222Y-127190000D01*
X61475778Y-127190000D01*
X61632268Y-127158872D01*
X61771000Y-127101407D01*
X61909732Y-127158872D01*
X62066222Y-127190000D01*
X62225778Y-127190000D01*
X62382268Y-127158872D01*
X62521000Y-127101407D01*
X62659732Y-127158872D01*
X62816222Y-127190000D01*
X62975778Y-127190000D01*
X63132268Y-127158872D01*
X63279679Y-127097812D01*
X63412345Y-127009168D01*
X63492065Y-126929448D01*
X63500739Y-126933022D01*
X63557807Y-126957482D01*
X63566944Y-126960310D01*
X63753780Y-127016719D01*
X63814690Y-127028780D01*
X63875409Y-127041686D01*
X63884921Y-127042686D01*
X64079155Y-127061731D01*
X64079163Y-127061731D01*
X64112353Y-127065000D01*
X65296140Y-127065000D01*
X65269463Y-127097506D01*
X65210498Y-127207820D01*
X65174188Y-127327518D01*
X65161928Y-127452000D01*
X65161928Y-128665000D01*
X64537110Y-128665000D01*
X64520472Y-128610150D01*
X64438405Y-128456614D01*
X64327962Y-128322038D01*
X64193386Y-128211595D01*
X64039850Y-128129528D01*
X63873254Y-128078992D01*
X63700000Y-128061928D01*
X61200000Y-128061928D01*
X61032682Y-128078407D01*
X60937424Y-127935845D01*
X60814155Y-127812576D01*
X60669205Y-127715723D01*
X60630600Y-127699732D01*
X60369445Y-127438578D01*
X60343291Y-127406709D01*
X60216146Y-127302364D01*
X60071087Y-127224828D01*
X59913689Y-127177082D01*
X59791019Y-127165000D01*
X59791018Y-127165000D01*
X59750000Y-127160960D01*
X59708982Y-127165000D01*
X56144365Y-127165000D01*
X56117606Y-127132394D01*
X56035487Y-127065000D01*
X60179647Y-127065000D01*
X60213822Y-127061634D01*
X60226806Y-127061634D01*
X60236318Y-127060634D01*
X60430268Y-127038879D01*
X60490976Y-127025975D01*
X60551901Y-127013911D01*
X60561038Y-127011083D01*
X60747068Y-126952070D01*
X60799909Y-126929422D01*
X60879655Y-127009168D01*
%TA.AperFunction,Conductor*%
D23*
G36*
X60879655Y-127009168D02*
G01*
X61012321Y-127097812D01*
X61159732Y-127158872D01*
X61316222Y-127190000D01*
X61475778Y-127190000D01*
X61632268Y-127158872D01*
X61771000Y-127101407D01*
X61909732Y-127158872D01*
X62066222Y-127190000D01*
X62225778Y-127190000D01*
X62382268Y-127158872D01*
X62521000Y-127101407D01*
X62659732Y-127158872D01*
X62816222Y-127190000D01*
X62975778Y-127190000D01*
X63132268Y-127158872D01*
X63279679Y-127097812D01*
X63412345Y-127009168D01*
X63492065Y-126929448D01*
X63500739Y-126933022D01*
X63557807Y-126957482D01*
X63566944Y-126960310D01*
X63753780Y-127016719D01*
X63814690Y-127028780D01*
X63875409Y-127041686D01*
X63884921Y-127042686D01*
X64079155Y-127061731D01*
X64079163Y-127061731D01*
X64112353Y-127065000D01*
X65296140Y-127065000D01*
X65269463Y-127097506D01*
X65210498Y-127207820D01*
X65174188Y-127327518D01*
X65161928Y-127452000D01*
X65161928Y-128665000D01*
X64537110Y-128665000D01*
X64520472Y-128610150D01*
X64438405Y-128456614D01*
X64327962Y-128322038D01*
X64193386Y-128211595D01*
X64039850Y-128129528D01*
X63873254Y-128078992D01*
X63700000Y-128061928D01*
X61200000Y-128061928D01*
X61032682Y-128078407D01*
X60937424Y-127935845D01*
X60814155Y-127812576D01*
X60669205Y-127715723D01*
X60630600Y-127699732D01*
X60369445Y-127438578D01*
X60343291Y-127406709D01*
X60216146Y-127302364D01*
X60071087Y-127224828D01*
X59913689Y-127177082D01*
X59791019Y-127165000D01*
X59791018Y-127165000D01*
X59750000Y-127160960D01*
X59708982Y-127165000D01*
X56144365Y-127165000D01*
X56117606Y-127132394D01*
X56035487Y-127065000D01*
X60179647Y-127065000D01*
X60213822Y-127061634D01*
X60226806Y-127061634D01*
X60236318Y-127060634D01*
X60430268Y-127038879D01*
X60490976Y-127025975D01*
X60551901Y-127013911D01*
X60561038Y-127011083D01*
X60747068Y-126952070D01*
X60799909Y-126929422D01*
X60879655Y-127009168D01*
G37*
%TD.AperFunction*%
%TD*%
M02*
