G75*
%MOIN*%
%OFA0B0*%
%FSLAX25Y25*%
%IPPOS*%
%LPD*%
%AMOC8*
5,1,8,0,0,1.08239X$1,22.5*
%
%ADD10R,0.03937X0.03740*%
%ADD11R,0.03937X0.04331*%
%ADD12R,0.03543X0.02362*%
%ADD13R,0.03150X0.01102*%
%ADD14R,0.01102X0.03150*%
%ADD15C,0.00500*%
%ADD16R,0.03740X0.03937*%
%ADD17R,0.04724X0.02165*%
%ADD18R,0.02362X0.03543*%
%ADD19R,0.02165X0.04724*%
%ADD20R,0.03150X0.03150*%
%ADD21R,0.04528X0.05709*%
%ADD22R,0.05800X0.01400*%
%ADD23R,0.04724X0.03150*%
%ADD24R,0.06299X0.13780*%
%ADD25R,0.03150X0.03543*%
%ADD26C,0.02362*%
%ADD27R,0.01400X0.05800*%
%ADD28R,0.03543X0.03150*%
%ADD29R,0.06299X0.03543*%
%ADD30R,0.06299X0.14961*%
%ADD31R,0.11811X0.05512*%
%ADD32R,0.05512X0.11811*%
%ADD33R,0.05512X0.03937*%
D10*
X0017768Y0110900D03*
X0017768Y0117200D03*
X0027768Y0117200D03*
X0027768Y0110900D03*
X0169768Y0184900D03*
X0169768Y0191200D03*
X0027035Y0278971D03*
X0027035Y0285270D03*
X0007500Y0285129D03*
X0007500Y0278830D03*
D11*
X0014035Y0278774D03*
X0014035Y0285467D03*
X0020500Y0285326D03*
X0020500Y0278633D03*
X0190768Y0295704D03*
X0190768Y0302396D03*
X0263768Y0310704D03*
X0263768Y0317396D03*
D12*
X0243768Y0301003D03*
X0243768Y0295097D03*
X0224768Y0293097D03*
X0224768Y0299003D03*
X0151768Y0302097D03*
X0151768Y0308003D03*
X0106768Y0256003D03*
X0106768Y0250097D03*
X0052035Y0263168D03*
X0052035Y0269074D03*
X0052500Y0282026D03*
X0047500Y0282026D03*
X0047500Y0287932D03*
X0052500Y0287932D03*
X0025768Y0228003D03*
X0025768Y0222097D03*
X0018768Y0222097D03*
X0011768Y0222097D03*
X0011768Y0228003D03*
X0018768Y0228003D03*
X0176768Y0216003D03*
X0176768Y0210097D03*
X0241768Y0206003D03*
X0248768Y0204003D03*
X0253768Y0204003D03*
X0253768Y0198097D03*
X0248768Y0198097D03*
X0241768Y0200097D03*
X0241768Y0193003D03*
X0241768Y0187097D03*
X0294768Y0181003D03*
X0294768Y0175097D03*
X0319752Y0146310D03*
X0319752Y0140404D03*
X0345768Y0143097D03*
X0345768Y0149003D03*
X0346768Y0160097D03*
X0346768Y0166003D03*
X0359815Y0152089D03*
X0359815Y0146184D03*
X0345768Y0136003D03*
X0345768Y0130097D03*
X0348768Y0112003D03*
X0348768Y0106097D03*
X0348768Y0099003D03*
X0348768Y0093097D03*
X0411130Y0146341D03*
X0411130Y0152247D03*
X0408768Y0245097D03*
X0408768Y0251003D03*
X0399768Y0251003D03*
X0392768Y0251003D03*
X0392768Y0245097D03*
X0399768Y0245097D03*
X0384768Y0245097D03*
X0384768Y0251003D03*
X0319161Y0259790D03*
X0319161Y0265696D03*
X0301720Y0289396D03*
X0301720Y0295302D03*
X0016768Y0092003D03*
X0016768Y0086097D03*
D13*
X0032594Y0265026D03*
X0032594Y0266995D03*
X0032594Y0268963D03*
X0032594Y0270932D03*
X0044406Y0270932D03*
X0044406Y0268963D03*
X0044406Y0266995D03*
X0044406Y0265026D03*
D14*
X0041453Y0262074D03*
X0039484Y0262074D03*
X0037516Y0262074D03*
X0035547Y0262074D03*
X0035547Y0273885D03*
X0037516Y0273885D03*
X0039484Y0273885D03*
X0041453Y0273885D03*
D15*
X0040500Y0269979D02*
X0036500Y0269979D01*
X0036500Y0265979D01*
X0040500Y0265979D01*
X0040500Y0269979D01*
X0040500Y0269748D02*
X0036500Y0269748D01*
X0036500Y0269249D02*
X0040500Y0269249D01*
X0040500Y0268751D02*
X0036500Y0268751D01*
X0036500Y0268252D02*
X0040500Y0268252D01*
X0040500Y0267754D02*
X0036500Y0267754D01*
X0036500Y0267255D02*
X0040500Y0267255D01*
X0040500Y0266757D02*
X0036500Y0266757D01*
X0036500Y0266258D02*
X0040500Y0266258D01*
D16*
X0040650Y0287979D03*
X0034350Y0287979D03*
X0163618Y0206050D03*
X0169917Y0206050D03*
X0255618Y0174050D03*
X0261917Y0174050D03*
X0267618Y0286050D03*
X0273917Y0286050D03*
X0196717Y0317450D03*
X0190418Y0317450D03*
X0042917Y0168050D03*
X0036618Y0168050D03*
X0026917Y0168050D03*
X0020618Y0168050D03*
D17*
X0017649Y0105790D03*
X0017649Y0098310D03*
X0027886Y0098310D03*
X0027886Y0102050D03*
X0027886Y0105790D03*
D18*
X0021815Y0079050D03*
X0027720Y0079050D03*
X0176815Y0185050D03*
X0182720Y0185050D03*
X0206815Y0208050D03*
X0212720Y0208050D03*
X0220815Y0208050D03*
X0226720Y0208050D03*
X0247815Y0188050D03*
X0253720Y0188050D03*
X0319508Y0210845D03*
X0325413Y0210845D03*
X0393240Y0151688D03*
X0399146Y0151688D03*
X0438815Y0140550D03*
X0444720Y0140550D03*
X0444720Y0112550D03*
X0438815Y0112550D03*
X0438815Y0086550D03*
X0444720Y0086550D03*
X0444720Y0060550D03*
X0438815Y0060550D03*
X0324413Y0094223D03*
X0318508Y0094223D03*
X0306319Y0070428D03*
X0300413Y0070428D03*
X0082720Y0216050D03*
X0076815Y0216050D03*
X0046720Y0193050D03*
X0040815Y0193050D03*
X0027720Y0207050D03*
X0021815Y0207050D03*
X0022720Y0200050D03*
X0016815Y0200050D03*
X0212815Y0293050D03*
X0218720Y0293050D03*
X0410815Y0296050D03*
X0416720Y0296050D03*
X0416720Y0277050D03*
X0410815Y0277050D03*
X0410815Y0258050D03*
X0416720Y0258050D03*
X0416720Y0315050D03*
X0410815Y0315050D03*
D19*
X0183508Y0203169D03*
X0176028Y0203169D03*
X0176028Y0192931D03*
X0179768Y0192931D03*
X0183508Y0192931D03*
D20*
X0025768Y0233097D03*
X0025768Y0239003D03*
X0018768Y0239003D03*
X0011768Y0239003D03*
X0011768Y0233097D03*
X0018768Y0233097D03*
X0027768Y0092003D03*
X0027768Y0086097D03*
D21*
X0255224Y0167050D03*
X0262311Y0167050D03*
X0267224Y0293050D03*
X0274311Y0293050D03*
X0197311Y0310050D03*
X0190224Y0310050D03*
X0041043Y0281979D03*
X0033957Y0281979D03*
D22*
X0263268Y0207050D03*
X0263268Y0204450D03*
X0263268Y0201950D03*
X0263268Y0199350D03*
X0263268Y0196750D03*
X0263268Y0194250D03*
X0263268Y0191650D03*
X0263268Y0189150D03*
X0263268Y0186550D03*
X0263268Y0183950D03*
X0263268Y0181450D03*
X0263268Y0178850D03*
X0286268Y0178850D03*
X0286268Y0181450D03*
X0286268Y0183950D03*
X0286268Y0186550D03*
X0286268Y0189150D03*
X0286268Y0191650D03*
X0286268Y0194250D03*
X0286268Y0196750D03*
X0286268Y0199350D03*
X0286268Y0201950D03*
X0286268Y0204450D03*
X0286268Y0207050D03*
D23*
X0375366Y0139550D03*
X0375366Y0134550D03*
X0375366Y0129550D03*
X0375366Y0124550D03*
X0375366Y0119550D03*
X0375366Y0114550D03*
X0375366Y0109550D03*
X0375366Y0104550D03*
X0400169Y0104550D03*
X0400169Y0109550D03*
X0400169Y0114550D03*
X0400169Y0119550D03*
X0400169Y0124550D03*
X0400169Y0129550D03*
X0400169Y0134550D03*
X0400169Y0139550D03*
D24*
X0431138Y0127650D03*
X0452398Y0127650D03*
X0452398Y0099550D03*
X0431138Y0099550D03*
X0431138Y0073550D03*
X0452398Y0073550D03*
X0452398Y0047550D03*
X0431138Y0047550D03*
D25*
X0363508Y0085113D03*
X0356028Y0085113D03*
X0359768Y0092987D03*
X0363508Y0102113D03*
X0356028Y0102113D03*
X0359768Y0109987D03*
X0363508Y0117113D03*
X0356028Y0117113D03*
X0359768Y0124987D03*
X0363508Y0132113D03*
X0356028Y0132113D03*
X0359768Y0139987D03*
X0360508Y0250113D03*
X0353028Y0250113D03*
X0356768Y0257987D03*
X0361768Y0266113D03*
X0365508Y0273987D03*
X0358028Y0273987D03*
X0359768Y0282113D03*
X0363508Y0289987D03*
X0356028Y0289987D03*
X0359768Y0298113D03*
X0363508Y0305987D03*
X0356028Y0305987D03*
D26*
X0424365Y0304050D02*
X0427121Y0304050D01*
X0427121Y0313050D02*
X0424365Y0313050D01*
X0424365Y0323050D02*
X0427121Y0323050D01*
X0446415Y0323050D02*
X0449171Y0323050D01*
X0449171Y0313050D02*
X0446415Y0313050D01*
X0446415Y0304050D02*
X0449171Y0304050D01*
X0449171Y0294050D02*
X0446415Y0294050D01*
X0446415Y0285050D02*
X0449171Y0285050D01*
X0449171Y0275050D02*
X0446415Y0275050D01*
X0446415Y0266050D02*
X0449171Y0266050D01*
X0449171Y0256050D02*
X0446415Y0256050D01*
X0427121Y0256050D02*
X0424365Y0256050D01*
X0424365Y0266050D02*
X0427121Y0266050D01*
X0427121Y0275050D02*
X0424365Y0275050D01*
X0424365Y0285050D02*
X0427121Y0285050D01*
X0427121Y0294050D02*
X0424365Y0294050D01*
D27*
X0034568Y0198550D03*
X0032068Y0198550D03*
X0029468Y0198550D03*
X0026968Y0198550D03*
X0026968Y0175550D03*
X0029468Y0175550D03*
X0032068Y0175550D03*
X0034568Y0175550D03*
D28*
X0229831Y0293050D03*
X0237705Y0289310D03*
X0237705Y0296790D03*
X0249831Y0295050D03*
X0257705Y0291310D03*
X0257705Y0298790D03*
D29*
X0135768Y0295759D03*
X0135768Y0284341D03*
D30*
X0289768Y0321050D03*
X0188768Y0072050D03*
X0168768Y0072050D03*
X0148768Y0072050D03*
X0128768Y0072050D03*
X0108768Y0072050D03*
D31*
X0069217Y0316050D03*
X0050319Y0316050D03*
D32*
X0324768Y0320499D03*
X0324768Y0301601D03*
X0271768Y0111499D03*
X0271768Y0092601D03*
X0331768Y0070499D03*
X0331768Y0051601D03*
D33*
X0145098Y0301310D03*
X0136437Y0305050D03*
X0145098Y0308790D03*
M02*
