G75*
%MOIN*%
%OFA0B0*%
%FSLAX25Y25*%
%IPPOS*%
%LPD*%
%AMOC8*
5,1,8,0,0,1.08239X$1,22.5*
%
%ADD10C,0.00100*%
%ADD11C,0.00000*%
D10*
X0001768Y0001050D02*
X0001768Y0026050D01*
X0011768Y0026050D01*
X0011768Y0033050D01*
X0021768Y0033050D02*
X0021768Y0026050D01*
X0246768Y0026050D01*
X0246768Y0033050D01*
X0021768Y0033050D01*
X0011768Y0033050D02*
X0011526Y0033053D01*
X0011285Y0033062D01*
X0011044Y0033076D01*
X0010803Y0033097D01*
X0010563Y0033123D01*
X0010323Y0033155D01*
X0010084Y0033193D01*
X0009847Y0033236D01*
X0009610Y0033286D01*
X0009375Y0033341D01*
X0009141Y0033401D01*
X0008909Y0033468D01*
X0008678Y0033539D01*
X0008449Y0033617D01*
X0008222Y0033700D01*
X0007997Y0033788D01*
X0007774Y0033882D01*
X0007554Y0033981D01*
X0007336Y0034086D01*
X0007121Y0034195D01*
X0006908Y0034310D01*
X0006698Y0034430D01*
X0006492Y0034555D01*
X0006288Y0034685D01*
X0006087Y0034820D01*
X0005890Y0034960D01*
X0005696Y0035104D01*
X0005506Y0035253D01*
X0005320Y0035407D01*
X0005137Y0035565D01*
X0004958Y0035727D01*
X0004783Y0035894D01*
X0004612Y0036065D01*
X0004445Y0036240D01*
X0004283Y0036419D01*
X0004125Y0036602D01*
X0003971Y0036788D01*
X0003822Y0036978D01*
X0003678Y0037172D01*
X0003538Y0037369D01*
X0003403Y0037570D01*
X0003273Y0037774D01*
X0003148Y0037980D01*
X0003028Y0038190D01*
X0002913Y0038403D01*
X0002804Y0038618D01*
X0002699Y0038836D01*
X0002600Y0039056D01*
X0002506Y0039279D01*
X0002418Y0039504D01*
X0002335Y0039731D01*
X0002257Y0039960D01*
X0002186Y0040191D01*
X0002119Y0040423D01*
X0002059Y0040657D01*
X0002004Y0040892D01*
X0001954Y0041129D01*
X0001911Y0041366D01*
X0001873Y0041605D01*
X0001841Y0041845D01*
X0001815Y0042085D01*
X0001794Y0042326D01*
X0001780Y0042567D01*
X0001771Y0042808D01*
X0001768Y0043050D01*
X0001768Y0323050D01*
X0001771Y0323292D01*
X0001780Y0323533D01*
X0001794Y0323774D01*
X0001815Y0324015D01*
X0001841Y0324255D01*
X0001873Y0324495D01*
X0001911Y0324734D01*
X0001954Y0324971D01*
X0002004Y0325208D01*
X0002059Y0325443D01*
X0002119Y0325677D01*
X0002186Y0325909D01*
X0002257Y0326140D01*
X0002335Y0326369D01*
X0002418Y0326596D01*
X0002506Y0326821D01*
X0002600Y0327044D01*
X0002699Y0327264D01*
X0002804Y0327482D01*
X0002913Y0327697D01*
X0003028Y0327910D01*
X0003148Y0328120D01*
X0003273Y0328326D01*
X0003403Y0328530D01*
X0003538Y0328731D01*
X0003678Y0328928D01*
X0003822Y0329122D01*
X0003971Y0329312D01*
X0004125Y0329498D01*
X0004283Y0329681D01*
X0004445Y0329860D01*
X0004612Y0330035D01*
X0004783Y0330206D01*
X0004958Y0330373D01*
X0005137Y0330535D01*
X0005320Y0330693D01*
X0005506Y0330847D01*
X0005696Y0330996D01*
X0005890Y0331140D01*
X0006087Y0331280D01*
X0006288Y0331415D01*
X0006492Y0331545D01*
X0006698Y0331670D01*
X0006908Y0331790D01*
X0007121Y0331905D01*
X0007336Y0332014D01*
X0007554Y0332119D01*
X0007774Y0332218D01*
X0007997Y0332312D01*
X0008222Y0332400D01*
X0008449Y0332483D01*
X0008678Y0332561D01*
X0008909Y0332632D01*
X0009141Y0332699D01*
X0009375Y0332759D01*
X0009610Y0332814D01*
X0009847Y0332864D01*
X0010084Y0332907D01*
X0010323Y0332945D01*
X0010563Y0332977D01*
X0010803Y0333003D01*
X0011044Y0333024D01*
X0011285Y0333038D01*
X0011526Y0333047D01*
X0011768Y0333050D01*
X0011768Y0340050D01*
X0001768Y0340050D01*
X0001768Y0365050D01*
X0501768Y0365050D01*
X0501768Y0340050D01*
X0491768Y0340050D01*
X0491768Y0333050D01*
X0492010Y0333047D01*
X0492251Y0333038D01*
X0492492Y0333024D01*
X0492733Y0333003D01*
X0492973Y0332977D01*
X0493213Y0332945D01*
X0493452Y0332907D01*
X0493689Y0332864D01*
X0493926Y0332814D01*
X0494161Y0332759D01*
X0494395Y0332699D01*
X0494627Y0332632D01*
X0494858Y0332561D01*
X0495087Y0332483D01*
X0495314Y0332400D01*
X0495539Y0332312D01*
X0495762Y0332218D01*
X0495982Y0332119D01*
X0496200Y0332014D01*
X0496415Y0331905D01*
X0496628Y0331790D01*
X0496838Y0331670D01*
X0497044Y0331545D01*
X0497248Y0331415D01*
X0497449Y0331280D01*
X0497646Y0331140D01*
X0497840Y0330996D01*
X0498030Y0330847D01*
X0498216Y0330693D01*
X0498399Y0330535D01*
X0498578Y0330373D01*
X0498753Y0330206D01*
X0498924Y0330035D01*
X0499091Y0329860D01*
X0499253Y0329681D01*
X0499411Y0329498D01*
X0499565Y0329312D01*
X0499714Y0329122D01*
X0499858Y0328928D01*
X0499998Y0328731D01*
X0500133Y0328530D01*
X0500263Y0328326D01*
X0500388Y0328120D01*
X0500508Y0327910D01*
X0500623Y0327697D01*
X0500732Y0327482D01*
X0500837Y0327264D01*
X0500936Y0327044D01*
X0501030Y0326821D01*
X0501118Y0326596D01*
X0501201Y0326369D01*
X0501279Y0326140D01*
X0501350Y0325909D01*
X0501417Y0325677D01*
X0501477Y0325443D01*
X0501532Y0325208D01*
X0501582Y0324971D01*
X0501625Y0324734D01*
X0501663Y0324495D01*
X0501695Y0324255D01*
X0501721Y0324015D01*
X0501742Y0323774D01*
X0501756Y0323533D01*
X0501765Y0323292D01*
X0501768Y0323050D01*
X0501768Y0043050D01*
X0501765Y0042808D01*
X0501756Y0042567D01*
X0501742Y0042326D01*
X0501721Y0042085D01*
X0501695Y0041845D01*
X0501663Y0041605D01*
X0501625Y0041366D01*
X0501582Y0041129D01*
X0501532Y0040892D01*
X0501477Y0040657D01*
X0501417Y0040423D01*
X0501350Y0040191D01*
X0501279Y0039960D01*
X0501201Y0039731D01*
X0501118Y0039504D01*
X0501030Y0039279D01*
X0500936Y0039056D01*
X0500837Y0038836D01*
X0500732Y0038618D01*
X0500623Y0038403D01*
X0500508Y0038190D01*
X0500388Y0037980D01*
X0500263Y0037774D01*
X0500133Y0037570D01*
X0499998Y0037369D01*
X0499858Y0037172D01*
X0499714Y0036978D01*
X0499565Y0036788D01*
X0499411Y0036602D01*
X0499253Y0036419D01*
X0499091Y0036240D01*
X0498924Y0036065D01*
X0498753Y0035894D01*
X0498578Y0035727D01*
X0498399Y0035565D01*
X0498216Y0035407D01*
X0498030Y0035253D01*
X0497840Y0035104D01*
X0497646Y0034960D01*
X0497449Y0034820D01*
X0497248Y0034685D01*
X0497044Y0034555D01*
X0496838Y0034430D01*
X0496628Y0034310D01*
X0496415Y0034195D01*
X0496200Y0034086D01*
X0495982Y0033981D01*
X0495762Y0033882D01*
X0495539Y0033788D01*
X0495314Y0033700D01*
X0495087Y0033617D01*
X0494858Y0033539D01*
X0494627Y0033468D01*
X0494395Y0033401D01*
X0494161Y0033341D01*
X0493926Y0033286D01*
X0493689Y0033236D01*
X0493452Y0033193D01*
X0493213Y0033155D01*
X0492973Y0033123D01*
X0492733Y0033097D01*
X0492492Y0033076D01*
X0492251Y0033062D01*
X0492010Y0033053D01*
X0491768Y0033050D01*
X0491768Y0026050D01*
X0501768Y0026050D01*
X0501768Y0001050D01*
X0001768Y0001050D01*
X0256768Y0026050D02*
X0481768Y0026050D01*
X0481768Y0033050D01*
X0256768Y0033050D01*
X0256768Y0026050D01*
X0256768Y0333050D02*
X0481768Y0333050D01*
X0481768Y0340050D01*
X0256768Y0340050D01*
X0256768Y0333050D01*
X0246768Y0333050D02*
X0246768Y0340050D01*
X0021768Y0340050D01*
X0021768Y0333050D01*
X0246768Y0333050D01*
D11*
X0247177Y0333050D02*
X0247179Y0333098D01*
X0247185Y0333146D01*
X0247195Y0333193D01*
X0247208Y0333239D01*
X0247226Y0333284D01*
X0247246Y0333328D01*
X0247271Y0333370D01*
X0247299Y0333409D01*
X0247329Y0333446D01*
X0247363Y0333480D01*
X0247400Y0333512D01*
X0247438Y0333541D01*
X0247479Y0333566D01*
X0247522Y0333588D01*
X0247567Y0333606D01*
X0247613Y0333620D01*
X0247660Y0333631D01*
X0247708Y0333638D01*
X0247756Y0333641D01*
X0247804Y0333640D01*
X0247852Y0333635D01*
X0247900Y0333626D01*
X0247946Y0333614D01*
X0247991Y0333597D01*
X0248035Y0333577D01*
X0248077Y0333554D01*
X0248117Y0333527D01*
X0248155Y0333497D01*
X0248190Y0333464D01*
X0248222Y0333428D01*
X0248252Y0333390D01*
X0248278Y0333349D01*
X0248300Y0333306D01*
X0248320Y0333262D01*
X0248335Y0333217D01*
X0248347Y0333170D01*
X0248355Y0333122D01*
X0248359Y0333074D01*
X0248359Y0333026D01*
X0248355Y0332978D01*
X0248347Y0332930D01*
X0248335Y0332883D01*
X0248320Y0332838D01*
X0248300Y0332794D01*
X0248278Y0332751D01*
X0248252Y0332710D01*
X0248222Y0332672D01*
X0248190Y0332636D01*
X0248155Y0332603D01*
X0248117Y0332573D01*
X0248077Y0332546D01*
X0248035Y0332523D01*
X0247991Y0332503D01*
X0247946Y0332486D01*
X0247900Y0332474D01*
X0247852Y0332465D01*
X0247804Y0332460D01*
X0247756Y0332459D01*
X0247708Y0332462D01*
X0247660Y0332469D01*
X0247613Y0332480D01*
X0247567Y0332494D01*
X0247522Y0332512D01*
X0247479Y0332534D01*
X0247438Y0332559D01*
X0247400Y0332588D01*
X0247363Y0332620D01*
X0247329Y0332654D01*
X0247299Y0332691D01*
X0247271Y0332730D01*
X0247246Y0332772D01*
X0247226Y0332816D01*
X0247208Y0332861D01*
X0247195Y0332907D01*
X0247185Y0332954D01*
X0247179Y0333002D01*
X0247177Y0333050D01*
X0249177Y0333050D02*
X0249179Y0333098D01*
X0249185Y0333146D01*
X0249195Y0333193D01*
X0249208Y0333239D01*
X0249226Y0333284D01*
X0249246Y0333328D01*
X0249271Y0333370D01*
X0249299Y0333409D01*
X0249329Y0333446D01*
X0249363Y0333480D01*
X0249400Y0333512D01*
X0249438Y0333541D01*
X0249479Y0333566D01*
X0249522Y0333588D01*
X0249567Y0333606D01*
X0249613Y0333620D01*
X0249660Y0333631D01*
X0249708Y0333638D01*
X0249756Y0333641D01*
X0249804Y0333640D01*
X0249852Y0333635D01*
X0249900Y0333626D01*
X0249946Y0333614D01*
X0249991Y0333597D01*
X0250035Y0333577D01*
X0250077Y0333554D01*
X0250117Y0333527D01*
X0250155Y0333497D01*
X0250190Y0333464D01*
X0250222Y0333428D01*
X0250252Y0333390D01*
X0250278Y0333349D01*
X0250300Y0333306D01*
X0250320Y0333262D01*
X0250335Y0333217D01*
X0250347Y0333170D01*
X0250355Y0333122D01*
X0250359Y0333074D01*
X0250359Y0333026D01*
X0250355Y0332978D01*
X0250347Y0332930D01*
X0250335Y0332883D01*
X0250320Y0332838D01*
X0250300Y0332794D01*
X0250278Y0332751D01*
X0250252Y0332710D01*
X0250222Y0332672D01*
X0250190Y0332636D01*
X0250155Y0332603D01*
X0250117Y0332573D01*
X0250077Y0332546D01*
X0250035Y0332523D01*
X0249991Y0332503D01*
X0249946Y0332486D01*
X0249900Y0332474D01*
X0249852Y0332465D01*
X0249804Y0332460D01*
X0249756Y0332459D01*
X0249708Y0332462D01*
X0249660Y0332469D01*
X0249613Y0332480D01*
X0249567Y0332494D01*
X0249522Y0332512D01*
X0249479Y0332534D01*
X0249438Y0332559D01*
X0249400Y0332588D01*
X0249363Y0332620D01*
X0249329Y0332654D01*
X0249299Y0332691D01*
X0249271Y0332730D01*
X0249246Y0332772D01*
X0249226Y0332816D01*
X0249208Y0332861D01*
X0249195Y0332907D01*
X0249185Y0332954D01*
X0249179Y0333002D01*
X0249177Y0333050D01*
X0251177Y0333050D02*
X0251179Y0333098D01*
X0251185Y0333146D01*
X0251195Y0333193D01*
X0251208Y0333239D01*
X0251226Y0333284D01*
X0251246Y0333328D01*
X0251271Y0333370D01*
X0251299Y0333409D01*
X0251329Y0333446D01*
X0251363Y0333480D01*
X0251400Y0333512D01*
X0251438Y0333541D01*
X0251479Y0333566D01*
X0251522Y0333588D01*
X0251567Y0333606D01*
X0251613Y0333620D01*
X0251660Y0333631D01*
X0251708Y0333638D01*
X0251756Y0333641D01*
X0251804Y0333640D01*
X0251852Y0333635D01*
X0251900Y0333626D01*
X0251946Y0333614D01*
X0251991Y0333597D01*
X0252035Y0333577D01*
X0252077Y0333554D01*
X0252117Y0333527D01*
X0252155Y0333497D01*
X0252190Y0333464D01*
X0252222Y0333428D01*
X0252252Y0333390D01*
X0252278Y0333349D01*
X0252300Y0333306D01*
X0252320Y0333262D01*
X0252335Y0333217D01*
X0252347Y0333170D01*
X0252355Y0333122D01*
X0252359Y0333074D01*
X0252359Y0333026D01*
X0252355Y0332978D01*
X0252347Y0332930D01*
X0252335Y0332883D01*
X0252320Y0332838D01*
X0252300Y0332794D01*
X0252278Y0332751D01*
X0252252Y0332710D01*
X0252222Y0332672D01*
X0252190Y0332636D01*
X0252155Y0332603D01*
X0252117Y0332573D01*
X0252077Y0332546D01*
X0252035Y0332523D01*
X0251991Y0332503D01*
X0251946Y0332486D01*
X0251900Y0332474D01*
X0251852Y0332465D01*
X0251804Y0332460D01*
X0251756Y0332459D01*
X0251708Y0332462D01*
X0251660Y0332469D01*
X0251613Y0332480D01*
X0251567Y0332494D01*
X0251522Y0332512D01*
X0251479Y0332534D01*
X0251438Y0332559D01*
X0251400Y0332588D01*
X0251363Y0332620D01*
X0251329Y0332654D01*
X0251299Y0332691D01*
X0251271Y0332730D01*
X0251246Y0332772D01*
X0251226Y0332816D01*
X0251208Y0332861D01*
X0251195Y0332907D01*
X0251185Y0332954D01*
X0251179Y0333002D01*
X0251177Y0333050D01*
X0253177Y0333050D02*
X0253179Y0333098D01*
X0253185Y0333146D01*
X0253195Y0333193D01*
X0253208Y0333239D01*
X0253226Y0333284D01*
X0253246Y0333328D01*
X0253271Y0333370D01*
X0253299Y0333409D01*
X0253329Y0333446D01*
X0253363Y0333480D01*
X0253400Y0333512D01*
X0253438Y0333541D01*
X0253479Y0333566D01*
X0253522Y0333588D01*
X0253567Y0333606D01*
X0253613Y0333620D01*
X0253660Y0333631D01*
X0253708Y0333638D01*
X0253756Y0333641D01*
X0253804Y0333640D01*
X0253852Y0333635D01*
X0253900Y0333626D01*
X0253946Y0333614D01*
X0253991Y0333597D01*
X0254035Y0333577D01*
X0254077Y0333554D01*
X0254117Y0333527D01*
X0254155Y0333497D01*
X0254190Y0333464D01*
X0254222Y0333428D01*
X0254252Y0333390D01*
X0254278Y0333349D01*
X0254300Y0333306D01*
X0254320Y0333262D01*
X0254335Y0333217D01*
X0254347Y0333170D01*
X0254355Y0333122D01*
X0254359Y0333074D01*
X0254359Y0333026D01*
X0254355Y0332978D01*
X0254347Y0332930D01*
X0254335Y0332883D01*
X0254320Y0332838D01*
X0254300Y0332794D01*
X0254278Y0332751D01*
X0254252Y0332710D01*
X0254222Y0332672D01*
X0254190Y0332636D01*
X0254155Y0332603D01*
X0254117Y0332573D01*
X0254077Y0332546D01*
X0254035Y0332523D01*
X0253991Y0332503D01*
X0253946Y0332486D01*
X0253900Y0332474D01*
X0253852Y0332465D01*
X0253804Y0332460D01*
X0253756Y0332459D01*
X0253708Y0332462D01*
X0253660Y0332469D01*
X0253613Y0332480D01*
X0253567Y0332494D01*
X0253522Y0332512D01*
X0253479Y0332534D01*
X0253438Y0332559D01*
X0253400Y0332588D01*
X0253363Y0332620D01*
X0253329Y0332654D01*
X0253299Y0332691D01*
X0253271Y0332730D01*
X0253246Y0332772D01*
X0253226Y0332816D01*
X0253208Y0332861D01*
X0253195Y0332907D01*
X0253185Y0332954D01*
X0253179Y0333002D01*
X0253177Y0333050D01*
X0255177Y0333050D02*
X0255179Y0333098D01*
X0255185Y0333146D01*
X0255195Y0333193D01*
X0255208Y0333239D01*
X0255226Y0333284D01*
X0255246Y0333328D01*
X0255271Y0333370D01*
X0255299Y0333409D01*
X0255329Y0333446D01*
X0255363Y0333480D01*
X0255400Y0333512D01*
X0255438Y0333541D01*
X0255479Y0333566D01*
X0255522Y0333588D01*
X0255567Y0333606D01*
X0255613Y0333620D01*
X0255660Y0333631D01*
X0255708Y0333638D01*
X0255756Y0333641D01*
X0255804Y0333640D01*
X0255852Y0333635D01*
X0255900Y0333626D01*
X0255946Y0333614D01*
X0255991Y0333597D01*
X0256035Y0333577D01*
X0256077Y0333554D01*
X0256117Y0333527D01*
X0256155Y0333497D01*
X0256190Y0333464D01*
X0256222Y0333428D01*
X0256252Y0333390D01*
X0256278Y0333349D01*
X0256300Y0333306D01*
X0256320Y0333262D01*
X0256335Y0333217D01*
X0256347Y0333170D01*
X0256355Y0333122D01*
X0256359Y0333074D01*
X0256359Y0333026D01*
X0256355Y0332978D01*
X0256347Y0332930D01*
X0256335Y0332883D01*
X0256320Y0332838D01*
X0256300Y0332794D01*
X0256278Y0332751D01*
X0256252Y0332710D01*
X0256222Y0332672D01*
X0256190Y0332636D01*
X0256155Y0332603D01*
X0256117Y0332573D01*
X0256077Y0332546D01*
X0256035Y0332523D01*
X0255991Y0332503D01*
X0255946Y0332486D01*
X0255900Y0332474D01*
X0255852Y0332465D01*
X0255804Y0332460D01*
X0255756Y0332459D01*
X0255708Y0332462D01*
X0255660Y0332469D01*
X0255613Y0332480D01*
X0255567Y0332494D01*
X0255522Y0332512D01*
X0255479Y0332534D01*
X0255438Y0332559D01*
X0255400Y0332588D01*
X0255363Y0332620D01*
X0255329Y0332654D01*
X0255299Y0332691D01*
X0255271Y0332730D01*
X0255246Y0332772D01*
X0255226Y0332816D01*
X0255208Y0332861D01*
X0255195Y0332907D01*
X0255185Y0332954D01*
X0255179Y0333002D01*
X0255177Y0333050D01*
X0273224Y0266121D02*
X0273226Y0266282D01*
X0273232Y0266442D01*
X0273242Y0266603D01*
X0273256Y0266763D01*
X0273274Y0266922D01*
X0273295Y0267082D01*
X0273321Y0267240D01*
X0273351Y0267398D01*
X0273384Y0267555D01*
X0273422Y0267712D01*
X0273463Y0267867D01*
X0273508Y0268021D01*
X0273557Y0268174D01*
X0273610Y0268326D01*
X0273666Y0268476D01*
X0273726Y0268625D01*
X0273790Y0268773D01*
X0273857Y0268919D01*
X0273928Y0269063D01*
X0274003Y0269205D01*
X0274081Y0269346D01*
X0274162Y0269484D01*
X0274247Y0269621D01*
X0274336Y0269755D01*
X0274427Y0269887D01*
X0274522Y0270017D01*
X0274620Y0270144D01*
X0274721Y0270269D01*
X0274825Y0270392D01*
X0274932Y0270511D01*
X0275042Y0270628D01*
X0275155Y0270743D01*
X0275271Y0270854D01*
X0275389Y0270963D01*
X0275510Y0271068D01*
X0275634Y0271171D01*
X0275760Y0271271D01*
X0275889Y0271367D01*
X0276020Y0271460D01*
X0276153Y0271550D01*
X0276288Y0271637D01*
X0276426Y0271720D01*
X0276565Y0271799D01*
X0276707Y0271876D01*
X0276850Y0271949D01*
X0276995Y0272018D01*
X0277142Y0272083D01*
X0277290Y0272145D01*
X0277440Y0272204D01*
X0277591Y0272258D01*
X0277743Y0272309D01*
X0277897Y0272356D01*
X0278052Y0272399D01*
X0278207Y0272438D01*
X0278364Y0272474D01*
X0278522Y0272506D01*
X0278680Y0272533D01*
X0278839Y0272557D01*
X0278998Y0272577D01*
X0279158Y0272593D01*
X0279319Y0272605D01*
X0279479Y0272613D01*
X0279640Y0272617D01*
X0279800Y0272617D01*
X0279961Y0272613D01*
X0280121Y0272605D01*
X0280282Y0272593D01*
X0280442Y0272577D01*
X0280601Y0272557D01*
X0280760Y0272533D01*
X0280918Y0272506D01*
X0281076Y0272474D01*
X0281233Y0272438D01*
X0281388Y0272399D01*
X0281543Y0272356D01*
X0281697Y0272309D01*
X0281849Y0272258D01*
X0282000Y0272204D01*
X0282150Y0272145D01*
X0282298Y0272083D01*
X0282445Y0272018D01*
X0282590Y0271949D01*
X0282733Y0271876D01*
X0282875Y0271799D01*
X0283014Y0271720D01*
X0283152Y0271637D01*
X0283287Y0271550D01*
X0283420Y0271460D01*
X0283551Y0271367D01*
X0283680Y0271271D01*
X0283806Y0271171D01*
X0283930Y0271068D01*
X0284051Y0270963D01*
X0284169Y0270854D01*
X0284285Y0270743D01*
X0284398Y0270628D01*
X0284508Y0270511D01*
X0284615Y0270392D01*
X0284719Y0270269D01*
X0284820Y0270144D01*
X0284918Y0270017D01*
X0285013Y0269887D01*
X0285104Y0269755D01*
X0285193Y0269621D01*
X0285278Y0269484D01*
X0285359Y0269346D01*
X0285437Y0269205D01*
X0285512Y0269063D01*
X0285583Y0268919D01*
X0285650Y0268773D01*
X0285714Y0268625D01*
X0285774Y0268476D01*
X0285830Y0268326D01*
X0285883Y0268174D01*
X0285932Y0268021D01*
X0285977Y0267867D01*
X0286018Y0267712D01*
X0286056Y0267555D01*
X0286089Y0267398D01*
X0286119Y0267240D01*
X0286145Y0267082D01*
X0286166Y0266922D01*
X0286184Y0266763D01*
X0286198Y0266603D01*
X0286208Y0266442D01*
X0286214Y0266282D01*
X0286216Y0266121D01*
X0286214Y0265960D01*
X0286208Y0265800D01*
X0286198Y0265639D01*
X0286184Y0265479D01*
X0286166Y0265320D01*
X0286145Y0265160D01*
X0286119Y0265002D01*
X0286089Y0264844D01*
X0286056Y0264687D01*
X0286018Y0264530D01*
X0285977Y0264375D01*
X0285932Y0264221D01*
X0285883Y0264068D01*
X0285830Y0263916D01*
X0285774Y0263766D01*
X0285714Y0263617D01*
X0285650Y0263469D01*
X0285583Y0263323D01*
X0285512Y0263179D01*
X0285437Y0263037D01*
X0285359Y0262896D01*
X0285278Y0262758D01*
X0285193Y0262621D01*
X0285104Y0262487D01*
X0285013Y0262355D01*
X0284918Y0262225D01*
X0284820Y0262098D01*
X0284719Y0261973D01*
X0284615Y0261850D01*
X0284508Y0261731D01*
X0284398Y0261614D01*
X0284285Y0261499D01*
X0284169Y0261388D01*
X0284051Y0261279D01*
X0283930Y0261174D01*
X0283806Y0261071D01*
X0283680Y0260971D01*
X0283551Y0260875D01*
X0283420Y0260782D01*
X0283287Y0260692D01*
X0283152Y0260605D01*
X0283014Y0260522D01*
X0282875Y0260443D01*
X0282733Y0260366D01*
X0282590Y0260293D01*
X0282445Y0260224D01*
X0282298Y0260159D01*
X0282150Y0260097D01*
X0282000Y0260038D01*
X0281849Y0259984D01*
X0281697Y0259933D01*
X0281543Y0259886D01*
X0281388Y0259843D01*
X0281233Y0259804D01*
X0281076Y0259768D01*
X0280918Y0259736D01*
X0280760Y0259709D01*
X0280601Y0259685D01*
X0280442Y0259665D01*
X0280282Y0259649D01*
X0280121Y0259637D01*
X0279961Y0259629D01*
X0279800Y0259625D01*
X0279640Y0259625D01*
X0279479Y0259629D01*
X0279319Y0259637D01*
X0279158Y0259649D01*
X0278998Y0259665D01*
X0278839Y0259685D01*
X0278680Y0259709D01*
X0278522Y0259736D01*
X0278364Y0259768D01*
X0278207Y0259804D01*
X0278052Y0259843D01*
X0277897Y0259886D01*
X0277743Y0259933D01*
X0277591Y0259984D01*
X0277440Y0260038D01*
X0277290Y0260097D01*
X0277142Y0260159D01*
X0276995Y0260224D01*
X0276850Y0260293D01*
X0276707Y0260366D01*
X0276565Y0260443D01*
X0276426Y0260522D01*
X0276288Y0260605D01*
X0276153Y0260692D01*
X0276020Y0260782D01*
X0275889Y0260875D01*
X0275760Y0260971D01*
X0275634Y0261071D01*
X0275510Y0261174D01*
X0275389Y0261279D01*
X0275271Y0261388D01*
X0275155Y0261499D01*
X0275042Y0261614D01*
X0274932Y0261731D01*
X0274825Y0261850D01*
X0274721Y0261973D01*
X0274620Y0262098D01*
X0274522Y0262225D01*
X0274427Y0262355D01*
X0274336Y0262487D01*
X0274247Y0262621D01*
X0274162Y0262758D01*
X0274081Y0262896D01*
X0274003Y0263037D01*
X0273928Y0263179D01*
X0273857Y0263323D01*
X0273790Y0263469D01*
X0273726Y0263617D01*
X0273666Y0263766D01*
X0273610Y0263916D01*
X0273557Y0264068D01*
X0273508Y0264221D01*
X0273463Y0264375D01*
X0273422Y0264530D01*
X0273384Y0264687D01*
X0273351Y0264844D01*
X0273321Y0265002D01*
X0273295Y0265160D01*
X0273274Y0265320D01*
X0273256Y0265479D01*
X0273242Y0265639D01*
X0273232Y0265800D01*
X0273226Y0265960D01*
X0273224Y0266121D01*
X0307299Y0263050D02*
X0307301Y0263138D01*
X0307307Y0263226D01*
X0307317Y0263314D01*
X0307331Y0263402D01*
X0307348Y0263488D01*
X0307370Y0263574D01*
X0307395Y0263658D01*
X0307425Y0263742D01*
X0307457Y0263824D01*
X0307494Y0263904D01*
X0307534Y0263983D01*
X0307578Y0264060D01*
X0307625Y0264135D01*
X0307675Y0264207D01*
X0307729Y0264278D01*
X0307785Y0264345D01*
X0307845Y0264411D01*
X0307907Y0264473D01*
X0307973Y0264533D01*
X0308040Y0264589D01*
X0308111Y0264643D01*
X0308183Y0264693D01*
X0308258Y0264740D01*
X0308335Y0264784D01*
X0308414Y0264824D01*
X0308494Y0264861D01*
X0308576Y0264893D01*
X0308660Y0264923D01*
X0308744Y0264948D01*
X0308830Y0264970D01*
X0308916Y0264987D01*
X0309004Y0265001D01*
X0309092Y0265011D01*
X0309180Y0265017D01*
X0309268Y0265019D01*
X0309356Y0265017D01*
X0309444Y0265011D01*
X0309532Y0265001D01*
X0309620Y0264987D01*
X0309706Y0264970D01*
X0309792Y0264948D01*
X0309876Y0264923D01*
X0309960Y0264893D01*
X0310042Y0264861D01*
X0310122Y0264824D01*
X0310201Y0264784D01*
X0310278Y0264740D01*
X0310353Y0264693D01*
X0310425Y0264643D01*
X0310496Y0264589D01*
X0310563Y0264533D01*
X0310629Y0264473D01*
X0310691Y0264411D01*
X0310751Y0264345D01*
X0310807Y0264278D01*
X0310861Y0264207D01*
X0310911Y0264135D01*
X0310958Y0264060D01*
X0311002Y0263983D01*
X0311042Y0263904D01*
X0311079Y0263824D01*
X0311111Y0263742D01*
X0311141Y0263658D01*
X0311166Y0263574D01*
X0311188Y0263488D01*
X0311205Y0263402D01*
X0311219Y0263314D01*
X0311229Y0263226D01*
X0311235Y0263138D01*
X0311237Y0263050D01*
X0311235Y0262962D01*
X0311229Y0262874D01*
X0311219Y0262786D01*
X0311205Y0262698D01*
X0311188Y0262612D01*
X0311166Y0262526D01*
X0311141Y0262442D01*
X0311111Y0262358D01*
X0311079Y0262276D01*
X0311042Y0262196D01*
X0311002Y0262117D01*
X0310958Y0262040D01*
X0310911Y0261965D01*
X0310861Y0261893D01*
X0310807Y0261822D01*
X0310751Y0261755D01*
X0310691Y0261689D01*
X0310629Y0261627D01*
X0310563Y0261567D01*
X0310496Y0261511D01*
X0310425Y0261457D01*
X0310353Y0261407D01*
X0310278Y0261360D01*
X0310201Y0261316D01*
X0310122Y0261276D01*
X0310042Y0261239D01*
X0309960Y0261207D01*
X0309876Y0261177D01*
X0309792Y0261152D01*
X0309706Y0261130D01*
X0309620Y0261113D01*
X0309532Y0261099D01*
X0309444Y0261089D01*
X0309356Y0261083D01*
X0309268Y0261081D01*
X0309180Y0261083D01*
X0309092Y0261089D01*
X0309004Y0261099D01*
X0308916Y0261113D01*
X0308830Y0261130D01*
X0308744Y0261152D01*
X0308660Y0261177D01*
X0308576Y0261207D01*
X0308494Y0261239D01*
X0308414Y0261276D01*
X0308335Y0261316D01*
X0308258Y0261360D01*
X0308183Y0261407D01*
X0308111Y0261457D01*
X0308040Y0261511D01*
X0307973Y0261567D01*
X0307907Y0261627D01*
X0307845Y0261689D01*
X0307785Y0261755D01*
X0307729Y0261822D01*
X0307675Y0261893D01*
X0307625Y0261965D01*
X0307578Y0262040D01*
X0307534Y0262117D01*
X0307494Y0262196D01*
X0307457Y0262276D01*
X0307425Y0262358D01*
X0307395Y0262442D01*
X0307370Y0262526D01*
X0307348Y0262612D01*
X0307331Y0262698D01*
X0307317Y0262786D01*
X0307307Y0262874D01*
X0307301Y0262962D01*
X0307299Y0263050D01*
X0337299Y0243050D02*
X0337301Y0243138D01*
X0337307Y0243226D01*
X0337317Y0243314D01*
X0337331Y0243402D01*
X0337348Y0243488D01*
X0337370Y0243574D01*
X0337395Y0243658D01*
X0337425Y0243742D01*
X0337457Y0243824D01*
X0337494Y0243904D01*
X0337534Y0243983D01*
X0337578Y0244060D01*
X0337625Y0244135D01*
X0337675Y0244207D01*
X0337729Y0244278D01*
X0337785Y0244345D01*
X0337845Y0244411D01*
X0337907Y0244473D01*
X0337973Y0244533D01*
X0338040Y0244589D01*
X0338111Y0244643D01*
X0338183Y0244693D01*
X0338258Y0244740D01*
X0338335Y0244784D01*
X0338414Y0244824D01*
X0338494Y0244861D01*
X0338576Y0244893D01*
X0338660Y0244923D01*
X0338744Y0244948D01*
X0338830Y0244970D01*
X0338916Y0244987D01*
X0339004Y0245001D01*
X0339092Y0245011D01*
X0339180Y0245017D01*
X0339268Y0245019D01*
X0339356Y0245017D01*
X0339444Y0245011D01*
X0339532Y0245001D01*
X0339620Y0244987D01*
X0339706Y0244970D01*
X0339792Y0244948D01*
X0339876Y0244923D01*
X0339960Y0244893D01*
X0340042Y0244861D01*
X0340122Y0244824D01*
X0340201Y0244784D01*
X0340278Y0244740D01*
X0340353Y0244693D01*
X0340425Y0244643D01*
X0340496Y0244589D01*
X0340563Y0244533D01*
X0340629Y0244473D01*
X0340691Y0244411D01*
X0340751Y0244345D01*
X0340807Y0244278D01*
X0340861Y0244207D01*
X0340911Y0244135D01*
X0340958Y0244060D01*
X0341002Y0243983D01*
X0341042Y0243904D01*
X0341079Y0243824D01*
X0341111Y0243742D01*
X0341141Y0243658D01*
X0341166Y0243574D01*
X0341188Y0243488D01*
X0341205Y0243402D01*
X0341219Y0243314D01*
X0341229Y0243226D01*
X0341235Y0243138D01*
X0341237Y0243050D01*
X0341235Y0242962D01*
X0341229Y0242874D01*
X0341219Y0242786D01*
X0341205Y0242698D01*
X0341188Y0242612D01*
X0341166Y0242526D01*
X0341141Y0242442D01*
X0341111Y0242358D01*
X0341079Y0242276D01*
X0341042Y0242196D01*
X0341002Y0242117D01*
X0340958Y0242040D01*
X0340911Y0241965D01*
X0340861Y0241893D01*
X0340807Y0241822D01*
X0340751Y0241755D01*
X0340691Y0241689D01*
X0340629Y0241627D01*
X0340563Y0241567D01*
X0340496Y0241511D01*
X0340425Y0241457D01*
X0340353Y0241407D01*
X0340278Y0241360D01*
X0340201Y0241316D01*
X0340122Y0241276D01*
X0340042Y0241239D01*
X0339960Y0241207D01*
X0339876Y0241177D01*
X0339792Y0241152D01*
X0339706Y0241130D01*
X0339620Y0241113D01*
X0339532Y0241099D01*
X0339444Y0241089D01*
X0339356Y0241083D01*
X0339268Y0241081D01*
X0339180Y0241083D01*
X0339092Y0241089D01*
X0339004Y0241099D01*
X0338916Y0241113D01*
X0338830Y0241130D01*
X0338744Y0241152D01*
X0338660Y0241177D01*
X0338576Y0241207D01*
X0338494Y0241239D01*
X0338414Y0241276D01*
X0338335Y0241316D01*
X0338258Y0241360D01*
X0338183Y0241407D01*
X0338111Y0241457D01*
X0338040Y0241511D01*
X0337973Y0241567D01*
X0337907Y0241627D01*
X0337845Y0241689D01*
X0337785Y0241755D01*
X0337729Y0241822D01*
X0337675Y0241893D01*
X0337625Y0241965D01*
X0337578Y0242040D01*
X0337534Y0242117D01*
X0337494Y0242196D01*
X0337457Y0242276D01*
X0337425Y0242358D01*
X0337395Y0242442D01*
X0337370Y0242526D01*
X0337348Y0242612D01*
X0337331Y0242698D01*
X0337317Y0242786D01*
X0337307Y0242874D01*
X0337301Y0242962D01*
X0337299Y0243050D01*
X0307299Y0213050D02*
X0307301Y0213138D01*
X0307307Y0213226D01*
X0307317Y0213314D01*
X0307331Y0213402D01*
X0307348Y0213488D01*
X0307370Y0213574D01*
X0307395Y0213658D01*
X0307425Y0213742D01*
X0307457Y0213824D01*
X0307494Y0213904D01*
X0307534Y0213983D01*
X0307578Y0214060D01*
X0307625Y0214135D01*
X0307675Y0214207D01*
X0307729Y0214278D01*
X0307785Y0214345D01*
X0307845Y0214411D01*
X0307907Y0214473D01*
X0307973Y0214533D01*
X0308040Y0214589D01*
X0308111Y0214643D01*
X0308183Y0214693D01*
X0308258Y0214740D01*
X0308335Y0214784D01*
X0308414Y0214824D01*
X0308494Y0214861D01*
X0308576Y0214893D01*
X0308660Y0214923D01*
X0308744Y0214948D01*
X0308830Y0214970D01*
X0308916Y0214987D01*
X0309004Y0215001D01*
X0309092Y0215011D01*
X0309180Y0215017D01*
X0309268Y0215019D01*
X0309356Y0215017D01*
X0309444Y0215011D01*
X0309532Y0215001D01*
X0309620Y0214987D01*
X0309706Y0214970D01*
X0309792Y0214948D01*
X0309876Y0214923D01*
X0309960Y0214893D01*
X0310042Y0214861D01*
X0310122Y0214824D01*
X0310201Y0214784D01*
X0310278Y0214740D01*
X0310353Y0214693D01*
X0310425Y0214643D01*
X0310496Y0214589D01*
X0310563Y0214533D01*
X0310629Y0214473D01*
X0310691Y0214411D01*
X0310751Y0214345D01*
X0310807Y0214278D01*
X0310861Y0214207D01*
X0310911Y0214135D01*
X0310958Y0214060D01*
X0311002Y0213983D01*
X0311042Y0213904D01*
X0311079Y0213824D01*
X0311111Y0213742D01*
X0311141Y0213658D01*
X0311166Y0213574D01*
X0311188Y0213488D01*
X0311205Y0213402D01*
X0311219Y0213314D01*
X0311229Y0213226D01*
X0311235Y0213138D01*
X0311237Y0213050D01*
X0311235Y0212962D01*
X0311229Y0212874D01*
X0311219Y0212786D01*
X0311205Y0212698D01*
X0311188Y0212612D01*
X0311166Y0212526D01*
X0311141Y0212442D01*
X0311111Y0212358D01*
X0311079Y0212276D01*
X0311042Y0212196D01*
X0311002Y0212117D01*
X0310958Y0212040D01*
X0310911Y0211965D01*
X0310861Y0211893D01*
X0310807Y0211822D01*
X0310751Y0211755D01*
X0310691Y0211689D01*
X0310629Y0211627D01*
X0310563Y0211567D01*
X0310496Y0211511D01*
X0310425Y0211457D01*
X0310353Y0211407D01*
X0310278Y0211360D01*
X0310201Y0211316D01*
X0310122Y0211276D01*
X0310042Y0211239D01*
X0309960Y0211207D01*
X0309876Y0211177D01*
X0309792Y0211152D01*
X0309706Y0211130D01*
X0309620Y0211113D01*
X0309532Y0211099D01*
X0309444Y0211089D01*
X0309356Y0211083D01*
X0309268Y0211081D01*
X0309180Y0211083D01*
X0309092Y0211089D01*
X0309004Y0211099D01*
X0308916Y0211113D01*
X0308830Y0211130D01*
X0308744Y0211152D01*
X0308660Y0211177D01*
X0308576Y0211207D01*
X0308494Y0211239D01*
X0308414Y0211276D01*
X0308335Y0211316D01*
X0308258Y0211360D01*
X0308183Y0211407D01*
X0308111Y0211457D01*
X0308040Y0211511D01*
X0307973Y0211567D01*
X0307907Y0211627D01*
X0307845Y0211689D01*
X0307785Y0211755D01*
X0307729Y0211822D01*
X0307675Y0211893D01*
X0307625Y0211965D01*
X0307578Y0212040D01*
X0307534Y0212117D01*
X0307494Y0212196D01*
X0307457Y0212276D01*
X0307425Y0212358D01*
X0307395Y0212442D01*
X0307370Y0212526D01*
X0307348Y0212612D01*
X0307331Y0212698D01*
X0307317Y0212786D01*
X0307307Y0212874D01*
X0307301Y0212962D01*
X0307299Y0213050D01*
X0337299Y0193050D02*
X0337301Y0193138D01*
X0337307Y0193226D01*
X0337317Y0193314D01*
X0337331Y0193402D01*
X0337348Y0193488D01*
X0337370Y0193574D01*
X0337395Y0193658D01*
X0337425Y0193742D01*
X0337457Y0193824D01*
X0337494Y0193904D01*
X0337534Y0193983D01*
X0337578Y0194060D01*
X0337625Y0194135D01*
X0337675Y0194207D01*
X0337729Y0194278D01*
X0337785Y0194345D01*
X0337845Y0194411D01*
X0337907Y0194473D01*
X0337973Y0194533D01*
X0338040Y0194589D01*
X0338111Y0194643D01*
X0338183Y0194693D01*
X0338258Y0194740D01*
X0338335Y0194784D01*
X0338414Y0194824D01*
X0338494Y0194861D01*
X0338576Y0194893D01*
X0338660Y0194923D01*
X0338744Y0194948D01*
X0338830Y0194970D01*
X0338916Y0194987D01*
X0339004Y0195001D01*
X0339092Y0195011D01*
X0339180Y0195017D01*
X0339268Y0195019D01*
X0339356Y0195017D01*
X0339444Y0195011D01*
X0339532Y0195001D01*
X0339620Y0194987D01*
X0339706Y0194970D01*
X0339792Y0194948D01*
X0339876Y0194923D01*
X0339960Y0194893D01*
X0340042Y0194861D01*
X0340122Y0194824D01*
X0340201Y0194784D01*
X0340278Y0194740D01*
X0340353Y0194693D01*
X0340425Y0194643D01*
X0340496Y0194589D01*
X0340563Y0194533D01*
X0340629Y0194473D01*
X0340691Y0194411D01*
X0340751Y0194345D01*
X0340807Y0194278D01*
X0340861Y0194207D01*
X0340911Y0194135D01*
X0340958Y0194060D01*
X0341002Y0193983D01*
X0341042Y0193904D01*
X0341079Y0193824D01*
X0341111Y0193742D01*
X0341141Y0193658D01*
X0341166Y0193574D01*
X0341188Y0193488D01*
X0341205Y0193402D01*
X0341219Y0193314D01*
X0341229Y0193226D01*
X0341235Y0193138D01*
X0341237Y0193050D01*
X0341235Y0192962D01*
X0341229Y0192874D01*
X0341219Y0192786D01*
X0341205Y0192698D01*
X0341188Y0192612D01*
X0341166Y0192526D01*
X0341141Y0192442D01*
X0341111Y0192358D01*
X0341079Y0192276D01*
X0341042Y0192196D01*
X0341002Y0192117D01*
X0340958Y0192040D01*
X0340911Y0191965D01*
X0340861Y0191893D01*
X0340807Y0191822D01*
X0340751Y0191755D01*
X0340691Y0191689D01*
X0340629Y0191627D01*
X0340563Y0191567D01*
X0340496Y0191511D01*
X0340425Y0191457D01*
X0340353Y0191407D01*
X0340278Y0191360D01*
X0340201Y0191316D01*
X0340122Y0191276D01*
X0340042Y0191239D01*
X0339960Y0191207D01*
X0339876Y0191177D01*
X0339792Y0191152D01*
X0339706Y0191130D01*
X0339620Y0191113D01*
X0339532Y0191099D01*
X0339444Y0191089D01*
X0339356Y0191083D01*
X0339268Y0191081D01*
X0339180Y0191083D01*
X0339092Y0191089D01*
X0339004Y0191099D01*
X0338916Y0191113D01*
X0338830Y0191130D01*
X0338744Y0191152D01*
X0338660Y0191177D01*
X0338576Y0191207D01*
X0338494Y0191239D01*
X0338414Y0191276D01*
X0338335Y0191316D01*
X0338258Y0191360D01*
X0338183Y0191407D01*
X0338111Y0191457D01*
X0338040Y0191511D01*
X0337973Y0191567D01*
X0337907Y0191627D01*
X0337845Y0191689D01*
X0337785Y0191755D01*
X0337729Y0191822D01*
X0337675Y0191893D01*
X0337625Y0191965D01*
X0337578Y0192040D01*
X0337534Y0192117D01*
X0337494Y0192196D01*
X0337457Y0192276D01*
X0337425Y0192358D01*
X0337395Y0192442D01*
X0337370Y0192526D01*
X0337348Y0192612D01*
X0337331Y0192698D01*
X0337317Y0192786D01*
X0337307Y0192874D01*
X0337301Y0192962D01*
X0337299Y0193050D01*
X0307299Y0163050D02*
X0307301Y0163138D01*
X0307307Y0163226D01*
X0307317Y0163314D01*
X0307331Y0163402D01*
X0307348Y0163488D01*
X0307370Y0163574D01*
X0307395Y0163658D01*
X0307425Y0163742D01*
X0307457Y0163824D01*
X0307494Y0163904D01*
X0307534Y0163983D01*
X0307578Y0164060D01*
X0307625Y0164135D01*
X0307675Y0164207D01*
X0307729Y0164278D01*
X0307785Y0164345D01*
X0307845Y0164411D01*
X0307907Y0164473D01*
X0307973Y0164533D01*
X0308040Y0164589D01*
X0308111Y0164643D01*
X0308183Y0164693D01*
X0308258Y0164740D01*
X0308335Y0164784D01*
X0308414Y0164824D01*
X0308494Y0164861D01*
X0308576Y0164893D01*
X0308660Y0164923D01*
X0308744Y0164948D01*
X0308830Y0164970D01*
X0308916Y0164987D01*
X0309004Y0165001D01*
X0309092Y0165011D01*
X0309180Y0165017D01*
X0309268Y0165019D01*
X0309356Y0165017D01*
X0309444Y0165011D01*
X0309532Y0165001D01*
X0309620Y0164987D01*
X0309706Y0164970D01*
X0309792Y0164948D01*
X0309876Y0164923D01*
X0309960Y0164893D01*
X0310042Y0164861D01*
X0310122Y0164824D01*
X0310201Y0164784D01*
X0310278Y0164740D01*
X0310353Y0164693D01*
X0310425Y0164643D01*
X0310496Y0164589D01*
X0310563Y0164533D01*
X0310629Y0164473D01*
X0310691Y0164411D01*
X0310751Y0164345D01*
X0310807Y0164278D01*
X0310861Y0164207D01*
X0310911Y0164135D01*
X0310958Y0164060D01*
X0311002Y0163983D01*
X0311042Y0163904D01*
X0311079Y0163824D01*
X0311111Y0163742D01*
X0311141Y0163658D01*
X0311166Y0163574D01*
X0311188Y0163488D01*
X0311205Y0163402D01*
X0311219Y0163314D01*
X0311229Y0163226D01*
X0311235Y0163138D01*
X0311237Y0163050D01*
X0311235Y0162962D01*
X0311229Y0162874D01*
X0311219Y0162786D01*
X0311205Y0162698D01*
X0311188Y0162612D01*
X0311166Y0162526D01*
X0311141Y0162442D01*
X0311111Y0162358D01*
X0311079Y0162276D01*
X0311042Y0162196D01*
X0311002Y0162117D01*
X0310958Y0162040D01*
X0310911Y0161965D01*
X0310861Y0161893D01*
X0310807Y0161822D01*
X0310751Y0161755D01*
X0310691Y0161689D01*
X0310629Y0161627D01*
X0310563Y0161567D01*
X0310496Y0161511D01*
X0310425Y0161457D01*
X0310353Y0161407D01*
X0310278Y0161360D01*
X0310201Y0161316D01*
X0310122Y0161276D01*
X0310042Y0161239D01*
X0309960Y0161207D01*
X0309876Y0161177D01*
X0309792Y0161152D01*
X0309706Y0161130D01*
X0309620Y0161113D01*
X0309532Y0161099D01*
X0309444Y0161089D01*
X0309356Y0161083D01*
X0309268Y0161081D01*
X0309180Y0161083D01*
X0309092Y0161089D01*
X0309004Y0161099D01*
X0308916Y0161113D01*
X0308830Y0161130D01*
X0308744Y0161152D01*
X0308660Y0161177D01*
X0308576Y0161207D01*
X0308494Y0161239D01*
X0308414Y0161276D01*
X0308335Y0161316D01*
X0308258Y0161360D01*
X0308183Y0161407D01*
X0308111Y0161457D01*
X0308040Y0161511D01*
X0307973Y0161567D01*
X0307907Y0161627D01*
X0307845Y0161689D01*
X0307785Y0161755D01*
X0307729Y0161822D01*
X0307675Y0161893D01*
X0307625Y0161965D01*
X0307578Y0162040D01*
X0307534Y0162117D01*
X0307494Y0162196D01*
X0307457Y0162276D01*
X0307425Y0162358D01*
X0307395Y0162442D01*
X0307370Y0162526D01*
X0307348Y0162612D01*
X0307331Y0162698D01*
X0307317Y0162786D01*
X0307307Y0162874D01*
X0307301Y0162962D01*
X0307299Y0163050D01*
X0337299Y0143050D02*
X0337301Y0143138D01*
X0337307Y0143226D01*
X0337317Y0143314D01*
X0337331Y0143402D01*
X0337348Y0143488D01*
X0337370Y0143574D01*
X0337395Y0143658D01*
X0337425Y0143742D01*
X0337457Y0143824D01*
X0337494Y0143904D01*
X0337534Y0143983D01*
X0337578Y0144060D01*
X0337625Y0144135D01*
X0337675Y0144207D01*
X0337729Y0144278D01*
X0337785Y0144345D01*
X0337845Y0144411D01*
X0337907Y0144473D01*
X0337973Y0144533D01*
X0338040Y0144589D01*
X0338111Y0144643D01*
X0338183Y0144693D01*
X0338258Y0144740D01*
X0338335Y0144784D01*
X0338414Y0144824D01*
X0338494Y0144861D01*
X0338576Y0144893D01*
X0338660Y0144923D01*
X0338744Y0144948D01*
X0338830Y0144970D01*
X0338916Y0144987D01*
X0339004Y0145001D01*
X0339092Y0145011D01*
X0339180Y0145017D01*
X0339268Y0145019D01*
X0339356Y0145017D01*
X0339444Y0145011D01*
X0339532Y0145001D01*
X0339620Y0144987D01*
X0339706Y0144970D01*
X0339792Y0144948D01*
X0339876Y0144923D01*
X0339960Y0144893D01*
X0340042Y0144861D01*
X0340122Y0144824D01*
X0340201Y0144784D01*
X0340278Y0144740D01*
X0340353Y0144693D01*
X0340425Y0144643D01*
X0340496Y0144589D01*
X0340563Y0144533D01*
X0340629Y0144473D01*
X0340691Y0144411D01*
X0340751Y0144345D01*
X0340807Y0144278D01*
X0340861Y0144207D01*
X0340911Y0144135D01*
X0340958Y0144060D01*
X0341002Y0143983D01*
X0341042Y0143904D01*
X0341079Y0143824D01*
X0341111Y0143742D01*
X0341141Y0143658D01*
X0341166Y0143574D01*
X0341188Y0143488D01*
X0341205Y0143402D01*
X0341219Y0143314D01*
X0341229Y0143226D01*
X0341235Y0143138D01*
X0341237Y0143050D01*
X0341235Y0142962D01*
X0341229Y0142874D01*
X0341219Y0142786D01*
X0341205Y0142698D01*
X0341188Y0142612D01*
X0341166Y0142526D01*
X0341141Y0142442D01*
X0341111Y0142358D01*
X0341079Y0142276D01*
X0341042Y0142196D01*
X0341002Y0142117D01*
X0340958Y0142040D01*
X0340911Y0141965D01*
X0340861Y0141893D01*
X0340807Y0141822D01*
X0340751Y0141755D01*
X0340691Y0141689D01*
X0340629Y0141627D01*
X0340563Y0141567D01*
X0340496Y0141511D01*
X0340425Y0141457D01*
X0340353Y0141407D01*
X0340278Y0141360D01*
X0340201Y0141316D01*
X0340122Y0141276D01*
X0340042Y0141239D01*
X0339960Y0141207D01*
X0339876Y0141177D01*
X0339792Y0141152D01*
X0339706Y0141130D01*
X0339620Y0141113D01*
X0339532Y0141099D01*
X0339444Y0141089D01*
X0339356Y0141083D01*
X0339268Y0141081D01*
X0339180Y0141083D01*
X0339092Y0141089D01*
X0339004Y0141099D01*
X0338916Y0141113D01*
X0338830Y0141130D01*
X0338744Y0141152D01*
X0338660Y0141177D01*
X0338576Y0141207D01*
X0338494Y0141239D01*
X0338414Y0141276D01*
X0338335Y0141316D01*
X0338258Y0141360D01*
X0338183Y0141407D01*
X0338111Y0141457D01*
X0338040Y0141511D01*
X0337973Y0141567D01*
X0337907Y0141627D01*
X0337845Y0141689D01*
X0337785Y0141755D01*
X0337729Y0141822D01*
X0337675Y0141893D01*
X0337625Y0141965D01*
X0337578Y0142040D01*
X0337534Y0142117D01*
X0337494Y0142196D01*
X0337457Y0142276D01*
X0337425Y0142358D01*
X0337395Y0142442D01*
X0337370Y0142526D01*
X0337348Y0142612D01*
X0337331Y0142698D01*
X0337317Y0142786D01*
X0337307Y0142874D01*
X0337301Y0142962D01*
X0337299Y0143050D01*
X0307299Y0113050D02*
X0307301Y0113138D01*
X0307307Y0113226D01*
X0307317Y0113314D01*
X0307331Y0113402D01*
X0307348Y0113488D01*
X0307370Y0113574D01*
X0307395Y0113658D01*
X0307425Y0113742D01*
X0307457Y0113824D01*
X0307494Y0113904D01*
X0307534Y0113983D01*
X0307578Y0114060D01*
X0307625Y0114135D01*
X0307675Y0114207D01*
X0307729Y0114278D01*
X0307785Y0114345D01*
X0307845Y0114411D01*
X0307907Y0114473D01*
X0307973Y0114533D01*
X0308040Y0114589D01*
X0308111Y0114643D01*
X0308183Y0114693D01*
X0308258Y0114740D01*
X0308335Y0114784D01*
X0308414Y0114824D01*
X0308494Y0114861D01*
X0308576Y0114893D01*
X0308660Y0114923D01*
X0308744Y0114948D01*
X0308830Y0114970D01*
X0308916Y0114987D01*
X0309004Y0115001D01*
X0309092Y0115011D01*
X0309180Y0115017D01*
X0309268Y0115019D01*
X0309356Y0115017D01*
X0309444Y0115011D01*
X0309532Y0115001D01*
X0309620Y0114987D01*
X0309706Y0114970D01*
X0309792Y0114948D01*
X0309876Y0114923D01*
X0309960Y0114893D01*
X0310042Y0114861D01*
X0310122Y0114824D01*
X0310201Y0114784D01*
X0310278Y0114740D01*
X0310353Y0114693D01*
X0310425Y0114643D01*
X0310496Y0114589D01*
X0310563Y0114533D01*
X0310629Y0114473D01*
X0310691Y0114411D01*
X0310751Y0114345D01*
X0310807Y0114278D01*
X0310861Y0114207D01*
X0310911Y0114135D01*
X0310958Y0114060D01*
X0311002Y0113983D01*
X0311042Y0113904D01*
X0311079Y0113824D01*
X0311111Y0113742D01*
X0311141Y0113658D01*
X0311166Y0113574D01*
X0311188Y0113488D01*
X0311205Y0113402D01*
X0311219Y0113314D01*
X0311229Y0113226D01*
X0311235Y0113138D01*
X0311237Y0113050D01*
X0311235Y0112962D01*
X0311229Y0112874D01*
X0311219Y0112786D01*
X0311205Y0112698D01*
X0311188Y0112612D01*
X0311166Y0112526D01*
X0311141Y0112442D01*
X0311111Y0112358D01*
X0311079Y0112276D01*
X0311042Y0112196D01*
X0311002Y0112117D01*
X0310958Y0112040D01*
X0310911Y0111965D01*
X0310861Y0111893D01*
X0310807Y0111822D01*
X0310751Y0111755D01*
X0310691Y0111689D01*
X0310629Y0111627D01*
X0310563Y0111567D01*
X0310496Y0111511D01*
X0310425Y0111457D01*
X0310353Y0111407D01*
X0310278Y0111360D01*
X0310201Y0111316D01*
X0310122Y0111276D01*
X0310042Y0111239D01*
X0309960Y0111207D01*
X0309876Y0111177D01*
X0309792Y0111152D01*
X0309706Y0111130D01*
X0309620Y0111113D01*
X0309532Y0111099D01*
X0309444Y0111089D01*
X0309356Y0111083D01*
X0309268Y0111081D01*
X0309180Y0111083D01*
X0309092Y0111089D01*
X0309004Y0111099D01*
X0308916Y0111113D01*
X0308830Y0111130D01*
X0308744Y0111152D01*
X0308660Y0111177D01*
X0308576Y0111207D01*
X0308494Y0111239D01*
X0308414Y0111276D01*
X0308335Y0111316D01*
X0308258Y0111360D01*
X0308183Y0111407D01*
X0308111Y0111457D01*
X0308040Y0111511D01*
X0307973Y0111567D01*
X0307907Y0111627D01*
X0307845Y0111689D01*
X0307785Y0111755D01*
X0307729Y0111822D01*
X0307675Y0111893D01*
X0307625Y0111965D01*
X0307578Y0112040D01*
X0307534Y0112117D01*
X0307494Y0112196D01*
X0307457Y0112276D01*
X0307425Y0112358D01*
X0307395Y0112442D01*
X0307370Y0112526D01*
X0307348Y0112612D01*
X0307331Y0112698D01*
X0307317Y0112786D01*
X0307307Y0112874D01*
X0307301Y0112962D01*
X0307299Y0113050D01*
X0337299Y0093050D02*
X0337301Y0093138D01*
X0337307Y0093226D01*
X0337317Y0093314D01*
X0337331Y0093402D01*
X0337348Y0093488D01*
X0337370Y0093574D01*
X0337395Y0093658D01*
X0337425Y0093742D01*
X0337457Y0093824D01*
X0337494Y0093904D01*
X0337534Y0093983D01*
X0337578Y0094060D01*
X0337625Y0094135D01*
X0337675Y0094207D01*
X0337729Y0094278D01*
X0337785Y0094345D01*
X0337845Y0094411D01*
X0337907Y0094473D01*
X0337973Y0094533D01*
X0338040Y0094589D01*
X0338111Y0094643D01*
X0338183Y0094693D01*
X0338258Y0094740D01*
X0338335Y0094784D01*
X0338414Y0094824D01*
X0338494Y0094861D01*
X0338576Y0094893D01*
X0338660Y0094923D01*
X0338744Y0094948D01*
X0338830Y0094970D01*
X0338916Y0094987D01*
X0339004Y0095001D01*
X0339092Y0095011D01*
X0339180Y0095017D01*
X0339268Y0095019D01*
X0339356Y0095017D01*
X0339444Y0095011D01*
X0339532Y0095001D01*
X0339620Y0094987D01*
X0339706Y0094970D01*
X0339792Y0094948D01*
X0339876Y0094923D01*
X0339960Y0094893D01*
X0340042Y0094861D01*
X0340122Y0094824D01*
X0340201Y0094784D01*
X0340278Y0094740D01*
X0340353Y0094693D01*
X0340425Y0094643D01*
X0340496Y0094589D01*
X0340563Y0094533D01*
X0340629Y0094473D01*
X0340691Y0094411D01*
X0340751Y0094345D01*
X0340807Y0094278D01*
X0340861Y0094207D01*
X0340911Y0094135D01*
X0340958Y0094060D01*
X0341002Y0093983D01*
X0341042Y0093904D01*
X0341079Y0093824D01*
X0341111Y0093742D01*
X0341141Y0093658D01*
X0341166Y0093574D01*
X0341188Y0093488D01*
X0341205Y0093402D01*
X0341219Y0093314D01*
X0341229Y0093226D01*
X0341235Y0093138D01*
X0341237Y0093050D01*
X0341235Y0092962D01*
X0341229Y0092874D01*
X0341219Y0092786D01*
X0341205Y0092698D01*
X0341188Y0092612D01*
X0341166Y0092526D01*
X0341141Y0092442D01*
X0341111Y0092358D01*
X0341079Y0092276D01*
X0341042Y0092196D01*
X0341002Y0092117D01*
X0340958Y0092040D01*
X0340911Y0091965D01*
X0340861Y0091893D01*
X0340807Y0091822D01*
X0340751Y0091755D01*
X0340691Y0091689D01*
X0340629Y0091627D01*
X0340563Y0091567D01*
X0340496Y0091511D01*
X0340425Y0091457D01*
X0340353Y0091407D01*
X0340278Y0091360D01*
X0340201Y0091316D01*
X0340122Y0091276D01*
X0340042Y0091239D01*
X0339960Y0091207D01*
X0339876Y0091177D01*
X0339792Y0091152D01*
X0339706Y0091130D01*
X0339620Y0091113D01*
X0339532Y0091099D01*
X0339444Y0091089D01*
X0339356Y0091083D01*
X0339268Y0091081D01*
X0339180Y0091083D01*
X0339092Y0091089D01*
X0339004Y0091099D01*
X0338916Y0091113D01*
X0338830Y0091130D01*
X0338744Y0091152D01*
X0338660Y0091177D01*
X0338576Y0091207D01*
X0338494Y0091239D01*
X0338414Y0091276D01*
X0338335Y0091316D01*
X0338258Y0091360D01*
X0338183Y0091407D01*
X0338111Y0091457D01*
X0338040Y0091511D01*
X0337973Y0091567D01*
X0337907Y0091627D01*
X0337845Y0091689D01*
X0337785Y0091755D01*
X0337729Y0091822D01*
X0337675Y0091893D01*
X0337625Y0091965D01*
X0337578Y0092040D01*
X0337534Y0092117D01*
X0337494Y0092196D01*
X0337457Y0092276D01*
X0337425Y0092358D01*
X0337395Y0092442D01*
X0337370Y0092526D01*
X0337348Y0092612D01*
X0337331Y0092698D01*
X0337317Y0092786D01*
X0337307Y0092874D01*
X0337301Y0092962D01*
X0337299Y0093050D01*
X0382018Y0083050D02*
X0382020Y0083208D01*
X0382026Y0083365D01*
X0382036Y0083523D01*
X0382050Y0083680D01*
X0382068Y0083836D01*
X0382089Y0083993D01*
X0382115Y0084148D01*
X0382145Y0084303D01*
X0382178Y0084457D01*
X0382216Y0084610D01*
X0382257Y0084763D01*
X0382302Y0084914D01*
X0382351Y0085064D01*
X0382404Y0085212D01*
X0382460Y0085360D01*
X0382521Y0085505D01*
X0382584Y0085650D01*
X0382652Y0085792D01*
X0382723Y0085933D01*
X0382797Y0086072D01*
X0382875Y0086209D01*
X0382957Y0086344D01*
X0383041Y0086477D01*
X0383130Y0086608D01*
X0383221Y0086736D01*
X0383316Y0086863D01*
X0383413Y0086986D01*
X0383514Y0087108D01*
X0383618Y0087226D01*
X0383725Y0087342D01*
X0383835Y0087455D01*
X0383947Y0087566D01*
X0384063Y0087673D01*
X0384181Y0087778D01*
X0384301Y0087880D01*
X0384424Y0087978D01*
X0384550Y0088074D01*
X0384678Y0088166D01*
X0384808Y0088255D01*
X0384940Y0088341D01*
X0385075Y0088423D01*
X0385212Y0088502D01*
X0385350Y0088577D01*
X0385490Y0088649D01*
X0385633Y0088717D01*
X0385776Y0088782D01*
X0385922Y0088843D01*
X0386069Y0088900D01*
X0386217Y0088954D01*
X0386367Y0089004D01*
X0386517Y0089050D01*
X0386669Y0089092D01*
X0386822Y0089131D01*
X0386976Y0089165D01*
X0387131Y0089196D01*
X0387286Y0089222D01*
X0387442Y0089245D01*
X0387599Y0089264D01*
X0387756Y0089279D01*
X0387913Y0089290D01*
X0388071Y0089297D01*
X0388229Y0089300D01*
X0388386Y0089299D01*
X0388544Y0089294D01*
X0388701Y0089285D01*
X0388859Y0089272D01*
X0389015Y0089255D01*
X0389172Y0089234D01*
X0389327Y0089210D01*
X0389482Y0089181D01*
X0389637Y0089148D01*
X0389790Y0089112D01*
X0389943Y0089071D01*
X0390094Y0089027D01*
X0390244Y0088979D01*
X0390393Y0088928D01*
X0390541Y0088872D01*
X0390687Y0088813D01*
X0390832Y0088750D01*
X0390975Y0088683D01*
X0391116Y0088613D01*
X0391255Y0088540D01*
X0391393Y0088463D01*
X0391529Y0088382D01*
X0391662Y0088298D01*
X0391793Y0088211D01*
X0391922Y0088120D01*
X0392049Y0088026D01*
X0392174Y0087929D01*
X0392295Y0087829D01*
X0392415Y0087726D01*
X0392531Y0087620D01*
X0392645Y0087511D01*
X0392757Y0087399D01*
X0392865Y0087285D01*
X0392970Y0087167D01*
X0393073Y0087047D01*
X0393172Y0086925D01*
X0393268Y0086800D01*
X0393361Y0086672D01*
X0393451Y0086543D01*
X0393537Y0086411D01*
X0393621Y0086277D01*
X0393700Y0086141D01*
X0393777Y0086003D01*
X0393849Y0085863D01*
X0393918Y0085721D01*
X0393984Y0085578D01*
X0394046Y0085433D01*
X0394104Y0085286D01*
X0394159Y0085138D01*
X0394210Y0084989D01*
X0394257Y0084838D01*
X0394300Y0084687D01*
X0394339Y0084534D01*
X0394375Y0084380D01*
X0394406Y0084226D01*
X0394434Y0084071D01*
X0394458Y0083915D01*
X0394478Y0083758D01*
X0394494Y0083601D01*
X0394506Y0083444D01*
X0394514Y0083287D01*
X0394518Y0083129D01*
X0394518Y0082971D01*
X0394514Y0082813D01*
X0394506Y0082656D01*
X0394494Y0082499D01*
X0394478Y0082342D01*
X0394458Y0082185D01*
X0394434Y0082029D01*
X0394406Y0081874D01*
X0394375Y0081720D01*
X0394339Y0081566D01*
X0394300Y0081413D01*
X0394257Y0081262D01*
X0394210Y0081111D01*
X0394159Y0080962D01*
X0394104Y0080814D01*
X0394046Y0080667D01*
X0393984Y0080522D01*
X0393918Y0080379D01*
X0393849Y0080237D01*
X0393777Y0080097D01*
X0393700Y0079959D01*
X0393621Y0079823D01*
X0393537Y0079689D01*
X0393451Y0079557D01*
X0393361Y0079428D01*
X0393268Y0079300D01*
X0393172Y0079175D01*
X0393073Y0079053D01*
X0392970Y0078933D01*
X0392865Y0078815D01*
X0392757Y0078701D01*
X0392645Y0078589D01*
X0392531Y0078480D01*
X0392415Y0078374D01*
X0392295Y0078271D01*
X0392174Y0078171D01*
X0392049Y0078074D01*
X0391922Y0077980D01*
X0391793Y0077889D01*
X0391662Y0077802D01*
X0391529Y0077718D01*
X0391393Y0077637D01*
X0391255Y0077560D01*
X0391116Y0077487D01*
X0390975Y0077417D01*
X0390832Y0077350D01*
X0390687Y0077287D01*
X0390541Y0077228D01*
X0390393Y0077172D01*
X0390244Y0077121D01*
X0390094Y0077073D01*
X0389943Y0077029D01*
X0389790Y0076988D01*
X0389637Y0076952D01*
X0389482Y0076919D01*
X0389327Y0076890D01*
X0389172Y0076866D01*
X0389015Y0076845D01*
X0388859Y0076828D01*
X0388701Y0076815D01*
X0388544Y0076806D01*
X0388386Y0076801D01*
X0388229Y0076800D01*
X0388071Y0076803D01*
X0387913Y0076810D01*
X0387756Y0076821D01*
X0387599Y0076836D01*
X0387442Y0076855D01*
X0387286Y0076878D01*
X0387131Y0076904D01*
X0386976Y0076935D01*
X0386822Y0076969D01*
X0386669Y0077008D01*
X0386517Y0077050D01*
X0386367Y0077096D01*
X0386217Y0077146D01*
X0386069Y0077200D01*
X0385922Y0077257D01*
X0385776Y0077318D01*
X0385633Y0077383D01*
X0385490Y0077451D01*
X0385350Y0077523D01*
X0385212Y0077598D01*
X0385075Y0077677D01*
X0384940Y0077759D01*
X0384808Y0077845D01*
X0384678Y0077934D01*
X0384550Y0078026D01*
X0384424Y0078122D01*
X0384301Y0078220D01*
X0384181Y0078322D01*
X0384063Y0078427D01*
X0383947Y0078534D01*
X0383835Y0078645D01*
X0383725Y0078758D01*
X0383618Y0078874D01*
X0383514Y0078992D01*
X0383413Y0079114D01*
X0383316Y0079237D01*
X0383221Y0079364D01*
X0383130Y0079492D01*
X0383041Y0079623D01*
X0382957Y0079756D01*
X0382875Y0079891D01*
X0382797Y0080028D01*
X0382723Y0080167D01*
X0382652Y0080308D01*
X0382584Y0080450D01*
X0382521Y0080595D01*
X0382460Y0080740D01*
X0382404Y0080888D01*
X0382351Y0081036D01*
X0382302Y0081186D01*
X0382257Y0081337D01*
X0382216Y0081490D01*
X0382178Y0081643D01*
X0382145Y0081797D01*
X0382115Y0081952D01*
X0382089Y0082107D01*
X0382068Y0082264D01*
X0382050Y0082420D01*
X0382036Y0082577D01*
X0382026Y0082735D01*
X0382020Y0082892D01*
X0382018Y0083050D01*
X0482177Y0033050D02*
X0482179Y0033098D01*
X0482185Y0033146D01*
X0482195Y0033193D01*
X0482208Y0033239D01*
X0482226Y0033284D01*
X0482246Y0033328D01*
X0482271Y0033370D01*
X0482299Y0033409D01*
X0482329Y0033446D01*
X0482363Y0033480D01*
X0482400Y0033512D01*
X0482438Y0033541D01*
X0482479Y0033566D01*
X0482522Y0033588D01*
X0482567Y0033606D01*
X0482613Y0033620D01*
X0482660Y0033631D01*
X0482708Y0033638D01*
X0482756Y0033641D01*
X0482804Y0033640D01*
X0482852Y0033635D01*
X0482900Y0033626D01*
X0482946Y0033614D01*
X0482991Y0033597D01*
X0483035Y0033577D01*
X0483077Y0033554D01*
X0483117Y0033527D01*
X0483155Y0033497D01*
X0483190Y0033464D01*
X0483222Y0033428D01*
X0483252Y0033390D01*
X0483278Y0033349D01*
X0483300Y0033306D01*
X0483320Y0033262D01*
X0483335Y0033217D01*
X0483347Y0033170D01*
X0483355Y0033122D01*
X0483359Y0033074D01*
X0483359Y0033026D01*
X0483355Y0032978D01*
X0483347Y0032930D01*
X0483335Y0032883D01*
X0483320Y0032838D01*
X0483300Y0032794D01*
X0483278Y0032751D01*
X0483252Y0032710D01*
X0483222Y0032672D01*
X0483190Y0032636D01*
X0483155Y0032603D01*
X0483117Y0032573D01*
X0483077Y0032546D01*
X0483035Y0032523D01*
X0482991Y0032503D01*
X0482946Y0032486D01*
X0482900Y0032474D01*
X0482852Y0032465D01*
X0482804Y0032460D01*
X0482756Y0032459D01*
X0482708Y0032462D01*
X0482660Y0032469D01*
X0482613Y0032480D01*
X0482567Y0032494D01*
X0482522Y0032512D01*
X0482479Y0032534D01*
X0482438Y0032559D01*
X0482400Y0032588D01*
X0482363Y0032620D01*
X0482329Y0032654D01*
X0482299Y0032691D01*
X0482271Y0032730D01*
X0482246Y0032772D01*
X0482226Y0032816D01*
X0482208Y0032861D01*
X0482195Y0032907D01*
X0482185Y0032954D01*
X0482179Y0033002D01*
X0482177Y0033050D01*
X0484177Y0033050D02*
X0484179Y0033098D01*
X0484185Y0033146D01*
X0484195Y0033193D01*
X0484208Y0033239D01*
X0484226Y0033284D01*
X0484246Y0033328D01*
X0484271Y0033370D01*
X0484299Y0033409D01*
X0484329Y0033446D01*
X0484363Y0033480D01*
X0484400Y0033512D01*
X0484438Y0033541D01*
X0484479Y0033566D01*
X0484522Y0033588D01*
X0484567Y0033606D01*
X0484613Y0033620D01*
X0484660Y0033631D01*
X0484708Y0033638D01*
X0484756Y0033641D01*
X0484804Y0033640D01*
X0484852Y0033635D01*
X0484900Y0033626D01*
X0484946Y0033614D01*
X0484991Y0033597D01*
X0485035Y0033577D01*
X0485077Y0033554D01*
X0485117Y0033527D01*
X0485155Y0033497D01*
X0485190Y0033464D01*
X0485222Y0033428D01*
X0485252Y0033390D01*
X0485278Y0033349D01*
X0485300Y0033306D01*
X0485320Y0033262D01*
X0485335Y0033217D01*
X0485347Y0033170D01*
X0485355Y0033122D01*
X0485359Y0033074D01*
X0485359Y0033026D01*
X0485355Y0032978D01*
X0485347Y0032930D01*
X0485335Y0032883D01*
X0485320Y0032838D01*
X0485300Y0032794D01*
X0485278Y0032751D01*
X0485252Y0032710D01*
X0485222Y0032672D01*
X0485190Y0032636D01*
X0485155Y0032603D01*
X0485117Y0032573D01*
X0485077Y0032546D01*
X0485035Y0032523D01*
X0484991Y0032503D01*
X0484946Y0032486D01*
X0484900Y0032474D01*
X0484852Y0032465D01*
X0484804Y0032460D01*
X0484756Y0032459D01*
X0484708Y0032462D01*
X0484660Y0032469D01*
X0484613Y0032480D01*
X0484567Y0032494D01*
X0484522Y0032512D01*
X0484479Y0032534D01*
X0484438Y0032559D01*
X0484400Y0032588D01*
X0484363Y0032620D01*
X0484329Y0032654D01*
X0484299Y0032691D01*
X0484271Y0032730D01*
X0484246Y0032772D01*
X0484226Y0032816D01*
X0484208Y0032861D01*
X0484195Y0032907D01*
X0484185Y0032954D01*
X0484179Y0033002D01*
X0484177Y0033050D01*
X0486177Y0033050D02*
X0486179Y0033098D01*
X0486185Y0033146D01*
X0486195Y0033193D01*
X0486208Y0033239D01*
X0486226Y0033284D01*
X0486246Y0033328D01*
X0486271Y0033370D01*
X0486299Y0033409D01*
X0486329Y0033446D01*
X0486363Y0033480D01*
X0486400Y0033512D01*
X0486438Y0033541D01*
X0486479Y0033566D01*
X0486522Y0033588D01*
X0486567Y0033606D01*
X0486613Y0033620D01*
X0486660Y0033631D01*
X0486708Y0033638D01*
X0486756Y0033641D01*
X0486804Y0033640D01*
X0486852Y0033635D01*
X0486900Y0033626D01*
X0486946Y0033614D01*
X0486991Y0033597D01*
X0487035Y0033577D01*
X0487077Y0033554D01*
X0487117Y0033527D01*
X0487155Y0033497D01*
X0487190Y0033464D01*
X0487222Y0033428D01*
X0487252Y0033390D01*
X0487278Y0033349D01*
X0487300Y0033306D01*
X0487320Y0033262D01*
X0487335Y0033217D01*
X0487347Y0033170D01*
X0487355Y0033122D01*
X0487359Y0033074D01*
X0487359Y0033026D01*
X0487355Y0032978D01*
X0487347Y0032930D01*
X0487335Y0032883D01*
X0487320Y0032838D01*
X0487300Y0032794D01*
X0487278Y0032751D01*
X0487252Y0032710D01*
X0487222Y0032672D01*
X0487190Y0032636D01*
X0487155Y0032603D01*
X0487117Y0032573D01*
X0487077Y0032546D01*
X0487035Y0032523D01*
X0486991Y0032503D01*
X0486946Y0032486D01*
X0486900Y0032474D01*
X0486852Y0032465D01*
X0486804Y0032460D01*
X0486756Y0032459D01*
X0486708Y0032462D01*
X0486660Y0032469D01*
X0486613Y0032480D01*
X0486567Y0032494D01*
X0486522Y0032512D01*
X0486479Y0032534D01*
X0486438Y0032559D01*
X0486400Y0032588D01*
X0486363Y0032620D01*
X0486329Y0032654D01*
X0486299Y0032691D01*
X0486271Y0032730D01*
X0486246Y0032772D01*
X0486226Y0032816D01*
X0486208Y0032861D01*
X0486195Y0032907D01*
X0486185Y0032954D01*
X0486179Y0033002D01*
X0486177Y0033050D01*
X0488177Y0033050D02*
X0488179Y0033098D01*
X0488185Y0033146D01*
X0488195Y0033193D01*
X0488208Y0033239D01*
X0488226Y0033284D01*
X0488246Y0033328D01*
X0488271Y0033370D01*
X0488299Y0033409D01*
X0488329Y0033446D01*
X0488363Y0033480D01*
X0488400Y0033512D01*
X0488438Y0033541D01*
X0488479Y0033566D01*
X0488522Y0033588D01*
X0488567Y0033606D01*
X0488613Y0033620D01*
X0488660Y0033631D01*
X0488708Y0033638D01*
X0488756Y0033641D01*
X0488804Y0033640D01*
X0488852Y0033635D01*
X0488900Y0033626D01*
X0488946Y0033614D01*
X0488991Y0033597D01*
X0489035Y0033577D01*
X0489077Y0033554D01*
X0489117Y0033527D01*
X0489155Y0033497D01*
X0489190Y0033464D01*
X0489222Y0033428D01*
X0489252Y0033390D01*
X0489278Y0033349D01*
X0489300Y0033306D01*
X0489320Y0033262D01*
X0489335Y0033217D01*
X0489347Y0033170D01*
X0489355Y0033122D01*
X0489359Y0033074D01*
X0489359Y0033026D01*
X0489355Y0032978D01*
X0489347Y0032930D01*
X0489335Y0032883D01*
X0489320Y0032838D01*
X0489300Y0032794D01*
X0489278Y0032751D01*
X0489252Y0032710D01*
X0489222Y0032672D01*
X0489190Y0032636D01*
X0489155Y0032603D01*
X0489117Y0032573D01*
X0489077Y0032546D01*
X0489035Y0032523D01*
X0488991Y0032503D01*
X0488946Y0032486D01*
X0488900Y0032474D01*
X0488852Y0032465D01*
X0488804Y0032460D01*
X0488756Y0032459D01*
X0488708Y0032462D01*
X0488660Y0032469D01*
X0488613Y0032480D01*
X0488567Y0032494D01*
X0488522Y0032512D01*
X0488479Y0032534D01*
X0488438Y0032559D01*
X0488400Y0032588D01*
X0488363Y0032620D01*
X0488329Y0032654D01*
X0488299Y0032691D01*
X0488271Y0032730D01*
X0488246Y0032772D01*
X0488226Y0032816D01*
X0488208Y0032861D01*
X0488195Y0032907D01*
X0488185Y0032954D01*
X0488179Y0033002D01*
X0488177Y0033050D01*
X0490177Y0033050D02*
X0490179Y0033098D01*
X0490185Y0033146D01*
X0490195Y0033193D01*
X0490208Y0033239D01*
X0490226Y0033284D01*
X0490246Y0033328D01*
X0490271Y0033370D01*
X0490299Y0033409D01*
X0490329Y0033446D01*
X0490363Y0033480D01*
X0490400Y0033512D01*
X0490438Y0033541D01*
X0490479Y0033566D01*
X0490522Y0033588D01*
X0490567Y0033606D01*
X0490613Y0033620D01*
X0490660Y0033631D01*
X0490708Y0033638D01*
X0490756Y0033641D01*
X0490804Y0033640D01*
X0490852Y0033635D01*
X0490900Y0033626D01*
X0490946Y0033614D01*
X0490991Y0033597D01*
X0491035Y0033577D01*
X0491077Y0033554D01*
X0491117Y0033527D01*
X0491155Y0033497D01*
X0491190Y0033464D01*
X0491222Y0033428D01*
X0491252Y0033390D01*
X0491278Y0033349D01*
X0491300Y0033306D01*
X0491320Y0033262D01*
X0491335Y0033217D01*
X0491347Y0033170D01*
X0491355Y0033122D01*
X0491359Y0033074D01*
X0491359Y0033026D01*
X0491355Y0032978D01*
X0491347Y0032930D01*
X0491335Y0032883D01*
X0491320Y0032838D01*
X0491300Y0032794D01*
X0491278Y0032751D01*
X0491252Y0032710D01*
X0491222Y0032672D01*
X0491190Y0032636D01*
X0491155Y0032603D01*
X0491117Y0032573D01*
X0491077Y0032546D01*
X0491035Y0032523D01*
X0490991Y0032503D01*
X0490946Y0032486D01*
X0490900Y0032474D01*
X0490852Y0032465D01*
X0490804Y0032460D01*
X0490756Y0032459D01*
X0490708Y0032462D01*
X0490660Y0032469D01*
X0490613Y0032480D01*
X0490567Y0032494D01*
X0490522Y0032512D01*
X0490479Y0032534D01*
X0490438Y0032559D01*
X0490400Y0032588D01*
X0490363Y0032620D01*
X0490329Y0032654D01*
X0490299Y0032691D01*
X0490271Y0032730D01*
X0490246Y0032772D01*
X0490226Y0032816D01*
X0490208Y0032861D01*
X0490195Y0032907D01*
X0490185Y0032954D01*
X0490179Y0033002D01*
X0490177Y0033050D01*
X0471518Y0183050D02*
X0471520Y0183208D01*
X0471526Y0183365D01*
X0471536Y0183523D01*
X0471550Y0183680D01*
X0471568Y0183836D01*
X0471589Y0183993D01*
X0471615Y0184148D01*
X0471645Y0184303D01*
X0471678Y0184457D01*
X0471716Y0184610D01*
X0471757Y0184763D01*
X0471802Y0184914D01*
X0471851Y0185064D01*
X0471904Y0185212D01*
X0471960Y0185360D01*
X0472021Y0185505D01*
X0472084Y0185650D01*
X0472152Y0185792D01*
X0472223Y0185933D01*
X0472297Y0186072D01*
X0472375Y0186209D01*
X0472457Y0186344D01*
X0472541Y0186477D01*
X0472630Y0186608D01*
X0472721Y0186736D01*
X0472816Y0186863D01*
X0472913Y0186986D01*
X0473014Y0187108D01*
X0473118Y0187226D01*
X0473225Y0187342D01*
X0473335Y0187455D01*
X0473447Y0187566D01*
X0473563Y0187673D01*
X0473681Y0187778D01*
X0473801Y0187880D01*
X0473924Y0187978D01*
X0474050Y0188074D01*
X0474178Y0188166D01*
X0474308Y0188255D01*
X0474440Y0188341D01*
X0474575Y0188423D01*
X0474712Y0188502D01*
X0474850Y0188577D01*
X0474990Y0188649D01*
X0475133Y0188717D01*
X0475276Y0188782D01*
X0475422Y0188843D01*
X0475569Y0188900D01*
X0475717Y0188954D01*
X0475867Y0189004D01*
X0476017Y0189050D01*
X0476169Y0189092D01*
X0476322Y0189131D01*
X0476476Y0189165D01*
X0476631Y0189196D01*
X0476786Y0189222D01*
X0476942Y0189245D01*
X0477099Y0189264D01*
X0477256Y0189279D01*
X0477413Y0189290D01*
X0477571Y0189297D01*
X0477729Y0189300D01*
X0477886Y0189299D01*
X0478044Y0189294D01*
X0478201Y0189285D01*
X0478359Y0189272D01*
X0478515Y0189255D01*
X0478672Y0189234D01*
X0478827Y0189210D01*
X0478982Y0189181D01*
X0479137Y0189148D01*
X0479290Y0189112D01*
X0479443Y0189071D01*
X0479594Y0189027D01*
X0479744Y0188979D01*
X0479893Y0188928D01*
X0480041Y0188872D01*
X0480187Y0188813D01*
X0480332Y0188750D01*
X0480475Y0188683D01*
X0480616Y0188613D01*
X0480755Y0188540D01*
X0480893Y0188463D01*
X0481029Y0188382D01*
X0481162Y0188298D01*
X0481293Y0188211D01*
X0481422Y0188120D01*
X0481549Y0188026D01*
X0481674Y0187929D01*
X0481795Y0187829D01*
X0481915Y0187726D01*
X0482031Y0187620D01*
X0482145Y0187511D01*
X0482257Y0187399D01*
X0482365Y0187285D01*
X0482470Y0187167D01*
X0482573Y0187047D01*
X0482672Y0186925D01*
X0482768Y0186800D01*
X0482861Y0186672D01*
X0482951Y0186543D01*
X0483037Y0186411D01*
X0483121Y0186277D01*
X0483200Y0186141D01*
X0483277Y0186003D01*
X0483349Y0185863D01*
X0483418Y0185721D01*
X0483484Y0185578D01*
X0483546Y0185433D01*
X0483604Y0185286D01*
X0483659Y0185138D01*
X0483710Y0184989D01*
X0483757Y0184838D01*
X0483800Y0184687D01*
X0483839Y0184534D01*
X0483875Y0184380D01*
X0483906Y0184226D01*
X0483934Y0184071D01*
X0483958Y0183915D01*
X0483978Y0183758D01*
X0483994Y0183601D01*
X0484006Y0183444D01*
X0484014Y0183287D01*
X0484018Y0183129D01*
X0484018Y0182971D01*
X0484014Y0182813D01*
X0484006Y0182656D01*
X0483994Y0182499D01*
X0483978Y0182342D01*
X0483958Y0182185D01*
X0483934Y0182029D01*
X0483906Y0181874D01*
X0483875Y0181720D01*
X0483839Y0181566D01*
X0483800Y0181413D01*
X0483757Y0181262D01*
X0483710Y0181111D01*
X0483659Y0180962D01*
X0483604Y0180814D01*
X0483546Y0180667D01*
X0483484Y0180522D01*
X0483418Y0180379D01*
X0483349Y0180237D01*
X0483277Y0180097D01*
X0483200Y0179959D01*
X0483121Y0179823D01*
X0483037Y0179689D01*
X0482951Y0179557D01*
X0482861Y0179428D01*
X0482768Y0179300D01*
X0482672Y0179175D01*
X0482573Y0179053D01*
X0482470Y0178933D01*
X0482365Y0178815D01*
X0482257Y0178701D01*
X0482145Y0178589D01*
X0482031Y0178480D01*
X0481915Y0178374D01*
X0481795Y0178271D01*
X0481674Y0178171D01*
X0481549Y0178074D01*
X0481422Y0177980D01*
X0481293Y0177889D01*
X0481162Y0177802D01*
X0481029Y0177718D01*
X0480893Y0177637D01*
X0480755Y0177560D01*
X0480616Y0177487D01*
X0480475Y0177417D01*
X0480332Y0177350D01*
X0480187Y0177287D01*
X0480041Y0177228D01*
X0479893Y0177172D01*
X0479744Y0177121D01*
X0479594Y0177073D01*
X0479443Y0177029D01*
X0479290Y0176988D01*
X0479137Y0176952D01*
X0478982Y0176919D01*
X0478827Y0176890D01*
X0478672Y0176866D01*
X0478515Y0176845D01*
X0478359Y0176828D01*
X0478201Y0176815D01*
X0478044Y0176806D01*
X0477886Y0176801D01*
X0477729Y0176800D01*
X0477571Y0176803D01*
X0477413Y0176810D01*
X0477256Y0176821D01*
X0477099Y0176836D01*
X0476942Y0176855D01*
X0476786Y0176878D01*
X0476631Y0176904D01*
X0476476Y0176935D01*
X0476322Y0176969D01*
X0476169Y0177008D01*
X0476017Y0177050D01*
X0475867Y0177096D01*
X0475717Y0177146D01*
X0475569Y0177200D01*
X0475422Y0177257D01*
X0475276Y0177318D01*
X0475133Y0177383D01*
X0474990Y0177451D01*
X0474850Y0177523D01*
X0474712Y0177598D01*
X0474575Y0177677D01*
X0474440Y0177759D01*
X0474308Y0177845D01*
X0474178Y0177934D01*
X0474050Y0178026D01*
X0473924Y0178122D01*
X0473801Y0178220D01*
X0473681Y0178322D01*
X0473563Y0178427D01*
X0473447Y0178534D01*
X0473335Y0178645D01*
X0473225Y0178758D01*
X0473118Y0178874D01*
X0473014Y0178992D01*
X0472913Y0179114D01*
X0472816Y0179237D01*
X0472721Y0179364D01*
X0472630Y0179492D01*
X0472541Y0179623D01*
X0472457Y0179756D01*
X0472375Y0179891D01*
X0472297Y0180028D01*
X0472223Y0180167D01*
X0472152Y0180308D01*
X0472084Y0180450D01*
X0472021Y0180595D01*
X0471960Y0180740D01*
X0471904Y0180888D01*
X0471851Y0181036D01*
X0471802Y0181186D01*
X0471757Y0181337D01*
X0471716Y0181490D01*
X0471678Y0181643D01*
X0471645Y0181797D01*
X0471615Y0181952D01*
X0471589Y0182107D01*
X0471568Y0182264D01*
X0471550Y0182420D01*
X0471536Y0182577D01*
X0471526Y0182735D01*
X0471520Y0182892D01*
X0471518Y0183050D01*
X0382018Y0283050D02*
X0382020Y0283208D01*
X0382026Y0283365D01*
X0382036Y0283523D01*
X0382050Y0283680D01*
X0382068Y0283836D01*
X0382089Y0283993D01*
X0382115Y0284148D01*
X0382145Y0284303D01*
X0382178Y0284457D01*
X0382216Y0284610D01*
X0382257Y0284763D01*
X0382302Y0284914D01*
X0382351Y0285064D01*
X0382404Y0285212D01*
X0382460Y0285360D01*
X0382521Y0285505D01*
X0382584Y0285650D01*
X0382652Y0285792D01*
X0382723Y0285933D01*
X0382797Y0286072D01*
X0382875Y0286209D01*
X0382957Y0286344D01*
X0383041Y0286477D01*
X0383130Y0286608D01*
X0383221Y0286736D01*
X0383316Y0286863D01*
X0383413Y0286986D01*
X0383514Y0287108D01*
X0383618Y0287226D01*
X0383725Y0287342D01*
X0383835Y0287455D01*
X0383947Y0287566D01*
X0384063Y0287673D01*
X0384181Y0287778D01*
X0384301Y0287880D01*
X0384424Y0287978D01*
X0384550Y0288074D01*
X0384678Y0288166D01*
X0384808Y0288255D01*
X0384940Y0288341D01*
X0385075Y0288423D01*
X0385212Y0288502D01*
X0385350Y0288577D01*
X0385490Y0288649D01*
X0385633Y0288717D01*
X0385776Y0288782D01*
X0385922Y0288843D01*
X0386069Y0288900D01*
X0386217Y0288954D01*
X0386367Y0289004D01*
X0386517Y0289050D01*
X0386669Y0289092D01*
X0386822Y0289131D01*
X0386976Y0289165D01*
X0387131Y0289196D01*
X0387286Y0289222D01*
X0387442Y0289245D01*
X0387599Y0289264D01*
X0387756Y0289279D01*
X0387913Y0289290D01*
X0388071Y0289297D01*
X0388229Y0289300D01*
X0388386Y0289299D01*
X0388544Y0289294D01*
X0388701Y0289285D01*
X0388859Y0289272D01*
X0389015Y0289255D01*
X0389172Y0289234D01*
X0389327Y0289210D01*
X0389482Y0289181D01*
X0389637Y0289148D01*
X0389790Y0289112D01*
X0389943Y0289071D01*
X0390094Y0289027D01*
X0390244Y0288979D01*
X0390393Y0288928D01*
X0390541Y0288872D01*
X0390687Y0288813D01*
X0390832Y0288750D01*
X0390975Y0288683D01*
X0391116Y0288613D01*
X0391255Y0288540D01*
X0391393Y0288463D01*
X0391529Y0288382D01*
X0391662Y0288298D01*
X0391793Y0288211D01*
X0391922Y0288120D01*
X0392049Y0288026D01*
X0392174Y0287929D01*
X0392295Y0287829D01*
X0392415Y0287726D01*
X0392531Y0287620D01*
X0392645Y0287511D01*
X0392757Y0287399D01*
X0392865Y0287285D01*
X0392970Y0287167D01*
X0393073Y0287047D01*
X0393172Y0286925D01*
X0393268Y0286800D01*
X0393361Y0286672D01*
X0393451Y0286543D01*
X0393537Y0286411D01*
X0393621Y0286277D01*
X0393700Y0286141D01*
X0393777Y0286003D01*
X0393849Y0285863D01*
X0393918Y0285721D01*
X0393984Y0285578D01*
X0394046Y0285433D01*
X0394104Y0285286D01*
X0394159Y0285138D01*
X0394210Y0284989D01*
X0394257Y0284838D01*
X0394300Y0284687D01*
X0394339Y0284534D01*
X0394375Y0284380D01*
X0394406Y0284226D01*
X0394434Y0284071D01*
X0394458Y0283915D01*
X0394478Y0283758D01*
X0394494Y0283601D01*
X0394506Y0283444D01*
X0394514Y0283287D01*
X0394518Y0283129D01*
X0394518Y0282971D01*
X0394514Y0282813D01*
X0394506Y0282656D01*
X0394494Y0282499D01*
X0394478Y0282342D01*
X0394458Y0282185D01*
X0394434Y0282029D01*
X0394406Y0281874D01*
X0394375Y0281720D01*
X0394339Y0281566D01*
X0394300Y0281413D01*
X0394257Y0281262D01*
X0394210Y0281111D01*
X0394159Y0280962D01*
X0394104Y0280814D01*
X0394046Y0280667D01*
X0393984Y0280522D01*
X0393918Y0280379D01*
X0393849Y0280237D01*
X0393777Y0280097D01*
X0393700Y0279959D01*
X0393621Y0279823D01*
X0393537Y0279689D01*
X0393451Y0279557D01*
X0393361Y0279428D01*
X0393268Y0279300D01*
X0393172Y0279175D01*
X0393073Y0279053D01*
X0392970Y0278933D01*
X0392865Y0278815D01*
X0392757Y0278701D01*
X0392645Y0278589D01*
X0392531Y0278480D01*
X0392415Y0278374D01*
X0392295Y0278271D01*
X0392174Y0278171D01*
X0392049Y0278074D01*
X0391922Y0277980D01*
X0391793Y0277889D01*
X0391662Y0277802D01*
X0391529Y0277718D01*
X0391393Y0277637D01*
X0391255Y0277560D01*
X0391116Y0277487D01*
X0390975Y0277417D01*
X0390832Y0277350D01*
X0390687Y0277287D01*
X0390541Y0277228D01*
X0390393Y0277172D01*
X0390244Y0277121D01*
X0390094Y0277073D01*
X0389943Y0277029D01*
X0389790Y0276988D01*
X0389637Y0276952D01*
X0389482Y0276919D01*
X0389327Y0276890D01*
X0389172Y0276866D01*
X0389015Y0276845D01*
X0388859Y0276828D01*
X0388701Y0276815D01*
X0388544Y0276806D01*
X0388386Y0276801D01*
X0388229Y0276800D01*
X0388071Y0276803D01*
X0387913Y0276810D01*
X0387756Y0276821D01*
X0387599Y0276836D01*
X0387442Y0276855D01*
X0387286Y0276878D01*
X0387131Y0276904D01*
X0386976Y0276935D01*
X0386822Y0276969D01*
X0386669Y0277008D01*
X0386517Y0277050D01*
X0386367Y0277096D01*
X0386217Y0277146D01*
X0386069Y0277200D01*
X0385922Y0277257D01*
X0385776Y0277318D01*
X0385633Y0277383D01*
X0385490Y0277451D01*
X0385350Y0277523D01*
X0385212Y0277598D01*
X0385075Y0277677D01*
X0384940Y0277759D01*
X0384808Y0277845D01*
X0384678Y0277934D01*
X0384550Y0278026D01*
X0384424Y0278122D01*
X0384301Y0278220D01*
X0384181Y0278322D01*
X0384063Y0278427D01*
X0383947Y0278534D01*
X0383835Y0278645D01*
X0383725Y0278758D01*
X0383618Y0278874D01*
X0383514Y0278992D01*
X0383413Y0279114D01*
X0383316Y0279237D01*
X0383221Y0279364D01*
X0383130Y0279492D01*
X0383041Y0279623D01*
X0382957Y0279756D01*
X0382875Y0279891D01*
X0382797Y0280028D01*
X0382723Y0280167D01*
X0382652Y0280308D01*
X0382584Y0280450D01*
X0382521Y0280595D01*
X0382460Y0280740D01*
X0382404Y0280888D01*
X0382351Y0281036D01*
X0382302Y0281186D01*
X0382257Y0281337D01*
X0382216Y0281490D01*
X0382178Y0281643D01*
X0382145Y0281797D01*
X0382115Y0281952D01*
X0382089Y0282107D01*
X0382068Y0282264D01*
X0382050Y0282420D01*
X0382036Y0282577D01*
X0382026Y0282735D01*
X0382020Y0282892D01*
X0382018Y0283050D01*
X0482177Y0333050D02*
X0482179Y0333098D01*
X0482185Y0333146D01*
X0482195Y0333193D01*
X0482208Y0333239D01*
X0482226Y0333284D01*
X0482246Y0333328D01*
X0482271Y0333370D01*
X0482299Y0333409D01*
X0482329Y0333446D01*
X0482363Y0333480D01*
X0482400Y0333512D01*
X0482438Y0333541D01*
X0482479Y0333566D01*
X0482522Y0333588D01*
X0482567Y0333606D01*
X0482613Y0333620D01*
X0482660Y0333631D01*
X0482708Y0333638D01*
X0482756Y0333641D01*
X0482804Y0333640D01*
X0482852Y0333635D01*
X0482900Y0333626D01*
X0482946Y0333614D01*
X0482991Y0333597D01*
X0483035Y0333577D01*
X0483077Y0333554D01*
X0483117Y0333527D01*
X0483155Y0333497D01*
X0483190Y0333464D01*
X0483222Y0333428D01*
X0483252Y0333390D01*
X0483278Y0333349D01*
X0483300Y0333306D01*
X0483320Y0333262D01*
X0483335Y0333217D01*
X0483347Y0333170D01*
X0483355Y0333122D01*
X0483359Y0333074D01*
X0483359Y0333026D01*
X0483355Y0332978D01*
X0483347Y0332930D01*
X0483335Y0332883D01*
X0483320Y0332838D01*
X0483300Y0332794D01*
X0483278Y0332751D01*
X0483252Y0332710D01*
X0483222Y0332672D01*
X0483190Y0332636D01*
X0483155Y0332603D01*
X0483117Y0332573D01*
X0483077Y0332546D01*
X0483035Y0332523D01*
X0482991Y0332503D01*
X0482946Y0332486D01*
X0482900Y0332474D01*
X0482852Y0332465D01*
X0482804Y0332460D01*
X0482756Y0332459D01*
X0482708Y0332462D01*
X0482660Y0332469D01*
X0482613Y0332480D01*
X0482567Y0332494D01*
X0482522Y0332512D01*
X0482479Y0332534D01*
X0482438Y0332559D01*
X0482400Y0332588D01*
X0482363Y0332620D01*
X0482329Y0332654D01*
X0482299Y0332691D01*
X0482271Y0332730D01*
X0482246Y0332772D01*
X0482226Y0332816D01*
X0482208Y0332861D01*
X0482195Y0332907D01*
X0482185Y0332954D01*
X0482179Y0333002D01*
X0482177Y0333050D01*
X0484177Y0333050D02*
X0484179Y0333098D01*
X0484185Y0333146D01*
X0484195Y0333193D01*
X0484208Y0333239D01*
X0484226Y0333284D01*
X0484246Y0333328D01*
X0484271Y0333370D01*
X0484299Y0333409D01*
X0484329Y0333446D01*
X0484363Y0333480D01*
X0484400Y0333512D01*
X0484438Y0333541D01*
X0484479Y0333566D01*
X0484522Y0333588D01*
X0484567Y0333606D01*
X0484613Y0333620D01*
X0484660Y0333631D01*
X0484708Y0333638D01*
X0484756Y0333641D01*
X0484804Y0333640D01*
X0484852Y0333635D01*
X0484900Y0333626D01*
X0484946Y0333614D01*
X0484991Y0333597D01*
X0485035Y0333577D01*
X0485077Y0333554D01*
X0485117Y0333527D01*
X0485155Y0333497D01*
X0485190Y0333464D01*
X0485222Y0333428D01*
X0485252Y0333390D01*
X0485278Y0333349D01*
X0485300Y0333306D01*
X0485320Y0333262D01*
X0485335Y0333217D01*
X0485347Y0333170D01*
X0485355Y0333122D01*
X0485359Y0333074D01*
X0485359Y0333026D01*
X0485355Y0332978D01*
X0485347Y0332930D01*
X0485335Y0332883D01*
X0485320Y0332838D01*
X0485300Y0332794D01*
X0485278Y0332751D01*
X0485252Y0332710D01*
X0485222Y0332672D01*
X0485190Y0332636D01*
X0485155Y0332603D01*
X0485117Y0332573D01*
X0485077Y0332546D01*
X0485035Y0332523D01*
X0484991Y0332503D01*
X0484946Y0332486D01*
X0484900Y0332474D01*
X0484852Y0332465D01*
X0484804Y0332460D01*
X0484756Y0332459D01*
X0484708Y0332462D01*
X0484660Y0332469D01*
X0484613Y0332480D01*
X0484567Y0332494D01*
X0484522Y0332512D01*
X0484479Y0332534D01*
X0484438Y0332559D01*
X0484400Y0332588D01*
X0484363Y0332620D01*
X0484329Y0332654D01*
X0484299Y0332691D01*
X0484271Y0332730D01*
X0484246Y0332772D01*
X0484226Y0332816D01*
X0484208Y0332861D01*
X0484195Y0332907D01*
X0484185Y0332954D01*
X0484179Y0333002D01*
X0484177Y0333050D01*
X0486177Y0333050D02*
X0486179Y0333098D01*
X0486185Y0333146D01*
X0486195Y0333193D01*
X0486208Y0333239D01*
X0486226Y0333284D01*
X0486246Y0333328D01*
X0486271Y0333370D01*
X0486299Y0333409D01*
X0486329Y0333446D01*
X0486363Y0333480D01*
X0486400Y0333512D01*
X0486438Y0333541D01*
X0486479Y0333566D01*
X0486522Y0333588D01*
X0486567Y0333606D01*
X0486613Y0333620D01*
X0486660Y0333631D01*
X0486708Y0333638D01*
X0486756Y0333641D01*
X0486804Y0333640D01*
X0486852Y0333635D01*
X0486900Y0333626D01*
X0486946Y0333614D01*
X0486991Y0333597D01*
X0487035Y0333577D01*
X0487077Y0333554D01*
X0487117Y0333527D01*
X0487155Y0333497D01*
X0487190Y0333464D01*
X0487222Y0333428D01*
X0487252Y0333390D01*
X0487278Y0333349D01*
X0487300Y0333306D01*
X0487320Y0333262D01*
X0487335Y0333217D01*
X0487347Y0333170D01*
X0487355Y0333122D01*
X0487359Y0333074D01*
X0487359Y0333026D01*
X0487355Y0332978D01*
X0487347Y0332930D01*
X0487335Y0332883D01*
X0487320Y0332838D01*
X0487300Y0332794D01*
X0487278Y0332751D01*
X0487252Y0332710D01*
X0487222Y0332672D01*
X0487190Y0332636D01*
X0487155Y0332603D01*
X0487117Y0332573D01*
X0487077Y0332546D01*
X0487035Y0332523D01*
X0486991Y0332503D01*
X0486946Y0332486D01*
X0486900Y0332474D01*
X0486852Y0332465D01*
X0486804Y0332460D01*
X0486756Y0332459D01*
X0486708Y0332462D01*
X0486660Y0332469D01*
X0486613Y0332480D01*
X0486567Y0332494D01*
X0486522Y0332512D01*
X0486479Y0332534D01*
X0486438Y0332559D01*
X0486400Y0332588D01*
X0486363Y0332620D01*
X0486329Y0332654D01*
X0486299Y0332691D01*
X0486271Y0332730D01*
X0486246Y0332772D01*
X0486226Y0332816D01*
X0486208Y0332861D01*
X0486195Y0332907D01*
X0486185Y0332954D01*
X0486179Y0333002D01*
X0486177Y0333050D01*
X0488177Y0333050D02*
X0488179Y0333098D01*
X0488185Y0333146D01*
X0488195Y0333193D01*
X0488208Y0333239D01*
X0488226Y0333284D01*
X0488246Y0333328D01*
X0488271Y0333370D01*
X0488299Y0333409D01*
X0488329Y0333446D01*
X0488363Y0333480D01*
X0488400Y0333512D01*
X0488438Y0333541D01*
X0488479Y0333566D01*
X0488522Y0333588D01*
X0488567Y0333606D01*
X0488613Y0333620D01*
X0488660Y0333631D01*
X0488708Y0333638D01*
X0488756Y0333641D01*
X0488804Y0333640D01*
X0488852Y0333635D01*
X0488900Y0333626D01*
X0488946Y0333614D01*
X0488991Y0333597D01*
X0489035Y0333577D01*
X0489077Y0333554D01*
X0489117Y0333527D01*
X0489155Y0333497D01*
X0489190Y0333464D01*
X0489222Y0333428D01*
X0489252Y0333390D01*
X0489278Y0333349D01*
X0489300Y0333306D01*
X0489320Y0333262D01*
X0489335Y0333217D01*
X0489347Y0333170D01*
X0489355Y0333122D01*
X0489359Y0333074D01*
X0489359Y0333026D01*
X0489355Y0332978D01*
X0489347Y0332930D01*
X0489335Y0332883D01*
X0489320Y0332838D01*
X0489300Y0332794D01*
X0489278Y0332751D01*
X0489252Y0332710D01*
X0489222Y0332672D01*
X0489190Y0332636D01*
X0489155Y0332603D01*
X0489117Y0332573D01*
X0489077Y0332546D01*
X0489035Y0332523D01*
X0488991Y0332503D01*
X0488946Y0332486D01*
X0488900Y0332474D01*
X0488852Y0332465D01*
X0488804Y0332460D01*
X0488756Y0332459D01*
X0488708Y0332462D01*
X0488660Y0332469D01*
X0488613Y0332480D01*
X0488567Y0332494D01*
X0488522Y0332512D01*
X0488479Y0332534D01*
X0488438Y0332559D01*
X0488400Y0332588D01*
X0488363Y0332620D01*
X0488329Y0332654D01*
X0488299Y0332691D01*
X0488271Y0332730D01*
X0488246Y0332772D01*
X0488226Y0332816D01*
X0488208Y0332861D01*
X0488195Y0332907D01*
X0488185Y0332954D01*
X0488179Y0333002D01*
X0488177Y0333050D01*
X0490177Y0333050D02*
X0490179Y0333098D01*
X0490185Y0333146D01*
X0490195Y0333193D01*
X0490208Y0333239D01*
X0490226Y0333284D01*
X0490246Y0333328D01*
X0490271Y0333370D01*
X0490299Y0333409D01*
X0490329Y0333446D01*
X0490363Y0333480D01*
X0490400Y0333512D01*
X0490438Y0333541D01*
X0490479Y0333566D01*
X0490522Y0333588D01*
X0490567Y0333606D01*
X0490613Y0333620D01*
X0490660Y0333631D01*
X0490708Y0333638D01*
X0490756Y0333641D01*
X0490804Y0333640D01*
X0490852Y0333635D01*
X0490900Y0333626D01*
X0490946Y0333614D01*
X0490991Y0333597D01*
X0491035Y0333577D01*
X0491077Y0333554D01*
X0491117Y0333527D01*
X0491155Y0333497D01*
X0491190Y0333464D01*
X0491222Y0333428D01*
X0491252Y0333390D01*
X0491278Y0333349D01*
X0491300Y0333306D01*
X0491320Y0333262D01*
X0491335Y0333217D01*
X0491347Y0333170D01*
X0491355Y0333122D01*
X0491359Y0333074D01*
X0491359Y0333026D01*
X0491355Y0332978D01*
X0491347Y0332930D01*
X0491335Y0332883D01*
X0491320Y0332838D01*
X0491300Y0332794D01*
X0491278Y0332751D01*
X0491252Y0332710D01*
X0491222Y0332672D01*
X0491190Y0332636D01*
X0491155Y0332603D01*
X0491117Y0332573D01*
X0491077Y0332546D01*
X0491035Y0332523D01*
X0490991Y0332503D01*
X0490946Y0332486D01*
X0490900Y0332474D01*
X0490852Y0332465D01*
X0490804Y0332460D01*
X0490756Y0332459D01*
X0490708Y0332462D01*
X0490660Y0332469D01*
X0490613Y0332480D01*
X0490567Y0332494D01*
X0490522Y0332512D01*
X0490479Y0332534D01*
X0490438Y0332559D01*
X0490400Y0332588D01*
X0490363Y0332620D01*
X0490329Y0332654D01*
X0490299Y0332691D01*
X0490271Y0332730D01*
X0490246Y0332772D01*
X0490226Y0332816D01*
X0490208Y0332861D01*
X0490195Y0332907D01*
X0490185Y0332954D01*
X0490179Y0333002D01*
X0490177Y0333050D01*
X0270528Y0233050D02*
X0270530Y0233197D01*
X0270536Y0233343D01*
X0270546Y0233489D01*
X0270560Y0233635D01*
X0270578Y0233781D01*
X0270599Y0233926D01*
X0270625Y0234070D01*
X0270655Y0234214D01*
X0270688Y0234356D01*
X0270725Y0234498D01*
X0270766Y0234639D01*
X0270811Y0234778D01*
X0270860Y0234917D01*
X0270912Y0235054D01*
X0270969Y0235189D01*
X0271028Y0235323D01*
X0271092Y0235455D01*
X0271159Y0235585D01*
X0271229Y0235714D01*
X0271303Y0235841D01*
X0271380Y0235965D01*
X0271461Y0236088D01*
X0271545Y0236208D01*
X0271632Y0236326D01*
X0271722Y0236441D01*
X0271815Y0236554D01*
X0271912Y0236665D01*
X0272011Y0236773D01*
X0272113Y0236878D01*
X0272218Y0236980D01*
X0272326Y0237079D01*
X0272437Y0237176D01*
X0272550Y0237269D01*
X0272665Y0237359D01*
X0272783Y0237446D01*
X0272903Y0237530D01*
X0273026Y0237611D01*
X0273150Y0237688D01*
X0273277Y0237762D01*
X0273406Y0237832D01*
X0273536Y0237899D01*
X0273668Y0237963D01*
X0273802Y0238022D01*
X0273937Y0238079D01*
X0274074Y0238131D01*
X0274213Y0238180D01*
X0274352Y0238225D01*
X0274493Y0238266D01*
X0274635Y0238303D01*
X0274777Y0238336D01*
X0274921Y0238366D01*
X0275065Y0238392D01*
X0275210Y0238413D01*
X0275356Y0238431D01*
X0275502Y0238445D01*
X0275648Y0238455D01*
X0275794Y0238461D01*
X0275941Y0238463D01*
X0276088Y0238461D01*
X0276234Y0238455D01*
X0276380Y0238445D01*
X0276526Y0238431D01*
X0276672Y0238413D01*
X0276817Y0238392D01*
X0276961Y0238366D01*
X0277105Y0238336D01*
X0277247Y0238303D01*
X0277389Y0238266D01*
X0277530Y0238225D01*
X0277669Y0238180D01*
X0277808Y0238131D01*
X0277945Y0238079D01*
X0278080Y0238022D01*
X0278214Y0237963D01*
X0278346Y0237899D01*
X0278476Y0237832D01*
X0278605Y0237762D01*
X0278732Y0237688D01*
X0278856Y0237611D01*
X0278979Y0237530D01*
X0279099Y0237446D01*
X0279217Y0237359D01*
X0279332Y0237269D01*
X0279445Y0237176D01*
X0279556Y0237079D01*
X0279664Y0236980D01*
X0279769Y0236878D01*
X0279871Y0236773D01*
X0279970Y0236665D01*
X0280067Y0236554D01*
X0280160Y0236441D01*
X0280250Y0236326D01*
X0280337Y0236208D01*
X0280421Y0236088D01*
X0280502Y0235965D01*
X0280579Y0235841D01*
X0280653Y0235714D01*
X0280723Y0235585D01*
X0280790Y0235455D01*
X0280854Y0235323D01*
X0280913Y0235189D01*
X0280970Y0235054D01*
X0281022Y0234917D01*
X0281071Y0234778D01*
X0281116Y0234639D01*
X0281157Y0234498D01*
X0281194Y0234356D01*
X0281227Y0234214D01*
X0281257Y0234070D01*
X0281283Y0233926D01*
X0281304Y0233781D01*
X0281322Y0233635D01*
X0281336Y0233489D01*
X0281346Y0233343D01*
X0281352Y0233197D01*
X0281354Y0233050D01*
X0281352Y0232903D01*
X0281346Y0232757D01*
X0281336Y0232611D01*
X0281322Y0232465D01*
X0281304Y0232319D01*
X0281283Y0232174D01*
X0281257Y0232030D01*
X0281227Y0231886D01*
X0281194Y0231744D01*
X0281157Y0231602D01*
X0281116Y0231461D01*
X0281071Y0231322D01*
X0281022Y0231183D01*
X0280970Y0231046D01*
X0280913Y0230911D01*
X0280854Y0230777D01*
X0280790Y0230645D01*
X0280723Y0230515D01*
X0280653Y0230386D01*
X0280579Y0230259D01*
X0280502Y0230135D01*
X0280421Y0230012D01*
X0280337Y0229892D01*
X0280250Y0229774D01*
X0280160Y0229659D01*
X0280067Y0229546D01*
X0279970Y0229435D01*
X0279871Y0229327D01*
X0279769Y0229222D01*
X0279664Y0229120D01*
X0279556Y0229021D01*
X0279445Y0228924D01*
X0279332Y0228831D01*
X0279217Y0228741D01*
X0279099Y0228654D01*
X0278979Y0228570D01*
X0278856Y0228489D01*
X0278732Y0228412D01*
X0278605Y0228338D01*
X0278476Y0228268D01*
X0278346Y0228201D01*
X0278214Y0228137D01*
X0278080Y0228078D01*
X0277945Y0228021D01*
X0277808Y0227969D01*
X0277669Y0227920D01*
X0277530Y0227875D01*
X0277389Y0227834D01*
X0277247Y0227797D01*
X0277105Y0227764D01*
X0276961Y0227734D01*
X0276817Y0227708D01*
X0276672Y0227687D01*
X0276526Y0227669D01*
X0276380Y0227655D01*
X0276234Y0227645D01*
X0276088Y0227639D01*
X0275941Y0227637D01*
X0275794Y0227639D01*
X0275648Y0227645D01*
X0275502Y0227655D01*
X0275356Y0227669D01*
X0275210Y0227687D01*
X0275065Y0227708D01*
X0274921Y0227734D01*
X0274777Y0227764D01*
X0274635Y0227797D01*
X0274493Y0227834D01*
X0274352Y0227875D01*
X0274213Y0227920D01*
X0274074Y0227969D01*
X0273937Y0228021D01*
X0273802Y0228078D01*
X0273668Y0228137D01*
X0273536Y0228201D01*
X0273406Y0228268D01*
X0273277Y0228338D01*
X0273150Y0228412D01*
X0273026Y0228489D01*
X0272903Y0228570D01*
X0272783Y0228654D01*
X0272665Y0228741D01*
X0272550Y0228831D01*
X0272437Y0228924D01*
X0272326Y0229021D01*
X0272218Y0229120D01*
X0272113Y0229222D01*
X0272011Y0229327D01*
X0271912Y0229435D01*
X0271815Y0229546D01*
X0271722Y0229659D01*
X0271632Y0229774D01*
X0271545Y0229892D01*
X0271461Y0230012D01*
X0271380Y0230135D01*
X0271303Y0230259D01*
X0271229Y0230386D01*
X0271159Y0230515D01*
X0271092Y0230645D01*
X0271028Y0230777D01*
X0270969Y0230911D01*
X0270912Y0231046D01*
X0270860Y0231183D01*
X0270811Y0231322D01*
X0270766Y0231461D01*
X0270725Y0231602D01*
X0270688Y0231744D01*
X0270655Y0231886D01*
X0270625Y0232030D01*
X0270599Y0232174D01*
X0270578Y0232319D01*
X0270560Y0232465D01*
X0270546Y0232611D01*
X0270536Y0232757D01*
X0270530Y0232903D01*
X0270528Y0233050D01*
X0270528Y0142499D02*
X0270530Y0142646D01*
X0270536Y0142792D01*
X0270546Y0142938D01*
X0270560Y0143084D01*
X0270578Y0143230D01*
X0270599Y0143375D01*
X0270625Y0143519D01*
X0270655Y0143663D01*
X0270688Y0143805D01*
X0270725Y0143947D01*
X0270766Y0144088D01*
X0270811Y0144227D01*
X0270860Y0144366D01*
X0270912Y0144503D01*
X0270969Y0144638D01*
X0271028Y0144772D01*
X0271092Y0144904D01*
X0271159Y0145034D01*
X0271229Y0145163D01*
X0271303Y0145290D01*
X0271380Y0145414D01*
X0271461Y0145537D01*
X0271545Y0145657D01*
X0271632Y0145775D01*
X0271722Y0145890D01*
X0271815Y0146003D01*
X0271912Y0146114D01*
X0272011Y0146222D01*
X0272113Y0146327D01*
X0272218Y0146429D01*
X0272326Y0146528D01*
X0272437Y0146625D01*
X0272550Y0146718D01*
X0272665Y0146808D01*
X0272783Y0146895D01*
X0272903Y0146979D01*
X0273026Y0147060D01*
X0273150Y0147137D01*
X0273277Y0147211D01*
X0273406Y0147281D01*
X0273536Y0147348D01*
X0273668Y0147412D01*
X0273802Y0147471D01*
X0273937Y0147528D01*
X0274074Y0147580D01*
X0274213Y0147629D01*
X0274352Y0147674D01*
X0274493Y0147715D01*
X0274635Y0147752D01*
X0274777Y0147785D01*
X0274921Y0147815D01*
X0275065Y0147841D01*
X0275210Y0147862D01*
X0275356Y0147880D01*
X0275502Y0147894D01*
X0275648Y0147904D01*
X0275794Y0147910D01*
X0275941Y0147912D01*
X0276088Y0147910D01*
X0276234Y0147904D01*
X0276380Y0147894D01*
X0276526Y0147880D01*
X0276672Y0147862D01*
X0276817Y0147841D01*
X0276961Y0147815D01*
X0277105Y0147785D01*
X0277247Y0147752D01*
X0277389Y0147715D01*
X0277530Y0147674D01*
X0277669Y0147629D01*
X0277808Y0147580D01*
X0277945Y0147528D01*
X0278080Y0147471D01*
X0278214Y0147412D01*
X0278346Y0147348D01*
X0278476Y0147281D01*
X0278605Y0147211D01*
X0278732Y0147137D01*
X0278856Y0147060D01*
X0278979Y0146979D01*
X0279099Y0146895D01*
X0279217Y0146808D01*
X0279332Y0146718D01*
X0279445Y0146625D01*
X0279556Y0146528D01*
X0279664Y0146429D01*
X0279769Y0146327D01*
X0279871Y0146222D01*
X0279970Y0146114D01*
X0280067Y0146003D01*
X0280160Y0145890D01*
X0280250Y0145775D01*
X0280337Y0145657D01*
X0280421Y0145537D01*
X0280502Y0145414D01*
X0280579Y0145290D01*
X0280653Y0145163D01*
X0280723Y0145034D01*
X0280790Y0144904D01*
X0280854Y0144772D01*
X0280913Y0144638D01*
X0280970Y0144503D01*
X0281022Y0144366D01*
X0281071Y0144227D01*
X0281116Y0144088D01*
X0281157Y0143947D01*
X0281194Y0143805D01*
X0281227Y0143663D01*
X0281257Y0143519D01*
X0281283Y0143375D01*
X0281304Y0143230D01*
X0281322Y0143084D01*
X0281336Y0142938D01*
X0281346Y0142792D01*
X0281352Y0142646D01*
X0281354Y0142499D01*
X0281352Y0142352D01*
X0281346Y0142206D01*
X0281336Y0142060D01*
X0281322Y0141914D01*
X0281304Y0141768D01*
X0281283Y0141623D01*
X0281257Y0141479D01*
X0281227Y0141335D01*
X0281194Y0141193D01*
X0281157Y0141051D01*
X0281116Y0140910D01*
X0281071Y0140771D01*
X0281022Y0140632D01*
X0280970Y0140495D01*
X0280913Y0140360D01*
X0280854Y0140226D01*
X0280790Y0140094D01*
X0280723Y0139964D01*
X0280653Y0139835D01*
X0280579Y0139708D01*
X0280502Y0139584D01*
X0280421Y0139461D01*
X0280337Y0139341D01*
X0280250Y0139223D01*
X0280160Y0139108D01*
X0280067Y0138995D01*
X0279970Y0138884D01*
X0279871Y0138776D01*
X0279769Y0138671D01*
X0279664Y0138569D01*
X0279556Y0138470D01*
X0279445Y0138373D01*
X0279332Y0138280D01*
X0279217Y0138190D01*
X0279099Y0138103D01*
X0278979Y0138019D01*
X0278856Y0137938D01*
X0278732Y0137861D01*
X0278605Y0137787D01*
X0278476Y0137717D01*
X0278346Y0137650D01*
X0278214Y0137586D01*
X0278080Y0137527D01*
X0277945Y0137470D01*
X0277808Y0137418D01*
X0277669Y0137369D01*
X0277530Y0137324D01*
X0277389Y0137283D01*
X0277247Y0137246D01*
X0277105Y0137213D01*
X0276961Y0137183D01*
X0276817Y0137157D01*
X0276672Y0137136D01*
X0276526Y0137118D01*
X0276380Y0137104D01*
X0276234Y0137094D01*
X0276088Y0137088D01*
X0275941Y0137086D01*
X0275794Y0137088D01*
X0275648Y0137094D01*
X0275502Y0137104D01*
X0275356Y0137118D01*
X0275210Y0137136D01*
X0275065Y0137157D01*
X0274921Y0137183D01*
X0274777Y0137213D01*
X0274635Y0137246D01*
X0274493Y0137283D01*
X0274352Y0137324D01*
X0274213Y0137369D01*
X0274074Y0137418D01*
X0273937Y0137470D01*
X0273802Y0137527D01*
X0273668Y0137586D01*
X0273536Y0137650D01*
X0273406Y0137717D01*
X0273277Y0137787D01*
X0273150Y0137861D01*
X0273026Y0137938D01*
X0272903Y0138019D01*
X0272783Y0138103D01*
X0272665Y0138190D01*
X0272550Y0138280D01*
X0272437Y0138373D01*
X0272326Y0138470D01*
X0272218Y0138569D01*
X0272113Y0138671D01*
X0272011Y0138776D01*
X0271912Y0138884D01*
X0271815Y0138995D01*
X0271722Y0139108D01*
X0271632Y0139223D01*
X0271545Y0139341D01*
X0271461Y0139461D01*
X0271380Y0139584D01*
X0271303Y0139708D01*
X0271229Y0139835D01*
X0271159Y0139964D01*
X0271092Y0140094D01*
X0271028Y0140226D01*
X0270969Y0140360D01*
X0270912Y0140495D01*
X0270860Y0140632D01*
X0270811Y0140771D01*
X0270766Y0140910D01*
X0270725Y0141051D01*
X0270688Y0141193D01*
X0270655Y0141335D01*
X0270625Y0141479D01*
X0270599Y0141623D01*
X0270578Y0141768D01*
X0270560Y0141914D01*
X0270546Y0142060D01*
X0270536Y0142206D01*
X0270530Y0142352D01*
X0270528Y0142499D01*
X0255177Y0033050D02*
X0255179Y0033098D01*
X0255185Y0033146D01*
X0255195Y0033193D01*
X0255208Y0033239D01*
X0255226Y0033284D01*
X0255246Y0033328D01*
X0255271Y0033370D01*
X0255299Y0033409D01*
X0255329Y0033446D01*
X0255363Y0033480D01*
X0255400Y0033512D01*
X0255438Y0033541D01*
X0255479Y0033566D01*
X0255522Y0033588D01*
X0255567Y0033606D01*
X0255613Y0033620D01*
X0255660Y0033631D01*
X0255708Y0033638D01*
X0255756Y0033641D01*
X0255804Y0033640D01*
X0255852Y0033635D01*
X0255900Y0033626D01*
X0255946Y0033614D01*
X0255991Y0033597D01*
X0256035Y0033577D01*
X0256077Y0033554D01*
X0256117Y0033527D01*
X0256155Y0033497D01*
X0256190Y0033464D01*
X0256222Y0033428D01*
X0256252Y0033390D01*
X0256278Y0033349D01*
X0256300Y0033306D01*
X0256320Y0033262D01*
X0256335Y0033217D01*
X0256347Y0033170D01*
X0256355Y0033122D01*
X0256359Y0033074D01*
X0256359Y0033026D01*
X0256355Y0032978D01*
X0256347Y0032930D01*
X0256335Y0032883D01*
X0256320Y0032838D01*
X0256300Y0032794D01*
X0256278Y0032751D01*
X0256252Y0032710D01*
X0256222Y0032672D01*
X0256190Y0032636D01*
X0256155Y0032603D01*
X0256117Y0032573D01*
X0256077Y0032546D01*
X0256035Y0032523D01*
X0255991Y0032503D01*
X0255946Y0032486D01*
X0255900Y0032474D01*
X0255852Y0032465D01*
X0255804Y0032460D01*
X0255756Y0032459D01*
X0255708Y0032462D01*
X0255660Y0032469D01*
X0255613Y0032480D01*
X0255567Y0032494D01*
X0255522Y0032512D01*
X0255479Y0032534D01*
X0255438Y0032559D01*
X0255400Y0032588D01*
X0255363Y0032620D01*
X0255329Y0032654D01*
X0255299Y0032691D01*
X0255271Y0032730D01*
X0255246Y0032772D01*
X0255226Y0032816D01*
X0255208Y0032861D01*
X0255195Y0032907D01*
X0255185Y0032954D01*
X0255179Y0033002D01*
X0255177Y0033050D01*
X0253177Y0033050D02*
X0253179Y0033098D01*
X0253185Y0033146D01*
X0253195Y0033193D01*
X0253208Y0033239D01*
X0253226Y0033284D01*
X0253246Y0033328D01*
X0253271Y0033370D01*
X0253299Y0033409D01*
X0253329Y0033446D01*
X0253363Y0033480D01*
X0253400Y0033512D01*
X0253438Y0033541D01*
X0253479Y0033566D01*
X0253522Y0033588D01*
X0253567Y0033606D01*
X0253613Y0033620D01*
X0253660Y0033631D01*
X0253708Y0033638D01*
X0253756Y0033641D01*
X0253804Y0033640D01*
X0253852Y0033635D01*
X0253900Y0033626D01*
X0253946Y0033614D01*
X0253991Y0033597D01*
X0254035Y0033577D01*
X0254077Y0033554D01*
X0254117Y0033527D01*
X0254155Y0033497D01*
X0254190Y0033464D01*
X0254222Y0033428D01*
X0254252Y0033390D01*
X0254278Y0033349D01*
X0254300Y0033306D01*
X0254320Y0033262D01*
X0254335Y0033217D01*
X0254347Y0033170D01*
X0254355Y0033122D01*
X0254359Y0033074D01*
X0254359Y0033026D01*
X0254355Y0032978D01*
X0254347Y0032930D01*
X0254335Y0032883D01*
X0254320Y0032838D01*
X0254300Y0032794D01*
X0254278Y0032751D01*
X0254252Y0032710D01*
X0254222Y0032672D01*
X0254190Y0032636D01*
X0254155Y0032603D01*
X0254117Y0032573D01*
X0254077Y0032546D01*
X0254035Y0032523D01*
X0253991Y0032503D01*
X0253946Y0032486D01*
X0253900Y0032474D01*
X0253852Y0032465D01*
X0253804Y0032460D01*
X0253756Y0032459D01*
X0253708Y0032462D01*
X0253660Y0032469D01*
X0253613Y0032480D01*
X0253567Y0032494D01*
X0253522Y0032512D01*
X0253479Y0032534D01*
X0253438Y0032559D01*
X0253400Y0032588D01*
X0253363Y0032620D01*
X0253329Y0032654D01*
X0253299Y0032691D01*
X0253271Y0032730D01*
X0253246Y0032772D01*
X0253226Y0032816D01*
X0253208Y0032861D01*
X0253195Y0032907D01*
X0253185Y0032954D01*
X0253179Y0033002D01*
X0253177Y0033050D01*
X0251177Y0033050D02*
X0251179Y0033098D01*
X0251185Y0033146D01*
X0251195Y0033193D01*
X0251208Y0033239D01*
X0251226Y0033284D01*
X0251246Y0033328D01*
X0251271Y0033370D01*
X0251299Y0033409D01*
X0251329Y0033446D01*
X0251363Y0033480D01*
X0251400Y0033512D01*
X0251438Y0033541D01*
X0251479Y0033566D01*
X0251522Y0033588D01*
X0251567Y0033606D01*
X0251613Y0033620D01*
X0251660Y0033631D01*
X0251708Y0033638D01*
X0251756Y0033641D01*
X0251804Y0033640D01*
X0251852Y0033635D01*
X0251900Y0033626D01*
X0251946Y0033614D01*
X0251991Y0033597D01*
X0252035Y0033577D01*
X0252077Y0033554D01*
X0252117Y0033527D01*
X0252155Y0033497D01*
X0252190Y0033464D01*
X0252222Y0033428D01*
X0252252Y0033390D01*
X0252278Y0033349D01*
X0252300Y0033306D01*
X0252320Y0033262D01*
X0252335Y0033217D01*
X0252347Y0033170D01*
X0252355Y0033122D01*
X0252359Y0033074D01*
X0252359Y0033026D01*
X0252355Y0032978D01*
X0252347Y0032930D01*
X0252335Y0032883D01*
X0252320Y0032838D01*
X0252300Y0032794D01*
X0252278Y0032751D01*
X0252252Y0032710D01*
X0252222Y0032672D01*
X0252190Y0032636D01*
X0252155Y0032603D01*
X0252117Y0032573D01*
X0252077Y0032546D01*
X0252035Y0032523D01*
X0251991Y0032503D01*
X0251946Y0032486D01*
X0251900Y0032474D01*
X0251852Y0032465D01*
X0251804Y0032460D01*
X0251756Y0032459D01*
X0251708Y0032462D01*
X0251660Y0032469D01*
X0251613Y0032480D01*
X0251567Y0032494D01*
X0251522Y0032512D01*
X0251479Y0032534D01*
X0251438Y0032559D01*
X0251400Y0032588D01*
X0251363Y0032620D01*
X0251329Y0032654D01*
X0251299Y0032691D01*
X0251271Y0032730D01*
X0251246Y0032772D01*
X0251226Y0032816D01*
X0251208Y0032861D01*
X0251195Y0032907D01*
X0251185Y0032954D01*
X0251179Y0033002D01*
X0251177Y0033050D01*
X0249177Y0033050D02*
X0249179Y0033098D01*
X0249185Y0033146D01*
X0249195Y0033193D01*
X0249208Y0033239D01*
X0249226Y0033284D01*
X0249246Y0033328D01*
X0249271Y0033370D01*
X0249299Y0033409D01*
X0249329Y0033446D01*
X0249363Y0033480D01*
X0249400Y0033512D01*
X0249438Y0033541D01*
X0249479Y0033566D01*
X0249522Y0033588D01*
X0249567Y0033606D01*
X0249613Y0033620D01*
X0249660Y0033631D01*
X0249708Y0033638D01*
X0249756Y0033641D01*
X0249804Y0033640D01*
X0249852Y0033635D01*
X0249900Y0033626D01*
X0249946Y0033614D01*
X0249991Y0033597D01*
X0250035Y0033577D01*
X0250077Y0033554D01*
X0250117Y0033527D01*
X0250155Y0033497D01*
X0250190Y0033464D01*
X0250222Y0033428D01*
X0250252Y0033390D01*
X0250278Y0033349D01*
X0250300Y0033306D01*
X0250320Y0033262D01*
X0250335Y0033217D01*
X0250347Y0033170D01*
X0250355Y0033122D01*
X0250359Y0033074D01*
X0250359Y0033026D01*
X0250355Y0032978D01*
X0250347Y0032930D01*
X0250335Y0032883D01*
X0250320Y0032838D01*
X0250300Y0032794D01*
X0250278Y0032751D01*
X0250252Y0032710D01*
X0250222Y0032672D01*
X0250190Y0032636D01*
X0250155Y0032603D01*
X0250117Y0032573D01*
X0250077Y0032546D01*
X0250035Y0032523D01*
X0249991Y0032503D01*
X0249946Y0032486D01*
X0249900Y0032474D01*
X0249852Y0032465D01*
X0249804Y0032460D01*
X0249756Y0032459D01*
X0249708Y0032462D01*
X0249660Y0032469D01*
X0249613Y0032480D01*
X0249567Y0032494D01*
X0249522Y0032512D01*
X0249479Y0032534D01*
X0249438Y0032559D01*
X0249400Y0032588D01*
X0249363Y0032620D01*
X0249329Y0032654D01*
X0249299Y0032691D01*
X0249271Y0032730D01*
X0249246Y0032772D01*
X0249226Y0032816D01*
X0249208Y0032861D01*
X0249195Y0032907D01*
X0249185Y0032954D01*
X0249179Y0033002D01*
X0249177Y0033050D01*
X0247177Y0033050D02*
X0247179Y0033098D01*
X0247185Y0033146D01*
X0247195Y0033193D01*
X0247208Y0033239D01*
X0247226Y0033284D01*
X0247246Y0033328D01*
X0247271Y0033370D01*
X0247299Y0033409D01*
X0247329Y0033446D01*
X0247363Y0033480D01*
X0247400Y0033512D01*
X0247438Y0033541D01*
X0247479Y0033566D01*
X0247522Y0033588D01*
X0247567Y0033606D01*
X0247613Y0033620D01*
X0247660Y0033631D01*
X0247708Y0033638D01*
X0247756Y0033641D01*
X0247804Y0033640D01*
X0247852Y0033635D01*
X0247900Y0033626D01*
X0247946Y0033614D01*
X0247991Y0033597D01*
X0248035Y0033577D01*
X0248077Y0033554D01*
X0248117Y0033527D01*
X0248155Y0033497D01*
X0248190Y0033464D01*
X0248222Y0033428D01*
X0248252Y0033390D01*
X0248278Y0033349D01*
X0248300Y0033306D01*
X0248320Y0033262D01*
X0248335Y0033217D01*
X0248347Y0033170D01*
X0248355Y0033122D01*
X0248359Y0033074D01*
X0248359Y0033026D01*
X0248355Y0032978D01*
X0248347Y0032930D01*
X0248335Y0032883D01*
X0248320Y0032838D01*
X0248300Y0032794D01*
X0248278Y0032751D01*
X0248252Y0032710D01*
X0248222Y0032672D01*
X0248190Y0032636D01*
X0248155Y0032603D01*
X0248117Y0032573D01*
X0248077Y0032546D01*
X0248035Y0032523D01*
X0247991Y0032503D01*
X0247946Y0032486D01*
X0247900Y0032474D01*
X0247852Y0032465D01*
X0247804Y0032460D01*
X0247756Y0032459D01*
X0247708Y0032462D01*
X0247660Y0032469D01*
X0247613Y0032480D01*
X0247567Y0032494D01*
X0247522Y0032512D01*
X0247479Y0032534D01*
X0247438Y0032559D01*
X0247400Y0032588D01*
X0247363Y0032620D01*
X0247329Y0032654D01*
X0247299Y0032691D01*
X0247271Y0032730D01*
X0247246Y0032772D01*
X0247226Y0032816D01*
X0247208Y0032861D01*
X0247195Y0032907D01*
X0247185Y0032954D01*
X0247179Y0033002D01*
X0247177Y0033050D01*
X0115744Y0104704D02*
X0115746Y0104865D01*
X0115752Y0105025D01*
X0115762Y0105186D01*
X0115776Y0105346D01*
X0115794Y0105505D01*
X0115815Y0105665D01*
X0115841Y0105823D01*
X0115871Y0105981D01*
X0115904Y0106138D01*
X0115942Y0106295D01*
X0115983Y0106450D01*
X0116028Y0106604D01*
X0116077Y0106757D01*
X0116130Y0106909D01*
X0116186Y0107059D01*
X0116246Y0107208D01*
X0116310Y0107356D01*
X0116377Y0107502D01*
X0116448Y0107646D01*
X0116523Y0107788D01*
X0116601Y0107929D01*
X0116682Y0108067D01*
X0116767Y0108204D01*
X0116856Y0108338D01*
X0116947Y0108470D01*
X0117042Y0108600D01*
X0117140Y0108727D01*
X0117241Y0108852D01*
X0117345Y0108975D01*
X0117452Y0109094D01*
X0117562Y0109211D01*
X0117675Y0109326D01*
X0117791Y0109437D01*
X0117909Y0109546D01*
X0118030Y0109651D01*
X0118154Y0109754D01*
X0118280Y0109854D01*
X0118409Y0109950D01*
X0118540Y0110043D01*
X0118673Y0110133D01*
X0118808Y0110220D01*
X0118946Y0110303D01*
X0119085Y0110382D01*
X0119227Y0110459D01*
X0119370Y0110532D01*
X0119515Y0110601D01*
X0119662Y0110666D01*
X0119810Y0110728D01*
X0119960Y0110787D01*
X0120111Y0110841D01*
X0120263Y0110892D01*
X0120417Y0110939D01*
X0120572Y0110982D01*
X0120727Y0111021D01*
X0120884Y0111057D01*
X0121042Y0111089D01*
X0121200Y0111116D01*
X0121359Y0111140D01*
X0121518Y0111160D01*
X0121678Y0111176D01*
X0121839Y0111188D01*
X0121999Y0111196D01*
X0122160Y0111200D01*
X0122320Y0111200D01*
X0122481Y0111196D01*
X0122641Y0111188D01*
X0122802Y0111176D01*
X0122962Y0111160D01*
X0123121Y0111140D01*
X0123280Y0111116D01*
X0123438Y0111089D01*
X0123596Y0111057D01*
X0123753Y0111021D01*
X0123908Y0110982D01*
X0124063Y0110939D01*
X0124217Y0110892D01*
X0124369Y0110841D01*
X0124520Y0110787D01*
X0124670Y0110728D01*
X0124818Y0110666D01*
X0124965Y0110601D01*
X0125110Y0110532D01*
X0125253Y0110459D01*
X0125395Y0110382D01*
X0125534Y0110303D01*
X0125672Y0110220D01*
X0125807Y0110133D01*
X0125940Y0110043D01*
X0126071Y0109950D01*
X0126200Y0109854D01*
X0126326Y0109754D01*
X0126450Y0109651D01*
X0126571Y0109546D01*
X0126689Y0109437D01*
X0126805Y0109326D01*
X0126918Y0109211D01*
X0127028Y0109094D01*
X0127135Y0108975D01*
X0127239Y0108852D01*
X0127340Y0108727D01*
X0127438Y0108600D01*
X0127533Y0108470D01*
X0127624Y0108338D01*
X0127713Y0108204D01*
X0127798Y0108067D01*
X0127879Y0107929D01*
X0127957Y0107788D01*
X0128032Y0107646D01*
X0128103Y0107502D01*
X0128170Y0107356D01*
X0128234Y0107208D01*
X0128294Y0107059D01*
X0128350Y0106909D01*
X0128403Y0106757D01*
X0128452Y0106604D01*
X0128497Y0106450D01*
X0128538Y0106295D01*
X0128576Y0106138D01*
X0128609Y0105981D01*
X0128639Y0105823D01*
X0128665Y0105665D01*
X0128686Y0105505D01*
X0128704Y0105346D01*
X0128718Y0105186D01*
X0128728Y0105025D01*
X0128734Y0104865D01*
X0128736Y0104704D01*
X0128734Y0104543D01*
X0128728Y0104383D01*
X0128718Y0104222D01*
X0128704Y0104062D01*
X0128686Y0103903D01*
X0128665Y0103743D01*
X0128639Y0103585D01*
X0128609Y0103427D01*
X0128576Y0103270D01*
X0128538Y0103113D01*
X0128497Y0102958D01*
X0128452Y0102804D01*
X0128403Y0102651D01*
X0128350Y0102499D01*
X0128294Y0102349D01*
X0128234Y0102200D01*
X0128170Y0102052D01*
X0128103Y0101906D01*
X0128032Y0101762D01*
X0127957Y0101620D01*
X0127879Y0101479D01*
X0127798Y0101341D01*
X0127713Y0101204D01*
X0127624Y0101070D01*
X0127533Y0100938D01*
X0127438Y0100808D01*
X0127340Y0100681D01*
X0127239Y0100556D01*
X0127135Y0100433D01*
X0127028Y0100314D01*
X0126918Y0100197D01*
X0126805Y0100082D01*
X0126689Y0099971D01*
X0126571Y0099862D01*
X0126450Y0099757D01*
X0126326Y0099654D01*
X0126200Y0099554D01*
X0126071Y0099458D01*
X0125940Y0099365D01*
X0125807Y0099275D01*
X0125672Y0099188D01*
X0125534Y0099105D01*
X0125395Y0099026D01*
X0125253Y0098949D01*
X0125110Y0098876D01*
X0124965Y0098807D01*
X0124818Y0098742D01*
X0124670Y0098680D01*
X0124520Y0098621D01*
X0124369Y0098567D01*
X0124217Y0098516D01*
X0124063Y0098469D01*
X0123908Y0098426D01*
X0123753Y0098387D01*
X0123596Y0098351D01*
X0123438Y0098319D01*
X0123280Y0098292D01*
X0123121Y0098268D01*
X0122962Y0098248D01*
X0122802Y0098232D01*
X0122641Y0098220D01*
X0122481Y0098212D01*
X0122320Y0098208D01*
X0122160Y0098208D01*
X0121999Y0098212D01*
X0121839Y0098220D01*
X0121678Y0098232D01*
X0121518Y0098248D01*
X0121359Y0098268D01*
X0121200Y0098292D01*
X0121042Y0098319D01*
X0120884Y0098351D01*
X0120727Y0098387D01*
X0120572Y0098426D01*
X0120417Y0098469D01*
X0120263Y0098516D01*
X0120111Y0098567D01*
X0119960Y0098621D01*
X0119810Y0098680D01*
X0119662Y0098742D01*
X0119515Y0098807D01*
X0119370Y0098876D01*
X0119227Y0098949D01*
X0119085Y0099026D01*
X0118946Y0099105D01*
X0118808Y0099188D01*
X0118673Y0099275D01*
X0118540Y0099365D01*
X0118409Y0099458D01*
X0118280Y0099554D01*
X0118154Y0099654D01*
X0118030Y0099757D01*
X0117909Y0099862D01*
X0117791Y0099971D01*
X0117675Y0100082D01*
X0117562Y0100197D01*
X0117452Y0100314D01*
X0117345Y0100433D01*
X0117241Y0100556D01*
X0117140Y0100681D01*
X0117042Y0100808D01*
X0116947Y0100938D01*
X0116856Y0101070D01*
X0116767Y0101204D01*
X0116682Y0101341D01*
X0116601Y0101479D01*
X0116523Y0101620D01*
X0116448Y0101762D01*
X0116377Y0101906D01*
X0116310Y0102052D01*
X0116246Y0102200D01*
X0116186Y0102349D01*
X0116130Y0102499D01*
X0116077Y0102651D01*
X0116028Y0102804D01*
X0115983Y0102958D01*
X0115942Y0103113D01*
X0115904Y0103270D01*
X0115871Y0103427D01*
X0115841Y0103585D01*
X0115815Y0103743D01*
X0115794Y0103903D01*
X0115776Y0104062D01*
X0115762Y0104222D01*
X0115752Y0104383D01*
X0115746Y0104543D01*
X0115744Y0104704D01*
X0069518Y0083050D02*
X0069520Y0083208D01*
X0069526Y0083365D01*
X0069536Y0083523D01*
X0069550Y0083680D01*
X0069568Y0083836D01*
X0069589Y0083993D01*
X0069615Y0084148D01*
X0069645Y0084303D01*
X0069678Y0084457D01*
X0069716Y0084610D01*
X0069757Y0084763D01*
X0069802Y0084914D01*
X0069851Y0085064D01*
X0069904Y0085212D01*
X0069960Y0085360D01*
X0070021Y0085505D01*
X0070084Y0085650D01*
X0070152Y0085792D01*
X0070223Y0085933D01*
X0070297Y0086072D01*
X0070375Y0086209D01*
X0070457Y0086344D01*
X0070541Y0086477D01*
X0070630Y0086608D01*
X0070721Y0086736D01*
X0070816Y0086863D01*
X0070913Y0086986D01*
X0071014Y0087108D01*
X0071118Y0087226D01*
X0071225Y0087342D01*
X0071335Y0087455D01*
X0071447Y0087566D01*
X0071563Y0087673D01*
X0071681Y0087778D01*
X0071801Y0087880D01*
X0071924Y0087978D01*
X0072050Y0088074D01*
X0072178Y0088166D01*
X0072308Y0088255D01*
X0072440Y0088341D01*
X0072575Y0088423D01*
X0072712Y0088502D01*
X0072850Y0088577D01*
X0072990Y0088649D01*
X0073133Y0088717D01*
X0073276Y0088782D01*
X0073422Y0088843D01*
X0073569Y0088900D01*
X0073717Y0088954D01*
X0073867Y0089004D01*
X0074017Y0089050D01*
X0074169Y0089092D01*
X0074322Y0089131D01*
X0074476Y0089165D01*
X0074631Y0089196D01*
X0074786Y0089222D01*
X0074942Y0089245D01*
X0075099Y0089264D01*
X0075256Y0089279D01*
X0075413Y0089290D01*
X0075571Y0089297D01*
X0075729Y0089300D01*
X0075886Y0089299D01*
X0076044Y0089294D01*
X0076201Y0089285D01*
X0076359Y0089272D01*
X0076515Y0089255D01*
X0076672Y0089234D01*
X0076827Y0089210D01*
X0076982Y0089181D01*
X0077137Y0089148D01*
X0077290Y0089112D01*
X0077443Y0089071D01*
X0077594Y0089027D01*
X0077744Y0088979D01*
X0077893Y0088928D01*
X0078041Y0088872D01*
X0078187Y0088813D01*
X0078332Y0088750D01*
X0078475Y0088683D01*
X0078616Y0088613D01*
X0078755Y0088540D01*
X0078893Y0088463D01*
X0079029Y0088382D01*
X0079162Y0088298D01*
X0079293Y0088211D01*
X0079422Y0088120D01*
X0079549Y0088026D01*
X0079674Y0087929D01*
X0079795Y0087829D01*
X0079915Y0087726D01*
X0080031Y0087620D01*
X0080145Y0087511D01*
X0080257Y0087399D01*
X0080365Y0087285D01*
X0080470Y0087167D01*
X0080573Y0087047D01*
X0080672Y0086925D01*
X0080768Y0086800D01*
X0080861Y0086672D01*
X0080951Y0086543D01*
X0081037Y0086411D01*
X0081121Y0086277D01*
X0081200Y0086141D01*
X0081277Y0086003D01*
X0081349Y0085863D01*
X0081418Y0085721D01*
X0081484Y0085578D01*
X0081546Y0085433D01*
X0081604Y0085286D01*
X0081659Y0085138D01*
X0081710Y0084989D01*
X0081757Y0084838D01*
X0081800Y0084687D01*
X0081839Y0084534D01*
X0081875Y0084380D01*
X0081906Y0084226D01*
X0081934Y0084071D01*
X0081958Y0083915D01*
X0081978Y0083758D01*
X0081994Y0083601D01*
X0082006Y0083444D01*
X0082014Y0083287D01*
X0082018Y0083129D01*
X0082018Y0082971D01*
X0082014Y0082813D01*
X0082006Y0082656D01*
X0081994Y0082499D01*
X0081978Y0082342D01*
X0081958Y0082185D01*
X0081934Y0082029D01*
X0081906Y0081874D01*
X0081875Y0081720D01*
X0081839Y0081566D01*
X0081800Y0081413D01*
X0081757Y0081262D01*
X0081710Y0081111D01*
X0081659Y0080962D01*
X0081604Y0080814D01*
X0081546Y0080667D01*
X0081484Y0080522D01*
X0081418Y0080379D01*
X0081349Y0080237D01*
X0081277Y0080097D01*
X0081200Y0079959D01*
X0081121Y0079823D01*
X0081037Y0079689D01*
X0080951Y0079557D01*
X0080861Y0079428D01*
X0080768Y0079300D01*
X0080672Y0079175D01*
X0080573Y0079053D01*
X0080470Y0078933D01*
X0080365Y0078815D01*
X0080257Y0078701D01*
X0080145Y0078589D01*
X0080031Y0078480D01*
X0079915Y0078374D01*
X0079795Y0078271D01*
X0079674Y0078171D01*
X0079549Y0078074D01*
X0079422Y0077980D01*
X0079293Y0077889D01*
X0079162Y0077802D01*
X0079029Y0077718D01*
X0078893Y0077637D01*
X0078755Y0077560D01*
X0078616Y0077487D01*
X0078475Y0077417D01*
X0078332Y0077350D01*
X0078187Y0077287D01*
X0078041Y0077228D01*
X0077893Y0077172D01*
X0077744Y0077121D01*
X0077594Y0077073D01*
X0077443Y0077029D01*
X0077290Y0076988D01*
X0077137Y0076952D01*
X0076982Y0076919D01*
X0076827Y0076890D01*
X0076672Y0076866D01*
X0076515Y0076845D01*
X0076359Y0076828D01*
X0076201Y0076815D01*
X0076044Y0076806D01*
X0075886Y0076801D01*
X0075729Y0076800D01*
X0075571Y0076803D01*
X0075413Y0076810D01*
X0075256Y0076821D01*
X0075099Y0076836D01*
X0074942Y0076855D01*
X0074786Y0076878D01*
X0074631Y0076904D01*
X0074476Y0076935D01*
X0074322Y0076969D01*
X0074169Y0077008D01*
X0074017Y0077050D01*
X0073867Y0077096D01*
X0073717Y0077146D01*
X0073569Y0077200D01*
X0073422Y0077257D01*
X0073276Y0077318D01*
X0073133Y0077383D01*
X0072990Y0077451D01*
X0072850Y0077523D01*
X0072712Y0077598D01*
X0072575Y0077677D01*
X0072440Y0077759D01*
X0072308Y0077845D01*
X0072178Y0077934D01*
X0072050Y0078026D01*
X0071924Y0078122D01*
X0071801Y0078220D01*
X0071681Y0078322D01*
X0071563Y0078427D01*
X0071447Y0078534D01*
X0071335Y0078645D01*
X0071225Y0078758D01*
X0071118Y0078874D01*
X0071014Y0078992D01*
X0070913Y0079114D01*
X0070816Y0079237D01*
X0070721Y0079364D01*
X0070630Y0079492D01*
X0070541Y0079623D01*
X0070457Y0079756D01*
X0070375Y0079891D01*
X0070297Y0080028D01*
X0070223Y0080167D01*
X0070152Y0080308D01*
X0070084Y0080450D01*
X0070021Y0080595D01*
X0069960Y0080740D01*
X0069904Y0080888D01*
X0069851Y0081036D01*
X0069802Y0081186D01*
X0069757Y0081337D01*
X0069716Y0081490D01*
X0069678Y0081643D01*
X0069645Y0081797D01*
X0069615Y0081952D01*
X0069589Y0082107D01*
X0069568Y0082264D01*
X0069550Y0082420D01*
X0069536Y0082577D01*
X0069526Y0082735D01*
X0069520Y0082892D01*
X0069518Y0083050D01*
X0020177Y0033050D02*
X0020179Y0033098D01*
X0020185Y0033146D01*
X0020195Y0033193D01*
X0020208Y0033239D01*
X0020226Y0033284D01*
X0020246Y0033328D01*
X0020271Y0033370D01*
X0020299Y0033409D01*
X0020329Y0033446D01*
X0020363Y0033480D01*
X0020400Y0033512D01*
X0020438Y0033541D01*
X0020479Y0033566D01*
X0020522Y0033588D01*
X0020567Y0033606D01*
X0020613Y0033620D01*
X0020660Y0033631D01*
X0020708Y0033638D01*
X0020756Y0033641D01*
X0020804Y0033640D01*
X0020852Y0033635D01*
X0020900Y0033626D01*
X0020946Y0033614D01*
X0020991Y0033597D01*
X0021035Y0033577D01*
X0021077Y0033554D01*
X0021117Y0033527D01*
X0021155Y0033497D01*
X0021190Y0033464D01*
X0021222Y0033428D01*
X0021252Y0033390D01*
X0021278Y0033349D01*
X0021300Y0033306D01*
X0021320Y0033262D01*
X0021335Y0033217D01*
X0021347Y0033170D01*
X0021355Y0033122D01*
X0021359Y0033074D01*
X0021359Y0033026D01*
X0021355Y0032978D01*
X0021347Y0032930D01*
X0021335Y0032883D01*
X0021320Y0032838D01*
X0021300Y0032794D01*
X0021278Y0032751D01*
X0021252Y0032710D01*
X0021222Y0032672D01*
X0021190Y0032636D01*
X0021155Y0032603D01*
X0021117Y0032573D01*
X0021077Y0032546D01*
X0021035Y0032523D01*
X0020991Y0032503D01*
X0020946Y0032486D01*
X0020900Y0032474D01*
X0020852Y0032465D01*
X0020804Y0032460D01*
X0020756Y0032459D01*
X0020708Y0032462D01*
X0020660Y0032469D01*
X0020613Y0032480D01*
X0020567Y0032494D01*
X0020522Y0032512D01*
X0020479Y0032534D01*
X0020438Y0032559D01*
X0020400Y0032588D01*
X0020363Y0032620D01*
X0020329Y0032654D01*
X0020299Y0032691D01*
X0020271Y0032730D01*
X0020246Y0032772D01*
X0020226Y0032816D01*
X0020208Y0032861D01*
X0020195Y0032907D01*
X0020185Y0032954D01*
X0020179Y0033002D01*
X0020177Y0033050D01*
X0018177Y0033050D02*
X0018179Y0033098D01*
X0018185Y0033146D01*
X0018195Y0033193D01*
X0018208Y0033239D01*
X0018226Y0033284D01*
X0018246Y0033328D01*
X0018271Y0033370D01*
X0018299Y0033409D01*
X0018329Y0033446D01*
X0018363Y0033480D01*
X0018400Y0033512D01*
X0018438Y0033541D01*
X0018479Y0033566D01*
X0018522Y0033588D01*
X0018567Y0033606D01*
X0018613Y0033620D01*
X0018660Y0033631D01*
X0018708Y0033638D01*
X0018756Y0033641D01*
X0018804Y0033640D01*
X0018852Y0033635D01*
X0018900Y0033626D01*
X0018946Y0033614D01*
X0018991Y0033597D01*
X0019035Y0033577D01*
X0019077Y0033554D01*
X0019117Y0033527D01*
X0019155Y0033497D01*
X0019190Y0033464D01*
X0019222Y0033428D01*
X0019252Y0033390D01*
X0019278Y0033349D01*
X0019300Y0033306D01*
X0019320Y0033262D01*
X0019335Y0033217D01*
X0019347Y0033170D01*
X0019355Y0033122D01*
X0019359Y0033074D01*
X0019359Y0033026D01*
X0019355Y0032978D01*
X0019347Y0032930D01*
X0019335Y0032883D01*
X0019320Y0032838D01*
X0019300Y0032794D01*
X0019278Y0032751D01*
X0019252Y0032710D01*
X0019222Y0032672D01*
X0019190Y0032636D01*
X0019155Y0032603D01*
X0019117Y0032573D01*
X0019077Y0032546D01*
X0019035Y0032523D01*
X0018991Y0032503D01*
X0018946Y0032486D01*
X0018900Y0032474D01*
X0018852Y0032465D01*
X0018804Y0032460D01*
X0018756Y0032459D01*
X0018708Y0032462D01*
X0018660Y0032469D01*
X0018613Y0032480D01*
X0018567Y0032494D01*
X0018522Y0032512D01*
X0018479Y0032534D01*
X0018438Y0032559D01*
X0018400Y0032588D01*
X0018363Y0032620D01*
X0018329Y0032654D01*
X0018299Y0032691D01*
X0018271Y0032730D01*
X0018246Y0032772D01*
X0018226Y0032816D01*
X0018208Y0032861D01*
X0018195Y0032907D01*
X0018185Y0032954D01*
X0018179Y0033002D01*
X0018177Y0033050D01*
X0016177Y0033050D02*
X0016179Y0033098D01*
X0016185Y0033146D01*
X0016195Y0033193D01*
X0016208Y0033239D01*
X0016226Y0033284D01*
X0016246Y0033328D01*
X0016271Y0033370D01*
X0016299Y0033409D01*
X0016329Y0033446D01*
X0016363Y0033480D01*
X0016400Y0033512D01*
X0016438Y0033541D01*
X0016479Y0033566D01*
X0016522Y0033588D01*
X0016567Y0033606D01*
X0016613Y0033620D01*
X0016660Y0033631D01*
X0016708Y0033638D01*
X0016756Y0033641D01*
X0016804Y0033640D01*
X0016852Y0033635D01*
X0016900Y0033626D01*
X0016946Y0033614D01*
X0016991Y0033597D01*
X0017035Y0033577D01*
X0017077Y0033554D01*
X0017117Y0033527D01*
X0017155Y0033497D01*
X0017190Y0033464D01*
X0017222Y0033428D01*
X0017252Y0033390D01*
X0017278Y0033349D01*
X0017300Y0033306D01*
X0017320Y0033262D01*
X0017335Y0033217D01*
X0017347Y0033170D01*
X0017355Y0033122D01*
X0017359Y0033074D01*
X0017359Y0033026D01*
X0017355Y0032978D01*
X0017347Y0032930D01*
X0017335Y0032883D01*
X0017320Y0032838D01*
X0017300Y0032794D01*
X0017278Y0032751D01*
X0017252Y0032710D01*
X0017222Y0032672D01*
X0017190Y0032636D01*
X0017155Y0032603D01*
X0017117Y0032573D01*
X0017077Y0032546D01*
X0017035Y0032523D01*
X0016991Y0032503D01*
X0016946Y0032486D01*
X0016900Y0032474D01*
X0016852Y0032465D01*
X0016804Y0032460D01*
X0016756Y0032459D01*
X0016708Y0032462D01*
X0016660Y0032469D01*
X0016613Y0032480D01*
X0016567Y0032494D01*
X0016522Y0032512D01*
X0016479Y0032534D01*
X0016438Y0032559D01*
X0016400Y0032588D01*
X0016363Y0032620D01*
X0016329Y0032654D01*
X0016299Y0032691D01*
X0016271Y0032730D01*
X0016246Y0032772D01*
X0016226Y0032816D01*
X0016208Y0032861D01*
X0016195Y0032907D01*
X0016185Y0032954D01*
X0016179Y0033002D01*
X0016177Y0033050D01*
X0014177Y0033050D02*
X0014179Y0033098D01*
X0014185Y0033146D01*
X0014195Y0033193D01*
X0014208Y0033239D01*
X0014226Y0033284D01*
X0014246Y0033328D01*
X0014271Y0033370D01*
X0014299Y0033409D01*
X0014329Y0033446D01*
X0014363Y0033480D01*
X0014400Y0033512D01*
X0014438Y0033541D01*
X0014479Y0033566D01*
X0014522Y0033588D01*
X0014567Y0033606D01*
X0014613Y0033620D01*
X0014660Y0033631D01*
X0014708Y0033638D01*
X0014756Y0033641D01*
X0014804Y0033640D01*
X0014852Y0033635D01*
X0014900Y0033626D01*
X0014946Y0033614D01*
X0014991Y0033597D01*
X0015035Y0033577D01*
X0015077Y0033554D01*
X0015117Y0033527D01*
X0015155Y0033497D01*
X0015190Y0033464D01*
X0015222Y0033428D01*
X0015252Y0033390D01*
X0015278Y0033349D01*
X0015300Y0033306D01*
X0015320Y0033262D01*
X0015335Y0033217D01*
X0015347Y0033170D01*
X0015355Y0033122D01*
X0015359Y0033074D01*
X0015359Y0033026D01*
X0015355Y0032978D01*
X0015347Y0032930D01*
X0015335Y0032883D01*
X0015320Y0032838D01*
X0015300Y0032794D01*
X0015278Y0032751D01*
X0015252Y0032710D01*
X0015222Y0032672D01*
X0015190Y0032636D01*
X0015155Y0032603D01*
X0015117Y0032573D01*
X0015077Y0032546D01*
X0015035Y0032523D01*
X0014991Y0032503D01*
X0014946Y0032486D01*
X0014900Y0032474D01*
X0014852Y0032465D01*
X0014804Y0032460D01*
X0014756Y0032459D01*
X0014708Y0032462D01*
X0014660Y0032469D01*
X0014613Y0032480D01*
X0014567Y0032494D01*
X0014522Y0032512D01*
X0014479Y0032534D01*
X0014438Y0032559D01*
X0014400Y0032588D01*
X0014363Y0032620D01*
X0014329Y0032654D01*
X0014299Y0032691D01*
X0014271Y0032730D01*
X0014246Y0032772D01*
X0014226Y0032816D01*
X0014208Y0032861D01*
X0014195Y0032907D01*
X0014185Y0032954D01*
X0014179Y0033002D01*
X0014177Y0033050D01*
X0012177Y0033050D02*
X0012179Y0033098D01*
X0012185Y0033146D01*
X0012195Y0033193D01*
X0012208Y0033239D01*
X0012226Y0033284D01*
X0012246Y0033328D01*
X0012271Y0033370D01*
X0012299Y0033409D01*
X0012329Y0033446D01*
X0012363Y0033480D01*
X0012400Y0033512D01*
X0012438Y0033541D01*
X0012479Y0033566D01*
X0012522Y0033588D01*
X0012567Y0033606D01*
X0012613Y0033620D01*
X0012660Y0033631D01*
X0012708Y0033638D01*
X0012756Y0033641D01*
X0012804Y0033640D01*
X0012852Y0033635D01*
X0012900Y0033626D01*
X0012946Y0033614D01*
X0012991Y0033597D01*
X0013035Y0033577D01*
X0013077Y0033554D01*
X0013117Y0033527D01*
X0013155Y0033497D01*
X0013190Y0033464D01*
X0013222Y0033428D01*
X0013252Y0033390D01*
X0013278Y0033349D01*
X0013300Y0033306D01*
X0013320Y0033262D01*
X0013335Y0033217D01*
X0013347Y0033170D01*
X0013355Y0033122D01*
X0013359Y0033074D01*
X0013359Y0033026D01*
X0013355Y0032978D01*
X0013347Y0032930D01*
X0013335Y0032883D01*
X0013320Y0032838D01*
X0013300Y0032794D01*
X0013278Y0032751D01*
X0013252Y0032710D01*
X0013222Y0032672D01*
X0013190Y0032636D01*
X0013155Y0032603D01*
X0013117Y0032573D01*
X0013077Y0032546D01*
X0013035Y0032523D01*
X0012991Y0032503D01*
X0012946Y0032486D01*
X0012900Y0032474D01*
X0012852Y0032465D01*
X0012804Y0032460D01*
X0012756Y0032459D01*
X0012708Y0032462D01*
X0012660Y0032469D01*
X0012613Y0032480D01*
X0012567Y0032494D01*
X0012522Y0032512D01*
X0012479Y0032534D01*
X0012438Y0032559D01*
X0012400Y0032588D01*
X0012363Y0032620D01*
X0012329Y0032654D01*
X0012299Y0032691D01*
X0012271Y0032730D01*
X0012246Y0032772D01*
X0012226Y0032816D01*
X0012208Y0032861D01*
X0012195Y0032907D01*
X0012185Y0032954D01*
X0012179Y0033002D01*
X0012177Y0033050D01*
X0042181Y0142499D02*
X0042183Y0142646D01*
X0042189Y0142792D01*
X0042199Y0142938D01*
X0042213Y0143084D01*
X0042231Y0143230D01*
X0042252Y0143375D01*
X0042278Y0143519D01*
X0042308Y0143663D01*
X0042341Y0143805D01*
X0042378Y0143947D01*
X0042419Y0144088D01*
X0042464Y0144227D01*
X0042513Y0144366D01*
X0042565Y0144503D01*
X0042622Y0144638D01*
X0042681Y0144772D01*
X0042745Y0144904D01*
X0042812Y0145034D01*
X0042882Y0145163D01*
X0042956Y0145290D01*
X0043033Y0145414D01*
X0043114Y0145537D01*
X0043198Y0145657D01*
X0043285Y0145775D01*
X0043375Y0145890D01*
X0043468Y0146003D01*
X0043565Y0146114D01*
X0043664Y0146222D01*
X0043766Y0146327D01*
X0043871Y0146429D01*
X0043979Y0146528D01*
X0044090Y0146625D01*
X0044203Y0146718D01*
X0044318Y0146808D01*
X0044436Y0146895D01*
X0044556Y0146979D01*
X0044679Y0147060D01*
X0044803Y0147137D01*
X0044930Y0147211D01*
X0045059Y0147281D01*
X0045189Y0147348D01*
X0045321Y0147412D01*
X0045455Y0147471D01*
X0045590Y0147528D01*
X0045727Y0147580D01*
X0045866Y0147629D01*
X0046005Y0147674D01*
X0046146Y0147715D01*
X0046288Y0147752D01*
X0046430Y0147785D01*
X0046574Y0147815D01*
X0046718Y0147841D01*
X0046863Y0147862D01*
X0047009Y0147880D01*
X0047155Y0147894D01*
X0047301Y0147904D01*
X0047447Y0147910D01*
X0047594Y0147912D01*
X0047741Y0147910D01*
X0047887Y0147904D01*
X0048033Y0147894D01*
X0048179Y0147880D01*
X0048325Y0147862D01*
X0048470Y0147841D01*
X0048614Y0147815D01*
X0048758Y0147785D01*
X0048900Y0147752D01*
X0049042Y0147715D01*
X0049183Y0147674D01*
X0049322Y0147629D01*
X0049461Y0147580D01*
X0049598Y0147528D01*
X0049733Y0147471D01*
X0049867Y0147412D01*
X0049999Y0147348D01*
X0050129Y0147281D01*
X0050258Y0147211D01*
X0050385Y0147137D01*
X0050509Y0147060D01*
X0050632Y0146979D01*
X0050752Y0146895D01*
X0050870Y0146808D01*
X0050985Y0146718D01*
X0051098Y0146625D01*
X0051209Y0146528D01*
X0051317Y0146429D01*
X0051422Y0146327D01*
X0051524Y0146222D01*
X0051623Y0146114D01*
X0051720Y0146003D01*
X0051813Y0145890D01*
X0051903Y0145775D01*
X0051990Y0145657D01*
X0052074Y0145537D01*
X0052155Y0145414D01*
X0052232Y0145290D01*
X0052306Y0145163D01*
X0052376Y0145034D01*
X0052443Y0144904D01*
X0052507Y0144772D01*
X0052566Y0144638D01*
X0052623Y0144503D01*
X0052675Y0144366D01*
X0052724Y0144227D01*
X0052769Y0144088D01*
X0052810Y0143947D01*
X0052847Y0143805D01*
X0052880Y0143663D01*
X0052910Y0143519D01*
X0052936Y0143375D01*
X0052957Y0143230D01*
X0052975Y0143084D01*
X0052989Y0142938D01*
X0052999Y0142792D01*
X0053005Y0142646D01*
X0053007Y0142499D01*
X0053005Y0142352D01*
X0052999Y0142206D01*
X0052989Y0142060D01*
X0052975Y0141914D01*
X0052957Y0141768D01*
X0052936Y0141623D01*
X0052910Y0141479D01*
X0052880Y0141335D01*
X0052847Y0141193D01*
X0052810Y0141051D01*
X0052769Y0140910D01*
X0052724Y0140771D01*
X0052675Y0140632D01*
X0052623Y0140495D01*
X0052566Y0140360D01*
X0052507Y0140226D01*
X0052443Y0140094D01*
X0052376Y0139964D01*
X0052306Y0139835D01*
X0052232Y0139708D01*
X0052155Y0139584D01*
X0052074Y0139461D01*
X0051990Y0139341D01*
X0051903Y0139223D01*
X0051813Y0139108D01*
X0051720Y0138995D01*
X0051623Y0138884D01*
X0051524Y0138776D01*
X0051422Y0138671D01*
X0051317Y0138569D01*
X0051209Y0138470D01*
X0051098Y0138373D01*
X0050985Y0138280D01*
X0050870Y0138190D01*
X0050752Y0138103D01*
X0050632Y0138019D01*
X0050509Y0137938D01*
X0050385Y0137861D01*
X0050258Y0137787D01*
X0050129Y0137717D01*
X0049999Y0137650D01*
X0049867Y0137586D01*
X0049733Y0137527D01*
X0049598Y0137470D01*
X0049461Y0137418D01*
X0049322Y0137369D01*
X0049183Y0137324D01*
X0049042Y0137283D01*
X0048900Y0137246D01*
X0048758Y0137213D01*
X0048614Y0137183D01*
X0048470Y0137157D01*
X0048325Y0137136D01*
X0048179Y0137118D01*
X0048033Y0137104D01*
X0047887Y0137094D01*
X0047741Y0137088D01*
X0047594Y0137086D01*
X0047447Y0137088D01*
X0047301Y0137094D01*
X0047155Y0137104D01*
X0047009Y0137118D01*
X0046863Y0137136D01*
X0046718Y0137157D01*
X0046574Y0137183D01*
X0046430Y0137213D01*
X0046288Y0137246D01*
X0046146Y0137283D01*
X0046005Y0137324D01*
X0045866Y0137369D01*
X0045727Y0137418D01*
X0045590Y0137470D01*
X0045455Y0137527D01*
X0045321Y0137586D01*
X0045189Y0137650D01*
X0045059Y0137717D01*
X0044930Y0137787D01*
X0044803Y0137861D01*
X0044679Y0137938D01*
X0044556Y0138019D01*
X0044436Y0138103D01*
X0044318Y0138190D01*
X0044203Y0138280D01*
X0044090Y0138373D01*
X0043979Y0138470D01*
X0043871Y0138569D01*
X0043766Y0138671D01*
X0043664Y0138776D01*
X0043565Y0138884D01*
X0043468Y0138995D01*
X0043375Y0139108D01*
X0043285Y0139223D01*
X0043198Y0139341D01*
X0043114Y0139461D01*
X0043033Y0139584D01*
X0042956Y0139708D01*
X0042882Y0139835D01*
X0042812Y0139964D01*
X0042745Y0140094D01*
X0042681Y0140226D01*
X0042622Y0140360D01*
X0042565Y0140495D01*
X0042513Y0140632D01*
X0042464Y0140771D01*
X0042419Y0140910D01*
X0042378Y0141051D01*
X0042341Y0141193D01*
X0042308Y0141335D01*
X0042278Y0141479D01*
X0042252Y0141623D01*
X0042231Y0141768D01*
X0042213Y0141914D01*
X0042199Y0142060D01*
X0042189Y0142206D01*
X0042183Y0142352D01*
X0042181Y0142499D01*
X0042181Y0233050D02*
X0042183Y0233197D01*
X0042189Y0233343D01*
X0042199Y0233489D01*
X0042213Y0233635D01*
X0042231Y0233781D01*
X0042252Y0233926D01*
X0042278Y0234070D01*
X0042308Y0234214D01*
X0042341Y0234356D01*
X0042378Y0234498D01*
X0042419Y0234639D01*
X0042464Y0234778D01*
X0042513Y0234917D01*
X0042565Y0235054D01*
X0042622Y0235189D01*
X0042681Y0235323D01*
X0042745Y0235455D01*
X0042812Y0235585D01*
X0042882Y0235714D01*
X0042956Y0235841D01*
X0043033Y0235965D01*
X0043114Y0236088D01*
X0043198Y0236208D01*
X0043285Y0236326D01*
X0043375Y0236441D01*
X0043468Y0236554D01*
X0043565Y0236665D01*
X0043664Y0236773D01*
X0043766Y0236878D01*
X0043871Y0236980D01*
X0043979Y0237079D01*
X0044090Y0237176D01*
X0044203Y0237269D01*
X0044318Y0237359D01*
X0044436Y0237446D01*
X0044556Y0237530D01*
X0044679Y0237611D01*
X0044803Y0237688D01*
X0044930Y0237762D01*
X0045059Y0237832D01*
X0045189Y0237899D01*
X0045321Y0237963D01*
X0045455Y0238022D01*
X0045590Y0238079D01*
X0045727Y0238131D01*
X0045866Y0238180D01*
X0046005Y0238225D01*
X0046146Y0238266D01*
X0046288Y0238303D01*
X0046430Y0238336D01*
X0046574Y0238366D01*
X0046718Y0238392D01*
X0046863Y0238413D01*
X0047009Y0238431D01*
X0047155Y0238445D01*
X0047301Y0238455D01*
X0047447Y0238461D01*
X0047594Y0238463D01*
X0047741Y0238461D01*
X0047887Y0238455D01*
X0048033Y0238445D01*
X0048179Y0238431D01*
X0048325Y0238413D01*
X0048470Y0238392D01*
X0048614Y0238366D01*
X0048758Y0238336D01*
X0048900Y0238303D01*
X0049042Y0238266D01*
X0049183Y0238225D01*
X0049322Y0238180D01*
X0049461Y0238131D01*
X0049598Y0238079D01*
X0049733Y0238022D01*
X0049867Y0237963D01*
X0049999Y0237899D01*
X0050129Y0237832D01*
X0050258Y0237762D01*
X0050385Y0237688D01*
X0050509Y0237611D01*
X0050632Y0237530D01*
X0050752Y0237446D01*
X0050870Y0237359D01*
X0050985Y0237269D01*
X0051098Y0237176D01*
X0051209Y0237079D01*
X0051317Y0236980D01*
X0051422Y0236878D01*
X0051524Y0236773D01*
X0051623Y0236665D01*
X0051720Y0236554D01*
X0051813Y0236441D01*
X0051903Y0236326D01*
X0051990Y0236208D01*
X0052074Y0236088D01*
X0052155Y0235965D01*
X0052232Y0235841D01*
X0052306Y0235714D01*
X0052376Y0235585D01*
X0052443Y0235455D01*
X0052507Y0235323D01*
X0052566Y0235189D01*
X0052623Y0235054D01*
X0052675Y0234917D01*
X0052724Y0234778D01*
X0052769Y0234639D01*
X0052810Y0234498D01*
X0052847Y0234356D01*
X0052880Y0234214D01*
X0052910Y0234070D01*
X0052936Y0233926D01*
X0052957Y0233781D01*
X0052975Y0233635D01*
X0052989Y0233489D01*
X0052999Y0233343D01*
X0053005Y0233197D01*
X0053007Y0233050D01*
X0053005Y0232903D01*
X0052999Y0232757D01*
X0052989Y0232611D01*
X0052975Y0232465D01*
X0052957Y0232319D01*
X0052936Y0232174D01*
X0052910Y0232030D01*
X0052880Y0231886D01*
X0052847Y0231744D01*
X0052810Y0231602D01*
X0052769Y0231461D01*
X0052724Y0231322D01*
X0052675Y0231183D01*
X0052623Y0231046D01*
X0052566Y0230911D01*
X0052507Y0230777D01*
X0052443Y0230645D01*
X0052376Y0230515D01*
X0052306Y0230386D01*
X0052232Y0230259D01*
X0052155Y0230135D01*
X0052074Y0230012D01*
X0051990Y0229892D01*
X0051903Y0229774D01*
X0051813Y0229659D01*
X0051720Y0229546D01*
X0051623Y0229435D01*
X0051524Y0229327D01*
X0051422Y0229222D01*
X0051317Y0229120D01*
X0051209Y0229021D01*
X0051098Y0228924D01*
X0050985Y0228831D01*
X0050870Y0228741D01*
X0050752Y0228654D01*
X0050632Y0228570D01*
X0050509Y0228489D01*
X0050385Y0228412D01*
X0050258Y0228338D01*
X0050129Y0228268D01*
X0049999Y0228201D01*
X0049867Y0228137D01*
X0049733Y0228078D01*
X0049598Y0228021D01*
X0049461Y0227969D01*
X0049322Y0227920D01*
X0049183Y0227875D01*
X0049042Y0227834D01*
X0048900Y0227797D01*
X0048758Y0227764D01*
X0048614Y0227734D01*
X0048470Y0227708D01*
X0048325Y0227687D01*
X0048179Y0227669D01*
X0048033Y0227655D01*
X0047887Y0227645D01*
X0047741Y0227639D01*
X0047594Y0227637D01*
X0047447Y0227639D01*
X0047301Y0227645D01*
X0047155Y0227655D01*
X0047009Y0227669D01*
X0046863Y0227687D01*
X0046718Y0227708D01*
X0046574Y0227734D01*
X0046430Y0227764D01*
X0046288Y0227797D01*
X0046146Y0227834D01*
X0046005Y0227875D01*
X0045866Y0227920D01*
X0045727Y0227969D01*
X0045590Y0228021D01*
X0045455Y0228078D01*
X0045321Y0228137D01*
X0045189Y0228201D01*
X0045059Y0228268D01*
X0044930Y0228338D01*
X0044803Y0228412D01*
X0044679Y0228489D01*
X0044556Y0228570D01*
X0044436Y0228654D01*
X0044318Y0228741D01*
X0044203Y0228831D01*
X0044090Y0228924D01*
X0043979Y0229021D01*
X0043871Y0229120D01*
X0043766Y0229222D01*
X0043664Y0229327D01*
X0043565Y0229435D01*
X0043468Y0229546D01*
X0043375Y0229659D01*
X0043285Y0229774D01*
X0043198Y0229892D01*
X0043114Y0230012D01*
X0043033Y0230135D01*
X0042956Y0230259D01*
X0042882Y0230386D01*
X0042812Y0230515D01*
X0042745Y0230645D01*
X0042681Y0230777D01*
X0042622Y0230911D01*
X0042565Y0231046D01*
X0042513Y0231183D01*
X0042464Y0231322D01*
X0042419Y0231461D01*
X0042378Y0231602D01*
X0042341Y0231744D01*
X0042308Y0231886D01*
X0042278Y0232030D01*
X0042252Y0232174D01*
X0042231Y0232319D01*
X0042213Y0232465D01*
X0042199Y0232611D01*
X0042189Y0232757D01*
X0042183Y0232903D01*
X0042181Y0233050D01*
X0069518Y0283050D02*
X0069520Y0283208D01*
X0069526Y0283365D01*
X0069536Y0283523D01*
X0069550Y0283680D01*
X0069568Y0283836D01*
X0069589Y0283993D01*
X0069615Y0284148D01*
X0069645Y0284303D01*
X0069678Y0284457D01*
X0069716Y0284610D01*
X0069757Y0284763D01*
X0069802Y0284914D01*
X0069851Y0285064D01*
X0069904Y0285212D01*
X0069960Y0285360D01*
X0070021Y0285505D01*
X0070084Y0285650D01*
X0070152Y0285792D01*
X0070223Y0285933D01*
X0070297Y0286072D01*
X0070375Y0286209D01*
X0070457Y0286344D01*
X0070541Y0286477D01*
X0070630Y0286608D01*
X0070721Y0286736D01*
X0070816Y0286863D01*
X0070913Y0286986D01*
X0071014Y0287108D01*
X0071118Y0287226D01*
X0071225Y0287342D01*
X0071335Y0287455D01*
X0071447Y0287566D01*
X0071563Y0287673D01*
X0071681Y0287778D01*
X0071801Y0287880D01*
X0071924Y0287978D01*
X0072050Y0288074D01*
X0072178Y0288166D01*
X0072308Y0288255D01*
X0072440Y0288341D01*
X0072575Y0288423D01*
X0072712Y0288502D01*
X0072850Y0288577D01*
X0072990Y0288649D01*
X0073133Y0288717D01*
X0073276Y0288782D01*
X0073422Y0288843D01*
X0073569Y0288900D01*
X0073717Y0288954D01*
X0073867Y0289004D01*
X0074017Y0289050D01*
X0074169Y0289092D01*
X0074322Y0289131D01*
X0074476Y0289165D01*
X0074631Y0289196D01*
X0074786Y0289222D01*
X0074942Y0289245D01*
X0075099Y0289264D01*
X0075256Y0289279D01*
X0075413Y0289290D01*
X0075571Y0289297D01*
X0075729Y0289300D01*
X0075886Y0289299D01*
X0076044Y0289294D01*
X0076201Y0289285D01*
X0076359Y0289272D01*
X0076515Y0289255D01*
X0076672Y0289234D01*
X0076827Y0289210D01*
X0076982Y0289181D01*
X0077137Y0289148D01*
X0077290Y0289112D01*
X0077443Y0289071D01*
X0077594Y0289027D01*
X0077744Y0288979D01*
X0077893Y0288928D01*
X0078041Y0288872D01*
X0078187Y0288813D01*
X0078332Y0288750D01*
X0078475Y0288683D01*
X0078616Y0288613D01*
X0078755Y0288540D01*
X0078893Y0288463D01*
X0079029Y0288382D01*
X0079162Y0288298D01*
X0079293Y0288211D01*
X0079422Y0288120D01*
X0079549Y0288026D01*
X0079674Y0287929D01*
X0079795Y0287829D01*
X0079915Y0287726D01*
X0080031Y0287620D01*
X0080145Y0287511D01*
X0080257Y0287399D01*
X0080365Y0287285D01*
X0080470Y0287167D01*
X0080573Y0287047D01*
X0080672Y0286925D01*
X0080768Y0286800D01*
X0080861Y0286672D01*
X0080951Y0286543D01*
X0081037Y0286411D01*
X0081121Y0286277D01*
X0081200Y0286141D01*
X0081277Y0286003D01*
X0081349Y0285863D01*
X0081418Y0285721D01*
X0081484Y0285578D01*
X0081546Y0285433D01*
X0081604Y0285286D01*
X0081659Y0285138D01*
X0081710Y0284989D01*
X0081757Y0284838D01*
X0081800Y0284687D01*
X0081839Y0284534D01*
X0081875Y0284380D01*
X0081906Y0284226D01*
X0081934Y0284071D01*
X0081958Y0283915D01*
X0081978Y0283758D01*
X0081994Y0283601D01*
X0082006Y0283444D01*
X0082014Y0283287D01*
X0082018Y0283129D01*
X0082018Y0282971D01*
X0082014Y0282813D01*
X0082006Y0282656D01*
X0081994Y0282499D01*
X0081978Y0282342D01*
X0081958Y0282185D01*
X0081934Y0282029D01*
X0081906Y0281874D01*
X0081875Y0281720D01*
X0081839Y0281566D01*
X0081800Y0281413D01*
X0081757Y0281262D01*
X0081710Y0281111D01*
X0081659Y0280962D01*
X0081604Y0280814D01*
X0081546Y0280667D01*
X0081484Y0280522D01*
X0081418Y0280379D01*
X0081349Y0280237D01*
X0081277Y0280097D01*
X0081200Y0279959D01*
X0081121Y0279823D01*
X0081037Y0279689D01*
X0080951Y0279557D01*
X0080861Y0279428D01*
X0080768Y0279300D01*
X0080672Y0279175D01*
X0080573Y0279053D01*
X0080470Y0278933D01*
X0080365Y0278815D01*
X0080257Y0278701D01*
X0080145Y0278589D01*
X0080031Y0278480D01*
X0079915Y0278374D01*
X0079795Y0278271D01*
X0079674Y0278171D01*
X0079549Y0278074D01*
X0079422Y0277980D01*
X0079293Y0277889D01*
X0079162Y0277802D01*
X0079029Y0277718D01*
X0078893Y0277637D01*
X0078755Y0277560D01*
X0078616Y0277487D01*
X0078475Y0277417D01*
X0078332Y0277350D01*
X0078187Y0277287D01*
X0078041Y0277228D01*
X0077893Y0277172D01*
X0077744Y0277121D01*
X0077594Y0277073D01*
X0077443Y0277029D01*
X0077290Y0276988D01*
X0077137Y0276952D01*
X0076982Y0276919D01*
X0076827Y0276890D01*
X0076672Y0276866D01*
X0076515Y0276845D01*
X0076359Y0276828D01*
X0076201Y0276815D01*
X0076044Y0276806D01*
X0075886Y0276801D01*
X0075729Y0276800D01*
X0075571Y0276803D01*
X0075413Y0276810D01*
X0075256Y0276821D01*
X0075099Y0276836D01*
X0074942Y0276855D01*
X0074786Y0276878D01*
X0074631Y0276904D01*
X0074476Y0276935D01*
X0074322Y0276969D01*
X0074169Y0277008D01*
X0074017Y0277050D01*
X0073867Y0277096D01*
X0073717Y0277146D01*
X0073569Y0277200D01*
X0073422Y0277257D01*
X0073276Y0277318D01*
X0073133Y0277383D01*
X0072990Y0277451D01*
X0072850Y0277523D01*
X0072712Y0277598D01*
X0072575Y0277677D01*
X0072440Y0277759D01*
X0072308Y0277845D01*
X0072178Y0277934D01*
X0072050Y0278026D01*
X0071924Y0278122D01*
X0071801Y0278220D01*
X0071681Y0278322D01*
X0071563Y0278427D01*
X0071447Y0278534D01*
X0071335Y0278645D01*
X0071225Y0278758D01*
X0071118Y0278874D01*
X0071014Y0278992D01*
X0070913Y0279114D01*
X0070816Y0279237D01*
X0070721Y0279364D01*
X0070630Y0279492D01*
X0070541Y0279623D01*
X0070457Y0279756D01*
X0070375Y0279891D01*
X0070297Y0280028D01*
X0070223Y0280167D01*
X0070152Y0280308D01*
X0070084Y0280450D01*
X0070021Y0280595D01*
X0069960Y0280740D01*
X0069904Y0280888D01*
X0069851Y0281036D01*
X0069802Y0281186D01*
X0069757Y0281337D01*
X0069716Y0281490D01*
X0069678Y0281643D01*
X0069645Y0281797D01*
X0069615Y0281952D01*
X0069589Y0282107D01*
X0069568Y0282264D01*
X0069550Y0282420D01*
X0069536Y0282577D01*
X0069526Y0282735D01*
X0069520Y0282892D01*
X0069518Y0283050D01*
X0115744Y0266121D02*
X0115746Y0266282D01*
X0115752Y0266442D01*
X0115762Y0266603D01*
X0115776Y0266763D01*
X0115794Y0266922D01*
X0115815Y0267082D01*
X0115841Y0267240D01*
X0115871Y0267398D01*
X0115904Y0267555D01*
X0115942Y0267712D01*
X0115983Y0267867D01*
X0116028Y0268021D01*
X0116077Y0268174D01*
X0116130Y0268326D01*
X0116186Y0268476D01*
X0116246Y0268625D01*
X0116310Y0268773D01*
X0116377Y0268919D01*
X0116448Y0269063D01*
X0116523Y0269205D01*
X0116601Y0269346D01*
X0116682Y0269484D01*
X0116767Y0269621D01*
X0116856Y0269755D01*
X0116947Y0269887D01*
X0117042Y0270017D01*
X0117140Y0270144D01*
X0117241Y0270269D01*
X0117345Y0270392D01*
X0117452Y0270511D01*
X0117562Y0270628D01*
X0117675Y0270743D01*
X0117791Y0270854D01*
X0117909Y0270963D01*
X0118030Y0271068D01*
X0118154Y0271171D01*
X0118280Y0271271D01*
X0118409Y0271367D01*
X0118540Y0271460D01*
X0118673Y0271550D01*
X0118808Y0271637D01*
X0118946Y0271720D01*
X0119085Y0271799D01*
X0119227Y0271876D01*
X0119370Y0271949D01*
X0119515Y0272018D01*
X0119662Y0272083D01*
X0119810Y0272145D01*
X0119960Y0272204D01*
X0120111Y0272258D01*
X0120263Y0272309D01*
X0120417Y0272356D01*
X0120572Y0272399D01*
X0120727Y0272438D01*
X0120884Y0272474D01*
X0121042Y0272506D01*
X0121200Y0272533D01*
X0121359Y0272557D01*
X0121518Y0272577D01*
X0121678Y0272593D01*
X0121839Y0272605D01*
X0121999Y0272613D01*
X0122160Y0272617D01*
X0122320Y0272617D01*
X0122481Y0272613D01*
X0122641Y0272605D01*
X0122802Y0272593D01*
X0122962Y0272577D01*
X0123121Y0272557D01*
X0123280Y0272533D01*
X0123438Y0272506D01*
X0123596Y0272474D01*
X0123753Y0272438D01*
X0123908Y0272399D01*
X0124063Y0272356D01*
X0124217Y0272309D01*
X0124369Y0272258D01*
X0124520Y0272204D01*
X0124670Y0272145D01*
X0124818Y0272083D01*
X0124965Y0272018D01*
X0125110Y0271949D01*
X0125253Y0271876D01*
X0125395Y0271799D01*
X0125534Y0271720D01*
X0125672Y0271637D01*
X0125807Y0271550D01*
X0125940Y0271460D01*
X0126071Y0271367D01*
X0126200Y0271271D01*
X0126326Y0271171D01*
X0126450Y0271068D01*
X0126571Y0270963D01*
X0126689Y0270854D01*
X0126805Y0270743D01*
X0126918Y0270628D01*
X0127028Y0270511D01*
X0127135Y0270392D01*
X0127239Y0270269D01*
X0127340Y0270144D01*
X0127438Y0270017D01*
X0127533Y0269887D01*
X0127624Y0269755D01*
X0127713Y0269621D01*
X0127798Y0269484D01*
X0127879Y0269346D01*
X0127957Y0269205D01*
X0128032Y0269063D01*
X0128103Y0268919D01*
X0128170Y0268773D01*
X0128234Y0268625D01*
X0128294Y0268476D01*
X0128350Y0268326D01*
X0128403Y0268174D01*
X0128452Y0268021D01*
X0128497Y0267867D01*
X0128538Y0267712D01*
X0128576Y0267555D01*
X0128609Y0267398D01*
X0128639Y0267240D01*
X0128665Y0267082D01*
X0128686Y0266922D01*
X0128704Y0266763D01*
X0128718Y0266603D01*
X0128728Y0266442D01*
X0128734Y0266282D01*
X0128736Y0266121D01*
X0128734Y0265960D01*
X0128728Y0265800D01*
X0128718Y0265639D01*
X0128704Y0265479D01*
X0128686Y0265320D01*
X0128665Y0265160D01*
X0128639Y0265002D01*
X0128609Y0264844D01*
X0128576Y0264687D01*
X0128538Y0264530D01*
X0128497Y0264375D01*
X0128452Y0264221D01*
X0128403Y0264068D01*
X0128350Y0263916D01*
X0128294Y0263766D01*
X0128234Y0263617D01*
X0128170Y0263469D01*
X0128103Y0263323D01*
X0128032Y0263179D01*
X0127957Y0263037D01*
X0127879Y0262896D01*
X0127798Y0262758D01*
X0127713Y0262621D01*
X0127624Y0262487D01*
X0127533Y0262355D01*
X0127438Y0262225D01*
X0127340Y0262098D01*
X0127239Y0261973D01*
X0127135Y0261850D01*
X0127028Y0261731D01*
X0126918Y0261614D01*
X0126805Y0261499D01*
X0126689Y0261388D01*
X0126571Y0261279D01*
X0126450Y0261174D01*
X0126326Y0261071D01*
X0126200Y0260971D01*
X0126071Y0260875D01*
X0125940Y0260782D01*
X0125807Y0260692D01*
X0125672Y0260605D01*
X0125534Y0260522D01*
X0125395Y0260443D01*
X0125253Y0260366D01*
X0125110Y0260293D01*
X0124965Y0260224D01*
X0124818Y0260159D01*
X0124670Y0260097D01*
X0124520Y0260038D01*
X0124369Y0259984D01*
X0124217Y0259933D01*
X0124063Y0259886D01*
X0123908Y0259843D01*
X0123753Y0259804D01*
X0123596Y0259768D01*
X0123438Y0259736D01*
X0123280Y0259709D01*
X0123121Y0259685D01*
X0122962Y0259665D01*
X0122802Y0259649D01*
X0122641Y0259637D01*
X0122481Y0259629D01*
X0122320Y0259625D01*
X0122160Y0259625D01*
X0121999Y0259629D01*
X0121839Y0259637D01*
X0121678Y0259649D01*
X0121518Y0259665D01*
X0121359Y0259685D01*
X0121200Y0259709D01*
X0121042Y0259736D01*
X0120884Y0259768D01*
X0120727Y0259804D01*
X0120572Y0259843D01*
X0120417Y0259886D01*
X0120263Y0259933D01*
X0120111Y0259984D01*
X0119960Y0260038D01*
X0119810Y0260097D01*
X0119662Y0260159D01*
X0119515Y0260224D01*
X0119370Y0260293D01*
X0119227Y0260366D01*
X0119085Y0260443D01*
X0118946Y0260522D01*
X0118808Y0260605D01*
X0118673Y0260692D01*
X0118540Y0260782D01*
X0118409Y0260875D01*
X0118280Y0260971D01*
X0118154Y0261071D01*
X0118030Y0261174D01*
X0117909Y0261279D01*
X0117791Y0261388D01*
X0117675Y0261499D01*
X0117562Y0261614D01*
X0117452Y0261731D01*
X0117345Y0261850D01*
X0117241Y0261973D01*
X0117140Y0262098D01*
X0117042Y0262225D01*
X0116947Y0262355D01*
X0116856Y0262487D01*
X0116767Y0262621D01*
X0116682Y0262758D01*
X0116601Y0262896D01*
X0116523Y0263037D01*
X0116448Y0263179D01*
X0116377Y0263323D01*
X0116310Y0263469D01*
X0116246Y0263617D01*
X0116186Y0263766D01*
X0116130Y0263916D01*
X0116077Y0264068D01*
X0116028Y0264221D01*
X0115983Y0264375D01*
X0115942Y0264530D01*
X0115904Y0264687D01*
X0115871Y0264844D01*
X0115841Y0265002D01*
X0115815Y0265160D01*
X0115794Y0265320D01*
X0115776Y0265479D01*
X0115762Y0265639D01*
X0115752Y0265800D01*
X0115746Y0265960D01*
X0115744Y0266121D01*
X0020177Y0333050D02*
X0020179Y0333098D01*
X0020185Y0333146D01*
X0020195Y0333193D01*
X0020208Y0333239D01*
X0020226Y0333284D01*
X0020246Y0333328D01*
X0020271Y0333370D01*
X0020299Y0333409D01*
X0020329Y0333446D01*
X0020363Y0333480D01*
X0020400Y0333512D01*
X0020438Y0333541D01*
X0020479Y0333566D01*
X0020522Y0333588D01*
X0020567Y0333606D01*
X0020613Y0333620D01*
X0020660Y0333631D01*
X0020708Y0333638D01*
X0020756Y0333641D01*
X0020804Y0333640D01*
X0020852Y0333635D01*
X0020900Y0333626D01*
X0020946Y0333614D01*
X0020991Y0333597D01*
X0021035Y0333577D01*
X0021077Y0333554D01*
X0021117Y0333527D01*
X0021155Y0333497D01*
X0021190Y0333464D01*
X0021222Y0333428D01*
X0021252Y0333390D01*
X0021278Y0333349D01*
X0021300Y0333306D01*
X0021320Y0333262D01*
X0021335Y0333217D01*
X0021347Y0333170D01*
X0021355Y0333122D01*
X0021359Y0333074D01*
X0021359Y0333026D01*
X0021355Y0332978D01*
X0021347Y0332930D01*
X0021335Y0332883D01*
X0021320Y0332838D01*
X0021300Y0332794D01*
X0021278Y0332751D01*
X0021252Y0332710D01*
X0021222Y0332672D01*
X0021190Y0332636D01*
X0021155Y0332603D01*
X0021117Y0332573D01*
X0021077Y0332546D01*
X0021035Y0332523D01*
X0020991Y0332503D01*
X0020946Y0332486D01*
X0020900Y0332474D01*
X0020852Y0332465D01*
X0020804Y0332460D01*
X0020756Y0332459D01*
X0020708Y0332462D01*
X0020660Y0332469D01*
X0020613Y0332480D01*
X0020567Y0332494D01*
X0020522Y0332512D01*
X0020479Y0332534D01*
X0020438Y0332559D01*
X0020400Y0332588D01*
X0020363Y0332620D01*
X0020329Y0332654D01*
X0020299Y0332691D01*
X0020271Y0332730D01*
X0020246Y0332772D01*
X0020226Y0332816D01*
X0020208Y0332861D01*
X0020195Y0332907D01*
X0020185Y0332954D01*
X0020179Y0333002D01*
X0020177Y0333050D01*
X0018177Y0333050D02*
X0018179Y0333098D01*
X0018185Y0333146D01*
X0018195Y0333193D01*
X0018208Y0333239D01*
X0018226Y0333284D01*
X0018246Y0333328D01*
X0018271Y0333370D01*
X0018299Y0333409D01*
X0018329Y0333446D01*
X0018363Y0333480D01*
X0018400Y0333512D01*
X0018438Y0333541D01*
X0018479Y0333566D01*
X0018522Y0333588D01*
X0018567Y0333606D01*
X0018613Y0333620D01*
X0018660Y0333631D01*
X0018708Y0333638D01*
X0018756Y0333641D01*
X0018804Y0333640D01*
X0018852Y0333635D01*
X0018900Y0333626D01*
X0018946Y0333614D01*
X0018991Y0333597D01*
X0019035Y0333577D01*
X0019077Y0333554D01*
X0019117Y0333527D01*
X0019155Y0333497D01*
X0019190Y0333464D01*
X0019222Y0333428D01*
X0019252Y0333390D01*
X0019278Y0333349D01*
X0019300Y0333306D01*
X0019320Y0333262D01*
X0019335Y0333217D01*
X0019347Y0333170D01*
X0019355Y0333122D01*
X0019359Y0333074D01*
X0019359Y0333026D01*
X0019355Y0332978D01*
X0019347Y0332930D01*
X0019335Y0332883D01*
X0019320Y0332838D01*
X0019300Y0332794D01*
X0019278Y0332751D01*
X0019252Y0332710D01*
X0019222Y0332672D01*
X0019190Y0332636D01*
X0019155Y0332603D01*
X0019117Y0332573D01*
X0019077Y0332546D01*
X0019035Y0332523D01*
X0018991Y0332503D01*
X0018946Y0332486D01*
X0018900Y0332474D01*
X0018852Y0332465D01*
X0018804Y0332460D01*
X0018756Y0332459D01*
X0018708Y0332462D01*
X0018660Y0332469D01*
X0018613Y0332480D01*
X0018567Y0332494D01*
X0018522Y0332512D01*
X0018479Y0332534D01*
X0018438Y0332559D01*
X0018400Y0332588D01*
X0018363Y0332620D01*
X0018329Y0332654D01*
X0018299Y0332691D01*
X0018271Y0332730D01*
X0018246Y0332772D01*
X0018226Y0332816D01*
X0018208Y0332861D01*
X0018195Y0332907D01*
X0018185Y0332954D01*
X0018179Y0333002D01*
X0018177Y0333050D01*
X0016177Y0333050D02*
X0016179Y0333098D01*
X0016185Y0333146D01*
X0016195Y0333193D01*
X0016208Y0333239D01*
X0016226Y0333284D01*
X0016246Y0333328D01*
X0016271Y0333370D01*
X0016299Y0333409D01*
X0016329Y0333446D01*
X0016363Y0333480D01*
X0016400Y0333512D01*
X0016438Y0333541D01*
X0016479Y0333566D01*
X0016522Y0333588D01*
X0016567Y0333606D01*
X0016613Y0333620D01*
X0016660Y0333631D01*
X0016708Y0333638D01*
X0016756Y0333641D01*
X0016804Y0333640D01*
X0016852Y0333635D01*
X0016900Y0333626D01*
X0016946Y0333614D01*
X0016991Y0333597D01*
X0017035Y0333577D01*
X0017077Y0333554D01*
X0017117Y0333527D01*
X0017155Y0333497D01*
X0017190Y0333464D01*
X0017222Y0333428D01*
X0017252Y0333390D01*
X0017278Y0333349D01*
X0017300Y0333306D01*
X0017320Y0333262D01*
X0017335Y0333217D01*
X0017347Y0333170D01*
X0017355Y0333122D01*
X0017359Y0333074D01*
X0017359Y0333026D01*
X0017355Y0332978D01*
X0017347Y0332930D01*
X0017335Y0332883D01*
X0017320Y0332838D01*
X0017300Y0332794D01*
X0017278Y0332751D01*
X0017252Y0332710D01*
X0017222Y0332672D01*
X0017190Y0332636D01*
X0017155Y0332603D01*
X0017117Y0332573D01*
X0017077Y0332546D01*
X0017035Y0332523D01*
X0016991Y0332503D01*
X0016946Y0332486D01*
X0016900Y0332474D01*
X0016852Y0332465D01*
X0016804Y0332460D01*
X0016756Y0332459D01*
X0016708Y0332462D01*
X0016660Y0332469D01*
X0016613Y0332480D01*
X0016567Y0332494D01*
X0016522Y0332512D01*
X0016479Y0332534D01*
X0016438Y0332559D01*
X0016400Y0332588D01*
X0016363Y0332620D01*
X0016329Y0332654D01*
X0016299Y0332691D01*
X0016271Y0332730D01*
X0016246Y0332772D01*
X0016226Y0332816D01*
X0016208Y0332861D01*
X0016195Y0332907D01*
X0016185Y0332954D01*
X0016179Y0333002D01*
X0016177Y0333050D01*
X0014177Y0333050D02*
X0014179Y0333098D01*
X0014185Y0333146D01*
X0014195Y0333193D01*
X0014208Y0333239D01*
X0014226Y0333284D01*
X0014246Y0333328D01*
X0014271Y0333370D01*
X0014299Y0333409D01*
X0014329Y0333446D01*
X0014363Y0333480D01*
X0014400Y0333512D01*
X0014438Y0333541D01*
X0014479Y0333566D01*
X0014522Y0333588D01*
X0014567Y0333606D01*
X0014613Y0333620D01*
X0014660Y0333631D01*
X0014708Y0333638D01*
X0014756Y0333641D01*
X0014804Y0333640D01*
X0014852Y0333635D01*
X0014900Y0333626D01*
X0014946Y0333614D01*
X0014991Y0333597D01*
X0015035Y0333577D01*
X0015077Y0333554D01*
X0015117Y0333527D01*
X0015155Y0333497D01*
X0015190Y0333464D01*
X0015222Y0333428D01*
X0015252Y0333390D01*
X0015278Y0333349D01*
X0015300Y0333306D01*
X0015320Y0333262D01*
X0015335Y0333217D01*
X0015347Y0333170D01*
X0015355Y0333122D01*
X0015359Y0333074D01*
X0015359Y0333026D01*
X0015355Y0332978D01*
X0015347Y0332930D01*
X0015335Y0332883D01*
X0015320Y0332838D01*
X0015300Y0332794D01*
X0015278Y0332751D01*
X0015252Y0332710D01*
X0015222Y0332672D01*
X0015190Y0332636D01*
X0015155Y0332603D01*
X0015117Y0332573D01*
X0015077Y0332546D01*
X0015035Y0332523D01*
X0014991Y0332503D01*
X0014946Y0332486D01*
X0014900Y0332474D01*
X0014852Y0332465D01*
X0014804Y0332460D01*
X0014756Y0332459D01*
X0014708Y0332462D01*
X0014660Y0332469D01*
X0014613Y0332480D01*
X0014567Y0332494D01*
X0014522Y0332512D01*
X0014479Y0332534D01*
X0014438Y0332559D01*
X0014400Y0332588D01*
X0014363Y0332620D01*
X0014329Y0332654D01*
X0014299Y0332691D01*
X0014271Y0332730D01*
X0014246Y0332772D01*
X0014226Y0332816D01*
X0014208Y0332861D01*
X0014195Y0332907D01*
X0014185Y0332954D01*
X0014179Y0333002D01*
X0014177Y0333050D01*
X0012177Y0333050D02*
X0012179Y0333098D01*
X0012185Y0333146D01*
X0012195Y0333193D01*
X0012208Y0333239D01*
X0012226Y0333284D01*
X0012246Y0333328D01*
X0012271Y0333370D01*
X0012299Y0333409D01*
X0012329Y0333446D01*
X0012363Y0333480D01*
X0012400Y0333512D01*
X0012438Y0333541D01*
X0012479Y0333566D01*
X0012522Y0333588D01*
X0012567Y0333606D01*
X0012613Y0333620D01*
X0012660Y0333631D01*
X0012708Y0333638D01*
X0012756Y0333641D01*
X0012804Y0333640D01*
X0012852Y0333635D01*
X0012900Y0333626D01*
X0012946Y0333614D01*
X0012991Y0333597D01*
X0013035Y0333577D01*
X0013077Y0333554D01*
X0013117Y0333527D01*
X0013155Y0333497D01*
X0013190Y0333464D01*
X0013222Y0333428D01*
X0013252Y0333390D01*
X0013278Y0333349D01*
X0013300Y0333306D01*
X0013320Y0333262D01*
X0013335Y0333217D01*
X0013347Y0333170D01*
X0013355Y0333122D01*
X0013359Y0333074D01*
X0013359Y0333026D01*
X0013355Y0332978D01*
X0013347Y0332930D01*
X0013335Y0332883D01*
X0013320Y0332838D01*
X0013300Y0332794D01*
X0013278Y0332751D01*
X0013252Y0332710D01*
X0013222Y0332672D01*
X0013190Y0332636D01*
X0013155Y0332603D01*
X0013117Y0332573D01*
X0013077Y0332546D01*
X0013035Y0332523D01*
X0012991Y0332503D01*
X0012946Y0332486D01*
X0012900Y0332474D01*
X0012852Y0332465D01*
X0012804Y0332460D01*
X0012756Y0332459D01*
X0012708Y0332462D01*
X0012660Y0332469D01*
X0012613Y0332480D01*
X0012567Y0332494D01*
X0012522Y0332512D01*
X0012479Y0332534D01*
X0012438Y0332559D01*
X0012400Y0332588D01*
X0012363Y0332620D01*
X0012329Y0332654D01*
X0012299Y0332691D01*
X0012271Y0332730D01*
X0012246Y0332772D01*
X0012226Y0332816D01*
X0012208Y0332861D01*
X0012195Y0332907D01*
X0012185Y0332954D01*
X0012179Y0333002D01*
X0012177Y0333050D01*
M02*
