%TF.GenerationSoftware,KiCad,Pcbnew,(5.1.8)-1*%
%TF.CreationDate,2020-12-22T12:44:13-05:00*%
%TF.ProjectId,uratt,75726174-742e-46b6-9963-61645f706362,rev?*%
%TF.SameCoordinates,Original*%
%TF.FileFunction,Profile,NP*%
%FSLAX46Y46*%
G04 Gerber Fmt 4.6, Leading zero omitted, Abs format (unit mm)*
G04 Created by KiCad (PCBNEW (5.1.8)-1) date 2020-12-22 12:44:13*
%MOMM*%
%LPD*%
G01*
G04 APERTURE LIST*
%TA.AperFunction,Profile*%
%ADD10C,0.100000*%
%TD*%
G04 APERTURE END LIST*
D10*
X44450000Y-88000000D02*
G75*
G02*
X48450000Y-88000000I2000000J0D01*
G01*
X48450000Y-94000000D02*
X48450000Y-88000000D01*
X44450000Y-94000000D02*
X44450000Y-94000000D01*
X44450000Y-94000000D02*
X44450000Y-88000000D01*
X48450000Y-94000000D02*
X60960000Y-94000000D01*
X42146000Y-113750000D02*
G75*
G02*
X41146000Y-114750000I-1000000J0D01*
G01*
X41146000Y-101250000D02*
G75*
G02*
X42146000Y-102250000I0J-1000000D01*
G01*
X37592000Y-94000000D02*
G75*
G02*
X37592000Y-96000000I0J-1000000D01*
G01*
X41632000Y-96000000D02*
G75*
G02*
X41632000Y-94000000I0J1000000D01*
G01*
X60960000Y-94000000D02*
G75*
G02*
X60960000Y-96000000I0J-1000000D01*
G01*
X65000000Y-96000000D02*
G75*
G02*
X65000000Y-94000000I0J1000000D01*
G01*
X82320000Y-94000000D02*
G75*
G02*
X82320000Y-96000000I0J-1000000D01*
G01*
X86360000Y-96000000D02*
G75*
G02*
X86360000Y-94000000I0J1000000D01*
G01*
X87146000Y-96000000D02*
X86360000Y-96000000D01*
X65000000Y-96000000D02*
X82320000Y-96000000D01*
X41632000Y-96000000D02*
X60960000Y-96000000D01*
X37145999Y-96000000D02*
X37592000Y-96000000D01*
X87146000Y-94000000D02*
X86360000Y-94000000D01*
X65000000Y-94000000D02*
X82320000Y-94000000D01*
X41632000Y-94000000D02*
X44450000Y-94000000D01*
X25146000Y-94000000D02*
X37592000Y-94000000D01*
X87146000Y-96000000D02*
X87146000Y-120000000D01*
X87146000Y-120000000D02*
X37146000Y-120000000D01*
X37146000Y-101250000D02*
X37145999Y-96000000D01*
X41146000Y-101250000D02*
X37146000Y-101250000D01*
X42146000Y-113750000D02*
X42146000Y-102250000D01*
X37146000Y-114750000D02*
X41146000Y-114750000D01*
X37146000Y-120000000D02*
X37146000Y-114750000D01*
X83896000Y-73080002D02*
X87146000Y-73080002D01*
X83896000Y-83080002D02*
G75*
G02*
X83896000Y-73080002I0J5000000D01*
G01*
X87146000Y-94000000D02*
X87146000Y-83080001D01*
X25146000Y-75080001D02*
X25146000Y-94000000D01*
X28396000Y-65080001D02*
G75*
G02*
X28396000Y-75080001I0J-5000000D01*
G01*
X56146000Y-22580001D02*
X40145999Y-22580001D01*
X87146000Y-42080001D02*
X83896000Y-42080001D01*
X83896000Y-42080002D02*
G75*
G02*
X78896000Y-37080002I0J5000000D01*
G01*
X87146000Y-73080002D02*
X87146000Y-42080001D01*
X87146000Y-83080001D02*
X83896000Y-83080001D01*
X28396000Y-75080001D02*
X25146000Y-75080001D01*
X28395998Y-39080001D02*
G75*
G02*
X28396000Y-49080001I1J-5000000D01*
G01*
X40145999Y-22580001D02*
X25146000Y-37580001D01*
X28396000Y-49080001D02*
X25146000Y-49080001D01*
X25146000Y-39080001D02*
X28396000Y-39080001D01*
X25146000Y-37580001D02*
X25146000Y-39080001D01*
X78896000Y-22580001D02*
X56146000Y-22580001D01*
X78896000Y-37080001D02*
X78896000Y-22580001D01*
X25146000Y-65080001D02*
X28396000Y-65080001D01*
X25146000Y-49080001D02*
X25146000Y-65080001D01*
M02*
