M48
; DRILL file {KiCad (5.1.0)-1} date 3/23/2019 10:06:03 AM
; FORMAT={-:-/ absolute / inch / decimal}
; #@! TF.CreationDate,2019-03-23T10:06:03-04:00
; #@! TF.GenerationSoftware,Kicad,Pcbnew,(5.1.0)-1
FMAT,2
INCH
T1C0.0157
T2C0.0300
T3C0.0394
T4C0.1181
%
G90
G05
T1
X4.2222Y-3.3222
X4.225Y-4.1
X4.2376Y-3.8124
X4.25Y-2.75
X4.25Y-3.35
X4.25Y-4.175
X4.25Y-4.275
X4.25Y-4.33
X4.25Y-4.37
X4.275Y-2.825
X4.3Y-2.775
X4.3Y-2.925
X4.325Y-3.475
X4.325Y-3.7
X4.33Y-4.33
X4.33Y-4.37
X4.35Y-3.625
X4.35Y-3.94
X4.3591Y-4.0841
X4.375Y-3.025
X4.425Y-2.875
X4.425Y-3.7715
X4.4431Y-3.925
X4.4431Y-4.0236
X4.4716Y-4.15
X4.475Y-3.55
X4.5Y-3.45
X4.5Y-3.625
X4.51Y-4.19
X4.55Y-2.95
X4.58Y-2.83
X4.58Y-3.0
X4.58Y-4.12
X4.6Y-3.925
X4.63Y-3.97
X4.65Y-3.03
X4.65Y-3.2
X4.65Y-3.38
X4.67Y-2.77
X4.675Y-3.725
X4.75Y-3.625
X4.75Y-3.7
X4.75Y-4.14
X4.775Y-3.875
X4.78Y-2.72
X4.7865Y-3.4764
X4.79Y-4.14
X4.7933Y-2.7657
X4.7965Y-3.92
X4.8Y-3.1
X4.8Y-3.625
X4.825Y-4.1
X4.84Y-3.19
X4.85Y-3.33
X4.8543Y-3.2843
X4.875Y-4.1
X4.91Y-2.83
X4.9677Y-3.53
X4.975Y-3.575
X4.975Y-3.625
X4.975Y-3.875
X4.9982Y-2.7933
X5.0078Y-2.7551
X5.0085Y-2.8313
X5.0197Y-2.9134
X5.0197Y-3.3661
X5.025Y-4.1
X5.075Y-3.225
X5.075Y-3.525
X5.0886Y-2.7657
X5.11Y-3.56
X5.128Y-2.7756
X5.128Y-2.8248
X5.1368Y-3.2
X5.1378Y-2.9419
X5.15Y-3.625
X5.15Y-3.875
X5.1762Y-3.2
X5.1772Y-2.874
X5.18Y-3.24
X5.18Y-3.33
X5.23Y-4.13
X5.2559Y-2.7657
X5.3Y-3.425
X5.3Y-3.525
X5.3173Y-3.1327
X5.3445Y-3.2382
X5.3445Y-3.622
X5.36Y-2.77
X5.374Y-3.7106
X5.38Y-4.13
X5.425Y-3.35
X5.425Y-3.65
X5.425Y-3.95
X5.475Y-3.3
X5.475Y-3.875
X5.55Y-3.35
X5.575Y-2.875
X5.575Y-2.925
X5.595Y-4.275
X5.625Y-2.875
X5.625Y-2.925
X5.625Y-3.125
X5.625Y-3.175
X5.65Y-4.14
X5.67Y-3.94
X5.675Y-3.125
X5.675Y-3.175
X5.675Y-4.025
X5.7Y-3.04
X5.7Y-4.14
X5.7291Y-3.0709
X5.775Y-3.375
X5.775Y-3.925
X5.85Y-2.83
X5.85Y-3.06
X5.8535Y-3.5965
X5.8673Y-3.7827
X5.8715Y-3.55
X5.9Y-2.875
X5.9Y-2.925
X5.9Y-3.025
X5.9Y-3.075
X5.9Y-3.45
X5.9Y-4.02
X5.95Y-2.875
X5.95Y-2.925
X5.95Y-3.025
X5.95Y-3.075
X5.95Y-3.25
X5.95Y-3.38
X5.975Y-4.125
X6.0728Y-2.7657
X6.09Y-4.14
X6.1Y-3.125
X6.1Y-3.6
X6.1Y-3.7
X6.1Y-3.9
X6.14Y-4.14
X6.175Y-2.725
X6.225Y-2.875
X6.275Y-3.975
X6.325Y-2.875
X6.325Y-3.975
X6.44Y-4.11
X6.45Y-4.05
X6.5Y-3.025
X6.5Y-3.1
X6.52Y-3.27
X6.575Y-3.025
X6.575Y-3.1
X6.64Y-3.99
X6.65Y-3.025
X6.65Y-3.1
X6.65Y-3.325
X6.65Y-3.375
X6.65Y-4.23
T2
X4.3Y-3.025
X4.3Y-3.1037
X4.3Y-3.1825
X4.3Y-3.2612
X4.3Y-3.825
X4.3Y-3.9037
X4.3Y-3.9825
X4.3Y-4.0612
T3
X4.5171Y-4.3218
X6.5439Y-2.799
X6.5439Y-2.899
X6.6439Y-2.799
X6.6439Y-2.899
X4.5021Y-2.5572
X4.5021Y-2.6572
X4.6021Y-2.5572
X4.6021Y-2.6572
X4.7021Y-2.5572
X4.7021Y-2.6572
X4.8021Y-2.5572
X4.8021Y-2.6572
X4.9021Y-2.5572
X4.9021Y-2.6572
X5.0021Y-2.5572
X5.0021Y-2.6572
X5.1021Y-2.5572
X5.1021Y-2.6572
X5.2021Y-2.5572
X5.2021Y-2.6572
X5.3021Y-2.5572
X5.3021Y-2.6572
X5.4021Y-2.5572
X5.4021Y-2.6572
X5.5021Y-2.5572
X5.5021Y-2.6572
X5.6021Y-2.5572
X5.6021Y-2.6572
X5.7021Y-2.5572
X5.7021Y-2.6572
X5.8021Y-2.5572
X5.8021Y-2.6572
X5.9021Y-2.5572
X5.9021Y-2.6572
X6.0021Y-2.5572
X6.0021Y-2.6572
X6.1021Y-2.5572
X6.1021Y-2.6572
X6.2021Y-2.5572
X6.2021Y-2.6572
X6.3021Y-2.5572
X6.3021Y-2.6572
X6.4021Y-2.5572
X6.4021Y-2.6572
X4.5793Y-3.265
X4.5793Y-3.824
X5.599Y-3.265
X5.599Y-3.824
X6.3871Y-4.3218
T4
X6.5939Y-2.6072
X6.5939Y-4.5364
X4.3104Y-4.5364
X4.3104Y-2.6072
T0
M30
