G04 #@! TF.GenerationSoftware,KiCad,Pcbnew,(5.1.0)-1*
G04 #@! TF.CreationDate,2019-03-23T10:05:58-04:00*
G04 #@! TF.ProjectId,doorbot,646f6f72-626f-4742-9e6b-696361645f70,rev?*
G04 #@! TF.SameCoordinates,Original*
G04 #@! TF.FileFunction,Legend,Bot*
G04 #@! TF.FilePolarity,Positive*
%FSLAX46Y46*%
G04 Gerber Fmt 4.6, Leading zero omitted, Abs format (unit mm)*
G04 Created by KiCad (PCBNEW (5.1.0)-1) date 2019-03-23 10:05:58*
%MOMM*%
%LPD*%
G04 APERTURE LIST*
%ADD10C,0.150000*%
%ADD11C,0.120000*%
G04 APERTURE END LIST*
D10*
X156406190Y-107880476D02*
X156822857Y-107285238D01*
X157120476Y-107880476D02*
X157120476Y-106630476D01*
X156644285Y-106630476D01*
X156525238Y-106690000D01*
X156465714Y-106749523D01*
X156406190Y-106868571D01*
X156406190Y-107047142D01*
X156465714Y-107166190D01*
X156525238Y-107225714D01*
X156644285Y-107285238D01*
X157120476Y-107285238D01*
X155870476Y-107225714D02*
X155453809Y-107225714D01*
X155275238Y-107880476D02*
X155870476Y-107880476D01*
X155870476Y-106630476D01*
X155275238Y-106630476D01*
X154918095Y-106630476D02*
X154501428Y-107880476D01*
X154084761Y-106630476D01*
X153430000Y-106630476D02*
X153310952Y-106630476D01*
X153191904Y-106690000D01*
X153132380Y-106749523D01*
X153072857Y-106868571D01*
X153013333Y-107106666D01*
X153013333Y-107404285D01*
X153072857Y-107642380D01*
X153132380Y-107761428D01*
X153191904Y-107820952D01*
X153310952Y-107880476D01*
X153430000Y-107880476D01*
X153549047Y-107820952D01*
X153608571Y-107761428D01*
X153668095Y-107642380D01*
X153727619Y-107404285D01*
X153727619Y-107106666D01*
X153668095Y-106868571D01*
X153608571Y-106749523D01*
X153549047Y-106690000D01*
X153430000Y-106630476D01*
X151584761Y-106749523D02*
X151525238Y-106690000D01*
X151406190Y-106630476D01*
X151108571Y-106630476D01*
X150989523Y-106690000D01*
X150930000Y-106749523D01*
X150870476Y-106868571D01*
X150870476Y-106987619D01*
X150930000Y-107166190D01*
X151644285Y-107880476D01*
X150870476Y-107880476D01*
X150096666Y-106630476D02*
X149977619Y-106630476D01*
X149858571Y-106690000D01*
X149799047Y-106749523D01*
X149739523Y-106868571D01*
X149680000Y-107106666D01*
X149680000Y-107404285D01*
X149739523Y-107642380D01*
X149799047Y-107761428D01*
X149858571Y-107820952D01*
X149977619Y-107880476D01*
X150096666Y-107880476D01*
X150215714Y-107820952D01*
X150275238Y-107761428D01*
X150334761Y-107642380D01*
X150394285Y-107404285D01*
X150394285Y-107106666D01*
X150334761Y-106868571D01*
X150275238Y-106749523D01*
X150215714Y-106690000D01*
X150096666Y-106630476D01*
X148489523Y-107880476D02*
X149203809Y-107880476D01*
X148846666Y-107880476D02*
X148846666Y-106630476D01*
X148965714Y-106809047D01*
X149084761Y-106928095D01*
X149203809Y-106987619D01*
X147894285Y-107880476D02*
X147656190Y-107880476D01*
X147537142Y-107820952D01*
X147477619Y-107761428D01*
X147358571Y-107582857D01*
X147299047Y-107344761D01*
X147299047Y-106868571D01*
X147358571Y-106749523D01*
X147418095Y-106690000D01*
X147537142Y-106630476D01*
X147775238Y-106630476D01*
X147894285Y-106690000D01*
X147953809Y-106749523D01*
X148013333Y-106868571D01*
X148013333Y-107166190D01*
X147953809Y-107285238D01*
X147894285Y-107344761D01*
X147775238Y-107404285D01*
X147537142Y-107404285D01*
X147418095Y-107344761D01*
X147358571Y-107285238D01*
X147299047Y-107166190D01*
X146763333Y-107761428D02*
X146703809Y-107820952D01*
X146763333Y-107880476D01*
X146822857Y-107820952D01*
X146763333Y-107761428D01*
X146763333Y-107880476D01*
X145930000Y-106630476D02*
X145810952Y-106630476D01*
X145691904Y-106690000D01*
X145632380Y-106749523D01*
X145572857Y-106868571D01*
X145513333Y-107106666D01*
X145513333Y-107404285D01*
X145572857Y-107642380D01*
X145632380Y-107761428D01*
X145691904Y-107820952D01*
X145810952Y-107880476D01*
X145930000Y-107880476D01*
X146049047Y-107820952D01*
X146108571Y-107761428D01*
X146168095Y-107642380D01*
X146227619Y-107404285D01*
X146227619Y-107106666D01*
X146168095Y-106868571D01*
X146108571Y-106749523D01*
X146049047Y-106690000D01*
X145930000Y-106630476D01*
X145096666Y-106630476D02*
X144322857Y-106630476D01*
X144739523Y-107106666D01*
X144560952Y-107106666D01*
X144441904Y-107166190D01*
X144382380Y-107225714D01*
X144322857Y-107344761D01*
X144322857Y-107642380D01*
X144382380Y-107761428D01*
X144441904Y-107820952D01*
X144560952Y-107880476D01*
X144918095Y-107880476D01*
X145037142Y-107820952D01*
X145096666Y-107761428D01*
X143787142Y-107761428D02*
X143727619Y-107820952D01*
X143787142Y-107880476D01*
X143846666Y-107820952D01*
X143787142Y-107761428D01*
X143787142Y-107880476D01*
X143251428Y-106749523D02*
X143191904Y-106690000D01*
X143072857Y-106630476D01*
X142775238Y-106630476D01*
X142656190Y-106690000D01*
X142596666Y-106749523D01*
X142537142Y-106868571D01*
X142537142Y-106987619D01*
X142596666Y-107166190D01*
X143310952Y-107880476D01*
X142537142Y-107880476D01*
X142120476Y-106630476D02*
X141346666Y-106630476D01*
X141763333Y-107106666D01*
X141584761Y-107106666D01*
X141465714Y-107166190D01*
X141406190Y-107225714D01*
X141346666Y-107344761D01*
X141346666Y-107642380D01*
X141406190Y-107761428D01*
X141465714Y-107820952D01*
X141584761Y-107880476D01*
X141941904Y-107880476D01*
X142060952Y-107820952D01*
X142120476Y-107761428D01*
X139858571Y-107404285D02*
X138906190Y-107404285D01*
X137418095Y-107820952D02*
X137239523Y-107880476D01*
X136941904Y-107880476D01*
X136822857Y-107820952D01*
X136763333Y-107761428D01*
X136703809Y-107642380D01*
X136703809Y-107523333D01*
X136763333Y-107404285D01*
X136822857Y-107344761D01*
X136941904Y-107285238D01*
X137180000Y-107225714D01*
X137299047Y-107166190D01*
X137358571Y-107106666D01*
X137418095Y-106987619D01*
X137418095Y-106868571D01*
X137358571Y-106749523D01*
X137299047Y-106690000D01*
X137180000Y-106630476D01*
X136882380Y-106630476D01*
X136703809Y-106690000D01*
X136346666Y-106630476D02*
X135632380Y-106630476D01*
X135989523Y-107880476D02*
X135989523Y-106630476D01*
X135215714Y-107225714D02*
X134799047Y-107225714D01*
X134620476Y-107880476D02*
X135215714Y-107880476D01*
X135215714Y-106630476D01*
X134620476Y-106630476D01*
X134263333Y-106630476D02*
X133846666Y-107880476D01*
X133430000Y-106630476D01*
X133013333Y-107225714D02*
X132596666Y-107225714D01*
X132418095Y-107880476D02*
X133013333Y-107880476D01*
X133013333Y-106630476D01*
X132418095Y-106630476D01*
X130215714Y-107880476D02*
X130632380Y-107285238D01*
X130930000Y-107880476D02*
X130930000Y-106630476D01*
X130453809Y-106630476D01*
X130334761Y-106690000D01*
X130275238Y-106749523D01*
X130215714Y-106868571D01*
X130215714Y-107047142D01*
X130275238Y-107166190D01*
X130334761Y-107225714D01*
X130453809Y-107285238D01*
X130930000Y-107285238D01*
X129680000Y-107880476D02*
X129680000Y-106630476D01*
X128370476Y-107761428D02*
X128430000Y-107820952D01*
X128608571Y-107880476D01*
X128727619Y-107880476D01*
X128906190Y-107820952D01*
X129025238Y-107701904D01*
X129084761Y-107582857D01*
X129144285Y-107344761D01*
X129144285Y-107166190D01*
X129084761Y-106928095D01*
X129025238Y-106809047D01*
X128906190Y-106690000D01*
X128727619Y-106630476D01*
X128608571Y-106630476D01*
X128430000Y-106690000D01*
X128370476Y-106749523D01*
X127834761Y-107880476D02*
X127834761Y-106630476D01*
X127834761Y-107225714D02*
X127120476Y-107225714D01*
X127120476Y-107880476D02*
X127120476Y-106630476D01*
X126584761Y-107523333D02*
X125989523Y-107523333D01*
X126703809Y-107880476D02*
X126287142Y-106630476D01*
X125870476Y-107880476D01*
X124739523Y-107880476D02*
X125156190Y-107285238D01*
X125453809Y-107880476D02*
X125453809Y-106630476D01*
X124977619Y-106630476D01*
X124858571Y-106690000D01*
X124799047Y-106749523D01*
X124739523Y-106868571D01*
X124739523Y-107047142D01*
X124799047Y-107166190D01*
X124858571Y-107225714D01*
X124977619Y-107285238D01*
X125453809Y-107285238D01*
X124203809Y-107880476D02*
X124203809Y-106630476D01*
X123906190Y-106630476D01*
X123727619Y-106690000D01*
X123608571Y-106809047D01*
X123549047Y-106928095D01*
X123489523Y-107166190D01*
X123489523Y-107344761D01*
X123549047Y-107582857D01*
X123608571Y-107701904D01*
X123727619Y-107820952D01*
X123906190Y-107880476D01*
X124203809Y-107880476D01*
X123013333Y-107820952D02*
X122834761Y-107880476D01*
X122537142Y-107880476D01*
X122418095Y-107820952D01*
X122358571Y-107761428D01*
X122299047Y-107642380D01*
X122299047Y-107523333D01*
X122358571Y-107404285D01*
X122418095Y-107344761D01*
X122537142Y-107285238D01*
X122775238Y-107225714D01*
X122894285Y-107166190D01*
X122953809Y-107106666D01*
X123013333Y-106987619D01*
X123013333Y-106868571D01*
X122953809Y-106749523D01*
X122894285Y-106690000D01*
X122775238Y-106630476D01*
X122477619Y-106630476D01*
X122299047Y-106690000D01*
X121525238Y-106630476D02*
X121287142Y-106630476D01*
X121168095Y-106690000D01*
X121049047Y-106809047D01*
X120989523Y-107047142D01*
X120989523Y-107463809D01*
X121049047Y-107701904D01*
X121168095Y-107820952D01*
X121287142Y-107880476D01*
X121525238Y-107880476D01*
X121644285Y-107820952D01*
X121763333Y-107701904D01*
X121822857Y-107463809D01*
X121822857Y-107047142D01*
X121763333Y-106809047D01*
X121644285Y-106690000D01*
X121525238Y-106630476D01*
X120453809Y-107880476D02*
X120453809Y-106630476D01*
X119739523Y-107880476D01*
X119739523Y-106630476D01*
X167203238Y-108847380D02*
X167203238Y-107847380D01*
X166965142Y-107847380D01*
X166822285Y-107895000D01*
X166727047Y-107990238D01*
X166679428Y-108085476D01*
X166631809Y-108275952D01*
X166631809Y-108418809D01*
X166679428Y-108609285D01*
X166727047Y-108704523D01*
X166822285Y-108799761D01*
X166965142Y-108847380D01*
X167203238Y-108847380D01*
X166203238Y-107847380D02*
X166203238Y-108656904D01*
X166155619Y-108752142D01*
X166108000Y-108799761D01*
X166012761Y-108847380D01*
X165822285Y-108847380D01*
X165727047Y-108799761D01*
X165679428Y-108752142D01*
X165631809Y-108656904D01*
X165631809Y-107847380D01*
X165298476Y-107847380D02*
X164727047Y-107847380D01*
X165012761Y-108847380D02*
X165012761Y-107847380D01*
X164203238Y-108371190D02*
X164203238Y-108847380D01*
X164536571Y-107847380D02*
X164203238Y-108371190D01*
X163869904Y-107847380D01*
X167084190Y-110402142D02*
X167131809Y-110449761D01*
X167274666Y-110497380D01*
X167369904Y-110497380D01*
X167512761Y-110449761D01*
X167608000Y-110354523D01*
X167655619Y-110259285D01*
X167703238Y-110068809D01*
X167703238Y-109925952D01*
X167655619Y-109735476D01*
X167608000Y-109640238D01*
X167512761Y-109545000D01*
X167369904Y-109497380D01*
X167274666Y-109497380D01*
X167131809Y-109545000D01*
X167084190Y-109592619D01*
X166465142Y-110021190D02*
X166465142Y-110497380D01*
X166798476Y-109497380D02*
X166465142Y-110021190D01*
X166131809Y-109497380D01*
X165227047Y-110402142D02*
X165274666Y-110449761D01*
X165417523Y-110497380D01*
X165512761Y-110497380D01*
X165655619Y-110449761D01*
X165750857Y-110354523D01*
X165798476Y-110259285D01*
X165846095Y-110068809D01*
X165846095Y-109925952D01*
X165798476Y-109735476D01*
X165750857Y-109640238D01*
X165655619Y-109545000D01*
X165512761Y-109497380D01*
X165417523Y-109497380D01*
X165274666Y-109545000D01*
X165227047Y-109592619D01*
X164322285Y-110497380D02*
X164798476Y-110497380D01*
X164798476Y-109497380D01*
X163988952Y-109973571D02*
X163655619Y-109973571D01*
X163512761Y-110497380D02*
X163988952Y-110497380D01*
X163988952Y-109497380D01*
X163512761Y-109497380D01*
D11*
X122530000Y-81879221D02*
X122530000Y-82204779D01*
X121510000Y-81879221D02*
X121510000Y-82204779D01*
X111407500Y-105692500D02*
X111407500Y-106067500D01*
X111595000Y-105880000D02*
X111220000Y-105880000D01*
X110790563Y-108375000D02*
X110090563Y-109075000D01*
X110790563Y-106255000D02*
X110090563Y-105555000D01*
X110090563Y-109075000D02*
X107460000Y-109075000D01*
X110090563Y-105555000D02*
X107460000Y-105555000D01*
X107460000Y-105555000D02*
X107460000Y-106255000D01*
X107460000Y-109075000D02*
X107460000Y-108375000D01*
X111407500Y-80362500D02*
X111782500Y-80362500D01*
X111595000Y-80175000D02*
X111595000Y-80550000D01*
X114090000Y-80979437D02*
X114790000Y-81679437D01*
X111970000Y-80979437D02*
X111270000Y-81679437D01*
X114790000Y-81679437D02*
X114790000Y-84310000D01*
X111270000Y-81679437D02*
X111270000Y-84310000D01*
X111270000Y-84310000D02*
X111970000Y-84310000D01*
X114790000Y-84310000D02*
X114090000Y-84310000D01*
X142927500Y-98453500D02*
X142927500Y-98828500D01*
X143115000Y-98641000D02*
X142740000Y-98641000D01*
X142310563Y-101136000D02*
X141610563Y-101836000D01*
X142310563Y-99016000D02*
X141610563Y-98316000D01*
X141610563Y-101836000D02*
X138980000Y-101836000D01*
X141610563Y-98316000D02*
X138980000Y-98316000D01*
X138980000Y-98316000D02*
X138980000Y-99016000D01*
X138980000Y-101836000D02*
X138980000Y-101136000D01*
X118130000Y-92850000D02*
X118130000Y-91150000D01*
X120630000Y-97650000D02*
X120780000Y-97650000D01*
X120780000Y-97650000D02*
X120780000Y-92850000D01*
X120780000Y-92850000D02*
X120630000Y-92850000D01*
X118130000Y-92850000D02*
X117980000Y-92850000D01*
X117980000Y-92850000D02*
X117980000Y-97650000D01*
X117980000Y-97650000D02*
X118130000Y-97650000D01*
X111145000Y-92850000D02*
X111145000Y-91150000D01*
X113645000Y-97650000D02*
X113795000Y-97650000D01*
X113795000Y-97650000D02*
X113795000Y-92850000D01*
X113795000Y-92850000D02*
X113645000Y-92850000D01*
X111145000Y-92850000D02*
X110995000Y-92850000D01*
X110995000Y-92850000D02*
X110995000Y-97650000D01*
X110995000Y-97650000D02*
X111145000Y-97650000D01*
X133965000Y-97650000D02*
X133965000Y-99350000D01*
X131465000Y-92850000D02*
X131315000Y-92850000D01*
X131315000Y-92850000D02*
X131315000Y-97650000D01*
X131315000Y-97650000D02*
X131465000Y-97650000D01*
X133965000Y-97650000D02*
X134115000Y-97650000D01*
X134115000Y-97650000D02*
X134115000Y-92850000D01*
X134115000Y-92850000D02*
X133965000Y-92850000D01*
X129520000Y-97650000D02*
X129520000Y-99350000D01*
X127020000Y-92850000D02*
X126870000Y-92850000D01*
X126870000Y-92850000D02*
X126870000Y-97650000D01*
X126870000Y-97650000D02*
X127020000Y-97650000D01*
X129520000Y-97650000D02*
X129670000Y-97650000D01*
X129670000Y-97650000D02*
X129670000Y-92850000D01*
X129670000Y-92850000D02*
X129520000Y-92850000D01*
X125075000Y-97650000D02*
X125075000Y-99350000D01*
X122575000Y-92850000D02*
X122425000Y-92850000D01*
X122425000Y-92850000D02*
X122425000Y-97650000D01*
X122425000Y-97650000D02*
X122575000Y-97650000D01*
X125075000Y-97650000D02*
X125225000Y-97650000D01*
X125225000Y-97650000D02*
X125225000Y-92850000D01*
X125225000Y-92850000D02*
X125075000Y-92850000D01*
X148345000Y-83400000D02*
X148345000Y-85100000D01*
X145845000Y-78600000D02*
X145695000Y-78600000D01*
X145695000Y-78600000D02*
X145695000Y-83400000D01*
X145695000Y-83400000D02*
X145845000Y-83400000D01*
X148345000Y-83400000D02*
X148495000Y-83400000D01*
X148495000Y-83400000D02*
X148495000Y-78600000D01*
X148495000Y-78600000D02*
X148345000Y-78600000D01*
X156230000Y-78600000D02*
X156230000Y-76900000D01*
X158730000Y-83400000D02*
X158880000Y-83400000D01*
X158880000Y-83400000D02*
X158880000Y-78600000D01*
X158880000Y-78600000D02*
X158730000Y-78600000D01*
X156230000Y-78600000D02*
X156080000Y-78600000D01*
X156080000Y-78600000D02*
X156080000Y-83400000D01*
X156080000Y-83400000D02*
X156230000Y-83400000D01*
X137030000Y-89280000D02*
X137030000Y-85980000D01*
X139830000Y-89280000D02*
X137030000Y-89280000D01*
X118734409Y-81782190D02*
X120194409Y-81782190D01*
X118734409Y-78622190D02*
X120894409Y-78622190D01*
X118734409Y-78622190D02*
X118734409Y-79552190D01*
X118734409Y-81782190D02*
X118734409Y-80852190D01*
X114244000Y-100332000D02*
X114244000Y-101792000D01*
X117404000Y-100332000D02*
X117404000Y-102492000D01*
X117404000Y-100332000D02*
X116474000Y-100332000D01*
X114244000Y-100332000D02*
X115174000Y-100332000D01*
X107005000Y-93855000D02*
X107005000Y-95315000D01*
X110165000Y-93855000D02*
X110165000Y-96015000D01*
X110165000Y-93855000D02*
X109235000Y-93855000D01*
X107005000Y-93855000D02*
X107935000Y-93855000D01*
X115880000Y-77595000D02*
X115880000Y-76135000D01*
X112720000Y-77595000D02*
X112720000Y-75435000D01*
X112720000Y-77595000D02*
X113650000Y-77595000D01*
X115880000Y-77595000D02*
X114950000Y-77595000D01*
X107825000Y-81752221D02*
X107825000Y-82077779D01*
X106805000Y-81752221D02*
X106805000Y-82077779D01*
X107825000Y-102072221D02*
X107825000Y-102397779D01*
X106805000Y-102072221D02*
X106805000Y-102397779D01*
X141480000Y-87467221D02*
X141480000Y-87792779D01*
X140460000Y-87467221D02*
X140460000Y-87792779D01*
X135380000Y-87792779D02*
X135380000Y-87467221D01*
X136400000Y-87792779D02*
X136400000Y-87467221D01*
X121510000Y-85252779D02*
X121510000Y-84927221D01*
X122530000Y-85252779D02*
X122530000Y-84927221D01*
X136146000Y-84165221D02*
X136146000Y-84490779D01*
X135126000Y-84165221D02*
X135126000Y-84490779D01*
X164627779Y-90045000D02*
X164302221Y-90045000D01*
X164627779Y-89025000D02*
X164302221Y-89025000D01*
X164429221Y-80516000D02*
X164754779Y-80516000D01*
X164429221Y-81536000D02*
X164754779Y-81536000D01*
X115160000Y-80262779D02*
X115160000Y-79937221D01*
X116180000Y-80262779D02*
X116180000Y-79937221D01*
X106805000Y-76362779D02*
X106805000Y-76037221D01*
X107825000Y-76362779D02*
X107825000Y-76037221D01*
X168112221Y-101725000D02*
X168437779Y-101725000D01*
X168112221Y-102745000D02*
X168437779Y-102745000D01*
X118620000Y-87582221D02*
X118620000Y-87907779D01*
X117600000Y-87582221D02*
X117600000Y-87907779D01*
X111635000Y-70957221D02*
X111635000Y-71282779D01*
X110615000Y-70957221D02*
X110615000Y-71282779D01*
X118235000Y-101762779D02*
X118235000Y-101437221D01*
X119255000Y-101762779D02*
X119255000Y-101437221D01*
X111250000Y-101762779D02*
X111250000Y-101437221D01*
X112270000Y-101762779D02*
X112270000Y-101437221D01*
X156970000Y-71282779D02*
X156970000Y-70957221D01*
X157990000Y-71282779D02*
X157990000Y-70957221D01*
X160145000Y-71282779D02*
X160145000Y-70957221D01*
X161165000Y-71282779D02*
X161165000Y-70957221D01*
X120140000Y-89062779D02*
X120140000Y-88737221D01*
X121160000Y-89062779D02*
X121160000Y-88737221D01*
X153545000Y-70957221D02*
X153545000Y-71282779D01*
X152525000Y-70957221D02*
X152525000Y-71282779D01*
X135130000Y-70957221D02*
X135130000Y-71282779D01*
X134110000Y-70957221D02*
X134110000Y-71282779D01*
X128780000Y-70957221D02*
X128780000Y-71282779D01*
X127760000Y-70957221D02*
X127760000Y-71282779D01*
X131955000Y-70957221D02*
X131955000Y-71282779D01*
X130935000Y-70957221D02*
X130935000Y-71282779D01*
X124970000Y-101437221D02*
X124970000Y-101762779D01*
X123950000Y-101437221D02*
X123950000Y-101762779D01*
X132990000Y-101737279D02*
X132990000Y-101411721D01*
X134010000Y-101737279D02*
X134010000Y-101411721D01*
X128490000Y-101737279D02*
X128490000Y-101411721D01*
X129510000Y-101737279D02*
X129510000Y-101411721D01*
X148465000Y-88737221D02*
X148465000Y-89062779D01*
X147445000Y-88737221D02*
X147445000Y-89062779D01*
X154142221Y-92200000D02*
X154467779Y-92200000D01*
X154142221Y-93220000D02*
X154467779Y-93220000D01*
X154142221Y-97280000D02*
X154467779Y-97280000D01*
X154142221Y-98300000D02*
X154467779Y-98300000D01*
X137412779Y-81760000D02*
X137087221Y-81760000D01*
X137412779Y-80740000D02*
X137087221Y-80740000D01*
X137412779Y-80010000D02*
X137087221Y-80010000D01*
X137412779Y-78990000D02*
X137087221Y-78990000D01*
X123192000Y-88737221D02*
X123192000Y-89062779D01*
X122172000Y-88737221D02*
X122172000Y-89062779D01*
X149350000Y-85252779D02*
X149350000Y-84927221D01*
X150370000Y-85252779D02*
X150370000Y-84927221D01*
X153795000Y-85252779D02*
X153795000Y-84927221D01*
X154815000Y-85252779D02*
X154815000Y-84927221D01*
X151890000Y-85252779D02*
X151890000Y-84927221D01*
X152910000Y-85252779D02*
X152910000Y-84927221D01*
X113790000Y-71282779D02*
X113790000Y-70957221D01*
X114810000Y-71282779D02*
X114810000Y-70957221D01*
X139575000Y-70957221D02*
X139575000Y-71282779D01*
X138555000Y-70957221D02*
X138555000Y-71282779D01*
X116965000Y-71282779D02*
X116965000Y-70957221D01*
X117985000Y-71282779D02*
X117985000Y-70957221D01*
X126510000Y-70957221D02*
X126510000Y-71282779D01*
X125490000Y-70957221D02*
X125490000Y-71282779D01*
X123700000Y-70957221D02*
X123700000Y-71282779D01*
X122680000Y-70957221D02*
X122680000Y-71282779D01*
X121160000Y-70957221D02*
X121160000Y-71282779D01*
X120140000Y-70957221D02*
X120140000Y-71282779D01*
X137412779Y-78488000D02*
X137087221Y-78488000D01*
X137412779Y-77468000D02*
X137087221Y-77468000D01*
X166880000Y-83890000D02*
X166880000Y-82690000D01*
X166880000Y-82690000D02*
X164180000Y-82690000D01*
X162880000Y-87490000D02*
X166880000Y-87490000D01*
X166880000Y-87490000D02*
X166880000Y-86290000D01*
D10*
X144745000Y-93175000D02*
X144795000Y-93175000D01*
X144745000Y-97325000D02*
X144890000Y-97325000D01*
X149895000Y-97325000D02*
X149750000Y-97325000D01*
X149895000Y-93175000D02*
X149750000Y-93175000D01*
X144745000Y-93175000D02*
X144745000Y-97325000D01*
X149895000Y-93175000D02*
X149895000Y-97325000D01*
X144795000Y-93175000D02*
X144795000Y-91775000D01*
D11*
X165282000Y-105144000D02*
X165282000Y-100484000D01*
X158822000Y-105144000D02*
X158822000Y-100484000D01*
X165282000Y-105144000D02*
X162832000Y-105144000D01*
X161272000Y-105144000D02*
X158822000Y-105144000D01*
X163812000Y-98674000D02*
X160292000Y-98674000D01*
X164902000Y-106664000D02*
X164902000Y-105144000D01*
X163002000Y-106664000D02*
X163002000Y-105144000D01*
X164902000Y-106664000D02*
X163002000Y-106664000D01*
X164902000Y-105144000D02*
X163002000Y-105144000D01*
X163962000Y-106664000D02*
X163962000Y-105894000D01*
X149550000Y-88140000D02*
X150480000Y-88140000D01*
X152710000Y-88140000D02*
X151780000Y-88140000D01*
X152710000Y-88140000D02*
X152710000Y-90300000D01*
X149550000Y-88140000D02*
X149550000Y-89600000D01*
X146310000Y-104385000D02*
X146310000Y-100085000D01*
X146310000Y-100085000D02*
X152010000Y-100085000D01*
X146310000Y-104385000D02*
X152010000Y-104385000D01*
X154142221Y-95760000D02*
X154467779Y-95760000D01*
X154142221Y-94740000D02*
X154467779Y-94740000D01*
D10*
X132530000Y-80195000D02*
X132530000Y-80420000D01*
X125280000Y-80195000D02*
X125280000Y-80520000D01*
X125280000Y-87445000D02*
X125280000Y-87120000D01*
X132530000Y-87445000D02*
X132530000Y-87120000D01*
X132530000Y-80195000D02*
X132205000Y-80195000D01*
X132530000Y-87445000D02*
X132205000Y-87445000D01*
X125280000Y-87445000D02*
X125605000Y-87445000D01*
X125280000Y-80195000D02*
X125605000Y-80195000D01*
X132530000Y-80420000D02*
X133955000Y-80420000D01*
X120530857Y-83161142D02*
X120578476Y-83208761D01*
X120721333Y-83256380D01*
X120816571Y-83256380D01*
X120959428Y-83208761D01*
X121054666Y-83113523D01*
X121102285Y-83018285D01*
X121149904Y-82827809D01*
X121149904Y-82684952D01*
X121102285Y-82494476D01*
X121054666Y-82399238D01*
X120959428Y-82304000D01*
X120816571Y-82256380D01*
X120721333Y-82256380D01*
X120578476Y-82304000D01*
X120530857Y-82351619D01*
X119578476Y-83256380D02*
X120149904Y-83256380D01*
X119864190Y-83256380D02*
X119864190Y-82256380D01*
X119959428Y-82399238D01*
X120054666Y-82494476D01*
X120149904Y-82542095D01*
X119245142Y-82256380D02*
X118626095Y-82256380D01*
X118959428Y-82637333D01*
X118816571Y-82637333D01*
X118721333Y-82684952D01*
X118673714Y-82732571D01*
X118626095Y-82827809D01*
X118626095Y-83065904D01*
X118673714Y-83161142D01*
X118721333Y-83208761D01*
X118816571Y-83256380D01*
X119102285Y-83256380D01*
X119197523Y-83208761D01*
X119245142Y-83161142D01*
X109608857Y-105259142D02*
X109656476Y-105306761D01*
X109799333Y-105354380D01*
X109894571Y-105354380D01*
X110037428Y-105306761D01*
X110132666Y-105211523D01*
X110180285Y-105116285D01*
X110227904Y-104925809D01*
X110227904Y-104782952D01*
X110180285Y-104592476D01*
X110132666Y-104497238D01*
X110037428Y-104402000D01*
X109894571Y-104354380D01*
X109799333Y-104354380D01*
X109656476Y-104402000D01*
X109608857Y-104449619D01*
X108656476Y-105354380D02*
X109227904Y-105354380D01*
X108942190Y-105354380D02*
X108942190Y-104354380D01*
X109037428Y-104497238D01*
X109132666Y-104592476D01*
X109227904Y-104640095D01*
X107704095Y-105354380D02*
X108275523Y-105354380D01*
X107989809Y-105354380D02*
X107989809Y-104354380D01*
X108085047Y-104497238D01*
X108180285Y-104592476D01*
X108275523Y-104640095D01*
X110402666Y-85193142D02*
X110450285Y-85240761D01*
X110593142Y-85288380D01*
X110688380Y-85288380D01*
X110831238Y-85240761D01*
X110926476Y-85145523D01*
X110974095Y-85050285D01*
X111021714Y-84859809D01*
X111021714Y-84716952D01*
X110974095Y-84526476D01*
X110926476Y-84431238D01*
X110831238Y-84336000D01*
X110688380Y-84288380D01*
X110593142Y-84288380D01*
X110450285Y-84336000D01*
X110402666Y-84383619D01*
X109926476Y-85288380D02*
X109736000Y-85288380D01*
X109640761Y-85240761D01*
X109593142Y-85193142D01*
X109497904Y-85050285D01*
X109450285Y-84859809D01*
X109450285Y-84478857D01*
X109497904Y-84383619D01*
X109545523Y-84336000D01*
X109640761Y-84288380D01*
X109831238Y-84288380D01*
X109926476Y-84336000D01*
X109974095Y-84383619D01*
X110021714Y-84478857D01*
X110021714Y-84716952D01*
X109974095Y-84812190D01*
X109926476Y-84859809D01*
X109831238Y-84907428D01*
X109640761Y-84907428D01*
X109545523Y-84859809D01*
X109497904Y-84812190D01*
X109450285Y-84716952D01*
X140374666Y-103481142D02*
X140422285Y-103528761D01*
X140565142Y-103576380D01*
X140660380Y-103576380D01*
X140803238Y-103528761D01*
X140898476Y-103433523D01*
X140946095Y-103338285D01*
X140993714Y-103147809D01*
X140993714Y-103004952D01*
X140946095Y-102814476D01*
X140898476Y-102719238D01*
X140803238Y-102624000D01*
X140660380Y-102576380D01*
X140565142Y-102576380D01*
X140422285Y-102624000D01*
X140374666Y-102671619D01*
X139993714Y-102671619D02*
X139946095Y-102624000D01*
X139850857Y-102576380D01*
X139612761Y-102576380D01*
X139517523Y-102624000D01*
X139469904Y-102671619D01*
X139422285Y-102766857D01*
X139422285Y-102862095D01*
X139469904Y-103004952D01*
X140041333Y-103576380D01*
X139422285Y-103576380D01*
X121118380Y-92995904D02*
X121927904Y-92995904D01*
X122023142Y-93043523D01*
X122070761Y-93091142D01*
X122118380Y-93186380D01*
X122118380Y-93376857D01*
X122070761Y-93472095D01*
X122023142Y-93519714D01*
X121927904Y-93567333D01*
X121118380Y-93567333D01*
X122118380Y-94567333D02*
X122118380Y-93995904D01*
X122118380Y-94281619D02*
X121118380Y-94281619D01*
X121261238Y-94186380D01*
X121356476Y-94091142D01*
X121404095Y-93995904D01*
X121118380Y-95186380D02*
X121118380Y-95281619D01*
X121166000Y-95376857D01*
X121213619Y-95424476D01*
X121308857Y-95472095D01*
X121499333Y-95519714D01*
X121737428Y-95519714D01*
X121927904Y-95472095D01*
X122023142Y-95424476D01*
X122070761Y-95376857D01*
X122118380Y-95281619D01*
X122118380Y-95186380D01*
X122070761Y-95091142D01*
X122023142Y-95043523D01*
X121927904Y-94995904D01*
X121737428Y-94948285D01*
X121499333Y-94948285D01*
X121308857Y-94995904D01*
X121213619Y-95043523D01*
X121166000Y-95091142D01*
X121118380Y-95186380D01*
X114006380Y-92964095D02*
X114815904Y-92964095D01*
X114911142Y-93011714D01*
X114958761Y-93059333D01*
X115006380Y-93154571D01*
X115006380Y-93345047D01*
X114958761Y-93440285D01*
X114911142Y-93487904D01*
X114815904Y-93535523D01*
X114006380Y-93535523D01*
X115006380Y-94059333D02*
X115006380Y-94249809D01*
X114958761Y-94345047D01*
X114911142Y-94392666D01*
X114768285Y-94487904D01*
X114577809Y-94535523D01*
X114196857Y-94535523D01*
X114101619Y-94487904D01*
X114054000Y-94440285D01*
X114006380Y-94345047D01*
X114006380Y-94154571D01*
X114054000Y-94059333D01*
X114101619Y-94011714D01*
X114196857Y-93964095D01*
X114434952Y-93964095D01*
X114530190Y-94011714D01*
X114577809Y-94059333D01*
X114625428Y-94154571D01*
X114625428Y-94345047D01*
X114577809Y-94440285D01*
X114530190Y-94487904D01*
X114434952Y-94535523D01*
X134267380Y-92964095D02*
X135076904Y-92964095D01*
X135172142Y-93011714D01*
X135219761Y-93059333D01*
X135267380Y-93154571D01*
X135267380Y-93345047D01*
X135219761Y-93440285D01*
X135172142Y-93487904D01*
X135076904Y-93535523D01*
X134267380Y-93535523D01*
X134267380Y-94440285D02*
X134267380Y-94249809D01*
X134315000Y-94154571D01*
X134362619Y-94106952D01*
X134505476Y-94011714D01*
X134695952Y-93964095D01*
X135076904Y-93964095D01*
X135172142Y-94011714D01*
X135219761Y-94059333D01*
X135267380Y-94154571D01*
X135267380Y-94345047D01*
X135219761Y-94440285D01*
X135172142Y-94487904D01*
X135076904Y-94535523D01*
X134838809Y-94535523D01*
X134743571Y-94487904D01*
X134695952Y-94440285D01*
X134648333Y-94345047D01*
X134648333Y-94154571D01*
X134695952Y-94059333D01*
X134743571Y-94011714D01*
X134838809Y-93964095D01*
X129822380Y-92964095D02*
X130631904Y-92964095D01*
X130727142Y-93011714D01*
X130774761Y-93059333D01*
X130822380Y-93154571D01*
X130822380Y-93345047D01*
X130774761Y-93440285D01*
X130727142Y-93487904D01*
X130631904Y-93535523D01*
X129822380Y-93535523D01*
X129822380Y-94487904D02*
X129822380Y-94011714D01*
X130298571Y-93964095D01*
X130250952Y-94011714D01*
X130203333Y-94106952D01*
X130203333Y-94345047D01*
X130250952Y-94440285D01*
X130298571Y-94487904D01*
X130393809Y-94535523D01*
X130631904Y-94535523D01*
X130727142Y-94487904D01*
X130774761Y-94440285D01*
X130822380Y-94345047D01*
X130822380Y-94106952D01*
X130774761Y-94011714D01*
X130727142Y-93964095D01*
X125377380Y-92964095D02*
X126186904Y-92964095D01*
X126282142Y-93011714D01*
X126329761Y-93059333D01*
X126377380Y-93154571D01*
X126377380Y-93345047D01*
X126329761Y-93440285D01*
X126282142Y-93487904D01*
X126186904Y-93535523D01*
X125377380Y-93535523D01*
X125710714Y-94440285D02*
X126377380Y-94440285D01*
X125329761Y-94202190D02*
X126044047Y-93964095D01*
X126044047Y-94583142D01*
X150367904Y-80224380D02*
X150367904Y-81033904D01*
X150320285Y-81129142D01*
X150272666Y-81176761D01*
X150177428Y-81224380D01*
X149986952Y-81224380D01*
X149891714Y-81176761D01*
X149844095Y-81129142D01*
X149796476Y-81033904D01*
X149796476Y-80224380D01*
X149415523Y-80224380D02*
X148796476Y-80224380D01*
X149129809Y-80605333D01*
X148986952Y-80605333D01*
X148891714Y-80652952D01*
X148844095Y-80700571D01*
X148796476Y-80795809D01*
X148796476Y-81033904D01*
X148844095Y-81129142D01*
X148891714Y-81176761D01*
X148986952Y-81224380D01*
X149272666Y-81224380D01*
X149367904Y-81176761D01*
X149415523Y-81129142D01*
X160781904Y-78700380D02*
X160781904Y-79509904D01*
X160734285Y-79605142D01*
X160686666Y-79652761D01*
X160591428Y-79700380D01*
X160400952Y-79700380D01*
X160305714Y-79652761D01*
X160258095Y-79605142D01*
X160210476Y-79509904D01*
X160210476Y-78700380D01*
X159781904Y-78795619D02*
X159734285Y-78748000D01*
X159639047Y-78700380D01*
X159400952Y-78700380D01*
X159305714Y-78748000D01*
X159258095Y-78795619D01*
X159210476Y-78890857D01*
X159210476Y-78986095D01*
X159258095Y-79128952D01*
X159829523Y-79700380D01*
X159210476Y-79700380D01*
X138652190Y-90400190D02*
X138652190Y-90876380D01*
X138985523Y-89876380D02*
X138652190Y-90400190D01*
X138318857Y-89876380D01*
X137461714Y-90876380D02*
X138033142Y-90876380D01*
X137747428Y-90876380D02*
X137747428Y-89876380D01*
X137842666Y-90019238D01*
X137937904Y-90114476D01*
X138033142Y-90162095D01*
X120232504Y-78154570D02*
X120232504Y-77154570D01*
X119994409Y-77154570D01*
X119851551Y-77202190D01*
X119756313Y-77297428D01*
X119708694Y-77392666D01*
X119661075Y-77583142D01*
X119661075Y-77725999D01*
X119708694Y-77916475D01*
X119756313Y-78011713D01*
X119851551Y-78106951D01*
X119994409Y-78154570D01*
X120232504Y-78154570D01*
X119089647Y-77583142D02*
X119184885Y-77535523D01*
X119232504Y-77487904D01*
X119280123Y-77392666D01*
X119280123Y-77345047D01*
X119232504Y-77249809D01*
X119184885Y-77202190D01*
X119089647Y-77154570D01*
X118899170Y-77154570D01*
X118803932Y-77202190D01*
X118756313Y-77249809D01*
X118708694Y-77345047D01*
X118708694Y-77392666D01*
X118756313Y-77487904D01*
X118803932Y-77535523D01*
X118899170Y-77583142D01*
X119089647Y-77583142D01*
X119184885Y-77630761D01*
X119232504Y-77678380D01*
X119280123Y-77773618D01*
X119280123Y-77964094D01*
X119232504Y-78059332D01*
X119184885Y-78106951D01*
X119089647Y-78154570D01*
X118899170Y-78154570D01*
X118803932Y-78106951D01*
X118756313Y-78059332D01*
X118708694Y-77964094D01*
X118708694Y-77773618D01*
X118756313Y-77678380D01*
X118803932Y-77630761D01*
X118899170Y-77583142D01*
X118776380Y-100353904D02*
X117776380Y-100353904D01*
X117776380Y-100592000D01*
X117824000Y-100734857D01*
X117919238Y-100830095D01*
X118014476Y-100877714D01*
X118204952Y-100925333D01*
X118347809Y-100925333D01*
X118538285Y-100877714D01*
X118633523Y-100830095D01*
X118728761Y-100734857D01*
X118776380Y-100592000D01*
X118776380Y-100353904D01*
X117776380Y-101258666D02*
X117776380Y-101925333D01*
X118776380Y-101496761D01*
X109196095Y-92400380D02*
X109196095Y-91400380D01*
X108958000Y-91400380D01*
X108815142Y-91448000D01*
X108719904Y-91543238D01*
X108672285Y-91638476D01*
X108624666Y-91828952D01*
X108624666Y-91971809D01*
X108672285Y-92162285D01*
X108719904Y-92257523D01*
X108815142Y-92352761D01*
X108958000Y-92400380D01*
X109196095Y-92400380D01*
X107767523Y-91400380D02*
X107958000Y-91400380D01*
X108053238Y-91448000D01*
X108100857Y-91495619D01*
X108196095Y-91638476D01*
X108243714Y-91828952D01*
X108243714Y-92209904D01*
X108196095Y-92305142D01*
X108148476Y-92352761D01*
X108053238Y-92400380D01*
X107862761Y-92400380D01*
X107767523Y-92352761D01*
X107719904Y-92305142D01*
X107672285Y-92209904D01*
X107672285Y-91971809D01*
X107719904Y-91876571D01*
X107767523Y-91828952D01*
X107862761Y-91781333D01*
X108053238Y-91781333D01*
X108148476Y-91828952D01*
X108196095Y-91876571D01*
X108243714Y-91971809D01*
X112252380Y-76096904D02*
X111252380Y-76096904D01*
X111252380Y-76335000D01*
X111300000Y-76477857D01*
X111395238Y-76573095D01*
X111490476Y-76620714D01*
X111680952Y-76668333D01*
X111823809Y-76668333D01*
X112014285Y-76620714D01*
X112109523Y-76573095D01*
X112204761Y-76477857D01*
X112252380Y-76335000D01*
X112252380Y-76096904D01*
X111252380Y-77573095D02*
X111252380Y-77096904D01*
X111728571Y-77049285D01*
X111680952Y-77096904D01*
X111633333Y-77192142D01*
X111633333Y-77430238D01*
X111680952Y-77525476D01*
X111728571Y-77573095D01*
X111823809Y-77620714D01*
X112061904Y-77620714D01*
X112157142Y-77573095D01*
X112204761Y-77525476D01*
X112252380Y-77430238D01*
X112252380Y-77192142D01*
X112204761Y-77096904D01*
X112157142Y-77049285D01*
X107509428Y-78669428D02*
X107552285Y-78626571D01*
X107595142Y-78498000D01*
X107595142Y-78412285D01*
X107552285Y-78283714D01*
X107466571Y-78198000D01*
X107380857Y-78155142D01*
X107209428Y-78112285D01*
X107080857Y-78112285D01*
X106909428Y-78155142D01*
X106823714Y-78198000D01*
X106738000Y-78283714D01*
X106695142Y-78412285D01*
X106695142Y-78498000D01*
X106738000Y-78626571D01*
X106780857Y-78669428D01*
X107595142Y-79526571D02*
X107595142Y-79012285D01*
X107595142Y-79269428D02*
X106695142Y-79269428D01*
X106823714Y-79183714D01*
X106909428Y-79098000D01*
X106952285Y-79012285D01*
X106780857Y-79869428D02*
X106738000Y-79912285D01*
X106695142Y-79998000D01*
X106695142Y-80212285D01*
X106738000Y-80298000D01*
X106780857Y-80340857D01*
X106866571Y-80383714D01*
X106952285Y-80383714D01*
X107080857Y-80340857D01*
X107595142Y-79826571D01*
X107595142Y-80383714D01*
X107545142Y-98417142D02*
X107592761Y-98369523D01*
X107640380Y-98226666D01*
X107640380Y-98131428D01*
X107592761Y-97988571D01*
X107497523Y-97893333D01*
X107402285Y-97845714D01*
X107211809Y-97798095D01*
X107068952Y-97798095D01*
X106878476Y-97845714D01*
X106783238Y-97893333D01*
X106688000Y-97988571D01*
X106640380Y-98131428D01*
X106640380Y-98226666D01*
X106688000Y-98369523D01*
X106735619Y-98417142D01*
X107640380Y-99369523D02*
X107640380Y-98798095D01*
X107640380Y-99083809D02*
X106640380Y-99083809D01*
X106783238Y-98988571D01*
X106878476Y-98893333D01*
X106926095Y-98798095D01*
X106640380Y-99988571D02*
X106640380Y-100083809D01*
X106688000Y-100179047D01*
X106735619Y-100226666D01*
X106830857Y-100274285D01*
X107021333Y-100321904D01*
X107259428Y-100321904D01*
X107449904Y-100274285D01*
X107545142Y-100226666D01*
X107592761Y-100179047D01*
X107640380Y-100083809D01*
X107640380Y-99988571D01*
X107592761Y-99893333D01*
X107545142Y-99845714D01*
X107449904Y-99798095D01*
X107259428Y-99750476D01*
X107021333Y-99750476D01*
X106830857Y-99798095D01*
X106735619Y-99845714D01*
X106688000Y-99893333D01*
X106640380Y-99988571D01*
X141327142Y-90257333D02*
X141374761Y-90209714D01*
X141422380Y-90066857D01*
X141422380Y-89971619D01*
X141374761Y-89828761D01*
X141279523Y-89733523D01*
X141184285Y-89685904D01*
X140993809Y-89638285D01*
X140850952Y-89638285D01*
X140660476Y-89685904D01*
X140565238Y-89733523D01*
X140470000Y-89828761D01*
X140422380Y-89971619D01*
X140422380Y-90066857D01*
X140470000Y-90209714D01*
X140517619Y-90257333D01*
X140850952Y-90828761D02*
X140803333Y-90733523D01*
X140755714Y-90685904D01*
X140660476Y-90638285D01*
X140612857Y-90638285D01*
X140517619Y-90685904D01*
X140470000Y-90733523D01*
X140422380Y-90828761D01*
X140422380Y-91019238D01*
X140470000Y-91114476D01*
X140517619Y-91162095D01*
X140612857Y-91209714D01*
X140660476Y-91209714D01*
X140755714Y-91162095D01*
X140803333Y-91114476D01*
X140850952Y-91019238D01*
X140850952Y-90828761D01*
X140898571Y-90733523D01*
X140946190Y-90685904D01*
X141041428Y-90638285D01*
X141231904Y-90638285D01*
X141327142Y-90685904D01*
X141374761Y-90733523D01*
X141422380Y-90828761D01*
X141422380Y-91019238D01*
X141374761Y-91114476D01*
X141327142Y-91162095D01*
X141231904Y-91209714D01*
X141041428Y-91209714D01*
X140946190Y-91162095D01*
X140898571Y-91114476D01*
X140850952Y-91019238D01*
X136247142Y-90257333D02*
X136294761Y-90209714D01*
X136342380Y-90066857D01*
X136342380Y-89971619D01*
X136294761Y-89828761D01*
X136199523Y-89733523D01*
X136104285Y-89685904D01*
X135913809Y-89638285D01*
X135770952Y-89638285D01*
X135580476Y-89685904D01*
X135485238Y-89733523D01*
X135390000Y-89828761D01*
X135342380Y-89971619D01*
X135342380Y-90066857D01*
X135390000Y-90209714D01*
X135437619Y-90257333D01*
X135342380Y-90590666D02*
X135342380Y-91257333D01*
X136342380Y-90828761D01*
X120562666Y-84685142D02*
X120610285Y-84732761D01*
X120753142Y-84780380D01*
X120848380Y-84780380D01*
X120991238Y-84732761D01*
X121086476Y-84637523D01*
X121134095Y-84542285D01*
X121181714Y-84351809D01*
X121181714Y-84208952D01*
X121134095Y-84018476D01*
X121086476Y-83923238D01*
X120991238Y-83828000D01*
X120848380Y-83780380D01*
X120753142Y-83780380D01*
X120610285Y-83828000D01*
X120562666Y-83875619D01*
X119705523Y-83780380D02*
X119896000Y-83780380D01*
X119991238Y-83828000D01*
X120038857Y-83875619D01*
X120134095Y-84018476D01*
X120181714Y-84208952D01*
X120181714Y-84589904D01*
X120134095Y-84685142D01*
X120086476Y-84732761D01*
X119991238Y-84780380D01*
X119800761Y-84780380D01*
X119705523Y-84732761D01*
X119657904Y-84685142D01*
X119610285Y-84589904D01*
X119610285Y-84351809D01*
X119657904Y-84256571D01*
X119705523Y-84208952D01*
X119800761Y-84161333D01*
X119991238Y-84161333D01*
X120086476Y-84208952D01*
X120134095Y-84256571D01*
X120181714Y-84351809D01*
X137517142Y-83399333D02*
X137564761Y-83351714D01*
X137612380Y-83208857D01*
X137612380Y-83113619D01*
X137564761Y-82970761D01*
X137469523Y-82875523D01*
X137374285Y-82827904D01*
X137183809Y-82780285D01*
X137040952Y-82780285D01*
X136850476Y-82827904D01*
X136755238Y-82875523D01*
X136660000Y-82970761D01*
X136612380Y-83113619D01*
X136612380Y-83208857D01*
X136660000Y-83351714D01*
X136707619Y-83399333D01*
X136612380Y-84304095D02*
X136612380Y-83827904D01*
X137088571Y-83780285D01*
X137040952Y-83827904D01*
X136993333Y-83923142D01*
X136993333Y-84161238D01*
X137040952Y-84256476D01*
X137088571Y-84304095D01*
X137183809Y-84351714D01*
X137421904Y-84351714D01*
X137517142Y-84304095D01*
X137564761Y-84256476D01*
X137612380Y-84161238D01*
X137612380Y-83923142D01*
X137564761Y-83827904D01*
X137517142Y-83780285D01*
X162218666Y-90019142D02*
X162266285Y-90066761D01*
X162409142Y-90114380D01*
X162504380Y-90114380D01*
X162647238Y-90066761D01*
X162742476Y-89971523D01*
X162790095Y-89876285D01*
X162837714Y-89685809D01*
X162837714Y-89542952D01*
X162790095Y-89352476D01*
X162742476Y-89257238D01*
X162647238Y-89162000D01*
X162504380Y-89114380D01*
X162409142Y-89114380D01*
X162266285Y-89162000D01*
X162218666Y-89209619D01*
X161361523Y-89447714D02*
X161361523Y-90114380D01*
X161599619Y-89066761D02*
X161837714Y-89781047D01*
X161218666Y-89781047D01*
X162218666Y-81383142D02*
X162266285Y-81430761D01*
X162409142Y-81478380D01*
X162504380Y-81478380D01*
X162647238Y-81430761D01*
X162742476Y-81335523D01*
X162790095Y-81240285D01*
X162837714Y-81049809D01*
X162837714Y-80906952D01*
X162790095Y-80716476D01*
X162742476Y-80621238D01*
X162647238Y-80526000D01*
X162504380Y-80478380D01*
X162409142Y-80478380D01*
X162266285Y-80526000D01*
X162218666Y-80573619D01*
X161885333Y-80478380D02*
X161266285Y-80478380D01*
X161599619Y-80859333D01*
X161456761Y-80859333D01*
X161361523Y-80906952D01*
X161313904Y-80954571D01*
X161266285Y-81049809D01*
X161266285Y-81287904D01*
X161313904Y-81383142D01*
X161361523Y-81430761D01*
X161456761Y-81478380D01*
X161742476Y-81478380D01*
X161837714Y-81430761D01*
X161885333Y-81383142D01*
X117552380Y-79457142D02*
X117076190Y-79123809D01*
X117552380Y-78885714D02*
X116552380Y-78885714D01*
X116552380Y-79266666D01*
X116600000Y-79361904D01*
X116647619Y-79409523D01*
X116742857Y-79457142D01*
X116885714Y-79457142D01*
X116980952Y-79409523D01*
X117028571Y-79361904D01*
X117076190Y-79266666D01*
X117076190Y-78885714D01*
X116552380Y-79790476D02*
X116552380Y-80409523D01*
X116933333Y-80076190D01*
X116933333Y-80219047D01*
X116980952Y-80314285D01*
X117028571Y-80361904D01*
X117123809Y-80409523D01*
X117361904Y-80409523D01*
X117457142Y-80361904D01*
X117504761Y-80314285D01*
X117552380Y-80219047D01*
X117552380Y-79933333D01*
X117504761Y-79838095D01*
X117457142Y-79790476D01*
X116552380Y-80742857D02*
X116552380Y-81361904D01*
X116933333Y-81028571D01*
X116933333Y-81171428D01*
X116980952Y-81266666D01*
X117028571Y-81314285D01*
X117123809Y-81361904D01*
X117361904Y-81361904D01*
X117457142Y-81314285D01*
X117504761Y-81266666D01*
X117552380Y-81171428D01*
X117552380Y-80885714D01*
X117504761Y-80790476D01*
X117457142Y-80742857D01*
X107894380Y-72509142D02*
X107418190Y-72175809D01*
X107894380Y-71937714D02*
X106894380Y-71937714D01*
X106894380Y-72318666D01*
X106942000Y-72413904D01*
X106989619Y-72461523D01*
X107084857Y-72509142D01*
X107227714Y-72509142D01*
X107322952Y-72461523D01*
X107370571Y-72413904D01*
X107418190Y-72318666D01*
X107418190Y-71937714D01*
X106894380Y-72842476D02*
X106894380Y-73461523D01*
X107275333Y-73128190D01*
X107275333Y-73271047D01*
X107322952Y-73366285D01*
X107370571Y-73413904D01*
X107465809Y-73461523D01*
X107703904Y-73461523D01*
X107799142Y-73413904D01*
X107846761Y-73366285D01*
X107894380Y-73271047D01*
X107894380Y-72985333D01*
X107846761Y-72890095D01*
X107799142Y-72842476D01*
X106989619Y-73842476D02*
X106942000Y-73890095D01*
X106894380Y-73985333D01*
X106894380Y-74223428D01*
X106942000Y-74318666D01*
X106989619Y-74366285D01*
X107084857Y-74413904D01*
X107180095Y-74413904D01*
X107322952Y-74366285D01*
X107894380Y-73794857D01*
X107894380Y-74413904D01*
X168917857Y-104117380D02*
X169251190Y-103641190D01*
X169489285Y-104117380D02*
X169489285Y-103117380D01*
X169108333Y-103117380D01*
X169013095Y-103165000D01*
X168965476Y-103212619D01*
X168917857Y-103307857D01*
X168917857Y-103450714D01*
X168965476Y-103545952D01*
X169013095Y-103593571D01*
X169108333Y-103641190D01*
X169489285Y-103641190D01*
X168584523Y-103117380D02*
X167965476Y-103117380D01*
X168298809Y-103498333D01*
X168155952Y-103498333D01*
X168060714Y-103545952D01*
X168013095Y-103593571D01*
X167965476Y-103688809D01*
X167965476Y-103926904D01*
X168013095Y-104022142D01*
X168060714Y-104069761D01*
X168155952Y-104117380D01*
X168441666Y-104117380D01*
X168536904Y-104069761D01*
X168584523Y-104022142D01*
X167013095Y-104117380D02*
X167584523Y-104117380D01*
X167298809Y-104117380D02*
X167298809Y-103117380D01*
X167394047Y-103260238D01*
X167489285Y-103355476D01*
X167584523Y-103403095D01*
X117132380Y-87102142D02*
X116656190Y-86768809D01*
X117132380Y-86530714D02*
X116132380Y-86530714D01*
X116132380Y-86911666D01*
X116180000Y-87006904D01*
X116227619Y-87054523D01*
X116322857Y-87102142D01*
X116465714Y-87102142D01*
X116560952Y-87054523D01*
X116608571Y-87006904D01*
X116656190Y-86911666D01*
X116656190Y-86530714D01*
X116132380Y-87435476D02*
X116132380Y-88054523D01*
X116513333Y-87721190D01*
X116513333Y-87864047D01*
X116560952Y-87959285D01*
X116608571Y-88006904D01*
X116703809Y-88054523D01*
X116941904Y-88054523D01*
X117037142Y-88006904D01*
X117084761Y-87959285D01*
X117132380Y-87864047D01*
X117132380Y-87578333D01*
X117084761Y-87483095D01*
X117037142Y-87435476D01*
X116132380Y-88673571D02*
X116132380Y-88768809D01*
X116180000Y-88864047D01*
X116227619Y-88911666D01*
X116322857Y-88959285D01*
X116513333Y-89006904D01*
X116751428Y-89006904D01*
X116941904Y-88959285D01*
X117037142Y-88911666D01*
X117084761Y-88864047D01*
X117132380Y-88768809D01*
X117132380Y-88673571D01*
X117084761Y-88578333D01*
X117037142Y-88530714D01*
X116941904Y-88483095D01*
X116751428Y-88435476D01*
X116513333Y-88435476D01*
X116322857Y-88483095D01*
X116227619Y-88530714D01*
X116180000Y-88578333D01*
X116132380Y-88673571D01*
X111450380Y-73779142D02*
X110974190Y-73445809D01*
X111450380Y-73207714D02*
X110450380Y-73207714D01*
X110450380Y-73588666D01*
X110498000Y-73683904D01*
X110545619Y-73731523D01*
X110640857Y-73779142D01*
X110783714Y-73779142D01*
X110878952Y-73731523D01*
X110926571Y-73683904D01*
X110974190Y-73588666D01*
X110974190Y-73207714D01*
X110545619Y-74160095D02*
X110498000Y-74207714D01*
X110450380Y-74302952D01*
X110450380Y-74541047D01*
X110498000Y-74636285D01*
X110545619Y-74683904D01*
X110640857Y-74731523D01*
X110736095Y-74731523D01*
X110878952Y-74683904D01*
X111450380Y-74112476D01*
X111450380Y-74731523D01*
X111450380Y-75207714D02*
X111450380Y-75398190D01*
X111402761Y-75493428D01*
X111355142Y-75541047D01*
X111212285Y-75636285D01*
X111021809Y-75683904D01*
X110640857Y-75683904D01*
X110545619Y-75636285D01*
X110498000Y-75588666D01*
X110450380Y-75493428D01*
X110450380Y-75302952D01*
X110498000Y-75207714D01*
X110545619Y-75160095D01*
X110640857Y-75112476D01*
X110878952Y-75112476D01*
X110974190Y-75160095D01*
X111021809Y-75207714D01*
X111069428Y-75302952D01*
X111069428Y-75493428D01*
X111021809Y-75588666D01*
X110974190Y-75636285D01*
X110878952Y-75683904D01*
X120627380Y-100957142D02*
X120151190Y-100623809D01*
X120627380Y-100385714D02*
X119627380Y-100385714D01*
X119627380Y-100766666D01*
X119675000Y-100861904D01*
X119722619Y-100909523D01*
X119817857Y-100957142D01*
X119960714Y-100957142D01*
X120055952Y-100909523D01*
X120103571Y-100861904D01*
X120151190Y-100766666D01*
X120151190Y-100385714D01*
X119722619Y-101338095D02*
X119675000Y-101385714D01*
X119627380Y-101480952D01*
X119627380Y-101719047D01*
X119675000Y-101814285D01*
X119722619Y-101861904D01*
X119817857Y-101909523D01*
X119913095Y-101909523D01*
X120055952Y-101861904D01*
X120627380Y-101290476D01*
X120627380Y-101909523D01*
X120055952Y-102480952D02*
X120008333Y-102385714D01*
X119960714Y-102338095D01*
X119865476Y-102290476D01*
X119817857Y-102290476D01*
X119722619Y-102338095D01*
X119675000Y-102385714D01*
X119627380Y-102480952D01*
X119627380Y-102671428D01*
X119675000Y-102766666D01*
X119722619Y-102814285D01*
X119817857Y-102861904D01*
X119865476Y-102861904D01*
X119960714Y-102814285D01*
X120008333Y-102766666D01*
X120055952Y-102671428D01*
X120055952Y-102480952D01*
X120103571Y-102385714D01*
X120151190Y-102338095D01*
X120246428Y-102290476D01*
X120436904Y-102290476D01*
X120532142Y-102338095D01*
X120579761Y-102385714D01*
X120627380Y-102480952D01*
X120627380Y-102671428D01*
X120579761Y-102766666D01*
X120532142Y-102814285D01*
X120436904Y-102861904D01*
X120246428Y-102861904D01*
X120151190Y-102814285D01*
X120103571Y-102766666D01*
X120055952Y-102671428D01*
X112466380Y-104005142D02*
X111990190Y-103671809D01*
X112466380Y-103433714D02*
X111466380Y-103433714D01*
X111466380Y-103814666D01*
X111514000Y-103909904D01*
X111561619Y-103957523D01*
X111656857Y-104005142D01*
X111799714Y-104005142D01*
X111894952Y-103957523D01*
X111942571Y-103909904D01*
X111990190Y-103814666D01*
X111990190Y-103433714D01*
X111561619Y-104386095D02*
X111514000Y-104433714D01*
X111466380Y-104528952D01*
X111466380Y-104767047D01*
X111514000Y-104862285D01*
X111561619Y-104909904D01*
X111656857Y-104957523D01*
X111752095Y-104957523D01*
X111894952Y-104909904D01*
X112466380Y-104338476D01*
X112466380Y-104957523D01*
X111466380Y-105290857D02*
X111466380Y-105957523D01*
X112466380Y-105528952D01*
X157424380Y-73525142D02*
X156948190Y-73191809D01*
X157424380Y-72953714D02*
X156424380Y-72953714D01*
X156424380Y-73334666D01*
X156472000Y-73429904D01*
X156519619Y-73477523D01*
X156614857Y-73525142D01*
X156757714Y-73525142D01*
X156852952Y-73477523D01*
X156900571Y-73429904D01*
X156948190Y-73334666D01*
X156948190Y-72953714D01*
X156519619Y-73906095D02*
X156472000Y-73953714D01*
X156424380Y-74048952D01*
X156424380Y-74287047D01*
X156472000Y-74382285D01*
X156519619Y-74429904D01*
X156614857Y-74477523D01*
X156710095Y-74477523D01*
X156852952Y-74429904D01*
X157424380Y-73858476D01*
X157424380Y-74477523D01*
X156424380Y-75334666D02*
X156424380Y-75144190D01*
X156472000Y-75048952D01*
X156519619Y-75001333D01*
X156662476Y-74906095D01*
X156852952Y-74858476D01*
X157233904Y-74858476D01*
X157329142Y-74906095D01*
X157376761Y-74953714D01*
X157424380Y-75048952D01*
X157424380Y-75239428D01*
X157376761Y-75334666D01*
X157329142Y-75382285D01*
X157233904Y-75429904D01*
X156995809Y-75429904D01*
X156900571Y-75382285D01*
X156852952Y-75334666D01*
X156805333Y-75239428D01*
X156805333Y-75048952D01*
X156852952Y-74953714D01*
X156900571Y-74906095D01*
X156995809Y-74858476D01*
X159964380Y-73525142D02*
X159488190Y-73191809D01*
X159964380Y-72953714D02*
X158964380Y-72953714D01*
X158964380Y-73334666D01*
X159012000Y-73429904D01*
X159059619Y-73477523D01*
X159154857Y-73525142D01*
X159297714Y-73525142D01*
X159392952Y-73477523D01*
X159440571Y-73429904D01*
X159488190Y-73334666D01*
X159488190Y-72953714D01*
X159059619Y-73906095D02*
X159012000Y-73953714D01*
X158964380Y-74048952D01*
X158964380Y-74287047D01*
X159012000Y-74382285D01*
X159059619Y-74429904D01*
X159154857Y-74477523D01*
X159250095Y-74477523D01*
X159392952Y-74429904D01*
X159964380Y-73858476D01*
X159964380Y-74477523D01*
X158964380Y-75382285D02*
X158964380Y-74906095D01*
X159440571Y-74858476D01*
X159392952Y-74906095D01*
X159345333Y-75001333D01*
X159345333Y-75239428D01*
X159392952Y-75334666D01*
X159440571Y-75382285D01*
X159535809Y-75429904D01*
X159773904Y-75429904D01*
X159869142Y-75382285D01*
X159916761Y-75334666D01*
X159964380Y-75239428D01*
X159964380Y-75001333D01*
X159916761Y-74906095D01*
X159869142Y-74858476D01*
X119832380Y-88257142D02*
X119356190Y-87923809D01*
X119832380Y-87685714D02*
X118832380Y-87685714D01*
X118832380Y-88066666D01*
X118880000Y-88161904D01*
X118927619Y-88209523D01*
X119022857Y-88257142D01*
X119165714Y-88257142D01*
X119260952Y-88209523D01*
X119308571Y-88161904D01*
X119356190Y-88066666D01*
X119356190Y-87685714D01*
X118927619Y-88638095D02*
X118880000Y-88685714D01*
X118832380Y-88780952D01*
X118832380Y-89019047D01*
X118880000Y-89114285D01*
X118927619Y-89161904D01*
X119022857Y-89209523D01*
X119118095Y-89209523D01*
X119260952Y-89161904D01*
X119832380Y-88590476D01*
X119832380Y-89209523D01*
X118832380Y-89542857D02*
X118832380Y-90161904D01*
X119213333Y-89828571D01*
X119213333Y-89971428D01*
X119260952Y-90066666D01*
X119308571Y-90114285D01*
X119403809Y-90161904D01*
X119641904Y-90161904D01*
X119737142Y-90114285D01*
X119784761Y-90066666D01*
X119832380Y-89971428D01*
X119832380Y-89685714D01*
X119784761Y-89590476D01*
X119737142Y-89542857D01*
X153360380Y-73525142D02*
X152884190Y-73191809D01*
X153360380Y-72953714D02*
X152360380Y-72953714D01*
X152360380Y-73334666D01*
X152408000Y-73429904D01*
X152455619Y-73477523D01*
X152550857Y-73525142D01*
X152693714Y-73525142D01*
X152788952Y-73477523D01*
X152836571Y-73429904D01*
X152884190Y-73334666D01*
X152884190Y-72953714D01*
X152455619Y-73906095D02*
X152408000Y-73953714D01*
X152360380Y-74048952D01*
X152360380Y-74287047D01*
X152408000Y-74382285D01*
X152455619Y-74429904D01*
X152550857Y-74477523D01*
X152646095Y-74477523D01*
X152788952Y-74429904D01*
X153360380Y-73858476D01*
X153360380Y-74477523D01*
X152455619Y-74858476D02*
X152408000Y-74906095D01*
X152360380Y-75001333D01*
X152360380Y-75239428D01*
X152408000Y-75334666D01*
X152455619Y-75382285D01*
X152550857Y-75429904D01*
X152646095Y-75429904D01*
X152788952Y-75382285D01*
X153360380Y-74810857D01*
X153360380Y-75429904D01*
X135166380Y-73525142D02*
X134690190Y-73191809D01*
X135166380Y-72953714D02*
X134166380Y-72953714D01*
X134166380Y-73334666D01*
X134214000Y-73429904D01*
X134261619Y-73477523D01*
X134356857Y-73525142D01*
X134499714Y-73525142D01*
X134594952Y-73477523D01*
X134642571Y-73429904D01*
X134690190Y-73334666D01*
X134690190Y-72953714D01*
X134261619Y-73906095D02*
X134214000Y-73953714D01*
X134166380Y-74048952D01*
X134166380Y-74287047D01*
X134214000Y-74382285D01*
X134261619Y-74429904D01*
X134356857Y-74477523D01*
X134452095Y-74477523D01*
X134594952Y-74429904D01*
X135166380Y-73858476D01*
X135166380Y-74477523D01*
X135166380Y-75429904D02*
X135166380Y-74858476D01*
X135166380Y-75144190D02*
X134166380Y-75144190D01*
X134309238Y-75048952D01*
X134404476Y-74953714D01*
X134452095Y-74858476D01*
X128816380Y-73525142D02*
X128340190Y-73191809D01*
X128816380Y-72953714D02*
X127816380Y-72953714D01*
X127816380Y-73334666D01*
X127864000Y-73429904D01*
X127911619Y-73477523D01*
X128006857Y-73525142D01*
X128149714Y-73525142D01*
X128244952Y-73477523D01*
X128292571Y-73429904D01*
X128340190Y-73334666D01*
X128340190Y-72953714D01*
X127911619Y-73906095D02*
X127864000Y-73953714D01*
X127816380Y-74048952D01*
X127816380Y-74287047D01*
X127864000Y-74382285D01*
X127911619Y-74429904D01*
X128006857Y-74477523D01*
X128102095Y-74477523D01*
X128244952Y-74429904D01*
X128816380Y-73858476D01*
X128816380Y-74477523D01*
X127816380Y-75096571D02*
X127816380Y-75191809D01*
X127864000Y-75287047D01*
X127911619Y-75334666D01*
X128006857Y-75382285D01*
X128197333Y-75429904D01*
X128435428Y-75429904D01*
X128625904Y-75382285D01*
X128721142Y-75334666D01*
X128768761Y-75287047D01*
X128816380Y-75191809D01*
X128816380Y-75096571D01*
X128768761Y-75001333D01*
X128721142Y-74953714D01*
X128625904Y-74906095D01*
X128435428Y-74858476D01*
X128197333Y-74858476D01*
X128006857Y-74906095D01*
X127911619Y-74953714D01*
X127864000Y-75001333D01*
X127816380Y-75096571D01*
X133040380Y-73525142D02*
X132564190Y-73191809D01*
X133040380Y-72953714D02*
X132040380Y-72953714D01*
X132040380Y-73334666D01*
X132088000Y-73429904D01*
X132135619Y-73477523D01*
X132230857Y-73525142D01*
X132373714Y-73525142D01*
X132468952Y-73477523D01*
X132516571Y-73429904D01*
X132564190Y-73334666D01*
X132564190Y-72953714D01*
X133040380Y-74477523D02*
X133040380Y-73906095D01*
X133040380Y-74191809D02*
X132040380Y-74191809D01*
X132183238Y-74096571D01*
X132278476Y-74001333D01*
X132326095Y-73906095D01*
X133040380Y-74953714D02*
X133040380Y-75144190D01*
X132992761Y-75239428D01*
X132945142Y-75287047D01*
X132802285Y-75382285D01*
X132611809Y-75429904D01*
X132230857Y-75429904D01*
X132135619Y-75382285D01*
X132088000Y-75334666D01*
X132040380Y-75239428D01*
X132040380Y-75048952D01*
X132088000Y-74953714D01*
X132135619Y-74906095D01*
X132230857Y-74858476D01*
X132468952Y-74858476D01*
X132564190Y-74906095D01*
X132611809Y-74953714D01*
X132659428Y-75048952D01*
X132659428Y-75239428D01*
X132611809Y-75334666D01*
X132564190Y-75382285D01*
X132468952Y-75429904D01*
X123482380Y-100957142D02*
X123006190Y-100623809D01*
X123482380Y-100385714D02*
X122482380Y-100385714D01*
X122482380Y-100766666D01*
X122530000Y-100861904D01*
X122577619Y-100909523D01*
X122672857Y-100957142D01*
X122815714Y-100957142D01*
X122910952Y-100909523D01*
X122958571Y-100861904D01*
X123006190Y-100766666D01*
X123006190Y-100385714D01*
X123482380Y-101909523D02*
X123482380Y-101338095D01*
X123482380Y-101623809D02*
X122482380Y-101623809D01*
X122625238Y-101528571D01*
X122720476Y-101433333D01*
X122768095Y-101338095D01*
X122910952Y-102480952D02*
X122863333Y-102385714D01*
X122815714Y-102338095D01*
X122720476Y-102290476D01*
X122672857Y-102290476D01*
X122577619Y-102338095D01*
X122530000Y-102385714D01*
X122482380Y-102480952D01*
X122482380Y-102671428D01*
X122530000Y-102766666D01*
X122577619Y-102814285D01*
X122672857Y-102861904D01*
X122720476Y-102861904D01*
X122815714Y-102814285D01*
X122863333Y-102766666D01*
X122910952Y-102671428D01*
X122910952Y-102480952D01*
X122958571Y-102385714D01*
X123006190Y-102338095D01*
X123101428Y-102290476D01*
X123291904Y-102290476D01*
X123387142Y-102338095D01*
X123434761Y-102385714D01*
X123482380Y-102480952D01*
X123482380Y-102671428D01*
X123434761Y-102766666D01*
X123387142Y-102814285D01*
X123291904Y-102861904D01*
X123101428Y-102861904D01*
X123006190Y-102814285D01*
X122958571Y-102766666D01*
X122910952Y-102671428D01*
X135382380Y-100931642D02*
X134906190Y-100598309D01*
X135382380Y-100360214D02*
X134382380Y-100360214D01*
X134382380Y-100741166D01*
X134430000Y-100836404D01*
X134477619Y-100884023D01*
X134572857Y-100931642D01*
X134715714Y-100931642D01*
X134810952Y-100884023D01*
X134858571Y-100836404D01*
X134906190Y-100741166D01*
X134906190Y-100360214D01*
X135382380Y-101884023D02*
X135382380Y-101312595D01*
X135382380Y-101598309D02*
X134382380Y-101598309D01*
X134525238Y-101503071D01*
X134620476Y-101407833D01*
X134668095Y-101312595D01*
X134382380Y-102217357D02*
X134382380Y-102884023D01*
X135382380Y-102455452D01*
X130882380Y-100931642D02*
X130406190Y-100598309D01*
X130882380Y-100360214D02*
X129882380Y-100360214D01*
X129882380Y-100741166D01*
X129930000Y-100836404D01*
X129977619Y-100884023D01*
X130072857Y-100931642D01*
X130215714Y-100931642D01*
X130310952Y-100884023D01*
X130358571Y-100836404D01*
X130406190Y-100741166D01*
X130406190Y-100360214D01*
X130882380Y-101884023D02*
X130882380Y-101312595D01*
X130882380Y-101598309D02*
X129882380Y-101598309D01*
X130025238Y-101503071D01*
X130120476Y-101407833D01*
X130168095Y-101312595D01*
X129882380Y-102741166D02*
X129882380Y-102550690D01*
X129930000Y-102455452D01*
X129977619Y-102407833D01*
X130120476Y-102312595D01*
X130310952Y-102264976D01*
X130691904Y-102264976D01*
X130787142Y-102312595D01*
X130834761Y-102360214D01*
X130882380Y-102455452D01*
X130882380Y-102645928D01*
X130834761Y-102741166D01*
X130787142Y-102788785D01*
X130691904Y-102836404D01*
X130453809Y-102836404D01*
X130358571Y-102788785D01*
X130310952Y-102741166D01*
X130263333Y-102645928D01*
X130263333Y-102455452D01*
X130310952Y-102360214D01*
X130358571Y-102312595D01*
X130453809Y-102264976D01*
X146977380Y-88257142D02*
X146501190Y-87923809D01*
X146977380Y-87685714D02*
X145977380Y-87685714D01*
X145977380Y-88066666D01*
X146025000Y-88161904D01*
X146072619Y-88209523D01*
X146167857Y-88257142D01*
X146310714Y-88257142D01*
X146405952Y-88209523D01*
X146453571Y-88161904D01*
X146501190Y-88066666D01*
X146501190Y-87685714D01*
X146977380Y-89209523D02*
X146977380Y-88638095D01*
X146977380Y-88923809D02*
X145977380Y-88923809D01*
X146120238Y-88828571D01*
X146215476Y-88733333D01*
X146263095Y-88638095D01*
X145977380Y-90114285D02*
X145977380Y-89638095D01*
X146453571Y-89590476D01*
X146405952Y-89638095D01*
X146358333Y-89733333D01*
X146358333Y-89971428D01*
X146405952Y-90066666D01*
X146453571Y-90114285D01*
X146548809Y-90161904D01*
X146786904Y-90161904D01*
X146882142Y-90114285D01*
X146929761Y-90066666D01*
X146977380Y-89971428D01*
X146977380Y-89733333D01*
X146929761Y-89638095D01*
X146882142Y-89590476D01*
X157868857Y-93162380D02*
X158202190Y-92686190D01*
X158440285Y-93162380D02*
X158440285Y-92162380D01*
X158059333Y-92162380D01*
X157964095Y-92210000D01*
X157916476Y-92257619D01*
X157868857Y-92352857D01*
X157868857Y-92495714D01*
X157916476Y-92590952D01*
X157964095Y-92638571D01*
X158059333Y-92686190D01*
X158440285Y-92686190D01*
X156916476Y-93162380D02*
X157487904Y-93162380D01*
X157202190Y-93162380D02*
X157202190Y-92162380D01*
X157297428Y-92305238D01*
X157392666Y-92400476D01*
X157487904Y-92448095D01*
X156059333Y-92495714D02*
X156059333Y-93162380D01*
X156297428Y-92114761D02*
X156535523Y-92829047D01*
X155916476Y-92829047D01*
X157868857Y-98242380D02*
X158202190Y-97766190D01*
X158440285Y-98242380D02*
X158440285Y-97242380D01*
X158059333Y-97242380D01*
X157964095Y-97290000D01*
X157916476Y-97337619D01*
X157868857Y-97432857D01*
X157868857Y-97575714D01*
X157916476Y-97670952D01*
X157964095Y-97718571D01*
X158059333Y-97766190D01*
X158440285Y-97766190D01*
X156916476Y-98242380D02*
X157487904Y-98242380D01*
X157202190Y-98242380D02*
X157202190Y-97242380D01*
X157297428Y-97385238D01*
X157392666Y-97480476D01*
X157487904Y-97528095D01*
X156583142Y-97242380D02*
X155964095Y-97242380D01*
X156297428Y-97623333D01*
X156154571Y-97623333D01*
X156059333Y-97670952D01*
X156011714Y-97718571D01*
X155964095Y-97813809D01*
X155964095Y-98051904D01*
X156011714Y-98147142D01*
X156059333Y-98194761D01*
X156154571Y-98242380D01*
X156440285Y-98242380D01*
X156535523Y-98194761D01*
X156583142Y-98147142D01*
X140850857Y-81732380D02*
X141184190Y-81256190D01*
X141422285Y-81732380D02*
X141422285Y-80732380D01*
X141041333Y-80732380D01*
X140946095Y-80780000D01*
X140898476Y-80827619D01*
X140850857Y-80922857D01*
X140850857Y-81065714D01*
X140898476Y-81160952D01*
X140946095Y-81208571D01*
X141041333Y-81256190D01*
X141422285Y-81256190D01*
X139898476Y-81732380D02*
X140469904Y-81732380D01*
X140184190Y-81732380D02*
X140184190Y-80732380D01*
X140279428Y-80875238D01*
X140374666Y-80970476D01*
X140469904Y-81018095D01*
X139517523Y-80827619D02*
X139469904Y-80780000D01*
X139374666Y-80732380D01*
X139136571Y-80732380D01*
X139041333Y-80780000D01*
X138993714Y-80827619D01*
X138946095Y-80922857D01*
X138946095Y-81018095D01*
X138993714Y-81160952D01*
X139565142Y-81732380D01*
X138946095Y-81732380D01*
X140850857Y-79954380D02*
X141184190Y-79478190D01*
X141422285Y-79954380D02*
X141422285Y-78954380D01*
X141041333Y-78954380D01*
X140946095Y-79002000D01*
X140898476Y-79049619D01*
X140850857Y-79144857D01*
X140850857Y-79287714D01*
X140898476Y-79382952D01*
X140946095Y-79430571D01*
X141041333Y-79478190D01*
X141422285Y-79478190D01*
X139898476Y-79954380D02*
X140469904Y-79954380D01*
X140184190Y-79954380D02*
X140184190Y-78954380D01*
X140279428Y-79097238D01*
X140374666Y-79192476D01*
X140469904Y-79240095D01*
X138946095Y-79954380D02*
X139517523Y-79954380D01*
X139231809Y-79954380D02*
X139231809Y-78954380D01*
X139327047Y-79097238D01*
X139422285Y-79192476D01*
X139517523Y-79240095D01*
X124404380Y-88511142D02*
X123928190Y-88177809D01*
X124404380Y-87939714D02*
X123404380Y-87939714D01*
X123404380Y-88320666D01*
X123452000Y-88415904D01*
X123499619Y-88463523D01*
X123594857Y-88511142D01*
X123737714Y-88511142D01*
X123832952Y-88463523D01*
X123880571Y-88415904D01*
X123928190Y-88320666D01*
X123928190Y-87939714D01*
X124404380Y-89463523D02*
X124404380Y-88892095D01*
X124404380Y-89177809D02*
X123404380Y-89177809D01*
X123547238Y-89082571D01*
X123642476Y-88987333D01*
X123690095Y-88892095D01*
X123404380Y-90082571D02*
X123404380Y-90177809D01*
X123452000Y-90273047D01*
X123499619Y-90320666D01*
X123594857Y-90368285D01*
X123785333Y-90415904D01*
X124023428Y-90415904D01*
X124213904Y-90368285D01*
X124309142Y-90320666D01*
X124356761Y-90273047D01*
X124404380Y-90177809D01*
X124404380Y-90082571D01*
X124356761Y-89987333D01*
X124309142Y-89939714D01*
X124213904Y-89892095D01*
X124023428Y-89844476D01*
X123785333Y-89844476D01*
X123594857Y-89892095D01*
X123499619Y-89939714D01*
X123452000Y-89987333D01*
X123404380Y-90082571D01*
X150566380Y-82383333D02*
X150090190Y-82050000D01*
X150566380Y-81811904D02*
X149566380Y-81811904D01*
X149566380Y-82192857D01*
X149614000Y-82288095D01*
X149661619Y-82335714D01*
X149756857Y-82383333D01*
X149899714Y-82383333D01*
X149994952Y-82335714D01*
X150042571Y-82288095D01*
X150090190Y-82192857D01*
X150090190Y-81811904D01*
X150566380Y-82859523D02*
X150566380Y-83050000D01*
X150518761Y-83145238D01*
X150471142Y-83192857D01*
X150328285Y-83288095D01*
X150137809Y-83335714D01*
X149756857Y-83335714D01*
X149661619Y-83288095D01*
X149614000Y-83240476D01*
X149566380Y-83145238D01*
X149566380Y-82954761D01*
X149614000Y-82859523D01*
X149661619Y-82811904D01*
X149756857Y-82764285D01*
X149994952Y-82764285D01*
X150090190Y-82811904D01*
X150137809Y-82859523D01*
X150185428Y-82954761D01*
X150185428Y-83145238D01*
X150137809Y-83240476D01*
X150090190Y-83288095D01*
X149994952Y-83335714D01*
X154630380Y-82383333D02*
X154154190Y-82050000D01*
X154630380Y-81811904D02*
X153630380Y-81811904D01*
X153630380Y-82192857D01*
X153678000Y-82288095D01*
X153725619Y-82335714D01*
X153820857Y-82383333D01*
X153963714Y-82383333D01*
X154058952Y-82335714D01*
X154106571Y-82288095D01*
X154154190Y-82192857D01*
X154154190Y-81811904D01*
X154058952Y-82954761D02*
X154011333Y-82859523D01*
X153963714Y-82811904D01*
X153868476Y-82764285D01*
X153820857Y-82764285D01*
X153725619Y-82811904D01*
X153678000Y-82859523D01*
X153630380Y-82954761D01*
X153630380Y-83145238D01*
X153678000Y-83240476D01*
X153725619Y-83288095D01*
X153820857Y-83335714D01*
X153868476Y-83335714D01*
X153963714Y-83288095D01*
X154011333Y-83240476D01*
X154058952Y-83145238D01*
X154058952Y-82954761D01*
X154106571Y-82859523D01*
X154154190Y-82811904D01*
X154249428Y-82764285D01*
X154439904Y-82764285D01*
X154535142Y-82811904D01*
X154582761Y-82859523D01*
X154630380Y-82954761D01*
X154630380Y-83145238D01*
X154582761Y-83240476D01*
X154535142Y-83288095D01*
X154439904Y-83335714D01*
X154249428Y-83335714D01*
X154154190Y-83288095D01*
X154106571Y-83240476D01*
X154058952Y-83145238D01*
X152852380Y-82383333D02*
X152376190Y-82050000D01*
X152852380Y-81811904D02*
X151852380Y-81811904D01*
X151852380Y-82192857D01*
X151900000Y-82288095D01*
X151947619Y-82335714D01*
X152042857Y-82383333D01*
X152185714Y-82383333D01*
X152280952Y-82335714D01*
X152328571Y-82288095D01*
X152376190Y-82192857D01*
X152376190Y-81811904D01*
X151852380Y-82716666D02*
X151852380Y-83383333D01*
X152852380Y-82954761D01*
X114752380Y-73747333D02*
X114276190Y-73414000D01*
X114752380Y-73175904D02*
X113752380Y-73175904D01*
X113752380Y-73556857D01*
X113800000Y-73652095D01*
X113847619Y-73699714D01*
X113942857Y-73747333D01*
X114085714Y-73747333D01*
X114180952Y-73699714D01*
X114228571Y-73652095D01*
X114276190Y-73556857D01*
X114276190Y-73175904D01*
X113752380Y-74604476D02*
X113752380Y-74414000D01*
X113800000Y-74318761D01*
X113847619Y-74271142D01*
X113990476Y-74175904D01*
X114180952Y-74128285D01*
X114561904Y-74128285D01*
X114657142Y-74175904D01*
X114704761Y-74223523D01*
X114752380Y-74318761D01*
X114752380Y-74509238D01*
X114704761Y-74604476D01*
X114657142Y-74652095D01*
X114561904Y-74699714D01*
X114323809Y-74699714D01*
X114228571Y-74652095D01*
X114180952Y-74604476D01*
X114133333Y-74509238D01*
X114133333Y-74318761D01*
X114180952Y-74223523D01*
X114228571Y-74175904D01*
X114323809Y-74128285D01*
X139644380Y-73493333D02*
X139168190Y-73160000D01*
X139644380Y-72921904D02*
X138644380Y-72921904D01*
X138644380Y-73302857D01*
X138692000Y-73398095D01*
X138739619Y-73445714D01*
X138834857Y-73493333D01*
X138977714Y-73493333D01*
X139072952Y-73445714D01*
X139120571Y-73398095D01*
X139168190Y-73302857D01*
X139168190Y-72921904D01*
X138644380Y-74398095D02*
X138644380Y-73921904D01*
X139120571Y-73874285D01*
X139072952Y-73921904D01*
X139025333Y-74017142D01*
X139025333Y-74255238D01*
X139072952Y-74350476D01*
X139120571Y-74398095D01*
X139215809Y-74445714D01*
X139453904Y-74445714D01*
X139549142Y-74398095D01*
X139596761Y-74350476D01*
X139644380Y-74255238D01*
X139644380Y-74017142D01*
X139596761Y-73921904D01*
X139549142Y-73874285D01*
X118054380Y-73747333D02*
X117578190Y-73414000D01*
X118054380Y-73175904D02*
X117054380Y-73175904D01*
X117054380Y-73556857D01*
X117102000Y-73652095D01*
X117149619Y-73699714D01*
X117244857Y-73747333D01*
X117387714Y-73747333D01*
X117482952Y-73699714D01*
X117530571Y-73652095D01*
X117578190Y-73556857D01*
X117578190Y-73175904D01*
X117387714Y-74604476D02*
X118054380Y-74604476D01*
X117006761Y-74366380D02*
X117721047Y-74128285D01*
X117721047Y-74747333D01*
X126546380Y-73747333D02*
X126070190Y-73414000D01*
X126546380Y-73175904D02*
X125546380Y-73175904D01*
X125546380Y-73556857D01*
X125594000Y-73652095D01*
X125641619Y-73699714D01*
X125736857Y-73747333D01*
X125879714Y-73747333D01*
X125974952Y-73699714D01*
X126022571Y-73652095D01*
X126070190Y-73556857D01*
X126070190Y-73175904D01*
X125546380Y-74080666D02*
X125546380Y-74699714D01*
X125927333Y-74366380D01*
X125927333Y-74509238D01*
X125974952Y-74604476D01*
X126022571Y-74652095D01*
X126117809Y-74699714D01*
X126355904Y-74699714D01*
X126451142Y-74652095D01*
X126498761Y-74604476D01*
X126546380Y-74509238D01*
X126546380Y-74223523D01*
X126498761Y-74128285D01*
X126451142Y-74080666D01*
X123736380Y-73747333D02*
X123260190Y-73414000D01*
X123736380Y-73175904D02*
X122736380Y-73175904D01*
X122736380Y-73556857D01*
X122784000Y-73652095D01*
X122831619Y-73699714D01*
X122926857Y-73747333D01*
X123069714Y-73747333D01*
X123164952Y-73699714D01*
X123212571Y-73652095D01*
X123260190Y-73556857D01*
X123260190Y-73175904D01*
X122831619Y-74128285D02*
X122784000Y-74175904D01*
X122736380Y-74271142D01*
X122736380Y-74509238D01*
X122784000Y-74604476D01*
X122831619Y-74652095D01*
X122926857Y-74699714D01*
X123022095Y-74699714D01*
X123164952Y-74652095D01*
X123736380Y-74080666D01*
X123736380Y-74699714D01*
X121196380Y-73747333D02*
X120720190Y-73414000D01*
X121196380Y-73175904D02*
X120196380Y-73175904D01*
X120196380Y-73556857D01*
X120244000Y-73652095D01*
X120291619Y-73699714D01*
X120386857Y-73747333D01*
X120529714Y-73747333D01*
X120624952Y-73699714D01*
X120672571Y-73652095D01*
X120720190Y-73556857D01*
X120720190Y-73175904D01*
X121196380Y-74699714D02*
X121196380Y-74128285D01*
X121196380Y-74414000D02*
X120196380Y-74414000D01*
X120339238Y-74318761D01*
X120434476Y-74223523D01*
X120482095Y-74128285D01*
X140850857Y-78430380D02*
X141184190Y-77954190D01*
X141422285Y-78430380D02*
X141422285Y-77430380D01*
X141041333Y-77430380D01*
X140946095Y-77478000D01*
X140898476Y-77525619D01*
X140850857Y-77620857D01*
X140850857Y-77763714D01*
X140898476Y-77858952D01*
X140946095Y-77906571D01*
X141041333Y-77954190D01*
X141422285Y-77954190D01*
X140517523Y-77430380D02*
X139898476Y-77430380D01*
X140231809Y-77811333D01*
X140088952Y-77811333D01*
X139993714Y-77858952D01*
X139946095Y-77906571D01*
X139898476Y-78001809D01*
X139898476Y-78239904D01*
X139946095Y-78335142D01*
X139993714Y-78382761D01*
X140088952Y-78430380D01*
X140374666Y-78430380D01*
X140469904Y-78382761D01*
X140517523Y-78335142D01*
X139041333Y-77763714D02*
X139041333Y-78430380D01*
X139279428Y-77382761D02*
X139517523Y-78097047D01*
X138898476Y-78097047D01*
X168909904Y-82256380D02*
X168909904Y-83065904D01*
X168862285Y-83161142D01*
X168814666Y-83208761D01*
X168719428Y-83256380D01*
X168528952Y-83256380D01*
X168433714Y-83208761D01*
X168386095Y-83161142D01*
X168338476Y-83065904D01*
X168338476Y-82256380D01*
X167719428Y-82684952D02*
X167814666Y-82637333D01*
X167862285Y-82589714D01*
X167909904Y-82494476D01*
X167909904Y-82446857D01*
X167862285Y-82351619D01*
X167814666Y-82304000D01*
X167719428Y-82256380D01*
X167528952Y-82256380D01*
X167433714Y-82304000D01*
X167386095Y-82351619D01*
X167338476Y-82446857D01*
X167338476Y-82494476D01*
X167386095Y-82589714D01*
X167433714Y-82637333D01*
X167528952Y-82684952D01*
X167719428Y-82684952D01*
X167814666Y-82732571D01*
X167862285Y-82780190D01*
X167909904Y-82875428D01*
X167909904Y-83065904D01*
X167862285Y-83161142D01*
X167814666Y-83208761D01*
X167719428Y-83256380D01*
X167528952Y-83256380D01*
X167433714Y-83208761D01*
X167386095Y-83161142D01*
X167338476Y-83065904D01*
X167338476Y-82875428D01*
X167386095Y-82780190D01*
X167433714Y-82732571D01*
X167528952Y-82684952D01*
X144271904Y-93432380D02*
X144271904Y-94241904D01*
X144224285Y-94337142D01*
X144176666Y-94384761D01*
X144081428Y-94432380D01*
X143890952Y-94432380D01*
X143795714Y-94384761D01*
X143748095Y-94337142D01*
X143700476Y-94241904D01*
X143700476Y-93432380D01*
X143319523Y-93432380D02*
X142652857Y-93432380D01*
X143081428Y-94432380D01*
X162647238Y-97988380D02*
X162980571Y-97512190D01*
X163218666Y-97988380D02*
X163218666Y-96988380D01*
X162837714Y-96988380D01*
X162742476Y-97036000D01*
X162694857Y-97083619D01*
X162647238Y-97178857D01*
X162647238Y-97321714D01*
X162694857Y-97416952D01*
X162742476Y-97464571D01*
X162837714Y-97512190D01*
X163218666Y-97512190D01*
X162361523Y-96988380D02*
X162028190Y-97988380D01*
X161694857Y-96988380D01*
X160837714Y-97988380D02*
X161409142Y-97988380D01*
X161123428Y-97988380D02*
X161123428Y-96988380D01*
X161218666Y-97131238D01*
X161313904Y-97226476D01*
X161409142Y-97274095D01*
X153765238Y-90209619D02*
X153860476Y-90162000D01*
X153955714Y-90066761D01*
X154098571Y-89923904D01*
X154193809Y-89876285D01*
X154289047Y-89876285D01*
X154241428Y-90114380D02*
X154336666Y-90066761D01*
X154431904Y-89971523D01*
X154479523Y-89781047D01*
X154479523Y-89447714D01*
X154431904Y-89257238D01*
X154336666Y-89162000D01*
X154241428Y-89114380D01*
X154050952Y-89114380D01*
X153955714Y-89162000D01*
X153860476Y-89257238D01*
X153812857Y-89447714D01*
X153812857Y-89781047D01*
X153860476Y-89971523D01*
X153955714Y-90066761D01*
X154050952Y-90114380D01*
X154241428Y-90114380D01*
X152860476Y-90114380D02*
X153431904Y-90114380D01*
X153146190Y-90114380D02*
X153146190Y-89114380D01*
X153241428Y-89257238D01*
X153336666Y-89352476D01*
X153431904Y-89400095D01*
X145518095Y-103957380D02*
X145518095Y-102957380D01*
X145280000Y-102957380D01*
X145137142Y-103005000D01*
X145041904Y-103100238D01*
X144994285Y-103195476D01*
X144946666Y-103385952D01*
X144946666Y-103528809D01*
X144994285Y-103719285D01*
X145041904Y-103814523D01*
X145137142Y-103909761D01*
X145280000Y-103957380D01*
X145518095Y-103957380D01*
X143994285Y-103957380D02*
X144565714Y-103957380D01*
X144280000Y-103957380D02*
X144280000Y-102957380D01*
X144375238Y-103100238D01*
X144470476Y-103195476D01*
X144565714Y-103243095D01*
X156884666Y-95607142D02*
X156932285Y-95654761D01*
X157075142Y-95702380D01*
X157170380Y-95702380D01*
X157313238Y-95654761D01*
X157408476Y-95559523D01*
X157456095Y-95464285D01*
X157503714Y-95273809D01*
X157503714Y-95130952D01*
X157456095Y-94940476D01*
X157408476Y-94845238D01*
X157313238Y-94750000D01*
X157170380Y-94702380D01*
X157075142Y-94702380D01*
X156932285Y-94750000D01*
X156884666Y-94797619D01*
X155932285Y-95702380D02*
X156503714Y-95702380D01*
X156218000Y-95702380D02*
X156218000Y-94702380D01*
X156313238Y-94845238D01*
X156408476Y-94940476D01*
X156503714Y-94988095D01*
X134365904Y-78446380D02*
X134365904Y-79255904D01*
X134318285Y-79351142D01*
X134270666Y-79398761D01*
X134175428Y-79446380D01*
X133984952Y-79446380D01*
X133889714Y-79398761D01*
X133842095Y-79351142D01*
X133794476Y-79255904D01*
X133794476Y-78446380D01*
X132794476Y-79446380D02*
X133365904Y-79446380D01*
X133080190Y-79446380D02*
X133080190Y-78446380D01*
X133175428Y-78589238D01*
X133270666Y-78684476D01*
X133365904Y-78732095D01*
M02*
