G04 #@! TF.GenerationSoftware,KiCad,Pcbnew,(5.1.0)-1*
G04 #@! TF.CreationDate,2019-03-23T10:05:58-04:00*
G04 #@! TF.ProjectId,doorbot,646f6f72-626f-4742-9e6b-696361645f70,rev?*
G04 #@! TF.SameCoordinates,Original*
G04 #@! TF.FileFunction,Soldermask,Bot*
G04 #@! TF.FilePolarity,Negative*
%FSLAX46Y46*%
G04 Gerber Fmt 4.6, Leading zero omitted, Abs format (unit mm)*
G04 Created by KiCad (PCBNEW (5.1.0)-1) date 2019-03-23 10:05:58*
%MOMM*%
%LPD*%
G04 APERTURE LIST*
%ADD10C,0.100000*%
G04 APERTURE END LIST*
D10*
G36*
X168374097Y-112290242D02*
G01*
X168929343Y-112520232D01*
X168929344Y-112520233D01*
X169429053Y-112854128D01*
X169854020Y-113279095D01*
X169854021Y-113279097D01*
X170187916Y-113778805D01*
X170417906Y-114334051D01*
X170535154Y-114923495D01*
X170535154Y-115524493D01*
X170417906Y-116113937D01*
X170187916Y-116669183D01*
X170187915Y-116669184D01*
X169854020Y-117168893D01*
X169429053Y-117593860D01*
X169177501Y-117761942D01*
X168929343Y-117927756D01*
X168374097Y-118157746D01*
X167784653Y-118274994D01*
X167183655Y-118274994D01*
X166594211Y-118157746D01*
X166038965Y-117927756D01*
X165790807Y-117761942D01*
X165539255Y-117593860D01*
X165114288Y-117168893D01*
X164780393Y-116669184D01*
X164780392Y-116669183D01*
X164550402Y-116113937D01*
X164433154Y-115524493D01*
X164433154Y-114923495D01*
X164550402Y-114334051D01*
X164780392Y-113778805D01*
X165114287Y-113279097D01*
X165114288Y-113279095D01*
X165539255Y-112854128D01*
X166038964Y-112520233D01*
X166038965Y-112520232D01*
X166594211Y-112290242D01*
X167183655Y-112172994D01*
X167784653Y-112172994D01*
X168374097Y-112290242D01*
X168374097Y-112290242D01*
G37*
G36*
X110374097Y-112290242D02*
G01*
X110929343Y-112520232D01*
X110929344Y-112520233D01*
X111429053Y-112854128D01*
X111854020Y-113279095D01*
X111854021Y-113279097D01*
X112187916Y-113778805D01*
X112417906Y-114334051D01*
X112535154Y-114923495D01*
X112535154Y-115524493D01*
X112417906Y-116113937D01*
X112187916Y-116669183D01*
X112187915Y-116669184D01*
X111854020Y-117168893D01*
X111429053Y-117593860D01*
X111177501Y-117761942D01*
X110929343Y-117927756D01*
X110374097Y-118157746D01*
X109784653Y-118274994D01*
X109183655Y-118274994D01*
X108594211Y-118157746D01*
X108038965Y-117927756D01*
X107790807Y-117761942D01*
X107539255Y-117593860D01*
X107114288Y-117168893D01*
X106780393Y-116669184D01*
X106780392Y-116669183D01*
X106550402Y-116113937D01*
X106433154Y-115524493D01*
X106433154Y-114923495D01*
X106550402Y-114334051D01*
X106780392Y-113778805D01*
X107114287Y-113279097D01*
X107114288Y-113279095D01*
X107539255Y-112854128D01*
X108038964Y-112520233D01*
X108038965Y-112520232D01*
X108594211Y-112290242D01*
X109183655Y-112172994D01*
X109784653Y-112172994D01*
X110374097Y-112290242D01*
X110374097Y-112290242D01*
G37*
G36*
X111871000Y-108166000D02*
G01*
X109569000Y-108166000D01*
X109569000Y-106464000D01*
X111871000Y-106464000D01*
X111871000Y-108166000D01*
X111871000Y-108166000D01*
G37*
G36*
X108871000Y-108166000D02*
G01*
X106569000Y-108166000D01*
X106569000Y-106464000D01*
X108871000Y-106464000D01*
X108871000Y-108166000D01*
X108871000Y-108166000D01*
G37*
G36*
X162698000Y-106755000D02*
G01*
X161406000Y-106755000D01*
X161406000Y-103353000D01*
X162698000Y-103353000D01*
X162698000Y-106755000D01*
X162698000Y-106755000D01*
G37*
G36*
X109457142Y-102373242D02*
G01*
X109605101Y-102434529D01*
X109738255Y-102523499D01*
X109851501Y-102636745D01*
X109940471Y-102769899D01*
X110001758Y-102917858D01*
X110033000Y-103074925D01*
X110033000Y-103235075D01*
X110001758Y-103392142D01*
X109940471Y-103540101D01*
X109851501Y-103673255D01*
X109738255Y-103786501D01*
X109605101Y-103875471D01*
X109457142Y-103936758D01*
X109300075Y-103968000D01*
X109139925Y-103968000D01*
X108982858Y-103936758D01*
X108834899Y-103875471D01*
X108701745Y-103786501D01*
X108588499Y-103673255D01*
X108499529Y-103540101D01*
X108438242Y-103392142D01*
X108407000Y-103235075D01*
X108407000Y-103074925D01*
X108438242Y-102917858D01*
X108499529Y-102769899D01*
X108588499Y-102636745D01*
X108701745Y-102523499D01*
X108834899Y-102434529D01*
X108982858Y-102373242D01*
X109139925Y-102342000D01*
X109300075Y-102342000D01*
X109457142Y-102373242D01*
X109457142Y-102373242D01*
G37*
G36*
X107694591Y-102538085D02*
G01*
X107728569Y-102548393D01*
X107759890Y-102565134D01*
X107787339Y-102587661D01*
X107809866Y-102615110D01*
X107826607Y-102646431D01*
X107836915Y-102680409D01*
X107841000Y-102721890D01*
X107841000Y-103323110D01*
X107836915Y-103364591D01*
X107826607Y-103398569D01*
X107809866Y-103429890D01*
X107787339Y-103457339D01*
X107759890Y-103479866D01*
X107728569Y-103496607D01*
X107694591Y-103506915D01*
X107653110Y-103511000D01*
X106976890Y-103511000D01*
X106935409Y-103506915D01*
X106901431Y-103496607D01*
X106870110Y-103479866D01*
X106842661Y-103457339D01*
X106820134Y-103429890D01*
X106803393Y-103398569D01*
X106793085Y-103364591D01*
X106789000Y-103323110D01*
X106789000Y-102721890D01*
X106793085Y-102680409D01*
X106803393Y-102646431D01*
X106820134Y-102615110D01*
X106842661Y-102587661D01*
X106870110Y-102565134D01*
X106901431Y-102548393D01*
X106935409Y-102538085D01*
X106976890Y-102534000D01*
X107653110Y-102534000D01*
X107694591Y-102538085D01*
X107694591Y-102538085D01*
G37*
G36*
X153311000Y-103436000D02*
G01*
X150709000Y-103436000D01*
X150709000Y-101034000D01*
X153311000Y-101034000D01*
X153311000Y-103436000D01*
X153311000Y-103436000D01*
G37*
G36*
X149011000Y-103436000D02*
G01*
X146409000Y-103436000D01*
X146409000Y-101034000D01*
X149011000Y-101034000D01*
X149011000Y-103436000D01*
X149011000Y-103436000D01*
G37*
G36*
X119124591Y-101903085D02*
G01*
X119158569Y-101913393D01*
X119189890Y-101930134D01*
X119217339Y-101952661D01*
X119239866Y-101980110D01*
X119256607Y-102011431D01*
X119266915Y-102045409D01*
X119271000Y-102086890D01*
X119271000Y-102688110D01*
X119266915Y-102729591D01*
X119256607Y-102763569D01*
X119239866Y-102794890D01*
X119217339Y-102822339D01*
X119189890Y-102844866D01*
X119158569Y-102861607D01*
X119124591Y-102871915D01*
X119083110Y-102876000D01*
X118406890Y-102876000D01*
X118365409Y-102871915D01*
X118331431Y-102861607D01*
X118300110Y-102844866D01*
X118272661Y-102822339D01*
X118250134Y-102794890D01*
X118233393Y-102763569D01*
X118223085Y-102729591D01*
X118219000Y-102688110D01*
X118219000Y-102086890D01*
X118223085Y-102045409D01*
X118233393Y-102011431D01*
X118250134Y-101980110D01*
X118272661Y-101952661D01*
X118300110Y-101930134D01*
X118331431Y-101913393D01*
X118365409Y-101903085D01*
X118406890Y-101899000D01*
X119083110Y-101899000D01*
X119124591Y-101903085D01*
X119124591Y-101903085D01*
G37*
G36*
X112139591Y-101903085D02*
G01*
X112173569Y-101913393D01*
X112204890Y-101930134D01*
X112232339Y-101952661D01*
X112254866Y-101980110D01*
X112271607Y-102011431D01*
X112281915Y-102045409D01*
X112286000Y-102086890D01*
X112286000Y-102688110D01*
X112281915Y-102729591D01*
X112271607Y-102763569D01*
X112254866Y-102794890D01*
X112232339Y-102822339D01*
X112204890Y-102844866D01*
X112173569Y-102861607D01*
X112139591Y-102871915D01*
X112098110Y-102876000D01*
X111421890Y-102876000D01*
X111380409Y-102871915D01*
X111346431Y-102861607D01*
X111315110Y-102844866D01*
X111287661Y-102822339D01*
X111265134Y-102794890D01*
X111248393Y-102763569D01*
X111238085Y-102729591D01*
X111234000Y-102688110D01*
X111234000Y-102086890D01*
X111238085Y-102045409D01*
X111248393Y-102011431D01*
X111265134Y-101980110D01*
X111287661Y-101952661D01*
X111315110Y-101930134D01*
X111346431Y-101913393D01*
X111380409Y-101903085D01*
X111421890Y-101899000D01*
X112098110Y-101899000D01*
X112139591Y-101903085D01*
X112139591Y-101903085D01*
G37*
G36*
X124839591Y-101903085D02*
G01*
X124873569Y-101913393D01*
X124904890Y-101930134D01*
X124932339Y-101952661D01*
X124954866Y-101980110D01*
X124971607Y-102011431D01*
X124981915Y-102045409D01*
X124986000Y-102086890D01*
X124986000Y-102688110D01*
X124981915Y-102729591D01*
X124971607Y-102763569D01*
X124954866Y-102794890D01*
X124932339Y-102822339D01*
X124904890Y-102844866D01*
X124873569Y-102861607D01*
X124839591Y-102871915D01*
X124798110Y-102876000D01*
X124121890Y-102876000D01*
X124080409Y-102871915D01*
X124046431Y-102861607D01*
X124015110Y-102844866D01*
X123987661Y-102822339D01*
X123965134Y-102794890D01*
X123948393Y-102763569D01*
X123938085Y-102729591D01*
X123934000Y-102688110D01*
X123934000Y-102086890D01*
X123938085Y-102045409D01*
X123948393Y-102011431D01*
X123965134Y-101980110D01*
X123987661Y-101952661D01*
X124015110Y-101930134D01*
X124046431Y-101913393D01*
X124080409Y-101903085D01*
X124121890Y-101899000D01*
X124798110Y-101899000D01*
X124839591Y-101903085D01*
X124839591Y-101903085D01*
G37*
G36*
X129379591Y-101877585D02*
G01*
X129413569Y-101887893D01*
X129444890Y-101904634D01*
X129472339Y-101927161D01*
X129494866Y-101954610D01*
X129511607Y-101985931D01*
X129521915Y-102019909D01*
X129526000Y-102061390D01*
X129526000Y-102662610D01*
X129521915Y-102704091D01*
X129511607Y-102738069D01*
X129494866Y-102769390D01*
X129472339Y-102796839D01*
X129444890Y-102819366D01*
X129413569Y-102836107D01*
X129379591Y-102846415D01*
X129338110Y-102850500D01*
X128661890Y-102850500D01*
X128620409Y-102846415D01*
X128586431Y-102836107D01*
X128555110Y-102819366D01*
X128527661Y-102796839D01*
X128505134Y-102769390D01*
X128488393Y-102738069D01*
X128478085Y-102704091D01*
X128474000Y-102662610D01*
X128474000Y-102061390D01*
X128478085Y-102019909D01*
X128488393Y-101985931D01*
X128505134Y-101954610D01*
X128527661Y-101927161D01*
X128555110Y-101904634D01*
X128586431Y-101887893D01*
X128620409Y-101877585D01*
X128661890Y-101873500D01*
X129338110Y-101873500D01*
X129379591Y-101877585D01*
X129379591Y-101877585D01*
G37*
G36*
X133879591Y-101877585D02*
G01*
X133913569Y-101887893D01*
X133944890Y-101904634D01*
X133972339Y-101927161D01*
X133994866Y-101954610D01*
X134011607Y-101985931D01*
X134021915Y-102019909D01*
X134026000Y-102061390D01*
X134026000Y-102662610D01*
X134021915Y-102704091D01*
X134011607Y-102738069D01*
X133994866Y-102769390D01*
X133972339Y-102796839D01*
X133944890Y-102819366D01*
X133913569Y-102836107D01*
X133879591Y-102846415D01*
X133838110Y-102850500D01*
X133161890Y-102850500D01*
X133120409Y-102846415D01*
X133086431Y-102836107D01*
X133055110Y-102819366D01*
X133027661Y-102796839D01*
X133005134Y-102769390D01*
X132988393Y-102738069D01*
X132978085Y-102704091D01*
X132974000Y-102662610D01*
X132974000Y-102061390D01*
X132978085Y-102019909D01*
X132988393Y-101985931D01*
X133005134Y-101954610D01*
X133027661Y-101927161D01*
X133055110Y-101904634D01*
X133086431Y-101887893D01*
X133120409Y-101877585D01*
X133161890Y-101873500D01*
X133838110Y-101873500D01*
X133879591Y-101877585D01*
X133879591Y-101877585D01*
G37*
G36*
X167829591Y-101713085D02*
G01*
X167863569Y-101723393D01*
X167894890Y-101740134D01*
X167922339Y-101762661D01*
X167944866Y-101790110D01*
X167961607Y-101821431D01*
X167971915Y-101855409D01*
X167976000Y-101896890D01*
X167976000Y-102573110D01*
X167971915Y-102614591D01*
X167961607Y-102648569D01*
X167944866Y-102679890D01*
X167922339Y-102707339D01*
X167894890Y-102729866D01*
X167863569Y-102746607D01*
X167829591Y-102756915D01*
X167788110Y-102761000D01*
X167186890Y-102761000D01*
X167145409Y-102756915D01*
X167111431Y-102746607D01*
X167080110Y-102729866D01*
X167052661Y-102707339D01*
X167030134Y-102679890D01*
X167013393Y-102648569D01*
X167003085Y-102614591D01*
X166999000Y-102573110D01*
X166999000Y-101896890D01*
X167003085Y-101855409D01*
X167013393Y-101821431D01*
X167030134Y-101790110D01*
X167052661Y-101762661D01*
X167080110Y-101740134D01*
X167111431Y-101723393D01*
X167145409Y-101713085D01*
X167186890Y-101709000D01*
X167788110Y-101709000D01*
X167829591Y-101713085D01*
X167829591Y-101713085D01*
G37*
G36*
X169404591Y-101713085D02*
G01*
X169438569Y-101723393D01*
X169469890Y-101740134D01*
X169497339Y-101762661D01*
X169519866Y-101790110D01*
X169536607Y-101821431D01*
X169546915Y-101855409D01*
X169551000Y-101896890D01*
X169551000Y-102573110D01*
X169546915Y-102614591D01*
X169536607Y-102648569D01*
X169519866Y-102679890D01*
X169497339Y-102707339D01*
X169469890Y-102729866D01*
X169438569Y-102746607D01*
X169404591Y-102756915D01*
X169363110Y-102761000D01*
X168761890Y-102761000D01*
X168720409Y-102756915D01*
X168686431Y-102746607D01*
X168655110Y-102729866D01*
X168627661Y-102707339D01*
X168605134Y-102679890D01*
X168588393Y-102648569D01*
X168578085Y-102614591D01*
X168574000Y-102573110D01*
X168574000Y-101896890D01*
X168578085Y-101855409D01*
X168588393Y-101821431D01*
X168605134Y-101790110D01*
X168627661Y-101762661D01*
X168655110Y-101740134D01*
X168686431Y-101723393D01*
X168720409Y-101713085D01*
X168761890Y-101709000D01*
X169363110Y-101709000D01*
X169404591Y-101713085D01*
X169404591Y-101713085D01*
G37*
G36*
X117225000Y-102593000D02*
G01*
X116323000Y-102593000D01*
X116323000Y-101591000D01*
X117225000Y-101591000D01*
X117225000Y-102593000D01*
X117225000Y-102593000D01*
G37*
G36*
X115325000Y-102593000D02*
G01*
X114423000Y-102593000D01*
X114423000Y-101591000D01*
X115325000Y-101591000D01*
X115325000Y-102593000D01*
X115325000Y-102593000D01*
G37*
G36*
X109457142Y-100373242D02*
G01*
X109605101Y-100434529D01*
X109738255Y-100523499D01*
X109851501Y-100636745D01*
X109940471Y-100769899D01*
X110001758Y-100917858D01*
X110033000Y-101074925D01*
X110033000Y-101235075D01*
X110001758Y-101392142D01*
X109940471Y-101540101D01*
X109851501Y-101673255D01*
X109738255Y-101786501D01*
X109605101Y-101875471D01*
X109457142Y-101936758D01*
X109300075Y-101968000D01*
X109139925Y-101968000D01*
X108982858Y-101936758D01*
X108834899Y-101875471D01*
X108701745Y-101786501D01*
X108588499Y-101673255D01*
X108499529Y-101540101D01*
X108438242Y-101392142D01*
X108407000Y-101235075D01*
X108407000Y-101074925D01*
X108438242Y-100917858D01*
X108499529Y-100769899D01*
X108588499Y-100636745D01*
X108701745Y-100523499D01*
X108834899Y-100434529D01*
X108982858Y-100373242D01*
X109139925Y-100342000D01*
X109300075Y-100342000D01*
X109457142Y-100373242D01*
X109457142Y-100373242D01*
G37*
G36*
X107694591Y-100963085D02*
G01*
X107728569Y-100973393D01*
X107759890Y-100990134D01*
X107787339Y-101012661D01*
X107809866Y-101040110D01*
X107826607Y-101071431D01*
X107836915Y-101105409D01*
X107841000Y-101146890D01*
X107841000Y-101748110D01*
X107836915Y-101789591D01*
X107826607Y-101823569D01*
X107809866Y-101854890D01*
X107787339Y-101882339D01*
X107759890Y-101904866D01*
X107728569Y-101921607D01*
X107694591Y-101931915D01*
X107653110Y-101936000D01*
X106976890Y-101936000D01*
X106935409Y-101931915D01*
X106901431Y-101921607D01*
X106870110Y-101904866D01*
X106842661Y-101882339D01*
X106820134Y-101854890D01*
X106803393Y-101823569D01*
X106793085Y-101789591D01*
X106789000Y-101748110D01*
X106789000Y-101146890D01*
X106793085Y-101105409D01*
X106803393Y-101071431D01*
X106820134Y-101040110D01*
X106842661Y-101012661D01*
X106870110Y-100990134D01*
X106901431Y-100973393D01*
X106935409Y-100963085D01*
X106976890Y-100959000D01*
X107653110Y-100959000D01*
X107694591Y-100963085D01*
X107694591Y-100963085D01*
G37*
G36*
X124839591Y-100328085D02*
G01*
X124873569Y-100338393D01*
X124904890Y-100355134D01*
X124932339Y-100377661D01*
X124954866Y-100405110D01*
X124971607Y-100436431D01*
X124981915Y-100470409D01*
X124986000Y-100511890D01*
X124986000Y-101113110D01*
X124981915Y-101154591D01*
X124971607Y-101188569D01*
X124954866Y-101219890D01*
X124932339Y-101247339D01*
X124904890Y-101269866D01*
X124873569Y-101286607D01*
X124839591Y-101296915D01*
X124798110Y-101301000D01*
X124121890Y-101301000D01*
X124080409Y-101296915D01*
X124046431Y-101286607D01*
X124015110Y-101269866D01*
X123987661Y-101247339D01*
X123965134Y-101219890D01*
X123948393Y-101188569D01*
X123938085Y-101154591D01*
X123934000Y-101113110D01*
X123934000Y-100511890D01*
X123938085Y-100470409D01*
X123948393Y-100436431D01*
X123965134Y-100405110D01*
X123987661Y-100377661D01*
X124015110Y-100355134D01*
X124046431Y-100338393D01*
X124080409Y-100328085D01*
X124121890Y-100324000D01*
X124798110Y-100324000D01*
X124839591Y-100328085D01*
X124839591Y-100328085D01*
G37*
G36*
X119124591Y-100328085D02*
G01*
X119158569Y-100338393D01*
X119189890Y-100355134D01*
X119217339Y-100377661D01*
X119239866Y-100405110D01*
X119256607Y-100436431D01*
X119266915Y-100470409D01*
X119271000Y-100511890D01*
X119271000Y-101113110D01*
X119266915Y-101154591D01*
X119256607Y-101188569D01*
X119239866Y-101219890D01*
X119217339Y-101247339D01*
X119189890Y-101269866D01*
X119158569Y-101286607D01*
X119124591Y-101296915D01*
X119083110Y-101301000D01*
X118406890Y-101301000D01*
X118365409Y-101296915D01*
X118331431Y-101286607D01*
X118300110Y-101269866D01*
X118272661Y-101247339D01*
X118250134Y-101219890D01*
X118233393Y-101188569D01*
X118223085Y-101154591D01*
X118219000Y-101113110D01*
X118219000Y-100511890D01*
X118223085Y-100470409D01*
X118233393Y-100436431D01*
X118250134Y-100405110D01*
X118272661Y-100377661D01*
X118300110Y-100355134D01*
X118331431Y-100338393D01*
X118365409Y-100328085D01*
X118406890Y-100324000D01*
X119083110Y-100324000D01*
X119124591Y-100328085D01*
X119124591Y-100328085D01*
G37*
G36*
X112139591Y-100328085D02*
G01*
X112173569Y-100338393D01*
X112204890Y-100355134D01*
X112232339Y-100377661D01*
X112254866Y-100405110D01*
X112271607Y-100436431D01*
X112281915Y-100470409D01*
X112286000Y-100511890D01*
X112286000Y-101113110D01*
X112281915Y-101154591D01*
X112271607Y-101188569D01*
X112254866Y-101219890D01*
X112232339Y-101247339D01*
X112204890Y-101269866D01*
X112173569Y-101286607D01*
X112139591Y-101296915D01*
X112098110Y-101301000D01*
X111421890Y-101301000D01*
X111380409Y-101296915D01*
X111346431Y-101286607D01*
X111315110Y-101269866D01*
X111287661Y-101247339D01*
X111265134Y-101219890D01*
X111248393Y-101188569D01*
X111238085Y-101154591D01*
X111234000Y-101113110D01*
X111234000Y-100511890D01*
X111238085Y-100470409D01*
X111248393Y-100436431D01*
X111265134Y-100405110D01*
X111287661Y-100377661D01*
X111315110Y-100355134D01*
X111346431Y-100338393D01*
X111380409Y-100328085D01*
X111421890Y-100324000D01*
X112098110Y-100324000D01*
X112139591Y-100328085D01*
X112139591Y-100328085D01*
G37*
G36*
X129379591Y-100302585D02*
G01*
X129413569Y-100312893D01*
X129444890Y-100329634D01*
X129472339Y-100352161D01*
X129494866Y-100379610D01*
X129511607Y-100410931D01*
X129521915Y-100444909D01*
X129526000Y-100486390D01*
X129526000Y-101087610D01*
X129521915Y-101129091D01*
X129511607Y-101163069D01*
X129494866Y-101194390D01*
X129472339Y-101221839D01*
X129444890Y-101244366D01*
X129413569Y-101261107D01*
X129379591Y-101271415D01*
X129338110Y-101275500D01*
X128661890Y-101275500D01*
X128620409Y-101271415D01*
X128586431Y-101261107D01*
X128555110Y-101244366D01*
X128527661Y-101221839D01*
X128505134Y-101194390D01*
X128488393Y-101163069D01*
X128478085Y-101129091D01*
X128474000Y-101087610D01*
X128474000Y-100486390D01*
X128478085Y-100444909D01*
X128488393Y-100410931D01*
X128505134Y-100379610D01*
X128527661Y-100352161D01*
X128555110Y-100329634D01*
X128586431Y-100312893D01*
X128620409Y-100302585D01*
X128661890Y-100298500D01*
X129338110Y-100298500D01*
X129379591Y-100302585D01*
X129379591Y-100302585D01*
G37*
G36*
X133879591Y-100302585D02*
G01*
X133913569Y-100312893D01*
X133944890Y-100329634D01*
X133972339Y-100352161D01*
X133994866Y-100379610D01*
X134011607Y-100410931D01*
X134021915Y-100444909D01*
X134026000Y-100486390D01*
X134026000Y-101087610D01*
X134021915Y-101129091D01*
X134011607Y-101163069D01*
X133994866Y-101194390D01*
X133972339Y-101221839D01*
X133944890Y-101244366D01*
X133913569Y-101261107D01*
X133879591Y-101271415D01*
X133838110Y-101275500D01*
X133161890Y-101275500D01*
X133120409Y-101271415D01*
X133086431Y-101261107D01*
X133055110Y-101244366D01*
X133027661Y-101221839D01*
X133005134Y-101194390D01*
X132988393Y-101163069D01*
X132978085Y-101129091D01*
X132974000Y-101087610D01*
X132974000Y-100486390D01*
X132978085Y-100444909D01*
X132988393Y-100410931D01*
X133005134Y-100379610D01*
X133027661Y-100352161D01*
X133055110Y-100329634D01*
X133086431Y-100312893D01*
X133120409Y-100302585D01*
X133161890Y-100298500D01*
X133838110Y-100298500D01*
X133879591Y-100302585D01*
X133879591Y-100302585D01*
G37*
G36*
X143391000Y-100927000D02*
G01*
X141089000Y-100927000D01*
X141089000Y-99225000D01*
X143391000Y-99225000D01*
X143391000Y-100927000D01*
X143391000Y-100927000D01*
G37*
G36*
X140391000Y-100927000D02*
G01*
X138089000Y-100927000D01*
X138089000Y-99225000D01*
X140391000Y-99225000D01*
X140391000Y-100927000D01*
X140391000Y-100927000D01*
G37*
G36*
X116275000Y-100593000D02*
G01*
X115373000Y-100593000D01*
X115373000Y-99591000D01*
X116275000Y-99591000D01*
X116275000Y-100593000D01*
X116275000Y-100593000D01*
G37*
G36*
X165238000Y-100355000D02*
G01*
X163946000Y-100355000D01*
X163946000Y-96953000D01*
X165238000Y-96953000D01*
X165238000Y-100355000D01*
X165238000Y-100355000D01*
G37*
G36*
X160158000Y-100355000D02*
G01*
X158866000Y-100355000D01*
X158866000Y-96953000D01*
X160158000Y-96953000D01*
X160158000Y-100355000D01*
X160158000Y-100355000D01*
G37*
G36*
X109457142Y-98373242D02*
G01*
X109605101Y-98434529D01*
X109738255Y-98523499D01*
X109851501Y-98636745D01*
X109940471Y-98769899D01*
X110001758Y-98917858D01*
X110033000Y-99074925D01*
X110033000Y-99235075D01*
X110001758Y-99392142D01*
X109940471Y-99540101D01*
X109851501Y-99673255D01*
X109738255Y-99786501D01*
X109605101Y-99875471D01*
X109457142Y-99936758D01*
X109300075Y-99968000D01*
X109139925Y-99968000D01*
X108982858Y-99936758D01*
X108834899Y-99875471D01*
X108701745Y-99786501D01*
X108588499Y-99673255D01*
X108499529Y-99540101D01*
X108438242Y-99392142D01*
X108407000Y-99235075D01*
X108407000Y-99074925D01*
X108438242Y-98917858D01*
X108499529Y-98769899D01*
X108588499Y-98636745D01*
X108701745Y-98523499D01*
X108834899Y-98434529D01*
X108982858Y-98373242D01*
X109139925Y-98342000D01*
X109300075Y-98342000D01*
X109457142Y-98373242D01*
X109457142Y-98373242D01*
G37*
G36*
X128006000Y-99451000D02*
G01*
X127264000Y-99451000D01*
X127264000Y-97349000D01*
X128006000Y-97349000D01*
X128006000Y-99451000D01*
X128006000Y-99451000D01*
G37*
G36*
X129276000Y-99451000D02*
G01*
X128534000Y-99451000D01*
X128534000Y-97349000D01*
X129276000Y-97349000D01*
X129276000Y-99451000D01*
X129276000Y-99451000D01*
G37*
G36*
X132451000Y-99451000D02*
G01*
X131709000Y-99451000D01*
X131709000Y-97349000D01*
X132451000Y-97349000D01*
X132451000Y-99451000D01*
X132451000Y-99451000D01*
G37*
G36*
X133721000Y-99451000D02*
G01*
X132979000Y-99451000D01*
X132979000Y-97349000D01*
X133721000Y-97349000D01*
X133721000Y-99451000D01*
X133721000Y-99451000D01*
G37*
G36*
X112131000Y-99451000D02*
G01*
X111389000Y-99451000D01*
X111389000Y-97349000D01*
X112131000Y-97349000D01*
X112131000Y-99451000D01*
X112131000Y-99451000D01*
G37*
G36*
X113401000Y-99451000D02*
G01*
X112659000Y-99451000D01*
X112659000Y-97349000D01*
X113401000Y-97349000D01*
X113401000Y-99451000D01*
X113401000Y-99451000D01*
G37*
G36*
X119116000Y-99451000D02*
G01*
X118374000Y-99451000D01*
X118374000Y-97349000D01*
X119116000Y-97349000D01*
X119116000Y-99451000D01*
X119116000Y-99451000D01*
G37*
G36*
X120386000Y-99451000D02*
G01*
X119644000Y-99451000D01*
X119644000Y-97349000D01*
X120386000Y-97349000D01*
X120386000Y-99451000D01*
X120386000Y-99451000D01*
G37*
G36*
X124831000Y-99451000D02*
G01*
X124089000Y-99451000D01*
X124089000Y-97349000D01*
X124831000Y-97349000D01*
X124831000Y-99451000D01*
X124831000Y-99451000D01*
G37*
G36*
X123561000Y-99451000D02*
G01*
X122819000Y-99451000D01*
X122819000Y-97349000D01*
X123561000Y-97349000D01*
X123561000Y-99451000D01*
X123561000Y-99451000D01*
G37*
G36*
X145766000Y-98776000D02*
G01*
X145064000Y-98776000D01*
X145064000Y-97124000D01*
X145766000Y-97124000D01*
X145766000Y-98776000D01*
X145766000Y-98776000D01*
G37*
G36*
X148306000Y-98776000D02*
G01*
X147604000Y-98776000D01*
X147604000Y-97124000D01*
X148306000Y-97124000D01*
X148306000Y-98776000D01*
X148306000Y-98776000D01*
G37*
G36*
X147036000Y-98776000D02*
G01*
X146334000Y-98776000D01*
X146334000Y-97124000D01*
X147036000Y-97124000D01*
X147036000Y-98776000D01*
X147036000Y-98776000D01*
G37*
G36*
X149576000Y-98776000D02*
G01*
X148874000Y-98776000D01*
X148874000Y-97124000D01*
X149576000Y-97124000D01*
X149576000Y-98776000D01*
X149576000Y-98776000D01*
G37*
G36*
X153859591Y-97268085D02*
G01*
X153893569Y-97278393D01*
X153924890Y-97295134D01*
X153952339Y-97317661D01*
X153974866Y-97345110D01*
X153991607Y-97376431D01*
X154001915Y-97410409D01*
X154006000Y-97451890D01*
X154006000Y-98128110D01*
X154001915Y-98169591D01*
X153991607Y-98203569D01*
X153974866Y-98234890D01*
X153952339Y-98262339D01*
X153924890Y-98284866D01*
X153893569Y-98301607D01*
X153859591Y-98311915D01*
X153818110Y-98316000D01*
X153216890Y-98316000D01*
X153175409Y-98311915D01*
X153141431Y-98301607D01*
X153110110Y-98284866D01*
X153082661Y-98262339D01*
X153060134Y-98234890D01*
X153043393Y-98203569D01*
X153033085Y-98169591D01*
X153029000Y-98128110D01*
X153029000Y-97451890D01*
X153033085Y-97410409D01*
X153043393Y-97376431D01*
X153060134Y-97345110D01*
X153082661Y-97317661D01*
X153110110Y-97295134D01*
X153141431Y-97278393D01*
X153175409Y-97268085D01*
X153216890Y-97264000D01*
X153818110Y-97264000D01*
X153859591Y-97268085D01*
X153859591Y-97268085D01*
G37*
G36*
X155434591Y-97268085D02*
G01*
X155468569Y-97278393D01*
X155499890Y-97295134D01*
X155527339Y-97317661D01*
X155549866Y-97345110D01*
X155566607Y-97376431D01*
X155576915Y-97410409D01*
X155581000Y-97451890D01*
X155581000Y-98128110D01*
X155576915Y-98169591D01*
X155566607Y-98203569D01*
X155549866Y-98234890D01*
X155527339Y-98262339D01*
X155499890Y-98284866D01*
X155468569Y-98301607D01*
X155434591Y-98311915D01*
X155393110Y-98316000D01*
X154791890Y-98316000D01*
X154750409Y-98311915D01*
X154716431Y-98301607D01*
X154685110Y-98284866D01*
X154657661Y-98262339D01*
X154635134Y-98234890D01*
X154618393Y-98203569D01*
X154608085Y-98169591D01*
X154604000Y-98128110D01*
X154604000Y-97451890D01*
X154608085Y-97410409D01*
X154618393Y-97376431D01*
X154635134Y-97345110D01*
X154657661Y-97317661D01*
X154685110Y-97295134D01*
X154716431Y-97278393D01*
X154750409Y-97268085D01*
X154791890Y-97264000D01*
X155393110Y-97264000D01*
X155434591Y-97268085D01*
X155434591Y-97268085D01*
G37*
G36*
X142521564Y-96119389D02*
G01*
X142712833Y-96198615D01*
X142712835Y-96198616D01*
X142776267Y-96241000D01*
X142884973Y-96313635D01*
X143031365Y-96460027D01*
X143146385Y-96632167D01*
X143225611Y-96823436D01*
X143266000Y-97026484D01*
X143266000Y-97233516D01*
X143225611Y-97436564D01*
X143146385Y-97627833D01*
X143146384Y-97627835D01*
X143031365Y-97799973D01*
X142884973Y-97946365D01*
X142712835Y-98061384D01*
X142712834Y-98061385D01*
X142712833Y-98061385D01*
X142521564Y-98140611D01*
X142318516Y-98181000D01*
X142111484Y-98181000D01*
X141908436Y-98140611D01*
X141717167Y-98061385D01*
X141717166Y-98061385D01*
X141717165Y-98061384D01*
X141545027Y-97946365D01*
X141398635Y-97799973D01*
X141283616Y-97627835D01*
X141283615Y-97627833D01*
X141204389Y-97436564D01*
X141164000Y-97233516D01*
X141164000Y-97026484D01*
X141204389Y-96823436D01*
X141283615Y-96632167D01*
X141398635Y-96460027D01*
X141545027Y-96313635D01*
X141653733Y-96241000D01*
X141717165Y-96198616D01*
X141717167Y-96198615D01*
X141908436Y-96119389D01*
X142111484Y-96079000D01*
X142318516Y-96079000D01*
X142521564Y-96119389D01*
X142521564Y-96119389D01*
G37*
G36*
X116621564Y-96119389D02*
G01*
X116812833Y-96198615D01*
X116812835Y-96198616D01*
X116876267Y-96241000D01*
X116984973Y-96313635D01*
X117131365Y-96460027D01*
X117246385Y-96632167D01*
X117325611Y-96823436D01*
X117366000Y-97026484D01*
X117366000Y-97233516D01*
X117325611Y-97436564D01*
X117246385Y-97627833D01*
X117246384Y-97627835D01*
X117131365Y-97799973D01*
X116984973Y-97946365D01*
X116812835Y-98061384D01*
X116812834Y-98061385D01*
X116812833Y-98061385D01*
X116621564Y-98140611D01*
X116418516Y-98181000D01*
X116211484Y-98181000D01*
X116008436Y-98140611D01*
X115817167Y-98061385D01*
X115817166Y-98061385D01*
X115817165Y-98061384D01*
X115645027Y-97946365D01*
X115498635Y-97799973D01*
X115383616Y-97627835D01*
X115383615Y-97627833D01*
X115304389Y-97436564D01*
X115264000Y-97233516D01*
X115264000Y-97026484D01*
X115304389Y-96823436D01*
X115383615Y-96632167D01*
X115498635Y-96460027D01*
X115645027Y-96313635D01*
X115753733Y-96241000D01*
X115817165Y-96198616D01*
X115817167Y-96198615D01*
X116008436Y-96119389D01*
X116211484Y-96079000D01*
X116418516Y-96079000D01*
X116621564Y-96119389D01*
X116621564Y-96119389D01*
G37*
G36*
X109986000Y-96116000D02*
G01*
X109433033Y-96116000D01*
X109408647Y-96118402D01*
X109385198Y-96125515D01*
X109363587Y-96137066D01*
X109344645Y-96152611D01*
X109329100Y-96171553D01*
X109317549Y-96193164D01*
X109310436Y-96216613D01*
X109308034Y-96240999D01*
X109310436Y-96265385D01*
X109317549Y-96288834D01*
X109329100Y-96310445D01*
X109344645Y-96329387D01*
X109363587Y-96344932D01*
X109385198Y-96356483D01*
X109408648Y-96363596D01*
X109457142Y-96373242D01*
X109605101Y-96434529D01*
X109738255Y-96523499D01*
X109851501Y-96636745D01*
X109940471Y-96769899D01*
X110001758Y-96917858D01*
X110033000Y-97074925D01*
X110033000Y-97235075D01*
X110001758Y-97392142D01*
X109940471Y-97540101D01*
X109851501Y-97673255D01*
X109738255Y-97786501D01*
X109605101Y-97875471D01*
X109457142Y-97936758D01*
X109300075Y-97968000D01*
X109139925Y-97968000D01*
X108982858Y-97936758D01*
X108834899Y-97875471D01*
X108701745Y-97786501D01*
X108588499Y-97673255D01*
X108499529Y-97540101D01*
X108438242Y-97392142D01*
X108407000Y-97235075D01*
X108407000Y-97074925D01*
X108438242Y-96917858D01*
X108499529Y-96769899D01*
X108588499Y-96636745D01*
X108701745Y-96523499D01*
X108834899Y-96434529D01*
X108982858Y-96373242D01*
X109031352Y-96363596D01*
X109054801Y-96356483D01*
X109076412Y-96344932D01*
X109095354Y-96329387D01*
X109110900Y-96310445D01*
X109122451Y-96288835D01*
X109129564Y-96265386D01*
X109131966Y-96241000D01*
X109129564Y-96216614D01*
X109122451Y-96193165D01*
X109110900Y-96171554D01*
X109095355Y-96152612D01*
X109084000Y-96143293D01*
X109084000Y-95114000D01*
X109986000Y-95114000D01*
X109986000Y-96116000D01*
X109986000Y-96116000D01*
G37*
G36*
X108086000Y-96116000D02*
G01*
X107184000Y-96116000D01*
X107184000Y-95114000D01*
X108086000Y-95114000D01*
X108086000Y-96116000D01*
X108086000Y-96116000D01*
G37*
G36*
X153859591Y-94728085D02*
G01*
X153893569Y-94738393D01*
X153924890Y-94755134D01*
X153952339Y-94777661D01*
X153974866Y-94805110D01*
X153991607Y-94836431D01*
X154001915Y-94870409D01*
X154006000Y-94911890D01*
X154006000Y-95588110D01*
X154001915Y-95629591D01*
X153991607Y-95663569D01*
X153974866Y-95694890D01*
X153952339Y-95722339D01*
X153924890Y-95744866D01*
X153893569Y-95761607D01*
X153859591Y-95771915D01*
X153818110Y-95776000D01*
X153216890Y-95776000D01*
X153175409Y-95771915D01*
X153141431Y-95761607D01*
X153110110Y-95744866D01*
X153082661Y-95722339D01*
X153060134Y-95694890D01*
X153043393Y-95663569D01*
X153033085Y-95629591D01*
X153029000Y-95588110D01*
X153029000Y-94911890D01*
X153033085Y-94870409D01*
X153043393Y-94836431D01*
X153060134Y-94805110D01*
X153082661Y-94777661D01*
X153110110Y-94755134D01*
X153141431Y-94738393D01*
X153175409Y-94728085D01*
X153216890Y-94724000D01*
X153818110Y-94724000D01*
X153859591Y-94728085D01*
X153859591Y-94728085D01*
G37*
G36*
X155434591Y-94728085D02*
G01*
X155468569Y-94738393D01*
X155499890Y-94755134D01*
X155527339Y-94777661D01*
X155549866Y-94805110D01*
X155566607Y-94836431D01*
X155576915Y-94870409D01*
X155581000Y-94911890D01*
X155581000Y-95588110D01*
X155576915Y-95629591D01*
X155566607Y-95663569D01*
X155549866Y-95694890D01*
X155527339Y-95722339D01*
X155499890Y-95744866D01*
X155468569Y-95761607D01*
X155434591Y-95771915D01*
X155393110Y-95776000D01*
X154791890Y-95776000D01*
X154750409Y-95771915D01*
X154716431Y-95761607D01*
X154685110Y-95744866D01*
X154657661Y-95722339D01*
X154635134Y-95694890D01*
X154618393Y-95663569D01*
X154608085Y-95629591D01*
X154604000Y-95588110D01*
X154604000Y-94911890D01*
X154608085Y-94870409D01*
X154618393Y-94836431D01*
X154635134Y-94805110D01*
X154657661Y-94777661D01*
X154685110Y-94755134D01*
X154716431Y-94738393D01*
X154750409Y-94728085D01*
X154791890Y-94724000D01*
X155393110Y-94724000D01*
X155434591Y-94728085D01*
X155434591Y-94728085D01*
G37*
G36*
X109036000Y-94116000D02*
G01*
X108134000Y-94116000D01*
X108134000Y-93114000D01*
X109036000Y-93114000D01*
X109036000Y-94116000D01*
X109036000Y-94116000D01*
G37*
G36*
X149576000Y-93376000D02*
G01*
X148874000Y-93376000D01*
X148874000Y-91724000D01*
X149576000Y-91724000D01*
X149576000Y-93376000D01*
X149576000Y-93376000D01*
G37*
G36*
X145766000Y-93376000D02*
G01*
X145064000Y-93376000D01*
X145064000Y-91724000D01*
X145766000Y-91724000D01*
X145766000Y-93376000D01*
X145766000Y-93376000D01*
G37*
G36*
X148306000Y-93376000D02*
G01*
X147604000Y-93376000D01*
X147604000Y-91724000D01*
X148306000Y-91724000D01*
X148306000Y-93376000D01*
X148306000Y-93376000D01*
G37*
G36*
X147036000Y-93376000D02*
G01*
X146334000Y-93376000D01*
X146334000Y-91724000D01*
X147036000Y-91724000D01*
X147036000Y-93376000D01*
X147036000Y-93376000D01*
G37*
G36*
X155434591Y-92188085D02*
G01*
X155468569Y-92198393D01*
X155499890Y-92215134D01*
X155527339Y-92237661D01*
X155549866Y-92265110D01*
X155566607Y-92296431D01*
X155576915Y-92330409D01*
X155581000Y-92371890D01*
X155581000Y-93048110D01*
X155576915Y-93089591D01*
X155566607Y-93123569D01*
X155549866Y-93154890D01*
X155527339Y-93182339D01*
X155499890Y-93204866D01*
X155468569Y-93221607D01*
X155434591Y-93231915D01*
X155393110Y-93236000D01*
X154791890Y-93236000D01*
X154750409Y-93231915D01*
X154716431Y-93221607D01*
X154685110Y-93204866D01*
X154657661Y-93182339D01*
X154635134Y-93154890D01*
X154618393Y-93123569D01*
X154608085Y-93089591D01*
X154604000Y-93048110D01*
X154604000Y-92371890D01*
X154608085Y-92330409D01*
X154618393Y-92296431D01*
X154635134Y-92265110D01*
X154657661Y-92237661D01*
X154685110Y-92215134D01*
X154716431Y-92198393D01*
X154750409Y-92188085D01*
X154791890Y-92184000D01*
X155393110Y-92184000D01*
X155434591Y-92188085D01*
X155434591Y-92188085D01*
G37*
G36*
X153859591Y-92188085D02*
G01*
X153893569Y-92198393D01*
X153924890Y-92215134D01*
X153952339Y-92237661D01*
X153974866Y-92265110D01*
X153991607Y-92296431D01*
X154001915Y-92330409D01*
X154006000Y-92371890D01*
X154006000Y-93048110D01*
X154001915Y-93089591D01*
X153991607Y-93123569D01*
X153974866Y-93154890D01*
X153952339Y-93182339D01*
X153924890Y-93204866D01*
X153893569Y-93221607D01*
X153859591Y-93231915D01*
X153818110Y-93236000D01*
X153216890Y-93236000D01*
X153175409Y-93231915D01*
X153141431Y-93221607D01*
X153110110Y-93204866D01*
X153082661Y-93182339D01*
X153060134Y-93154890D01*
X153043393Y-93123569D01*
X153033085Y-93089591D01*
X153029000Y-93048110D01*
X153029000Y-92371890D01*
X153033085Y-92330409D01*
X153043393Y-92296431D01*
X153060134Y-92265110D01*
X153082661Y-92237661D01*
X153110110Y-92215134D01*
X153141431Y-92198393D01*
X153175409Y-92188085D01*
X153216890Y-92184000D01*
X153818110Y-92184000D01*
X153859591Y-92188085D01*
X153859591Y-92188085D01*
G37*
G36*
X129276000Y-93151000D02*
G01*
X128534000Y-93151000D01*
X128534000Y-91049000D01*
X129276000Y-91049000D01*
X129276000Y-93151000D01*
X129276000Y-93151000D01*
G37*
G36*
X128006000Y-93151000D02*
G01*
X127264000Y-93151000D01*
X127264000Y-91049000D01*
X128006000Y-91049000D01*
X128006000Y-93151000D01*
X128006000Y-93151000D01*
G37*
G36*
X133721000Y-93151000D02*
G01*
X132979000Y-93151000D01*
X132979000Y-91049000D01*
X133721000Y-91049000D01*
X133721000Y-93151000D01*
X133721000Y-93151000D01*
G37*
G36*
X132451000Y-93151000D02*
G01*
X131709000Y-93151000D01*
X131709000Y-91049000D01*
X132451000Y-91049000D01*
X132451000Y-93151000D01*
X132451000Y-93151000D01*
G37*
G36*
X113401000Y-93151000D02*
G01*
X112659000Y-93151000D01*
X112659000Y-91049000D01*
X113401000Y-91049000D01*
X113401000Y-93151000D01*
X113401000Y-93151000D01*
G37*
G36*
X123561000Y-93151000D02*
G01*
X122819000Y-93151000D01*
X122819000Y-91049000D01*
X123561000Y-91049000D01*
X123561000Y-93151000D01*
X123561000Y-93151000D01*
G37*
G36*
X124831000Y-93151000D02*
G01*
X124089000Y-93151000D01*
X124089000Y-91049000D01*
X124831000Y-91049000D01*
X124831000Y-93151000D01*
X124831000Y-93151000D01*
G37*
G36*
X119116000Y-93151000D02*
G01*
X118374000Y-93151000D01*
X118374000Y-91049000D01*
X119116000Y-91049000D01*
X119116000Y-93151000D01*
X119116000Y-93151000D01*
G37*
G36*
X112131000Y-93151000D02*
G01*
X111389000Y-93151000D01*
X111389000Y-91049000D01*
X112131000Y-91049000D01*
X112131000Y-93151000D01*
X112131000Y-93151000D01*
G37*
G36*
X120386000Y-93151000D02*
G01*
X119644000Y-93151000D01*
X119644000Y-91049000D01*
X120386000Y-91049000D01*
X120386000Y-93151000D01*
X120386000Y-93151000D01*
G37*
G36*
X150631000Y-90401000D02*
G01*
X149729000Y-90401000D01*
X149729000Y-89399000D01*
X150631000Y-89399000D01*
X150631000Y-90401000D01*
X150631000Y-90401000D01*
G37*
G36*
X152531000Y-90401000D02*
G01*
X151629000Y-90401000D01*
X151629000Y-89399000D01*
X152531000Y-89399000D01*
X152531000Y-90401000D01*
X152531000Y-90401000D01*
G37*
G36*
X148334591Y-89203085D02*
G01*
X148368569Y-89213393D01*
X148399890Y-89230134D01*
X148427339Y-89252661D01*
X148449866Y-89280110D01*
X148466607Y-89311431D01*
X148476915Y-89345409D01*
X148481000Y-89386890D01*
X148481000Y-89988110D01*
X148476915Y-90029591D01*
X148466607Y-90063569D01*
X148449866Y-90094890D01*
X148427339Y-90122339D01*
X148399890Y-90144866D01*
X148368569Y-90161607D01*
X148334591Y-90171915D01*
X148293110Y-90176000D01*
X147616890Y-90176000D01*
X147575409Y-90171915D01*
X147541431Y-90161607D01*
X147510110Y-90144866D01*
X147482661Y-90122339D01*
X147460134Y-90094890D01*
X147443393Y-90063569D01*
X147433085Y-90029591D01*
X147429000Y-89988110D01*
X147429000Y-89386890D01*
X147433085Y-89345409D01*
X147443393Y-89311431D01*
X147460134Y-89280110D01*
X147482661Y-89252661D01*
X147510110Y-89230134D01*
X147541431Y-89213393D01*
X147575409Y-89203085D01*
X147616890Y-89199000D01*
X148293110Y-89199000D01*
X148334591Y-89203085D01*
X148334591Y-89203085D01*
G37*
G36*
X121029591Y-89203085D02*
G01*
X121063569Y-89213393D01*
X121094890Y-89230134D01*
X121122339Y-89252661D01*
X121144866Y-89280110D01*
X121161607Y-89311431D01*
X121171915Y-89345409D01*
X121176000Y-89386890D01*
X121176000Y-89988110D01*
X121171915Y-90029591D01*
X121161607Y-90063569D01*
X121144866Y-90094890D01*
X121122339Y-90122339D01*
X121094890Y-90144866D01*
X121063569Y-90161607D01*
X121029591Y-90171915D01*
X120988110Y-90176000D01*
X120311890Y-90176000D01*
X120270409Y-90171915D01*
X120236431Y-90161607D01*
X120205110Y-90144866D01*
X120177661Y-90122339D01*
X120155134Y-90094890D01*
X120138393Y-90063569D01*
X120128085Y-90029591D01*
X120124000Y-89988110D01*
X120124000Y-89386890D01*
X120128085Y-89345409D01*
X120138393Y-89311431D01*
X120155134Y-89280110D01*
X120177661Y-89252661D01*
X120205110Y-89230134D01*
X120236431Y-89213393D01*
X120270409Y-89203085D01*
X120311890Y-89199000D01*
X120988110Y-89199000D01*
X121029591Y-89203085D01*
X121029591Y-89203085D01*
G37*
G36*
X123061591Y-89203085D02*
G01*
X123095569Y-89213393D01*
X123126890Y-89230134D01*
X123154339Y-89252661D01*
X123176866Y-89280110D01*
X123193607Y-89311431D01*
X123203915Y-89345409D01*
X123208000Y-89386890D01*
X123208000Y-89988110D01*
X123203915Y-90029591D01*
X123193607Y-90063569D01*
X123176866Y-90094890D01*
X123154339Y-90122339D01*
X123126890Y-90144866D01*
X123095569Y-90161607D01*
X123061591Y-90171915D01*
X123020110Y-90176000D01*
X122343890Y-90176000D01*
X122302409Y-90171915D01*
X122268431Y-90161607D01*
X122237110Y-90144866D01*
X122209661Y-90122339D01*
X122187134Y-90094890D01*
X122170393Y-90063569D01*
X122160085Y-90029591D01*
X122156000Y-89988110D01*
X122156000Y-89386890D01*
X122160085Y-89345409D01*
X122170393Y-89311431D01*
X122187134Y-89280110D01*
X122209661Y-89252661D01*
X122237110Y-89230134D01*
X122268431Y-89213393D01*
X122302409Y-89203085D01*
X122343890Y-89199000D01*
X123020110Y-89199000D01*
X123061591Y-89203085D01*
X123061591Y-89203085D01*
G37*
G36*
X165594591Y-89013085D02*
G01*
X165628569Y-89023393D01*
X165659890Y-89040134D01*
X165687339Y-89062661D01*
X165709866Y-89090110D01*
X165726607Y-89121431D01*
X165736915Y-89155409D01*
X165741000Y-89196890D01*
X165741000Y-89873110D01*
X165736915Y-89914591D01*
X165726607Y-89948569D01*
X165709866Y-89979890D01*
X165687339Y-90007339D01*
X165659890Y-90029866D01*
X165628569Y-90046607D01*
X165594591Y-90056915D01*
X165553110Y-90061000D01*
X164951890Y-90061000D01*
X164910409Y-90056915D01*
X164876431Y-90046607D01*
X164845110Y-90029866D01*
X164817661Y-90007339D01*
X164795134Y-89979890D01*
X164778393Y-89948569D01*
X164768085Y-89914591D01*
X164764000Y-89873110D01*
X164764000Y-89196890D01*
X164768085Y-89155409D01*
X164778393Y-89121431D01*
X164795134Y-89090110D01*
X164817661Y-89062661D01*
X164845110Y-89040134D01*
X164876431Y-89023393D01*
X164910409Y-89013085D01*
X164951890Y-89009000D01*
X165553110Y-89009000D01*
X165594591Y-89013085D01*
X165594591Y-89013085D01*
G37*
G36*
X164019591Y-89013085D02*
G01*
X164053569Y-89023393D01*
X164084890Y-89040134D01*
X164112339Y-89062661D01*
X164134866Y-89090110D01*
X164151607Y-89121431D01*
X164161915Y-89155409D01*
X164166000Y-89196890D01*
X164166000Y-89873110D01*
X164161915Y-89914591D01*
X164151607Y-89948569D01*
X164134866Y-89979890D01*
X164112339Y-90007339D01*
X164084890Y-90029866D01*
X164053569Y-90046607D01*
X164019591Y-90056915D01*
X163978110Y-90061000D01*
X163376890Y-90061000D01*
X163335409Y-90056915D01*
X163301431Y-90046607D01*
X163270110Y-90029866D01*
X163242661Y-90007339D01*
X163220134Y-89979890D01*
X163203393Y-89948569D01*
X163193085Y-89914591D01*
X163189000Y-89873110D01*
X163189000Y-89196890D01*
X163193085Y-89155409D01*
X163203393Y-89121431D01*
X163220134Y-89090110D01*
X163242661Y-89062661D01*
X163270110Y-89040134D01*
X163301431Y-89023393D01*
X163335409Y-89013085D01*
X163376890Y-89009000D01*
X163978110Y-89009000D01*
X164019591Y-89013085D01*
X164019591Y-89013085D01*
G37*
G36*
X138281000Y-89131000D02*
G01*
X137179000Y-89131000D01*
X137179000Y-87879000D01*
X138281000Y-87879000D01*
X138281000Y-89131000D01*
X138281000Y-89131000D01*
G37*
G36*
X139681000Y-89131000D02*
G01*
X138579000Y-89131000D01*
X138579000Y-87879000D01*
X139681000Y-87879000D01*
X139681000Y-89131000D01*
X139681000Y-89131000D01*
G37*
G36*
X118489591Y-88048085D02*
G01*
X118523569Y-88058393D01*
X118554890Y-88075134D01*
X118582339Y-88097661D01*
X118604866Y-88125110D01*
X118621607Y-88156431D01*
X118631915Y-88190409D01*
X118636000Y-88231890D01*
X118636000Y-88833110D01*
X118631915Y-88874591D01*
X118621607Y-88908569D01*
X118604866Y-88939890D01*
X118582339Y-88967339D01*
X118554890Y-88989866D01*
X118523569Y-89006607D01*
X118489591Y-89016915D01*
X118448110Y-89021000D01*
X117771890Y-89021000D01*
X117730409Y-89016915D01*
X117696431Y-89006607D01*
X117665110Y-88989866D01*
X117637661Y-88967339D01*
X117615134Y-88939890D01*
X117598393Y-88908569D01*
X117588085Y-88874591D01*
X117584000Y-88833110D01*
X117584000Y-88231890D01*
X117588085Y-88190409D01*
X117598393Y-88156431D01*
X117615134Y-88125110D01*
X117637661Y-88097661D01*
X117665110Y-88075134D01*
X117696431Y-88058393D01*
X117730409Y-88048085D01*
X117771890Y-88044000D01*
X118448110Y-88044000D01*
X118489591Y-88048085D01*
X118489591Y-88048085D01*
G37*
G36*
X132031000Y-88921000D02*
G01*
X125779000Y-88921000D01*
X125779000Y-87219000D01*
X132031000Y-87219000D01*
X132031000Y-88921000D01*
X132031000Y-88921000D01*
G37*
G36*
X141349591Y-87933085D02*
G01*
X141383569Y-87943393D01*
X141414890Y-87960134D01*
X141442339Y-87982661D01*
X141464866Y-88010110D01*
X141481607Y-88041431D01*
X141491915Y-88075409D01*
X141496000Y-88116890D01*
X141496000Y-88718110D01*
X141491915Y-88759591D01*
X141481607Y-88793569D01*
X141464866Y-88824890D01*
X141442339Y-88852339D01*
X141414890Y-88874866D01*
X141383569Y-88891607D01*
X141349591Y-88901915D01*
X141308110Y-88906000D01*
X140631890Y-88906000D01*
X140590409Y-88901915D01*
X140556431Y-88891607D01*
X140525110Y-88874866D01*
X140497661Y-88852339D01*
X140475134Y-88824890D01*
X140458393Y-88793569D01*
X140448085Y-88759591D01*
X140444000Y-88718110D01*
X140444000Y-88116890D01*
X140448085Y-88075409D01*
X140458393Y-88041431D01*
X140475134Y-88010110D01*
X140497661Y-87982661D01*
X140525110Y-87960134D01*
X140556431Y-87943393D01*
X140590409Y-87933085D01*
X140631890Y-87929000D01*
X141308110Y-87929000D01*
X141349591Y-87933085D01*
X141349591Y-87933085D01*
G37*
G36*
X136269591Y-87933085D02*
G01*
X136303569Y-87943393D01*
X136334890Y-87960134D01*
X136362339Y-87982661D01*
X136384866Y-88010110D01*
X136401607Y-88041431D01*
X136411915Y-88075409D01*
X136416000Y-88116890D01*
X136416000Y-88718110D01*
X136411915Y-88759591D01*
X136401607Y-88793569D01*
X136384866Y-88824890D01*
X136362339Y-88852339D01*
X136334890Y-88874866D01*
X136303569Y-88891607D01*
X136269591Y-88901915D01*
X136228110Y-88906000D01*
X135551890Y-88906000D01*
X135510409Y-88901915D01*
X135476431Y-88891607D01*
X135445110Y-88874866D01*
X135417661Y-88852339D01*
X135395134Y-88824890D01*
X135378393Y-88793569D01*
X135368085Y-88759591D01*
X135364000Y-88718110D01*
X135364000Y-88116890D01*
X135368085Y-88075409D01*
X135378393Y-88041431D01*
X135395134Y-88010110D01*
X135417661Y-87982661D01*
X135445110Y-87960134D01*
X135476431Y-87943393D01*
X135510409Y-87933085D01*
X135551890Y-87929000D01*
X136228110Y-87929000D01*
X136269591Y-87933085D01*
X136269591Y-87933085D01*
G37*
G36*
X123061591Y-87628085D02*
G01*
X123095569Y-87638393D01*
X123126890Y-87655134D01*
X123154339Y-87677661D01*
X123176866Y-87705110D01*
X123193607Y-87736431D01*
X123203915Y-87770409D01*
X123208000Y-87811890D01*
X123208000Y-88413110D01*
X123203915Y-88454591D01*
X123193607Y-88488569D01*
X123176866Y-88519890D01*
X123154339Y-88547339D01*
X123126890Y-88569866D01*
X123095569Y-88586607D01*
X123061591Y-88596915D01*
X123020110Y-88601000D01*
X122343890Y-88601000D01*
X122302409Y-88596915D01*
X122268431Y-88586607D01*
X122237110Y-88569866D01*
X122209661Y-88547339D01*
X122187134Y-88519890D01*
X122170393Y-88488569D01*
X122160085Y-88454591D01*
X122156000Y-88413110D01*
X122156000Y-87811890D01*
X122160085Y-87770409D01*
X122170393Y-87736431D01*
X122187134Y-87705110D01*
X122209661Y-87677661D01*
X122237110Y-87655134D01*
X122268431Y-87638393D01*
X122302409Y-87628085D01*
X122343890Y-87624000D01*
X123020110Y-87624000D01*
X123061591Y-87628085D01*
X123061591Y-87628085D01*
G37*
G36*
X148334591Y-87628085D02*
G01*
X148368569Y-87638393D01*
X148399890Y-87655134D01*
X148427339Y-87677661D01*
X148449866Y-87705110D01*
X148466607Y-87736431D01*
X148476915Y-87770409D01*
X148481000Y-87811890D01*
X148481000Y-88413110D01*
X148476915Y-88454591D01*
X148466607Y-88488569D01*
X148449866Y-88519890D01*
X148427339Y-88547339D01*
X148399890Y-88569866D01*
X148368569Y-88586607D01*
X148334591Y-88596915D01*
X148293110Y-88601000D01*
X147616890Y-88601000D01*
X147575409Y-88596915D01*
X147541431Y-88586607D01*
X147510110Y-88569866D01*
X147482661Y-88547339D01*
X147460134Y-88519890D01*
X147443393Y-88488569D01*
X147433085Y-88454591D01*
X147429000Y-88413110D01*
X147429000Y-87811890D01*
X147433085Y-87770409D01*
X147443393Y-87736431D01*
X147460134Y-87705110D01*
X147482661Y-87677661D01*
X147510110Y-87655134D01*
X147541431Y-87638393D01*
X147575409Y-87628085D01*
X147616890Y-87624000D01*
X148293110Y-87624000D01*
X148334591Y-87628085D01*
X148334591Y-87628085D01*
G37*
G36*
X121029591Y-87628085D02*
G01*
X121063569Y-87638393D01*
X121094890Y-87655134D01*
X121122339Y-87677661D01*
X121144866Y-87705110D01*
X121161607Y-87736431D01*
X121171915Y-87770409D01*
X121176000Y-87811890D01*
X121176000Y-88413110D01*
X121171915Y-88454591D01*
X121161607Y-88488569D01*
X121144866Y-88519890D01*
X121122339Y-88547339D01*
X121094890Y-88569866D01*
X121063569Y-88586607D01*
X121029591Y-88596915D01*
X120988110Y-88601000D01*
X120311890Y-88601000D01*
X120270409Y-88596915D01*
X120236431Y-88586607D01*
X120205110Y-88569866D01*
X120177661Y-88547339D01*
X120155134Y-88519890D01*
X120138393Y-88488569D01*
X120128085Y-88454591D01*
X120124000Y-88413110D01*
X120124000Y-87811890D01*
X120128085Y-87770409D01*
X120138393Y-87736431D01*
X120155134Y-87705110D01*
X120177661Y-87677661D01*
X120205110Y-87655134D01*
X120236431Y-87638393D01*
X120270409Y-87628085D01*
X120311890Y-87624000D01*
X120988110Y-87624000D01*
X121029591Y-87628085D01*
X121029591Y-87628085D01*
G37*
G36*
X151581000Y-88401000D02*
G01*
X150679000Y-88401000D01*
X150679000Y-87399000D01*
X151581000Y-87399000D01*
X151581000Y-88401000D01*
X151581000Y-88401000D01*
G37*
G36*
X118489591Y-86473085D02*
G01*
X118523569Y-86483393D01*
X118554890Y-86500134D01*
X118582339Y-86522661D01*
X118604866Y-86550110D01*
X118621607Y-86581431D01*
X118631915Y-86615409D01*
X118636000Y-86656890D01*
X118636000Y-87258110D01*
X118631915Y-87299591D01*
X118621607Y-87333569D01*
X118604866Y-87364890D01*
X118582339Y-87392339D01*
X118554890Y-87414866D01*
X118523569Y-87431607D01*
X118489591Y-87441915D01*
X118448110Y-87446000D01*
X117771890Y-87446000D01*
X117730409Y-87441915D01*
X117696431Y-87431607D01*
X117665110Y-87414866D01*
X117637661Y-87392339D01*
X117615134Y-87364890D01*
X117598393Y-87333569D01*
X117588085Y-87299591D01*
X117584000Y-87258110D01*
X117584000Y-86656890D01*
X117588085Y-86615409D01*
X117598393Y-86581431D01*
X117615134Y-86550110D01*
X117637661Y-86522661D01*
X117665110Y-86500134D01*
X117696431Y-86483393D01*
X117730409Y-86473085D01*
X117771890Y-86469000D01*
X118448110Y-86469000D01*
X118489591Y-86473085D01*
X118489591Y-86473085D01*
G37*
G36*
X138281000Y-87381000D02*
G01*
X137179000Y-87381000D01*
X137179000Y-86129000D01*
X138281000Y-86129000D01*
X138281000Y-87381000D01*
X138281000Y-87381000D01*
G37*
G36*
X139681000Y-87381000D02*
G01*
X138579000Y-87381000D01*
X138579000Y-86129000D01*
X139681000Y-86129000D01*
X139681000Y-87381000D01*
X139681000Y-87381000D01*
G37*
G36*
X141349591Y-86358085D02*
G01*
X141383569Y-86368393D01*
X141414890Y-86385134D01*
X141442339Y-86407661D01*
X141464866Y-86435110D01*
X141481607Y-86466431D01*
X141491915Y-86500409D01*
X141496000Y-86541890D01*
X141496000Y-87143110D01*
X141491915Y-87184591D01*
X141481607Y-87218569D01*
X141464866Y-87249890D01*
X141442339Y-87277339D01*
X141414890Y-87299866D01*
X141383569Y-87316607D01*
X141349591Y-87326915D01*
X141308110Y-87331000D01*
X140631890Y-87331000D01*
X140590409Y-87326915D01*
X140556431Y-87316607D01*
X140525110Y-87299866D01*
X140497661Y-87277339D01*
X140475134Y-87249890D01*
X140458393Y-87218569D01*
X140448085Y-87184591D01*
X140444000Y-87143110D01*
X140444000Y-86541890D01*
X140448085Y-86500409D01*
X140458393Y-86466431D01*
X140475134Y-86435110D01*
X140497661Y-86407661D01*
X140525110Y-86385134D01*
X140556431Y-86368393D01*
X140590409Y-86358085D01*
X140631890Y-86354000D01*
X141308110Y-86354000D01*
X141349591Y-86358085D01*
X141349591Y-86358085D01*
G37*
G36*
X136269591Y-86358085D02*
G01*
X136303569Y-86368393D01*
X136334890Y-86385134D01*
X136362339Y-86407661D01*
X136384866Y-86435110D01*
X136401607Y-86466431D01*
X136411915Y-86500409D01*
X136416000Y-86541890D01*
X136416000Y-87143110D01*
X136411915Y-87184591D01*
X136401607Y-87218569D01*
X136384866Y-87249890D01*
X136362339Y-87277339D01*
X136334890Y-87299866D01*
X136303569Y-87316607D01*
X136269591Y-87326915D01*
X136228110Y-87331000D01*
X135551890Y-87331000D01*
X135510409Y-87326915D01*
X135476431Y-87316607D01*
X135445110Y-87299866D01*
X135417661Y-87277339D01*
X135395134Y-87249890D01*
X135378393Y-87218569D01*
X135368085Y-87184591D01*
X135364000Y-87143110D01*
X135364000Y-86541890D01*
X135368085Y-86500409D01*
X135378393Y-86466431D01*
X135395134Y-86435110D01*
X135417661Y-86407661D01*
X135445110Y-86385134D01*
X135476431Y-86368393D01*
X135510409Y-86358085D01*
X135551890Y-86354000D01*
X136228110Y-86354000D01*
X136269591Y-86358085D01*
X136269591Y-86358085D01*
G37*
G36*
X164421000Y-87141000D02*
G01*
X161819000Y-87141000D01*
X161819000Y-86039000D01*
X164421000Y-86039000D01*
X164421000Y-87141000D01*
X164421000Y-87141000D01*
G37*
G36*
X134006000Y-86946000D02*
G01*
X132304000Y-86946000D01*
X132304000Y-80694000D01*
X134006000Y-80694000D01*
X134006000Y-86946000D01*
X134006000Y-86946000D01*
G37*
G36*
X125506000Y-86946000D02*
G01*
X123804000Y-86946000D01*
X123804000Y-80694000D01*
X125506000Y-80694000D01*
X125506000Y-86946000D01*
X125506000Y-86946000D01*
G37*
G36*
X122399591Y-85393085D02*
G01*
X122433569Y-85403393D01*
X122464890Y-85420134D01*
X122492339Y-85442661D01*
X122514866Y-85470110D01*
X122531607Y-85501431D01*
X122541915Y-85535409D01*
X122546000Y-85576890D01*
X122546000Y-86178110D01*
X122541915Y-86219591D01*
X122531607Y-86253569D01*
X122514866Y-86284890D01*
X122492339Y-86312339D01*
X122464890Y-86334866D01*
X122433569Y-86351607D01*
X122399591Y-86361915D01*
X122358110Y-86366000D01*
X121681890Y-86366000D01*
X121640409Y-86361915D01*
X121606431Y-86351607D01*
X121575110Y-86334866D01*
X121547661Y-86312339D01*
X121525134Y-86284890D01*
X121508393Y-86253569D01*
X121498085Y-86219591D01*
X121494000Y-86178110D01*
X121494000Y-85576890D01*
X121498085Y-85535409D01*
X121508393Y-85501431D01*
X121525134Y-85470110D01*
X121547661Y-85442661D01*
X121575110Y-85420134D01*
X121606431Y-85403393D01*
X121640409Y-85393085D01*
X121681890Y-85389000D01*
X122358110Y-85389000D01*
X122399591Y-85393085D01*
X122399591Y-85393085D01*
G37*
G36*
X152779591Y-85393085D02*
G01*
X152813569Y-85403393D01*
X152844890Y-85420134D01*
X152872339Y-85442661D01*
X152894866Y-85470110D01*
X152911607Y-85501431D01*
X152921915Y-85535409D01*
X152926000Y-85576890D01*
X152926000Y-86178110D01*
X152921915Y-86219591D01*
X152911607Y-86253569D01*
X152894866Y-86284890D01*
X152872339Y-86312339D01*
X152844890Y-86334866D01*
X152813569Y-86351607D01*
X152779591Y-86361915D01*
X152738110Y-86366000D01*
X152061890Y-86366000D01*
X152020409Y-86361915D01*
X151986431Y-86351607D01*
X151955110Y-86334866D01*
X151927661Y-86312339D01*
X151905134Y-86284890D01*
X151888393Y-86253569D01*
X151878085Y-86219591D01*
X151874000Y-86178110D01*
X151874000Y-85576890D01*
X151878085Y-85535409D01*
X151888393Y-85501431D01*
X151905134Y-85470110D01*
X151927661Y-85442661D01*
X151955110Y-85420134D01*
X151986431Y-85403393D01*
X152020409Y-85393085D01*
X152061890Y-85389000D01*
X152738110Y-85389000D01*
X152779591Y-85393085D01*
X152779591Y-85393085D01*
G37*
G36*
X154684591Y-85393085D02*
G01*
X154718569Y-85403393D01*
X154749890Y-85420134D01*
X154777339Y-85442661D01*
X154799866Y-85470110D01*
X154816607Y-85501431D01*
X154826915Y-85535409D01*
X154831000Y-85576890D01*
X154831000Y-86178110D01*
X154826915Y-86219591D01*
X154816607Y-86253569D01*
X154799866Y-86284890D01*
X154777339Y-86312339D01*
X154749890Y-86334866D01*
X154718569Y-86351607D01*
X154684591Y-86361915D01*
X154643110Y-86366000D01*
X153966890Y-86366000D01*
X153925409Y-86361915D01*
X153891431Y-86351607D01*
X153860110Y-86334866D01*
X153832661Y-86312339D01*
X153810134Y-86284890D01*
X153793393Y-86253569D01*
X153783085Y-86219591D01*
X153779000Y-86178110D01*
X153779000Y-85576890D01*
X153783085Y-85535409D01*
X153793393Y-85501431D01*
X153810134Y-85470110D01*
X153832661Y-85442661D01*
X153860110Y-85420134D01*
X153891431Y-85403393D01*
X153925409Y-85393085D01*
X153966890Y-85389000D01*
X154643110Y-85389000D01*
X154684591Y-85393085D01*
X154684591Y-85393085D01*
G37*
G36*
X150239591Y-85393085D02*
G01*
X150273569Y-85403393D01*
X150304890Y-85420134D01*
X150332339Y-85442661D01*
X150354866Y-85470110D01*
X150371607Y-85501431D01*
X150381915Y-85535409D01*
X150386000Y-85576890D01*
X150386000Y-86178110D01*
X150381915Y-86219591D01*
X150371607Y-86253569D01*
X150354866Y-86284890D01*
X150332339Y-86312339D01*
X150304890Y-86334866D01*
X150273569Y-86351607D01*
X150239591Y-86361915D01*
X150198110Y-86366000D01*
X149521890Y-86366000D01*
X149480409Y-86361915D01*
X149446431Y-86351607D01*
X149415110Y-86334866D01*
X149387661Y-86312339D01*
X149365134Y-86284890D01*
X149348393Y-86253569D01*
X149338085Y-86219591D01*
X149334000Y-86178110D01*
X149334000Y-85576890D01*
X149338085Y-85535409D01*
X149348393Y-85501431D01*
X149365134Y-85470110D01*
X149387661Y-85442661D01*
X149415110Y-85420134D01*
X149446431Y-85403393D01*
X149480409Y-85393085D01*
X149521890Y-85389000D01*
X150198110Y-85389000D01*
X150239591Y-85393085D01*
X150239591Y-85393085D01*
G37*
G36*
X165177066Y-83983447D02*
G01*
X165192611Y-84002389D01*
X165211553Y-84017934D01*
X165233164Y-84029485D01*
X165256613Y-84036598D01*
X165280999Y-84039000D01*
X169131000Y-84039000D01*
X169131000Y-86141000D01*
X165280999Y-86141000D01*
X165256613Y-86143402D01*
X165233164Y-86150515D01*
X165211553Y-86162066D01*
X165192611Y-86177611D01*
X165177066Y-86196553D01*
X165175968Y-86198607D01*
X165121049Y-86161994D01*
X165099426Y-86150465D01*
X165075970Y-86143376D01*
X165051712Y-86141000D01*
X165025949Y-86141000D01*
X165019485Y-86119690D01*
X165007934Y-86098079D01*
X164992389Y-86079137D01*
X164973338Y-86063520D01*
X164615336Y-85824852D01*
X164603435Y-85818507D01*
X164593053Y-85809996D01*
X164371050Y-85661994D01*
X164349427Y-85650465D01*
X164325971Y-85643376D01*
X164301713Y-85641000D01*
X161819000Y-85641000D01*
X161819000Y-84539000D01*
X164301713Y-84539000D01*
X164326099Y-84536598D01*
X164349548Y-84529485D01*
X164371050Y-84518006D01*
X164593053Y-84370004D01*
X164603437Y-84361500D01*
X164615336Y-84355148D01*
X164973338Y-84116480D01*
X164992296Y-84100955D01*
X165007861Y-84082029D01*
X165019435Y-84060431D01*
X165025961Y-84039000D01*
X165051712Y-84039000D01*
X165076098Y-84036598D01*
X165099547Y-84029485D01*
X165121049Y-84018006D01*
X165175968Y-83981393D01*
X165177066Y-83983447D01*
X165177066Y-83983447D01*
G37*
G36*
X136015591Y-84631085D02*
G01*
X136049569Y-84641393D01*
X136080890Y-84658134D01*
X136108339Y-84680661D01*
X136130866Y-84708110D01*
X136147607Y-84739431D01*
X136157915Y-84773409D01*
X136162000Y-84814890D01*
X136162000Y-85416110D01*
X136157915Y-85457591D01*
X136147607Y-85491569D01*
X136130866Y-85522890D01*
X136108339Y-85550339D01*
X136080890Y-85572866D01*
X136049569Y-85589607D01*
X136015591Y-85599915D01*
X135974110Y-85604000D01*
X135297890Y-85604000D01*
X135256409Y-85599915D01*
X135222431Y-85589607D01*
X135191110Y-85572866D01*
X135163661Y-85550339D01*
X135141134Y-85522890D01*
X135124393Y-85491569D01*
X135114085Y-85457591D01*
X135110000Y-85416110D01*
X135110000Y-84814890D01*
X135114085Y-84773409D01*
X135124393Y-84739431D01*
X135141134Y-84708110D01*
X135163661Y-84680661D01*
X135191110Y-84658134D01*
X135222431Y-84641393D01*
X135256409Y-84631085D01*
X135297890Y-84627000D01*
X135974110Y-84627000D01*
X136015591Y-84631085D01*
X136015591Y-84631085D01*
G37*
G36*
X158486000Y-85201000D02*
G01*
X157744000Y-85201000D01*
X157744000Y-83099000D01*
X158486000Y-83099000D01*
X158486000Y-85201000D01*
X158486000Y-85201000D01*
G37*
G36*
X148101000Y-85201000D02*
G01*
X147359000Y-85201000D01*
X147359000Y-83099000D01*
X148101000Y-83099000D01*
X148101000Y-85201000D01*
X148101000Y-85201000D01*
G37*
G36*
X146831000Y-85201000D02*
G01*
X146089000Y-85201000D01*
X146089000Y-83099000D01*
X146831000Y-83099000D01*
X146831000Y-85201000D01*
X146831000Y-85201000D01*
G37*
G36*
X157216000Y-85201000D02*
G01*
X156474000Y-85201000D01*
X156474000Y-83099000D01*
X157216000Y-83099000D01*
X157216000Y-85201000D01*
X157216000Y-85201000D01*
G37*
G36*
X113881000Y-85201000D02*
G01*
X112179000Y-85201000D01*
X112179000Y-82899000D01*
X113881000Y-82899000D01*
X113881000Y-85201000D01*
X113881000Y-85201000D01*
G37*
G36*
X150239591Y-83818085D02*
G01*
X150273569Y-83828393D01*
X150304890Y-83845134D01*
X150332339Y-83867661D01*
X150354866Y-83895110D01*
X150371607Y-83926431D01*
X150381915Y-83960409D01*
X150386000Y-84001890D01*
X150386000Y-84603110D01*
X150381915Y-84644591D01*
X150371607Y-84678569D01*
X150354866Y-84709890D01*
X150332339Y-84737339D01*
X150304890Y-84759866D01*
X150273569Y-84776607D01*
X150239591Y-84786915D01*
X150198110Y-84791000D01*
X149521890Y-84791000D01*
X149480409Y-84786915D01*
X149446431Y-84776607D01*
X149415110Y-84759866D01*
X149387661Y-84737339D01*
X149365134Y-84709890D01*
X149348393Y-84678569D01*
X149338085Y-84644591D01*
X149334000Y-84603110D01*
X149334000Y-84001890D01*
X149338085Y-83960409D01*
X149348393Y-83926431D01*
X149365134Y-83895110D01*
X149387661Y-83867661D01*
X149415110Y-83845134D01*
X149446431Y-83828393D01*
X149480409Y-83818085D01*
X149521890Y-83814000D01*
X150198110Y-83814000D01*
X150239591Y-83818085D01*
X150239591Y-83818085D01*
G37*
G36*
X122399591Y-83818085D02*
G01*
X122433569Y-83828393D01*
X122464890Y-83845134D01*
X122492339Y-83867661D01*
X122514866Y-83895110D01*
X122531607Y-83926431D01*
X122541915Y-83960409D01*
X122546000Y-84001890D01*
X122546000Y-84603110D01*
X122541915Y-84644591D01*
X122531607Y-84678569D01*
X122514866Y-84709890D01*
X122492339Y-84737339D01*
X122464890Y-84759866D01*
X122433569Y-84776607D01*
X122399591Y-84786915D01*
X122358110Y-84791000D01*
X121681890Y-84791000D01*
X121640409Y-84786915D01*
X121606431Y-84776607D01*
X121575110Y-84759866D01*
X121547661Y-84737339D01*
X121525134Y-84709890D01*
X121508393Y-84678569D01*
X121498085Y-84644591D01*
X121494000Y-84603110D01*
X121494000Y-84001890D01*
X121498085Y-83960409D01*
X121508393Y-83926431D01*
X121525134Y-83895110D01*
X121547661Y-83867661D01*
X121575110Y-83845134D01*
X121606431Y-83828393D01*
X121640409Y-83818085D01*
X121681890Y-83814000D01*
X122358110Y-83814000D01*
X122399591Y-83818085D01*
X122399591Y-83818085D01*
G37*
G36*
X152779591Y-83818085D02*
G01*
X152813569Y-83828393D01*
X152844890Y-83845134D01*
X152872339Y-83867661D01*
X152894866Y-83895110D01*
X152911607Y-83926431D01*
X152921915Y-83960409D01*
X152926000Y-84001890D01*
X152926000Y-84603110D01*
X152921915Y-84644591D01*
X152911607Y-84678569D01*
X152894866Y-84709890D01*
X152872339Y-84737339D01*
X152844890Y-84759866D01*
X152813569Y-84776607D01*
X152779591Y-84786915D01*
X152738110Y-84791000D01*
X152061890Y-84791000D01*
X152020409Y-84786915D01*
X151986431Y-84776607D01*
X151955110Y-84759866D01*
X151927661Y-84737339D01*
X151905134Y-84709890D01*
X151888393Y-84678569D01*
X151878085Y-84644591D01*
X151874000Y-84603110D01*
X151874000Y-84001890D01*
X151878085Y-83960409D01*
X151888393Y-83926431D01*
X151905134Y-83895110D01*
X151927661Y-83867661D01*
X151955110Y-83845134D01*
X151986431Y-83828393D01*
X152020409Y-83818085D01*
X152061890Y-83814000D01*
X152738110Y-83814000D01*
X152779591Y-83818085D01*
X152779591Y-83818085D01*
G37*
G36*
X154684591Y-83818085D02*
G01*
X154718569Y-83828393D01*
X154749890Y-83845134D01*
X154777339Y-83867661D01*
X154799866Y-83895110D01*
X154816607Y-83926431D01*
X154826915Y-83960409D01*
X154831000Y-84001890D01*
X154831000Y-84603110D01*
X154826915Y-84644591D01*
X154816607Y-84678569D01*
X154799866Y-84709890D01*
X154777339Y-84737339D01*
X154749890Y-84759866D01*
X154718569Y-84776607D01*
X154684591Y-84786915D01*
X154643110Y-84791000D01*
X153966890Y-84791000D01*
X153925409Y-84786915D01*
X153891431Y-84776607D01*
X153860110Y-84759866D01*
X153832661Y-84737339D01*
X153810134Y-84709890D01*
X153793393Y-84678569D01*
X153783085Y-84644591D01*
X153779000Y-84603110D01*
X153779000Y-84001890D01*
X153783085Y-83960409D01*
X153793393Y-83926431D01*
X153810134Y-83895110D01*
X153832661Y-83867661D01*
X153860110Y-83845134D01*
X153891431Y-83828393D01*
X153925409Y-83818085D01*
X153966890Y-83814000D01*
X154643110Y-83814000D01*
X154684591Y-83818085D01*
X154684591Y-83818085D01*
G37*
G36*
X164421000Y-84141000D02*
G01*
X161819000Y-84141000D01*
X161819000Y-83039000D01*
X164421000Y-83039000D01*
X164421000Y-84141000D01*
X164421000Y-84141000D01*
G37*
G36*
X136015591Y-83056085D02*
G01*
X136049569Y-83066393D01*
X136080890Y-83083134D01*
X136108339Y-83105661D01*
X136130866Y-83133110D01*
X136147607Y-83164431D01*
X136157915Y-83198409D01*
X136162000Y-83239890D01*
X136162000Y-83841110D01*
X136157915Y-83882591D01*
X136147607Y-83916569D01*
X136130866Y-83947890D01*
X136108339Y-83975339D01*
X136080890Y-83997866D01*
X136049569Y-84014607D01*
X136015591Y-84024915D01*
X135974110Y-84029000D01*
X135297890Y-84029000D01*
X135256409Y-84024915D01*
X135222431Y-84014607D01*
X135191110Y-83997866D01*
X135163661Y-83975339D01*
X135141134Y-83947890D01*
X135124393Y-83916569D01*
X135114085Y-83882591D01*
X135110000Y-83841110D01*
X135110000Y-83239890D01*
X135114085Y-83198409D01*
X135124393Y-83164431D01*
X135141134Y-83133110D01*
X135163661Y-83105661D01*
X135191110Y-83083134D01*
X135222431Y-83066393D01*
X135256409Y-83056085D01*
X135297890Y-83052000D01*
X135974110Y-83052000D01*
X136015591Y-83056085D01*
X136015591Y-83056085D01*
G37*
G36*
X142521564Y-81919389D02*
G01*
X142712833Y-81998615D01*
X142712835Y-81998616D01*
X142884973Y-82113635D01*
X143031365Y-82260027D01*
X143121325Y-82394661D01*
X143146385Y-82432167D01*
X143225611Y-82623436D01*
X143266000Y-82826484D01*
X143266000Y-83033516D01*
X143225611Y-83236564D01*
X143204775Y-83286866D01*
X143146384Y-83427835D01*
X143031365Y-83599973D01*
X142884973Y-83746365D01*
X142712835Y-83861384D01*
X142712834Y-83861385D01*
X142712833Y-83861385D01*
X142521564Y-83940611D01*
X142318516Y-83981000D01*
X142111484Y-83981000D01*
X141908436Y-83940611D01*
X141717167Y-83861385D01*
X141717166Y-83861385D01*
X141717165Y-83861384D01*
X141545027Y-83746365D01*
X141398635Y-83599973D01*
X141283616Y-83427835D01*
X141225225Y-83286866D01*
X141204389Y-83236564D01*
X141164000Y-83033516D01*
X141164000Y-82826484D01*
X141204389Y-82623436D01*
X141283615Y-82432167D01*
X141308676Y-82394661D01*
X141398635Y-82260027D01*
X141545027Y-82113635D01*
X141717165Y-81998616D01*
X141717167Y-81998615D01*
X141908436Y-81919389D01*
X142111484Y-81879000D01*
X142318516Y-81879000D01*
X142521564Y-81919389D01*
X142521564Y-81919389D01*
G37*
G36*
X117366000Y-83981000D02*
G01*
X115264000Y-83981000D01*
X115264000Y-81879000D01*
X117366000Y-81879000D01*
X117366000Y-83981000D01*
X117366000Y-83981000D01*
G37*
G36*
X109457142Y-82053242D02*
G01*
X109605101Y-82114529D01*
X109738255Y-82203499D01*
X109851501Y-82316745D01*
X109940471Y-82449899D01*
X110001758Y-82597858D01*
X110033000Y-82754925D01*
X110033000Y-82915075D01*
X110001758Y-83072142D01*
X109940471Y-83220101D01*
X109851501Y-83353255D01*
X109738255Y-83466501D01*
X109605101Y-83555471D01*
X109457142Y-83616758D01*
X109300075Y-83648000D01*
X109139925Y-83648000D01*
X108982858Y-83616758D01*
X108834899Y-83555471D01*
X108701745Y-83466501D01*
X108588499Y-83353255D01*
X108499529Y-83220101D01*
X108438242Y-83072142D01*
X108407000Y-82915075D01*
X108407000Y-82754925D01*
X108438242Y-82597858D01*
X108499529Y-82449899D01*
X108588499Y-82316745D01*
X108701745Y-82203499D01*
X108834899Y-82114529D01*
X108982858Y-82053242D01*
X109139925Y-82022000D01*
X109300075Y-82022000D01*
X109457142Y-82053242D01*
X109457142Y-82053242D01*
G37*
G36*
X122399591Y-82345085D02*
G01*
X122433569Y-82355393D01*
X122464890Y-82372134D01*
X122492339Y-82394661D01*
X122514866Y-82422110D01*
X122531607Y-82453431D01*
X122541915Y-82487409D01*
X122546000Y-82528890D01*
X122546000Y-83130110D01*
X122541915Y-83171591D01*
X122531607Y-83205569D01*
X122514866Y-83236890D01*
X122492339Y-83264339D01*
X122464890Y-83286866D01*
X122433569Y-83303607D01*
X122399591Y-83313915D01*
X122358110Y-83318000D01*
X121681890Y-83318000D01*
X121640409Y-83313915D01*
X121606431Y-83303607D01*
X121575110Y-83286866D01*
X121547661Y-83264339D01*
X121525134Y-83236890D01*
X121508393Y-83205569D01*
X121498085Y-83171591D01*
X121494000Y-83130110D01*
X121494000Y-82528890D01*
X121498085Y-82487409D01*
X121508393Y-82453431D01*
X121525134Y-82422110D01*
X121547661Y-82394661D01*
X121575110Y-82372134D01*
X121606431Y-82355393D01*
X121640409Y-82345085D01*
X121681890Y-82341000D01*
X122358110Y-82341000D01*
X122399591Y-82345085D01*
X122399591Y-82345085D01*
G37*
G36*
X107694591Y-82218085D02*
G01*
X107728569Y-82228393D01*
X107759890Y-82245134D01*
X107787339Y-82267661D01*
X107809866Y-82295110D01*
X107826607Y-82326431D01*
X107836915Y-82360409D01*
X107841000Y-82401890D01*
X107841000Y-83003110D01*
X107836915Y-83044591D01*
X107826607Y-83078569D01*
X107809866Y-83109890D01*
X107787339Y-83137339D01*
X107759890Y-83159866D01*
X107728569Y-83176607D01*
X107694591Y-83186915D01*
X107653110Y-83191000D01*
X106976890Y-83191000D01*
X106935409Y-83186915D01*
X106901431Y-83176607D01*
X106870110Y-83159866D01*
X106842661Y-83137339D01*
X106820134Y-83109890D01*
X106803393Y-83078569D01*
X106793085Y-83044591D01*
X106789000Y-83003110D01*
X106789000Y-82401890D01*
X106793085Y-82360409D01*
X106803393Y-82326431D01*
X106820134Y-82295110D01*
X106842661Y-82267661D01*
X106870110Y-82245134D01*
X106901431Y-82228393D01*
X106935409Y-82218085D01*
X106976890Y-82214000D01*
X107653110Y-82214000D01*
X107694591Y-82218085D01*
X107694591Y-82218085D01*
G37*
G36*
X113881000Y-82201000D02*
G01*
X112179000Y-82201000D01*
X112179000Y-79899000D01*
X113881000Y-79899000D01*
X113881000Y-82201000D01*
X113881000Y-82201000D01*
G37*
G36*
X138379591Y-80728085D02*
G01*
X138413569Y-80738393D01*
X138444890Y-80755134D01*
X138472339Y-80777661D01*
X138494866Y-80805110D01*
X138511607Y-80836431D01*
X138521915Y-80870409D01*
X138526000Y-80911890D01*
X138526000Y-81588110D01*
X138521915Y-81629591D01*
X138511607Y-81663569D01*
X138494866Y-81694890D01*
X138472339Y-81722339D01*
X138444890Y-81744866D01*
X138413569Y-81761607D01*
X138379591Y-81771915D01*
X138338110Y-81776000D01*
X137736890Y-81776000D01*
X137695409Y-81771915D01*
X137661431Y-81761607D01*
X137630110Y-81744866D01*
X137602661Y-81722339D01*
X137580134Y-81694890D01*
X137563393Y-81663569D01*
X137553085Y-81629591D01*
X137549000Y-81588110D01*
X137549000Y-80911890D01*
X137553085Y-80870409D01*
X137563393Y-80836431D01*
X137580134Y-80805110D01*
X137602661Y-80777661D01*
X137630110Y-80755134D01*
X137661431Y-80738393D01*
X137695409Y-80728085D01*
X137736890Y-80724000D01*
X138338110Y-80724000D01*
X138379591Y-80728085D01*
X138379591Y-80728085D01*
G37*
G36*
X136804591Y-80728085D02*
G01*
X136838569Y-80738393D01*
X136869890Y-80755134D01*
X136897339Y-80777661D01*
X136919866Y-80805110D01*
X136936607Y-80836431D01*
X136946915Y-80870409D01*
X136951000Y-80911890D01*
X136951000Y-81588110D01*
X136946915Y-81629591D01*
X136936607Y-81663569D01*
X136919866Y-81694890D01*
X136897339Y-81722339D01*
X136869890Y-81744866D01*
X136838569Y-81761607D01*
X136804591Y-81771915D01*
X136763110Y-81776000D01*
X136161890Y-81776000D01*
X136120409Y-81771915D01*
X136086431Y-81761607D01*
X136055110Y-81744866D01*
X136027661Y-81722339D01*
X136005134Y-81694890D01*
X135988393Y-81663569D01*
X135978085Y-81629591D01*
X135974000Y-81588110D01*
X135974000Y-80911890D01*
X135978085Y-80870409D01*
X135988393Y-80836431D01*
X136005134Y-80805110D01*
X136027661Y-80777661D01*
X136055110Y-80755134D01*
X136086431Y-80738393D01*
X136120409Y-80728085D01*
X136161890Y-80724000D01*
X136763110Y-80724000D01*
X136804591Y-80728085D01*
X136804591Y-80728085D01*
G37*
G36*
X122399591Y-80770085D02*
G01*
X122433569Y-80780393D01*
X122464890Y-80797134D01*
X122492339Y-80819661D01*
X122514866Y-80847110D01*
X122531607Y-80878431D01*
X122541915Y-80912409D01*
X122546000Y-80953890D01*
X122546000Y-81555110D01*
X122541915Y-81596591D01*
X122531607Y-81630569D01*
X122514866Y-81661890D01*
X122492339Y-81689339D01*
X122464890Y-81711866D01*
X122433569Y-81728607D01*
X122399591Y-81738915D01*
X122358110Y-81743000D01*
X121681890Y-81743000D01*
X121640409Y-81738915D01*
X121606431Y-81728607D01*
X121575110Y-81711866D01*
X121547661Y-81689339D01*
X121525134Y-81661890D01*
X121508393Y-81630569D01*
X121498085Y-81596591D01*
X121494000Y-81555110D01*
X121494000Y-80953890D01*
X121498085Y-80912409D01*
X121508393Y-80878431D01*
X121525134Y-80847110D01*
X121547661Y-80819661D01*
X121575110Y-80797134D01*
X121606431Y-80780393D01*
X121640409Y-80770085D01*
X121681890Y-80766000D01*
X122358110Y-80766000D01*
X122399591Y-80770085D01*
X122399591Y-80770085D01*
G37*
G36*
X109457142Y-80053242D02*
G01*
X109605101Y-80114529D01*
X109738255Y-80203499D01*
X109851501Y-80316745D01*
X109940471Y-80449899D01*
X110001758Y-80597858D01*
X110033000Y-80754925D01*
X110033000Y-80915075D01*
X110001758Y-81072142D01*
X109940471Y-81220101D01*
X109851501Y-81353255D01*
X109738255Y-81466501D01*
X109605101Y-81555471D01*
X109457142Y-81616758D01*
X109300075Y-81648000D01*
X109139925Y-81648000D01*
X108982858Y-81616758D01*
X108834899Y-81555471D01*
X108701745Y-81466501D01*
X108588499Y-81353255D01*
X108499529Y-81220101D01*
X108438242Y-81072142D01*
X108407000Y-80915075D01*
X108407000Y-80754925D01*
X108438242Y-80597858D01*
X108499529Y-80449899D01*
X108588499Y-80316745D01*
X108701745Y-80203499D01*
X108834899Y-80114529D01*
X108982858Y-80053242D01*
X109139925Y-80022000D01*
X109300075Y-80022000D01*
X109457142Y-80053242D01*
X109457142Y-80053242D01*
G37*
G36*
X107694591Y-80643085D02*
G01*
X107728569Y-80653393D01*
X107759890Y-80670134D01*
X107787339Y-80692661D01*
X107809866Y-80720110D01*
X107826607Y-80751431D01*
X107836915Y-80785409D01*
X107841000Y-80826890D01*
X107841000Y-81428110D01*
X107836915Y-81469591D01*
X107826607Y-81503569D01*
X107809866Y-81534890D01*
X107787339Y-81562339D01*
X107759890Y-81584866D01*
X107728569Y-81601607D01*
X107694591Y-81611915D01*
X107653110Y-81616000D01*
X106976890Y-81616000D01*
X106935409Y-81611915D01*
X106901431Y-81601607D01*
X106870110Y-81584866D01*
X106842661Y-81562339D01*
X106820134Y-81534890D01*
X106803393Y-81503569D01*
X106793085Y-81469591D01*
X106789000Y-81428110D01*
X106789000Y-80826890D01*
X106793085Y-80785409D01*
X106803393Y-80751431D01*
X106820134Y-80720110D01*
X106842661Y-80692661D01*
X106870110Y-80670134D01*
X106901431Y-80653393D01*
X106935409Y-80643085D01*
X106976890Y-80639000D01*
X107653110Y-80639000D01*
X107694591Y-80643085D01*
X107694591Y-80643085D01*
G37*
G36*
X120995409Y-81603190D02*
G01*
X119993409Y-81603190D01*
X119993409Y-80701190D01*
X120995409Y-80701190D01*
X120995409Y-81603190D01*
X120995409Y-81603190D01*
G37*
G36*
X165721591Y-80504085D02*
G01*
X165755569Y-80514393D01*
X165786890Y-80531134D01*
X165814339Y-80553661D01*
X165836866Y-80581110D01*
X165853607Y-80612431D01*
X165863915Y-80646409D01*
X165868000Y-80687890D01*
X165868000Y-81364110D01*
X165863915Y-81405591D01*
X165853607Y-81439569D01*
X165836866Y-81470890D01*
X165814339Y-81498339D01*
X165786890Y-81520866D01*
X165755569Y-81537607D01*
X165721591Y-81547915D01*
X165680110Y-81552000D01*
X165078890Y-81552000D01*
X165037409Y-81547915D01*
X165003431Y-81537607D01*
X164972110Y-81520866D01*
X164944661Y-81498339D01*
X164922134Y-81470890D01*
X164905393Y-81439569D01*
X164895085Y-81405591D01*
X164891000Y-81364110D01*
X164891000Y-80687890D01*
X164895085Y-80646409D01*
X164905393Y-80612431D01*
X164922134Y-80581110D01*
X164944661Y-80553661D01*
X164972110Y-80531134D01*
X165003431Y-80514393D01*
X165037409Y-80504085D01*
X165078890Y-80500000D01*
X165680110Y-80500000D01*
X165721591Y-80504085D01*
X165721591Y-80504085D01*
G37*
G36*
X164146591Y-80504085D02*
G01*
X164180569Y-80514393D01*
X164211890Y-80531134D01*
X164239339Y-80553661D01*
X164261866Y-80581110D01*
X164278607Y-80612431D01*
X164288915Y-80646409D01*
X164293000Y-80687890D01*
X164293000Y-81364110D01*
X164288915Y-81405591D01*
X164278607Y-81439569D01*
X164261866Y-81470890D01*
X164239339Y-81498339D01*
X164211890Y-81520866D01*
X164180569Y-81537607D01*
X164146591Y-81547915D01*
X164105110Y-81552000D01*
X163503890Y-81552000D01*
X163462409Y-81547915D01*
X163428431Y-81537607D01*
X163397110Y-81520866D01*
X163369661Y-81498339D01*
X163347134Y-81470890D01*
X163330393Y-81439569D01*
X163320085Y-81405591D01*
X163316000Y-81364110D01*
X163316000Y-80687890D01*
X163320085Y-80646409D01*
X163330393Y-80612431D01*
X163347134Y-80581110D01*
X163369661Y-80553661D01*
X163397110Y-80531134D01*
X163428431Y-80514393D01*
X163462409Y-80504085D01*
X163503890Y-80500000D01*
X164105110Y-80500000D01*
X164146591Y-80504085D01*
X164146591Y-80504085D01*
G37*
G36*
X116049591Y-80403085D02*
G01*
X116083569Y-80413393D01*
X116114890Y-80430134D01*
X116142339Y-80452661D01*
X116164866Y-80480110D01*
X116181607Y-80511431D01*
X116191915Y-80545409D01*
X116196000Y-80586890D01*
X116196000Y-81188110D01*
X116191915Y-81229591D01*
X116181607Y-81263569D01*
X116164866Y-81294890D01*
X116142339Y-81322339D01*
X116114890Y-81344866D01*
X116083569Y-81361607D01*
X116049591Y-81371915D01*
X116008110Y-81376000D01*
X115331890Y-81376000D01*
X115290409Y-81371915D01*
X115256431Y-81361607D01*
X115225110Y-81344866D01*
X115197661Y-81322339D01*
X115175134Y-81294890D01*
X115158393Y-81263569D01*
X115148085Y-81229591D01*
X115144000Y-81188110D01*
X115144000Y-80586890D01*
X115148085Y-80545409D01*
X115158393Y-80511431D01*
X115175134Y-80480110D01*
X115197661Y-80452661D01*
X115225110Y-80430134D01*
X115256431Y-80413393D01*
X115290409Y-80403085D01*
X115331890Y-80399000D01*
X116008110Y-80399000D01*
X116049591Y-80403085D01*
X116049591Y-80403085D01*
G37*
G36*
X118995409Y-80653190D02*
G01*
X117993409Y-80653190D01*
X117993409Y-79751190D01*
X118995409Y-79751190D01*
X118995409Y-80653190D01*
X118995409Y-80653190D01*
G37*
G36*
X132031000Y-80421000D02*
G01*
X125779000Y-80421000D01*
X125779000Y-78719000D01*
X132031000Y-78719000D01*
X132031000Y-80421000D01*
X132031000Y-80421000D01*
G37*
G36*
X136804591Y-78978085D02*
G01*
X136838569Y-78988393D01*
X136869890Y-79005134D01*
X136897339Y-79027661D01*
X136919866Y-79055110D01*
X136936607Y-79086431D01*
X136946915Y-79120409D01*
X136951000Y-79161890D01*
X136951000Y-79838110D01*
X136946915Y-79879591D01*
X136936607Y-79913569D01*
X136919866Y-79944890D01*
X136897339Y-79972339D01*
X136869890Y-79994866D01*
X136838569Y-80011607D01*
X136804591Y-80021915D01*
X136763110Y-80026000D01*
X136161890Y-80026000D01*
X136120409Y-80021915D01*
X136086431Y-80011607D01*
X136055110Y-79994866D01*
X136027661Y-79972339D01*
X136005134Y-79944890D01*
X135988393Y-79913569D01*
X135978085Y-79879591D01*
X135974000Y-79838110D01*
X135974000Y-79161890D01*
X135978085Y-79120409D01*
X135988393Y-79086431D01*
X136005134Y-79055110D01*
X136027661Y-79027661D01*
X136055110Y-79005134D01*
X136086431Y-78988393D01*
X136120409Y-78978085D01*
X136161890Y-78974000D01*
X136763110Y-78974000D01*
X136804591Y-78978085D01*
X136804591Y-78978085D01*
G37*
G36*
X138379591Y-78978085D02*
G01*
X138413569Y-78988393D01*
X138444890Y-79005134D01*
X138472339Y-79027661D01*
X138494866Y-79055110D01*
X138511607Y-79086431D01*
X138521915Y-79120409D01*
X138526000Y-79161890D01*
X138526000Y-79838110D01*
X138521915Y-79879591D01*
X138511607Y-79913569D01*
X138494866Y-79944890D01*
X138472339Y-79972339D01*
X138444890Y-79994866D01*
X138413569Y-80011607D01*
X138379591Y-80021915D01*
X138338110Y-80026000D01*
X137736890Y-80026000D01*
X137695409Y-80021915D01*
X137661431Y-80011607D01*
X137630110Y-79994866D01*
X137602661Y-79972339D01*
X137580134Y-79944890D01*
X137563393Y-79913569D01*
X137553085Y-79879591D01*
X137549000Y-79838110D01*
X137549000Y-79161890D01*
X137553085Y-79120409D01*
X137563393Y-79086431D01*
X137580134Y-79055110D01*
X137602661Y-79027661D01*
X137630110Y-79005134D01*
X137661431Y-78988393D01*
X137695409Y-78978085D01*
X137736890Y-78974000D01*
X138338110Y-78974000D01*
X138379591Y-78978085D01*
X138379591Y-78978085D01*
G37*
G36*
X116049591Y-78828085D02*
G01*
X116083569Y-78838393D01*
X116114890Y-78855134D01*
X116142339Y-78877661D01*
X116164866Y-78905110D01*
X116181607Y-78936431D01*
X116191915Y-78970409D01*
X116196000Y-79011890D01*
X116196000Y-79613110D01*
X116191915Y-79654591D01*
X116181607Y-79688569D01*
X116164866Y-79719890D01*
X116142339Y-79747339D01*
X116114890Y-79769866D01*
X116083569Y-79786607D01*
X116049591Y-79796915D01*
X116008110Y-79801000D01*
X115331890Y-79801000D01*
X115290409Y-79796915D01*
X115256431Y-79786607D01*
X115225110Y-79769866D01*
X115197661Y-79747339D01*
X115175134Y-79719890D01*
X115158393Y-79688569D01*
X115148085Y-79654591D01*
X115144000Y-79613110D01*
X115144000Y-79011890D01*
X115148085Y-78970409D01*
X115158393Y-78936431D01*
X115175134Y-78905110D01*
X115197661Y-78877661D01*
X115225110Y-78855134D01*
X115256431Y-78838393D01*
X115290409Y-78828085D01*
X115331890Y-78824000D01*
X116008110Y-78824000D01*
X116049591Y-78828085D01*
X116049591Y-78828085D01*
G37*
G36*
X120995409Y-79703190D02*
G01*
X119993409Y-79703190D01*
X119993409Y-78801190D01*
X120995409Y-78801190D01*
X120995409Y-79703190D01*
X120995409Y-79703190D01*
G37*
G36*
X109457142Y-78053242D02*
G01*
X109605101Y-78114529D01*
X109738255Y-78203499D01*
X109851501Y-78316745D01*
X109940471Y-78449899D01*
X110001758Y-78597858D01*
X110033000Y-78754925D01*
X110033000Y-78915075D01*
X110001758Y-79072142D01*
X109940471Y-79220101D01*
X109851501Y-79353255D01*
X109738255Y-79466501D01*
X109605101Y-79555471D01*
X109457142Y-79616758D01*
X109300075Y-79648000D01*
X109139925Y-79648000D01*
X108982858Y-79616758D01*
X108834899Y-79555471D01*
X108701745Y-79466501D01*
X108588499Y-79353255D01*
X108499529Y-79220101D01*
X108438242Y-79072142D01*
X108407000Y-78915075D01*
X108407000Y-78754925D01*
X108438242Y-78597858D01*
X108499529Y-78449899D01*
X108588499Y-78316745D01*
X108701745Y-78203499D01*
X108834899Y-78114529D01*
X108982858Y-78053242D01*
X109139925Y-78022000D01*
X109300075Y-78022000D01*
X109457142Y-78053242D01*
X109457142Y-78053242D01*
G37*
G36*
X148101000Y-78901000D02*
G01*
X147359000Y-78901000D01*
X147359000Y-76799000D01*
X148101000Y-76799000D01*
X148101000Y-78901000D01*
X148101000Y-78901000D01*
G37*
G36*
X157216000Y-78901000D02*
G01*
X156474000Y-78901000D01*
X156474000Y-76799000D01*
X157216000Y-76799000D01*
X157216000Y-78901000D01*
X157216000Y-78901000D01*
G37*
G36*
X158486000Y-78901000D02*
G01*
X157744000Y-78901000D01*
X157744000Y-76799000D01*
X158486000Y-76799000D01*
X158486000Y-78901000D01*
X158486000Y-78901000D01*
G37*
G36*
X146831000Y-78901000D02*
G01*
X146089000Y-78901000D01*
X146089000Y-76799000D01*
X146831000Y-76799000D01*
X146831000Y-78901000D01*
X146831000Y-78901000D01*
G37*
G36*
X136804591Y-77456085D02*
G01*
X136838569Y-77466393D01*
X136869890Y-77483134D01*
X136897339Y-77505661D01*
X136919866Y-77533110D01*
X136936607Y-77564431D01*
X136946915Y-77598409D01*
X136951000Y-77639890D01*
X136951000Y-78316110D01*
X136946915Y-78357591D01*
X136936607Y-78391569D01*
X136919866Y-78422890D01*
X136897339Y-78450339D01*
X136869890Y-78472866D01*
X136838569Y-78489607D01*
X136804591Y-78499915D01*
X136763110Y-78504000D01*
X136161890Y-78504000D01*
X136120409Y-78499915D01*
X136086431Y-78489607D01*
X136055110Y-78472866D01*
X136027661Y-78450339D01*
X136005134Y-78422890D01*
X135988393Y-78391569D01*
X135978085Y-78357591D01*
X135974000Y-78316110D01*
X135974000Y-77639890D01*
X135978085Y-77598409D01*
X135988393Y-77564431D01*
X136005134Y-77533110D01*
X136027661Y-77505661D01*
X136055110Y-77483134D01*
X136086431Y-77466393D01*
X136120409Y-77456085D01*
X136161890Y-77452000D01*
X136763110Y-77452000D01*
X136804591Y-77456085D01*
X136804591Y-77456085D01*
G37*
G36*
X138379591Y-77456085D02*
G01*
X138413569Y-77466393D01*
X138444890Y-77483134D01*
X138472339Y-77505661D01*
X138494866Y-77533110D01*
X138511607Y-77564431D01*
X138521915Y-77598409D01*
X138526000Y-77639890D01*
X138526000Y-78316110D01*
X138521915Y-78357591D01*
X138511607Y-78391569D01*
X138494866Y-78422890D01*
X138472339Y-78450339D01*
X138444890Y-78472866D01*
X138413569Y-78489607D01*
X138379591Y-78499915D01*
X138338110Y-78504000D01*
X137736890Y-78504000D01*
X137695409Y-78499915D01*
X137661431Y-78489607D01*
X137630110Y-78472866D01*
X137602661Y-78450339D01*
X137580134Y-78422890D01*
X137563393Y-78391569D01*
X137553085Y-78357591D01*
X137549000Y-78316110D01*
X137549000Y-77639890D01*
X137553085Y-77598409D01*
X137563393Y-77564431D01*
X137580134Y-77533110D01*
X137602661Y-77505661D01*
X137630110Y-77483134D01*
X137661431Y-77466393D01*
X137695409Y-77456085D01*
X137736890Y-77452000D01*
X138338110Y-77452000D01*
X138379591Y-77456085D01*
X138379591Y-77456085D01*
G37*
G36*
X114751000Y-78336000D02*
G01*
X113849000Y-78336000D01*
X113849000Y-77334000D01*
X114751000Y-77334000D01*
X114751000Y-78336000D01*
X114751000Y-78336000D01*
G37*
G36*
X109457142Y-76053242D02*
G01*
X109605101Y-76114529D01*
X109738255Y-76203499D01*
X109851501Y-76316745D01*
X109940471Y-76449899D01*
X110001758Y-76597858D01*
X110033000Y-76754925D01*
X110033000Y-76915075D01*
X110001758Y-77072142D01*
X109940471Y-77220101D01*
X109851501Y-77353255D01*
X109738255Y-77466501D01*
X109605101Y-77555471D01*
X109457142Y-77616758D01*
X109300075Y-77648000D01*
X109139925Y-77648000D01*
X108982858Y-77616758D01*
X108834899Y-77555471D01*
X108701745Y-77466501D01*
X108588499Y-77353255D01*
X108499529Y-77220101D01*
X108438242Y-77072142D01*
X108407000Y-76915075D01*
X108407000Y-76754925D01*
X108438242Y-76597858D01*
X108499529Y-76449899D01*
X108588499Y-76316745D01*
X108701745Y-76203499D01*
X108834899Y-76114529D01*
X108982858Y-76053242D01*
X109139925Y-76022000D01*
X109300075Y-76022000D01*
X109457142Y-76053242D01*
X109457142Y-76053242D01*
G37*
G36*
X107694591Y-76503085D02*
G01*
X107728569Y-76513393D01*
X107759890Y-76530134D01*
X107787339Y-76552661D01*
X107809866Y-76580110D01*
X107826607Y-76611431D01*
X107836915Y-76645409D01*
X107841000Y-76686890D01*
X107841000Y-77288110D01*
X107836915Y-77329591D01*
X107826607Y-77363569D01*
X107809866Y-77394890D01*
X107787339Y-77422339D01*
X107759890Y-77444866D01*
X107728569Y-77461607D01*
X107694591Y-77471915D01*
X107653110Y-77476000D01*
X106976890Y-77476000D01*
X106935409Y-77471915D01*
X106901431Y-77461607D01*
X106870110Y-77444866D01*
X106842661Y-77422339D01*
X106820134Y-77394890D01*
X106803393Y-77363569D01*
X106793085Y-77329591D01*
X106789000Y-77288110D01*
X106789000Y-76686890D01*
X106793085Y-76645409D01*
X106803393Y-76611431D01*
X106820134Y-76580110D01*
X106842661Y-76552661D01*
X106870110Y-76530134D01*
X106901431Y-76513393D01*
X106935409Y-76503085D01*
X106976890Y-76499000D01*
X107653110Y-76499000D01*
X107694591Y-76503085D01*
X107694591Y-76503085D01*
G37*
G36*
X113801000Y-76336000D02*
G01*
X112899000Y-76336000D01*
X112899000Y-75334000D01*
X113801000Y-75334000D01*
X113801000Y-76336000D01*
X113801000Y-76336000D01*
G37*
G36*
X115701000Y-76336000D02*
G01*
X114799000Y-76336000D01*
X114799000Y-75334000D01*
X115701000Y-75334000D01*
X115701000Y-76336000D01*
X115701000Y-76336000D01*
G37*
G36*
X107694591Y-74928085D02*
G01*
X107728569Y-74938393D01*
X107759890Y-74955134D01*
X107787339Y-74977661D01*
X107809866Y-75005110D01*
X107826607Y-75036431D01*
X107836915Y-75070409D01*
X107841000Y-75111890D01*
X107841000Y-75713110D01*
X107836915Y-75754591D01*
X107826607Y-75788569D01*
X107809866Y-75819890D01*
X107787339Y-75847339D01*
X107759890Y-75869866D01*
X107728569Y-75886607D01*
X107694591Y-75896915D01*
X107653110Y-75901000D01*
X106976890Y-75901000D01*
X106935409Y-75896915D01*
X106901431Y-75886607D01*
X106870110Y-75869866D01*
X106842661Y-75847339D01*
X106820134Y-75819890D01*
X106803393Y-75788569D01*
X106793085Y-75754591D01*
X106789000Y-75713110D01*
X106789000Y-75111890D01*
X106793085Y-75070409D01*
X106803393Y-75036431D01*
X106820134Y-75005110D01*
X106842661Y-74977661D01*
X106870110Y-74955134D01*
X106901431Y-74938393D01*
X106935409Y-74928085D01*
X106976890Y-74924000D01*
X107653110Y-74924000D01*
X107694591Y-74928085D01*
X107694591Y-74928085D01*
G37*
G36*
X168864597Y-72739513D02*
G01*
X168930781Y-72746031D01*
X169100620Y-72797551D01*
X169257145Y-72881216D01*
X169292883Y-72910546D01*
X169394340Y-72993808D01*
X169477602Y-73095265D01*
X169506932Y-73131003D01*
X169590597Y-73287528D01*
X169642117Y-73457367D01*
X169659513Y-73633994D01*
X169642117Y-73810621D01*
X169590597Y-73980460D01*
X169506932Y-74136985D01*
X169477602Y-74172723D01*
X169394340Y-74274180D01*
X169292883Y-74357442D01*
X169257145Y-74386772D01*
X169100620Y-74470437D01*
X168930781Y-74521957D01*
X168864597Y-74528475D01*
X168798414Y-74534994D01*
X168709894Y-74534994D01*
X168643711Y-74528475D01*
X168577527Y-74521957D01*
X168407688Y-74470437D01*
X168251163Y-74386772D01*
X168215425Y-74357442D01*
X168113968Y-74274180D01*
X168030706Y-74172723D01*
X168001376Y-74136985D01*
X167917711Y-73980460D01*
X167866191Y-73810621D01*
X167848795Y-73633994D01*
X167866191Y-73457367D01*
X167917711Y-73287528D01*
X168001376Y-73131003D01*
X168030706Y-73095265D01*
X168113968Y-72993808D01*
X168215425Y-72910546D01*
X168251163Y-72881216D01*
X168407688Y-72797551D01*
X168577527Y-72746031D01*
X168643711Y-72739513D01*
X168709894Y-72732994D01*
X168798414Y-72732994D01*
X168864597Y-72739513D01*
X168864597Y-72739513D01*
G37*
G36*
X166324597Y-72739513D02*
G01*
X166390781Y-72746031D01*
X166560620Y-72797551D01*
X166717145Y-72881216D01*
X166752883Y-72910546D01*
X166854340Y-72993808D01*
X166937602Y-73095265D01*
X166966932Y-73131003D01*
X167050597Y-73287528D01*
X167102117Y-73457367D01*
X167119513Y-73633994D01*
X167102117Y-73810621D01*
X167050597Y-73980460D01*
X166966932Y-74136985D01*
X166937602Y-74172723D01*
X166854340Y-74274180D01*
X166752883Y-74357442D01*
X166717145Y-74386772D01*
X166560620Y-74470437D01*
X166390781Y-74521957D01*
X166324597Y-74528475D01*
X166258414Y-74534994D01*
X166169894Y-74534994D01*
X166103711Y-74528475D01*
X166037527Y-74521957D01*
X165867688Y-74470437D01*
X165711163Y-74386772D01*
X165675425Y-74357442D01*
X165573968Y-74274180D01*
X165490706Y-74172723D01*
X165461376Y-74136985D01*
X165377711Y-73980460D01*
X165326191Y-73810621D01*
X165308795Y-73633994D01*
X165326191Y-73457367D01*
X165377711Y-73287528D01*
X165461376Y-73131003D01*
X165490706Y-73095265D01*
X165573968Y-72993808D01*
X165675425Y-72910546D01*
X165711163Y-72881216D01*
X165867688Y-72797551D01*
X166037527Y-72746031D01*
X166103711Y-72739513D01*
X166169894Y-72732994D01*
X166258414Y-72732994D01*
X166324597Y-72739513D01*
X166324597Y-72739513D01*
G37*
G36*
X153414591Y-71423085D02*
G01*
X153448569Y-71433393D01*
X153479890Y-71450134D01*
X153507339Y-71472661D01*
X153529866Y-71500110D01*
X153546607Y-71531431D01*
X153556915Y-71565409D01*
X153561000Y-71606890D01*
X153561000Y-72208110D01*
X153556915Y-72249591D01*
X153546607Y-72283569D01*
X153529866Y-72314890D01*
X153507339Y-72342339D01*
X153479890Y-72364866D01*
X153448569Y-72381607D01*
X153414591Y-72391915D01*
X153373110Y-72396000D01*
X152696890Y-72396000D01*
X152655409Y-72391915D01*
X152621431Y-72381607D01*
X152590110Y-72364866D01*
X152562661Y-72342339D01*
X152540134Y-72314890D01*
X152523393Y-72283569D01*
X152513085Y-72249591D01*
X152509000Y-72208110D01*
X152509000Y-71606890D01*
X152513085Y-71565409D01*
X152523393Y-71531431D01*
X152540134Y-71500110D01*
X152562661Y-71472661D01*
X152590110Y-71450134D01*
X152621431Y-71433393D01*
X152655409Y-71423085D01*
X152696890Y-71419000D01*
X153373110Y-71419000D01*
X153414591Y-71423085D01*
X153414591Y-71423085D01*
G37*
G36*
X134999591Y-71423085D02*
G01*
X135033569Y-71433393D01*
X135064890Y-71450134D01*
X135092339Y-71472661D01*
X135114866Y-71500110D01*
X135131607Y-71531431D01*
X135141915Y-71565409D01*
X135146000Y-71606890D01*
X135146000Y-72208110D01*
X135141915Y-72249591D01*
X135131607Y-72283569D01*
X135114866Y-72314890D01*
X135092339Y-72342339D01*
X135064890Y-72364866D01*
X135033569Y-72381607D01*
X134999591Y-72391915D01*
X134958110Y-72396000D01*
X134281890Y-72396000D01*
X134240409Y-72391915D01*
X134206431Y-72381607D01*
X134175110Y-72364866D01*
X134147661Y-72342339D01*
X134125134Y-72314890D01*
X134108393Y-72283569D01*
X134098085Y-72249591D01*
X134094000Y-72208110D01*
X134094000Y-71606890D01*
X134098085Y-71565409D01*
X134108393Y-71531431D01*
X134125134Y-71500110D01*
X134147661Y-71472661D01*
X134175110Y-71450134D01*
X134206431Y-71433393D01*
X134240409Y-71423085D01*
X134281890Y-71419000D01*
X134958110Y-71419000D01*
X134999591Y-71423085D01*
X134999591Y-71423085D01*
G37*
G36*
X131824591Y-71423085D02*
G01*
X131858569Y-71433393D01*
X131889890Y-71450134D01*
X131917339Y-71472661D01*
X131939866Y-71500110D01*
X131956607Y-71531431D01*
X131966915Y-71565409D01*
X131971000Y-71606890D01*
X131971000Y-72208110D01*
X131966915Y-72249591D01*
X131956607Y-72283569D01*
X131939866Y-72314890D01*
X131917339Y-72342339D01*
X131889890Y-72364866D01*
X131858569Y-72381607D01*
X131824591Y-72391915D01*
X131783110Y-72396000D01*
X131106890Y-72396000D01*
X131065409Y-72391915D01*
X131031431Y-72381607D01*
X131000110Y-72364866D01*
X130972661Y-72342339D01*
X130950134Y-72314890D01*
X130933393Y-72283569D01*
X130923085Y-72249591D01*
X130919000Y-72208110D01*
X130919000Y-71606890D01*
X130923085Y-71565409D01*
X130933393Y-71531431D01*
X130950134Y-71500110D01*
X130972661Y-71472661D01*
X131000110Y-71450134D01*
X131031431Y-71433393D01*
X131065409Y-71423085D01*
X131106890Y-71419000D01*
X131783110Y-71419000D01*
X131824591Y-71423085D01*
X131824591Y-71423085D01*
G37*
G36*
X139444591Y-71423085D02*
G01*
X139478569Y-71433393D01*
X139509890Y-71450134D01*
X139537339Y-71472661D01*
X139559866Y-71500110D01*
X139576607Y-71531431D01*
X139586915Y-71565409D01*
X139591000Y-71606890D01*
X139591000Y-72208110D01*
X139586915Y-72249591D01*
X139576607Y-72283569D01*
X139559866Y-72314890D01*
X139537339Y-72342339D01*
X139509890Y-72364866D01*
X139478569Y-72381607D01*
X139444591Y-72391915D01*
X139403110Y-72396000D01*
X138726890Y-72396000D01*
X138685409Y-72391915D01*
X138651431Y-72381607D01*
X138620110Y-72364866D01*
X138592661Y-72342339D01*
X138570134Y-72314890D01*
X138553393Y-72283569D01*
X138543085Y-72249591D01*
X138539000Y-72208110D01*
X138539000Y-71606890D01*
X138543085Y-71565409D01*
X138553393Y-71531431D01*
X138570134Y-71500110D01*
X138592661Y-71472661D01*
X138620110Y-71450134D01*
X138651431Y-71433393D01*
X138685409Y-71423085D01*
X138726890Y-71419000D01*
X139403110Y-71419000D01*
X139444591Y-71423085D01*
X139444591Y-71423085D01*
G37*
G36*
X111504591Y-71423085D02*
G01*
X111538569Y-71433393D01*
X111569890Y-71450134D01*
X111597339Y-71472661D01*
X111619866Y-71500110D01*
X111636607Y-71531431D01*
X111646915Y-71565409D01*
X111651000Y-71606890D01*
X111651000Y-72208110D01*
X111646915Y-72249591D01*
X111636607Y-72283569D01*
X111619866Y-72314890D01*
X111597339Y-72342339D01*
X111569890Y-72364866D01*
X111538569Y-72381607D01*
X111504591Y-72391915D01*
X111463110Y-72396000D01*
X110786890Y-72396000D01*
X110745409Y-72391915D01*
X110711431Y-72381607D01*
X110680110Y-72364866D01*
X110652661Y-72342339D01*
X110630134Y-72314890D01*
X110613393Y-72283569D01*
X110603085Y-72249591D01*
X110599000Y-72208110D01*
X110599000Y-71606890D01*
X110603085Y-71565409D01*
X110613393Y-71531431D01*
X110630134Y-71500110D01*
X110652661Y-71472661D01*
X110680110Y-71450134D01*
X110711431Y-71433393D01*
X110745409Y-71423085D01*
X110786890Y-71419000D01*
X111463110Y-71419000D01*
X111504591Y-71423085D01*
X111504591Y-71423085D01*
G37*
G36*
X114679591Y-71423085D02*
G01*
X114713569Y-71433393D01*
X114744890Y-71450134D01*
X114772339Y-71472661D01*
X114794866Y-71500110D01*
X114811607Y-71531431D01*
X114821915Y-71565409D01*
X114826000Y-71606890D01*
X114826000Y-72208110D01*
X114821915Y-72249591D01*
X114811607Y-72283569D01*
X114794866Y-72314890D01*
X114772339Y-72342339D01*
X114744890Y-72364866D01*
X114713569Y-72381607D01*
X114679591Y-72391915D01*
X114638110Y-72396000D01*
X113961890Y-72396000D01*
X113920409Y-72391915D01*
X113886431Y-72381607D01*
X113855110Y-72364866D01*
X113827661Y-72342339D01*
X113805134Y-72314890D01*
X113788393Y-72283569D01*
X113778085Y-72249591D01*
X113774000Y-72208110D01*
X113774000Y-71606890D01*
X113778085Y-71565409D01*
X113788393Y-71531431D01*
X113805134Y-71500110D01*
X113827661Y-71472661D01*
X113855110Y-71450134D01*
X113886431Y-71433393D01*
X113920409Y-71423085D01*
X113961890Y-71419000D01*
X114638110Y-71419000D01*
X114679591Y-71423085D01*
X114679591Y-71423085D01*
G37*
G36*
X128649591Y-71423085D02*
G01*
X128683569Y-71433393D01*
X128714890Y-71450134D01*
X128742339Y-71472661D01*
X128764866Y-71500110D01*
X128781607Y-71531431D01*
X128791915Y-71565409D01*
X128796000Y-71606890D01*
X128796000Y-72208110D01*
X128791915Y-72249591D01*
X128781607Y-72283569D01*
X128764866Y-72314890D01*
X128742339Y-72342339D01*
X128714890Y-72364866D01*
X128683569Y-72381607D01*
X128649591Y-72391915D01*
X128608110Y-72396000D01*
X127931890Y-72396000D01*
X127890409Y-72391915D01*
X127856431Y-72381607D01*
X127825110Y-72364866D01*
X127797661Y-72342339D01*
X127775134Y-72314890D01*
X127758393Y-72283569D01*
X127748085Y-72249591D01*
X127744000Y-72208110D01*
X127744000Y-71606890D01*
X127748085Y-71565409D01*
X127758393Y-71531431D01*
X127775134Y-71500110D01*
X127797661Y-71472661D01*
X127825110Y-71450134D01*
X127856431Y-71433393D01*
X127890409Y-71423085D01*
X127931890Y-71419000D01*
X128608110Y-71419000D01*
X128649591Y-71423085D01*
X128649591Y-71423085D01*
G37*
G36*
X126379591Y-71423085D02*
G01*
X126413569Y-71433393D01*
X126444890Y-71450134D01*
X126472339Y-71472661D01*
X126494866Y-71500110D01*
X126511607Y-71531431D01*
X126521915Y-71565409D01*
X126526000Y-71606890D01*
X126526000Y-72208110D01*
X126521915Y-72249591D01*
X126511607Y-72283569D01*
X126494866Y-72314890D01*
X126472339Y-72342339D01*
X126444890Y-72364866D01*
X126413569Y-72381607D01*
X126379591Y-72391915D01*
X126338110Y-72396000D01*
X125661890Y-72396000D01*
X125620409Y-72391915D01*
X125586431Y-72381607D01*
X125555110Y-72364866D01*
X125527661Y-72342339D01*
X125505134Y-72314890D01*
X125488393Y-72283569D01*
X125478085Y-72249591D01*
X125474000Y-72208110D01*
X125474000Y-71606890D01*
X125478085Y-71565409D01*
X125488393Y-71531431D01*
X125505134Y-71500110D01*
X125527661Y-71472661D01*
X125555110Y-71450134D01*
X125586431Y-71433393D01*
X125620409Y-71423085D01*
X125661890Y-71419000D01*
X126338110Y-71419000D01*
X126379591Y-71423085D01*
X126379591Y-71423085D01*
G37*
G36*
X117854591Y-71423085D02*
G01*
X117888569Y-71433393D01*
X117919890Y-71450134D01*
X117947339Y-71472661D01*
X117969866Y-71500110D01*
X117986607Y-71531431D01*
X117996915Y-71565409D01*
X118001000Y-71606890D01*
X118001000Y-72208110D01*
X117996915Y-72249591D01*
X117986607Y-72283569D01*
X117969866Y-72314890D01*
X117947339Y-72342339D01*
X117919890Y-72364866D01*
X117888569Y-72381607D01*
X117854591Y-72391915D01*
X117813110Y-72396000D01*
X117136890Y-72396000D01*
X117095409Y-72391915D01*
X117061431Y-72381607D01*
X117030110Y-72364866D01*
X117002661Y-72342339D01*
X116980134Y-72314890D01*
X116963393Y-72283569D01*
X116953085Y-72249591D01*
X116949000Y-72208110D01*
X116949000Y-71606890D01*
X116953085Y-71565409D01*
X116963393Y-71531431D01*
X116980134Y-71500110D01*
X117002661Y-71472661D01*
X117030110Y-71450134D01*
X117061431Y-71433393D01*
X117095409Y-71423085D01*
X117136890Y-71419000D01*
X117813110Y-71419000D01*
X117854591Y-71423085D01*
X117854591Y-71423085D01*
G37*
G36*
X157859591Y-71423085D02*
G01*
X157893569Y-71433393D01*
X157924890Y-71450134D01*
X157952339Y-71472661D01*
X157974866Y-71500110D01*
X157991607Y-71531431D01*
X158001915Y-71565409D01*
X158006000Y-71606890D01*
X158006000Y-72208110D01*
X158001915Y-72249591D01*
X157991607Y-72283569D01*
X157974866Y-72314890D01*
X157952339Y-72342339D01*
X157924890Y-72364866D01*
X157893569Y-72381607D01*
X157859591Y-72391915D01*
X157818110Y-72396000D01*
X157141890Y-72396000D01*
X157100409Y-72391915D01*
X157066431Y-72381607D01*
X157035110Y-72364866D01*
X157007661Y-72342339D01*
X156985134Y-72314890D01*
X156968393Y-72283569D01*
X156958085Y-72249591D01*
X156954000Y-72208110D01*
X156954000Y-71606890D01*
X156958085Y-71565409D01*
X156968393Y-71531431D01*
X156985134Y-71500110D01*
X157007661Y-71472661D01*
X157035110Y-71450134D01*
X157066431Y-71433393D01*
X157100409Y-71423085D01*
X157141890Y-71419000D01*
X157818110Y-71419000D01*
X157859591Y-71423085D01*
X157859591Y-71423085D01*
G37*
G36*
X121029591Y-71423085D02*
G01*
X121063569Y-71433393D01*
X121094890Y-71450134D01*
X121122339Y-71472661D01*
X121144866Y-71500110D01*
X121161607Y-71531431D01*
X121171915Y-71565409D01*
X121176000Y-71606890D01*
X121176000Y-72208110D01*
X121171915Y-72249591D01*
X121161607Y-72283569D01*
X121144866Y-72314890D01*
X121122339Y-72342339D01*
X121094890Y-72364866D01*
X121063569Y-72381607D01*
X121029591Y-72391915D01*
X120988110Y-72396000D01*
X120311890Y-72396000D01*
X120270409Y-72391915D01*
X120236431Y-72381607D01*
X120205110Y-72364866D01*
X120177661Y-72342339D01*
X120155134Y-72314890D01*
X120138393Y-72283569D01*
X120128085Y-72249591D01*
X120124000Y-72208110D01*
X120124000Y-71606890D01*
X120128085Y-71565409D01*
X120138393Y-71531431D01*
X120155134Y-71500110D01*
X120177661Y-71472661D01*
X120205110Y-71450134D01*
X120236431Y-71433393D01*
X120270409Y-71423085D01*
X120311890Y-71419000D01*
X120988110Y-71419000D01*
X121029591Y-71423085D01*
X121029591Y-71423085D01*
G37*
G36*
X161034591Y-71423085D02*
G01*
X161068569Y-71433393D01*
X161099890Y-71450134D01*
X161127339Y-71472661D01*
X161149866Y-71500110D01*
X161166607Y-71531431D01*
X161176915Y-71565409D01*
X161181000Y-71606890D01*
X161181000Y-72208110D01*
X161176915Y-72249591D01*
X161166607Y-72283569D01*
X161149866Y-72314890D01*
X161127339Y-72342339D01*
X161099890Y-72364866D01*
X161068569Y-72381607D01*
X161034591Y-72391915D01*
X160993110Y-72396000D01*
X160316890Y-72396000D01*
X160275409Y-72391915D01*
X160241431Y-72381607D01*
X160210110Y-72364866D01*
X160182661Y-72342339D01*
X160160134Y-72314890D01*
X160143393Y-72283569D01*
X160133085Y-72249591D01*
X160129000Y-72208110D01*
X160129000Y-71606890D01*
X160133085Y-71565409D01*
X160143393Y-71531431D01*
X160160134Y-71500110D01*
X160182661Y-71472661D01*
X160210110Y-71450134D01*
X160241431Y-71433393D01*
X160275409Y-71423085D01*
X160316890Y-71419000D01*
X160993110Y-71419000D01*
X161034591Y-71423085D01*
X161034591Y-71423085D01*
G37*
G36*
X123569591Y-71423085D02*
G01*
X123603569Y-71433393D01*
X123634890Y-71450134D01*
X123662339Y-71472661D01*
X123684866Y-71500110D01*
X123701607Y-71531431D01*
X123711915Y-71565409D01*
X123716000Y-71606890D01*
X123716000Y-72208110D01*
X123711915Y-72249591D01*
X123701607Y-72283569D01*
X123684866Y-72314890D01*
X123662339Y-72342339D01*
X123634890Y-72364866D01*
X123603569Y-72381607D01*
X123569591Y-72391915D01*
X123528110Y-72396000D01*
X122851890Y-72396000D01*
X122810409Y-72391915D01*
X122776431Y-72381607D01*
X122745110Y-72364866D01*
X122717661Y-72342339D01*
X122695134Y-72314890D01*
X122678393Y-72283569D01*
X122668085Y-72249591D01*
X122664000Y-72208110D01*
X122664000Y-71606890D01*
X122668085Y-71565409D01*
X122678393Y-71531431D01*
X122695134Y-71500110D01*
X122717661Y-71472661D01*
X122745110Y-71450134D01*
X122776431Y-71433393D01*
X122810409Y-71423085D01*
X122851890Y-71419000D01*
X123528110Y-71419000D01*
X123569591Y-71423085D01*
X123569591Y-71423085D01*
G37*
G36*
X167115154Y-71994994D02*
G01*
X165313154Y-71994994D01*
X165313154Y-70192994D01*
X167115154Y-70192994D01*
X167115154Y-71994994D01*
X167115154Y-71994994D01*
G37*
G36*
X168864597Y-70199513D02*
G01*
X168930781Y-70206031D01*
X169100620Y-70257551D01*
X169257145Y-70341216D01*
X169292883Y-70370546D01*
X169394340Y-70453808D01*
X169477602Y-70555265D01*
X169506932Y-70591003D01*
X169590597Y-70747528D01*
X169642117Y-70917367D01*
X169659513Y-71093994D01*
X169642117Y-71270621D01*
X169590597Y-71440460D01*
X169506932Y-71596985D01*
X169477602Y-71632723D01*
X169394340Y-71734180D01*
X169292883Y-71817442D01*
X169257145Y-71846772D01*
X169100620Y-71930437D01*
X168930781Y-71981957D01*
X168864596Y-71988476D01*
X168798414Y-71994994D01*
X168709894Y-71994994D01*
X168643712Y-71988476D01*
X168577527Y-71981957D01*
X168407688Y-71930437D01*
X168251163Y-71846772D01*
X168215425Y-71817442D01*
X168113968Y-71734180D01*
X168030706Y-71632723D01*
X168001376Y-71596985D01*
X167917711Y-71440460D01*
X167866191Y-71270621D01*
X167848795Y-71093994D01*
X167866191Y-70917367D01*
X167917711Y-70747528D01*
X168001376Y-70591003D01*
X168030706Y-70555265D01*
X168113968Y-70453808D01*
X168215425Y-70370546D01*
X168251163Y-70341216D01*
X168407688Y-70257551D01*
X168577527Y-70206031D01*
X168643711Y-70199513D01*
X168709894Y-70192994D01*
X168798414Y-70192994D01*
X168864597Y-70199513D01*
X168864597Y-70199513D01*
G37*
G36*
X134999591Y-69848085D02*
G01*
X135033569Y-69858393D01*
X135064890Y-69875134D01*
X135092339Y-69897661D01*
X135114866Y-69925110D01*
X135131607Y-69956431D01*
X135141915Y-69990409D01*
X135146000Y-70031890D01*
X135146000Y-70633110D01*
X135141915Y-70674591D01*
X135131607Y-70708569D01*
X135114866Y-70739890D01*
X135092339Y-70767339D01*
X135064890Y-70789866D01*
X135033569Y-70806607D01*
X134999591Y-70816915D01*
X134958110Y-70821000D01*
X134281890Y-70821000D01*
X134240409Y-70816915D01*
X134206431Y-70806607D01*
X134175110Y-70789866D01*
X134147661Y-70767339D01*
X134125134Y-70739890D01*
X134108393Y-70708569D01*
X134098085Y-70674591D01*
X134094000Y-70633110D01*
X134094000Y-70031890D01*
X134098085Y-69990409D01*
X134108393Y-69956431D01*
X134125134Y-69925110D01*
X134147661Y-69897661D01*
X134175110Y-69875134D01*
X134206431Y-69858393D01*
X134240409Y-69848085D01*
X134281890Y-69844000D01*
X134958110Y-69844000D01*
X134999591Y-69848085D01*
X134999591Y-69848085D01*
G37*
G36*
X111504591Y-69848085D02*
G01*
X111538569Y-69858393D01*
X111569890Y-69875134D01*
X111597339Y-69897661D01*
X111619866Y-69925110D01*
X111636607Y-69956431D01*
X111646915Y-69990409D01*
X111651000Y-70031890D01*
X111651000Y-70633110D01*
X111646915Y-70674591D01*
X111636607Y-70708569D01*
X111619866Y-70739890D01*
X111597339Y-70767339D01*
X111569890Y-70789866D01*
X111538569Y-70806607D01*
X111504591Y-70816915D01*
X111463110Y-70821000D01*
X110786890Y-70821000D01*
X110745409Y-70816915D01*
X110711431Y-70806607D01*
X110680110Y-70789866D01*
X110652661Y-70767339D01*
X110630134Y-70739890D01*
X110613393Y-70708569D01*
X110603085Y-70674591D01*
X110599000Y-70633110D01*
X110599000Y-70031890D01*
X110603085Y-69990409D01*
X110613393Y-69956431D01*
X110630134Y-69925110D01*
X110652661Y-69897661D01*
X110680110Y-69875134D01*
X110711431Y-69858393D01*
X110745409Y-69848085D01*
X110786890Y-69844000D01*
X111463110Y-69844000D01*
X111504591Y-69848085D01*
X111504591Y-69848085D01*
G37*
G36*
X153414591Y-69848085D02*
G01*
X153448569Y-69858393D01*
X153479890Y-69875134D01*
X153507339Y-69897661D01*
X153529866Y-69925110D01*
X153546607Y-69956431D01*
X153556915Y-69990409D01*
X153561000Y-70031890D01*
X153561000Y-70633110D01*
X153556915Y-70674591D01*
X153546607Y-70708569D01*
X153529866Y-70739890D01*
X153507339Y-70767339D01*
X153479890Y-70789866D01*
X153448569Y-70806607D01*
X153414591Y-70816915D01*
X153373110Y-70821000D01*
X152696890Y-70821000D01*
X152655409Y-70816915D01*
X152621431Y-70806607D01*
X152590110Y-70789866D01*
X152562661Y-70767339D01*
X152540134Y-70739890D01*
X152523393Y-70708569D01*
X152513085Y-70674591D01*
X152509000Y-70633110D01*
X152509000Y-70031890D01*
X152513085Y-69990409D01*
X152523393Y-69956431D01*
X152540134Y-69925110D01*
X152562661Y-69897661D01*
X152590110Y-69875134D01*
X152621431Y-69858393D01*
X152655409Y-69848085D01*
X152696890Y-69844000D01*
X153373110Y-69844000D01*
X153414591Y-69848085D01*
X153414591Y-69848085D01*
G37*
G36*
X157859591Y-69848085D02*
G01*
X157893569Y-69858393D01*
X157924890Y-69875134D01*
X157952339Y-69897661D01*
X157974866Y-69925110D01*
X157991607Y-69956431D01*
X158001915Y-69990409D01*
X158006000Y-70031890D01*
X158006000Y-70633110D01*
X158001915Y-70674591D01*
X157991607Y-70708569D01*
X157974866Y-70739890D01*
X157952339Y-70767339D01*
X157924890Y-70789866D01*
X157893569Y-70806607D01*
X157859591Y-70816915D01*
X157818110Y-70821000D01*
X157141890Y-70821000D01*
X157100409Y-70816915D01*
X157066431Y-70806607D01*
X157035110Y-70789866D01*
X157007661Y-70767339D01*
X156985134Y-70739890D01*
X156968393Y-70708569D01*
X156958085Y-70674591D01*
X156954000Y-70633110D01*
X156954000Y-70031890D01*
X156958085Y-69990409D01*
X156968393Y-69956431D01*
X156985134Y-69925110D01*
X157007661Y-69897661D01*
X157035110Y-69875134D01*
X157066431Y-69858393D01*
X157100409Y-69848085D01*
X157141890Y-69844000D01*
X157818110Y-69844000D01*
X157859591Y-69848085D01*
X157859591Y-69848085D01*
G37*
G36*
X161034591Y-69848085D02*
G01*
X161068569Y-69858393D01*
X161099890Y-69875134D01*
X161127339Y-69897661D01*
X161149866Y-69925110D01*
X161166607Y-69956431D01*
X161176915Y-69990409D01*
X161181000Y-70031890D01*
X161181000Y-70633110D01*
X161176915Y-70674591D01*
X161166607Y-70708569D01*
X161149866Y-70739890D01*
X161127339Y-70767339D01*
X161099890Y-70789866D01*
X161068569Y-70806607D01*
X161034591Y-70816915D01*
X160993110Y-70821000D01*
X160316890Y-70821000D01*
X160275409Y-70816915D01*
X160241431Y-70806607D01*
X160210110Y-70789866D01*
X160182661Y-70767339D01*
X160160134Y-70739890D01*
X160143393Y-70708569D01*
X160133085Y-70674591D01*
X160129000Y-70633110D01*
X160129000Y-70031890D01*
X160133085Y-69990409D01*
X160143393Y-69956431D01*
X160160134Y-69925110D01*
X160182661Y-69897661D01*
X160210110Y-69875134D01*
X160241431Y-69858393D01*
X160275409Y-69848085D01*
X160316890Y-69844000D01*
X160993110Y-69844000D01*
X161034591Y-69848085D01*
X161034591Y-69848085D01*
G37*
G36*
X114679591Y-69848085D02*
G01*
X114713569Y-69858393D01*
X114744890Y-69875134D01*
X114772339Y-69897661D01*
X114794866Y-69925110D01*
X114811607Y-69956431D01*
X114821915Y-69990409D01*
X114826000Y-70031890D01*
X114826000Y-70633110D01*
X114821915Y-70674591D01*
X114811607Y-70708569D01*
X114794866Y-70739890D01*
X114772339Y-70767339D01*
X114744890Y-70789866D01*
X114713569Y-70806607D01*
X114679591Y-70816915D01*
X114638110Y-70821000D01*
X113961890Y-70821000D01*
X113920409Y-70816915D01*
X113886431Y-70806607D01*
X113855110Y-70789866D01*
X113827661Y-70767339D01*
X113805134Y-70739890D01*
X113788393Y-70708569D01*
X113778085Y-70674591D01*
X113774000Y-70633110D01*
X113774000Y-70031890D01*
X113778085Y-69990409D01*
X113788393Y-69956431D01*
X113805134Y-69925110D01*
X113827661Y-69897661D01*
X113855110Y-69875134D01*
X113886431Y-69858393D01*
X113920409Y-69848085D01*
X113961890Y-69844000D01*
X114638110Y-69844000D01*
X114679591Y-69848085D01*
X114679591Y-69848085D01*
G37*
G36*
X117854591Y-69848085D02*
G01*
X117888569Y-69858393D01*
X117919890Y-69875134D01*
X117947339Y-69897661D01*
X117969866Y-69925110D01*
X117986607Y-69956431D01*
X117996915Y-69990409D01*
X118001000Y-70031890D01*
X118001000Y-70633110D01*
X117996915Y-70674591D01*
X117986607Y-70708569D01*
X117969866Y-70739890D01*
X117947339Y-70767339D01*
X117919890Y-70789866D01*
X117888569Y-70806607D01*
X117854591Y-70816915D01*
X117813110Y-70821000D01*
X117136890Y-70821000D01*
X117095409Y-70816915D01*
X117061431Y-70806607D01*
X117030110Y-70789866D01*
X117002661Y-70767339D01*
X116980134Y-70739890D01*
X116963393Y-70708569D01*
X116953085Y-70674591D01*
X116949000Y-70633110D01*
X116949000Y-70031890D01*
X116953085Y-69990409D01*
X116963393Y-69956431D01*
X116980134Y-69925110D01*
X117002661Y-69897661D01*
X117030110Y-69875134D01*
X117061431Y-69858393D01*
X117095409Y-69848085D01*
X117136890Y-69844000D01*
X117813110Y-69844000D01*
X117854591Y-69848085D01*
X117854591Y-69848085D01*
G37*
G36*
X123569591Y-69848085D02*
G01*
X123603569Y-69858393D01*
X123634890Y-69875134D01*
X123662339Y-69897661D01*
X123684866Y-69925110D01*
X123701607Y-69956431D01*
X123711915Y-69990409D01*
X123716000Y-70031890D01*
X123716000Y-70633110D01*
X123711915Y-70674591D01*
X123701607Y-70708569D01*
X123684866Y-70739890D01*
X123662339Y-70767339D01*
X123634890Y-70789866D01*
X123603569Y-70806607D01*
X123569591Y-70816915D01*
X123528110Y-70821000D01*
X122851890Y-70821000D01*
X122810409Y-70816915D01*
X122776431Y-70806607D01*
X122745110Y-70789866D01*
X122717661Y-70767339D01*
X122695134Y-70739890D01*
X122678393Y-70708569D01*
X122668085Y-70674591D01*
X122664000Y-70633110D01*
X122664000Y-70031890D01*
X122668085Y-69990409D01*
X122678393Y-69956431D01*
X122695134Y-69925110D01*
X122717661Y-69897661D01*
X122745110Y-69875134D01*
X122776431Y-69858393D01*
X122810409Y-69848085D01*
X122851890Y-69844000D01*
X123528110Y-69844000D01*
X123569591Y-69848085D01*
X123569591Y-69848085D01*
G37*
G36*
X139444591Y-69848085D02*
G01*
X139478569Y-69858393D01*
X139509890Y-69875134D01*
X139537339Y-69897661D01*
X139559866Y-69925110D01*
X139576607Y-69956431D01*
X139586915Y-69990409D01*
X139591000Y-70031890D01*
X139591000Y-70633110D01*
X139586915Y-70674591D01*
X139576607Y-70708569D01*
X139559866Y-70739890D01*
X139537339Y-70767339D01*
X139509890Y-70789866D01*
X139478569Y-70806607D01*
X139444591Y-70816915D01*
X139403110Y-70821000D01*
X138726890Y-70821000D01*
X138685409Y-70816915D01*
X138651431Y-70806607D01*
X138620110Y-70789866D01*
X138592661Y-70767339D01*
X138570134Y-70739890D01*
X138553393Y-70708569D01*
X138543085Y-70674591D01*
X138539000Y-70633110D01*
X138539000Y-70031890D01*
X138543085Y-69990409D01*
X138553393Y-69956431D01*
X138570134Y-69925110D01*
X138592661Y-69897661D01*
X138620110Y-69875134D01*
X138651431Y-69858393D01*
X138685409Y-69848085D01*
X138726890Y-69844000D01*
X139403110Y-69844000D01*
X139444591Y-69848085D01*
X139444591Y-69848085D01*
G37*
G36*
X126379591Y-69848085D02*
G01*
X126413569Y-69858393D01*
X126444890Y-69875134D01*
X126472339Y-69897661D01*
X126494866Y-69925110D01*
X126511607Y-69956431D01*
X126521915Y-69990409D01*
X126526000Y-70031890D01*
X126526000Y-70633110D01*
X126521915Y-70674591D01*
X126511607Y-70708569D01*
X126494866Y-70739890D01*
X126472339Y-70767339D01*
X126444890Y-70789866D01*
X126413569Y-70806607D01*
X126379591Y-70816915D01*
X126338110Y-70821000D01*
X125661890Y-70821000D01*
X125620409Y-70816915D01*
X125586431Y-70806607D01*
X125555110Y-70789866D01*
X125527661Y-70767339D01*
X125505134Y-70739890D01*
X125488393Y-70708569D01*
X125478085Y-70674591D01*
X125474000Y-70633110D01*
X125474000Y-70031890D01*
X125478085Y-69990409D01*
X125488393Y-69956431D01*
X125505134Y-69925110D01*
X125527661Y-69897661D01*
X125555110Y-69875134D01*
X125586431Y-69858393D01*
X125620409Y-69848085D01*
X125661890Y-69844000D01*
X126338110Y-69844000D01*
X126379591Y-69848085D01*
X126379591Y-69848085D01*
G37*
G36*
X128649591Y-69848085D02*
G01*
X128683569Y-69858393D01*
X128714890Y-69875134D01*
X128742339Y-69897661D01*
X128764866Y-69925110D01*
X128781607Y-69956431D01*
X128791915Y-69990409D01*
X128796000Y-70031890D01*
X128796000Y-70633110D01*
X128791915Y-70674591D01*
X128781607Y-70708569D01*
X128764866Y-70739890D01*
X128742339Y-70767339D01*
X128714890Y-70789866D01*
X128683569Y-70806607D01*
X128649591Y-70816915D01*
X128608110Y-70821000D01*
X127931890Y-70821000D01*
X127890409Y-70816915D01*
X127856431Y-70806607D01*
X127825110Y-70789866D01*
X127797661Y-70767339D01*
X127775134Y-70739890D01*
X127758393Y-70708569D01*
X127748085Y-70674591D01*
X127744000Y-70633110D01*
X127744000Y-70031890D01*
X127748085Y-69990409D01*
X127758393Y-69956431D01*
X127775134Y-69925110D01*
X127797661Y-69897661D01*
X127825110Y-69875134D01*
X127856431Y-69858393D01*
X127890409Y-69848085D01*
X127931890Y-69844000D01*
X128608110Y-69844000D01*
X128649591Y-69848085D01*
X128649591Y-69848085D01*
G37*
G36*
X131824591Y-69848085D02*
G01*
X131858569Y-69858393D01*
X131889890Y-69875134D01*
X131917339Y-69897661D01*
X131939866Y-69925110D01*
X131956607Y-69956431D01*
X131966915Y-69990409D01*
X131971000Y-70031890D01*
X131971000Y-70633110D01*
X131966915Y-70674591D01*
X131956607Y-70708569D01*
X131939866Y-70739890D01*
X131917339Y-70767339D01*
X131889890Y-70789866D01*
X131858569Y-70806607D01*
X131824591Y-70816915D01*
X131783110Y-70821000D01*
X131106890Y-70821000D01*
X131065409Y-70816915D01*
X131031431Y-70806607D01*
X131000110Y-70789866D01*
X130972661Y-70767339D01*
X130950134Y-70739890D01*
X130933393Y-70708569D01*
X130923085Y-70674591D01*
X130919000Y-70633110D01*
X130919000Y-70031890D01*
X130923085Y-69990409D01*
X130933393Y-69956431D01*
X130950134Y-69925110D01*
X130972661Y-69897661D01*
X131000110Y-69875134D01*
X131031431Y-69858393D01*
X131065409Y-69848085D01*
X131106890Y-69844000D01*
X131783110Y-69844000D01*
X131824591Y-69848085D01*
X131824591Y-69848085D01*
G37*
G36*
X121029591Y-69848085D02*
G01*
X121063569Y-69858393D01*
X121094890Y-69875134D01*
X121122339Y-69897661D01*
X121144866Y-69925110D01*
X121161607Y-69956431D01*
X121171915Y-69990409D01*
X121176000Y-70031890D01*
X121176000Y-70633110D01*
X121171915Y-70674591D01*
X121161607Y-70708569D01*
X121144866Y-70739890D01*
X121122339Y-70767339D01*
X121094890Y-70789866D01*
X121063569Y-70806607D01*
X121029591Y-70816915D01*
X120988110Y-70821000D01*
X120311890Y-70821000D01*
X120270409Y-70816915D01*
X120236431Y-70806607D01*
X120205110Y-70789866D01*
X120177661Y-70767339D01*
X120155134Y-70739890D01*
X120138393Y-70708569D01*
X120128085Y-70674591D01*
X120124000Y-70633110D01*
X120124000Y-70031890D01*
X120128085Y-69990409D01*
X120138393Y-69956431D01*
X120155134Y-69925110D01*
X120177661Y-69897661D01*
X120205110Y-69875134D01*
X120236431Y-69858393D01*
X120270409Y-69848085D01*
X120311890Y-69844000D01*
X120988110Y-69844000D01*
X121029591Y-69848085D01*
X121029591Y-69848085D01*
G37*
G36*
X168374097Y-63290242D02*
G01*
X168929343Y-63520232D01*
X168929344Y-63520233D01*
X169429053Y-63854128D01*
X169854020Y-64279095D01*
X169854021Y-64279097D01*
X170187916Y-64778805D01*
X170417906Y-65334051D01*
X170535154Y-65923495D01*
X170535154Y-66524493D01*
X170417906Y-67113937D01*
X170187916Y-67669183D01*
X170187915Y-67669184D01*
X169854020Y-68168893D01*
X169429053Y-68593860D01*
X169177501Y-68761942D01*
X168929343Y-68927756D01*
X168374097Y-69157746D01*
X167784653Y-69274994D01*
X167183655Y-69274994D01*
X166594211Y-69157746D01*
X166038965Y-68927756D01*
X165790807Y-68761942D01*
X165539255Y-68593860D01*
X165114288Y-68168893D01*
X164780393Y-67669184D01*
X164780392Y-67669183D01*
X164550402Y-67113937D01*
X164433154Y-66524493D01*
X164433154Y-65923495D01*
X164550402Y-65334051D01*
X164780392Y-64778805D01*
X165114287Y-64279097D01*
X165114288Y-64279095D01*
X165539255Y-63854128D01*
X166038964Y-63520233D01*
X166038965Y-63520232D01*
X166594211Y-63290242D01*
X167183655Y-63172994D01*
X167784653Y-63172994D01*
X168374097Y-63290242D01*
X168374097Y-63290242D01*
G37*
G36*
X110374097Y-63290242D02*
G01*
X110929343Y-63520232D01*
X110929344Y-63520233D01*
X111429053Y-63854128D01*
X111854020Y-64279095D01*
X111854021Y-64279097D01*
X112187916Y-64778805D01*
X112417906Y-65334051D01*
X112535154Y-65923495D01*
X112535154Y-66524493D01*
X112417906Y-67113937D01*
X112187916Y-67669183D01*
X112187915Y-67669184D01*
X111854020Y-68168893D01*
X111429053Y-68593860D01*
X111177501Y-68761942D01*
X110929343Y-68927756D01*
X110374097Y-69157746D01*
X109784653Y-69274994D01*
X109183655Y-69274994D01*
X108594211Y-69157746D01*
X108038965Y-68927756D01*
X107790807Y-68761942D01*
X107539255Y-68593860D01*
X107114288Y-68168893D01*
X106780393Y-67669184D01*
X106780392Y-67669183D01*
X106550402Y-67113937D01*
X106433154Y-66524493D01*
X106433154Y-65923495D01*
X106550402Y-65334051D01*
X106780392Y-64778805D01*
X107114287Y-64279097D01*
X107114288Y-64279095D01*
X107539255Y-63854128D01*
X108038964Y-63520233D01*
X108038965Y-63520232D01*
X108594211Y-63290242D01*
X109183655Y-63172994D01*
X109784653Y-63172994D01*
X110374097Y-63290242D01*
X110374097Y-63290242D01*
G37*
G36*
X160184597Y-66599513D02*
G01*
X160250781Y-66606031D01*
X160420620Y-66657551D01*
X160577145Y-66741216D01*
X160612883Y-66770546D01*
X160714340Y-66853808D01*
X160797602Y-66955265D01*
X160826932Y-66991003D01*
X160910597Y-67147528D01*
X160962117Y-67317367D01*
X160979513Y-67493994D01*
X160962117Y-67670621D01*
X160910597Y-67840460D01*
X160826932Y-67996985D01*
X160797602Y-68032723D01*
X160714340Y-68134180D01*
X160612883Y-68217442D01*
X160577145Y-68246772D01*
X160420620Y-68330437D01*
X160250781Y-68381957D01*
X160184597Y-68388475D01*
X160118414Y-68394994D01*
X160029894Y-68394994D01*
X159963711Y-68388475D01*
X159897527Y-68381957D01*
X159727688Y-68330437D01*
X159571163Y-68246772D01*
X159535425Y-68217442D01*
X159433968Y-68134180D01*
X159350706Y-68032723D01*
X159321376Y-67996985D01*
X159237711Y-67840460D01*
X159186191Y-67670621D01*
X159168795Y-67493994D01*
X159186191Y-67317367D01*
X159237711Y-67147528D01*
X159321376Y-66991003D01*
X159350706Y-66955265D01*
X159433968Y-66853808D01*
X159535425Y-66770546D01*
X159571163Y-66741216D01*
X159727688Y-66657551D01*
X159897527Y-66606031D01*
X159963711Y-66599513D01*
X160029894Y-66592994D01*
X160118414Y-66592994D01*
X160184597Y-66599513D01*
X160184597Y-66599513D01*
G37*
G36*
X134784597Y-66599513D02*
G01*
X134850781Y-66606031D01*
X135020620Y-66657551D01*
X135177145Y-66741216D01*
X135212883Y-66770546D01*
X135314340Y-66853808D01*
X135397602Y-66955265D01*
X135426932Y-66991003D01*
X135510597Y-67147528D01*
X135562117Y-67317367D01*
X135579513Y-67493994D01*
X135562117Y-67670621D01*
X135510597Y-67840460D01*
X135426932Y-67996985D01*
X135397602Y-68032723D01*
X135314340Y-68134180D01*
X135212883Y-68217442D01*
X135177145Y-68246772D01*
X135020620Y-68330437D01*
X134850781Y-68381957D01*
X134784597Y-68388475D01*
X134718414Y-68394994D01*
X134629894Y-68394994D01*
X134563711Y-68388475D01*
X134497527Y-68381957D01*
X134327688Y-68330437D01*
X134171163Y-68246772D01*
X134135425Y-68217442D01*
X134033968Y-68134180D01*
X133950706Y-68032723D01*
X133921376Y-67996985D01*
X133837711Y-67840460D01*
X133786191Y-67670621D01*
X133768795Y-67493994D01*
X133786191Y-67317367D01*
X133837711Y-67147528D01*
X133921376Y-66991003D01*
X133950706Y-66955265D01*
X134033968Y-66853808D01*
X134135425Y-66770546D01*
X134171163Y-66741216D01*
X134327688Y-66657551D01*
X134497527Y-66606031D01*
X134563711Y-66599513D01*
X134629894Y-66592994D01*
X134718414Y-66592994D01*
X134784597Y-66599513D01*
X134784597Y-66599513D01*
G37*
G36*
X162724597Y-66599513D02*
G01*
X162790781Y-66606031D01*
X162960620Y-66657551D01*
X163117145Y-66741216D01*
X163152883Y-66770546D01*
X163254340Y-66853808D01*
X163337602Y-66955265D01*
X163366932Y-66991003D01*
X163450597Y-67147528D01*
X163502117Y-67317367D01*
X163519513Y-67493994D01*
X163502117Y-67670621D01*
X163450597Y-67840460D01*
X163366932Y-67996985D01*
X163337602Y-68032723D01*
X163254340Y-68134180D01*
X163152883Y-68217442D01*
X163117145Y-68246772D01*
X162960620Y-68330437D01*
X162790781Y-68381957D01*
X162724597Y-68388475D01*
X162658414Y-68394994D01*
X162569894Y-68394994D01*
X162503711Y-68388475D01*
X162437527Y-68381957D01*
X162267688Y-68330437D01*
X162111163Y-68246772D01*
X162075425Y-68217442D01*
X161973968Y-68134180D01*
X161890706Y-68032723D01*
X161861376Y-67996985D01*
X161777711Y-67840460D01*
X161726191Y-67670621D01*
X161708795Y-67493994D01*
X161726191Y-67317367D01*
X161777711Y-67147528D01*
X161861376Y-66991003D01*
X161890706Y-66955265D01*
X161973968Y-66853808D01*
X162075425Y-66770546D01*
X162111163Y-66741216D01*
X162267688Y-66657551D01*
X162437527Y-66606031D01*
X162503711Y-66599513D01*
X162569894Y-66592994D01*
X162658414Y-66592994D01*
X162724597Y-66599513D01*
X162724597Y-66599513D01*
G37*
G36*
X119544597Y-66599513D02*
G01*
X119610781Y-66606031D01*
X119780620Y-66657551D01*
X119937145Y-66741216D01*
X119972883Y-66770546D01*
X120074340Y-66853808D01*
X120157602Y-66955265D01*
X120186932Y-66991003D01*
X120270597Y-67147528D01*
X120322117Y-67317367D01*
X120339513Y-67493994D01*
X120322117Y-67670621D01*
X120270597Y-67840460D01*
X120186932Y-67996985D01*
X120157602Y-68032723D01*
X120074340Y-68134180D01*
X119972883Y-68217442D01*
X119937145Y-68246772D01*
X119780620Y-68330437D01*
X119610781Y-68381957D01*
X119544597Y-68388475D01*
X119478414Y-68394994D01*
X119389894Y-68394994D01*
X119323711Y-68388475D01*
X119257527Y-68381957D01*
X119087688Y-68330437D01*
X118931163Y-68246772D01*
X118895425Y-68217442D01*
X118793968Y-68134180D01*
X118710706Y-68032723D01*
X118681376Y-67996985D01*
X118597711Y-67840460D01*
X118546191Y-67670621D01*
X118528795Y-67493994D01*
X118546191Y-67317367D01*
X118597711Y-67147528D01*
X118681376Y-66991003D01*
X118710706Y-66955265D01*
X118793968Y-66853808D01*
X118895425Y-66770546D01*
X118931163Y-66741216D01*
X119087688Y-66657551D01*
X119257527Y-66606031D01*
X119323711Y-66599513D01*
X119389894Y-66592994D01*
X119478414Y-66592994D01*
X119544597Y-66599513D01*
X119544597Y-66599513D01*
G37*
G36*
X117004597Y-66599513D02*
G01*
X117070781Y-66606031D01*
X117240620Y-66657551D01*
X117397145Y-66741216D01*
X117432883Y-66770546D01*
X117534340Y-66853808D01*
X117617602Y-66955265D01*
X117646932Y-66991003D01*
X117730597Y-67147528D01*
X117782117Y-67317367D01*
X117799513Y-67493994D01*
X117782117Y-67670621D01*
X117730597Y-67840460D01*
X117646932Y-67996985D01*
X117617602Y-68032723D01*
X117534340Y-68134180D01*
X117432883Y-68217442D01*
X117397145Y-68246772D01*
X117240620Y-68330437D01*
X117070781Y-68381957D01*
X117004597Y-68388475D01*
X116938414Y-68394994D01*
X116849894Y-68394994D01*
X116783711Y-68388475D01*
X116717527Y-68381957D01*
X116547688Y-68330437D01*
X116391163Y-68246772D01*
X116355425Y-68217442D01*
X116253968Y-68134180D01*
X116170706Y-68032723D01*
X116141376Y-67996985D01*
X116057711Y-67840460D01*
X116006191Y-67670621D01*
X115988795Y-67493994D01*
X116006191Y-67317367D01*
X116057711Y-67147528D01*
X116141376Y-66991003D01*
X116170706Y-66955265D01*
X116253968Y-66853808D01*
X116355425Y-66770546D01*
X116391163Y-66741216D01*
X116547688Y-66657551D01*
X116717527Y-66606031D01*
X116783711Y-66599513D01*
X116849894Y-66592994D01*
X116938414Y-66592994D01*
X117004597Y-66599513D01*
X117004597Y-66599513D01*
G37*
G36*
X115255154Y-68394994D02*
G01*
X113453154Y-68394994D01*
X113453154Y-66592994D01*
X115255154Y-66592994D01*
X115255154Y-68394994D01*
X115255154Y-68394994D01*
G37*
G36*
X132244597Y-66599513D02*
G01*
X132310781Y-66606031D01*
X132480620Y-66657551D01*
X132637145Y-66741216D01*
X132672883Y-66770546D01*
X132774340Y-66853808D01*
X132857602Y-66955265D01*
X132886932Y-66991003D01*
X132970597Y-67147528D01*
X133022117Y-67317367D01*
X133039513Y-67493994D01*
X133022117Y-67670621D01*
X132970597Y-67840460D01*
X132886932Y-67996985D01*
X132857602Y-68032723D01*
X132774340Y-68134180D01*
X132672883Y-68217442D01*
X132637145Y-68246772D01*
X132480620Y-68330437D01*
X132310781Y-68381957D01*
X132244597Y-68388475D01*
X132178414Y-68394994D01*
X132089894Y-68394994D01*
X132023711Y-68388475D01*
X131957527Y-68381957D01*
X131787688Y-68330437D01*
X131631163Y-68246772D01*
X131595425Y-68217442D01*
X131493968Y-68134180D01*
X131410706Y-68032723D01*
X131381376Y-67996985D01*
X131297711Y-67840460D01*
X131246191Y-67670621D01*
X131228795Y-67493994D01*
X131246191Y-67317367D01*
X131297711Y-67147528D01*
X131381376Y-66991003D01*
X131410706Y-66955265D01*
X131493968Y-66853808D01*
X131595425Y-66770546D01*
X131631163Y-66741216D01*
X131787688Y-66657551D01*
X131957527Y-66606031D01*
X132023711Y-66599513D01*
X132089894Y-66592994D01*
X132178414Y-66592994D01*
X132244597Y-66599513D01*
X132244597Y-66599513D01*
G37*
G36*
X127164597Y-66599513D02*
G01*
X127230781Y-66606031D01*
X127400620Y-66657551D01*
X127557145Y-66741216D01*
X127592883Y-66770546D01*
X127694340Y-66853808D01*
X127777602Y-66955265D01*
X127806932Y-66991003D01*
X127890597Y-67147528D01*
X127942117Y-67317367D01*
X127959513Y-67493994D01*
X127942117Y-67670621D01*
X127890597Y-67840460D01*
X127806932Y-67996985D01*
X127777602Y-68032723D01*
X127694340Y-68134180D01*
X127592883Y-68217442D01*
X127557145Y-68246772D01*
X127400620Y-68330437D01*
X127230781Y-68381957D01*
X127164597Y-68388475D01*
X127098414Y-68394994D01*
X127009894Y-68394994D01*
X126943711Y-68388475D01*
X126877527Y-68381957D01*
X126707688Y-68330437D01*
X126551163Y-68246772D01*
X126515425Y-68217442D01*
X126413968Y-68134180D01*
X126330706Y-68032723D01*
X126301376Y-67996985D01*
X126217711Y-67840460D01*
X126166191Y-67670621D01*
X126148795Y-67493994D01*
X126166191Y-67317367D01*
X126217711Y-67147528D01*
X126301376Y-66991003D01*
X126330706Y-66955265D01*
X126413968Y-66853808D01*
X126515425Y-66770546D01*
X126551163Y-66741216D01*
X126707688Y-66657551D01*
X126877527Y-66606031D01*
X126943711Y-66599513D01*
X127009894Y-66592994D01*
X127098414Y-66592994D01*
X127164597Y-66599513D01*
X127164597Y-66599513D01*
G37*
G36*
X124624597Y-66599513D02*
G01*
X124690781Y-66606031D01*
X124860620Y-66657551D01*
X125017145Y-66741216D01*
X125052883Y-66770546D01*
X125154340Y-66853808D01*
X125237602Y-66955265D01*
X125266932Y-66991003D01*
X125350597Y-67147528D01*
X125402117Y-67317367D01*
X125419513Y-67493994D01*
X125402117Y-67670621D01*
X125350597Y-67840460D01*
X125266932Y-67996985D01*
X125237602Y-68032723D01*
X125154340Y-68134180D01*
X125052883Y-68217442D01*
X125017145Y-68246772D01*
X124860620Y-68330437D01*
X124690781Y-68381957D01*
X124624597Y-68388475D01*
X124558414Y-68394994D01*
X124469894Y-68394994D01*
X124403711Y-68388475D01*
X124337527Y-68381957D01*
X124167688Y-68330437D01*
X124011163Y-68246772D01*
X123975425Y-68217442D01*
X123873968Y-68134180D01*
X123790706Y-68032723D01*
X123761376Y-67996985D01*
X123677711Y-67840460D01*
X123626191Y-67670621D01*
X123608795Y-67493994D01*
X123626191Y-67317367D01*
X123677711Y-67147528D01*
X123761376Y-66991003D01*
X123790706Y-66955265D01*
X123873968Y-66853808D01*
X123975425Y-66770546D01*
X124011163Y-66741216D01*
X124167688Y-66657551D01*
X124337527Y-66606031D01*
X124403711Y-66599513D01*
X124469894Y-66592994D01*
X124558414Y-66592994D01*
X124624597Y-66599513D01*
X124624597Y-66599513D01*
G37*
G36*
X122084597Y-66599513D02*
G01*
X122150781Y-66606031D01*
X122320620Y-66657551D01*
X122477145Y-66741216D01*
X122512883Y-66770546D01*
X122614340Y-66853808D01*
X122697602Y-66955265D01*
X122726932Y-66991003D01*
X122810597Y-67147528D01*
X122862117Y-67317367D01*
X122879513Y-67493994D01*
X122862117Y-67670621D01*
X122810597Y-67840460D01*
X122726932Y-67996985D01*
X122697602Y-68032723D01*
X122614340Y-68134180D01*
X122512883Y-68217442D01*
X122477145Y-68246772D01*
X122320620Y-68330437D01*
X122150781Y-68381957D01*
X122084597Y-68388475D01*
X122018414Y-68394994D01*
X121929894Y-68394994D01*
X121863711Y-68388475D01*
X121797527Y-68381957D01*
X121627688Y-68330437D01*
X121471163Y-68246772D01*
X121435425Y-68217442D01*
X121333968Y-68134180D01*
X121250706Y-68032723D01*
X121221376Y-67996985D01*
X121137711Y-67840460D01*
X121086191Y-67670621D01*
X121068795Y-67493994D01*
X121086191Y-67317367D01*
X121137711Y-67147528D01*
X121221376Y-66991003D01*
X121250706Y-66955265D01*
X121333968Y-66853808D01*
X121435425Y-66770546D01*
X121471163Y-66741216D01*
X121627688Y-66657551D01*
X121797527Y-66606031D01*
X121863711Y-66599513D01*
X121929894Y-66592994D01*
X122018414Y-66592994D01*
X122084597Y-66599513D01*
X122084597Y-66599513D01*
G37*
G36*
X155104597Y-66599513D02*
G01*
X155170781Y-66606031D01*
X155340620Y-66657551D01*
X155497145Y-66741216D01*
X155532883Y-66770546D01*
X155634340Y-66853808D01*
X155717602Y-66955265D01*
X155746932Y-66991003D01*
X155830597Y-67147528D01*
X155882117Y-67317367D01*
X155899513Y-67493994D01*
X155882117Y-67670621D01*
X155830597Y-67840460D01*
X155746932Y-67996985D01*
X155717602Y-68032723D01*
X155634340Y-68134180D01*
X155532883Y-68217442D01*
X155497145Y-68246772D01*
X155340620Y-68330437D01*
X155170781Y-68381957D01*
X155104597Y-68388475D01*
X155038414Y-68394994D01*
X154949894Y-68394994D01*
X154883711Y-68388475D01*
X154817527Y-68381957D01*
X154647688Y-68330437D01*
X154491163Y-68246772D01*
X154455425Y-68217442D01*
X154353968Y-68134180D01*
X154270706Y-68032723D01*
X154241376Y-67996985D01*
X154157711Y-67840460D01*
X154106191Y-67670621D01*
X154088795Y-67493994D01*
X154106191Y-67317367D01*
X154157711Y-67147528D01*
X154241376Y-66991003D01*
X154270706Y-66955265D01*
X154353968Y-66853808D01*
X154455425Y-66770546D01*
X154491163Y-66741216D01*
X154647688Y-66657551D01*
X154817527Y-66606031D01*
X154883711Y-66599513D01*
X154949894Y-66592994D01*
X155038414Y-66592994D01*
X155104597Y-66599513D01*
X155104597Y-66599513D01*
G37*
G36*
X157644597Y-66599513D02*
G01*
X157710781Y-66606031D01*
X157880620Y-66657551D01*
X158037145Y-66741216D01*
X158072883Y-66770546D01*
X158174340Y-66853808D01*
X158257602Y-66955265D01*
X158286932Y-66991003D01*
X158370597Y-67147528D01*
X158422117Y-67317367D01*
X158439513Y-67493994D01*
X158422117Y-67670621D01*
X158370597Y-67840460D01*
X158286932Y-67996985D01*
X158257602Y-68032723D01*
X158174340Y-68134180D01*
X158072883Y-68217442D01*
X158037145Y-68246772D01*
X157880620Y-68330437D01*
X157710781Y-68381957D01*
X157644597Y-68388475D01*
X157578414Y-68394994D01*
X157489894Y-68394994D01*
X157423711Y-68388475D01*
X157357527Y-68381957D01*
X157187688Y-68330437D01*
X157031163Y-68246772D01*
X156995425Y-68217442D01*
X156893968Y-68134180D01*
X156810706Y-68032723D01*
X156781376Y-67996985D01*
X156697711Y-67840460D01*
X156646191Y-67670621D01*
X156628795Y-67493994D01*
X156646191Y-67317367D01*
X156697711Y-67147528D01*
X156781376Y-66991003D01*
X156810706Y-66955265D01*
X156893968Y-66853808D01*
X156995425Y-66770546D01*
X157031163Y-66741216D01*
X157187688Y-66657551D01*
X157357527Y-66606031D01*
X157423711Y-66599513D01*
X157489894Y-66592994D01*
X157578414Y-66592994D01*
X157644597Y-66599513D01*
X157644597Y-66599513D01*
G37*
G36*
X129704597Y-66599513D02*
G01*
X129770781Y-66606031D01*
X129940620Y-66657551D01*
X130097145Y-66741216D01*
X130132883Y-66770546D01*
X130234340Y-66853808D01*
X130317602Y-66955265D01*
X130346932Y-66991003D01*
X130430597Y-67147528D01*
X130482117Y-67317367D01*
X130499513Y-67493994D01*
X130482117Y-67670621D01*
X130430597Y-67840460D01*
X130346932Y-67996985D01*
X130317602Y-68032723D01*
X130234340Y-68134180D01*
X130132883Y-68217442D01*
X130097145Y-68246772D01*
X129940620Y-68330437D01*
X129770781Y-68381957D01*
X129704597Y-68388475D01*
X129638414Y-68394994D01*
X129549894Y-68394994D01*
X129483711Y-68388475D01*
X129417527Y-68381957D01*
X129247688Y-68330437D01*
X129091163Y-68246772D01*
X129055425Y-68217442D01*
X128953968Y-68134180D01*
X128870706Y-68032723D01*
X128841376Y-67996985D01*
X128757711Y-67840460D01*
X128706191Y-67670621D01*
X128688795Y-67493994D01*
X128706191Y-67317367D01*
X128757711Y-67147528D01*
X128841376Y-66991003D01*
X128870706Y-66955265D01*
X128953968Y-66853808D01*
X129055425Y-66770546D01*
X129091163Y-66741216D01*
X129247688Y-66657551D01*
X129417527Y-66606031D01*
X129483711Y-66599513D01*
X129549894Y-66592994D01*
X129638414Y-66592994D01*
X129704597Y-66599513D01*
X129704597Y-66599513D01*
G37*
G36*
X137324597Y-66599513D02*
G01*
X137390781Y-66606031D01*
X137560620Y-66657551D01*
X137717145Y-66741216D01*
X137752883Y-66770546D01*
X137854340Y-66853808D01*
X137937602Y-66955265D01*
X137966932Y-66991003D01*
X138050597Y-67147528D01*
X138102117Y-67317367D01*
X138119513Y-67493994D01*
X138102117Y-67670621D01*
X138050597Y-67840460D01*
X137966932Y-67996985D01*
X137937602Y-68032723D01*
X137854340Y-68134180D01*
X137752883Y-68217442D01*
X137717145Y-68246772D01*
X137560620Y-68330437D01*
X137390781Y-68381957D01*
X137324597Y-68388475D01*
X137258414Y-68394994D01*
X137169894Y-68394994D01*
X137103711Y-68388475D01*
X137037527Y-68381957D01*
X136867688Y-68330437D01*
X136711163Y-68246772D01*
X136675425Y-68217442D01*
X136573968Y-68134180D01*
X136490706Y-68032723D01*
X136461376Y-67996985D01*
X136377711Y-67840460D01*
X136326191Y-67670621D01*
X136308795Y-67493994D01*
X136326191Y-67317367D01*
X136377711Y-67147528D01*
X136461376Y-66991003D01*
X136490706Y-66955265D01*
X136573968Y-66853808D01*
X136675425Y-66770546D01*
X136711163Y-66741216D01*
X136867688Y-66657551D01*
X137037527Y-66606031D01*
X137103711Y-66599513D01*
X137169894Y-66592994D01*
X137258414Y-66592994D01*
X137324597Y-66599513D01*
X137324597Y-66599513D01*
G37*
G36*
X139864597Y-66599513D02*
G01*
X139930781Y-66606031D01*
X140100620Y-66657551D01*
X140257145Y-66741216D01*
X140292883Y-66770546D01*
X140394340Y-66853808D01*
X140477602Y-66955265D01*
X140506932Y-66991003D01*
X140590597Y-67147528D01*
X140642117Y-67317367D01*
X140659513Y-67493994D01*
X140642117Y-67670621D01*
X140590597Y-67840460D01*
X140506932Y-67996985D01*
X140477602Y-68032723D01*
X140394340Y-68134180D01*
X140292883Y-68217442D01*
X140257145Y-68246772D01*
X140100620Y-68330437D01*
X139930781Y-68381957D01*
X139864597Y-68388475D01*
X139798414Y-68394994D01*
X139709894Y-68394994D01*
X139643711Y-68388475D01*
X139577527Y-68381957D01*
X139407688Y-68330437D01*
X139251163Y-68246772D01*
X139215425Y-68217442D01*
X139113968Y-68134180D01*
X139030706Y-68032723D01*
X139001376Y-67996985D01*
X138917711Y-67840460D01*
X138866191Y-67670621D01*
X138848795Y-67493994D01*
X138866191Y-67317367D01*
X138917711Y-67147528D01*
X139001376Y-66991003D01*
X139030706Y-66955265D01*
X139113968Y-66853808D01*
X139215425Y-66770546D01*
X139251163Y-66741216D01*
X139407688Y-66657551D01*
X139577527Y-66606031D01*
X139643711Y-66599513D01*
X139709894Y-66592994D01*
X139798414Y-66592994D01*
X139864597Y-66599513D01*
X139864597Y-66599513D01*
G37*
G36*
X142404597Y-66599513D02*
G01*
X142470781Y-66606031D01*
X142640620Y-66657551D01*
X142797145Y-66741216D01*
X142832883Y-66770546D01*
X142934340Y-66853808D01*
X143017602Y-66955265D01*
X143046932Y-66991003D01*
X143130597Y-67147528D01*
X143182117Y-67317367D01*
X143199513Y-67493994D01*
X143182117Y-67670621D01*
X143130597Y-67840460D01*
X143046932Y-67996985D01*
X143017602Y-68032723D01*
X142934340Y-68134180D01*
X142832883Y-68217442D01*
X142797145Y-68246772D01*
X142640620Y-68330437D01*
X142470781Y-68381957D01*
X142404597Y-68388475D01*
X142338414Y-68394994D01*
X142249894Y-68394994D01*
X142183711Y-68388475D01*
X142117527Y-68381957D01*
X141947688Y-68330437D01*
X141791163Y-68246772D01*
X141755425Y-68217442D01*
X141653968Y-68134180D01*
X141570706Y-68032723D01*
X141541376Y-67996985D01*
X141457711Y-67840460D01*
X141406191Y-67670621D01*
X141388795Y-67493994D01*
X141406191Y-67317367D01*
X141457711Y-67147528D01*
X141541376Y-66991003D01*
X141570706Y-66955265D01*
X141653968Y-66853808D01*
X141755425Y-66770546D01*
X141791163Y-66741216D01*
X141947688Y-66657551D01*
X142117527Y-66606031D01*
X142183711Y-66599513D01*
X142249894Y-66592994D01*
X142338414Y-66592994D01*
X142404597Y-66599513D01*
X142404597Y-66599513D01*
G37*
G36*
X144944597Y-66599513D02*
G01*
X145010781Y-66606031D01*
X145180620Y-66657551D01*
X145337145Y-66741216D01*
X145372883Y-66770546D01*
X145474340Y-66853808D01*
X145557602Y-66955265D01*
X145586932Y-66991003D01*
X145670597Y-67147528D01*
X145722117Y-67317367D01*
X145739513Y-67493994D01*
X145722117Y-67670621D01*
X145670597Y-67840460D01*
X145586932Y-67996985D01*
X145557602Y-68032723D01*
X145474340Y-68134180D01*
X145372883Y-68217442D01*
X145337145Y-68246772D01*
X145180620Y-68330437D01*
X145010781Y-68381957D01*
X144944597Y-68388475D01*
X144878414Y-68394994D01*
X144789894Y-68394994D01*
X144723711Y-68388475D01*
X144657527Y-68381957D01*
X144487688Y-68330437D01*
X144331163Y-68246772D01*
X144295425Y-68217442D01*
X144193968Y-68134180D01*
X144110706Y-68032723D01*
X144081376Y-67996985D01*
X143997711Y-67840460D01*
X143946191Y-67670621D01*
X143928795Y-67493994D01*
X143946191Y-67317367D01*
X143997711Y-67147528D01*
X144081376Y-66991003D01*
X144110706Y-66955265D01*
X144193968Y-66853808D01*
X144295425Y-66770546D01*
X144331163Y-66741216D01*
X144487688Y-66657551D01*
X144657527Y-66606031D01*
X144723711Y-66599513D01*
X144789894Y-66592994D01*
X144878414Y-66592994D01*
X144944597Y-66599513D01*
X144944597Y-66599513D01*
G37*
G36*
X147484597Y-66599513D02*
G01*
X147550781Y-66606031D01*
X147720620Y-66657551D01*
X147877145Y-66741216D01*
X147912883Y-66770546D01*
X148014340Y-66853808D01*
X148097602Y-66955265D01*
X148126932Y-66991003D01*
X148210597Y-67147528D01*
X148262117Y-67317367D01*
X148279513Y-67493994D01*
X148262117Y-67670621D01*
X148210597Y-67840460D01*
X148126932Y-67996985D01*
X148097602Y-68032723D01*
X148014340Y-68134180D01*
X147912883Y-68217442D01*
X147877145Y-68246772D01*
X147720620Y-68330437D01*
X147550781Y-68381957D01*
X147484597Y-68388475D01*
X147418414Y-68394994D01*
X147329894Y-68394994D01*
X147263711Y-68388475D01*
X147197527Y-68381957D01*
X147027688Y-68330437D01*
X146871163Y-68246772D01*
X146835425Y-68217442D01*
X146733968Y-68134180D01*
X146650706Y-68032723D01*
X146621376Y-67996985D01*
X146537711Y-67840460D01*
X146486191Y-67670621D01*
X146468795Y-67493994D01*
X146486191Y-67317367D01*
X146537711Y-67147528D01*
X146621376Y-66991003D01*
X146650706Y-66955265D01*
X146733968Y-66853808D01*
X146835425Y-66770546D01*
X146871163Y-66741216D01*
X147027688Y-66657551D01*
X147197527Y-66606031D01*
X147263711Y-66599513D01*
X147329894Y-66592994D01*
X147418414Y-66592994D01*
X147484597Y-66599513D01*
X147484597Y-66599513D01*
G37*
G36*
X150024597Y-66599513D02*
G01*
X150090781Y-66606031D01*
X150260620Y-66657551D01*
X150417145Y-66741216D01*
X150452883Y-66770546D01*
X150554340Y-66853808D01*
X150637602Y-66955265D01*
X150666932Y-66991003D01*
X150750597Y-67147528D01*
X150802117Y-67317367D01*
X150819513Y-67493994D01*
X150802117Y-67670621D01*
X150750597Y-67840460D01*
X150666932Y-67996985D01*
X150637602Y-68032723D01*
X150554340Y-68134180D01*
X150452883Y-68217442D01*
X150417145Y-68246772D01*
X150260620Y-68330437D01*
X150090781Y-68381957D01*
X150024597Y-68388475D01*
X149958414Y-68394994D01*
X149869894Y-68394994D01*
X149803711Y-68388475D01*
X149737527Y-68381957D01*
X149567688Y-68330437D01*
X149411163Y-68246772D01*
X149375425Y-68217442D01*
X149273968Y-68134180D01*
X149190706Y-68032723D01*
X149161376Y-67996985D01*
X149077711Y-67840460D01*
X149026191Y-67670621D01*
X149008795Y-67493994D01*
X149026191Y-67317367D01*
X149077711Y-67147528D01*
X149161376Y-66991003D01*
X149190706Y-66955265D01*
X149273968Y-66853808D01*
X149375425Y-66770546D01*
X149411163Y-66741216D01*
X149567688Y-66657551D01*
X149737527Y-66606031D01*
X149803711Y-66599513D01*
X149869894Y-66592994D01*
X149958414Y-66592994D01*
X150024597Y-66599513D01*
X150024597Y-66599513D01*
G37*
G36*
X152564597Y-66599513D02*
G01*
X152630781Y-66606031D01*
X152800620Y-66657551D01*
X152957145Y-66741216D01*
X152992883Y-66770546D01*
X153094340Y-66853808D01*
X153177602Y-66955265D01*
X153206932Y-66991003D01*
X153290597Y-67147528D01*
X153342117Y-67317367D01*
X153359513Y-67493994D01*
X153342117Y-67670621D01*
X153290597Y-67840460D01*
X153206932Y-67996985D01*
X153177602Y-68032723D01*
X153094340Y-68134180D01*
X152992883Y-68217442D01*
X152957145Y-68246772D01*
X152800620Y-68330437D01*
X152630781Y-68381957D01*
X152564597Y-68388475D01*
X152498414Y-68394994D01*
X152409894Y-68394994D01*
X152343711Y-68388475D01*
X152277527Y-68381957D01*
X152107688Y-68330437D01*
X151951163Y-68246772D01*
X151915425Y-68217442D01*
X151813968Y-68134180D01*
X151730706Y-68032723D01*
X151701376Y-67996985D01*
X151617711Y-67840460D01*
X151566191Y-67670621D01*
X151548795Y-67493994D01*
X151566191Y-67317367D01*
X151617711Y-67147528D01*
X151701376Y-66991003D01*
X151730706Y-66955265D01*
X151813968Y-66853808D01*
X151915425Y-66770546D01*
X151951163Y-66741216D01*
X152107688Y-66657551D01*
X152277527Y-66606031D01*
X152343711Y-66599513D01*
X152409894Y-66592994D01*
X152498414Y-66592994D01*
X152564597Y-66599513D01*
X152564597Y-66599513D01*
G37*
G36*
X124624597Y-64059513D02*
G01*
X124690781Y-64066031D01*
X124860620Y-64117551D01*
X125017145Y-64201216D01*
X125052883Y-64230546D01*
X125154340Y-64313808D01*
X125237602Y-64415265D01*
X125266932Y-64451003D01*
X125350597Y-64607528D01*
X125402117Y-64777367D01*
X125419513Y-64953994D01*
X125402117Y-65130621D01*
X125350597Y-65300460D01*
X125266932Y-65456985D01*
X125237602Y-65492723D01*
X125154340Y-65594180D01*
X125052883Y-65677442D01*
X125017145Y-65706772D01*
X124860620Y-65790437D01*
X124690781Y-65841957D01*
X124624596Y-65848476D01*
X124558414Y-65854994D01*
X124469894Y-65854994D01*
X124403712Y-65848476D01*
X124337527Y-65841957D01*
X124167688Y-65790437D01*
X124011163Y-65706772D01*
X123975425Y-65677442D01*
X123873968Y-65594180D01*
X123790706Y-65492723D01*
X123761376Y-65456985D01*
X123677711Y-65300460D01*
X123626191Y-65130621D01*
X123608795Y-64953994D01*
X123626191Y-64777367D01*
X123677711Y-64607528D01*
X123761376Y-64451003D01*
X123790706Y-64415265D01*
X123873968Y-64313808D01*
X123975425Y-64230546D01*
X124011163Y-64201216D01*
X124167688Y-64117551D01*
X124337527Y-64066031D01*
X124403711Y-64059513D01*
X124469894Y-64052994D01*
X124558414Y-64052994D01*
X124624597Y-64059513D01*
X124624597Y-64059513D01*
G37*
G36*
X127164597Y-64059513D02*
G01*
X127230781Y-64066031D01*
X127400620Y-64117551D01*
X127557145Y-64201216D01*
X127592883Y-64230546D01*
X127694340Y-64313808D01*
X127777602Y-64415265D01*
X127806932Y-64451003D01*
X127890597Y-64607528D01*
X127942117Y-64777367D01*
X127959513Y-64953994D01*
X127942117Y-65130621D01*
X127890597Y-65300460D01*
X127806932Y-65456985D01*
X127777602Y-65492723D01*
X127694340Y-65594180D01*
X127592883Y-65677442D01*
X127557145Y-65706772D01*
X127400620Y-65790437D01*
X127230781Y-65841957D01*
X127164596Y-65848476D01*
X127098414Y-65854994D01*
X127009894Y-65854994D01*
X126943712Y-65848476D01*
X126877527Y-65841957D01*
X126707688Y-65790437D01*
X126551163Y-65706772D01*
X126515425Y-65677442D01*
X126413968Y-65594180D01*
X126330706Y-65492723D01*
X126301376Y-65456985D01*
X126217711Y-65300460D01*
X126166191Y-65130621D01*
X126148795Y-64953994D01*
X126166191Y-64777367D01*
X126217711Y-64607528D01*
X126301376Y-64451003D01*
X126330706Y-64415265D01*
X126413968Y-64313808D01*
X126515425Y-64230546D01*
X126551163Y-64201216D01*
X126707688Y-64117551D01*
X126877527Y-64066031D01*
X126943711Y-64059513D01*
X127009894Y-64052994D01*
X127098414Y-64052994D01*
X127164597Y-64059513D01*
X127164597Y-64059513D01*
G37*
G36*
X129704597Y-64059513D02*
G01*
X129770781Y-64066031D01*
X129940620Y-64117551D01*
X130097145Y-64201216D01*
X130132883Y-64230546D01*
X130234340Y-64313808D01*
X130317602Y-64415265D01*
X130346932Y-64451003D01*
X130430597Y-64607528D01*
X130482117Y-64777367D01*
X130499513Y-64953994D01*
X130482117Y-65130621D01*
X130430597Y-65300460D01*
X130346932Y-65456985D01*
X130317602Y-65492723D01*
X130234340Y-65594180D01*
X130132883Y-65677442D01*
X130097145Y-65706772D01*
X129940620Y-65790437D01*
X129770781Y-65841957D01*
X129704596Y-65848476D01*
X129638414Y-65854994D01*
X129549894Y-65854994D01*
X129483712Y-65848476D01*
X129417527Y-65841957D01*
X129247688Y-65790437D01*
X129091163Y-65706772D01*
X129055425Y-65677442D01*
X128953968Y-65594180D01*
X128870706Y-65492723D01*
X128841376Y-65456985D01*
X128757711Y-65300460D01*
X128706191Y-65130621D01*
X128688795Y-64953994D01*
X128706191Y-64777367D01*
X128757711Y-64607528D01*
X128841376Y-64451003D01*
X128870706Y-64415265D01*
X128953968Y-64313808D01*
X129055425Y-64230546D01*
X129091163Y-64201216D01*
X129247688Y-64117551D01*
X129417527Y-64066031D01*
X129483711Y-64059513D01*
X129549894Y-64052994D01*
X129638414Y-64052994D01*
X129704597Y-64059513D01*
X129704597Y-64059513D01*
G37*
G36*
X132244597Y-64059513D02*
G01*
X132310781Y-64066031D01*
X132480620Y-64117551D01*
X132637145Y-64201216D01*
X132672883Y-64230546D01*
X132774340Y-64313808D01*
X132857602Y-64415265D01*
X132886932Y-64451003D01*
X132970597Y-64607528D01*
X133022117Y-64777367D01*
X133039513Y-64953994D01*
X133022117Y-65130621D01*
X132970597Y-65300460D01*
X132886932Y-65456985D01*
X132857602Y-65492723D01*
X132774340Y-65594180D01*
X132672883Y-65677442D01*
X132637145Y-65706772D01*
X132480620Y-65790437D01*
X132310781Y-65841957D01*
X132244596Y-65848476D01*
X132178414Y-65854994D01*
X132089894Y-65854994D01*
X132023712Y-65848476D01*
X131957527Y-65841957D01*
X131787688Y-65790437D01*
X131631163Y-65706772D01*
X131595425Y-65677442D01*
X131493968Y-65594180D01*
X131410706Y-65492723D01*
X131381376Y-65456985D01*
X131297711Y-65300460D01*
X131246191Y-65130621D01*
X131228795Y-64953994D01*
X131246191Y-64777367D01*
X131297711Y-64607528D01*
X131381376Y-64451003D01*
X131410706Y-64415265D01*
X131493968Y-64313808D01*
X131595425Y-64230546D01*
X131631163Y-64201216D01*
X131787688Y-64117551D01*
X131957527Y-64066031D01*
X132023711Y-64059513D01*
X132089894Y-64052994D01*
X132178414Y-64052994D01*
X132244597Y-64059513D01*
X132244597Y-64059513D01*
G37*
G36*
X134784597Y-64059513D02*
G01*
X134850781Y-64066031D01*
X135020620Y-64117551D01*
X135177145Y-64201216D01*
X135212883Y-64230546D01*
X135314340Y-64313808D01*
X135397602Y-64415265D01*
X135426932Y-64451003D01*
X135510597Y-64607528D01*
X135562117Y-64777367D01*
X135579513Y-64953994D01*
X135562117Y-65130621D01*
X135510597Y-65300460D01*
X135426932Y-65456985D01*
X135397602Y-65492723D01*
X135314340Y-65594180D01*
X135212883Y-65677442D01*
X135177145Y-65706772D01*
X135020620Y-65790437D01*
X134850781Y-65841957D01*
X134784596Y-65848476D01*
X134718414Y-65854994D01*
X134629894Y-65854994D01*
X134563712Y-65848476D01*
X134497527Y-65841957D01*
X134327688Y-65790437D01*
X134171163Y-65706772D01*
X134135425Y-65677442D01*
X134033968Y-65594180D01*
X133950706Y-65492723D01*
X133921376Y-65456985D01*
X133837711Y-65300460D01*
X133786191Y-65130621D01*
X133768795Y-64953994D01*
X133786191Y-64777367D01*
X133837711Y-64607528D01*
X133921376Y-64451003D01*
X133950706Y-64415265D01*
X134033968Y-64313808D01*
X134135425Y-64230546D01*
X134171163Y-64201216D01*
X134327688Y-64117551D01*
X134497527Y-64066031D01*
X134563711Y-64059513D01*
X134629894Y-64052994D01*
X134718414Y-64052994D01*
X134784597Y-64059513D01*
X134784597Y-64059513D01*
G37*
G36*
X137324597Y-64059513D02*
G01*
X137390781Y-64066031D01*
X137560620Y-64117551D01*
X137717145Y-64201216D01*
X137752883Y-64230546D01*
X137854340Y-64313808D01*
X137937602Y-64415265D01*
X137966932Y-64451003D01*
X138050597Y-64607528D01*
X138102117Y-64777367D01*
X138119513Y-64953994D01*
X138102117Y-65130621D01*
X138050597Y-65300460D01*
X137966932Y-65456985D01*
X137937602Y-65492723D01*
X137854340Y-65594180D01*
X137752883Y-65677442D01*
X137717145Y-65706772D01*
X137560620Y-65790437D01*
X137390781Y-65841957D01*
X137324596Y-65848476D01*
X137258414Y-65854994D01*
X137169894Y-65854994D01*
X137103712Y-65848476D01*
X137037527Y-65841957D01*
X136867688Y-65790437D01*
X136711163Y-65706772D01*
X136675425Y-65677442D01*
X136573968Y-65594180D01*
X136490706Y-65492723D01*
X136461376Y-65456985D01*
X136377711Y-65300460D01*
X136326191Y-65130621D01*
X136308795Y-64953994D01*
X136326191Y-64777367D01*
X136377711Y-64607528D01*
X136461376Y-64451003D01*
X136490706Y-64415265D01*
X136573968Y-64313808D01*
X136675425Y-64230546D01*
X136711163Y-64201216D01*
X136867688Y-64117551D01*
X137037527Y-64066031D01*
X137103711Y-64059513D01*
X137169894Y-64052994D01*
X137258414Y-64052994D01*
X137324597Y-64059513D01*
X137324597Y-64059513D01*
G37*
G36*
X139864597Y-64059513D02*
G01*
X139930781Y-64066031D01*
X140100620Y-64117551D01*
X140257145Y-64201216D01*
X140292883Y-64230546D01*
X140394340Y-64313808D01*
X140477602Y-64415265D01*
X140506932Y-64451003D01*
X140590597Y-64607528D01*
X140642117Y-64777367D01*
X140659513Y-64953994D01*
X140642117Y-65130621D01*
X140590597Y-65300460D01*
X140506932Y-65456985D01*
X140477602Y-65492723D01*
X140394340Y-65594180D01*
X140292883Y-65677442D01*
X140257145Y-65706772D01*
X140100620Y-65790437D01*
X139930781Y-65841957D01*
X139864596Y-65848476D01*
X139798414Y-65854994D01*
X139709894Y-65854994D01*
X139643712Y-65848476D01*
X139577527Y-65841957D01*
X139407688Y-65790437D01*
X139251163Y-65706772D01*
X139215425Y-65677442D01*
X139113968Y-65594180D01*
X139030706Y-65492723D01*
X139001376Y-65456985D01*
X138917711Y-65300460D01*
X138866191Y-65130621D01*
X138848795Y-64953994D01*
X138866191Y-64777367D01*
X138917711Y-64607528D01*
X139001376Y-64451003D01*
X139030706Y-64415265D01*
X139113968Y-64313808D01*
X139215425Y-64230546D01*
X139251163Y-64201216D01*
X139407688Y-64117551D01*
X139577527Y-64066031D01*
X139643711Y-64059513D01*
X139709894Y-64052994D01*
X139798414Y-64052994D01*
X139864597Y-64059513D01*
X139864597Y-64059513D01*
G37*
G36*
X142404597Y-64059513D02*
G01*
X142470781Y-64066031D01*
X142640620Y-64117551D01*
X142797145Y-64201216D01*
X142832883Y-64230546D01*
X142934340Y-64313808D01*
X143017602Y-64415265D01*
X143046932Y-64451003D01*
X143130597Y-64607528D01*
X143182117Y-64777367D01*
X143199513Y-64953994D01*
X143182117Y-65130621D01*
X143130597Y-65300460D01*
X143046932Y-65456985D01*
X143017602Y-65492723D01*
X142934340Y-65594180D01*
X142832883Y-65677442D01*
X142797145Y-65706772D01*
X142640620Y-65790437D01*
X142470781Y-65841957D01*
X142404596Y-65848476D01*
X142338414Y-65854994D01*
X142249894Y-65854994D01*
X142183712Y-65848476D01*
X142117527Y-65841957D01*
X141947688Y-65790437D01*
X141791163Y-65706772D01*
X141755425Y-65677442D01*
X141653968Y-65594180D01*
X141570706Y-65492723D01*
X141541376Y-65456985D01*
X141457711Y-65300460D01*
X141406191Y-65130621D01*
X141388795Y-64953994D01*
X141406191Y-64777367D01*
X141457711Y-64607528D01*
X141541376Y-64451003D01*
X141570706Y-64415265D01*
X141653968Y-64313808D01*
X141755425Y-64230546D01*
X141791163Y-64201216D01*
X141947688Y-64117551D01*
X142117527Y-64066031D01*
X142183711Y-64059513D01*
X142249894Y-64052994D01*
X142338414Y-64052994D01*
X142404597Y-64059513D01*
X142404597Y-64059513D01*
G37*
G36*
X144944597Y-64059513D02*
G01*
X145010781Y-64066031D01*
X145180620Y-64117551D01*
X145337145Y-64201216D01*
X145372883Y-64230546D01*
X145474340Y-64313808D01*
X145557602Y-64415265D01*
X145586932Y-64451003D01*
X145670597Y-64607528D01*
X145722117Y-64777367D01*
X145739513Y-64953994D01*
X145722117Y-65130621D01*
X145670597Y-65300460D01*
X145586932Y-65456985D01*
X145557602Y-65492723D01*
X145474340Y-65594180D01*
X145372883Y-65677442D01*
X145337145Y-65706772D01*
X145180620Y-65790437D01*
X145010781Y-65841957D01*
X144944596Y-65848476D01*
X144878414Y-65854994D01*
X144789894Y-65854994D01*
X144723712Y-65848476D01*
X144657527Y-65841957D01*
X144487688Y-65790437D01*
X144331163Y-65706772D01*
X144295425Y-65677442D01*
X144193968Y-65594180D01*
X144110706Y-65492723D01*
X144081376Y-65456985D01*
X143997711Y-65300460D01*
X143946191Y-65130621D01*
X143928795Y-64953994D01*
X143946191Y-64777367D01*
X143997711Y-64607528D01*
X144081376Y-64451003D01*
X144110706Y-64415265D01*
X144193968Y-64313808D01*
X144295425Y-64230546D01*
X144331163Y-64201216D01*
X144487688Y-64117551D01*
X144657527Y-64066031D01*
X144723711Y-64059513D01*
X144789894Y-64052994D01*
X144878414Y-64052994D01*
X144944597Y-64059513D01*
X144944597Y-64059513D01*
G37*
G36*
X150024597Y-64059513D02*
G01*
X150090781Y-64066031D01*
X150260620Y-64117551D01*
X150417145Y-64201216D01*
X150452883Y-64230546D01*
X150554340Y-64313808D01*
X150637602Y-64415265D01*
X150666932Y-64451003D01*
X150750597Y-64607528D01*
X150802117Y-64777367D01*
X150819513Y-64953994D01*
X150802117Y-65130621D01*
X150750597Y-65300460D01*
X150666932Y-65456985D01*
X150637602Y-65492723D01*
X150554340Y-65594180D01*
X150452883Y-65677442D01*
X150417145Y-65706772D01*
X150260620Y-65790437D01*
X150090781Y-65841957D01*
X150024596Y-65848476D01*
X149958414Y-65854994D01*
X149869894Y-65854994D01*
X149803712Y-65848476D01*
X149737527Y-65841957D01*
X149567688Y-65790437D01*
X149411163Y-65706772D01*
X149375425Y-65677442D01*
X149273968Y-65594180D01*
X149190706Y-65492723D01*
X149161376Y-65456985D01*
X149077711Y-65300460D01*
X149026191Y-65130621D01*
X149008795Y-64953994D01*
X149026191Y-64777367D01*
X149077711Y-64607528D01*
X149161376Y-64451003D01*
X149190706Y-64415265D01*
X149273968Y-64313808D01*
X149375425Y-64230546D01*
X149411163Y-64201216D01*
X149567688Y-64117551D01*
X149737527Y-64066031D01*
X149803711Y-64059513D01*
X149869894Y-64052994D01*
X149958414Y-64052994D01*
X150024597Y-64059513D01*
X150024597Y-64059513D01*
G37*
G36*
X122084597Y-64059513D02*
G01*
X122150781Y-64066031D01*
X122320620Y-64117551D01*
X122477145Y-64201216D01*
X122512883Y-64230546D01*
X122614340Y-64313808D01*
X122697602Y-64415265D01*
X122726932Y-64451003D01*
X122810597Y-64607528D01*
X122862117Y-64777367D01*
X122879513Y-64953994D01*
X122862117Y-65130621D01*
X122810597Y-65300460D01*
X122726932Y-65456985D01*
X122697602Y-65492723D01*
X122614340Y-65594180D01*
X122512883Y-65677442D01*
X122477145Y-65706772D01*
X122320620Y-65790437D01*
X122150781Y-65841957D01*
X122084596Y-65848476D01*
X122018414Y-65854994D01*
X121929894Y-65854994D01*
X121863712Y-65848476D01*
X121797527Y-65841957D01*
X121627688Y-65790437D01*
X121471163Y-65706772D01*
X121435425Y-65677442D01*
X121333968Y-65594180D01*
X121250706Y-65492723D01*
X121221376Y-65456985D01*
X121137711Y-65300460D01*
X121086191Y-65130621D01*
X121068795Y-64953994D01*
X121086191Y-64777367D01*
X121137711Y-64607528D01*
X121221376Y-64451003D01*
X121250706Y-64415265D01*
X121333968Y-64313808D01*
X121435425Y-64230546D01*
X121471163Y-64201216D01*
X121627688Y-64117551D01*
X121797527Y-64066031D01*
X121863711Y-64059513D01*
X121929894Y-64052994D01*
X122018414Y-64052994D01*
X122084597Y-64059513D01*
X122084597Y-64059513D01*
G37*
G36*
X119544597Y-64059513D02*
G01*
X119610781Y-64066031D01*
X119780620Y-64117551D01*
X119937145Y-64201216D01*
X119972883Y-64230546D01*
X120074340Y-64313808D01*
X120157602Y-64415265D01*
X120186932Y-64451003D01*
X120270597Y-64607528D01*
X120322117Y-64777367D01*
X120339513Y-64953994D01*
X120322117Y-65130621D01*
X120270597Y-65300460D01*
X120186932Y-65456985D01*
X120157602Y-65492723D01*
X120074340Y-65594180D01*
X119972883Y-65677442D01*
X119937145Y-65706772D01*
X119780620Y-65790437D01*
X119610781Y-65841957D01*
X119544596Y-65848476D01*
X119478414Y-65854994D01*
X119389894Y-65854994D01*
X119323712Y-65848476D01*
X119257527Y-65841957D01*
X119087688Y-65790437D01*
X118931163Y-65706772D01*
X118895425Y-65677442D01*
X118793968Y-65594180D01*
X118710706Y-65492723D01*
X118681376Y-65456985D01*
X118597711Y-65300460D01*
X118546191Y-65130621D01*
X118528795Y-64953994D01*
X118546191Y-64777367D01*
X118597711Y-64607528D01*
X118681376Y-64451003D01*
X118710706Y-64415265D01*
X118793968Y-64313808D01*
X118895425Y-64230546D01*
X118931163Y-64201216D01*
X119087688Y-64117551D01*
X119257527Y-64066031D01*
X119323711Y-64059513D01*
X119389894Y-64052994D01*
X119478414Y-64052994D01*
X119544597Y-64059513D01*
X119544597Y-64059513D01*
G37*
G36*
X152564597Y-64059513D02*
G01*
X152630781Y-64066031D01*
X152800620Y-64117551D01*
X152957145Y-64201216D01*
X152992883Y-64230546D01*
X153094340Y-64313808D01*
X153177602Y-64415265D01*
X153206932Y-64451003D01*
X153290597Y-64607528D01*
X153342117Y-64777367D01*
X153359513Y-64953994D01*
X153342117Y-65130621D01*
X153290597Y-65300460D01*
X153206932Y-65456985D01*
X153177602Y-65492723D01*
X153094340Y-65594180D01*
X152992883Y-65677442D01*
X152957145Y-65706772D01*
X152800620Y-65790437D01*
X152630781Y-65841957D01*
X152564596Y-65848476D01*
X152498414Y-65854994D01*
X152409894Y-65854994D01*
X152343712Y-65848476D01*
X152277527Y-65841957D01*
X152107688Y-65790437D01*
X151951163Y-65706772D01*
X151915425Y-65677442D01*
X151813968Y-65594180D01*
X151730706Y-65492723D01*
X151701376Y-65456985D01*
X151617711Y-65300460D01*
X151566191Y-65130621D01*
X151548795Y-64953994D01*
X151566191Y-64777367D01*
X151617711Y-64607528D01*
X151701376Y-64451003D01*
X151730706Y-64415265D01*
X151813968Y-64313808D01*
X151915425Y-64230546D01*
X151951163Y-64201216D01*
X152107688Y-64117551D01*
X152277527Y-64066031D01*
X152343711Y-64059513D01*
X152409894Y-64052994D01*
X152498414Y-64052994D01*
X152564597Y-64059513D01*
X152564597Y-64059513D01*
G37*
G36*
X155104597Y-64059513D02*
G01*
X155170781Y-64066031D01*
X155340620Y-64117551D01*
X155497145Y-64201216D01*
X155532883Y-64230546D01*
X155634340Y-64313808D01*
X155717602Y-64415265D01*
X155746932Y-64451003D01*
X155830597Y-64607528D01*
X155882117Y-64777367D01*
X155899513Y-64953994D01*
X155882117Y-65130621D01*
X155830597Y-65300460D01*
X155746932Y-65456985D01*
X155717602Y-65492723D01*
X155634340Y-65594180D01*
X155532883Y-65677442D01*
X155497145Y-65706772D01*
X155340620Y-65790437D01*
X155170781Y-65841957D01*
X155104596Y-65848476D01*
X155038414Y-65854994D01*
X154949894Y-65854994D01*
X154883712Y-65848476D01*
X154817527Y-65841957D01*
X154647688Y-65790437D01*
X154491163Y-65706772D01*
X154455425Y-65677442D01*
X154353968Y-65594180D01*
X154270706Y-65492723D01*
X154241376Y-65456985D01*
X154157711Y-65300460D01*
X154106191Y-65130621D01*
X154088795Y-64953994D01*
X154106191Y-64777367D01*
X154157711Y-64607528D01*
X154241376Y-64451003D01*
X154270706Y-64415265D01*
X154353968Y-64313808D01*
X154455425Y-64230546D01*
X154491163Y-64201216D01*
X154647688Y-64117551D01*
X154817527Y-64066031D01*
X154883711Y-64059513D01*
X154949894Y-64052994D01*
X155038414Y-64052994D01*
X155104597Y-64059513D01*
X155104597Y-64059513D01*
G37*
G36*
X160184597Y-64059513D02*
G01*
X160250781Y-64066031D01*
X160420620Y-64117551D01*
X160577145Y-64201216D01*
X160612883Y-64230546D01*
X160714340Y-64313808D01*
X160797602Y-64415265D01*
X160826932Y-64451003D01*
X160910597Y-64607528D01*
X160962117Y-64777367D01*
X160979513Y-64953994D01*
X160962117Y-65130621D01*
X160910597Y-65300460D01*
X160826932Y-65456985D01*
X160797602Y-65492723D01*
X160714340Y-65594180D01*
X160612883Y-65677442D01*
X160577145Y-65706772D01*
X160420620Y-65790437D01*
X160250781Y-65841957D01*
X160184596Y-65848476D01*
X160118414Y-65854994D01*
X160029894Y-65854994D01*
X159963712Y-65848476D01*
X159897527Y-65841957D01*
X159727688Y-65790437D01*
X159571163Y-65706772D01*
X159535425Y-65677442D01*
X159433968Y-65594180D01*
X159350706Y-65492723D01*
X159321376Y-65456985D01*
X159237711Y-65300460D01*
X159186191Y-65130621D01*
X159168795Y-64953994D01*
X159186191Y-64777367D01*
X159237711Y-64607528D01*
X159321376Y-64451003D01*
X159350706Y-64415265D01*
X159433968Y-64313808D01*
X159535425Y-64230546D01*
X159571163Y-64201216D01*
X159727688Y-64117551D01*
X159897527Y-64066031D01*
X159963711Y-64059513D01*
X160029894Y-64052994D01*
X160118414Y-64052994D01*
X160184597Y-64059513D01*
X160184597Y-64059513D01*
G37*
G36*
X162724597Y-64059513D02*
G01*
X162790781Y-64066031D01*
X162960620Y-64117551D01*
X163117145Y-64201216D01*
X163152883Y-64230546D01*
X163254340Y-64313808D01*
X163337602Y-64415265D01*
X163366932Y-64451003D01*
X163450597Y-64607528D01*
X163502117Y-64777367D01*
X163519513Y-64953994D01*
X163502117Y-65130621D01*
X163450597Y-65300460D01*
X163366932Y-65456985D01*
X163337602Y-65492723D01*
X163254340Y-65594180D01*
X163152883Y-65677442D01*
X163117145Y-65706772D01*
X162960620Y-65790437D01*
X162790781Y-65841957D01*
X162724596Y-65848476D01*
X162658414Y-65854994D01*
X162569894Y-65854994D01*
X162503712Y-65848476D01*
X162437527Y-65841957D01*
X162267688Y-65790437D01*
X162111163Y-65706772D01*
X162075425Y-65677442D01*
X161973968Y-65594180D01*
X161890706Y-65492723D01*
X161861376Y-65456985D01*
X161777711Y-65300460D01*
X161726191Y-65130621D01*
X161708795Y-64953994D01*
X161726191Y-64777367D01*
X161777711Y-64607528D01*
X161861376Y-64451003D01*
X161890706Y-64415265D01*
X161973968Y-64313808D01*
X162075425Y-64230546D01*
X162111163Y-64201216D01*
X162267688Y-64117551D01*
X162437527Y-64066031D01*
X162503711Y-64059513D01*
X162569894Y-64052994D01*
X162658414Y-64052994D01*
X162724597Y-64059513D01*
X162724597Y-64059513D01*
G37*
G36*
X117004597Y-64059513D02*
G01*
X117070781Y-64066031D01*
X117240620Y-64117551D01*
X117397145Y-64201216D01*
X117432883Y-64230546D01*
X117534340Y-64313808D01*
X117617602Y-64415265D01*
X117646932Y-64451003D01*
X117730597Y-64607528D01*
X117782117Y-64777367D01*
X117799513Y-64953994D01*
X117782117Y-65130621D01*
X117730597Y-65300460D01*
X117646932Y-65456985D01*
X117617602Y-65492723D01*
X117534340Y-65594180D01*
X117432883Y-65677442D01*
X117397145Y-65706772D01*
X117240620Y-65790437D01*
X117070781Y-65841957D01*
X117004596Y-65848476D01*
X116938414Y-65854994D01*
X116849894Y-65854994D01*
X116783712Y-65848476D01*
X116717527Y-65841957D01*
X116547688Y-65790437D01*
X116391163Y-65706772D01*
X116355425Y-65677442D01*
X116253968Y-65594180D01*
X116170706Y-65492723D01*
X116141376Y-65456985D01*
X116057711Y-65300460D01*
X116006191Y-65130621D01*
X115988795Y-64953994D01*
X116006191Y-64777367D01*
X116057711Y-64607528D01*
X116141376Y-64451003D01*
X116170706Y-64415265D01*
X116253968Y-64313808D01*
X116355425Y-64230546D01*
X116391163Y-64201216D01*
X116547688Y-64117551D01*
X116717527Y-64066031D01*
X116783711Y-64059513D01*
X116849894Y-64052994D01*
X116938414Y-64052994D01*
X117004597Y-64059513D01*
X117004597Y-64059513D01*
G37*
G36*
X147484597Y-64059513D02*
G01*
X147550781Y-64066031D01*
X147720620Y-64117551D01*
X147877145Y-64201216D01*
X147912883Y-64230546D01*
X148014340Y-64313808D01*
X148097602Y-64415265D01*
X148126932Y-64451003D01*
X148210597Y-64607528D01*
X148262117Y-64777367D01*
X148279513Y-64953994D01*
X148262117Y-65130621D01*
X148210597Y-65300460D01*
X148126932Y-65456985D01*
X148097602Y-65492723D01*
X148014340Y-65594180D01*
X147912883Y-65677442D01*
X147877145Y-65706772D01*
X147720620Y-65790437D01*
X147550781Y-65841957D01*
X147484596Y-65848476D01*
X147418414Y-65854994D01*
X147329894Y-65854994D01*
X147263712Y-65848476D01*
X147197527Y-65841957D01*
X147027688Y-65790437D01*
X146871163Y-65706772D01*
X146835425Y-65677442D01*
X146733968Y-65594180D01*
X146650706Y-65492723D01*
X146621376Y-65456985D01*
X146537711Y-65300460D01*
X146486191Y-65130621D01*
X146468795Y-64953994D01*
X146486191Y-64777367D01*
X146537711Y-64607528D01*
X146621376Y-64451003D01*
X146650706Y-64415265D01*
X146733968Y-64313808D01*
X146835425Y-64230546D01*
X146871163Y-64201216D01*
X147027688Y-64117551D01*
X147197527Y-64066031D01*
X147263711Y-64059513D01*
X147329894Y-64052994D01*
X147418414Y-64052994D01*
X147484597Y-64059513D01*
X147484597Y-64059513D01*
G37*
G36*
X157644597Y-64059513D02*
G01*
X157710781Y-64066031D01*
X157880620Y-64117551D01*
X158037145Y-64201216D01*
X158072883Y-64230546D01*
X158174340Y-64313808D01*
X158257602Y-64415265D01*
X158286932Y-64451003D01*
X158370597Y-64607528D01*
X158422117Y-64777367D01*
X158439513Y-64953994D01*
X158422117Y-65130621D01*
X158370597Y-65300460D01*
X158286932Y-65456985D01*
X158257602Y-65492723D01*
X158174340Y-65594180D01*
X158072883Y-65677442D01*
X158037145Y-65706772D01*
X157880620Y-65790437D01*
X157710781Y-65841957D01*
X157644596Y-65848476D01*
X157578414Y-65854994D01*
X157489894Y-65854994D01*
X157423712Y-65848476D01*
X157357527Y-65841957D01*
X157187688Y-65790437D01*
X157031163Y-65706772D01*
X156995425Y-65677442D01*
X156893968Y-65594180D01*
X156810706Y-65492723D01*
X156781376Y-65456985D01*
X156697711Y-65300460D01*
X156646191Y-65130621D01*
X156628795Y-64953994D01*
X156646191Y-64777367D01*
X156697711Y-64607528D01*
X156781376Y-64451003D01*
X156810706Y-64415265D01*
X156893968Y-64313808D01*
X156995425Y-64230546D01*
X157031163Y-64201216D01*
X157187688Y-64117551D01*
X157357527Y-64066031D01*
X157423711Y-64059513D01*
X157489894Y-64052994D01*
X157578414Y-64052994D01*
X157644597Y-64059513D01*
X157644597Y-64059513D01*
G37*
G36*
X114464597Y-64059513D02*
G01*
X114530781Y-64066031D01*
X114700620Y-64117551D01*
X114857145Y-64201216D01*
X114892883Y-64230546D01*
X114994340Y-64313808D01*
X115077602Y-64415265D01*
X115106932Y-64451003D01*
X115190597Y-64607528D01*
X115242117Y-64777367D01*
X115259513Y-64953994D01*
X115242117Y-65130621D01*
X115190597Y-65300460D01*
X115106932Y-65456985D01*
X115077602Y-65492723D01*
X114994340Y-65594180D01*
X114892883Y-65677442D01*
X114857145Y-65706772D01*
X114700620Y-65790437D01*
X114530781Y-65841957D01*
X114464596Y-65848476D01*
X114398414Y-65854994D01*
X114309894Y-65854994D01*
X114243712Y-65848476D01*
X114177527Y-65841957D01*
X114007688Y-65790437D01*
X113851163Y-65706772D01*
X113815425Y-65677442D01*
X113713968Y-65594180D01*
X113630706Y-65492723D01*
X113601376Y-65456985D01*
X113517711Y-65300460D01*
X113466191Y-65130621D01*
X113448795Y-64953994D01*
X113466191Y-64777367D01*
X113517711Y-64607528D01*
X113601376Y-64451003D01*
X113630706Y-64415265D01*
X113713968Y-64313808D01*
X113815425Y-64230546D01*
X113851163Y-64201216D01*
X114007688Y-64117551D01*
X114177527Y-64066031D01*
X114243711Y-64059513D01*
X114309894Y-64052994D01*
X114398414Y-64052994D01*
X114464597Y-64059513D01*
X114464597Y-64059513D01*
G37*
M02*
