G04 #@! TF.GenerationSoftware,KiCad,Pcbnew,(5.1.0)-1*
G04 #@! TF.CreationDate,2019-03-23T20:55:25-04:00*
G04 #@! TF.ProjectId,current_sense,63757272-656e-4745-9f73-656e73652e6b,rev?*
G04 #@! TF.SameCoordinates,Original*
G04 #@! TF.FileFunction,Copper,L1,Top*
G04 #@! TF.FilePolarity,Positive*
%FSLAX46Y46*%
G04 Gerber Fmt 4.6, Leading zero omitted, Abs format (unit mm)*
G04 Created by KiCad (PCBNEW (5.1.0)-1) date 2019-03-23 20:55:25*
%MOMM*%
%LPD*%
G04 APERTURE LIST*
%ADD10C,0.100000*%
%ADD11C,0.875000*%
%ADD12C,2.500000*%
%ADD13C,1.600000*%
%ADD14R,0.800000X0.900000*%
%ADD15O,1.700000X1.700000*%
%ADD16R,1.700000X1.700000*%
%ADD17C,1.524000*%
%ADD18R,1.524000X1.524000*%
%ADD19R,0.600000X1.550000*%
%ADD20R,0.650000X1.700000*%
%ADD21C,0.800000*%
%ADD22C,0.250000*%
G04 APERTURE END LIST*
D10*
G36*
X140739691Y-48052053D02*
G01*
X140760926Y-48055203D01*
X140781750Y-48060419D01*
X140801962Y-48067651D01*
X140821368Y-48076830D01*
X140839781Y-48087866D01*
X140857024Y-48100654D01*
X140872930Y-48115070D01*
X140887346Y-48130976D01*
X140900134Y-48148219D01*
X140911170Y-48166632D01*
X140920349Y-48186038D01*
X140927581Y-48206250D01*
X140932797Y-48227074D01*
X140935947Y-48248309D01*
X140937000Y-48269750D01*
X140937000Y-48707250D01*
X140935947Y-48728691D01*
X140932797Y-48749926D01*
X140927581Y-48770750D01*
X140920349Y-48790962D01*
X140911170Y-48810368D01*
X140900134Y-48828781D01*
X140887346Y-48846024D01*
X140872930Y-48861930D01*
X140857024Y-48876346D01*
X140839781Y-48889134D01*
X140821368Y-48900170D01*
X140801962Y-48909349D01*
X140781750Y-48916581D01*
X140760926Y-48921797D01*
X140739691Y-48924947D01*
X140718250Y-48926000D01*
X140205750Y-48926000D01*
X140184309Y-48924947D01*
X140163074Y-48921797D01*
X140142250Y-48916581D01*
X140122038Y-48909349D01*
X140102632Y-48900170D01*
X140084219Y-48889134D01*
X140066976Y-48876346D01*
X140051070Y-48861930D01*
X140036654Y-48846024D01*
X140023866Y-48828781D01*
X140012830Y-48810368D01*
X140003651Y-48790962D01*
X139996419Y-48770750D01*
X139991203Y-48749926D01*
X139988053Y-48728691D01*
X139987000Y-48707250D01*
X139987000Y-48269750D01*
X139988053Y-48248309D01*
X139991203Y-48227074D01*
X139996419Y-48206250D01*
X140003651Y-48186038D01*
X140012830Y-48166632D01*
X140023866Y-48148219D01*
X140036654Y-48130976D01*
X140051070Y-48115070D01*
X140066976Y-48100654D01*
X140084219Y-48087866D01*
X140102632Y-48076830D01*
X140122038Y-48067651D01*
X140142250Y-48060419D01*
X140163074Y-48055203D01*
X140184309Y-48052053D01*
X140205750Y-48051000D01*
X140718250Y-48051000D01*
X140739691Y-48052053D01*
X140739691Y-48052053D01*
G37*
D11*
X140462000Y-48488500D03*
D10*
G36*
X140739691Y-49627053D02*
G01*
X140760926Y-49630203D01*
X140781750Y-49635419D01*
X140801962Y-49642651D01*
X140821368Y-49651830D01*
X140839781Y-49662866D01*
X140857024Y-49675654D01*
X140872930Y-49690070D01*
X140887346Y-49705976D01*
X140900134Y-49723219D01*
X140911170Y-49741632D01*
X140920349Y-49761038D01*
X140927581Y-49781250D01*
X140932797Y-49802074D01*
X140935947Y-49823309D01*
X140937000Y-49844750D01*
X140937000Y-50282250D01*
X140935947Y-50303691D01*
X140932797Y-50324926D01*
X140927581Y-50345750D01*
X140920349Y-50365962D01*
X140911170Y-50385368D01*
X140900134Y-50403781D01*
X140887346Y-50421024D01*
X140872930Y-50436930D01*
X140857024Y-50451346D01*
X140839781Y-50464134D01*
X140821368Y-50475170D01*
X140801962Y-50484349D01*
X140781750Y-50491581D01*
X140760926Y-50496797D01*
X140739691Y-50499947D01*
X140718250Y-50501000D01*
X140205750Y-50501000D01*
X140184309Y-50499947D01*
X140163074Y-50496797D01*
X140142250Y-50491581D01*
X140122038Y-50484349D01*
X140102632Y-50475170D01*
X140084219Y-50464134D01*
X140066976Y-50451346D01*
X140051070Y-50436930D01*
X140036654Y-50421024D01*
X140023866Y-50403781D01*
X140012830Y-50385368D01*
X140003651Y-50365962D01*
X139996419Y-50345750D01*
X139991203Y-50324926D01*
X139988053Y-50303691D01*
X139987000Y-50282250D01*
X139987000Y-49844750D01*
X139988053Y-49823309D01*
X139991203Y-49802074D01*
X139996419Y-49781250D01*
X140003651Y-49761038D01*
X140012830Y-49741632D01*
X140023866Y-49723219D01*
X140036654Y-49705976D01*
X140051070Y-49690070D01*
X140066976Y-49675654D01*
X140084219Y-49662866D01*
X140102632Y-49651830D01*
X140122038Y-49642651D01*
X140142250Y-49635419D01*
X140163074Y-49630203D01*
X140184309Y-49627053D01*
X140205750Y-49626000D01*
X140718250Y-49626000D01*
X140739691Y-49627053D01*
X140739691Y-49627053D01*
G37*
D11*
X140462000Y-50063500D03*
D10*
G36*
X142517691Y-48052053D02*
G01*
X142538926Y-48055203D01*
X142559750Y-48060419D01*
X142579962Y-48067651D01*
X142599368Y-48076830D01*
X142617781Y-48087866D01*
X142635024Y-48100654D01*
X142650930Y-48115070D01*
X142665346Y-48130976D01*
X142678134Y-48148219D01*
X142689170Y-48166632D01*
X142698349Y-48186038D01*
X142705581Y-48206250D01*
X142710797Y-48227074D01*
X142713947Y-48248309D01*
X142715000Y-48269750D01*
X142715000Y-48707250D01*
X142713947Y-48728691D01*
X142710797Y-48749926D01*
X142705581Y-48770750D01*
X142698349Y-48790962D01*
X142689170Y-48810368D01*
X142678134Y-48828781D01*
X142665346Y-48846024D01*
X142650930Y-48861930D01*
X142635024Y-48876346D01*
X142617781Y-48889134D01*
X142599368Y-48900170D01*
X142579962Y-48909349D01*
X142559750Y-48916581D01*
X142538926Y-48921797D01*
X142517691Y-48924947D01*
X142496250Y-48926000D01*
X141983750Y-48926000D01*
X141962309Y-48924947D01*
X141941074Y-48921797D01*
X141920250Y-48916581D01*
X141900038Y-48909349D01*
X141880632Y-48900170D01*
X141862219Y-48889134D01*
X141844976Y-48876346D01*
X141829070Y-48861930D01*
X141814654Y-48846024D01*
X141801866Y-48828781D01*
X141790830Y-48810368D01*
X141781651Y-48790962D01*
X141774419Y-48770750D01*
X141769203Y-48749926D01*
X141766053Y-48728691D01*
X141765000Y-48707250D01*
X141765000Y-48269750D01*
X141766053Y-48248309D01*
X141769203Y-48227074D01*
X141774419Y-48206250D01*
X141781651Y-48186038D01*
X141790830Y-48166632D01*
X141801866Y-48148219D01*
X141814654Y-48130976D01*
X141829070Y-48115070D01*
X141844976Y-48100654D01*
X141862219Y-48087866D01*
X141880632Y-48076830D01*
X141900038Y-48067651D01*
X141920250Y-48060419D01*
X141941074Y-48055203D01*
X141962309Y-48052053D01*
X141983750Y-48051000D01*
X142496250Y-48051000D01*
X142517691Y-48052053D01*
X142517691Y-48052053D01*
G37*
D11*
X142240000Y-48488500D03*
D10*
G36*
X142517691Y-49627053D02*
G01*
X142538926Y-49630203D01*
X142559750Y-49635419D01*
X142579962Y-49642651D01*
X142599368Y-49651830D01*
X142617781Y-49662866D01*
X142635024Y-49675654D01*
X142650930Y-49690070D01*
X142665346Y-49705976D01*
X142678134Y-49723219D01*
X142689170Y-49741632D01*
X142698349Y-49761038D01*
X142705581Y-49781250D01*
X142710797Y-49802074D01*
X142713947Y-49823309D01*
X142715000Y-49844750D01*
X142715000Y-50282250D01*
X142713947Y-50303691D01*
X142710797Y-50324926D01*
X142705581Y-50345750D01*
X142698349Y-50365962D01*
X142689170Y-50385368D01*
X142678134Y-50403781D01*
X142665346Y-50421024D01*
X142650930Y-50436930D01*
X142635024Y-50451346D01*
X142617781Y-50464134D01*
X142599368Y-50475170D01*
X142579962Y-50484349D01*
X142559750Y-50491581D01*
X142538926Y-50496797D01*
X142517691Y-50499947D01*
X142496250Y-50501000D01*
X141983750Y-50501000D01*
X141962309Y-50499947D01*
X141941074Y-50496797D01*
X141920250Y-50491581D01*
X141900038Y-50484349D01*
X141880632Y-50475170D01*
X141862219Y-50464134D01*
X141844976Y-50451346D01*
X141829070Y-50436930D01*
X141814654Y-50421024D01*
X141801866Y-50403781D01*
X141790830Y-50385368D01*
X141781651Y-50365962D01*
X141774419Y-50345750D01*
X141769203Y-50324926D01*
X141766053Y-50303691D01*
X141765000Y-50282250D01*
X141765000Y-49844750D01*
X141766053Y-49823309D01*
X141769203Y-49802074D01*
X141774419Y-49781250D01*
X141781651Y-49761038D01*
X141790830Y-49741632D01*
X141801866Y-49723219D01*
X141814654Y-49705976D01*
X141829070Y-49690070D01*
X141844976Y-49675654D01*
X141862219Y-49662866D01*
X141880632Y-49651830D01*
X141900038Y-49642651D01*
X141920250Y-49635419D01*
X141941074Y-49630203D01*
X141962309Y-49627053D01*
X141983750Y-49626000D01*
X142496250Y-49626000D01*
X142517691Y-49627053D01*
X142517691Y-49627053D01*
G37*
D11*
X142240000Y-50063500D03*
D10*
G36*
X131595691Y-53437053D02*
G01*
X131616926Y-53440203D01*
X131637750Y-53445419D01*
X131657962Y-53452651D01*
X131677368Y-53461830D01*
X131695781Y-53472866D01*
X131713024Y-53485654D01*
X131728930Y-53500070D01*
X131743346Y-53515976D01*
X131756134Y-53533219D01*
X131767170Y-53551632D01*
X131776349Y-53571038D01*
X131783581Y-53591250D01*
X131788797Y-53612074D01*
X131791947Y-53633309D01*
X131793000Y-53654750D01*
X131793000Y-54092250D01*
X131791947Y-54113691D01*
X131788797Y-54134926D01*
X131783581Y-54155750D01*
X131776349Y-54175962D01*
X131767170Y-54195368D01*
X131756134Y-54213781D01*
X131743346Y-54231024D01*
X131728930Y-54246930D01*
X131713024Y-54261346D01*
X131695781Y-54274134D01*
X131677368Y-54285170D01*
X131657962Y-54294349D01*
X131637750Y-54301581D01*
X131616926Y-54306797D01*
X131595691Y-54309947D01*
X131574250Y-54311000D01*
X131061750Y-54311000D01*
X131040309Y-54309947D01*
X131019074Y-54306797D01*
X130998250Y-54301581D01*
X130978038Y-54294349D01*
X130958632Y-54285170D01*
X130940219Y-54274134D01*
X130922976Y-54261346D01*
X130907070Y-54246930D01*
X130892654Y-54231024D01*
X130879866Y-54213781D01*
X130868830Y-54195368D01*
X130859651Y-54175962D01*
X130852419Y-54155750D01*
X130847203Y-54134926D01*
X130844053Y-54113691D01*
X130843000Y-54092250D01*
X130843000Y-53654750D01*
X130844053Y-53633309D01*
X130847203Y-53612074D01*
X130852419Y-53591250D01*
X130859651Y-53571038D01*
X130868830Y-53551632D01*
X130879866Y-53533219D01*
X130892654Y-53515976D01*
X130907070Y-53500070D01*
X130922976Y-53485654D01*
X130940219Y-53472866D01*
X130958632Y-53461830D01*
X130978038Y-53452651D01*
X130998250Y-53445419D01*
X131019074Y-53440203D01*
X131040309Y-53437053D01*
X131061750Y-53436000D01*
X131574250Y-53436000D01*
X131595691Y-53437053D01*
X131595691Y-53437053D01*
G37*
D11*
X131318000Y-53873500D03*
D10*
G36*
X131595691Y-51862053D02*
G01*
X131616926Y-51865203D01*
X131637750Y-51870419D01*
X131657962Y-51877651D01*
X131677368Y-51886830D01*
X131695781Y-51897866D01*
X131713024Y-51910654D01*
X131728930Y-51925070D01*
X131743346Y-51940976D01*
X131756134Y-51958219D01*
X131767170Y-51976632D01*
X131776349Y-51996038D01*
X131783581Y-52016250D01*
X131788797Y-52037074D01*
X131791947Y-52058309D01*
X131793000Y-52079750D01*
X131793000Y-52517250D01*
X131791947Y-52538691D01*
X131788797Y-52559926D01*
X131783581Y-52580750D01*
X131776349Y-52600962D01*
X131767170Y-52620368D01*
X131756134Y-52638781D01*
X131743346Y-52656024D01*
X131728930Y-52671930D01*
X131713024Y-52686346D01*
X131695781Y-52699134D01*
X131677368Y-52710170D01*
X131657962Y-52719349D01*
X131637750Y-52726581D01*
X131616926Y-52731797D01*
X131595691Y-52734947D01*
X131574250Y-52736000D01*
X131061750Y-52736000D01*
X131040309Y-52734947D01*
X131019074Y-52731797D01*
X130998250Y-52726581D01*
X130978038Y-52719349D01*
X130958632Y-52710170D01*
X130940219Y-52699134D01*
X130922976Y-52686346D01*
X130907070Y-52671930D01*
X130892654Y-52656024D01*
X130879866Y-52638781D01*
X130868830Y-52620368D01*
X130859651Y-52600962D01*
X130852419Y-52580750D01*
X130847203Y-52559926D01*
X130844053Y-52538691D01*
X130843000Y-52517250D01*
X130843000Y-52079750D01*
X130844053Y-52058309D01*
X130847203Y-52037074D01*
X130852419Y-52016250D01*
X130859651Y-51996038D01*
X130868830Y-51976632D01*
X130879866Y-51958219D01*
X130892654Y-51940976D01*
X130907070Y-51925070D01*
X130922976Y-51910654D01*
X130940219Y-51897866D01*
X130958632Y-51886830D01*
X130978038Y-51877651D01*
X130998250Y-51870419D01*
X131019074Y-51865203D01*
X131040309Y-51862053D01*
X131061750Y-51861000D01*
X131574250Y-51861000D01*
X131595691Y-51862053D01*
X131595691Y-51862053D01*
G37*
D11*
X131318000Y-52298500D03*
D10*
G36*
X133373691Y-53411553D02*
G01*
X133394926Y-53414703D01*
X133415750Y-53419919D01*
X133435962Y-53427151D01*
X133455368Y-53436330D01*
X133473781Y-53447366D01*
X133491024Y-53460154D01*
X133506930Y-53474570D01*
X133521346Y-53490476D01*
X133534134Y-53507719D01*
X133545170Y-53526132D01*
X133554349Y-53545538D01*
X133561581Y-53565750D01*
X133566797Y-53586574D01*
X133569947Y-53607809D01*
X133571000Y-53629250D01*
X133571000Y-54066750D01*
X133569947Y-54088191D01*
X133566797Y-54109426D01*
X133561581Y-54130250D01*
X133554349Y-54150462D01*
X133545170Y-54169868D01*
X133534134Y-54188281D01*
X133521346Y-54205524D01*
X133506930Y-54221430D01*
X133491024Y-54235846D01*
X133473781Y-54248634D01*
X133455368Y-54259670D01*
X133435962Y-54268849D01*
X133415750Y-54276081D01*
X133394926Y-54281297D01*
X133373691Y-54284447D01*
X133352250Y-54285500D01*
X132839750Y-54285500D01*
X132818309Y-54284447D01*
X132797074Y-54281297D01*
X132776250Y-54276081D01*
X132756038Y-54268849D01*
X132736632Y-54259670D01*
X132718219Y-54248634D01*
X132700976Y-54235846D01*
X132685070Y-54221430D01*
X132670654Y-54205524D01*
X132657866Y-54188281D01*
X132646830Y-54169868D01*
X132637651Y-54150462D01*
X132630419Y-54130250D01*
X132625203Y-54109426D01*
X132622053Y-54088191D01*
X132621000Y-54066750D01*
X132621000Y-53629250D01*
X132622053Y-53607809D01*
X132625203Y-53586574D01*
X132630419Y-53565750D01*
X132637651Y-53545538D01*
X132646830Y-53526132D01*
X132657866Y-53507719D01*
X132670654Y-53490476D01*
X132685070Y-53474570D01*
X132700976Y-53460154D01*
X132718219Y-53447366D01*
X132736632Y-53436330D01*
X132756038Y-53427151D01*
X132776250Y-53419919D01*
X132797074Y-53414703D01*
X132818309Y-53411553D01*
X132839750Y-53410500D01*
X133352250Y-53410500D01*
X133373691Y-53411553D01*
X133373691Y-53411553D01*
G37*
D11*
X133096000Y-53848000D03*
D10*
G36*
X133373691Y-51836553D02*
G01*
X133394926Y-51839703D01*
X133415750Y-51844919D01*
X133435962Y-51852151D01*
X133455368Y-51861330D01*
X133473781Y-51872366D01*
X133491024Y-51885154D01*
X133506930Y-51899570D01*
X133521346Y-51915476D01*
X133534134Y-51932719D01*
X133545170Y-51951132D01*
X133554349Y-51970538D01*
X133561581Y-51990750D01*
X133566797Y-52011574D01*
X133569947Y-52032809D01*
X133571000Y-52054250D01*
X133571000Y-52491750D01*
X133569947Y-52513191D01*
X133566797Y-52534426D01*
X133561581Y-52555250D01*
X133554349Y-52575462D01*
X133545170Y-52594868D01*
X133534134Y-52613281D01*
X133521346Y-52630524D01*
X133506930Y-52646430D01*
X133491024Y-52660846D01*
X133473781Y-52673634D01*
X133455368Y-52684670D01*
X133435962Y-52693849D01*
X133415750Y-52701081D01*
X133394926Y-52706297D01*
X133373691Y-52709447D01*
X133352250Y-52710500D01*
X132839750Y-52710500D01*
X132818309Y-52709447D01*
X132797074Y-52706297D01*
X132776250Y-52701081D01*
X132756038Y-52693849D01*
X132736632Y-52684670D01*
X132718219Y-52673634D01*
X132700976Y-52660846D01*
X132685070Y-52646430D01*
X132670654Y-52630524D01*
X132657866Y-52613281D01*
X132646830Y-52594868D01*
X132637651Y-52575462D01*
X132630419Y-52555250D01*
X132625203Y-52534426D01*
X132622053Y-52513191D01*
X132621000Y-52491750D01*
X132621000Y-52054250D01*
X132622053Y-52032809D01*
X132625203Y-52011574D01*
X132630419Y-51990750D01*
X132637651Y-51970538D01*
X132646830Y-51951132D01*
X132657866Y-51932719D01*
X132670654Y-51915476D01*
X132685070Y-51899570D01*
X132700976Y-51885154D01*
X132718219Y-51872366D01*
X132736632Y-51861330D01*
X132756038Y-51852151D01*
X132776250Y-51844919D01*
X132797074Y-51839703D01*
X132818309Y-51836553D01*
X132839750Y-51835500D01*
X133352250Y-51835500D01*
X133373691Y-51836553D01*
X133373691Y-51836553D01*
G37*
D11*
X133096000Y-52273000D03*
D12*
X145824000Y-57212000D03*
X153444000Y-64832000D03*
X153444000Y-49592000D03*
D10*
G36*
X131849691Y-62073053D02*
G01*
X131870926Y-62076203D01*
X131891750Y-62081419D01*
X131911962Y-62088651D01*
X131931368Y-62097830D01*
X131949781Y-62108866D01*
X131967024Y-62121654D01*
X131982930Y-62136070D01*
X131997346Y-62151976D01*
X132010134Y-62169219D01*
X132021170Y-62187632D01*
X132030349Y-62207038D01*
X132037581Y-62227250D01*
X132042797Y-62248074D01*
X132045947Y-62269309D01*
X132047000Y-62290750D01*
X132047000Y-62728250D01*
X132045947Y-62749691D01*
X132042797Y-62770926D01*
X132037581Y-62791750D01*
X132030349Y-62811962D01*
X132021170Y-62831368D01*
X132010134Y-62849781D01*
X131997346Y-62867024D01*
X131982930Y-62882930D01*
X131967024Y-62897346D01*
X131949781Y-62910134D01*
X131931368Y-62921170D01*
X131911962Y-62930349D01*
X131891750Y-62937581D01*
X131870926Y-62942797D01*
X131849691Y-62945947D01*
X131828250Y-62947000D01*
X131315750Y-62947000D01*
X131294309Y-62945947D01*
X131273074Y-62942797D01*
X131252250Y-62937581D01*
X131232038Y-62930349D01*
X131212632Y-62921170D01*
X131194219Y-62910134D01*
X131176976Y-62897346D01*
X131161070Y-62882930D01*
X131146654Y-62867024D01*
X131133866Y-62849781D01*
X131122830Y-62831368D01*
X131113651Y-62811962D01*
X131106419Y-62791750D01*
X131101203Y-62770926D01*
X131098053Y-62749691D01*
X131097000Y-62728250D01*
X131097000Y-62290750D01*
X131098053Y-62269309D01*
X131101203Y-62248074D01*
X131106419Y-62227250D01*
X131113651Y-62207038D01*
X131122830Y-62187632D01*
X131133866Y-62169219D01*
X131146654Y-62151976D01*
X131161070Y-62136070D01*
X131176976Y-62121654D01*
X131194219Y-62108866D01*
X131212632Y-62097830D01*
X131232038Y-62088651D01*
X131252250Y-62081419D01*
X131273074Y-62076203D01*
X131294309Y-62073053D01*
X131315750Y-62072000D01*
X131828250Y-62072000D01*
X131849691Y-62073053D01*
X131849691Y-62073053D01*
G37*
D11*
X131572000Y-62509500D03*
D10*
G36*
X131849691Y-60498053D02*
G01*
X131870926Y-60501203D01*
X131891750Y-60506419D01*
X131911962Y-60513651D01*
X131931368Y-60522830D01*
X131949781Y-60533866D01*
X131967024Y-60546654D01*
X131982930Y-60561070D01*
X131997346Y-60576976D01*
X132010134Y-60594219D01*
X132021170Y-60612632D01*
X132030349Y-60632038D01*
X132037581Y-60652250D01*
X132042797Y-60673074D01*
X132045947Y-60694309D01*
X132047000Y-60715750D01*
X132047000Y-61153250D01*
X132045947Y-61174691D01*
X132042797Y-61195926D01*
X132037581Y-61216750D01*
X132030349Y-61236962D01*
X132021170Y-61256368D01*
X132010134Y-61274781D01*
X131997346Y-61292024D01*
X131982930Y-61307930D01*
X131967024Y-61322346D01*
X131949781Y-61335134D01*
X131931368Y-61346170D01*
X131911962Y-61355349D01*
X131891750Y-61362581D01*
X131870926Y-61367797D01*
X131849691Y-61370947D01*
X131828250Y-61372000D01*
X131315750Y-61372000D01*
X131294309Y-61370947D01*
X131273074Y-61367797D01*
X131252250Y-61362581D01*
X131232038Y-61355349D01*
X131212632Y-61346170D01*
X131194219Y-61335134D01*
X131176976Y-61322346D01*
X131161070Y-61307930D01*
X131146654Y-61292024D01*
X131133866Y-61274781D01*
X131122830Y-61256368D01*
X131113651Y-61236962D01*
X131106419Y-61216750D01*
X131101203Y-61195926D01*
X131098053Y-61174691D01*
X131097000Y-61153250D01*
X131097000Y-60715750D01*
X131098053Y-60694309D01*
X131101203Y-60673074D01*
X131106419Y-60652250D01*
X131113651Y-60632038D01*
X131122830Y-60612632D01*
X131133866Y-60594219D01*
X131146654Y-60576976D01*
X131161070Y-60561070D01*
X131176976Y-60546654D01*
X131194219Y-60533866D01*
X131212632Y-60522830D01*
X131232038Y-60513651D01*
X131252250Y-60506419D01*
X131273074Y-60501203D01*
X131294309Y-60498053D01*
X131315750Y-60497000D01*
X131828250Y-60497000D01*
X131849691Y-60498053D01*
X131849691Y-60498053D01*
G37*
D11*
X131572000Y-60934500D03*
D10*
G36*
X133627691Y-62073053D02*
G01*
X133648926Y-62076203D01*
X133669750Y-62081419D01*
X133689962Y-62088651D01*
X133709368Y-62097830D01*
X133727781Y-62108866D01*
X133745024Y-62121654D01*
X133760930Y-62136070D01*
X133775346Y-62151976D01*
X133788134Y-62169219D01*
X133799170Y-62187632D01*
X133808349Y-62207038D01*
X133815581Y-62227250D01*
X133820797Y-62248074D01*
X133823947Y-62269309D01*
X133825000Y-62290750D01*
X133825000Y-62728250D01*
X133823947Y-62749691D01*
X133820797Y-62770926D01*
X133815581Y-62791750D01*
X133808349Y-62811962D01*
X133799170Y-62831368D01*
X133788134Y-62849781D01*
X133775346Y-62867024D01*
X133760930Y-62882930D01*
X133745024Y-62897346D01*
X133727781Y-62910134D01*
X133709368Y-62921170D01*
X133689962Y-62930349D01*
X133669750Y-62937581D01*
X133648926Y-62942797D01*
X133627691Y-62945947D01*
X133606250Y-62947000D01*
X133093750Y-62947000D01*
X133072309Y-62945947D01*
X133051074Y-62942797D01*
X133030250Y-62937581D01*
X133010038Y-62930349D01*
X132990632Y-62921170D01*
X132972219Y-62910134D01*
X132954976Y-62897346D01*
X132939070Y-62882930D01*
X132924654Y-62867024D01*
X132911866Y-62849781D01*
X132900830Y-62831368D01*
X132891651Y-62811962D01*
X132884419Y-62791750D01*
X132879203Y-62770926D01*
X132876053Y-62749691D01*
X132875000Y-62728250D01*
X132875000Y-62290750D01*
X132876053Y-62269309D01*
X132879203Y-62248074D01*
X132884419Y-62227250D01*
X132891651Y-62207038D01*
X132900830Y-62187632D01*
X132911866Y-62169219D01*
X132924654Y-62151976D01*
X132939070Y-62136070D01*
X132954976Y-62121654D01*
X132972219Y-62108866D01*
X132990632Y-62097830D01*
X133010038Y-62088651D01*
X133030250Y-62081419D01*
X133051074Y-62076203D01*
X133072309Y-62073053D01*
X133093750Y-62072000D01*
X133606250Y-62072000D01*
X133627691Y-62073053D01*
X133627691Y-62073053D01*
G37*
D11*
X133350000Y-62509500D03*
D10*
G36*
X133627691Y-60498053D02*
G01*
X133648926Y-60501203D01*
X133669750Y-60506419D01*
X133689962Y-60513651D01*
X133709368Y-60522830D01*
X133727781Y-60533866D01*
X133745024Y-60546654D01*
X133760930Y-60561070D01*
X133775346Y-60576976D01*
X133788134Y-60594219D01*
X133799170Y-60612632D01*
X133808349Y-60632038D01*
X133815581Y-60652250D01*
X133820797Y-60673074D01*
X133823947Y-60694309D01*
X133825000Y-60715750D01*
X133825000Y-61153250D01*
X133823947Y-61174691D01*
X133820797Y-61195926D01*
X133815581Y-61216750D01*
X133808349Y-61236962D01*
X133799170Y-61256368D01*
X133788134Y-61274781D01*
X133775346Y-61292024D01*
X133760930Y-61307930D01*
X133745024Y-61322346D01*
X133727781Y-61335134D01*
X133709368Y-61346170D01*
X133689962Y-61355349D01*
X133669750Y-61362581D01*
X133648926Y-61367797D01*
X133627691Y-61370947D01*
X133606250Y-61372000D01*
X133093750Y-61372000D01*
X133072309Y-61370947D01*
X133051074Y-61367797D01*
X133030250Y-61362581D01*
X133010038Y-61355349D01*
X132990632Y-61346170D01*
X132972219Y-61335134D01*
X132954976Y-61322346D01*
X132939070Y-61307930D01*
X132924654Y-61292024D01*
X132911866Y-61274781D01*
X132900830Y-61256368D01*
X132891651Y-61236962D01*
X132884419Y-61216750D01*
X132879203Y-61195926D01*
X132876053Y-61174691D01*
X132875000Y-61153250D01*
X132875000Y-60715750D01*
X132876053Y-60694309D01*
X132879203Y-60673074D01*
X132884419Y-60652250D01*
X132891651Y-60632038D01*
X132900830Y-60612632D01*
X132911866Y-60594219D01*
X132924654Y-60576976D01*
X132939070Y-60561070D01*
X132954976Y-60546654D01*
X132972219Y-60533866D01*
X132990632Y-60522830D01*
X133010038Y-60513651D01*
X133030250Y-60506419D01*
X133051074Y-60501203D01*
X133072309Y-60498053D01*
X133093750Y-60497000D01*
X133606250Y-60497000D01*
X133627691Y-60498053D01*
X133627691Y-60498053D01*
G37*
D11*
X133350000Y-60934500D03*
D10*
G36*
X116398504Y-54095204D02*
G01*
X116422773Y-54098804D01*
X116446571Y-54104765D01*
X116469671Y-54113030D01*
X116491849Y-54123520D01*
X116512893Y-54136133D01*
X116532598Y-54150747D01*
X116550777Y-54167223D01*
X116567253Y-54185402D01*
X116581867Y-54205107D01*
X116594480Y-54226151D01*
X116604970Y-54248329D01*
X116613235Y-54271429D01*
X116619196Y-54295227D01*
X116622796Y-54319496D01*
X116624000Y-54344000D01*
X116624000Y-56444000D01*
X116622796Y-56468504D01*
X116619196Y-56492773D01*
X116613235Y-56516571D01*
X116604970Y-56539671D01*
X116594480Y-56561849D01*
X116581867Y-56582893D01*
X116567253Y-56602598D01*
X116550777Y-56620777D01*
X116532598Y-56637253D01*
X116512893Y-56651867D01*
X116491849Y-56664480D01*
X116469671Y-56674970D01*
X116446571Y-56683235D01*
X116422773Y-56689196D01*
X116398504Y-56692796D01*
X116374000Y-56694000D01*
X115274000Y-56694000D01*
X115249496Y-56692796D01*
X115225227Y-56689196D01*
X115201429Y-56683235D01*
X115178329Y-56674970D01*
X115156151Y-56664480D01*
X115135107Y-56651867D01*
X115115402Y-56637253D01*
X115097223Y-56620777D01*
X115080747Y-56602598D01*
X115066133Y-56582893D01*
X115053520Y-56561849D01*
X115043030Y-56539671D01*
X115034765Y-56516571D01*
X115028804Y-56492773D01*
X115025204Y-56468504D01*
X115024000Y-56444000D01*
X115024000Y-54344000D01*
X115025204Y-54319496D01*
X115028804Y-54295227D01*
X115034765Y-54271429D01*
X115043030Y-54248329D01*
X115053520Y-54226151D01*
X115066133Y-54205107D01*
X115080747Y-54185402D01*
X115097223Y-54167223D01*
X115115402Y-54150747D01*
X115135107Y-54136133D01*
X115156151Y-54123520D01*
X115178329Y-54113030D01*
X115201429Y-54104765D01*
X115225227Y-54098804D01*
X115249496Y-54095204D01*
X115274000Y-54094000D01*
X116374000Y-54094000D01*
X116398504Y-54095204D01*
X116398504Y-54095204D01*
G37*
D13*
X115824000Y-55394000D03*
D10*
G36*
X116398504Y-50495204D02*
G01*
X116422773Y-50498804D01*
X116446571Y-50504765D01*
X116469671Y-50513030D01*
X116491849Y-50523520D01*
X116512893Y-50536133D01*
X116532598Y-50550747D01*
X116550777Y-50567223D01*
X116567253Y-50585402D01*
X116581867Y-50605107D01*
X116594480Y-50626151D01*
X116604970Y-50648329D01*
X116613235Y-50671429D01*
X116619196Y-50695227D01*
X116622796Y-50719496D01*
X116624000Y-50744000D01*
X116624000Y-52844000D01*
X116622796Y-52868504D01*
X116619196Y-52892773D01*
X116613235Y-52916571D01*
X116604970Y-52939671D01*
X116594480Y-52961849D01*
X116581867Y-52982893D01*
X116567253Y-53002598D01*
X116550777Y-53020777D01*
X116532598Y-53037253D01*
X116512893Y-53051867D01*
X116491849Y-53064480D01*
X116469671Y-53074970D01*
X116446571Y-53083235D01*
X116422773Y-53089196D01*
X116398504Y-53092796D01*
X116374000Y-53094000D01*
X115274000Y-53094000D01*
X115249496Y-53092796D01*
X115225227Y-53089196D01*
X115201429Y-53083235D01*
X115178329Y-53074970D01*
X115156151Y-53064480D01*
X115135107Y-53051867D01*
X115115402Y-53037253D01*
X115097223Y-53020777D01*
X115080747Y-53002598D01*
X115066133Y-52982893D01*
X115053520Y-52961849D01*
X115043030Y-52939671D01*
X115034765Y-52916571D01*
X115028804Y-52892773D01*
X115025204Y-52868504D01*
X115024000Y-52844000D01*
X115024000Y-50744000D01*
X115025204Y-50719496D01*
X115028804Y-50695227D01*
X115034765Y-50671429D01*
X115043030Y-50648329D01*
X115053520Y-50626151D01*
X115066133Y-50605107D01*
X115080747Y-50585402D01*
X115097223Y-50567223D01*
X115115402Y-50550747D01*
X115135107Y-50536133D01*
X115156151Y-50523520D01*
X115178329Y-50513030D01*
X115201429Y-50504765D01*
X115225227Y-50498804D01*
X115249496Y-50495204D01*
X115274000Y-50494000D01*
X116374000Y-50494000D01*
X116398504Y-50495204D01*
X116398504Y-50495204D01*
G37*
D13*
X115824000Y-51794000D03*
D10*
G36*
X124229691Y-47036053D02*
G01*
X124250926Y-47039203D01*
X124271750Y-47044419D01*
X124291962Y-47051651D01*
X124311368Y-47060830D01*
X124329781Y-47071866D01*
X124347024Y-47084654D01*
X124362930Y-47099070D01*
X124377346Y-47114976D01*
X124390134Y-47132219D01*
X124401170Y-47150632D01*
X124410349Y-47170038D01*
X124417581Y-47190250D01*
X124422797Y-47211074D01*
X124425947Y-47232309D01*
X124427000Y-47253750D01*
X124427000Y-47691250D01*
X124425947Y-47712691D01*
X124422797Y-47733926D01*
X124417581Y-47754750D01*
X124410349Y-47774962D01*
X124401170Y-47794368D01*
X124390134Y-47812781D01*
X124377346Y-47830024D01*
X124362930Y-47845930D01*
X124347024Y-47860346D01*
X124329781Y-47873134D01*
X124311368Y-47884170D01*
X124291962Y-47893349D01*
X124271750Y-47900581D01*
X124250926Y-47905797D01*
X124229691Y-47908947D01*
X124208250Y-47910000D01*
X123695750Y-47910000D01*
X123674309Y-47908947D01*
X123653074Y-47905797D01*
X123632250Y-47900581D01*
X123612038Y-47893349D01*
X123592632Y-47884170D01*
X123574219Y-47873134D01*
X123556976Y-47860346D01*
X123541070Y-47845930D01*
X123526654Y-47830024D01*
X123513866Y-47812781D01*
X123502830Y-47794368D01*
X123493651Y-47774962D01*
X123486419Y-47754750D01*
X123481203Y-47733926D01*
X123478053Y-47712691D01*
X123477000Y-47691250D01*
X123477000Y-47253750D01*
X123478053Y-47232309D01*
X123481203Y-47211074D01*
X123486419Y-47190250D01*
X123493651Y-47170038D01*
X123502830Y-47150632D01*
X123513866Y-47132219D01*
X123526654Y-47114976D01*
X123541070Y-47099070D01*
X123556976Y-47084654D01*
X123574219Y-47071866D01*
X123592632Y-47060830D01*
X123612038Y-47051651D01*
X123632250Y-47044419D01*
X123653074Y-47039203D01*
X123674309Y-47036053D01*
X123695750Y-47035000D01*
X124208250Y-47035000D01*
X124229691Y-47036053D01*
X124229691Y-47036053D01*
G37*
D11*
X123952000Y-47472500D03*
D10*
G36*
X124229691Y-48611053D02*
G01*
X124250926Y-48614203D01*
X124271750Y-48619419D01*
X124291962Y-48626651D01*
X124311368Y-48635830D01*
X124329781Y-48646866D01*
X124347024Y-48659654D01*
X124362930Y-48674070D01*
X124377346Y-48689976D01*
X124390134Y-48707219D01*
X124401170Y-48725632D01*
X124410349Y-48745038D01*
X124417581Y-48765250D01*
X124422797Y-48786074D01*
X124425947Y-48807309D01*
X124427000Y-48828750D01*
X124427000Y-49266250D01*
X124425947Y-49287691D01*
X124422797Y-49308926D01*
X124417581Y-49329750D01*
X124410349Y-49349962D01*
X124401170Y-49369368D01*
X124390134Y-49387781D01*
X124377346Y-49405024D01*
X124362930Y-49420930D01*
X124347024Y-49435346D01*
X124329781Y-49448134D01*
X124311368Y-49459170D01*
X124291962Y-49468349D01*
X124271750Y-49475581D01*
X124250926Y-49480797D01*
X124229691Y-49483947D01*
X124208250Y-49485000D01*
X123695750Y-49485000D01*
X123674309Y-49483947D01*
X123653074Y-49480797D01*
X123632250Y-49475581D01*
X123612038Y-49468349D01*
X123592632Y-49459170D01*
X123574219Y-49448134D01*
X123556976Y-49435346D01*
X123541070Y-49420930D01*
X123526654Y-49405024D01*
X123513866Y-49387781D01*
X123502830Y-49369368D01*
X123493651Y-49349962D01*
X123486419Y-49329750D01*
X123481203Y-49308926D01*
X123478053Y-49287691D01*
X123477000Y-49266250D01*
X123477000Y-48828750D01*
X123478053Y-48807309D01*
X123481203Y-48786074D01*
X123486419Y-48765250D01*
X123493651Y-48745038D01*
X123502830Y-48725632D01*
X123513866Y-48707219D01*
X123526654Y-48689976D01*
X123541070Y-48674070D01*
X123556976Y-48659654D01*
X123574219Y-48646866D01*
X123592632Y-48635830D01*
X123612038Y-48626651D01*
X123632250Y-48619419D01*
X123653074Y-48614203D01*
X123674309Y-48611053D01*
X123695750Y-48610000D01*
X124208250Y-48610000D01*
X124229691Y-48611053D01*
X124229691Y-48611053D01*
G37*
D11*
X123952000Y-49047500D03*
D10*
G36*
X122197691Y-47036053D02*
G01*
X122218926Y-47039203D01*
X122239750Y-47044419D01*
X122259962Y-47051651D01*
X122279368Y-47060830D01*
X122297781Y-47071866D01*
X122315024Y-47084654D01*
X122330930Y-47099070D01*
X122345346Y-47114976D01*
X122358134Y-47132219D01*
X122369170Y-47150632D01*
X122378349Y-47170038D01*
X122385581Y-47190250D01*
X122390797Y-47211074D01*
X122393947Y-47232309D01*
X122395000Y-47253750D01*
X122395000Y-47691250D01*
X122393947Y-47712691D01*
X122390797Y-47733926D01*
X122385581Y-47754750D01*
X122378349Y-47774962D01*
X122369170Y-47794368D01*
X122358134Y-47812781D01*
X122345346Y-47830024D01*
X122330930Y-47845930D01*
X122315024Y-47860346D01*
X122297781Y-47873134D01*
X122279368Y-47884170D01*
X122259962Y-47893349D01*
X122239750Y-47900581D01*
X122218926Y-47905797D01*
X122197691Y-47908947D01*
X122176250Y-47910000D01*
X121663750Y-47910000D01*
X121642309Y-47908947D01*
X121621074Y-47905797D01*
X121600250Y-47900581D01*
X121580038Y-47893349D01*
X121560632Y-47884170D01*
X121542219Y-47873134D01*
X121524976Y-47860346D01*
X121509070Y-47845930D01*
X121494654Y-47830024D01*
X121481866Y-47812781D01*
X121470830Y-47794368D01*
X121461651Y-47774962D01*
X121454419Y-47754750D01*
X121449203Y-47733926D01*
X121446053Y-47712691D01*
X121445000Y-47691250D01*
X121445000Y-47253750D01*
X121446053Y-47232309D01*
X121449203Y-47211074D01*
X121454419Y-47190250D01*
X121461651Y-47170038D01*
X121470830Y-47150632D01*
X121481866Y-47132219D01*
X121494654Y-47114976D01*
X121509070Y-47099070D01*
X121524976Y-47084654D01*
X121542219Y-47071866D01*
X121560632Y-47060830D01*
X121580038Y-47051651D01*
X121600250Y-47044419D01*
X121621074Y-47039203D01*
X121642309Y-47036053D01*
X121663750Y-47035000D01*
X122176250Y-47035000D01*
X122197691Y-47036053D01*
X122197691Y-47036053D01*
G37*
D11*
X121920000Y-47472500D03*
D10*
G36*
X122197691Y-48611053D02*
G01*
X122218926Y-48614203D01*
X122239750Y-48619419D01*
X122259962Y-48626651D01*
X122279368Y-48635830D01*
X122297781Y-48646866D01*
X122315024Y-48659654D01*
X122330930Y-48674070D01*
X122345346Y-48689976D01*
X122358134Y-48707219D01*
X122369170Y-48725632D01*
X122378349Y-48745038D01*
X122385581Y-48765250D01*
X122390797Y-48786074D01*
X122393947Y-48807309D01*
X122395000Y-48828750D01*
X122395000Y-49266250D01*
X122393947Y-49287691D01*
X122390797Y-49308926D01*
X122385581Y-49329750D01*
X122378349Y-49349962D01*
X122369170Y-49369368D01*
X122358134Y-49387781D01*
X122345346Y-49405024D01*
X122330930Y-49420930D01*
X122315024Y-49435346D01*
X122297781Y-49448134D01*
X122279368Y-49459170D01*
X122259962Y-49468349D01*
X122239750Y-49475581D01*
X122218926Y-49480797D01*
X122197691Y-49483947D01*
X122176250Y-49485000D01*
X121663750Y-49485000D01*
X121642309Y-49483947D01*
X121621074Y-49480797D01*
X121600250Y-49475581D01*
X121580038Y-49468349D01*
X121560632Y-49459170D01*
X121542219Y-49448134D01*
X121524976Y-49435346D01*
X121509070Y-49420930D01*
X121494654Y-49405024D01*
X121481866Y-49387781D01*
X121470830Y-49369368D01*
X121461651Y-49349962D01*
X121454419Y-49329750D01*
X121449203Y-49308926D01*
X121446053Y-49287691D01*
X121445000Y-49266250D01*
X121445000Y-48828750D01*
X121446053Y-48807309D01*
X121449203Y-48786074D01*
X121454419Y-48765250D01*
X121461651Y-48745038D01*
X121470830Y-48725632D01*
X121481866Y-48707219D01*
X121494654Y-48689976D01*
X121509070Y-48674070D01*
X121524976Y-48659654D01*
X121542219Y-48646866D01*
X121560632Y-48635830D01*
X121580038Y-48626651D01*
X121600250Y-48619419D01*
X121621074Y-48614203D01*
X121642309Y-48611053D01*
X121663750Y-48610000D01*
X122176250Y-48610000D01*
X122197691Y-48611053D01*
X122197691Y-48611053D01*
G37*
D11*
X121920000Y-49047500D03*
D10*
G36*
X128293691Y-65070053D02*
G01*
X128314926Y-65073203D01*
X128335750Y-65078419D01*
X128355962Y-65085651D01*
X128375368Y-65094830D01*
X128393781Y-65105866D01*
X128411024Y-65118654D01*
X128426930Y-65133070D01*
X128441346Y-65148976D01*
X128454134Y-65166219D01*
X128465170Y-65184632D01*
X128474349Y-65204038D01*
X128481581Y-65224250D01*
X128486797Y-65245074D01*
X128489947Y-65266309D01*
X128491000Y-65287750D01*
X128491000Y-65725250D01*
X128489947Y-65746691D01*
X128486797Y-65767926D01*
X128481581Y-65788750D01*
X128474349Y-65808962D01*
X128465170Y-65828368D01*
X128454134Y-65846781D01*
X128441346Y-65864024D01*
X128426930Y-65879930D01*
X128411024Y-65894346D01*
X128393781Y-65907134D01*
X128375368Y-65918170D01*
X128355962Y-65927349D01*
X128335750Y-65934581D01*
X128314926Y-65939797D01*
X128293691Y-65942947D01*
X128272250Y-65944000D01*
X127759750Y-65944000D01*
X127738309Y-65942947D01*
X127717074Y-65939797D01*
X127696250Y-65934581D01*
X127676038Y-65927349D01*
X127656632Y-65918170D01*
X127638219Y-65907134D01*
X127620976Y-65894346D01*
X127605070Y-65879930D01*
X127590654Y-65864024D01*
X127577866Y-65846781D01*
X127566830Y-65828368D01*
X127557651Y-65808962D01*
X127550419Y-65788750D01*
X127545203Y-65767926D01*
X127542053Y-65746691D01*
X127541000Y-65725250D01*
X127541000Y-65287750D01*
X127542053Y-65266309D01*
X127545203Y-65245074D01*
X127550419Y-65224250D01*
X127557651Y-65204038D01*
X127566830Y-65184632D01*
X127577866Y-65166219D01*
X127590654Y-65148976D01*
X127605070Y-65133070D01*
X127620976Y-65118654D01*
X127638219Y-65105866D01*
X127656632Y-65094830D01*
X127676038Y-65085651D01*
X127696250Y-65078419D01*
X127717074Y-65073203D01*
X127738309Y-65070053D01*
X127759750Y-65069000D01*
X128272250Y-65069000D01*
X128293691Y-65070053D01*
X128293691Y-65070053D01*
G37*
D11*
X128016000Y-65506500D03*
D10*
G36*
X128293691Y-66645053D02*
G01*
X128314926Y-66648203D01*
X128335750Y-66653419D01*
X128355962Y-66660651D01*
X128375368Y-66669830D01*
X128393781Y-66680866D01*
X128411024Y-66693654D01*
X128426930Y-66708070D01*
X128441346Y-66723976D01*
X128454134Y-66741219D01*
X128465170Y-66759632D01*
X128474349Y-66779038D01*
X128481581Y-66799250D01*
X128486797Y-66820074D01*
X128489947Y-66841309D01*
X128491000Y-66862750D01*
X128491000Y-67300250D01*
X128489947Y-67321691D01*
X128486797Y-67342926D01*
X128481581Y-67363750D01*
X128474349Y-67383962D01*
X128465170Y-67403368D01*
X128454134Y-67421781D01*
X128441346Y-67439024D01*
X128426930Y-67454930D01*
X128411024Y-67469346D01*
X128393781Y-67482134D01*
X128375368Y-67493170D01*
X128355962Y-67502349D01*
X128335750Y-67509581D01*
X128314926Y-67514797D01*
X128293691Y-67517947D01*
X128272250Y-67519000D01*
X127759750Y-67519000D01*
X127738309Y-67517947D01*
X127717074Y-67514797D01*
X127696250Y-67509581D01*
X127676038Y-67502349D01*
X127656632Y-67493170D01*
X127638219Y-67482134D01*
X127620976Y-67469346D01*
X127605070Y-67454930D01*
X127590654Y-67439024D01*
X127577866Y-67421781D01*
X127566830Y-67403368D01*
X127557651Y-67383962D01*
X127550419Y-67363750D01*
X127545203Y-67342926D01*
X127542053Y-67321691D01*
X127541000Y-67300250D01*
X127541000Y-66862750D01*
X127542053Y-66841309D01*
X127545203Y-66820074D01*
X127550419Y-66799250D01*
X127557651Y-66779038D01*
X127566830Y-66759632D01*
X127577866Y-66741219D01*
X127590654Y-66723976D01*
X127605070Y-66708070D01*
X127620976Y-66693654D01*
X127638219Y-66680866D01*
X127656632Y-66669830D01*
X127676038Y-66660651D01*
X127696250Y-66653419D01*
X127717074Y-66648203D01*
X127738309Y-66645053D01*
X127759750Y-66644000D01*
X128272250Y-66644000D01*
X128293691Y-66645053D01*
X128293691Y-66645053D01*
G37*
D11*
X128016000Y-67081500D03*
D10*
G36*
X126515691Y-65070053D02*
G01*
X126536926Y-65073203D01*
X126557750Y-65078419D01*
X126577962Y-65085651D01*
X126597368Y-65094830D01*
X126615781Y-65105866D01*
X126633024Y-65118654D01*
X126648930Y-65133070D01*
X126663346Y-65148976D01*
X126676134Y-65166219D01*
X126687170Y-65184632D01*
X126696349Y-65204038D01*
X126703581Y-65224250D01*
X126708797Y-65245074D01*
X126711947Y-65266309D01*
X126713000Y-65287750D01*
X126713000Y-65725250D01*
X126711947Y-65746691D01*
X126708797Y-65767926D01*
X126703581Y-65788750D01*
X126696349Y-65808962D01*
X126687170Y-65828368D01*
X126676134Y-65846781D01*
X126663346Y-65864024D01*
X126648930Y-65879930D01*
X126633024Y-65894346D01*
X126615781Y-65907134D01*
X126597368Y-65918170D01*
X126577962Y-65927349D01*
X126557750Y-65934581D01*
X126536926Y-65939797D01*
X126515691Y-65942947D01*
X126494250Y-65944000D01*
X125981750Y-65944000D01*
X125960309Y-65942947D01*
X125939074Y-65939797D01*
X125918250Y-65934581D01*
X125898038Y-65927349D01*
X125878632Y-65918170D01*
X125860219Y-65907134D01*
X125842976Y-65894346D01*
X125827070Y-65879930D01*
X125812654Y-65864024D01*
X125799866Y-65846781D01*
X125788830Y-65828368D01*
X125779651Y-65808962D01*
X125772419Y-65788750D01*
X125767203Y-65767926D01*
X125764053Y-65746691D01*
X125763000Y-65725250D01*
X125763000Y-65287750D01*
X125764053Y-65266309D01*
X125767203Y-65245074D01*
X125772419Y-65224250D01*
X125779651Y-65204038D01*
X125788830Y-65184632D01*
X125799866Y-65166219D01*
X125812654Y-65148976D01*
X125827070Y-65133070D01*
X125842976Y-65118654D01*
X125860219Y-65105866D01*
X125878632Y-65094830D01*
X125898038Y-65085651D01*
X125918250Y-65078419D01*
X125939074Y-65073203D01*
X125960309Y-65070053D01*
X125981750Y-65069000D01*
X126494250Y-65069000D01*
X126515691Y-65070053D01*
X126515691Y-65070053D01*
G37*
D11*
X126238000Y-65506500D03*
D10*
G36*
X126515691Y-66645053D02*
G01*
X126536926Y-66648203D01*
X126557750Y-66653419D01*
X126577962Y-66660651D01*
X126597368Y-66669830D01*
X126615781Y-66680866D01*
X126633024Y-66693654D01*
X126648930Y-66708070D01*
X126663346Y-66723976D01*
X126676134Y-66741219D01*
X126687170Y-66759632D01*
X126696349Y-66779038D01*
X126703581Y-66799250D01*
X126708797Y-66820074D01*
X126711947Y-66841309D01*
X126713000Y-66862750D01*
X126713000Y-67300250D01*
X126711947Y-67321691D01*
X126708797Y-67342926D01*
X126703581Y-67363750D01*
X126696349Y-67383962D01*
X126687170Y-67403368D01*
X126676134Y-67421781D01*
X126663346Y-67439024D01*
X126648930Y-67454930D01*
X126633024Y-67469346D01*
X126615781Y-67482134D01*
X126597368Y-67493170D01*
X126577962Y-67502349D01*
X126557750Y-67509581D01*
X126536926Y-67514797D01*
X126515691Y-67517947D01*
X126494250Y-67519000D01*
X125981750Y-67519000D01*
X125960309Y-67517947D01*
X125939074Y-67514797D01*
X125918250Y-67509581D01*
X125898038Y-67502349D01*
X125878632Y-67493170D01*
X125860219Y-67482134D01*
X125842976Y-67469346D01*
X125827070Y-67454930D01*
X125812654Y-67439024D01*
X125799866Y-67421781D01*
X125788830Y-67403368D01*
X125779651Y-67383962D01*
X125772419Y-67363750D01*
X125767203Y-67342926D01*
X125764053Y-67321691D01*
X125763000Y-67300250D01*
X125763000Y-66862750D01*
X125764053Y-66841309D01*
X125767203Y-66820074D01*
X125772419Y-66799250D01*
X125779651Y-66779038D01*
X125788830Y-66759632D01*
X125799866Y-66741219D01*
X125812654Y-66723976D01*
X125827070Y-66708070D01*
X125842976Y-66693654D01*
X125860219Y-66680866D01*
X125878632Y-66669830D01*
X125898038Y-66660651D01*
X125918250Y-66653419D01*
X125939074Y-66648203D01*
X125960309Y-66645053D01*
X125981750Y-66644000D01*
X126494250Y-66644000D01*
X126515691Y-66645053D01*
X126515691Y-66645053D01*
G37*
D11*
X126238000Y-67081500D03*
D14*
X132334000Y-48022000D03*
X133284000Y-50022000D03*
X131384000Y-50022000D03*
D15*
X107950000Y-60706000D03*
X110490000Y-60706000D03*
X107950000Y-63246000D03*
X110490000Y-63246000D03*
X107950000Y-65786000D03*
D16*
X110490000Y-65786000D03*
D17*
X109474000Y-54768000D03*
X109474000Y-52768000D03*
X109474000Y-50768000D03*
D18*
X109474000Y-48768000D03*
D10*
G36*
X137691691Y-60472553D02*
G01*
X137712926Y-60475703D01*
X137733750Y-60480919D01*
X137753962Y-60488151D01*
X137773368Y-60497330D01*
X137791781Y-60508366D01*
X137809024Y-60521154D01*
X137824930Y-60535570D01*
X137839346Y-60551476D01*
X137852134Y-60568719D01*
X137863170Y-60587132D01*
X137872349Y-60606538D01*
X137879581Y-60626750D01*
X137884797Y-60647574D01*
X137887947Y-60668809D01*
X137889000Y-60690250D01*
X137889000Y-61127750D01*
X137887947Y-61149191D01*
X137884797Y-61170426D01*
X137879581Y-61191250D01*
X137872349Y-61211462D01*
X137863170Y-61230868D01*
X137852134Y-61249281D01*
X137839346Y-61266524D01*
X137824930Y-61282430D01*
X137809024Y-61296846D01*
X137791781Y-61309634D01*
X137773368Y-61320670D01*
X137753962Y-61329849D01*
X137733750Y-61337081D01*
X137712926Y-61342297D01*
X137691691Y-61345447D01*
X137670250Y-61346500D01*
X137157750Y-61346500D01*
X137136309Y-61345447D01*
X137115074Y-61342297D01*
X137094250Y-61337081D01*
X137074038Y-61329849D01*
X137054632Y-61320670D01*
X137036219Y-61309634D01*
X137018976Y-61296846D01*
X137003070Y-61282430D01*
X136988654Y-61266524D01*
X136975866Y-61249281D01*
X136964830Y-61230868D01*
X136955651Y-61211462D01*
X136948419Y-61191250D01*
X136943203Y-61170426D01*
X136940053Y-61149191D01*
X136939000Y-61127750D01*
X136939000Y-60690250D01*
X136940053Y-60668809D01*
X136943203Y-60647574D01*
X136948419Y-60626750D01*
X136955651Y-60606538D01*
X136964830Y-60587132D01*
X136975866Y-60568719D01*
X136988654Y-60551476D01*
X137003070Y-60535570D01*
X137018976Y-60521154D01*
X137036219Y-60508366D01*
X137054632Y-60497330D01*
X137074038Y-60488151D01*
X137094250Y-60480919D01*
X137115074Y-60475703D01*
X137136309Y-60472553D01*
X137157750Y-60471500D01*
X137670250Y-60471500D01*
X137691691Y-60472553D01*
X137691691Y-60472553D01*
G37*
D11*
X137414000Y-60909000D03*
D10*
G36*
X137691691Y-62047553D02*
G01*
X137712926Y-62050703D01*
X137733750Y-62055919D01*
X137753962Y-62063151D01*
X137773368Y-62072330D01*
X137791781Y-62083366D01*
X137809024Y-62096154D01*
X137824930Y-62110570D01*
X137839346Y-62126476D01*
X137852134Y-62143719D01*
X137863170Y-62162132D01*
X137872349Y-62181538D01*
X137879581Y-62201750D01*
X137884797Y-62222574D01*
X137887947Y-62243809D01*
X137889000Y-62265250D01*
X137889000Y-62702750D01*
X137887947Y-62724191D01*
X137884797Y-62745426D01*
X137879581Y-62766250D01*
X137872349Y-62786462D01*
X137863170Y-62805868D01*
X137852134Y-62824281D01*
X137839346Y-62841524D01*
X137824930Y-62857430D01*
X137809024Y-62871846D01*
X137791781Y-62884634D01*
X137773368Y-62895670D01*
X137753962Y-62904849D01*
X137733750Y-62912081D01*
X137712926Y-62917297D01*
X137691691Y-62920447D01*
X137670250Y-62921500D01*
X137157750Y-62921500D01*
X137136309Y-62920447D01*
X137115074Y-62917297D01*
X137094250Y-62912081D01*
X137074038Y-62904849D01*
X137054632Y-62895670D01*
X137036219Y-62884634D01*
X137018976Y-62871846D01*
X137003070Y-62857430D01*
X136988654Y-62841524D01*
X136975866Y-62824281D01*
X136964830Y-62805868D01*
X136955651Y-62786462D01*
X136948419Y-62766250D01*
X136943203Y-62745426D01*
X136940053Y-62724191D01*
X136939000Y-62702750D01*
X136939000Y-62265250D01*
X136940053Y-62243809D01*
X136943203Y-62222574D01*
X136948419Y-62201750D01*
X136955651Y-62181538D01*
X136964830Y-62162132D01*
X136975866Y-62143719D01*
X136988654Y-62126476D01*
X137003070Y-62110570D01*
X137018976Y-62096154D01*
X137036219Y-62083366D01*
X137054632Y-62072330D01*
X137074038Y-62063151D01*
X137094250Y-62055919D01*
X137115074Y-62050703D01*
X137136309Y-62047553D01*
X137157750Y-62046500D01*
X137670250Y-62046500D01*
X137691691Y-62047553D01*
X137691691Y-62047553D01*
G37*
D11*
X137414000Y-62484000D03*
D10*
G36*
X139469691Y-62073053D02*
G01*
X139490926Y-62076203D01*
X139511750Y-62081419D01*
X139531962Y-62088651D01*
X139551368Y-62097830D01*
X139569781Y-62108866D01*
X139587024Y-62121654D01*
X139602930Y-62136070D01*
X139617346Y-62151976D01*
X139630134Y-62169219D01*
X139641170Y-62187632D01*
X139650349Y-62207038D01*
X139657581Y-62227250D01*
X139662797Y-62248074D01*
X139665947Y-62269309D01*
X139667000Y-62290750D01*
X139667000Y-62728250D01*
X139665947Y-62749691D01*
X139662797Y-62770926D01*
X139657581Y-62791750D01*
X139650349Y-62811962D01*
X139641170Y-62831368D01*
X139630134Y-62849781D01*
X139617346Y-62867024D01*
X139602930Y-62882930D01*
X139587024Y-62897346D01*
X139569781Y-62910134D01*
X139551368Y-62921170D01*
X139531962Y-62930349D01*
X139511750Y-62937581D01*
X139490926Y-62942797D01*
X139469691Y-62945947D01*
X139448250Y-62947000D01*
X138935750Y-62947000D01*
X138914309Y-62945947D01*
X138893074Y-62942797D01*
X138872250Y-62937581D01*
X138852038Y-62930349D01*
X138832632Y-62921170D01*
X138814219Y-62910134D01*
X138796976Y-62897346D01*
X138781070Y-62882930D01*
X138766654Y-62867024D01*
X138753866Y-62849781D01*
X138742830Y-62831368D01*
X138733651Y-62811962D01*
X138726419Y-62791750D01*
X138721203Y-62770926D01*
X138718053Y-62749691D01*
X138717000Y-62728250D01*
X138717000Y-62290750D01*
X138718053Y-62269309D01*
X138721203Y-62248074D01*
X138726419Y-62227250D01*
X138733651Y-62207038D01*
X138742830Y-62187632D01*
X138753866Y-62169219D01*
X138766654Y-62151976D01*
X138781070Y-62136070D01*
X138796976Y-62121654D01*
X138814219Y-62108866D01*
X138832632Y-62097830D01*
X138852038Y-62088651D01*
X138872250Y-62081419D01*
X138893074Y-62076203D01*
X138914309Y-62073053D01*
X138935750Y-62072000D01*
X139448250Y-62072000D01*
X139469691Y-62073053D01*
X139469691Y-62073053D01*
G37*
D11*
X139192000Y-62509500D03*
D10*
G36*
X139469691Y-60498053D02*
G01*
X139490926Y-60501203D01*
X139511750Y-60506419D01*
X139531962Y-60513651D01*
X139551368Y-60522830D01*
X139569781Y-60533866D01*
X139587024Y-60546654D01*
X139602930Y-60561070D01*
X139617346Y-60576976D01*
X139630134Y-60594219D01*
X139641170Y-60612632D01*
X139650349Y-60632038D01*
X139657581Y-60652250D01*
X139662797Y-60673074D01*
X139665947Y-60694309D01*
X139667000Y-60715750D01*
X139667000Y-61153250D01*
X139665947Y-61174691D01*
X139662797Y-61195926D01*
X139657581Y-61216750D01*
X139650349Y-61236962D01*
X139641170Y-61256368D01*
X139630134Y-61274781D01*
X139617346Y-61292024D01*
X139602930Y-61307930D01*
X139587024Y-61322346D01*
X139569781Y-61335134D01*
X139551368Y-61346170D01*
X139531962Y-61355349D01*
X139511750Y-61362581D01*
X139490926Y-61367797D01*
X139469691Y-61370947D01*
X139448250Y-61372000D01*
X138935750Y-61372000D01*
X138914309Y-61370947D01*
X138893074Y-61367797D01*
X138872250Y-61362581D01*
X138852038Y-61355349D01*
X138832632Y-61346170D01*
X138814219Y-61335134D01*
X138796976Y-61322346D01*
X138781070Y-61307930D01*
X138766654Y-61292024D01*
X138753866Y-61274781D01*
X138742830Y-61256368D01*
X138733651Y-61236962D01*
X138726419Y-61216750D01*
X138721203Y-61195926D01*
X138718053Y-61174691D01*
X138717000Y-61153250D01*
X138717000Y-60715750D01*
X138718053Y-60694309D01*
X138721203Y-60673074D01*
X138726419Y-60652250D01*
X138733651Y-60632038D01*
X138742830Y-60612632D01*
X138753866Y-60594219D01*
X138766654Y-60576976D01*
X138781070Y-60561070D01*
X138796976Y-60546654D01*
X138814219Y-60533866D01*
X138832632Y-60522830D01*
X138852038Y-60513651D01*
X138872250Y-60506419D01*
X138893074Y-60501203D01*
X138914309Y-60498053D01*
X138935750Y-60497000D01*
X139448250Y-60497000D01*
X139469691Y-60498053D01*
X139469691Y-60498053D01*
G37*
D11*
X139192000Y-60934500D03*
D10*
G36*
X128293691Y-61768053D02*
G01*
X128314926Y-61771203D01*
X128335750Y-61776419D01*
X128355962Y-61783651D01*
X128375368Y-61792830D01*
X128393781Y-61803866D01*
X128411024Y-61816654D01*
X128426930Y-61831070D01*
X128441346Y-61846976D01*
X128454134Y-61864219D01*
X128465170Y-61882632D01*
X128474349Y-61902038D01*
X128481581Y-61922250D01*
X128486797Y-61943074D01*
X128489947Y-61964309D01*
X128491000Y-61985750D01*
X128491000Y-62423250D01*
X128489947Y-62444691D01*
X128486797Y-62465926D01*
X128481581Y-62486750D01*
X128474349Y-62506962D01*
X128465170Y-62526368D01*
X128454134Y-62544781D01*
X128441346Y-62562024D01*
X128426930Y-62577930D01*
X128411024Y-62592346D01*
X128393781Y-62605134D01*
X128375368Y-62616170D01*
X128355962Y-62625349D01*
X128335750Y-62632581D01*
X128314926Y-62637797D01*
X128293691Y-62640947D01*
X128272250Y-62642000D01*
X127759750Y-62642000D01*
X127738309Y-62640947D01*
X127717074Y-62637797D01*
X127696250Y-62632581D01*
X127676038Y-62625349D01*
X127656632Y-62616170D01*
X127638219Y-62605134D01*
X127620976Y-62592346D01*
X127605070Y-62577930D01*
X127590654Y-62562024D01*
X127577866Y-62544781D01*
X127566830Y-62526368D01*
X127557651Y-62506962D01*
X127550419Y-62486750D01*
X127545203Y-62465926D01*
X127542053Y-62444691D01*
X127541000Y-62423250D01*
X127541000Y-61985750D01*
X127542053Y-61964309D01*
X127545203Y-61943074D01*
X127550419Y-61922250D01*
X127557651Y-61902038D01*
X127566830Y-61882632D01*
X127577866Y-61864219D01*
X127590654Y-61846976D01*
X127605070Y-61831070D01*
X127620976Y-61816654D01*
X127638219Y-61803866D01*
X127656632Y-61792830D01*
X127676038Y-61783651D01*
X127696250Y-61776419D01*
X127717074Y-61771203D01*
X127738309Y-61768053D01*
X127759750Y-61767000D01*
X128272250Y-61767000D01*
X128293691Y-61768053D01*
X128293691Y-61768053D01*
G37*
D11*
X128016000Y-62204500D03*
D10*
G36*
X128293691Y-63343053D02*
G01*
X128314926Y-63346203D01*
X128335750Y-63351419D01*
X128355962Y-63358651D01*
X128375368Y-63367830D01*
X128393781Y-63378866D01*
X128411024Y-63391654D01*
X128426930Y-63406070D01*
X128441346Y-63421976D01*
X128454134Y-63439219D01*
X128465170Y-63457632D01*
X128474349Y-63477038D01*
X128481581Y-63497250D01*
X128486797Y-63518074D01*
X128489947Y-63539309D01*
X128491000Y-63560750D01*
X128491000Y-63998250D01*
X128489947Y-64019691D01*
X128486797Y-64040926D01*
X128481581Y-64061750D01*
X128474349Y-64081962D01*
X128465170Y-64101368D01*
X128454134Y-64119781D01*
X128441346Y-64137024D01*
X128426930Y-64152930D01*
X128411024Y-64167346D01*
X128393781Y-64180134D01*
X128375368Y-64191170D01*
X128355962Y-64200349D01*
X128335750Y-64207581D01*
X128314926Y-64212797D01*
X128293691Y-64215947D01*
X128272250Y-64217000D01*
X127759750Y-64217000D01*
X127738309Y-64215947D01*
X127717074Y-64212797D01*
X127696250Y-64207581D01*
X127676038Y-64200349D01*
X127656632Y-64191170D01*
X127638219Y-64180134D01*
X127620976Y-64167346D01*
X127605070Y-64152930D01*
X127590654Y-64137024D01*
X127577866Y-64119781D01*
X127566830Y-64101368D01*
X127557651Y-64081962D01*
X127550419Y-64061750D01*
X127545203Y-64040926D01*
X127542053Y-64019691D01*
X127541000Y-63998250D01*
X127541000Y-63560750D01*
X127542053Y-63539309D01*
X127545203Y-63518074D01*
X127550419Y-63497250D01*
X127557651Y-63477038D01*
X127566830Y-63457632D01*
X127577866Y-63439219D01*
X127590654Y-63421976D01*
X127605070Y-63406070D01*
X127620976Y-63391654D01*
X127638219Y-63378866D01*
X127656632Y-63367830D01*
X127676038Y-63358651D01*
X127696250Y-63351419D01*
X127717074Y-63346203D01*
X127738309Y-63343053D01*
X127759750Y-63342000D01*
X128272250Y-63342000D01*
X128293691Y-63343053D01*
X128293691Y-63343053D01*
G37*
D11*
X128016000Y-63779500D03*
D10*
G36*
X141730191Y-55723053D02*
G01*
X141751426Y-55726203D01*
X141772250Y-55731419D01*
X141792462Y-55738651D01*
X141811868Y-55747830D01*
X141830281Y-55758866D01*
X141847524Y-55771654D01*
X141863430Y-55786070D01*
X141877846Y-55801976D01*
X141890634Y-55819219D01*
X141901670Y-55837632D01*
X141910849Y-55857038D01*
X141918081Y-55877250D01*
X141923297Y-55898074D01*
X141926447Y-55919309D01*
X141927500Y-55940750D01*
X141927500Y-56378250D01*
X141926447Y-56399691D01*
X141923297Y-56420926D01*
X141918081Y-56441750D01*
X141910849Y-56461962D01*
X141901670Y-56481368D01*
X141890634Y-56499781D01*
X141877846Y-56517024D01*
X141863430Y-56532930D01*
X141847524Y-56547346D01*
X141830281Y-56560134D01*
X141811868Y-56571170D01*
X141792462Y-56580349D01*
X141772250Y-56587581D01*
X141751426Y-56592797D01*
X141730191Y-56595947D01*
X141708750Y-56597000D01*
X141196250Y-56597000D01*
X141174809Y-56595947D01*
X141153574Y-56592797D01*
X141132750Y-56587581D01*
X141112538Y-56580349D01*
X141093132Y-56571170D01*
X141074719Y-56560134D01*
X141057476Y-56547346D01*
X141041570Y-56532930D01*
X141027154Y-56517024D01*
X141014366Y-56499781D01*
X141003330Y-56481368D01*
X140994151Y-56461962D01*
X140986919Y-56441750D01*
X140981703Y-56420926D01*
X140978553Y-56399691D01*
X140977500Y-56378250D01*
X140977500Y-55940750D01*
X140978553Y-55919309D01*
X140981703Y-55898074D01*
X140986919Y-55877250D01*
X140994151Y-55857038D01*
X141003330Y-55837632D01*
X141014366Y-55819219D01*
X141027154Y-55801976D01*
X141041570Y-55786070D01*
X141057476Y-55771654D01*
X141074719Y-55758866D01*
X141093132Y-55747830D01*
X141112538Y-55738651D01*
X141132750Y-55731419D01*
X141153574Y-55726203D01*
X141174809Y-55723053D01*
X141196250Y-55722000D01*
X141708750Y-55722000D01*
X141730191Y-55723053D01*
X141730191Y-55723053D01*
G37*
D11*
X141452500Y-56159500D03*
D10*
G36*
X141730191Y-54148053D02*
G01*
X141751426Y-54151203D01*
X141772250Y-54156419D01*
X141792462Y-54163651D01*
X141811868Y-54172830D01*
X141830281Y-54183866D01*
X141847524Y-54196654D01*
X141863430Y-54211070D01*
X141877846Y-54226976D01*
X141890634Y-54244219D01*
X141901670Y-54262632D01*
X141910849Y-54282038D01*
X141918081Y-54302250D01*
X141923297Y-54323074D01*
X141926447Y-54344309D01*
X141927500Y-54365750D01*
X141927500Y-54803250D01*
X141926447Y-54824691D01*
X141923297Y-54845926D01*
X141918081Y-54866750D01*
X141910849Y-54886962D01*
X141901670Y-54906368D01*
X141890634Y-54924781D01*
X141877846Y-54942024D01*
X141863430Y-54957930D01*
X141847524Y-54972346D01*
X141830281Y-54985134D01*
X141811868Y-54996170D01*
X141792462Y-55005349D01*
X141772250Y-55012581D01*
X141751426Y-55017797D01*
X141730191Y-55020947D01*
X141708750Y-55022000D01*
X141196250Y-55022000D01*
X141174809Y-55020947D01*
X141153574Y-55017797D01*
X141132750Y-55012581D01*
X141112538Y-55005349D01*
X141093132Y-54996170D01*
X141074719Y-54985134D01*
X141057476Y-54972346D01*
X141041570Y-54957930D01*
X141027154Y-54942024D01*
X141014366Y-54924781D01*
X141003330Y-54906368D01*
X140994151Y-54886962D01*
X140986919Y-54866750D01*
X140981703Y-54845926D01*
X140978553Y-54824691D01*
X140977500Y-54803250D01*
X140977500Y-54365750D01*
X140978553Y-54344309D01*
X140981703Y-54323074D01*
X140986919Y-54302250D01*
X140994151Y-54282038D01*
X141003330Y-54262632D01*
X141014366Y-54244219D01*
X141027154Y-54226976D01*
X141041570Y-54211070D01*
X141057476Y-54196654D01*
X141074719Y-54183866D01*
X141093132Y-54172830D01*
X141112538Y-54163651D01*
X141132750Y-54156419D01*
X141153574Y-54151203D01*
X141174809Y-54148053D01*
X141196250Y-54147000D01*
X141708750Y-54147000D01*
X141730191Y-54148053D01*
X141730191Y-54148053D01*
G37*
D11*
X141452500Y-54584500D03*
D10*
G36*
X126515691Y-61768053D02*
G01*
X126536926Y-61771203D01*
X126557750Y-61776419D01*
X126577962Y-61783651D01*
X126597368Y-61792830D01*
X126615781Y-61803866D01*
X126633024Y-61816654D01*
X126648930Y-61831070D01*
X126663346Y-61846976D01*
X126676134Y-61864219D01*
X126687170Y-61882632D01*
X126696349Y-61902038D01*
X126703581Y-61922250D01*
X126708797Y-61943074D01*
X126711947Y-61964309D01*
X126713000Y-61985750D01*
X126713000Y-62423250D01*
X126711947Y-62444691D01*
X126708797Y-62465926D01*
X126703581Y-62486750D01*
X126696349Y-62506962D01*
X126687170Y-62526368D01*
X126676134Y-62544781D01*
X126663346Y-62562024D01*
X126648930Y-62577930D01*
X126633024Y-62592346D01*
X126615781Y-62605134D01*
X126597368Y-62616170D01*
X126577962Y-62625349D01*
X126557750Y-62632581D01*
X126536926Y-62637797D01*
X126515691Y-62640947D01*
X126494250Y-62642000D01*
X125981750Y-62642000D01*
X125960309Y-62640947D01*
X125939074Y-62637797D01*
X125918250Y-62632581D01*
X125898038Y-62625349D01*
X125878632Y-62616170D01*
X125860219Y-62605134D01*
X125842976Y-62592346D01*
X125827070Y-62577930D01*
X125812654Y-62562024D01*
X125799866Y-62544781D01*
X125788830Y-62526368D01*
X125779651Y-62506962D01*
X125772419Y-62486750D01*
X125767203Y-62465926D01*
X125764053Y-62444691D01*
X125763000Y-62423250D01*
X125763000Y-61985750D01*
X125764053Y-61964309D01*
X125767203Y-61943074D01*
X125772419Y-61922250D01*
X125779651Y-61902038D01*
X125788830Y-61882632D01*
X125799866Y-61864219D01*
X125812654Y-61846976D01*
X125827070Y-61831070D01*
X125842976Y-61816654D01*
X125860219Y-61803866D01*
X125878632Y-61792830D01*
X125898038Y-61783651D01*
X125918250Y-61776419D01*
X125939074Y-61771203D01*
X125960309Y-61768053D01*
X125981750Y-61767000D01*
X126494250Y-61767000D01*
X126515691Y-61768053D01*
X126515691Y-61768053D01*
G37*
D11*
X126238000Y-62204500D03*
D10*
G36*
X126515691Y-63343053D02*
G01*
X126536926Y-63346203D01*
X126557750Y-63351419D01*
X126577962Y-63358651D01*
X126597368Y-63367830D01*
X126615781Y-63378866D01*
X126633024Y-63391654D01*
X126648930Y-63406070D01*
X126663346Y-63421976D01*
X126676134Y-63439219D01*
X126687170Y-63457632D01*
X126696349Y-63477038D01*
X126703581Y-63497250D01*
X126708797Y-63518074D01*
X126711947Y-63539309D01*
X126713000Y-63560750D01*
X126713000Y-63998250D01*
X126711947Y-64019691D01*
X126708797Y-64040926D01*
X126703581Y-64061750D01*
X126696349Y-64081962D01*
X126687170Y-64101368D01*
X126676134Y-64119781D01*
X126663346Y-64137024D01*
X126648930Y-64152930D01*
X126633024Y-64167346D01*
X126615781Y-64180134D01*
X126597368Y-64191170D01*
X126577962Y-64200349D01*
X126557750Y-64207581D01*
X126536926Y-64212797D01*
X126515691Y-64215947D01*
X126494250Y-64217000D01*
X125981750Y-64217000D01*
X125960309Y-64215947D01*
X125939074Y-64212797D01*
X125918250Y-64207581D01*
X125898038Y-64200349D01*
X125878632Y-64191170D01*
X125860219Y-64180134D01*
X125842976Y-64167346D01*
X125827070Y-64152930D01*
X125812654Y-64137024D01*
X125799866Y-64119781D01*
X125788830Y-64101368D01*
X125779651Y-64081962D01*
X125772419Y-64061750D01*
X125767203Y-64040926D01*
X125764053Y-64019691D01*
X125763000Y-63998250D01*
X125763000Y-63560750D01*
X125764053Y-63539309D01*
X125767203Y-63518074D01*
X125772419Y-63497250D01*
X125779651Y-63477038D01*
X125788830Y-63457632D01*
X125799866Y-63439219D01*
X125812654Y-63421976D01*
X125827070Y-63406070D01*
X125842976Y-63391654D01*
X125860219Y-63378866D01*
X125878632Y-63367830D01*
X125898038Y-63358651D01*
X125918250Y-63351419D01*
X125939074Y-63346203D01*
X125960309Y-63343053D01*
X125981750Y-63342000D01*
X126494250Y-63342000D01*
X126515691Y-63343053D01*
X126515691Y-63343053D01*
G37*
D11*
X126238000Y-63779500D03*
D10*
G36*
X114768691Y-58708053D02*
G01*
X114789926Y-58711203D01*
X114810750Y-58716419D01*
X114830962Y-58723651D01*
X114850368Y-58732830D01*
X114868781Y-58743866D01*
X114886024Y-58756654D01*
X114901930Y-58771070D01*
X114916346Y-58786976D01*
X114929134Y-58804219D01*
X114940170Y-58822632D01*
X114949349Y-58842038D01*
X114956581Y-58862250D01*
X114961797Y-58883074D01*
X114964947Y-58904309D01*
X114966000Y-58925750D01*
X114966000Y-59438250D01*
X114964947Y-59459691D01*
X114961797Y-59480926D01*
X114956581Y-59501750D01*
X114949349Y-59521962D01*
X114940170Y-59541368D01*
X114929134Y-59559781D01*
X114916346Y-59577024D01*
X114901930Y-59592930D01*
X114886024Y-59607346D01*
X114868781Y-59620134D01*
X114850368Y-59631170D01*
X114830962Y-59640349D01*
X114810750Y-59647581D01*
X114789926Y-59652797D01*
X114768691Y-59655947D01*
X114747250Y-59657000D01*
X114309750Y-59657000D01*
X114288309Y-59655947D01*
X114267074Y-59652797D01*
X114246250Y-59647581D01*
X114226038Y-59640349D01*
X114206632Y-59631170D01*
X114188219Y-59620134D01*
X114170976Y-59607346D01*
X114155070Y-59592930D01*
X114140654Y-59577024D01*
X114127866Y-59559781D01*
X114116830Y-59541368D01*
X114107651Y-59521962D01*
X114100419Y-59501750D01*
X114095203Y-59480926D01*
X114092053Y-59459691D01*
X114091000Y-59438250D01*
X114091000Y-58925750D01*
X114092053Y-58904309D01*
X114095203Y-58883074D01*
X114100419Y-58862250D01*
X114107651Y-58842038D01*
X114116830Y-58822632D01*
X114127866Y-58804219D01*
X114140654Y-58786976D01*
X114155070Y-58771070D01*
X114170976Y-58756654D01*
X114188219Y-58743866D01*
X114206632Y-58732830D01*
X114226038Y-58723651D01*
X114246250Y-58716419D01*
X114267074Y-58711203D01*
X114288309Y-58708053D01*
X114309750Y-58707000D01*
X114747250Y-58707000D01*
X114768691Y-58708053D01*
X114768691Y-58708053D01*
G37*
D11*
X114528500Y-59182000D03*
D10*
G36*
X116343691Y-58708053D02*
G01*
X116364926Y-58711203D01*
X116385750Y-58716419D01*
X116405962Y-58723651D01*
X116425368Y-58732830D01*
X116443781Y-58743866D01*
X116461024Y-58756654D01*
X116476930Y-58771070D01*
X116491346Y-58786976D01*
X116504134Y-58804219D01*
X116515170Y-58822632D01*
X116524349Y-58842038D01*
X116531581Y-58862250D01*
X116536797Y-58883074D01*
X116539947Y-58904309D01*
X116541000Y-58925750D01*
X116541000Y-59438250D01*
X116539947Y-59459691D01*
X116536797Y-59480926D01*
X116531581Y-59501750D01*
X116524349Y-59521962D01*
X116515170Y-59541368D01*
X116504134Y-59559781D01*
X116491346Y-59577024D01*
X116476930Y-59592930D01*
X116461024Y-59607346D01*
X116443781Y-59620134D01*
X116425368Y-59631170D01*
X116405962Y-59640349D01*
X116385750Y-59647581D01*
X116364926Y-59652797D01*
X116343691Y-59655947D01*
X116322250Y-59657000D01*
X115884750Y-59657000D01*
X115863309Y-59655947D01*
X115842074Y-59652797D01*
X115821250Y-59647581D01*
X115801038Y-59640349D01*
X115781632Y-59631170D01*
X115763219Y-59620134D01*
X115745976Y-59607346D01*
X115730070Y-59592930D01*
X115715654Y-59577024D01*
X115702866Y-59559781D01*
X115691830Y-59541368D01*
X115682651Y-59521962D01*
X115675419Y-59501750D01*
X115670203Y-59480926D01*
X115667053Y-59459691D01*
X115666000Y-59438250D01*
X115666000Y-58925750D01*
X115667053Y-58904309D01*
X115670203Y-58883074D01*
X115675419Y-58862250D01*
X115682651Y-58842038D01*
X115691830Y-58822632D01*
X115702866Y-58804219D01*
X115715654Y-58786976D01*
X115730070Y-58771070D01*
X115745976Y-58756654D01*
X115763219Y-58743866D01*
X115781632Y-58732830D01*
X115801038Y-58723651D01*
X115821250Y-58716419D01*
X115842074Y-58711203D01*
X115863309Y-58708053D01*
X115884750Y-58707000D01*
X116322250Y-58707000D01*
X116343691Y-58708053D01*
X116343691Y-58708053D01*
G37*
D11*
X116103500Y-59182000D03*
D10*
G36*
X116343691Y-66582053D02*
G01*
X116364926Y-66585203D01*
X116385750Y-66590419D01*
X116405962Y-66597651D01*
X116425368Y-66606830D01*
X116443781Y-66617866D01*
X116461024Y-66630654D01*
X116476930Y-66645070D01*
X116491346Y-66660976D01*
X116504134Y-66678219D01*
X116515170Y-66696632D01*
X116524349Y-66716038D01*
X116531581Y-66736250D01*
X116536797Y-66757074D01*
X116539947Y-66778309D01*
X116541000Y-66799750D01*
X116541000Y-67312250D01*
X116539947Y-67333691D01*
X116536797Y-67354926D01*
X116531581Y-67375750D01*
X116524349Y-67395962D01*
X116515170Y-67415368D01*
X116504134Y-67433781D01*
X116491346Y-67451024D01*
X116476930Y-67466930D01*
X116461024Y-67481346D01*
X116443781Y-67494134D01*
X116425368Y-67505170D01*
X116405962Y-67514349D01*
X116385750Y-67521581D01*
X116364926Y-67526797D01*
X116343691Y-67529947D01*
X116322250Y-67531000D01*
X115884750Y-67531000D01*
X115863309Y-67529947D01*
X115842074Y-67526797D01*
X115821250Y-67521581D01*
X115801038Y-67514349D01*
X115781632Y-67505170D01*
X115763219Y-67494134D01*
X115745976Y-67481346D01*
X115730070Y-67466930D01*
X115715654Y-67451024D01*
X115702866Y-67433781D01*
X115691830Y-67415368D01*
X115682651Y-67395962D01*
X115675419Y-67375750D01*
X115670203Y-67354926D01*
X115667053Y-67333691D01*
X115666000Y-67312250D01*
X115666000Y-66799750D01*
X115667053Y-66778309D01*
X115670203Y-66757074D01*
X115675419Y-66736250D01*
X115682651Y-66716038D01*
X115691830Y-66696632D01*
X115702866Y-66678219D01*
X115715654Y-66660976D01*
X115730070Y-66645070D01*
X115745976Y-66630654D01*
X115763219Y-66617866D01*
X115781632Y-66606830D01*
X115801038Y-66597651D01*
X115821250Y-66590419D01*
X115842074Y-66585203D01*
X115863309Y-66582053D01*
X115884750Y-66581000D01*
X116322250Y-66581000D01*
X116343691Y-66582053D01*
X116343691Y-66582053D01*
G37*
D11*
X116103500Y-67056000D03*
D10*
G36*
X114768691Y-66582053D02*
G01*
X114789926Y-66585203D01*
X114810750Y-66590419D01*
X114830962Y-66597651D01*
X114850368Y-66606830D01*
X114868781Y-66617866D01*
X114886024Y-66630654D01*
X114901930Y-66645070D01*
X114916346Y-66660976D01*
X114929134Y-66678219D01*
X114940170Y-66696632D01*
X114949349Y-66716038D01*
X114956581Y-66736250D01*
X114961797Y-66757074D01*
X114964947Y-66778309D01*
X114966000Y-66799750D01*
X114966000Y-67312250D01*
X114964947Y-67333691D01*
X114961797Y-67354926D01*
X114956581Y-67375750D01*
X114949349Y-67395962D01*
X114940170Y-67415368D01*
X114929134Y-67433781D01*
X114916346Y-67451024D01*
X114901930Y-67466930D01*
X114886024Y-67481346D01*
X114868781Y-67494134D01*
X114850368Y-67505170D01*
X114830962Y-67514349D01*
X114810750Y-67521581D01*
X114789926Y-67526797D01*
X114768691Y-67529947D01*
X114747250Y-67531000D01*
X114309750Y-67531000D01*
X114288309Y-67529947D01*
X114267074Y-67526797D01*
X114246250Y-67521581D01*
X114226038Y-67514349D01*
X114206632Y-67505170D01*
X114188219Y-67494134D01*
X114170976Y-67481346D01*
X114155070Y-67466930D01*
X114140654Y-67451024D01*
X114127866Y-67433781D01*
X114116830Y-67415368D01*
X114107651Y-67395962D01*
X114100419Y-67375750D01*
X114095203Y-67354926D01*
X114092053Y-67333691D01*
X114091000Y-67312250D01*
X114091000Y-66799750D01*
X114092053Y-66778309D01*
X114095203Y-66757074D01*
X114100419Y-66736250D01*
X114107651Y-66716038D01*
X114116830Y-66696632D01*
X114127866Y-66678219D01*
X114140654Y-66660976D01*
X114155070Y-66645070D01*
X114170976Y-66630654D01*
X114188219Y-66617866D01*
X114206632Y-66606830D01*
X114226038Y-66597651D01*
X114246250Y-66590419D01*
X114267074Y-66585203D01*
X114288309Y-66582053D01*
X114309750Y-66581000D01*
X114747250Y-66581000D01*
X114768691Y-66582053D01*
X114768691Y-66582053D01*
G37*
D11*
X114528500Y-67056000D03*
D10*
G36*
X116343691Y-64296053D02*
G01*
X116364926Y-64299203D01*
X116385750Y-64304419D01*
X116405962Y-64311651D01*
X116425368Y-64320830D01*
X116443781Y-64331866D01*
X116461024Y-64344654D01*
X116476930Y-64359070D01*
X116491346Y-64374976D01*
X116504134Y-64392219D01*
X116515170Y-64410632D01*
X116524349Y-64430038D01*
X116531581Y-64450250D01*
X116536797Y-64471074D01*
X116539947Y-64492309D01*
X116541000Y-64513750D01*
X116541000Y-65026250D01*
X116539947Y-65047691D01*
X116536797Y-65068926D01*
X116531581Y-65089750D01*
X116524349Y-65109962D01*
X116515170Y-65129368D01*
X116504134Y-65147781D01*
X116491346Y-65165024D01*
X116476930Y-65180930D01*
X116461024Y-65195346D01*
X116443781Y-65208134D01*
X116425368Y-65219170D01*
X116405962Y-65228349D01*
X116385750Y-65235581D01*
X116364926Y-65240797D01*
X116343691Y-65243947D01*
X116322250Y-65245000D01*
X115884750Y-65245000D01*
X115863309Y-65243947D01*
X115842074Y-65240797D01*
X115821250Y-65235581D01*
X115801038Y-65228349D01*
X115781632Y-65219170D01*
X115763219Y-65208134D01*
X115745976Y-65195346D01*
X115730070Y-65180930D01*
X115715654Y-65165024D01*
X115702866Y-65147781D01*
X115691830Y-65129368D01*
X115682651Y-65109962D01*
X115675419Y-65089750D01*
X115670203Y-65068926D01*
X115667053Y-65047691D01*
X115666000Y-65026250D01*
X115666000Y-64513750D01*
X115667053Y-64492309D01*
X115670203Y-64471074D01*
X115675419Y-64450250D01*
X115682651Y-64430038D01*
X115691830Y-64410632D01*
X115702866Y-64392219D01*
X115715654Y-64374976D01*
X115730070Y-64359070D01*
X115745976Y-64344654D01*
X115763219Y-64331866D01*
X115781632Y-64320830D01*
X115801038Y-64311651D01*
X115821250Y-64304419D01*
X115842074Y-64299203D01*
X115863309Y-64296053D01*
X115884750Y-64295000D01*
X116322250Y-64295000D01*
X116343691Y-64296053D01*
X116343691Y-64296053D01*
G37*
D11*
X116103500Y-64770000D03*
D10*
G36*
X114768691Y-64296053D02*
G01*
X114789926Y-64299203D01*
X114810750Y-64304419D01*
X114830962Y-64311651D01*
X114850368Y-64320830D01*
X114868781Y-64331866D01*
X114886024Y-64344654D01*
X114901930Y-64359070D01*
X114916346Y-64374976D01*
X114929134Y-64392219D01*
X114940170Y-64410632D01*
X114949349Y-64430038D01*
X114956581Y-64450250D01*
X114961797Y-64471074D01*
X114964947Y-64492309D01*
X114966000Y-64513750D01*
X114966000Y-65026250D01*
X114964947Y-65047691D01*
X114961797Y-65068926D01*
X114956581Y-65089750D01*
X114949349Y-65109962D01*
X114940170Y-65129368D01*
X114929134Y-65147781D01*
X114916346Y-65165024D01*
X114901930Y-65180930D01*
X114886024Y-65195346D01*
X114868781Y-65208134D01*
X114850368Y-65219170D01*
X114830962Y-65228349D01*
X114810750Y-65235581D01*
X114789926Y-65240797D01*
X114768691Y-65243947D01*
X114747250Y-65245000D01*
X114309750Y-65245000D01*
X114288309Y-65243947D01*
X114267074Y-65240797D01*
X114246250Y-65235581D01*
X114226038Y-65228349D01*
X114206632Y-65219170D01*
X114188219Y-65208134D01*
X114170976Y-65195346D01*
X114155070Y-65180930D01*
X114140654Y-65165024D01*
X114127866Y-65147781D01*
X114116830Y-65129368D01*
X114107651Y-65109962D01*
X114100419Y-65089750D01*
X114095203Y-65068926D01*
X114092053Y-65047691D01*
X114091000Y-65026250D01*
X114091000Y-64513750D01*
X114092053Y-64492309D01*
X114095203Y-64471074D01*
X114100419Y-64450250D01*
X114107651Y-64430038D01*
X114116830Y-64410632D01*
X114127866Y-64392219D01*
X114140654Y-64374976D01*
X114155070Y-64359070D01*
X114170976Y-64344654D01*
X114188219Y-64331866D01*
X114206632Y-64320830D01*
X114226038Y-64311651D01*
X114246250Y-64304419D01*
X114267074Y-64299203D01*
X114288309Y-64296053D01*
X114309750Y-64295000D01*
X114747250Y-64295000D01*
X114768691Y-64296053D01*
X114768691Y-64296053D01*
G37*
D11*
X114528500Y-64770000D03*
D10*
G36*
X137691691Y-48052053D02*
G01*
X137712926Y-48055203D01*
X137733750Y-48060419D01*
X137753962Y-48067651D01*
X137773368Y-48076830D01*
X137791781Y-48087866D01*
X137809024Y-48100654D01*
X137824930Y-48115070D01*
X137839346Y-48130976D01*
X137852134Y-48148219D01*
X137863170Y-48166632D01*
X137872349Y-48186038D01*
X137879581Y-48206250D01*
X137884797Y-48227074D01*
X137887947Y-48248309D01*
X137889000Y-48269750D01*
X137889000Y-48707250D01*
X137887947Y-48728691D01*
X137884797Y-48749926D01*
X137879581Y-48770750D01*
X137872349Y-48790962D01*
X137863170Y-48810368D01*
X137852134Y-48828781D01*
X137839346Y-48846024D01*
X137824930Y-48861930D01*
X137809024Y-48876346D01*
X137791781Y-48889134D01*
X137773368Y-48900170D01*
X137753962Y-48909349D01*
X137733750Y-48916581D01*
X137712926Y-48921797D01*
X137691691Y-48924947D01*
X137670250Y-48926000D01*
X137157750Y-48926000D01*
X137136309Y-48924947D01*
X137115074Y-48921797D01*
X137094250Y-48916581D01*
X137074038Y-48909349D01*
X137054632Y-48900170D01*
X137036219Y-48889134D01*
X137018976Y-48876346D01*
X137003070Y-48861930D01*
X136988654Y-48846024D01*
X136975866Y-48828781D01*
X136964830Y-48810368D01*
X136955651Y-48790962D01*
X136948419Y-48770750D01*
X136943203Y-48749926D01*
X136940053Y-48728691D01*
X136939000Y-48707250D01*
X136939000Y-48269750D01*
X136940053Y-48248309D01*
X136943203Y-48227074D01*
X136948419Y-48206250D01*
X136955651Y-48186038D01*
X136964830Y-48166632D01*
X136975866Y-48148219D01*
X136988654Y-48130976D01*
X137003070Y-48115070D01*
X137018976Y-48100654D01*
X137036219Y-48087866D01*
X137054632Y-48076830D01*
X137074038Y-48067651D01*
X137094250Y-48060419D01*
X137115074Y-48055203D01*
X137136309Y-48052053D01*
X137157750Y-48051000D01*
X137670250Y-48051000D01*
X137691691Y-48052053D01*
X137691691Y-48052053D01*
G37*
D11*
X137414000Y-48488500D03*
D10*
G36*
X137691691Y-49627053D02*
G01*
X137712926Y-49630203D01*
X137733750Y-49635419D01*
X137753962Y-49642651D01*
X137773368Y-49651830D01*
X137791781Y-49662866D01*
X137809024Y-49675654D01*
X137824930Y-49690070D01*
X137839346Y-49705976D01*
X137852134Y-49723219D01*
X137863170Y-49741632D01*
X137872349Y-49761038D01*
X137879581Y-49781250D01*
X137884797Y-49802074D01*
X137887947Y-49823309D01*
X137889000Y-49844750D01*
X137889000Y-50282250D01*
X137887947Y-50303691D01*
X137884797Y-50324926D01*
X137879581Y-50345750D01*
X137872349Y-50365962D01*
X137863170Y-50385368D01*
X137852134Y-50403781D01*
X137839346Y-50421024D01*
X137824930Y-50436930D01*
X137809024Y-50451346D01*
X137791781Y-50464134D01*
X137773368Y-50475170D01*
X137753962Y-50484349D01*
X137733750Y-50491581D01*
X137712926Y-50496797D01*
X137691691Y-50499947D01*
X137670250Y-50501000D01*
X137157750Y-50501000D01*
X137136309Y-50499947D01*
X137115074Y-50496797D01*
X137094250Y-50491581D01*
X137074038Y-50484349D01*
X137054632Y-50475170D01*
X137036219Y-50464134D01*
X137018976Y-50451346D01*
X137003070Y-50436930D01*
X136988654Y-50421024D01*
X136975866Y-50403781D01*
X136964830Y-50385368D01*
X136955651Y-50365962D01*
X136948419Y-50345750D01*
X136943203Y-50324926D01*
X136940053Y-50303691D01*
X136939000Y-50282250D01*
X136939000Y-49844750D01*
X136940053Y-49823309D01*
X136943203Y-49802074D01*
X136948419Y-49781250D01*
X136955651Y-49761038D01*
X136964830Y-49741632D01*
X136975866Y-49723219D01*
X136988654Y-49705976D01*
X137003070Y-49690070D01*
X137018976Y-49675654D01*
X137036219Y-49662866D01*
X137054632Y-49651830D01*
X137074038Y-49642651D01*
X137094250Y-49635419D01*
X137115074Y-49630203D01*
X137136309Y-49627053D01*
X137157750Y-49626000D01*
X137670250Y-49626000D01*
X137691691Y-49627053D01*
X137691691Y-49627053D01*
G37*
D11*
X137414000Y-50063500D03*
D10*
G36*
X116343691Y-61756053D02*
G01*
X116364926Y-61759203D01*
X116385750Y-61764419D01*
X116405962Y-61771651D01*
X116425368Y-61780830D01*
X116443781Y-61791866D01*
X116461024Y-61804654D01*
X116476930Y-61819070D01*
X116491346Y-61834976D01*
X116504134Y-61852219D01*
X116515170Y-61870632D01*
X116524349Y-61890038D01*
X116531581Y-61910250D01*
X116536797Y-61931074D01*
X116539947Y-61952309D01*
X116541000Y-61973750D01*
X116541000Y-62486250D01*
X116539947Y-62507691D01*
X116536797Y-62528926D01*
X116531581Y-62549750D01*
X116524349Y-62569962D01*
X116515170Y-62589368D01*
X116504134Y-62607781D01*
X116491346Y-62625024D01*
X116476930Y-62640930D01*
X116461024Y-62655346D01*
X116443781Y-62668134D01*
X116425368Y-62679170D01*
X116405962Y-62688349D01*
X116385750Y-62695581D01*
X116364926Y-62700797D01*
X116343691Y-62703947D01*
X116322250Y-62705000D01*
X115884750Y-62705000D01*
X115863309Y-62703947D01*
X115842074Y-62700797D01*
X115821250Y-62695581D01*
X115801038Y-62688349D01*
X115781632Y-62679170D01*
X115763219Y-62668134D01*
X115745976Y-62655346D01*
X115730070Y-62640930D01*
X115715654Y-62625024D01*
X115702866Y-62607781D01*
X115691830Y-62589368D01*
X115682651Y-62569962D01*
X115675419Y-62549750D01*
X115670203Y-62528926D01*
X115667053Y-62507691D01*
X115666000Y-62486250D01*
X115666000Y-61973750D01*
X115667053Y-61952309D01*
X115670203Y-61931074D01*
X115675419Y-61910250D01*
X115682651Y-61890038D01*
X115691830Y-61870632D01*
X115702866Y-61852219D01*
X115715654Y-61834976D01*
X115730070Y-61819070D01*
X115745976Y-61804654D01*
X115763219Y-61791866D01*
X115781632Y-61780830D01*
X115801038Y-61771651D01*
X115821250Y-61764419D01*
X115842074Y-61759203D01*
X115863309Y-61756053D01*
X115884750Y-61755000D01*
X116322250Y-61755000D01*
X116343691Y-61756053D01*
X116343691Y-61756053D01*
G37*
D11*
X116103500Y-62230000D03*
D10*
G36*
X114768691Y-61756053D02*
G01*
X114789926Y-61759203D01*
X114810750Y-61764419D01*
X114830962Y-61771651D01*
X114850368Y-61780830D01*
X114868781Y-61791866D01*
X114886024Y-61804654D01*
X114901930Y-61819070D01*
X114916346Y-61834976D01*
X114929134Y-61852219D01*
X114940170Y-61870632D01*
X114949349Y-61890038D01*
X114956581Y-61910250D01*
X114961797Y-61931074D01*
X114964947Y-61952309D01*
X114966000Y-61973750D01*
X114966000Y-62486250D01*
X114964947Y-62507691D01*
X114961797Y-62528926D01*
X114956581Y-62549750D01*
X114949349Y-62569962D01*
X114940170Y-62589368D01*
X114929134Y-62607781D01*
X114916346Y-62625024D01*
X114901930Y-62640930D01*
X114886024Y-62655346D01*
X114868781Y-62668134D01*
X114850368Y-62679170D01*
X114830962Y-62688349D01*
X114810750Y-62695581D01*
X114789926Y-62700797D01*
X114768691Y-62703947D01*
X114747250Y-62705000D01*
X114309750Y-62705000D01*
X114288309Y-62703947D01*
X114267074Y-62700797D01*
X114246250Y-62695581D01*
X114226038Y-62688349D01*
X114206632Y-62679170D01*
X114188219Y-62668134D01*
X114170976Y-62655346D01*
X114155070Y-62640930D01*
X114140654Y-62625024D01*
X114127866Y-62607781D01*
X114116830Y-62589368D01*
X114107651Y-62569962D01*
X114100419Y-62549750D01*
X114095203Y-62528926D01*
X114092053Y-62507691D01*
X114091000Y-62486250D01*
X114091000Y-61973750D01*
X114092053Y-61952309D01*
X114095203Y-61931074D01*
X114100419Y-61910250D01*
X114107651Y-61890038D01*
X114116830Y-61870632D01*
X114127866Y-61852219D01*
X114140654Y-61834976D01*
X114155070Y-61819070D01*
X114170976Y-61804654D01*
X114188219Y-61791866D01*
X114206632Y-61780830D01*
X114226038Y-61771651D01*
X114246250Y-61764419D01*
X114267074Y-61759203D01*
X114288309Y-61756053D01*
X114309750Y-61755000D01*
X114747250Y-61755000D01*
X114768691Y-61756053D01*
X114768691Y-61756053D01*
G37*
D11*
X114528500Y-62230000D03*
D10*
G36*
X115276691Y-48040053D02*
G01*
X115297926Y-48043203D01*
X115318750Y-48048419D01*
X115338962Y-48055651D01*
X115358368Y-48064830D01*
X115376781Y-48075866D01*
X115394024Y-48088654D01*
X115409930Y-48103070D01*
X115424346Y-48118976D01*
X115437134Y-48136219D01*
X115448170Y-48154632D01*
X115457349Y-48174038D01*
X115464581Y-48194250D01*
X115469797Y-48215074D01*
X115472947Y-48236309D01*
X115474000Y-48257750D01*
X115474000Y-48770250D01*
X115472947Y-48791691D01*
X115469797Y-48812926D01*
X115464581Y-48833750D01*
X115457349Y-48853962D01*
X115448170Y-48873368D01*
X115437134Y-48891781D01*
X115424346Y-48909024D01*
X115409930Y-48924930D01*
X115394024Y-48939346D01*
X115376781Y-48952134D01*
X115358368Y-48963170D01*
X115338962Y-48972349D01*
X115318750Y-48979581D01*
X115297926Y-48984797D01*
X115276691Y-48987947D01*
X115255250Y-48989000D01*
X114817750Y-48989000D01*
X114796309Y-48987947D01*
X114775074Y-48984797D01*
X114754250Y-48979581D01*
X114734038Y-48972349D01*
X114714632Y-48963170D01*
X114696219Y-48952134D01*
X114678976Y-48939346D01*
X114663070Y-48924930D01*
X114648654Y-48909024D01*
X114635866Y-48891781D01*
X114624830Y-48873368D01*
X114615651Y-48853962D01*
X114608419Y-48833750D01*
X114603203Y-48812926D01*
X114600053Y-48791691D01*
X114599000Y-48770250D01*
X114599000Y-48257750D01*
X114600053Y-48236309D01*
X114603203Y-48215074D01*
X114608419Y-48194250D01*
X114615651Y-48174038D01*
X114624830Y-48154632D01*
X114635866Y-48136219D01*
X114648654Y-48118976D01*
X114663070Y-48103070D01*
X114678976Y-48088654D01*
X114696219Y-48075866D01*
X114714632Y-48064830D01*
X114734038Y-48055651D01*
X114754250Y-48048419D01*
X114775074Y-48043203D01*
X114796309Y-48040053D01*
X114817750Y-48039000D01*
X115255250Y-48039000D01*
X115276691Y-48040053D01*
X115276691Y-48040053D01*
G37*
D11*
X115036500Y-48514000D03*
D10*
G36*
X116851691Y-48040053D02*
G01*
X116872926Y-48043203D01*
X116893750Y-48048419D01*
X116913962Y-48055651D01*
X116933368Y-48064830D01*
X116951781Y-48075866D01*
X116969024Y-48088654D01*
X116984930Y-48103070D01*
X116999346Y-48118976D01*
X117012134Y-48136219D01*
X117023170Y-48154632D01*
X117032349Y-48174038D01*
X117039581Y-48194250D01*
X117044797Y-48215074D01*
X117047947Y-48236309D01*
X117049000Y-48257750D01*
X117049000Y-48770250D01*
X117047947Y-48791691D01*
X117044797Y-48812926D01*
X117039581Y-48833750D01*
X117032349Y-48853962D01*
X117023170Y-48873368D01*
X117012134Y-48891781D01*
X116999346Y-48909024D01*
X116984930Y-48924930D01*
X116969024Y-48939346D01*
X116951781Y-48952134D01*
X116933368Y-48963170D01*
X116913962Y-48972349D01*
X116893750Y-48979581D01*
X116872926Y-48984797D01*
X116851691Y-48987947D01*
X116830250Y-48989000D01*
X116392750Y-48989000D01*
X116371309Y-48987947D01*
X116350074Y-48984797D01*
X116329250Y-48979581D01*
X116309038Y-48972349D01*
X116289632Y-48963170D01*
X116271219Y-48952134D01*
X116253976Y-48939346D01*
X116238070Y-48924930D01*
X116223654Y-48909024D01*
X116210866Y-48891781D01*
X116199830Y-48873368D01*
X116190651Y-48853962D01*
X116183419Y-48833750D01*
X116178203Y-48812926D01*
X116175053Y-48791691D01*
X116174000Y-48770250D01*
X116174000Y-48257750D01*
X116175053Y-48236309D01*
X116178203Y-48215074D01*
X116183419Y-48194250D01*
X116190651Y-48174038D01*
X116199830Y-48154632D01*
X116210866Y-48136219D01*
X116223654Y-48118976D01*
X116238070Y-48103070D01*
X116253976Y-48088654D01*
X116271219Y-48075866D01*
X116289632Y-48064830D01*
X116309038Y-48055651D01*
X116329250Y-48048419D01*
X116350074Y-48043203D01*
X116371309Y-48040053D01*
X116392750Y-48039000D01*
X116830250Y-48039000D01*
X116851691Y-48040053D01*
X116851691Y-48040053D01*
G37*
D11*
X116611500Y-48514000D03*
D19*
X135001000Y-52672000D03*
X136271000Y-52672000D03*
X137541000Y-52672000D03*
X138811000Y-52672000D03*
X138811000Y-58072000D03*
X137541000Y-58072000D03*
X136271000Y-58072000D03*
X135001000Y-58072000D03*
D20*
X124079000Y-51976000D03*
X125349000Y-51976000D03*
X126619000Y-51976000D03*
X127889000Y-51976000D03*
X127889000Y-59276000D03*
X126619000Y-59276000D03*
X125349000Y-59276000D03*
X124079000Y-59276000D03*
D21*
X120650000Y-47498000D03*
X125222000Y-47498000D03*
X117602000Y-55118000D03*
X114300000Y-55118000D03*
X131318000Y-51054000D03*
X129290653Y-59440653D03*
X128778000Y-67564000D03*
X140208000Y-62738000D03*
X134366000Y-62484000D03*
X139954000Y-58166000D03*
X130302000Y-53848000D03*
X134112000Y-53848000D03*
X143256000Y-50038000D03*
X123190000Y-52578000D03*
X124968000Y-49022000D03*
X135128000Y-54356000D03*
X135890000Y-62484000D03*
X127762000Y-48006000D03*
X125963998Y-57658000D03*
X128778000Y-50292000D03*
X126746000Y-60960000D03*
X123444000Y-63754000D03*
X126746000Y-53594000D03*
X122428000Y-63500000D03*
X125222000Y-53848000D03*
X124206000Y-61722000D03*
X127762000Y-53594000D03*
D22*
X123952000Y-47472500D02*
X121920000Y-47472500D01*
X121920000Y-47472500D02*
X120675500Y-47472500D01*
X120675500Y-47472500D02*
X120650000Y-47498000D01*
X123952000Y-47472500D02*
X125196500Y-47472500D01*
X125196500Y-47472500D02*
X125222000Y-47498000D01*
X115824000Y-55394000D02*
X117326000Y-55394000D01*
X117326000Y-55394000D02*
X117602000Y-55118000D01*
X115824000Y-55394000D02*
X114576000Y-55394000D01*
X114576000Y-55394000D02*
X114300000Y-55118000D01*
X131384000Y-50022000D02*
X131384000Y-50988000D01*
X131384000Y-50988000D02*
X131318000Y-51054000D01*
X127889000Y-59276000D02*
X129126000Y-59276000D01*
X129126000Y-59276000D02*
X129290653Y-59440653D01*
X126238000Y-67081500D02*
X128016000Y-67081500D01*
X128016000Y-67081500D02*
X128295500Y-67081500D01*
X128295500Y-67081500D02*
X128778000Y-67564000D01*
X139192000Y-62509500D02*
X139979500Y-62509500D01*
X139979500Y-62509500D02*
X140208000Y-62738000D01*
X133350000Y-62509500D02*
X134340500Y-62509500D01*
X134340500Y-62509500D02*
X134366000Y-62484000D01*
X131572000Y-62509500D02*
X133350000Y-62509500D01*
X138811000Y-58072000D02*
X139860000Y-58072000D01*
X139860000Y-58072000D02*
X139954000Y-58166000D01*
X113950000Y-54768000D02*
X114300000Y-55118000D01*
X109474000Y-54768000D02*
X113950000Y-54768000D01*
X131343500Y-53848000D02*
X131318000Y-53873500D01*
X133096000Y-53848000D02*
X131343500Y-53848000D01*
X131318000Y-53873500D02*
X130327500Y-53873500D01*
X130327500Y-53873500D02*
X130302000Y-53848000D01*
X133096000Y-53848000D02*
X134112000Y-53848000D01*
X142240000Y-50063500D02*
X143230500Y-50063500D01*
X143230500Y-50063500D02*
X143256000Y-50038000D01*
X131572000Y-60934500D02*
X133350000Y-60934500D01*
X135001000Y-59283500D02*
X135001000Y-58072000D01*
X133350000Y-60934500D02*
X135001000Y-59283500D01*
X140877500Y-56159500D02*
X141452500Y-56159500D01*
X135888500Y-56159500D02*
X140877500Y-56159500D01*
X135001000Y-57047000D02*
X135888500Y-56159500D01*
X135001000Y-58072000D02*
X135001000Y-57047000D01*
X135001000Y-58072000D02*
X136271000Y-58072000D01*
X150125000Y-64832000D02*
X153444000Y-64832000D01*
X141452500Y-56159500D02*
X150125000Y-64832000D01*
X133284000Y-50072000D02*
X133284000Y-50022000D01*
X135001000Y-51789000D02*
X133284000Y-50072000D01*
X135001000Y-52672000D02*
X135001000Y-51789000D01*
X123897000Y-51794000D02*
X124079000Y-51976000D01*
X115104000Y-52514000D02*
X115824000Y-51794000D01*
X121920000Y-49047500D02*
X123952000Y-49047500D01*
X124079000Y-51976000D02*
X123792000Y-51976000D01*
X123792000Y-51976000D02*
X123190000Y-52578000D01*
X123977500Y-49022000D02*
X123952000Y-49047500D01*
X124968000Y-49022000D02*
X123977500Y-49022000D01*
X125533685Y-49022000D02*
X124968000Y-49022000D01*
X132334000Y-49022000D02*
X125533685Y-49022000D01*
X133284000Y-49972000D02*
X132334000Y-49022000D01*
X133284000Y-50022000D02*
X133284000Y-49972000D01*
X135001000Y-52672000D02*
X135001000Y-54229000D01*
X135001000Y-54229000D02*
X135128000Y-54356000D01*
X135890000Y-62484000D02*
X137414000Y-62484000D01*
X135490001Y-62883999D02*
X135890000Y-62484000D01*
X133858000Y-64516000D02*
X135490001Y-62883999D01*
X130327500Y-64516000D02*
X133858000Y-64516000D01*
X128016000Y-62204500D02*
X130327500Y-64516000D01*
X115824000Y-51794000D02*
X123897000Y-51794000D01*
X114850000Y-52768000D02*
X115824000Y-51794000D01*
X109474000Y-52768000D02*
X114850000Y-52768000D01*
X133070500Y-52298500D02*
X133096000Y-52273000D01*
X131318000Y-52298500D02*
X133070500Y-52298500D01*
X133495000Y-52672000D02*
X133096000Y-52273000D01*
X135001000Y-52672000D02*
X133495000Y-52672000D01*
X128016000Y-63779500D02*
X128016000Y-65506500D01*
X126238000Y-63779500D02*
X126238000Y-65506500D01*
X132334000Y-48022000D02*
X127778000Y-48022000D01*
X127778000Y-48022000D02*
X127762000Y-48006000D01*
X125963998Y-58661002D02*
X125349000Y-59276000D01*
X125963998Y-57658000D02*
X125963998Y-58661002D01*
X136947500Y-48022000D02*
X137414000Y-48488500D01*
X132334000Y-48022000D02*
X136947500Y-48022000D01*
X112014000Y-59182000D02*
X114528500Y-59182000D01*
X110490000Y-60706000D02*
X112014000Y-59182000D01*
X114066888Y-62691612D02*
X114528500Y-62230000D01*
X113991000Y-62230000D02*
X114528500Y-62230000D01*
X113642001Y-61881001D02*
X113991000Y-62230000D01*
X109314999Y-61881001D02*
X113642001Y-61881001D01*
X107950000Y-63246000D02*
X109314999Y-61881001D01*
X113004500Y-63246000D02*
X114528500Y-64770000D01*
X110490000Y-63246000D02*
X113004500Y-63246000D01*
X114274500Y-67310000D02*
X114528500Y-67056000D01*
X113258500Y-65786000D02*
X114528500Y-67056000D01*
X110490000Y-65786000D02*
X113258500Y-65786000D01*
X114782500Y-48768000D02*
X115036500Y-48514000D01*
X109474000Y-48768000D02*
X114782500Y-48768000D01*
X137414000Y-58199000D02*
X137541000Y-58072000D01*
X137414000Y-60909000D02*
X137414000Y-58199000D01*
X137439500Y-60934500D02*
X137414000Y-60909000D01*
X139192000Y-60934500D02*
X137439500Y-60934500D01*
X138811000Y-53147000D02*
X138811000Y-52672000D01*
X140248500Y-54584500D02*
X138811000Y-53147000D01*
X141452500Y-54584500D02*
X140248500Y-54584500D01*
X148451500Y-54584500D02*
X153444000Y-49592000D01*
X141452500Y-54584500D02*
X148451500Y-54584500D01*
X124968506Y-50292000D02*
X128778000Y-50292000D01*
X118389500Y-50292000D02*
X124968506Y-50292000D01*
X126746000Y-59403000D02*
X126619000Y-59276000D01*
X126746000Y-60960000D02*
X126746000Y-59403000D01*
X126238000Y-61468000D02*
X126746000Y-60960000D01*
X126238000Y-62204500D02*
X126238000Y-61468000D01*
X116611500Y-48514000D02*
X118389500Y-50292000D01*
X123985000Y-59182000D02*
X124079000Y-59276000D01*
X116103500Y-59182000D02*
X123985000Y-59182000D01*
X120142000Y-67056000D02*
X123444000Y-63754000D01*
X126746000Y-52103000D02*
X126619000Y-51976000D01*
X126746000Y-53594000D02*
X126746000Y-52103000D01*
X116103500Y-67056000D02*
X120142000Y-67056000D01*
X121158000Y-64770000D02*
X122428000Y-63500000D01*
X125222000Y-52103000D02*
X125349000Y-51976000D01*
X125222000Y-53848000D02*
X125222000Y-52103000D01*
X116103500Y-64770000D02*
X121158000Y-64770000D01*
X123698000Y-62230000D02*
X124206000Y-61722000D01*
X127762000Y-52103000D02*
X127889000Y-51976000D01*
X127762000Y-53594000D02*
X127762000Y-52103000D01*
X116103500Y-62230000D02*
X123698000Y-62230000D01*
X136271000Y-51206500D02*
X137414000Y-50063500D01*
X136271000Y-52672000D02*
X136271000Y-51206500D01*
X138989000Y-48488500D02*
X140462000Y-48488500D01*
X137414000Y-50063500D02*
X138989000Y-48488500D01*
X139887000Y-50063500D02*
X140462000Y-50063500D01*
X139124500Y-50063500D02*
X139887000Y-50063500D01*
X137541000Y-51647000D02*
X139124500Y-50063500D01*
X137541000Y-52672000D02*
X137541000Y-51647000D01*
X142037000Y-48488500D02*
X140462000Y-50063500D01*
X142240000Y-48488500D02*
X142037000Y-48488500D01*
M02*
