M48
; DRILL file {KiCad (5.1.0)-1} date 3/23/2019 8:55:27 PM
; FORMAT={-:-/ absolute / inch / decimal}
; #@! TF.CreationDate,2019-03-23T20:55:27-04:00
; #@! TF.GenerationSoftware,Kicad,Pcbnew,(5.1.0)-1
FMAT,2
INCH
T1C0.0157
T2C0.0300
T3C0.0394
T4C0.1063
%
G90
G05
T1
X4.5Y-2.17
X4.63Y-2.17
X4.75Y-1.87
X4.82Y-2.5
X4.85Y-2.07
X4.86Y-2.51
X4.89Y-2.43
X4.92Y-1.93
X4.93Y-1.87
X4.93Y-2.12
X4.9592Y-2.27
X4.99Y-2.11
X4.99Y-2.4
X5.03Y-1.89
X5.03Y-2.11
X5.07Y-1.98
X5.07Y-2.66
X5.0902Y-2.3402
X5.13Y-2.12
X5.17Y-2.01
X5.28Y-2.12
X5.29Y-2.46
X5.32Y-2.14
X5.35Y-2.46
X5.51Y-2.29
X5.52Y-2.47
X5.64Y-1.97
T2
X4.31Y-1.92
X4.31Y-1.9987
X4.31Y-2.0775
X4.31Y-2.1562
T3
X5.7411Y-2.2524
X6.0411Y-1.9524
X6.0411Y-2.5524
X4.25Y-2.39
X4.25Y-2.49
X4.25Y-2.59
X4.35Y-2.39
X4.35Y-2.49
X4.35Y-2.59
T4
X4.0746Y-1.8594
X6.2006Y-2.6468
X4.0746Y-2.6468
X6.2006Y-1.8594
T0
M30
