G04 #@! TF.GenerationSoftware,KiCad,Pcbnew,(5.1.0)-1*
G04 #@! TF.CreationDate,2019-03-23T20:55:25-04:00*
G04 #@! TF.ProjectId,current_sense,63757272-656e-4745-9f73-656e73652e6b,rev?*
G04 #@! TF.SameCoordinates,Original*
G04 #@! TF.FileFunction,Soldermask,Bot*
G04 #@! TF.FilePolarity,Negative*
%FSLAX46Y46*%
G04 Gerber Fmt 4.6, Leading zero omitted, Abs format (unit mm)*
G04 Created by KiCad (PCBNEW (5.1.0)-1) date 2019-03-23 20:55:25*
%MOMM*%
%LPD*%
G04 APERTURE LIST*
%ADD10C,0.100000*%
G04 APERTURE END LIST*
D10*
G36*
X157814433Y-65862894D02*
G01*
X157904657Y-65880840D01*
X158010267Y-65924586D01*
X158159621Y-65986450D01*
X158159622Y-65986451D01*
X158389086Y-66139773D01*
X158584228Y-66334915D01*
X158645212Y-66426185D01*
X158737551Y-66564380D01*
X158843161Y-66819345D01*
X158897000Y-67090013D01*
X158897000Y-67365989D01*
X158843161Y-67636657D01*
X158737551Y-67891622D01*
X158737550Y-67891623D01*
X158584228Y-68121087D01*
X158389086Y-68316229D01*
X158235763Y-68418676D01*
X158159621Y-68469552D01*
X158010267Y-68531416D01*
X157904657Y-68575162D01*
X157814433Y-68593108D01*
X157633988Y-68629001D01*
X157358012Y-68629001D01*
X157177567Y-68593108D01*
X157087343Y-68575162D01*
X156981733Y-68531416D01*
X156832379Y-68469552D01*
X156756237Y-68418676D01*
X156602914Y-68316229D01*
X156407772Y-68121087D01*
X156254450Y-67891623D01*
X156254449Y-67891622D01*
X156148839Y-67636657D01*
X156095000Y-67365989D01*
X156095000Y-67090013D01*
X156148839Y-66819345D01*
X156254449Y-66564380D01*
X156346788Y-66426185D01*
X156407772Y-66334915D01*
X156602914Y-66139773D01*
X156832378Y-65986451D01*
X156832379Y-65986450D01*
X156981733Y-65924586D01*
X157087343Y-65880840D01*
X157177567Y-65862894D01*
X157358012Y-65827001D01*
X157633988Y-65827001D01*
X157814433Y-65862894D01*
X157814433Y-65862894D01*
G37*
G36*
X103814432Y-65862894D02*
G01*
X103904656Y-65880840D01*
X104010266Y-65924586D01*
X104159620Y-65986450D01*
X104159621Y-65986451D01*
X104389085Y-66139773D01*
X104584227Y-66334915D01*
X104645211Y-66426185D01*
X104737550Y-66564380D01*
X104843160Y-66819345D01*
X104896999Y-67090013D01*
X104896999Y-67365989D01*
X104843160Y-67636657D01*
X104737550Y-67891622D01*
X104737549Y-67891623D01*
X104584227Y-68121087D01*
X104389085Y-68316229D01*
X104235762Y-68418676D01*
X104159620Y-68469552D01*
X104010266Y-68531416D01*
X103904656Y-68575162D01*
X103814432Y-68593108D01*
X103633987Y-68629001D01*
X103358011Y-68629001D01*
X103177566Y-68593108D01*
X103087342Y-68575162D01*
X102981732Y-68531416D01*
X102832378Y-68469552D01*
X102756236Y-68418676D01*
X102602913Y-68316229D01*
X102407771Y-68121087D01*
X102254449Y-67891623D01*
X102254448Y-67891622D01*
X102148838Y-67636657D01*
X102094999Y-67365989D01*
X102094999Y-67090013D01*
X102148838Y-66819345D01*
X102254448Y-66564380D01*
X102346787Y-66426185D01*
X102407771Y-66334915D01*
X102602913Y-66139773D01*
X102832377Y-65986451D01*
X102832378Y-65986450D01*
X102981732Y-65924586D01*
X103087342Y-65880840D01*
X103177566Y-65862894D01*
X103358011Y-65827001D01*
X103633987Y-65827001D01*
X103814432Y-65862894D01*
X103814432Y-65862894D01*
G37*
G36*
X111391000Y-66687000D02*
G01*
X109589000Y-66687000D01*
X109589000Y-64885000D01*
X111391000Y-64885000D01*
X111391000Y-66687000D01*
X111391000Y-66687000D01*
G37*
G36*
X108060442Y-64891518D02*
G01*
X108126627Y-64898037D01*
X108296466Y-64949557D01*
X108452991Y-65033222D01*
X108488729Y-65062552D01*
X108590186Y-65145814D01*
X108644082Y-65211488D01*
X108702778Y-65283009D01*
X108786443Y-65439534D01*
X108837963Y-65609373D01*
X108855359Y-65786000D01*
X108837963Y-65962627D01*
X108786443Y-66132466D01*
X108702778Y-66288991D01*
X108673448Y-66324729D01*
X108590186Y-66426186D01*
X108488729Y-66509448D01*
X108452991Y-66538778D01*
X108296466Y-66622443D01*
X108126627Y-66673963D01*
X108060442Y-66680482D01*
X107994260Y-66687000D01*
X107905740Y-66687000D01*
X107839558Y-66680482D01*
X107773373Y-66673963D01*
X107603534Y-66622443D01*
X107447009Y-66538778D01*
X107411271Y-66509448D01*
X107309814Y-66426186D01*
X107226552Y-66324729D01*
X107197222Y-66288991D01*
X107113557Y-66132466D01*
X107062037Y-65962627D01*
X107044641Y-65786000D01*
X107062037Y-65609373D01*
X107113557Y-65439534D01*
X107197222Y-65283009D01*
X107255918Y-65211488D01*
X107309814Y-65145814D01*
X107411271Y-65062552D01*
X107447009Y-65033222D01*
X107603534Y-64949557D01*
X107773373Y-64898037D01*
X107839558Y-64891518D01*
X107905740Y-64885000D01*
X107994260Y-64885000D01*
X108060442Y-64891518D01*
X108060442Y-64891518D01*
G37*
G36*
X153823487Y-63580996D02*
G01*
X154060253Y-63679068D01*
X154060255Y-63679069D01*
X154273339Y-63821447D01*
X154454553Y-64002661D01*
X154507862Y-64082443D01*
X154596932Y-64215747D01*
X154695004Y-64452513D01*
X154745000Y-64703861D01*
X154745000Y-64960139D01*
X154695004Y-65211487D01*
X154596932Y-65448253D01*
X154596931Y-65448255D01*
X154454553Y-65661339D01*
X154273339Y-65842553D01*
X154060255Y-65984931D01*
X154060254Y-65984932D01*
X154060253Y-65984932D01*
X153823487Y-66083004D01*
X153572139Y-66133000D01*
X153315861Y-66133000D01*
X153064513Y-66083004D01*
X152827747Y-65984932D01*
X152827746Y-65984932D01*
X152827745Y-65984931D01*
X152614661Y-65842553D01*
X152433447Y-65661339D01*
X152291069Y-65448255D01*
X152291068Y-65448253D01*
X152192996Y-65211487D01*
X152143000Y-64960139D01*
X152143000Y-64703861D01*
X152192996Y-64452513D01*
X152291068Y-64215747D01*
X152380139Y-64082443D01*
X152433447Y-64002661D01*
X152614661Y-63821447D01*
X152827745Y-63679069D01*
X152827747Y-63679068D01*
X153064513Y-63580996D01*
X153315861Y-63531000D01*
X153572139Y-63531000D01*
X153823487Y-63580996D01*
X153823487Y-63580996D01*
G37*
G36*
X110600443Y-62351519D02*
G01*
X110666627Y-62358037D01*
X110836466Y-62409557D01*
X110992991Y-62493222D01*
X111028729Y-62522552D01*
X111130186Y-62605814D01*
X111213448Y-62707271D01*
X111242778Y-62743009D01*
X111326443Y-62899534D01*
X111377963Y-63069373D01*
X111395359Y-63246000D01*
X111377963Y-63422627D01*
X111326443Y-63592466D01*
X111242778Y-63748991D01*
X111213448Y-63784729D01*
X111130186Y-63886186D01*
X111028729Y-63969448D01*
X110992991Y-63998778D01*
X110836466Y-64082443D01*
X110666627Y-64133963D01*
X110600443Y-64140481D01*
X110534260Y-64147000D01*
X110445740Y-64147000D01*
X110379557Y-64140481D01*
X110313373Y-64133963D01*
X110143534Y-64082443D01*
X109987009Y-63998778D01*
X109951271Y-63969448D01*
X109849814Y-63886186D01*
X109766552Y-63784729D01*
X109737222Y-63748991D01*
X109653557Y-63592466D01*
X109602037Y-63422627D01*
X109584641Y-63246000D01*
X109602037Y-63069373D01*
X109653557Y-62899534D01*
X109737222Y-62743009D01*
X109766552Y-62707271D01*
X109849814Y-62605814D01*
X109951271Y-62522552D01*
X109987009Y-62493222D01*
X110143534Y-62409557D01*
X110313373Y-62358037D01*
X110379557Y-62351519D01*
X110445740Y-62345000D01*
X110534260Y-62345000D01*
X110600443Y-62351519D01*
X110600443Y-62351519D01*
G37*
G36*
X108060443Y-62351519D02*
G01*
X108126627Y-62358037D01*
X108296466Y-62409557D01*
X108452991Y-62493222D01*
X108488729Y-62522552D01*
X108590186Y-62605814D01*
X108673448Y-62707271D01*
X108702778Y-62743009D01*
X108786443Y-62899534D01*
X108837963Y-63069373D01*
X108855359Y-63246000D01*
X108837963Y-63422627D01*
X108786443Y-63592466D01*
X108702778Y-63748991D01*
X108673448Y-63784729D01*
X108590186Y-63886186D01*
X108488729Y-63969448D01*
X108452991Y-63998778D01*
X108296466Y-64082443D01*
X108126627Y-64133963D01*
X108060443Y-64140481D01*
X107994260Y-64147000D01*
X107905740Y-64147000D01*
X107839557Y-64140481D01*
X107773373Y-64133963D01*
X107603534Y-64082443D01*
X107447009Y-63998778D01*
X107411271Y-63969448D01*
X107309814Y-63886186D01*
X107226552Y-63784729D01*
X107197222Y-63748991D01*
X107113557Y-63592466D01*
X107062037Y-63422627D01*
X107044641Y-63246000D01*
X107062037Y-63069373D01*
X107113557Y-62899534D01*
X107197222Y-62743009D01*
X107226552Y-62707271D01*
X107309814Y-62605814D01*
X107411271Y-62522552D01*
X107447009Y-62493222D01*
X107603534Y-62409557D01*
X107773373Y-62358037D01*
X107839557Y-62351519D01*
X107905740Y-62345000D01*
X107994260Y-62345000D01*
X108060443Y-62351519D01*
X108060443Y-62351519D01*
G37*
G36*
X108060443Y-59811519D02*
G01*
X108126627Y-59818037D01*
X108296466Y-59869557D01*
X108452991Y-59953222D01*
X108488729Y-59982552D01*
X108590186Y-60065814D01*
X108673448Y-60167271D01*
X108702778Y-60203009D01*
X108786443Y-60359534D01*
X108837963Y-60529373D01*
X108855359Y-60706000D01*
X108837963Y-60882627D01*
X108786443Y-61052466D01*
X108702778Y-61208991D01*
X108673448Y-61244729D01*
X108590186Y-61346186D01*
X108488729Y-61429448D01*
X108452991Y-61458778D01*
X108296466Y-61542443D01*
X108126627Y-61593963D01*
X108060442Y-61600482D01*
X107994260Y-61607000D01*
X107905740Y-61607000D01*
X107839558Y-61600482D01*
X107773373Y-61593963D01*
X107603534Y-61542443D01*
X107447009Y-61458778D01*
X107411271Y-61429448D01*
X107309814Y-61346186D01*
X107226552Y-61244729D01*
X107197222Y-61208991D01*
X107113557Y-61052466D01*
X107062037Y-60882627D01*
X107044641Y-60706000D01*
X107062037Y-60529373D01*
X107113557Y-60359534D01*
X107197222Y-60203009D01*
X107226552Y-60167271D01*
X107309814Y-60065814D01*
X107411271Y-59982552D01*
X107447009Y-59953222D01*
X107603534Y-59869557D01*
X107773373Y-59818037D01*
X107839557Y-59811519D01*
X107905740Y-59805000D01*
X107994260Y-59805000D01*
X108060443Y-59811519D01*
X108060443Y-59811519D01*
G37*
G36*
X110600443Y-59811519D02*
G01*
X110666627Y-59818037D01*
X110836466Y-59869557D01*
X110992991Y-59953222D01*
X111028729Y-59982552D01*
X111130186Y-60065814D01*
X111213448Y-60167271D01*
X111242778Y-60203009D01*
X111326443Y-60359534D01*
X111377963Y-60529373D01*
X111395359Y-60706000D01*
X111377963Y-60882627D01*
X111326443Y-61052466D01*
X111242778Y-61208991D01*
X111213448Y-61244729D01*
X111130186Y-61346186D01*
X111028729Y-61429448D01*
X110992991Y-61458778D01*
X110836466Y-61542443D01*
X110666627Y-61593963D01*
X110600442Y-61600482D01*
X110534260Y-61607000D01*
X110445740Y-61607000D01*
X110379558Y-61600482D01*
X110313373Y-61593963D01*
X110143534Y-61542443D01*
X109987009Y-61458778D01*
X109951271Y-61429448D01*
X109849814Y-61346186D01*
X109766552Y-61244729D01*
X109737222Y-61208991D01*
X109653557Y-61052466D01*
X109602037Y-60882627D01*
X109584641Y-60706000D01*
X109602037Y-60529373D01*
X109653557Y-60359534D01*
X109737222Y-60203009D01*
X109766552Y-60167271D01*
X109849814Y-60065814D01*
X109951271Y-59982552D01*
X109987009Y-59953222D01*
X110143534Y-59869557D01*
X110313373Y-59818037D01*
X110379557Y-59811519D01*
X110445740Y-59805000D01*
X110534260Y-59805000D01*
X110600443Y-59811519D01*
X110600443Y-59811519D01*
G37*
G36*
X146203487Y-55960996D02*
G01*
X146440253Y-56059068D01*
X146440255Y-56059069D01*
X146653339Y-56201447D01*
X146834553Y-56382661D01*
X146976932Y-56595747D01*
X147075004Y-56832513D01*
X147125000Y-57083861D01*
X147125000Y-57340139D01*
X147075004Y-57591487D01*
X146976932Y-57828253D01*
X146976931Y-57828255D01*
X146834553Y-58041339D01*
X146653339Y-58222553D01*
X146440255Y-58364931D01*
X146440254Y-58364932D01*
X146440253Y-58364932D01*
X146203487Y-58463004D01*
X145952139Y-58513000D01*
X145695861Y-58513000D01*
X145444513Y-58463004D01*
X145207747Y-58364932D01*
X145207746Y-58364932D01*
X145207745Y-58364931D01*
X144994661Y-58222553D01*
X144813447Y-58041339D01*
X144671069Y-57828255D01*
X144671068Y-57828253D01*
X144572996Y-57591487D01*
X144523000Y-57340139D01*
X144523000Y-57083861D01*
X144572996Y-56832513D01*
X144671068Y-56595747D01*
X144813447Y-56382661D01*
X144994661Y-56201447D01*
X145207745Y-56059069D01*
X145207747Y-56059068D01*
X145444513Y-55960996D01*
X145695861Y-55911000D01*
X145952139Y-55911000D01*
X146203487Y-55960996D01*
X146203487Y-55960996D01*
G37*
G36*
X109711142Y-53986242D02*
G01*
X109859101Y-54047529D01*
X109992255Y-54136499D01*
X110105501Y-54249745D01*
X110194471Y-54382899D01*
X110255758Y-54530858D01*
X110287000Y-54687925D01*
X110287000Y-54848075D01*
X110255758Y-55005142D01*
X110194471Y-55153101D01*
X110105501Y-55286255D01*
X109992255Y-55399501D01*
X109859101Y-55488471D01*
X109711142Y-55549758D01*
X109554075Y-55581000D01*
X109393925Y-55581000D01*
X109236858Y-55549758D01*
X109088899Y-55488471D01*
X108955745Y-55399501D01*
X108842499Y-55286255D01*
X108753529Y-55153101D01*
X108692242Y-55005142D01*
X108661000Y-54848075D01*
X108661000Y-54687925D01*
X108692242Y-54530858D01*
X108753529Y-54382899D01*
X108842499Y-54249745D01*
X108955745Y-54136499D01*
X109088899Y-54047529D01*
X109236858Y-53986242D01*
X109393925Y-53955000D01*
X109554075Y-53955000D01*
X109711142Y-53986242D01*
X109711142Y-53986242D01*
G37*
G36*
X109711142Y-51986242D02*
G01*
X109859101Y-52047529D01*
X109992255Y-52136499D01*
X110105501Y-52249745D01*
X110194471Y-52382899D01*
X110255758Y-52530858D01*
X110287000Y-52687925D01*
X110287000Y-52848075D01*
X110255758Y-53005142D01*
X110194471Y-53153101D01*
X110105501Y-53286255D01*
X109992255Y-53399501D01*
X109859101Y-53488471D01*
X109711142Y-53549758D01*
X109554075Y-53581000D01*
X109393925Y-53581000D01*
X109236858Y-53549758D01*
X109088899Y-53488471D01*
X108955745Y-53399501D01*
X108842499Y-53286255D01*
X108753529Y-53153101D01*
X108692242Y-53005142D01*
X108661000Y-52848075D01*
X108661000Y-52687925D01*
X108692242Y-52530858D01*
X108753529Y-52382899D01*
X108842499Y-52249745D01*
X108955745Y-52136499D01*
X109088899Y-52047529D01*
X109236858Y-51986242D01*
X109393925Y-51955000D01*
X109554075Y-51955000D01*
X109711142Y-51986242D01*
X109711142Y-51986242D01*
G37*
G36*
X109711142Y-49986242D02*
G01*
X109859101Y-50047529D01*
X109992255Y-50136499D01*
X110105501Y-50249745D01*
X110194471Y-50382899D01*
X110255758Y-50530858D01*
X110287000Y-50687925D01*
X110287000Y-50848075D01*
X110255758Y-51005142D01*
X110194471Y-51153101D01*
X110105501Y-51286255D01*
X109992255Y-51399501D01*
X109859101Y-51488471D01*
X109711142Y-51549758D01*
X109554075Y-51581000D01*
X109393925Y-51581000D01*
X109236858Y-51549758D01*
X109088899Y-51488471D01*
X108955745Y-51399501D01*
X108842499Y-51286255D01*
X108753529Y-51153101D01*
X108692242Y-51005142D01*
X108661000Y-50848075D01*
X108661000Y-50687925D01*
X108692242Y-50530858D01*
X108753529Y-50382899D01*
X108842499Y-50249745D01*
X108955745Y-50136499D01*
X109088899Y-50047529D01*
X109236858Y-49986242D01*
X109393925Y-49955000D01*
X109554075Y-49955000D01*
X109711142Y-49986242D01*
X109711142Y-49986242D01*
G37*
G36*
X153823487Y-48340996D02*
G01*
X154060253Y-48439068D01*
X154060255Y-48439069D01*
X154105876Y-48469552D01*
X154273339Y-48581447D01*
X154454553Y-48762661D01*
X154596932Y-48975747D01*
X154695004Y-49212513D01*
X154745000Y-49463861D01*
X154745000Y-49720139D01*
X154695004Y-49971487D01*
X154596932Y-50208253D01*
X154596931Y-50208255D01*
X154454553Y-50421339D01*
X154273339Y-50602553D01*
X154060255Y-50744931D01*
X154060254Y-50744932D01*
X154060253Y-50744932D01*
X153823487Y-50843004D01*
X153572139Y-50893000D01*
X153315861Y-50893000D01*
X153064513Y-50843004D01*
X152827747Y-50744932D01*
X152827746Y-50744932D01*
X152827745Y-50744931D01*
X152614661Y-50602553D01*
X152433447Y-50421339D01*
X152291069Y-50208255D01*
X152291068Y-50208253D01*
X152192996Y-49971487D01*
X152143000Y-49720139D01*
X152143000Y-49463861D01*
X152192996Y-49212513D01*
X152291068Y-48975747D01*
X152433447Y-48762661D01*
X152614661Y-48581447D01*
X152782124Y-48469552D01*
X152827745Y-48439069D01*
X152827747Y-48439068D01*
X153064513Y-48340996D01*
X153315861Y-48291000D01*
X153572139Y-48291000D01*
X153823487Y-48340996D01*
X153823487Y-48340996D01*
G37*
G36*
X110287000Y-49581000D02*
G01*
X108661000Y-49581000D01*
X108661000Y-47955000D01*
X110287000Y-47955000D01*
X110287000Y-49581000D01*
X110287000Y-49581000D01*
G37*
G36*
X103814432Y-45862894D02*
G01*
X103904656Y-45880840D01*
X104010266Y-45924586D01*
X104159620Y-45986450D01*
X104159621Y-45986451D01*
X104389085Y-46139773D01*
X104584227Y-46334915D01*
X104686674Y-46488238D01*
X104737550Y-46564380D01*
X104843160Y-46819345D01*
X104896999Y-47090013D01*
X104896999Y-47365989D01*
X104843160Y-47636657D01*
X104737550Y-47891622D01*
X104737549Y-47891623D01*
X104584227Y-48121087D01*
X104389085Y-48316229D01*
X104235762Y-48418676D01*
X104159620Y-48469552D01*
X104010266Y-48531416D01*
X103904656Y-48575162D01*
X103814432Y-48593108D01*
X103633987Y-48629001D01*
X103358011Y-48629001D01*
X103177566Y-48593108D01*
X103087342Y-48575162D01*
X102981732Y-48531416D01*
X102832378Y-48469552D01*
X102756236Y-48418676D01*
X102602913Y-48316229D01*
X102407771Y-48121087D01*
X102254449Y-47891623D01*
X102254448Y-47891622D01*
X102148838Y-47636657D01*
X102094999Y-47365989D01*
X102094999Y-47090013D01*
X102148838Y-46819345D01*
X102254448Y-46564380D01*
X102305324Y-46488238D01*
X102407771Y-46334915D01*
X102602913Y-46139773D01*
X102832377Y-45986451D01*
X102832378Y-45986450D01*
X102981732Y-45924586D01*
X103087342Y-45880840D01*
X103177566Y-45862894D01*
X103358011Y-45827001D01*
X103633987Y-45827001D01*
X103814432Y-45862894D01*
X103814432Y-45862894D01*
G37*
G36*
X157814433Y-45862894D02*
G01*
X157904657Y-45880840D01*
X158010267Y-45924586D01*
X158159621Y-45986450D01*
X158159622Y-45986451D01*
X158389086Y-46139773D01*
X158584228Y-46334915D01*
X158686675Y-46488238D01*
X158737551Y-46564380D01*
X158843161Y-46819345D01*
X158897000Y-47090013D01*
X158897000Y-47365989D01*
X158843161Y-47636657D01*
X158737551Y-47891622D01*
X158737550Y-47891623D01*
X158584228Y-48121087D01*
X158389086Y-48316229D01*
X158235763Y-48418676D01*
X158159621Y-48469552D01*
X158010267Y-48531416D01*
X157904657Y-48575162D01*
X157814433Y-48593108D01*
X157633988Y-48629001D01*
X157358012Y-48629001D01*
X157177567Y-48593108D01*
X157087343Y-48575162D01*
X156981733Y-48531416D01*
X156832379Y-48469552D01*
X156756237Y-48418676D01*
X156602914Y-48316229D01*
X156407772Y-48121087D01*
X156254450Y-47891623D01*
X156254449Y-47891622D01*
X156148839Y-47636657D01*
X156095000Y-47365989D01*
X156095000Y-47090013D01*
X156148839Y-46819345D01*
X156254449Y-46564380D01*
X156305325Y-46488238D01*
X156407772Y-46334915D01*
X156602914Y-46139773D01*
X156832378Y-45986451D01*
X156832379Y-45986450D01*
X156981733Y-45924586D01*
X157087343Y-45880840D01*
X157177567Y-45862894D01*
X157358012Y-45827001D01*
X157633988Y-45827001D01*
X157814433Y-45862894D01*
X157814433Y-45862894D01*
G37*
M02*
