G04 #@! TF.GenerationSoftware,KiCad,Pcbnew,(5.1.0)-1*
G04 #@! TF.CreationDate,2019-03-23T20:55:25-04:00*
G04 #@! TF.ProjectId,current_sense,63757272-656e-4745-9f73-656e73652e6b,rev?*
G04 #@! TF.SameCoordinates,Original*
G04 #@! TF.FileFunction,Legend,Top*
G04 #@! TF.FilePolarity,Positive*
%FSLAX46Y46*%
G04 Gerber Fmt 4.6, Leading zero omitted, Abs format (unit mm)*
G04 Created by KiCad (PCBNEW (5.1.0)-1) date 2019-03-23 20:55:25*
%MOMM*%
%LPD*%
G04 APERTURE LIST*
%ADD10C,0.200000*%
%ADD11C,0.120000*%
%ADD12C,0.150000*%
G04 APERTURE END LIST*
D10*
X156798619Y-58119047D02*
X156274809Y-58485714D01*
X156798619Y-58747619D02*
X155698619Y-58747619D01*
X155698619Y-58328571D01*
X155751000Y-58223809D01*
X155803380Y-58171428D01*
X155908142Y-58119047D01*
X156065285Y-58119047D01*
X156170047Y-58171428D01*
X156222428Y-58223809D01*
X156274809Y-58328571D01*
X156274809Y-58747619D01*
X156484333Y-57700000D02*
X156484333Y-57176190D01*
X156798619Y-57804761D02*
X155698619Y-57438095D01*
X156798619Y-57071428D01*
X155698619Y-56861904D02*
X155698619Y-56233333D01*
X156798619Y-56547619D02*
X155698619Y-56547619D01*
X155698619Y-56023809D02*
X155698619Y-55395238D01*
X156798619Y-55709523D02*
X155698619Y-55709523D01*
X158543857Y-63016666D02*
X158596238Y-63069047D01*
X158648619Y-63226190D01*
X158648619Y-63330952D01*
X158596238Y-63488095D01*
X158491476Y-63592857D01*
X158386714Y-63645238D01*
X158177190Y-63697619D01*
X158020047Y-63697619D01*
X157810523Y-63645238D01*
X157705761Y-63592857D01*
X157601000Y-63488095D01*
X157548619Y-63330952D01*
X157548619Y-63226190D01*
X157601000Y-63069047D01*
X157653380Y-63016666D01*
X157548619Y-62545238D02*
X158439095Y-62545238D01*
X158543857Y-62492857D01*
X158596238Y-62440476D01*
X158648619Y-62335714D01*
X158648619Y-62126190D01*
X158596238Y-62021428D01*
X158543857Y-61969047D01*
X158439095Y-61916666D01*
X157548619Y-61916666D01*
X158648619Y-60764285D02*
X158124809Y-61130952D01*
X158648619Y-61392857D02*
X157548619Y-61392857D01*
X157548619Y-60973809D01*
X157601000Y-60869047D01*
X157653380Y-60816666D01*
X157758142Y-60764285D01*
X157915285Y-60764285D01*
X158020047Y-60816666D01*
X158072428Y-60869047D01*
X158124809Y-60973809D01*
X158124809Y-61392857D01*
X158648619Y-59664285D02*
X158124809Y-60030952D01*
X158648619Y-60292857D02*
X157548619Y-60292857D01*
X157548619Y-59873809D01*
X157601000Y-59769047D01*
X157653380Y-59716666D01*
X157758142Y-59664285D01*
X157915285Y-59664285D01*
X158020047Y-59716666D01*
X158072428Y-59769047D01*
X158124809Y-59873809D01*
X158124809Y-60292857D01*
X158072428Y-59192857D02*
X158072428Y-58826190D01*
X158648619Y-58669047D02*
X158648619Y-59192857D01*
X157548619Y-59192857D01*
X157548619Y-58669047D01*
X158648619Y-58197619D02*
X157548619Y-58197619D01*
X158648619Y-57569047D01*
X157548619Y-57569047D01*
X157548619Y-57202380D02*
X157548619Y-56573809D01*
X158648619Y-56888095D02*
X157548619Y-56888095D01*
X158596238Y-55421428D02*
X158648619Y-55264285D01*
X158648619Y-55002380D01*
X158596238Y-54897619D01*
X158543857Y-54845238D01*
X158439095Y-54792857D01*
X158334333Y-54792857D01*
X158229571Y-54845238D01*
X158177190Y-54897619D01*
X158124809Y-55002380D01*
X158072428Y-55211904D01*
X158020047Y-55316666D01*
X157967666Y-55369047D01*
X157862904Y-55421428D01*
X157758142Y-55421428D01*
X157653380Y-55369047D01*
X157601000Y-55316666D01*
X157548619Y-55211904D01*
X157548619Y-54950000D01*
X157601000Y-54792857D01*
X158072428Y-54321428D02*
X158072428Y-53954761D01*
X158648619Y-53797619D02*
X158648619Y-54321428D01*
X157548619Y-54321428D01*
X157548619Y-53797619D01*
X158648619Y-53326190D02*
X157548619Y-53326190D01*
X158648619Y-52697619D01*
X157548619Y-52697619D01*
X158596238Y-52226190D02*
X158648619Y-52069047D01*
X158648619Y-51807142D01*
X158596238Y-51702380D01*
X158543857Y-51650000D01*
X158439095Y-51597619D01*
X158334333Y-51597619D01*
X158229571Y-51650000D01*
X158177190Y-51702380D01*
X158124809Y-51807142D01*
X158072428Y-52016666D01*
X158020047Y-52121428D01*
X157967666Y-52173809D01*
X157862904Y-52226190D01*
X157758142Y-52226190D01*
X157653380Y-52173809D01*
X157601000Y-52121428D01*
X157548619Y-52016666D01*
X157548619Y-51754761D01*
X157601000Y-51597619D01*
X158072428Y-51126190D02*
X158072428Y-50759523D01*
X158648619Y-50602380D02*
X158648619Y-51126190D01*
X157548619Y-51126190D01*
X157548619Y-50602380D01*
D11*
X140972000Y-49438779D02*
X140972000Y-49113221D01*
X139952000Y-49438779D02*
X139952000Y-49113221D01*
X142750000Y-49438779D02*
X142750000Y-49113221D01*
X141730000Y-49438779D02*
X141730000Y-49113221D01*
X130808000Y-52923221D02*
X130808000Y-53248779D01*
X131828000Y-52923221D02*
X131828000Y-53248779D01*
X132586000Y-52897721D02*
X132586000Y-53223279D01*
X133606000Y-52897721D02*
X133606000Y-53223279D01*
D12*
X144074000Y-45312000D02*
X144074000Y-69112000D01*
X155194000Y-45312000D02*
X155194000Y-69112000D01*
X155194000Y-69112000D02*
X144074000Y-69112000D01*
X155194000Y-45312000D02*
X144074000Y-45312000D01*
D11*
X131062000Y-61559221D02*
X131062000Y-61884779D01*
X132082000Y-61559221D02*
X132082000Y-61884779D01*
X132840000Y-61559221D02*
X132840000Y-61884779D01*
X133860000Y-61559221D02*
X133860000Y-61884779D01*
X117634000Y-50844000D02*
X117134000Y-50844000D01*
X117384000Y-50594000D02*
X117384000Y-51094000D01*
X114628437Y-51334000D02*
X113564000Y-52398437D01*
X117019563Y-51334000D02*
X118084000Y-52398437D01*
X117019563Y-51334000D02*
X116884000Y-51334000D01*
X114628437Y-51334000D02*
X114764000Y-51334000D01*
X113564000Y-52398437D02*
X113564000Y-55854000D01*
X118084000Y-52398437D02*
X118084000Y-55854000D01*
X118084000Y-55854000D02*
X116884000Y-55854000D01*
X113564000Y-55854000D02*
X114764000Y-55854000D01*
X124462000Y-48422779D02*
X124462000Y-48097221D01*
X123442000Y-48422779D02*
X123442000Y-48097221D01*
X122430000Y-48422779D02*
X122430000Y-48097221D01*
X121410000Y-48422779D02*
X121410000Y-48097221D01*
X128751000Y-67779000D02*
X128751000Y-65494000D01*
X127281000Y-67779000D02*
X128751000Y-67779000D01*
X127281000Y-65494000D02*
X127281000Y-67779000D01*
X126973000Y-67779000D02*
X126973000Y-65494000D01*
X125503000Y-67779000D02*
X126973000Y-67779000D01*
X125503000Y-65494000D02*
X125503000Y-67779000D01*
X133914000Y-48262000D02*
X133914000Y-49722000D01*
X130754000Y-48262000D02*
X130754000Y-50422000D01*
X130754000Y-48262000D02*
X131684000Y-48262000D01*
X133914000Y-48262000D02*
X132984000Y-48262000D01*
X111820000Y-67116000D02*
X110490000Y-67116000D01*
X111820000Y-65786000D02*
X111820000Y-67116000D01*
X109220000Y-67116000D02*
X106620000Y-67116000D01*
X109220000Y-64516000D02*
X109220000Y-67116000D01*
X111820000Y-64516000D02*
X109220000Y-64516000D01*
X106620000Y-67116000D02*
X106620000Y-59376000D01*
X111820000Y-64516000D02*
X111820000Y-59376000D01*
X111820000Y-59376000D02*
X106620000Y-59376000D01*
X106174000Y-54668000D02*
X106174000Y-57318000D01*
X106174000Y-46268000D02*
X106174000Y-48918000D01*
X106174000Y-57318000D02*
X112024000Y-57318000D01*
X106174000Y-50018000D02*
X106174000Y-53518000D01*
X106174000Y-46268000D02*
X112024000Y-46268000D01*
X112024000Y-46268000D02*
X112024000Y-57318000D01*
X106174000Y-49168000D02*
X106174000Y-49768000D01*
X106174000Y-53768000D02*
X106174000Y-54368000D01*
X109474000Y-45768000D02*
X112474000Y-45768000D01*
X112474000Y-45768000D02*
X112474000Y-48768000D01*
X137924000Y-61859279D02*
X137924000Y-61533721D01*
X136904000Y-61859279D02*
X136904000Y-61533721D01*
X138682000Y-61559221D02*
X138682000Y-61884779D01*
X139702000Y-61559221D02*
X139702000Y-61884779D01*
X128526000Y-63154779D02*
X128526000Y-62829221D01*
X127506000Y-63154779D02*
X127506000Y-62829221D01*
X140942500Y-55209221D02*
X140942500Y-55534779D01*
X141962500Y-55209221D02*
X141962500Y-55534779D01*
X126748000Y-63154779D02*
X126748000Y-62829221D01*
X125728000Y-63154779D02*
X125728000Y-62829221D01*
X115478779Y-58672000D02*
X115153221Y-58672000D01*
X115478779Y-59692000D02*
X115153221Y-59692000D01*
X115153221Y-67566000D02*
X115478779Y-67566000D01*
X115153221Y-66546000D02*
X115478779Y-66546000D01*
X115153221Y-65280000D02*
X115478779Y-65280000D01*
X115153221Y-64260000D02*
X115478779Y-64260000D01*
X137924000Y-49438779D02*
X137924000Y-49113221D01*
X136904000Y-49438779D02*
X136904000Y-49113221D01*
X115153221Y-62740000D02*
X115478779Y-62740000D01*
X115153221Y-61720000D02*
X115478779Y-61720000D01*
X115986779Y-48004000D02*
X115661221Y-48004000D01*
X115986779Y-49024000D02*
X115661221Y-49024000D01*
D12*
X134381000Y-57447000D02*
X134381000Y-58847000D01*
X139481000Y-57447000D02*
X139481000Y-53297000D01*
X134331000Y-57447000D02*
X134331000Y-53297000D01*
X139481000Y-57447000D02*
X139336000Y-57447000D01*
X139481000Y-53297000D02*
X139336000Y-53297000D01*
X134331000Y-53297000D02*
X134476000Y-53297000D01*
X134331000Y-57447000D02*
X134381000Y-57447000D01*
X123434000Y-58376000D02*
X123434000Y-60126000D01*
X128739000Y-58376000D02*
X128739000Y-52876000D01*
X123229000Y-58376000D02*
X123229000Y-52876000D01*
X128739000Y-58376000D02*
X128439000Y-58376000D01*
X128739000Y-52876000D02*
X128439000Y-52876000D01*
X123229000Y-52876000D02*
X123529000Y-52876000D01*
X123229000Y-58376000D02*
X123434000Y-58376000D01*
X140914380Y-52966857D02*
X140438190Y-53300190D01*
X140914380Y-53538285D02*
X139914380Y-53538285D01*
X139914380Y-53157333D01*
X139962000Y-53062095D01*
X140009619Y-53014476D01*
X140104857Y-52966857D01*
X140247714Y-52966857D01*
X140342952Y-53014476D01*
X140390571Y-53062095D01*
X140438190Y-53157333D01*
X140438190Y-53538285D01*
X140914380Y-52014476D02*
X140914380Y-52585904D01*
X140914380Y-52300190D02*
X139914380Y-52300190D01*
X140057238Y-52395428D01*
X140152476Y-52490666D01*
X140200095Y-52585904D01*
X139914380Y-51681142D02*
X139914380Y-51062095D01*
X140295333Y-51395428D01*
X140295333Y-51252571D01*
X140342952Y-51157333D01*
X140390571Y-51109714D01*
X140485809Y-51062095D01*
X140723904Y-51062095D01*
X140819142Y-51109714D01*
X140866761Y-51157333D01*
X140914380Y-51252571D01*
X140914380Y-51538285D01*
X140866761Y-51633523D01*
X140819142Y-51681142D01*
X142692380Y-52966857D02*
X142216190Y-53300190D01*
X142692380Y-53538285D02*
X141692380Y-53538285D01*
X141692380Y-53157333D01*
X141740000Y-53062095D01*
X141787619Y-53014476D01*
X141882857Y-52966857D01*
X142025714Y-52966857D01*
X142120952Y-53014476D01*
X142168571Y-53062095D01*
X142216190Y-53157333D01*
X142216190Y-53538285D01*
X142692380Y-52014476D02*
X142692380Y-52585904D01*
X142692380Y-52300190D02*
X141692380Y-52300190D01*
X141835238Y-52395428D01*
X141930476Y-52490666D01*
X141978095Y-52585904D01*
X141787619Y-51633523D02*
X141740000Y-51585904D01*
X141692380Y-51490666D01*
X141692380Y-51252571D01*
X141740000Y-51157333D01*
X141787619Y-51109714D01*
X141882857Y-51062095D01*
X141978095Y-51062095D01*
X142120952Y-51109714D01*
X142692380Y-51681142D01*
X142692380Y-51062095D01*
X131929142Y-55792666D02*
X131976761Y-55840285D01*
X132024380Y-55983142D01*
X132024380Y-56078380D01*
X131976761Y-56221238D01*
X131881523Y-56316476D01*
X131786285Y-56364095D01*
X131595809Y-56411714D01*
X131452952Y-56411714D01*
X131262476Y-56364095D01*
X131167238Y-56316476D01*
X131072000Y-56221238D01*
X131024380Y-56078380D01*
X131024380Y-55983142D01*
X131072000Y-55840285D01*
X131119619Y-55792666D01*
X131024380Y-55459333D02*
X131024380Y-54792666D01*
X132024380Y-55221238D01*
X133453142Y-55792666D02*
X133500761Y-55840285D01*
X133548380Y-55983142D01*
X133548380Y-56078380D01*
X133500761Y-56221238D01*
X133405523Y-56316476D01*
X133310285Y-56364095D01*
X133119809Y-56411714D01*
X132976952Y-56411714D01*
X132786476Y-56364095D01*
X132691238Y-56316476D01*
X132596000Y-56221238D01*
X132548380Y-56078380D01*
X132548380Y-55983142D01*
X132596000Y-55840285D01*
X132643619Y-55792666D01*
X132548380Y-54935523D02*
X132548380Y-55126000D01*
X132596000Y-55221238D01*
X132643619Y-55268857D01*
X132786476Y-55364095D01*
X132976952Y-55411714D01*
X133357904Y-55411714D01*
X133453142Y-55364095D01*
X133500761Y-55316476D01*
X133548380Y-55221238D01*
X133548380Y-55030761D01*
X133500761Y-54935523D01*
X133453142Y-54887904D01*
X133357904Y-54840285D01*
X133119809Y-54840285D01*
X133024571Y-54887904D01*
X132976952Y-54935523D01*
X132929333Y-55030761D01*
X132929333Y-55221238D01*
X132976952Y-55316476D01*
X133024571Y-55364095D01*
X133119809Y-55411714D01*
X142240095Y-67270380D02*
X142811523Y-67270380D01*
X142525809Y-68270380D02*
X142525809Y-67270380D01*
X143668666Y-68270380D02*
X143097238Y-68270380D01*
X143382952Y-68270380D02*
X143382952Y-67270380D01*
X143287714Y-67413238D01*
X143192476Y-67508476D01*
X143097238Y-67556095D01*
X131929142Y-64428666D02*
X131976761Y-64476285D01*
X132024380Y-64619142D01*
X132024380Y-64714380D01*
X131976761Y-64857238D01*
X131881523Y-64952476D01*
X131786285Y-65000095D01*
X131595809Y-65047714D01*
X131452952Y-65047714D01*
X131262476Y-65000095D01*
X131167238Y-64952476D01*
X131072000Y-64857238D01*
X131024380Y-64714380D01*
X131024380Y-64619142D01*
X131072000Y-64476285D01*
X131119619Y-64428666D01*
X132024380Y-63476285D02*
X132024380Y-64047714D01*
X132024380Y-63762000D02*
X131024380Y-63762000D01*
X131167238Y-63857238D01*
X131262476Y-63952476D01*
X131310095Y-64047714D01*
X133707142Y-64428666D02*
X133754761Y-64476285D01*
X133802380Y-64619142D01*
X133802380Y-64714380D01*
X133754761Y-64857238D01*
X133659523Y-64952476D01*
X133564285Y-65000095D01*
X133373809Y-65047714D01*
X133230952Y-65047714D01*
X133040476Y-65000095D01*
X132945238Y-64952476D01*
X132850000Y-64857238D01*
X132802380Y-64714380D01*
X132802380Y-64619142D01*
X132850000Y-64476285D01*
X132897619Y-64428666D01*
X132897619Y-64047714D02*
X132850000Y-64000095D01*
X132802380Y-63904857D01*
X132802380Y-63666761D01*
X132850000Y-63571523D01*
X132897619Y-63523904D01*
X132992857Y-63476285D01*
X133088095Y-63476285D01*
X133230952Y-63523904D01*
X133802380Y-64095333D01*
X133802380Y-63476285D01*
X119213333Y-53697142D02*
X119165714Y-53744761D01*
X119022857Y-53792380D01*
X118927619Y-53792380D01*
X118784761Y-53744761D01*
X118689523Y-53649523D01*
X118641904Y-53554285D01*
X118594285Y-53363809D01*
X118594285Y-53220952D01*
X118641904Y-53030476D01*
X118689523Y-52935238D01*
X118784761Y-52840000D01*
X118927619Y-52792380D01*
X119022857Y-52792380D01*
X119165714Y-52840000D01*
X119213333Y-52887619D01*
X119546666Y-52792380D02*
X120165714Y-52792380D01*
X119832380Y-53173333D01*
X119975238Y-53173333D01*
X120070476Y-53220952D01*
X120118095Y-53268571D01*
X120165714Y-53363809D01*
X120165714Y-53601904D01*
X120118095Y-53697142D01*
X120070476Y-53744761D01*
X119975238Y-53792380D01*
X119689523Y-53792380D01*
X119594285Y-53744761D01*
X119546666Y-53697142D01*
X126071333Y-48617142D02*
X126023714Y-48664761D01*
X125880857Y-48712380D01*
X125785619Y-48712380D01*
X125642761Y-48664761D01*
X125547523Y-48569523D01*
X125499904Y-48474285D01*
X125452285Y-48283809D01*
X125452285Y-48140952D01*
X125499904Y-47950476D01*
X125547523Y-47855238D01*
X125642761Y-47760000D01*
X125785619Y-47712380D01*
X125880857Y-47712380D01*
X126023714Y-47760000D01*
X126071333Y-47807619D01*
X126928476Y-48045714D02*
X126928476Y-48712380D01*
X126690380Y-47664761D02*
X126452285Y-48379047D01*
X127071333Y-48379047D01*
X119721333Y-49379142D02*
X119673714Y-49426761D01*
X119530857Y-49474380D01*
X119435619Y-49474380D01*
X119292761Y-49426761D01*
X119197523Y-49331523D01*
X119149904Y-49236285D01*
X119102285Y-49045809D01*
X119102285Y-48902952D01*
X119149904Y-48712476D01*
X119197523Y-48617238D01*
X119292761Y-48522000D01*
X119435619Y-48474380D01*
X119530857Y-48474380D01*
X119673714Y-48522000D01*
X119721333Y-48569619D01*
X120626095Y-48474380D02*
X120149904Y-48474380D01*
X120102285Y-48950571D01*
X120149904Y-48902952D01*
X120245142Y-48855333D01*
X120483238Y-48855333D01*
X120578476Y-48902952D01*
X120626095Y-48950571D01*
X120673714Y-49045809D01*
X120673714Y-49283904D01*
X120626095Y-49379142D01*
X120578476Y-49426761D01*
X120483238Y-49474380D01*
X120245142Y-49474380D01*
X120149904Y-49426761D01*
X120102285Y-49379142D01*
X129992380Y-67032095D02*
X128992380Y-67032095D01*
X128992380Y-66794000D01*
X129040000Y-66651142D01*
X129135238Y-66555904D01*
X129230476Y-66508285D01*
X129420952Y-66460666D01*
X129563809Y-66460666D01*
X129754285Y-66508285D01*
X129849523Y-66555904D01*
X129944761Y-66651142D01*
X129992380Y-66794000D01*
X129992380Y-67032095D01*
X129992380Y-65508285D02*
X129992380Y-66079714D01*
X129992380Y-65794000D02*
X128992380Y-65794000D01*
X129135238Y-65889238D01*
X129230476Y-65984476D01*
X129278095Y-66079714D01*
X125260380Y-67032095D02*
X124260380Y-67032095D01*
X124260380Y-66794000D01*
X124308000Y-66651142D01*
X124403238Y-66555904D01*
X124498476Y-66508285D01*
X124688952Y-66460666D01*
X124831809Y-66460666D01*
X125022285Y-66508285D01*
X125117523Y-66555904D01*
X125212761Y-66651142D01*
X125260380Y-66794000D01*
X125260380Y-67032095D01*
X124355619Y-66079714D02*
X124308000Y-66032095D01*
X124260380Y-65936857D01*
X124260380Y-65698761D01*
X124308000Y-65603523D01*
X124355619Y-65555904D01*
X124450857Y-65508285D01*
X124546095Y-65508285D01*
X124688952Y-65555904D01*
X125260380Y-66127333D01*
X125260380Y-65508285D01*
X128801904Y-49474380D02*
X128801904Y-48474380D01*
X129040000Y-48474380D01*
X129182857Y-48522000D01*
X129278095Y-48617238D01*
X129325714Y-48712476D01*
X129373333Y-48902952D01*
X129373333Y-49045809D01*
X129325714Y-49236285D01*
X129278095Y-49331523D01*
X129182857Y-49426761D01*
X129040000Y-49474380D01*
X128801904Y-49474380D01*
X129706666Y-48474380D02*
X130325714Y-48474380D01*
X129992380Y-48855333D01*
X130135238Y-48855333D01*
X130230476Y-48902952D01*
X130278095Y-48950571D01*
X130325714Y-49045809D01*
X130325714Y-49283904D01*
X130278095Y-49379142D01*
X130230476Y-49426761D01*
X130135238Y-49474380D01*
X129849523Y-49474380D01*
X129754285Y-49426761D01*
X129706666Y-49379142D01*
X106854666Y-57872380D02*
X106854666Y-58586666D01*
X106807047Y-58729523D01*
X106711809Y-58824761D01*
X106568952Y-58872380D01*
X106473714Y-58872380D01*
X107854666Y-58872380D02*
X107283238Y-58872380D01*
X107568952Y-58872380D02*
X107568952Y-57872380D01*
X107473714Y-58015238D01*
X107378476Y-58110476D01*
X107283238Y-58158095D01*
X112950666Y-49490380D02*
X112950666Y-50204666D01*
X112903047Y-50347523D01*
X112807809Y-50442761D01*
X112664952Y-50490380D01*
X112569714Y-50490380D01*
X113379238Y-49585619D02*
X113426857Y-49538000D01*
X113522095Y-49490380D01*
X113760190Y-49490380D01*
X113855428Y-49538000D01*
X113903047Y-49585619D01*
X113950666Y-49680857D01*
X113950666Y-49776095D01*
X113903047Y-49918952D01*
X113331619Y-50490380D01*
X113950666Y-50490380D01*
X137866380Y-64428666D02*
X137390190Y-64762000D01*
X137866380Y-65000095D02*
X136866380Y-65000095D01*
X136866380Y-64619142D01*
X136914000Y-64523904D01*
X136961619Y-64476285D01*
X137056857Y-64428666D01*
X137199714Y-64428666D01*
X137294952Y-64476285D01*
X137342571Y-64523904D01*
X137390190Y-64619142D01*
X137390190Y-65000095D01*
X137866380Y-63476285D02*
X137866380Y-64047714D01*
X137866380Y-63762000D02*
X136866380Y-63762000D01*
X137009238Y-63857238D01*
X137104476Y-63952476D01*
X137152095Y-64047714D01*
X139644380Y-64428666D02*
X139168190Y-64762000D01*
X139644380Y-65000095D02*
X138644380Y-65000095D01*
X138644380Y-64619142D01*
X138692000Y-64523904D01*
X138739619Y-64476285D01*
X138834857Y-64428666D01*
X138977714Y-64428666D01*
X139072952Y-64476285D01*
X139120571Y-64523904D01*
X139168190Y-64619142D01*
X139168190Y-65000095D01*
X138739619Y-64047714D02*
X138692000Y-64000095D01*
X138644380Y-63904857D01*
X138644380Y-63666761D01*
X138692000Y-63571523D01*
X138739619Y-63523904D01*
X138834857Y-63476285D01*
X138930095Y-63476285D01*
X139072952Y-63523904D01*
X139644380Y-64095333D01*
X139644380Y-63476285D01*
X129992380Y-63158666D02*
X129516190Y-63492000D01*
X129992380Y-63730095D02*
X128992380Y-63730095D01*
X128992380Y-63349142D01*
X129040000Y-63253904D01*
X129087619Y-63206285D01*
X129182857Y-63158666D01*
X129325714Y-63158666D01*
X129420952Y-63206285D01*
X129468571Y-63253904D01*
X129516190Y-63349142D01*
X129516190Y-63730095D01*
X128992380Y-62825333D02*
X128992380Y-62206285D01*
X129373333Y-62539619D01*
X129373333Y-62396761D01*
X129420952Y-62301523D01*
X129468571Y-62253904D01*
X129563809Y-62206285D01*
X129801904Y-62206285D01*
X129897142Y-62253904D01*
X129944761Y-62301523D01*
X129992380Y-62396761D01*
X129992380Y-62682476D01*
X129944761Y-62777714D01*
X129897142Y-62825333D01*
X141819333Y-58364380D02*
X141486000Y-57888190D01*
X141247904Y-58364380D02*
X141247904Y-57364380D01*
X141628857Y-57364380D01*
X141724095Y-57412000D01*
X141771714Y-57459619D01*
X141819333Y-57554857D01*
X141819333Y-57697714D01*
X141771714Y-57792952D01*
X141724095Y-57840571D01*
X141628857Y-57888190D01*
X141247904Y-57888190D01*
X142676476Y-57697714D02*
X142676476Y-58364380D01*
X142438380Y-57316761D02*
X142200285Y-58031047D01*
X142819333Y-58031047D01*
X125260380Y-63158666D02*
X124784190Y-63492000D01*
X125260380Y-63730095D02*
X124260380Y-63730095D01*
X124260380Y-63349142D01*
X124308000Y-63253904D01*
X124355619Y-63206285D01*
X124450857Y-63158666D01*
X124593714Y-63158666D01*
X124688952Y-63206285D01*
X124736571Y-63253904D01*
X124784190Y-63349142D01*
X124784190Y-63730095D01*
X124260380Y-62253904D02*
X124260380Y-62730095D01*
X124736571Y-62777714D01*
X124688952Y-62730095D01*
X124641333Y-62634857D01*
X124641333Y-62396761D01*
X124688952Y-62301523D01*
X124736571Y-62253904D01*
X124831809Y-62206285D01*
X125069904Y-62206285D01*
X125165142Y-62253904D01*
X125212761Y-62301523D01*
X125260380Y-62396761D01*
X125260380Y-62634857D01*
X125212761Y-62730095D01*
X125165142Y-62777714D01*
X117689333Y-59888380D02*
X117356000Y-59412190D01*
X117117904Y-59888380D02*
X117117904Y-58888380D01*
X117498857Y-58888380D01*
X117594095Y-58936000D01*
X117641714Y-58983619D01*
X117689333Y-59078857D01*
X117689333Y-59221714D01*
X117641714Y-59316952D01*
X117594095Y-59364571D01*
X117498857Y-59412190D01*
X117117904Y-59412190D01*
X118546476Y-58888380D02*
X118356000Y-58888380D01*
X118260761Y-58936000D01*
X118213142Y-58983619D01*
X118117904Y-59126476D01*
X118070285Y-59316952D01*
X118070285Y-59697904D01*
X118117904Y-59793142D01*
X118165523Y-59840761D01*
X118260761Y-59888380D01*
X118451238Y-59888380D01*
X118546476Y-59840761D01*
X118594095Y-59793142D01*
X118641714Y-59697904D01*
X118641714Y-59459809D01*
X118594095Y-59364571D01*
X118546476Y-59316952D01*
X118451238Y-59269333D01*
X118260761Y-59269333D01*
X118165523Y-59316952D01*
X118117904Y-59364571D01*
X118070285Y-59459809D01*
X117689333Y-67508380D02*
X117356000Y-67032190D01*
X117117904Y-67508380D02*
X117117904Y-66508380D01*
X117498857Y-66508380D01*
X117594095Y-66556000D01*
X117641714Y-66603619D01*
X117689333Y-66698857D01*
X117689333Y-66841714D01*
X117641714Y-66936952D01*
X117594095Y-66984571D01*
X117498857Y-67032190D01*
X117117904Y-67032190D01*
X118022666Y-66508380D02*
X118689333Y-66508380D01*
X118260761Y-67508380D01*
X117689333Y-65222380D02*
X117356000Y-64746190D01*
X117117904Y-65222380D02*
X117117904Y-64222380D01*
X117498857Y-64222380D01*
X117594095Y-64270000D01*
X117641714Y-64317619D01*
X117689333Y-64412857D01*
X117689333Y-64555714D01*
X117641714Y-64650952D01*
X117594095Y-64698571D01*
X117498857Y-64746190D01*
X117117904Y-64746190D01*
X118260761Y-64650952D02*
X118165523Y-64603333D01*
X118117904Y-64555714D01*
X118070285Y-64460476D01*
X118070285Y-64412857D01*
X118117904Y-64317619D01*
X118165523Y-64270000D01*
X118260761Y-64222380D01*
X118451238Y-64222380D01*
X118546476Y-64270000D01*
X118594095Y-64317619D01*
X118641714Y-64412857D01*
X118641714Y-64460476D01*
X118594095Y-64555714D01*
X118546476Y-64603333D01*
X118451238Y-64650952D01*
X118260761Y-64650952D01*
X118165523Y-64698571D01*
X118117904Y-64746190D01*
X118070285Y-64841428D01*
X118070285Y-65031904D01*
X118117904Y-65127142D01*
X118165523Y-65174761D01*
X118260761Y-65222380D01*
X118451238Y-65222380D01*
X118546476Y-65174761D01*
X118594095Y-65127142D01*
X118641714Y-65031904D01*
X118641714Y-64841428D01*
X118594095Y-64746190D01*
X118546476Y-64698571D01*
X118451238Y-64650952D01*
X135469333Y-49956880D02*
X135136000Y-49480690D01*
X134897904Y-49956880D02*
X134897904Y-48956880D01*
X135278857Y-48956880D01*
X135374095Y-49004500D01*
X135421714Y-49052119D01*
X135469333Y-49147357D01*
X135469333Y-49290214D01*
X135421714Y-49385452D01*
X135374095Y-49433071D01*
X135278857Y-49480690D01*
X134897904Y-49480690D01*
X135945523Y-49956880D02*
X136136000Y-49956880D01*
X136231238Y-49909261D01*
X136278857Y-49861642D01*
X136374095Y-49718785D01*
X136421714Y-49528309D01*
X136421714Y-49147357D01*
X136374095Y-49052119D01*
X136326476Y-49004500D01*
X136231238Y-48956880D01*
X136040761Y-48956880D01*
X135945523Y-49004500D01*
X135897904Y-49052119D01*
X135850285Y-49147357D01*
X135850285Y-49385452D01*
X135897904Y-49480690D01*
X135945523Y-49528309D01*
X136040761Y-49575928D01*
X136231238Y-49575928D01*
X136326476Y-49528309D01*
X136374095Y-49480690D01*
X136421714Y-49385452D01*
X117721142Y-62682380D02*
X117387809Y-62206190D01*
X117149714Y-62682380D02*
X117149714Y-61682380D01*
X117530666Y-61682380D01*
X117625904Y-61730000D01*
X117673523Y-61777619D01*
X117721142Y-61872857D01*
X117721142Y-62015714D01*
X117673523Y-62110952D01*
X117625904Y-62158571D01*
X117530666Y-62206190D01*
X117149714Y-62206190D01*
X118673523Y-62682380D02*
X118102095Y-62682380D01*
X118387809Y-62682380D02*
X118387809Y-61682380D01*
X118292571Y-61825238D01*
X118197333Y-61920476D01*
X118102095Y-61968095D01*
X119292571Y-61682380D02*
X119387809Y-61682380D01*
X119483047Y-61730000D01*
X119530666Y-61777619D01*
X119578285Y-61872857D01*
X119625904Y-62063333D01*
X119625904Y-62301428D01*
X119578285Y-62491904D01*
X119530666Y-62587142D01*
X119483047Y-62634761D01*
X119387809Y-62682380D01*
X119292571Y-62682380D01*
X119197333Y-62634761D01*
X119149714Y-62587142D01*
X119102095Y-62491904D01*
X119054476Y-62301428D01*
X119054476Y-62063333D01*
X119102095Y-61872857D01*
X119149714Y-61777619D01*
X119197333Y-61730000D01*
X119292571Y-61682380D01*
X115181142Y-47442380D02*
X114847809Y-46966190D01*
X114609714Y-47442380D02*
X114609714Y-46442380D01*
X114990666Y-46442380D01*
X115085904Y-46490000D01*
X115133523Y-46537619D01*
X115181142Y-46632857D01*
X115181142Y-46775714D01*
X115133523Y-46870952D01*
X115085904Y-46918571D01*
X114990666Y-46966190D01*
X114609714Y-46966190D01*
X116133523Y-47442380D02*
X115562095Y-47442380D01*
X115847809Y-47442380D02*
X115847809Y-46442380D01*
X115752571Y-46585238D01*
X115657333Y-46680476D01*
X115562095Y-46728095D01*
X117085904Y-47442380D02*
X116514476Y-47442380D01*
X116800190Y-47442380D02*
X116800190Y-46442380D01*
X116704952Y-46585238D01*
X116609714Y-46680476D01*
X116514476Y-46728095D01*
X132334095Y-57618380D02*
X132334095Y-58427904D01*
X132381714Y-58523142D01*
X132429333Y-58570761D01*
X132524571Y-58618380D01*
X132715047Y-58618380D01*
X132810285Y-58570761D01*
X132857904Y-58523142D01*
X132905523Y-58427904D01*
X132905523Y-57618380D01*
X133905523Y-58618380D02*
X133334095Y-58618380D01*
X133619809Y-58618380D02*
X133619809Y-57618380D01*
X133524571Y-57761238D01*
X133429333Y-57856476D01*
X133334095Y-57904095D01*
X121158095Y-58888380D02*
X121158095Y-59697904D01*
X121205714Y-59793142D01*
X121253333Y-59840761D01*
X121348571Y-59888380D01*
X121539047Y-59888380D01*
X121634285Y-59840761D01*
X121681904Y-59793142D01*
X121729523Y-59697904D01*
X121729523Y-58888380D01*
X122158095Y-58983619D02*
X122205714Y-58936000D01*
X122300952Y-58888380D01*
X122539047Y-58888380D01*
X122634285Y-58936000D01*
X122681904Y-58983619D01*
X122729523Y-59078857D01*
X122729523Y-59174095D01*
X122681904Y-59316952D01*
X122110476Y-59888380D01*
X122729523Y-59888380D01*
M02*
